<svg width="24" height="24" viewBox="0 0 24 24" fill="none" xmlns="http://www.w3.org/2000/svg">
<path d="M14.0001 20.2808C14 20.8307 13.8038 21.3013 13.4122 21.6929C13.0205 22.0845 12.55 22.2807 12.0001 22.2808C11.4501 22.2808 10.9796 22.0845 10.5879 21.6929C10.1963 21.3012 10.0001 20.8308 10.0001 20.2808H14.0001Z" fill="black"/>
<path fill-rule="evenodd" clip-rule="evenodd" d="M12.0001 2.28079C12.4166 2.28083 12.7709 2.42666 13.0626 2.71829C13.3541 3.00993 13.5001 3.36417 13.5001 3.78079V4.48098C14.8333 4.81434 15.9168 5.51835 16.7501 6.59329C17.5833 7.66826 18.0001 8.8975 18.0001 10.2808V17.2808H19.0001C19.2833 17.2808 19.5213 17.3763 19.7129 17.5679C19.9045 17.7595 20.0001 17.9975 20.0001 18.2808C20 18.5641 19.9046 18.802 19.7129 18.9937C19.5213 19.1853 19.2833 19.2807 19.0001 19.2808H5.00006C4.71678 19.2808 4.47881 19.1853 4.28717 18.9937C4.09551 18.802 4.00007 18.5641 4.00006 18.2808C4.00006 17.9975 4.0955 17.7596 4.28717 17.5679C4.47882 17.3763 4.71676 17.2808 5.00006 17.2808H6.00006V10.2808C6.00006 8.89745 6.41672 7.66829 7.25006 6.59329C8.08337 5.51834 9.16677 4.81431 10.5001 4.48098V3.78079C10.5001 3.36412 10.6459 3.00995 10.9376 2.71829C11.2292 2.42667 11.5834 2.28079 12.0001 2.28079ZM12.0001 6.28079C10.9001 6.28079 9.95818 6.67231 9.17486 7.45559C8.39153 8.23893 8.00006 9.18079 8.00006 10.2808V17.2808H16.0001V10.2808C16.0001 9.18084 15.6085 8.2389 14.8253 7.45559C14.042 6.6723 13.1 6.28083 12.0001 6.28079Z" fill="black"/>
<path d="M4.8399 1.93313C5.23526 1.59414 5.82474 1.67176 6.15826 2.0718C6.52996 2.5179 6.43687 3.18384 6.00396 3.57083C4.39391 5.01018 3.30459 7.01984 3.05474 9.28274C2.99405 9.83153 2.55218 10.2807 2.00006 10.2808C1.44777 10.2808 0.995423 9.83182 1.04498 9.28176C1.30938 6.34779 2.72689 3.74679 4.8399 1.93313Z" fill="black"/>
<path d="M17.8399 2.0718C18.1734 1.6715 18.7638 1.59387 19.1592 1.93313C21.2727 3.74675 22.6907 6.34753 22.9551 9.28176C23.0047 9.83176 22.5523 10.2807 22.0001 10.2808C21.4479 10.2808 21.0061 9.83157 20.9454 9.28274C20.6955 7.01974 19.6055 5.01013 17.9952 3.57083C17.5622 3.18392 17.4683 2.51792 17.8399 2.0718Z" fill="black"/>
</svg>
