<svg width="24" height="24" viewBox="0 0 24 24" fill="none" xmlns="http://www.w3.org/2000/svg">
<path d="M14 20C14 20.55 13.8038 21.0204 13.4121 21.4121C13.0204 21.8038 12.55 22 12 22C11.45 22 10.9796 21.8038 10.5879 21.4121C10.1962 21.0204 10 20.55 10 20H14Z" fill="black"/>
<path fill-rule="evenodd" clip-rule="evenodd" d="M12 2C12.4167 2 12.7708 2.14583 13.0625 2.4375C13.3542 2.72917 13.5 3.08333 13.5 3.5V4.2002C14.8333 4.53353 15.9167 5.23751 16.75 6.3125C17.5833 7.3875 18 8.61667 18 10V17H19C19.2833 17 19.5212 17.0954 19.7129 17.2871C19.9046 17.4788 20 17.7167 20 18C20 18.2833 19.9046 18.5212 19.7129 18.7129C19.5212 18.9046 19.2833 19 19 19H5C4.71667 19 4.47878 18.9046 4.28711 18.7129C4.09544 18.5212 4 18.2833 4 18C4 17.7167 4.09544 17.4788 4.28711 17.2871C4.47878 17.0954 4.71667 17 5 17H6V10C6 8.61667 6.41667 7.3875 7.25 6.3125C8.08332 5.23751 9.16669 4.53353 10.5 4.2002V3.5C10.5 3.08333 10.6458 2.72917 10.9375 2.4375C11.2292 2.14583 11.5833 2 12 2ZM12 6C10.9 6 9.95814 6.39147 9.1748 7.1748C8.39147 7.95814 8 8.9 8 10V17H16V10C16 8.9 15.6085 7.95814 14.8252 7.1748C14.0419 6.39147 13.1 6 12 6Z" fill="black"/>
</svg>
