<svg width="24" height="24" viewBox="0 0 24 24" fill="none" xmlns="http://www.w3.org/2000/svg">
<path d="M13.9999 20C13.9999 20.55 13.8037 21.0205 13.412 21.4121C13.0204 21.8038 12.5499 22 11.9999 22C11.4499 22 10.9795 21.8037 10.5878 21.4121C10.1961 21.0204 9.99992 20.55 9.99992 20H13.9999Z" fill="black"/>
<path fill-rule="evenodd" clip-rule="evenodd" d="M3.29289 3.29297C3.68342 2.90245 4.31643 2.90245 4.70696 3.29297L20.2929 18.8789C20.6832 19.2694 20.6833 19.9025 20.2929 20.293C19.9024 20.6834 19.2694 20.6833 18.8788 20.293L17.5859 19H4.99992C4.71661 19 4.47869 18.9045 4.28703 18.7129C4.09537 18.5212 3.99992 18.2833 3.99992 18C3.99992 17.7167 4.09537 17.4788 4.28703 17.2871C4.47869 17.0955 4.71661 17 4.99992 17H5.99992V10C5.99992 9.22107 6.13121 8.49074 6.39543 7.80957L3.29289 4.70703C2.90237 4.31651 2.90237 3.68349 3.29289 3.29297ZM8.03606 9.4502C8.01318 9.62892 7.99992 9.81203 7.99992 10V17H15.5859L8.03606 9.4502Z" fill="black"/>
<path d="M11.9999 2C12.4166 2.00002 12.7708 2.14586 13.0624 2.4375C13.3541 2.72916 13.4999 3.08336 13.4999 3.5V4.2002C14.8332 4.53354 15.9166 5.23754 16.7499 6.3125C17.5832 7.38749 17.9999 8.61669 17.9999 10V14.1719L15.9999 12.1719V10C15.9999 8.90002 15.6084 7.95813 14.8251 7.1748C14.0418 6.39149 13.0999 6.00002 11.9999 6C11.3561 6 10.7668 6.13502 10.2314 6.40332L8.76067 4.93262C9.28352 4.60416 9.86297 4.35944 10.4999 4.2002V3.5C10.4999 3.08333 10.6458 2.72917 10.9374 2.4375C11.2291 2.14586 11.5833 2 11.9999 2Z" fill="black"/>
</svg>
