<svg width="24" height="24" viewBox="0 0 24 24" fill="none" xmlns="http://www.w3.org/2000/svg">
<path d="M14.7933 9.29305C15.1839 8.90295 15.817 8.90267 16.2074 9.29305C16.5978 9.68343 16.5975 10.3166 16.2074 10.7071L11.8841 15.0304C11.396 15.5185 10.6047 15.5185 10.1166 15.0304L8.29331 13.2071C7.90279 12.8166 7.90279 12.1836 8.29331 11.793C8.68387 11.4029 9.31699 11.4027 9.70737 11.793L11.0003 13.086L14.7933 9.29305Z" fill="black"/>
<path fill-rule="evenodd" clip-rule="evenodd" d="M14.9964 1.67391C15.2271 1.5749 15.4952 1.66226 15.6234 1.87801L17.0707 4.32039C17.2106 4.55666 17.4415 4.72537 17.7093 4.78621L20.473 5.41317C20.7174 5.46885 20.8827 5.69771 20.8597 5.94735L20.599 8.77352C20.5739 9.0462 20.6619 9.31737 20.8421 9.52352L22.7123 11.6622C22.8768 11.8504 22.8774 12.1309 22.7132 12.3194L20.8412 14.4679C20.6616 14.6739 20.5739 14.9447 20.599 15.2169L20.8597 18.044C20.8827 18.2936 20.7173 18.5215 20.473 18.5772L17.7093 19.2052C17.4415 19.266 17.2106 19.4347 17.0707 19.671L15.6234 22.1124C15.4954 22.3285 15.2272 22.4165 14.9964 22.3175L12.3958 21.2003C12.1433 21.0919 11.8571 21.0923 11.6048 21.2013L9.00425 22.3253C8.77303 22.4251 8.50344 22.338 8.37534 22.1212L6.92905 19.672C6.78914 19.4351 6.55769 19.2661 6.2894 19.2052L3.52671 18.5772C3.28246 18.5215 3.11706 18.2936 3.13999 18.044L3.40073 15.2081C3.42578 14.9355 3.33774 14.6642 3.15757 14.4581L1.28745 12.3194C1.12293 12.1309 1.12275 11.8496 1.28745 11.6612L3.15757 9.52352C3.33783 9.3174 3.42579 9.04619 3.40073 8.77352L3.13999 5.93758C3.11724 5.68755 3.28364 5.45935 3.52866 5.40438L6.28843 4.78524C6.55722 4.72493 6.78955 4.55637 6.93003 4.31942L8.37632 1.87801C8.50444 1.66225 8.77263 1.57497 9.00327 1.67391L11.6058 2.7911C11.8576 2.89912 12.1431 2.89922 12.3949 2.7911L14.9964 1.67391ZM14.7943 4.41121C14.6663 4.19394 14.3959 4.10601 14.1644 4.20613L12.7904 4.80086L12.3929 4.97176C12.1422 5.07967 11.858 5.08032 11.6068 4.97371L11.1996 4.80086L9.82553 4.20613C9.59408 4.10601 9.32368 4.19394 9.19565 4.41121L8.43003 5.71102L8.20932 6.08113C8.06909 6.31693 7.83824 6.48445 7.57065 6.545L5.67807 6.97371C5.43318 7.02913 5.26718 7.25788 5.29038 7.50789L5.43003 9.01082L5.47495 9.44149C5.50349 9.71543 5.4174 9.98865 5.23764 10.1973L4.9603 10.5206L3.95737 11.671C3.79286 11.8597 3.79323 12.141 3.95835 12.3292L4.9603 13.4708L5.24155 13.7979C5.41901 14.0039 5.5052 14.2733 5.47983 14.544L5.43979 14.9708L5.30014 16.4942C5.27733 16.744 5.4432 16.9721 5.68784 17.0274L7.58042 17.4561C7.84796 17.5167 8.07884 17.6843 8.21909 17.92L8.43979 18.2901L9.20542 19.5821C9.33381 19.7985 9.6034 19.8861 9.83432 19.7862L11.2103 19.1905L11.6068 19.0196C11.8577 18.9116 12.1425 18.9108 12.3939 19.0177L12.8001 19.1905L14.1751 19.7852C14.4065 19.8852 14.6761 19.7973 14.8041 19.5802L15.5697 18.2804L15.7904 17.9102C15.9306 17.6744 16.1614 17.5059 16.4291 17.4454L18.3216 17.0177C18.5664 16.9623 18.7324 16.7334 18.7093 16.4835L18.5697 14.9708L18.5296 14.544C18.5043 14.2734 18.5905 14.0039 18.7679 13.7979L19.0501 13.4708L20.0453 12.3204C20.2086 12.1316 20.207 11.8508 20.0423 11.6632L19.0404 10.5206L18.7582 10.1934C18.5806 9.98736 18.4944 9.71719 18.5199 9.44637L18.5599 9.02059L18.6996 7.50692C18.7224 7.25717 18.5565 7.02907 18.3119 6.97371L16.4193 6.545C16.1517 6.48446 15.9209 6.31691 15.7806 6.08113L15.5599 5.71102L14.7943 4.41121Z" fill="black"/>
</svg>
