<svg width="24" height="24" viewBox="0 0 24 24" fill="none" xmlns="http://www.w3.org/2000/svg">
<path d="M12.6652 17.7125C12.8567 17.5209 12.9518 17.2824 12.9518 16.9992C12.9517 16.7162 12.8559 16.4781 12.6645 16.2866C12.473 16.0953 12.2348 15.9994 11.9519 15.9993C11.6689 15.9994 11.4308 16.0952 11.2393 16.2866C11.0478 16.4781 10.9521 16.7161 10.952 16.9992C10.952 17.2823 11.0479 17.5203 11.2393 17.7118C11.4308 17.9033 11.6688 17.999 11.9519 17.9991C12.2351 17.999 12.4736 17.9041 12.6652 17.7125Z" fill="black"/>
<path fill-rule="evenodd" clip-rule="evenodd" d="M21.7789 23.0932C22.1692 22.7026 22.1694 22.0694 21.7789 21.6789L12.9525 12.8525L12.9525 10.9991C12.9523 10.7163 12.8565 10.478 12.6652 10.2865C12.4738 10.0952 12.2354 9.99944 11.9526 9.99926C11.6696 9.99929 11.4308 10.0946 11.2393 10.2858C11.0796 10.4455 10.9882 10.6384 10.9617 10.8617L4.80832 4.70839C4.41782 4.31827 3.78453 4.31815 3.39411 4.70839C3.0037 5.09879 3.00394 5.73205 3.39411 6.1226L6.83228 9.56077L1.67123 18.499L1.60355 18.6247C0.982395 19.8922 1.85135 21.3983 3.25946 21.4946L3.4024 21.4994L18.7709 21.4994L20.3647 23.0932C20.7552 23.4837 21.3884 23.4837 21.7789 23.0932ZM3.4024 19.4996L8.29552 11.024L10.952 13.6805V13.9995C10.9521 14.2826 11.0479 14.5206 11.2393 14.7122C11.4308 14.9036 11.6688 14.9993 11.9519 14.9994C12.0518 14.9994 12.1464 14.9873 12.235 14.9635L16.7711 19.4996L3.4024 19.4996Z" fill="black"/>
<path d="M22.7056 19.7772C22.7659 19.3591 22.6937 18.9128 22.4549 18.499L13.7949 3.49995C13.0251 2.16713 11.1004 2.16647 10.3305 3.49926L8.9025 5.97413L10.3664 7.43807L12.0624 4.49915L18.3932 15.4648L22.7056 19.7772Z" fill="black"/>
</svg>
