<svg width="24" height="24" viewBox="0 0 24 24" fill="none" xmlns="http://www.w3.org/2000/svg">
<path fill-rule="evenodd" clip-rule="evenodd" d="M12 6C13.93 6 15.5 7.57 15.5 9.5C15.5 11.43 13.93 13 12 13C10.07 13 8.5 11.43 8.5 9.5C8.5 7.57 10.07 6 12 6ZM12 8C11.17 8 10.5 8.67 10.5 9.5C10.5 10.33 11.17 11 12 11C12.83 11 13.5 10.33 13.5 9.5C13.5 8.67 12.83 8 12 8Z" fill="black"/>
<path fill-rule="evenodd" clip-rule="evenodd" d="M12 2C17.52 2 22 6.48 22 12C22 17.52 17.52 22 12 22C6.48 22 2 17.52 2 12C2 6.48 6.48 2 12 2ZM12 17C10.26 17 8.65961 17.56 7.34961 18.5C8.65961 19.44 10.26 20 12 20C13.74 20 15.3404 19.44 16.6504 18.5C15.3404 17.56 13.74 17 12 17ZM12 4C7.58 4 4 7.58 4 12C4 13.95 4.70035 15.7301 5.86035 17.1201C7.55033 15.8002 9.68007 15 12 15C14.3199 15 16.4497 15.8002 18.1396 17.1201C19.2996 15.7301 20 13.95 20 12C20 7.58 16.42 4 12 4Z" fill="black"/>
</svg>
