<svg width="24" height="24" viewBox="0 0 24 24" fill="none" xmlns="http://www.w3.org/2000/svg">
<path d="M20.4395 13.793C20.8299 13.4026 21.463 13.4027 21.8535 13.793C22.2438 14.1835 22.2439 14.8166 21.8535 15.207L15.5 21.5605L12.293 18.3535C11.9025 17.963 11.9025 17.33 12.293 16.9395C12.6835 16.549 13.3165 16.549 13.707 16.9395L15.5 18.7324L20.4395 13.793Z" fill="black"/>
<path d="M13 12C14.3547 12 15.6041 12.4497 16.6084 13.207L15.1719 14.6426C14.5462 14.237 13.8011 14 13 14H9C6.79086 14 5 15.7909 5 18V19H9.77441C9.94506 19.407 10.1931 19.7897 10.5244 20.1211L11.4033 21H3V18C3 14.6863 5.68629 12 9 12H13Z" fill="black"/>
<path fill-rule="evenodd" clip-rule="evenodd" d="M11 3C13.2091 3 15 4.79086 15 7C15 9.20914 13.2091 11 11 11C8.79086 11 7 9.20914 7 7C7 4.79086 8.79086 3 11 3ZM11 5C9.89543 5 9 5.89543 9 7C9 8.10457 9.89543 9 11 9C12.1046 9 13 8.10457 13 7C13 5.89543 12.1046 5 11 5Z" fill="black"/>
</svg>
