<svg width="24" height="24" viewBox="0 0 24 24" fill="none" xmlns="http://www.w3.org/2000/svg">
<path fill-rule="evenodd" clip-rule="evenodd" d="M12 12C15.3137 12 18 14.6863 18 18V21H2V18C2 14.6863 4.68629 12 8 12H12ZM8 14C5.79086 14 4 15.7909 4 18V19H16V18C16 15.7909 14.2091 14 12 14H8Z" fill="black"/>
<path fill-rule="evenodd" clip-rule="evenodd" d="M10 3C12.2091 3 14 4.79086 14 7C14 9.20914 12.2091 11 10 11C7.79086 11 6 9.20914 6 7C6 4.79086 7.79086 3 10 3ZM10 5C8.89543 5 8 5.89543 8 7C8 8.10457 8.89543 9 10 9C11.1046 9 12 8.10457 12 7C12 5.89543 11.1046 5 10 5Z" fill="black"/>
<path d="M21 6C21.5523 6 22 6.44772 22 7C22 7.55228 21.5523 8 21 8H17C16.4477 8 16 7.55228 16 7C16 6.44772 16.4477 6 17 6H21Z" fill="black"/>
</svg>
