<svg width="24" height="24" viewBox="0 0 24 24" fill="none" xmlns="http://www.w3.org/2000/svg">
<path d="M15.8809 8.29004C16.2724 7.89856 16.9077 7.90009 17.2979 8.29297C17.6856 8.68392 17.6843 9.31567 17.2949 9.70508L10 17L6.70605 13.7061C6.31632 13.3163 6.31632 12.6837 6.70605 12.2939C7.09522 11.9052 7.72539 11.9049 8.11523 12.293L10 14.1699L15.8809 8.29004Z" fill="black"/>
<path fill-rule="evenodd" clip-rule="evenodd" d="M21 5V11C21 16.55 17.16 21.74 12 23C6.84 21.74 3 16.55 3 11V5L12 1L21 5ZM5 6.2998V11C5 15.52 7.98004 19.6897 12 20.9297C16.02 19.6897 19 15.52 19 11V6.2998L12 3.19043L5 6.2998Z" fill="black"/>
</svg>
