<svg width="24" height="24" viewBox="0 0 24 24" fill="none" xmlns="http://www.w3.org/2000/svg">
<path d="M9 1C9.55215 1 9.99978 1.4479 10 2V4C10 4.55228 9.55229 5 9 5H7C5.89557 5 5.00022 5.89562 5 7V17C5 18.1046 5.89543 19 7 19H17C18.1046 19 19 18.1046 19 17V15C19.0002 14.4479 19.4479 14 20 14H22C22.5521 14 22.9998 14.4479 23 15C23 15.5523 22.5523 16 22 16H21V17C21 19.14 19.3194 20.8879 17.2061 20.9951L17 21H16V22C16 22.5523 15.5523 23 15 23C14.4477 23 14 22.5523 14 22V21H10V22C10 22.5523 9.55229 23 9 23C8.44772 23 8 22.5523 8 22V21H7L6.79395 20.9951C4.74881 20.8913 3.10865 19.2512 3.00488 17.2061L3 17V16H2C1.44772 16 1 15.5523 1 15C1.00022 14.4479 1.44785 14 2 14H3V10H2C1.44772 10 1 9.55228 1 9C1.00022 8.4479 1.44785 8 2 8H3V7C3.00022 4.79105 4.791 3 7 3H8V2C8.00022 1.4479 8.44785 1 9 1Z" fill="black"/>
<path d="M11.9277 9.01074C12.0453 8.97669 12.1852 9.02778 12.2363 9.16406L12.6436 10.251C12.8353 10.7621 13.2389 11.1657 13.75 11.3574L14.8369 11.7646C15.0544 11.8466 15.0543 12.1543 14.8369 12.2363L13.75 12.6445C13.239 12.8362 12.8353 13.239 12.6436 13.75L12.2363 14.8369C12.23 14.8537 12.2217 14.8696 12.2129 14.8838C12.2078 14.8921 12.2021 14.8998 12.1963 14.9072L12.1924 14.9121C12.1858 14.92 12.1783 14.9277 12.1709 14.9346C12.1671 14.938 12.1631 14.9411 12.1592 14.9443C12.1551 14.9477 12.1508 14.9511 12.1465 14.9541C12.1413 14.9578 12.1362 14.9616 12.1309 14.9648C12.1253 14.9682 12.119 14.9708 12.1133 14.9736C12.1091 14.9757 12.1049 14.9777 12.1006 14.9795C12.0941 14.9822 12.0867 14.9851 12.0801 14.9873C12.0762 14.9886 12.0723 14.9901 12.0684 14.9912C12.0607 14.9933 12.0528 14.9947 12.0449 14.9961C12.0414 14.9967 12.0377 14.9976 12.0342 14.998C12.0113 15.0011 11.9878 15.0011 11.9648 14.998C11.962 14.9977 11.9588 14.9966 11.9561 14.9961C11.9479 14.9947 11.9397 14.9934 11.9316 14.9912C11.927 14.9899 11.9216 14.9879 11.917 14.9863C11.9114 14.9844 11.9058 14.9827 11.9004 14.9805C11.8954 14.9784 11.8906 14.976 11.8857 14.9736C11.8796 14.9706 11.8731 14.9675 11.8672 14.9639C11.863 14.9613 11.8586 14.9579 11.8545 14.9551C11.8489 14.9512 11.8432 14.9468 11.8379 14.9424C11.8347 14.9398 11.8311 14.9374 11.8281 14.9346C11.8208 14.9277 11.8142 14.92 11.8076 14.9121L11.8037 14.9072C11.7978 14.8998 11.7922 14.8921 11.7871 14.8838C11.7783 14.8695 11.77 14.8538 11.7637 14.8369L11.3564 13.75C11.1647 13.239 10.7611 12.8362 10.25 12.6445L9.16309 12.2363C9.09528 12.2108 9.04895 12.1632 9.02344 12.1074C8.99279 12.0402 8.99274 11.9607 9.02344 11.8936C9.03355 11.8715 9.04674 11.8506 9.06348 11.832C9.08895 11.8038 9.12238 11.78 9.16309 11.7646L9.36914 11.6865L10.25 11.3574C10.7348 11.1756 11.1229 10.8031 11.3252 10.3291L11.3564 10.251L11.7637 9.16406C11.7739 9.13688 11.7883 9.11317 11.8047 9.09277C11.8211 9.0724 11.8396 9.05461 11.8604 9.04102C11.8812 9.02743 11.9043 9.01755 11.9277 9.01074Z" fill="black"/>
<path d="M17.8789 1.01758C18.0748 0.960721 18.3084 1.04623 18.3936 1.27344L19.0723 3.08398C19.3918 3.936 20.064 4.60917 20.916 4.92871L22.7275 5.60742C23.0908 5.74375 23.0906 6.25709 22.7275 6.39355L20.916 7.07324C20.0642 7.39278 19.3918 8.0651 19.0723 8.91699L18.3936 10.7285C18.383 10.7565 18.3692 10.782 18.3545 10.8057C18.3457 10.8198 18.3362 10.8331 18.3262 10.8457C18.3244 10.8479 18.3231 10.8504 18.3213 10.8525C18.3101 10.866 18.2976 10.8781 18.2852 10.8896C18.2785 10.8958 18.2716 10.9016 18.2646 10.9072C18.2579 10.9127 18.2511 10.9179 18.2441 10.9229C18.2356 10.9289 18.2267 10.9351 18.2178 10.9404C18.2085 10.946 18.199 10.9513 18.1895 10.9561C18.1821 10.9597 18.1745 10.9626 18.167 10.9658C18.1562 10.9704 18.1449 10.9749 18.1338 10.9785C18.1271 10.9807 18.1201 10.9825 18.1133 10.9844C18.1005 10.9879 18.0873 10.9909 18.0742 10.9932C18.0687 10.9941 18.0632 10.9953 18.0576 10.9961C18.0193 11.0012 17.9797 11.0013 17.9414 10.9961C17.9368 10.9954 17.9323 10.9949 17.9277 10.9941C17.9136 10.9918 17.8996 10.9882 17.8857 10.9844C17.878 10.9822 17.87 10.9801 17.8623 10.9775C17.8528 10.9743 17.8433 10.9707 17.834 10.9668C17.8257 10.9633 17.8176 10.9591 17.8096 10.9551C17.7994 10.95 17.7891 10.9454 17.7793 10.9395C17.7721 10.9351 17.7647 10.9296 17.7578 10.9248C17.7484 10.9182 17.7393 10.9107 17.7305 10.9033C17.7252 10.8989 17.719 10.8954 17.7139 10.8906C17.7014 10.879 17.6899 10.866 17.6787 10.8525C17.6768 10.8502 17.6747 10.8481 17.6729 10.8457C17.663 10.8333 17.6542 10.8196 17.6455 10.8057C17.6308 10.7819 17.617 10.7566 17.6064 10.7285L16.9277 8.91699C16.6082 8.06499 15.935 7.39275 15.083 7.07324L13.2725 6.39355C13.159 6.3509 13.0806 6.272 13.0381 6.17871C12.987 6.06669 12.9869 5.93425 13.0381 5.82227C13.0551 5.78508 13.0781 5.75007 13.1064 5.71875C13.149 5.67172 13.2045 5.63296 13.2725 5.60742L13.6162 5.47754L15.083 4.92871C15.891 4.62571 16.5379 4.00477 16.875 3.21484L16.9277 3.08398L17.6064 1.27246C17.6234 1.2274 17.6467 1.18816 17.6738 1.1543C17.7012 1.12031 17.7329 1.09103 17.7676 1.06836C17.8021 1.0458 17.84 1.02892 17.8789 1.01758Z" fill="black"/>
</svg>
