<svg width="24" height="24" viewBox="0 0 24 24" fill="none" xmlns="http://www.w3.org/2000/svg">
<path d="M11.758 2.03408C12.1498 1.92038 12.6154 2.09128 12.7859 2.54554L14.1457 6.16733C14.7848 7.87115 16.1285 9.21597 17.8323 9.85502L21.4553 11.2136C22.1816 11.4865 22.1816 12.5143 21.4553 12.7871L17.8323 14.1457C16.1285 14.7848 14.7848 16.1296 14.1457 17.8334L12.7859 21.4552C12.7648 21.5113 12.7371 21.5616 12.7077 21.609C12.6902 21.6374 12.6729 21.6656 12.6528 21.6908C12.6492 21.6953 12.6455 21.6999 12.6418 21.7042C12.6196 21.731 12.5959 21.7556 12.571 21.7787C12.5578 21.791 12.5434 21.8016 12.5295 21.8129C12.5159 21.8239 12.5022 21.8346 12.488 21.8446C12.4708 21.8568 12.4535 21.8693 12.4355 21.88C12.4172 21.891 12.3984 21.9011 12.3794 21.9105C12.3646 21.9179 12.3493 21.9249 12.3342 21.9313C12.3127 21.9404 12.2904 21.9472 12.2683 21.9545C12.2546 21.959 12.2407 21.9641 12.2268 21.9679C12.2013 21.9749 12.1759 21.9817 12.1499 21.9862C12.1382 21.9883 12.1262 21.9908 12.1145 21.9923C12.0379 22.0025 11.9603 22.0026 11.8838 21.9923C11.8741 21.991 11.8641 21.9878 11.8545 21.9862C11.8263 21.9814 11.7978 21.9755 11.7702 21.9679C11.7551 21.9637 11.74 21.9595 11.7251 21.9545C11.706 21.948 11.6863 21.9403 11.6677 21.9325C11.6512 21.9256 11.635 21.9173 11.6189 21.9093C11.5987 21.8992 11.5785 21.8894 11.5591 21.8776C11.5447 21.8689 11.5302 21.8592 11.5163 21.8495C11.4974 21.8363 11.4793 21.8218 11.4614 21.8068C11.4507 21.7978 11.4387 21.7895 11.4284 21.7799C11.4035 21.7567 11.38 21.7311 11.3576 21.7042C11.3539 21.6997 11.3491 21.6954 11.3454 21.6908C11.3257 21.6659 11.3078 21.6382 11.2905 21.6102C11.2611 21.5627 11.2335 21.5114 11.2124 21.4552L9.85495 17.8334C9.21594 16.1296 7.87101 14.7848 6.16719 14.1457L2.54414 12.7871C2.31738 12.7018 2.16168 12.5427 2.07661 12.3562C1.97451 12.1323 1.97442 11.8684 2.07661 11.6446C2.11066 11.57 2.15663 11.4998 2.21332 11.437C2.29834 11.343 2.40824 11.2647 2.54414 11.2136L3.23139 10.9549L6.16719 9.85502C7.7829 9.24897 9.07451 8.00821 9.74875 6.42855L9.85495 6.16733L11.2124 2.54432C11.2465 2.45359 11.2931 2.37434 11.3479 2.30629C11.4026 2.23828 11.4665 2.18197 11.5359 2.13661C11.6051 2.09142 11.68 2.05676 11.758 2.03408Z" fill="black"/>
</svg>
