<svg width="24" height="24" viewBox="0 0 24 24" fill="none" xmlns="http://www.w3.org/2000/svg">
<path d="M5.87974 13.0165C6.07547 12.96 6.30821 13.0455 6.39342 13.2724L7.0731 15.0839C7.39264 15.9356 8.06418 16.6081 8.91588 16.9277L10.7274 17.6064C11.0908 17.7427 11.0907 18.2571 10.7274 18.3935L8.91588 19.0732C8.06415 19.3927 7.39258 20.0651 7.0731 20.9169L6.39342 22.7275C6.38292 22.7554 6.36898 22.7809 6.35435 22.8046C6.34558 22.8188 6.3361 22.833 6.32603 22.8456C6.32443 22.8476 6.32279 22.8495 6.32115 22.8515C6.30999 22.8649 6.29748 22.878 6.28502 22.8896C6.2785 22.8956 6.27134 22.9016 6.26451 22.9071C6.25778 22.9126 6.25101 22.9178 6.244 22.9228C6.23539 22.9289 6.22662 22.935 6.21764 22.9403C6.20846 22.9458 6.19883 22.9503 6.18931 22.955C6.18188 22.9587 6.17447 22.9625 6.16685 22.9657C6.15627 22.9702 6.1455 22.9739 6.13463 22.9775C6.1279 22.9797 6.12093 22.9824 6.11412 22.9843C6.10134 22.9878 6.08808 22.9908 6.07506 22.9931C6.0693 22.9941 6.06326 22.9952 6.05748 22.996C6.0193 23.0011 5.98042 23.0011 5.94224 22.996C5.93743 22.9954 5.93239 22.9939 5.9276 22.9931C5.91348 22.9907 5.89944 22.9881 5.8856 22.9843C5.87783 22.9822 5.86982 22.98 5.86217 22.9775C5.85264 22.9742 5.84314 22.9706 5.83385 22.9667C5.82556 22.9632 5.81751 22.959 5.80943 22.955C5.7992 22.9499 5.78899 22.9444 5.77916 22.9384C5.77215 22.9341 5.76543 22.9294 5.75865 22.9247C5.74908 22.918 5.73938 22.9108 5.73033 22.9032C5.72497 22.8988 5.71888 22.8944 5.71373 22.8896C5.70133 22.878 5.68968 22.8648 5.67857 22.8515C5.67678 22.8494 5.67446 22.8478 5.67271 22.8456C5.66288 22.8332 5.65397 22.8195 5.64537 22.8056C5.63063 22.7818 5.61686 22.7556 5.60631 22.7275L4.9276 20.9169C4.60812 20.0651 3.93563 19.3927 3.08385 19.0732L1.27232 18.3935C1.15889 18.3508 1.08047 18.271 1.03795 18.1777C0.987097 18.0658 0.986954 17.934 1.03795 17.8222C1.05494 17.785 1.07805 17.75 1.10631 17.7187C1.14884 17.6716 1.2043 17.6319 1.27232 17.6064L3.08385 16.9277C3.89155 16.6246 4.53773 16.0044 4.87486 15.2148L4.9276 15.0839L5.60631 13.2724C5.62337 13.227 5.64729 13.1873 5.67467 13.1532C5.70199 13.1193 5.73377 13.0909 5.76842 13.0683C5.80304 13.0457 5.84074 13.0278 5.87974 13.0165Z" fill="black"/>
<path d="M14.8065 1.02726C15.1199 0.936303 15.4924 1.07303 15.6288 1.43644L16.7167 4.3339C17.2279 5.69698 18.3028 6.77285 19.6659 7.2841L22.5643 8.37101C23.1453 8.58927 23.1453 9.41153 22.5643 9.6298L19.6659 10.7167C18.3028 11.228 17.2279 12.3038 16.7167 13.6669L15.6288 16.5644C15.6119 16.6092 15.5897 16.6495 15.5663 16.6874C15.5522 16.7101 15.5384 16.7326 15.5223 16.7528C15.5195 16.7564 15.5164 16.7601 15.5135 16.7636C15.4957 16.785 15.4768 16.8047 15.4569 16.8232C15.4463 16.833 15.4348 16.8415 15.4237 16.8505C15.4128 16.8593 15.4018 16.8678 15.3905 16.8759C15.3767 16.8856 15.3628 16.8956 15.3485 16.9042C15.3338 16.913 15.3188 16.9211 15.3036 16.9286C15.2918 16.9345 15.2795 16.9401 15.2674 16.9452C15.2503 16.9525 15.2324 16.958 15.2147 16.9638C15.2037 16.9674 15.1926 16.9715 15.1815 16.9745C15.1611 16.9801 15.1408 16.9855 15.12 16.9892C15.1107 16.9908 15.101 16.9928 15.0917 16.9941C15.0304 17.0022 14.9683 17.0023 14.9071 16.9941C14.8994 16.993 14.8913 16.9905 14.8837 16.9892C14.8611 16.9853 14.8383 16.9806 14.8163 16.9745C14.8041 16.9712 14.7921 16.9678 14.7801 16.9638C14.7649 16.9586 14.7491 16.9525 14.7342 16.9462C14.721 16.9407 14.708 16.9341 14.6952 16.9277C14.679 16.9196 14.6628 16.9117 14.6473 16.9023C14.6359 16.8953 14.6242 16.8875 14.6131 16.8798C14.598 16.8692 14.5836 16.8576 14.5692 16.8456C14.5606 16.8385 14.5511 16.8318 14.5428 16.8241C14.5229 16.8056 14.5041 16.7851 14.4862 16.7636C14.4832 16.76 14.4794 16.7565 14.4764 16.7528C14.4606 16.7329 14.4463 16.7107 14.4325 16.6884C14.4089 16.6504 14.3868 16.6094 14.37 16.5644L13.284 13.6669C12.7728 12.3038 11.6969 11.228 10.3338 10.7167L7.43541 9.6298C7.254 9.56158 7.12945 9.43427 7.06139 9.28507C6.97971 9.10593 6.97964 8.89485 7.06139 8.71574C7.08863 8.65611 7.1254 8.59993 7.17076 8.54972C7.23877 8.47448 7.32669 8.41189 7.43541 8.37101L7.98521 8.16398L10.3338 7.2841C11.6264 6.79925 12.6597 5.80663 13.1991 4.54289L13.284 4.3339L14.37 1.43546C14.3973 1.36288 14.4346 1.29947 14.4784 1.24503C14.5221 1.19063 14.5732 1.14558 14.6288 1.10929C14.6841 1.07314 14.7441 1.04541 14.8065 1.02726Z" fill="black"/>
</svg>
