<svg width="24" height="24" viewBox="0 0 24 24" fill="none" xmlns="http://www.w3.org/2000/svg">
<path fill-rule="evenodd" clip-rule="evenodd" d="M14 2C14.5523 2 15 2.44772 15 3V4H15.5C16.8807 4 18 5.11929 18 6.5V19.5L17.9873 19.7559C17.979 19.8372 17.9661 19.9172 17.9502 19.9961C17.9446 20.0241 17.9363 20.0514 17.9297 20.0791C17.9178 20.129 17.9064 20.1788 17.8916 20.2275C17.8827 20.257 17.8713 20.2855 17.8613 20.3145C17.845 20.3619 17.8286 20.409 17.8096 20.4551C17.799 20.4806 17.7868 20.5052 17.7754 20.5303C17.754 20.5775 17.7322 20.6243 17.708 20.6699C17.6946 20.6952 17.6793 20.7194 17.665 20.7441C17.6408 20.7861 17.6164 20.8277 17.5898 20.8682C17.5722 20.895 17.5538 20.9211 17.5352 20.9473C17.5068 20.9871 17.4779 21.0264 17.4473 21.0645C17.4341 21.0809 17.4208 21.0972 17.4072 21.1133C17.3702 21.157 17.3318 21.1992 17.292 21.2402C17.2726 21.2602 17.2525 21.2795 17.2324 21.2988C17.1975 21.3324 17.1618 21.3649 17.125 21.3965C17.1022 21.4161 17.0792 21.4353 17.0557 21.4541C17.0198 21.4827 16.9827 21.5095 16.9453 21.5361C16.9173 21.5561 16.8892 21.5759 16.8604 21.5947C16.823 21.619 16.7848 21.6417 16.7461 21.6641C16.7186 21.6799 16.6913 21.6961 16.6631 21.7109C16.6222 21.7325 16.5803 21.7522 16.5381 21.7715C16.5063 21.786 16.4749 21.8012 16.4424 21.8145C16.4008 21.8314 16.3581 21.8456 16.3154 21.8604C16.2855 21.8707 16.256 21.8824 16.2256 21.8916C16.1759 21.9067 16.1252 21.9187 16.0742 21.9307C16.0453 21.9375 16.0166 21.9454 15.9873 21.9512C15.9474 21.9591 15.9068 21.9638 15.8662 21.9697C15.825 21.9758 15.784 21.9833 15.7422 21.9873C15.6625 21.995 15.5817 22 15.5 22H8.5L8.24414 21.9873C8.16512 21.9793 8.08742 21.9664 8.01074 21.9512C7.98504 21.9461 7.95999 21.9385 7.93457 21.9326C7.88261 21.9206 7.83094 21.9088 7.78027 21.8936C7.75557 21.8861 7.73141 21.8773 7.70703 21.8691C7.65623 21.8521 7.60593 21.8346 7.55664 21.8145C7.5342 21.8053 7.51235 21.7949 7.49023 21.7852C7.44187 21.7638 7.39435 21.7411 7.34766 21.7168C7.32307 21.704 7.29851 21.6913 7.27441 21.6777C7.23284 21.6543 7.1924 21.6292 7.15234 21.6035C7.12914 21.5886 7.10568 21.5742 7.08301 21.5586C6.83163 21.3852 6.61367 21.1675 6.44043 20.916C6.42225 20.8896 6.40585 20.8621 6.38867 20.835C6.36561 20.7986 6.34249 20.7622 6.32129 20.7246C6.30771 20.7005 6.29502 20.676 6.28223 20.6514C6.25793 20.6047 6.23524 20.5572 6.21387 20.5088C6.2041 20.4867 6.19371 20.4648 6.18457 20.4424C6.16449 20.3931 6.14685 20.3428 6.12988 20.292C6.12122 20.2661 6.11232 20.2402 6.10449 20.2139C6.08988 20.1648 6.07803 20.1148 6.06641 20.0645C6.06054 20.039 6.05294 20.014 6.04785 19.9883C6.03274 19.912 6.02069 19.8345 6.0127 19.7559L6 19.5V6.5C6 6.41796 6.004 6.33685 6.01172 6.25684C6.01575 6.21507 6.02323 6.17396 6.0293 6.13281C6.03538 6.09153 6.04075 6.05036 6.04883 6.00977C6.05451 5.98118 6.06171 5.95303 6.06836 5.9248C6.08037 5.87385 6.09235 5.82314 6.10742 5.77344C6.11665 5.74302 6.12833 5.71351 6.13867 5.68359C6.15342 5.64093 6.16761 5.59823 6.18457 5.55664C6.19781 5.52419 6.213 5.49269 6.22754 5.46094C6.24687 5.41873 6.26652 5.37684 6.28809 5.33594C6.30293 5.30778 6.31908 5.28044 6.33496 5.25293C6.35728 5.21427 6.38001 5.17599 6.4043 5.13867C6.42309 5.1098 6.44295 5.08174 6.46289 5.05371C6.48949 5.0163 6.51635 4.9792 6.54492 4.94336C6.56367 4.91984 6.58297 4.89684 6.60254 4.87402C6.63407 4.83725 6.66661 4.80147 6.7002 4.7666C6.71953 4.74653 6.7388 4.72645 6.75879 4.70703C6.79749 4.66943 6.83785 4.63368 6.87891 4.59863C6.89736 4.58288 6.91566 4.56697 6.93457 4.55176C6.97261 4.52115 7.01194 4.49225 7.05176 4.46387C7.07786 4.44527 7.10402 4.42679 7.13086 4.40918C7.17126 4.38266 7.2129 4.35818 7.25488 4.33398C7.27964 4.31972 7.30382 4.30444 7.3291 4.29102C7.37468 4.2668 7.42155 4.24505 7.46875 4.22363C7.4938 4.21227 7.51847 4.20001 7.54395 4.18945C7.58999 4.17038 7.63719 4.15405 7.68457 4.1377C7.71351 4.12771 7.74207 4.11637 7.77148 4.10742C7.82049 4.09252 7.87067 4.08126 7.9209 4.06934C7.94825 4.06284 7.97524 4.05441 8.00293 4.04883C8.08202 4.03287 8.16254 4.02099 8.24414 4.0127C8.32826 4.00415 8.41363 4 8.5 4H9V3C9 2.44772 9.44772 2 10 2H14ZM11 10V12.0049H9V14.0049H11V16H13V14.0049H15V12.0049H13V10H11Z" fill="black"/>
</svg>
