<svg width="24" height="24" viewBox="0 0 24 24" fill="none" xmlns="http://www.w3.org/2000/svg">
<path fill-rule="evenodd" clip-rule="evenodd" d="M14 2C14.5523 2 15 2.44772 15 3V4H15.5C16.8807 4 18 5.11929 18 6.5V19.5L17.9873 19.7559C17.8592 21.0164 16.7943 22 15.5 22H8.5L8.24414 21.9873C7.06772 21.8677 6.13227 20.9323 6.0127 19.7559L6 19.5V6.5C6 5.20566 6.98361 4.14082 8.24414 4.0127L8.5 4H9V3C9 2.44772 9.44772 2 10 2H14ZM9 13.7861H11.25V18.5L15 12.2139H12.75V7.5L9 13.7861Z" fill="black"/>
</svg>
