<svg width="24" height="24" viewBox="0 0 24 24" fill="none" xmlns="http://www.w3.org/2000/svg">
<path fill-rule="evenodd" clip-rule="evenodd" d="M17 5C18.6569 5 20 6.34315 20 8V9H21L21.1025 9.00488C21.6067 9.05621 22 9.48232 22 10V14L21.9951 14.1025C21.9438 14.6067 21.5177 15 21 15H20V16C20 17.6569 18.6569 19 17 19H5C3.34315 19 2 17.6569 2 16V8C2 6.34315 3.34315 5 5 5H17ZM11 8.5C10.4477 8.5 10 8.94772 10 9.5V11H8.5C7.94772 11 7.5 11.4477 7.5 12C7.5 12.5523 7.94772 13 8.5 13H10V14.5C10 15.0523 10.4477 15.5 11 15.5C11.5523 15.5 12 15.0523 12 14.5V13H13.5C14.0523 13 14.5 12.5523 14.5 12C14.5 11.4477 14.0523 11 13.5 11H12V9.5C12 8.94772 11.5523 8.5 11 8.5Z" fill="black"/>
</svg>
