<svg width="24" height="24" viewBox="0 0 24 24" fill="none" xmlns="http://www.w3.org/2000/svg">
<path fill-rule="evenodd" clip-rule="evenodd" d="M17 5C17.2315 5 17.4564 5.02848 17.6729 5.07812C17.7179 5.08846 17.7624 5.09997 17.8066 5.1123C17.8559 5.12605 17.9049 5.14009 17.9531 5.15625C17.9953 5.17039 18.0368 5.1862 18.0781 5.20215C18.1265 5.2208 18.1746 5.23969 18.2217 5.26074C18.2658 5.28045 18.3086 5.30248 18.3516 5.32422C18.3908 5.34406 18.4296 5.36426 18.4678 5.38574C18.5142 5.41186 18.5596 5.43929 18.6045 5.46777C18.6401 5.49036 18.6754 5.51308 18.71 5.53711C18.7505 5.56533 18.79 5.59486 18.8291 5.625C18.8667 5.65403 18.9042 5.68311 18.9404 5.71387C18.9807 5.74807 19.0192 5.78406 19.0576 5.82031C19.0846 5.84578 19.1117 5.87102 19.1377 5.89746C19.1776 5.93806 19.2153 5.98063 19.2529 6.02344C19.2805 6.05484 19.3087 6.08562 19.335 6.11816C19.3645 6.15475 19.3911 6.19347 19.4189 6.23145C19.4467 6.26928 19.475 6.30655 19.501 6.3457C19.53 6.38953 19.5562 6.43507 19.583 6.48047C19.6043 6.51653 19.6267 6.55186 19.6465 6.58887C19.6686 6.63031 19.6878 6.67324 19.708 6.71582C19.7297 6.76153 19.753 6.80656 19.7725 6.85352C19.787 6.88867 19.7983 6.92512 19.8115 6.96094C19.8317 7.01556 19.8531 7.06991 19.8701 7.12598C19.8746 7.14077 19.8776 7.15601 19.8818 7.1709C19.9575 7.43439 20 7.71218 20 8V9H21L21.1025 9.00488C21.6067 9.05621 22 9.48232 22 10V14L21.9951 14.1025C21.9438 14.6067 21.5177 15 21 15H20V16C20 16.2256 19.973 16.4449 19.9258 16.6562C19.9137 16.7104 19.8988 16.7634 19.8838 16.8164C19.873 16.8547 19.8629 16.893 19.8506 16.9307C19.8338 16.982 19.8143 17.032 19.7949 17.082C19.7796 17.1217 19.765 17.1614 19.748 17.2002C19.7257 17.2513 19.7009 17.301 19.6758 17.3506C19.6591 17.3837 19.6429 17.4169 19.625 17.4492C19.5984 17.4973 19.5691 17.5435 19.54 17.5898C19.5179 17.6251 19.4971 17.6611 19.4736 17.6953C19.4471 17.7339 19.4179 17.7704 19.3896 17.8076C19.3621 17.8439 19.3357 17.881 19.3066 17.916C19.1886 18.0579 19.0579 18.1886 18.916 18.3066C18.881 18.3357 18.8439 18.3621 18.8076 18.3896C18.7704 18.4179 18.7339 18.4471 18.6953 18.4736C18.6611 18.4971 18.6251 18.5179 18.5898 18.54C18.5435 18.5691 18.4973 18.5984 18.4492 18.625C18.4169 18.6429 18.3837 18.6591 18.3506 18.6758C18.301 18.7009 18.2513 18.7257 18.2002 18.748C18.1614 18.765 18.1217 18.7796 18.082 18.7949C18.032 18.8143 17.982 18.8338 17.9307 18.8506C17.893 18.8629 17.8547 18.873 17.8164 18.8838C17.7634 18.8988 17.7104 18.9137 17.6562 18.9258C17.4449 18.973 17.2256 19 17 19H5C4.90246 19 4.80609 18.9945 4.71094 18.9854C4.70703 18.985 4.70312 18.9848 4.69922 18.9844C4.53344 18.9679 4.37254 18.935 4.21582 18.8926C4.18596 18.8845 4.15546 18.8791 4.12598 18.8701C4.06991 18.8531 4.01556 18.8317 3.96094 18.8115C3.92512 18.7983 3.88867 18.787 3.85352 18.7725C3.80656 18.753 3.76153 18.7297 3.71582 18.708C3.67324 18.6878 3.63031 18.6686 3.58887 18.6465C3.55186 18.6267 3.51653 18.6043 3.48047 18.583C3.43507 18.5562 3.38953 18.53 3.3457 18.501C3.30655 18.475 3.26928 18.4467 3.23145 18.4189C3.19347 18.3911 3.15475 18.3645 3.11816 18.335C3.08562 18.3087 3.05484 18.2805 3.02344 18.2529C2.98063 18.2153 2.93806 18.1776 2.89746 18.1377C2.87102 18.1117 2.84578 18.0846 2.82031 18.0576C2.78406 18.0192 2.74807 17.9807 2.71387 17.9404C2.68311 17.9042 2.65403 17.8667 2.625 17.8291C2.59486 17.79 2.56533 17.7505 2.53711 17.71C2.51308 17.6754 2.49036 17.6401 2.46777 17.6045C2.43929 17.5596 2.41186 17.5142 2.38574 17.4678C2.36426 17.4296 2.34406 17.3908 2.32422 17.3516C2.30248 17.3086 2.28045 17.2658 2.26074 17.2217C2.23969 17.1746 2.2208 17.1265 2.20215 17.0781C2.1862 17.0368 2.17039 16.9953 2.15625 16.9531C2.14009 16.9049 2.12605 16.8559 2.1123 16.8066C2.09997 16.7624 2.08846 16.7179 2.07812 16.6729C2.02848 16.4564 2 16.2315 2 16V8C2 6.34315 3.34315 5 5 5H17ZM7 9C6.44772 9 6 9.44772 6 10V14C6 14.5523 6.44772 15 7 15C7.55228 15 8 14.5523 8 14V10C8 9.44772 7.55228 9 7 9ZM11 9C10.4477 9 10 9.44772 10 10V14C10 14.5523 10.4477 15 11 15C11.5523 15 12 14.5523 12 14V10C12 9.44772 11.5523 9 11 9Z" fill="black"/>
</svg>
