<svg width="24" height="24" viewBox="0 0 24 24" fill="none" xmlns="http://www.w3.org/2000/svg">
<path fill-rule="evenodd" clip-rule="evenodd" d="M17.6475 7.00197C18.0383 7.39284 18.0379 8.02669 17.6466 8.41707L14.0547 12L17.6466 15.5829C18.0379 15.9733 18.0383 16.6072 17.6475 16.998L12.8526 21.7929C12.72 21.9255 12.5401 22 12.3526 22C11.9621 22 11.6455 21.6834 11.6455 21.2929V14.4102L7.75977 18.2951C7.37035 18.6844 6.73905 18.6844 6.34967 18.295C5.96024 17.9056 5.96027 17.2742 6.34974 16.8848L11.2353 12L6.34973 7.11524C5.96027 6.72584 5.96024 6.09444 6.34967 5.70501C6.73905 5.31563 7.37035 5.3156 7.75977 5.70494L11.6455 9.58984V2.70711C11.6455 2.31658 11.9621 2 12.3526 2C12.5401 2 12.72 2.0745 12.8526 2.20711L17.6475 7.00197ZM13.6455 18.1699L15.5254 16.29L13.6455 14.4102V18.1699ZM13.6455 9.58984L15.5254 7.70996L13.6455 5.83008V9.58984Z" fill="black"/>
</svg>
