<svg width="24" height="24" viewBox="0 0 24 24" fill="none" xmlns="http://www.w3.org/2000/svg">
<path d="M11.259 2.14553C11.5253 2.05422 11.8004 2.05845 12.0833 2.15823C12.3664 2.25824 12.575 2.43371 12.7083 2.68362C12.8415 2.93349 12.8919 3.20025 12.8587 3.48342L12.0589 9.95803H15.9339C16.3668 9.95822 16.671 10.1502 16.846 10.5332C17.0209 10.9164 16.9669 11.2752 16.6839 11.6084L8.45826 21.458C8.27504 21.6745 8.0499 21.8161 7.78346 21.8828C7.51708 21.9494 7.25879 21.925 7.00905 21.8086C6.75905 21.692 6.56282 21.5122 6.42115 21.2705C6.27958 21.0289 6.22575 20.7666 6.25905 20.4834L7.05885 14.958H3.95826C3.55857 14.9579 3.26316 14.7789 3.07155 14.4209C2.87989 14.0626 2.90072 13.7162 3.13405 13.3828L10.6087 2.63284C10.7753 2.39985 10.9926 2.23711 11.259 2.14553Z" fill="black"/>
<path d="M20.0588 8.95803C20.3419 8.95818 20.5792 9.0546 20.7708 9.24612C20.9623 9.43766 21.0587 9.67495 21.0588 9.95803C21.0588 10.2412 20.9622 10.4793 20.7708 10.6709C20.5793 10.8623 20.3418 10.9579 20.0588 10.958C19.7756 10.958 19.5376 10.8625 19.346 10.6709C19.1543 10.4793 19.0588 10.2414 19.0588 9.95803C19.059 9.67503 19.1546 9.43763 19.346 9.24612C19.5376 9.05467 19.7757 8.95803 20.0588 8.95803Z" fill="black"/>
<path d="M20.0588 2.95803C20.3419 2.95818 20.5792 3.0546 20.7708 3.24612C20.9623 3.43766 21.0587 3.67495 21.0588 3.95803V6.95803C21.0588 7.2412 20.9622 7.47931 20.7708 7.67092C20.5793 7.86226 20.3418 7.95788 20.0588 7.95803C19.7756 7.95803 19.5376 7.86252 19.346 7.67092C19.1543 7.47925 19.0588 7.24136 19.0588 6.95803V3.95803C19.059 3.67503 19.1546 3.43763 19.346 3.24612C19.5376 3.05467 19.7757 2.95803 20.0588 2.95803Z" fill="black"/>
</svg>
