<svg width="24" height="24" viewBox="0 0 24 24" fill="none" xmlns="http://www.w3.org/2000/svg">
<path d="M5.08496 11.1533C7.02014 11.6965 8.75684 12.9883 9.84082 14.9072C10.9231 16.828 11.1495 19.0131 10.6406 21L8.74316 19.8789C8.89283 18.9128 8.81267 17.9039 8.47559 16.9443L4.04199 19.5635L3 18.9492V17.7178L7.43457 15.0986C6.79121 14.3203 5.97683 13.7459 5.08496 13.3945V11.1533Z" fill="black"/>
<path d="M18.917 13.3945C18.0234 13.7459 17.2107 14.3202 16.5674 15.0986L21 17.7178V18.9492L19.959 19.5635L15.5244 16.9443C15.1891 17.9039 15.1072 18.9129 15.2568 19.8789L13.3594 21C12.8505 19.0131 13.0769 16.828 14.1592 14.9072C15.2438 12.9882 16.9801 11.6965 18.917 11.1533V13.3945Z" fill="black"/>
<path d="M13.043 3.61621V8.85254C14.023 8.67144 14.9163 8.23997 15.6602 7.625L17.5566 8.74414C16.1302 10.1897 14.1662 11.082 12.001 11.082C9.83403 11.082 7.87151 10.1897 6.44336 8.74414L8.34082 7.625C9.08307 8.24026 9.97929 8.67148 10.958 8.85254V3.61621L12.001 3L13.043 3.61621Z" fill="black"/>
</svg>
