<svg width="24" height="24" viewBox="0 0 24 24" fill="none" xmlns="http://www.w3.org/2000/svg">
<path d="M10.751 2.51904C11.4813 1.93506 12.5187 1.93506 13.249 2.51904L20.874 8.61865C21.5856 9.18792 21.9999 10.0502 22 10.9614V21.0005C21.9999 21.5527 21.5522 22.0005 21 22.0005H13.0176C13.5614 21.9911 13.9995 21.5474 14 21.0015V19.5015L16.6406 17.3013C16.8684 17.1114 16.9998 16.8293 17 16.5327V13.0015C17 12.4492 16.5523 12.0015 16 12.0015H15V9.00147C15 8.44918 14.5523 8.00147 14 8.00147C13.4477 8.00147 13 8.44918 13 9.00147V12.0015H11V9.00147C11 8.44918 10.5523 8.00147 10 8.00147C9.44772 8.00147 9 8.44918 9 9.00147V12.0015H8C7.44772 12.0015 7 12.4492 7 13.0015V16.5327C7.00016 16.8293 7.13156 17.1114 7.35938 17.3013L10 19.5015V21.0015C10.0005 21.5474 10.4386 21.9911 10.9824 22.0005H3C2.44778 22.0005 2.00011 21.5527 2 21.0005V10.9614C2.00007 10.0502 2.41439 9.18792 3.12598 8.61865L10.751 2.51904Z" fill="black"/>
</svg>
