<svg width="24" height="24" viewBox="0 0 24 24" fill="none" xmlns="http://www.w3.org/2000/svg">
<path fill-rule="evenodd" clip-rule="evenodd" d="M15 2C15.5523 2 16 2.44772 16 3V6H17.5L17.6533 6.00781C18.4097 6.08461 19 6.72334 19 7.5V14.5859L18.9951 14.6846C18.9724 14.9135 18.8711 15.1289 18.707 15.293L15.5 18.5V21C15.5 21.5177 15.1067 21.9438 14.6025 21.9951L14.5 22H9.5L9.39746 21.9951C8.92703 21.9472 8.55278 21.573 8.50488 21.1025L8.5 21V18.5L5.29297 15.293C5.12886 15.1289 5.0276 14.9135 5.00488 14.6846L5 14.5859V7.5C5 6.67157 5.67157 6 6.5 6H8V3C8 2.44772 8.44772 2 9 2C9.55228 2 10 2.44772 10 3V6H14V3C14 2.44772 14.4477 2 15 2ZM9.2998 13.7148H11.3457V18L14.7549 12.2852H12.709V8L9.2998 13.7148Z" fill="black"/>
</svg>
