<svg width="24" height="24" viewBox="0 0 24 24" fill="none" xmlns="http://www.w3.org/2000/svg">
<path d="M9.00488 18.1046C10.6649 16.4446 13.3549 16.4446 15.0049 18.1046L12.0049 21.1046L9.00488 18.1046Z" fill="black"/>
<path d="M2.65918 3.51569C3.01184 3.1716 3.57528 3.17516 3.92383 3.52351L19.6191 19.2091C19.9695 19.5594 19.969 20.1286 19.6172 20.4776C19.2676 20.8241 18.7029 20.8233 18.3545 20.4757L11.915 14.044C10.135 14.064 8.35512 14.7446 6.99512 16.1046L5.00488 14.1143V14.1046C6.27477 12.8347 7.81473 11.9943 9.43457 11.5743L7.19531 9.33405C5.66536 9.94405 4.23509 10.8646 2.99512 12.1046L1.00488 10.1046C2.22485 8.8846 3.60524 7.92416 5.0752 7.20417L2.65332 4.7989C2.29692 4.44482 2.2999 3.8668 2.65918 3.51569Z" fill="black"/>
<path d="M14.5049 11.544C16.1549 11.974 17.7051 12.8146 18.9951 14.1046L18.0352 15.0743L14.5049 11.544Z" fill="black"/>
<path d="M8.84473 5.88483C13.8047 4.86483 19.1551 6.26456 22.9951 10.1046L20.9951 12.1046C18.3552 9.45462 14.8352 8.23443 11.3652 8.40437L8.84473 5.88483Z" fill="black"/>
</svg>
