<svg width="24" height="24" viewBox="0 0 24 24" fill="none" xmlns="http://www.w3.org/2000/svg">
<path d="M16.5459 13.8184C16.872 13.8186 17.1367 14.083 17.1367 14.4092V16.2109L18.6152 17.0986C18.8951 17.2665 18.9863 17.6293 18.8184 17.9092C18.6505 18.189 18.2876 18.2792 18.0078 18.1113L15.9541 16.8799V14.4092C15.9541 14.0828 16.2195 13.8184 16.5459 13.8184Z" fill="black"/>
<path fill-rule="evenodd" clip-rule="evenodd" d="M16.5459 11.0908C17.1832 11.0909 17.7948 11.2005 18.3633 11.4014C20.4818 12.1502 22 14.171 22 16.5459C21.9998 19.558 19.558 21.9998 16.5459 22C14.9304 22 13.4783 21.2975 12.4795 20.1816C12.01 19.6571 11.6408 19.0407 11.4014 18.3633C11.2005 17.7948 11.0909 17.1832 11.0908 16.5459C11.0908 13.5334 13.5334 11.0908 16.5459 11.0908ZM16.5459 12.9092C14.5376 12.9092 12.9092 14.5376 12.9092 16.5459C12.9094 18.554 14.5377 20.1816 16.5459 20.1816C18.5539 20.1814 20.1814 18.5539 20.1816 16.5459C20.1816 14.5377 18.554 12.9094 16.5459 12.9092Z" fill="black"/>
<path d="M14.7275 2C15.2295 2.00014 15.6367 2.40719 15.6367 2.90918V3.81836H16.5459C17.5457 3.8186 18.3633 4.63687 18.3633 5.63672V10.4453C17.7874 10.274 17.1774 10.1817 16.5459 10.1816V9.27246H3.81836V18.3633H10.4453C10.6407 19.02 10.9393 19.6326 11.3223 20.1816H3.81836C2.80927 20.1816 2 19.3633 2 18.3633V5.63672C2 4.63672 2.80927 3.81836 3.81836 3.81836H4.72754V2.90918C4.72754 2.4071 5.13464 2 5.63672 2C6.13863 2.00019 6.5459 2.40722 6.5459 2.90918V3.81836H13.8184V2.90918C13.8184 2.4071 14.2255 2 14.7275 2Z" fill="black"/>
</svg>
