<svg width="24" height="24" viewBox="0 0 24 24" fill="none" xmlns="http://www.w3.org/2000/svg">
<path fill-rule="evenodd" clip-rule="evenodd" d="M16.5 13C19.26 13 21.5 15.24 21.5 18C21.5 20.76 19.26 23 16.5 23C13.74 23 11.5 20.76 11.5 18C11.5 15.24 13.74 13 16.5 13ZM16.5 15C16.2239 15 16 15.2239 16 15.5V18.2002L17.7949 19.9951C17.9906 20.1907 18.3087 20.1892 18.5029 19.9922C18.6949 19.7971 18.6936 19.4836 18.5 19.29L17 17.79V15.5C17 15.2239 16.7761 15 16.5 15Z" fill="black"/>
<path fill-rule="evenodd" clip-rule="evenodd" d="M10.5 1C13.26 1 15.5 3.24 15.5 6V8H16.5C17.6 8 18.5 8.9 18.5 10V11.29C17.87 11.1 17.2 11 16.5 11V10H4.5V20H9.79004C10.01 20.72 10.3398 21.4 10.7598 22H4.5C3.4 22 2.5 21.1 2.5 20V10C2.5 8.9 3.4 8 4.5 8H5.5V6C5.5 3.24 7.74 1 10.5 1ZM10.5 3C8.84 3 7.5 4.34 7.5 6V8H13.5V6C13.5 4.34 12.16 3 10.5 3Z" fill="black"/>
</svg>
