<svg width="24" height="24" viewBox="0 0 24 24" fill="none" xmlns="http://www.w3.org/2000/svg">
<path fill-rule="evenodd" clip-rule="evenodd" d="M14 9.29004C14.63 9.10004 15.3 9 16 9C19.87 9 23 12.13 23 16C23 19.87 19.87 23 16 23C13.21 23 10.7997 21.36 9.67969 19H4C2.9 19 2 18.1 2 17V5H14V9.29004ZM15.75 12C15.3358 12 15 12.3358 15 12.75V17L18.0137 18.7578C18.343 18.9499 18.7651 18.8524 18.9766 18.5352C19.2063 18.1904 19.0986 17.7232 18.7412 17.5137L16.5 16.2002V12.75C16.5 12.3358 16.1642 12 15.75 12ZM4 17H9.08008C9.03008 16.67 9 16.34 9 16C9 13.62 10.19 11.5298 12 10.2598V7H4V17Z" fill="black"/>
<path d="M11.5 2H15V4H1V2H4.5L5.5 1H10.5L11.5 2Z" fill="black"/>
</svg>
