<svg width="24" height="24" viewBox="0 0 24 24" fill="none" xmlns="http://www.w3.org/2000/svg">
<path d="M21 9.5C21 9.77614 20.7761 10 20.5 10H15.2071C14.7617 10 14.5386 9.46143 14.8536 9.14645L16.9502 7.0498C15.6802 5.7898 13.93 5 12 5C8.14 5 5 8.14 5 12C5 15.86 8.14 19 12 19C15.5216 19 18.4439 16.3864 18.9292 12.997C19.0075 12.4503 19.4477 12 20 12C20.5523 12 21.0058 12.4494 20.9452 12.9984C20.4484 17.4987 16.6325 21 12 21C7.03 21 3 16.97 3 12C3 7.03 7.03 3 12 3C14.49 3 16.7404 4.00965 18.3604 5.63965L20.1464 3.85355C20.4614 3.53857 21 3.76165 21 4.20711V9.5Z" fill="black"/>
<path d="M11.75 8C12.1642 8 12.5 8.33579 12.5 8.75V12.1504L15.374 13.8564C15.7301 14.068 15.8462 14.5288 15.6328 14.8838C15.4211 15.2358 14.9646 15.3511 14.6113 15.1416L11 13V8.75C11 8.33579 11.3358 8 11.75 8Z" fill="black"/>
</svg>
