<svg width="24" height="24" viewBox="0 0 24 24" fill="none" xmlns="http://www.w3.org/2000/svg">
<path fill-rule="evenodd" clip-rule="evenodd" d="M11.999 4.09473C16.969 4.09473 20.999 8.12475 20.999 13.0947C20.999 18.0647 16.969 22.0947 11.999 22.0947C7.02923 22.0945 2.99902 18.0646 2.99902 13.0947C2.99906 8.12491 7.02925 4.09497 11.999 4.09473ZM8.99902 11.0947H12.6299L8.99902 15.2949V17.0947H14.999V15.0947H11.3691L14.999 10.8945V9.09473H8.99902V11.0947Z" fill="black"/>
<path d="M21.9443 5.75586L20.6641 7.2959L16.0557 3.44043L17.3379 1.90625L21.9443 5.75586Z" fill="black"/>
<path d="M7.94141 3.44043L3.33594 7.28516L2.05566 5.74902L6.66113 1.9043L7.94141 3.44043Z" fill="black"/>
</svg>
