<svg width="24" height="24" viewBox="0 0 24 24" fill="none" xmlns="http://www.w3.org/2000/svg">
<path fill-rule="evenodd" clip-rule="evenodd" d="M11.999 4.09473C16.969 4.09473 20.999 8.12475 20.999 13.0947C20.999 18.0647 16.969 22.0947 11.999 22.0947C7.02924 22.0945 2.99902 18.0646 2.99902 13.0947C2.99906 8.12491 7.02926 4.09498 11.999 4.09473ZM11.999 9.09473C11.447 9.09498 10.9991 9.54262 10.999 10.0947V12.0947H8.99902C8.44697 12.095 7.99906 12.5426 7.99902 13.0947C7.99902 13.6469 8.44695 14.0945 8.99902 14.0947H10.999V16.0947C10.999 16.6469 11.447 17.0945 11.999 17.0947C12.5513 17.0947 12.999 16.647 12.999 16.0947V14.0947H14.999C15.5513 14.0947 15.999 13.647 15.999 13.0947C15.999 12.5425 15.5513 12.0947 14.999 12.0947H12.999V10.0947C12.999 9.54247 12.5513 9.09473 11.999 9.09473Z" fill="black"/>
<path d="M7.94434 3.44043L3.33691 7.28516L2.05664 5.74902L6.66211 1.9043L7.94434 3.44043Z" fill="black"/>
<path d="M21.9434 5.75L20.6631 7.28516L16.0537 3.44141L17.3369 1.9043L21.9434 5.75Z" fill="black"/>
</svg>
