<svg width="24" height="24" viewBox="0 0 24 24" fill="none" xmlns="http://www.w3.org/2000/svg">
<path d="M1.61981 8.8032C1.61394 8.8032 1.60661 8.80244 1.59854 8.80244C1.43497 8.80244 1.2868 8.87139 1.17971 8.98277C1.07628 9.07824 1.00807 9.21311 1 9.36465V9.36617V17.2773C1.0176 17.5955 1.27213 17.8463 1.5824 17.8463C1.67336 17.8463 1.75918 17.8251 1.83546 17.7864L1.83179 17.788L7.86047 14.8026L10.5818 13.4433C10.7622 13.3486 10.8832 13.1584 10.8832 12.9387C10.8832 12.697 10.7365 12.4909 10.5297 12.4106L10.526 12.4091L1.80906 8.84336C1.75331 8.81835 1.68803 8.8032 1.61981 8.80168V8.8032ZM22.4491 8.76607C22.3758 8.76683 22.3061 8.78198 22.2423 8.81002L22.246 8.8085L13.0691 12.4795C12.8637 12.5682 12.7214 12.7735 12.7207 13.0137V21.437C12.7236 21.7484 12.9686 22 13.2708 22C13.3434 22 13.4131 21.9856 13.4769 21.9583L13.4732 21.9598L22.6516 18.2767C22.857 18.1964 23 17.9948 23 17.7592C23 17.7577 23 17.7561 23 17.7546V9.33131C22.9978 9.01914 22.7528 8.76683 22.4499 8.76683L22.4491 8.76607ZM11.9923 3C11.5691 3 11.1656 3.08941 10.7989 3.2508L10.8187 3.24322L2.63058 6.74075C2.4296 6.82864 2.29097 7.03095 2.29097 7.26659C2.29097 7.50678 2.43473 7.71212 2.63792 7.79622L2.64158 7.79773L10.8744 11.1665C11.2074 11.3097 11.594 11.393 11.9989 11.393C12.4038 11.393 12.7911 11.3097 13.1432 11.1589L13.1234 11.1665L21.3562 7.79773C21.5616 7.7106 21.7032 7.50602 21.7032 7.26735C21.7032 7.03246 21.566 6.83091 21.3709 6.74302L21.3672 6.74151L13.1571 3.24398C12.8138 3.09017 12.4148 3.00076 11.9952 3.00076C11.9938 3.00076 11.9923 3.00076 11.9908 3.00076L11.9923 3Z" fill="black"/>
</svg>
