<svg width="24" height="24" viewBox="0 0 24 24" fill="none" xmlns="http://www.w3.org/2000/svg">
<path d="M1.79851 17.7369C1.56957 18.0875 1.31176 18.5392 1.09657 18.8788C0.903382 19.2047 1.00719 19.6309 1.33307 19.831L5.88432 22.6312C6.21707 22.8354 6.65432 22.7281 6.85438 22.3912C7.03726 22.0867 7.26963 21.6927 7.52401 21.2706C9.32869 18.2951 11.1403 18.6567 14.4059 20.2215L18.9496 22.3631C19.3078 22.5349 19.734 22.3775 19.8914 22.0159L22.0612 17.114C22.2118 16.7634 22.0578 16.355 21.7106 16.1976C20.1884 15.4812 18.6739 14.7614 17.1593 14.0347C11.0007 11.0557 5.7867 11.2524 1.79782 17.7369H1.79851ZM22.2056 6.26387C22.4311 5.89537 22.6889 5.46156 22.9041 5.11781C23.0973 4.79193 22.99 4.36912 22.671 4.1725L18.1198 1.36887C17.787 1.16468 17.3498 1.27193 17.1497 1.60881C16.9709 1.91681 16.7344 2.30731 16.4766 2.73287C14.6754 5.70837 12.8604 5.34331 9.59476 3.782L5.06894 1.637C4.71076 1.46512 4.28451 1.626 4.12707 1.98418L1.96076 6.88606C1.80676 7.23668 1.96419 7.64506 2.31138 7.8025C3.26357 8.25006 5.15419 9.14862 6.86263 9.96537C12.9999 12.9409 18.2208 12.7442 22.2063 6.26318L22.2056 6.26387Z" fill="black"/>
</svg>
