<svg width="24" height="24" viewBox="0 0 24 24" fill="none" xmlns="http://www.w3.org/2000/svg">
<path fill-rule="evenodd" clip-rule="evenodd" d="M15.3291 1C17.6328 1.00021 19.5 2.89722 19.5 5.2373C19.5 6.61832 18.8495 7.84556 17.8428 8.61914C18.8494 9.39273 19.5 10.619 19.5 12C19.5 14.3401 17.6328 16.2371 15.3291 16.2373C14.3977 16.2373 13.537 15.9274 12.8428 15.4033V18.7627C12.8427 21.1029 10.9747 23 8.6709 23C6.36734 22.9997 4.50002 21.1027 4.5 18.7627C4.5 17.3816 5.15064 16.1545 6.15723 15.3809C5.15066 14.6073 4.5 13.381 4.5 12C4.5 10.619 5.15066 9.39272 6.15723 8.61914C5.15062 7.84555 4.5 6.61832 4.5 5.2373C4.50002 2.89725 6.36734 1.00026 8.6709 1H15.3291ZM8.66113 16.2373C7.29288 16.2429 6.18555 17.3714 6.18555 18.7627C6.18557 20.1572 7.29817 21.2878 8.6709 21.2881C10.0438 21.2881 11.1572 20.1573 11.1572 18.7627V16.2373H8.66113ZM8.6709 9.47461C7.29816 9.47487 6.18555 10.6055 6.18555 12C6.18555 13.3912 7.29288 14.5198 8.66113 14.5254H11.1572V9.47461H8.6709ZM15.3291 9.47461C13.9578 9.47461 12.8455 10.6027 12.8428 11.9951V12.0049C12.8455 13.3973 13.9578 14.5254 15.3291 14.5254C16.7019 14.5252 17.8145 13.3945 17.8145 12C17.8144 10.6055 16.7019 9.47482 15.3291 9.47461ZM8.6709 2.71191C7.29817 2.71217 6.18557 3.84281 6.18555 5.2373C6.18555 6.63182 7.29815 7.76244 8.6709 7.7627H11.1572V2.71191H8.6709ZM12.8428 7.7627H15.3291C16.7019 7.76248 17.8145 6.63185 17.8145 5.2373C17.8144 3.84278 16.7019 2.71213 15.3291 2.71191H12.8428V7.7627Z" fill="black"/>
</svg>
