<svg width="24" height="24" viewBox="0 0 24 24" fill="none" xmlns="http://www.w3.org/2000/svg">
<path d="M19 15C19.5523 15 20 15.4477 20 16V18C20 19.1 19.1 20 18 20H6C4.9 20 4 19.1 4 18V16C4 15.4477 4.44772 15 5 15C5.55228 15 6 15.4477 6 16V18H18V16C18 15.4477 18.4477 15 19 15Z" fill="black"/>
<path d="M12 4C12.5523 4 13 4.44772 13 5V12.1699L14.8848 10.293C15.2746 9.90486 15.9048 9.90519 16.2939 10.2939C16.6837 10.6837 16.6837 11.3163 16.2939 11.7061L12 16L7.70605 11.7061C7.31632 11.3163 7.31632 10.6837 7.70605 10.2939C8.09522 9.90519 8.72539 9.90486 9.11523 10.293L11 12.1699V5C11 4.44772 11.4477 4 12 4Z" fill="black"/>
</svg>
