<svg width="24" height="24" viewBox="0 0 24 24" fill="none" xmlns="http://www.w3.org/2000/svg">
<path d="M17 12C18.3833 12 19.5621 12.4879 20.5371 13.4629C21.5121 14.4379 22 15.6167 22 17C22 18.3833 21.5121 19.5621 20.5371 20.5371C19.5621 21.5121 18.3833 22 17 22C15.6167 22 14.4379 21.5121 13.4629 20.5371C12.4879 19.5621 12 18.3833 12 17C12 15.6167 12.4879 14.4379 13.4629 13.4629C14.4379 12.4879 15.6167 12 17 12ZM11 2C13.4832 2 15.604 2.39154 17.3623 3.1748C19.1206 3.95814 20 4.9 20 6V10.6748C19.6835 10.5249 19.3586 10.3998 19.0254 10.2998C18.6921 10.1998 18.35 10.1252 18 10.0752C17.6733 10.028 17.3397 10 17 10C14.6232 10 12.5241 11.1852 11.2588 12.9961C11.1729 12.9977 11.0866 13 11 13C7.98712 13 5.3644 12.2699 4 11.1934V13.5127C5.51322 14.344 7.76034 14.8996 10.3037 14.9863C10.3023 14.9908 10.3012 14.9955 10.2998 15C10.2969 14.9998 10.294 14.9992 10.291 14.999C10.1022 15.6331 10 16.3046 10 17C10 17.3305 10.0238 17.6554 10.0684 17.9736C10.0706 17.9738 10.0729 17.9744 10.0752 17.9746C10.1252 18.3413 10.1998 18.6921 10.2998 19.0254C10.3998 19.3586 10.5249 19.6835 10.6748 20C9.45839 19.9833 8.32521 19.867 7.27539 19.6504C6.22547 19.4337 5.30869 19.1454 4.52539 18.7871C3.74206 18.4288 3.1248 18.0121 2.6748 17.5371C2.225 17.0622 2 16.5499 2 16V6C2 4.9 2.87936 3.95814 4.6377 3.1748C6.39598 2.39154 8.51678 2 11 2ZM16.5 18.0996L14.7002 16.2998L14 17L17 20L20 17L19.2998 16.2998L17.5 18.0996V14H16.5V18.0996ZM11 4C9.48333 4 7.99544 4.2127 6.53711 4.6377C5.07903 5.06266 4.23331 5.52544 4 6.02539C4.23354 6.47524 5.07936 6.92078 6.53711 7.3623C7.99544 7.80397 9.48333 8.02539 11 8.02539C12.4832 8.02539 13.9747 7.80391 15.4746 7.3623C16.9742 6.92075 17.8164 6.47528 18 6.02539C17.8167 5.54206 16.979 5.08372 15.4873 4.65039C13.9957 4.21707 12.5 4 11 4Z" fill="black"/>
</svg>
