<svg width="24" height="24" viewBox="0 0 24 24" fill="none" xmlns="http://www.w3.org/2000/svg">
<path d="M2.00017 3.51478C2.3907 3.12433 3.02373 3.12428 3.41423 3.51478L20.3849 20.4855C20.7752 20.876 20.7753 21.5091 20.3849 21.8995C19.9945 22.29 19.3614 22.2898 18.9709 21.8995L13.9963 16.9249C13.9981 16.9497 14.0002 16.9749 14.0002 17.0001C14.0001 17.5523 13.5523 18.0001 13.0002 18.0001H11.0002C10.448 18.0001 10.0003 17.5523 10.0002 17.0001C10.0002 16.4479 10.4479 16.0001 11.0002 16.0001H13.0002C13.0251 16.0001 13.0499 16.0013 13.0744 16.0031L10.0715 13.0001H7.00017C6.44796 13.0001 6.00028 12.5523 6.00017 12.0001C6.00017 11.4479 6.44789 11.0001 7.00017 11.0001H8.07146L5.07146 8.00013H4.00017C3.44796 8.00013 3.00028 7.55232 3.00017 7.00013C3.00017 6.70586 3.12793 6.44191 3.33025 6.25892L2.00017 4.92885C1.60966 4.53833 1.60967 3.90531 2.00017 3.51478Z" fill="black"/>
<path d="M17.0002 11.0001C17.5524 11.0002 18.0002 11.4479 18.0002 12.0001C18.0001 12.5523 17.5523 13.0001 17.0002 13.0001H15.7277L13.7277 11.0001H17.0002Z" fill="black"/>
<path d="M20.0002 6.00013C20.5524 6.00022 21.0002 6.4479 21.0002 7.00013C21.0001 7.55227 20.5523 8.00005 20.0002 8.00013H10.7277L8.72771 6.00013H20.0002Z" fill="black"/>
</svg>
