<svg width="24" height="24" viewBox="0 0 24 24" fill="none" xmlns="http://www.w3.org/2000/svg">
<path fill-rule="evenodd" clip-rule="evenodd" d="M4.27837 4.13264C5.7245 2.87352 7.42578 2.78103 8.94048 3.28987C10.0599 3.66604 11.1029 4.37229 11.9688 5.201C12.8313 4.37445 13.868 3.672 14.9844 3.29768C16.477 2.79739 18.1439 2.8861 19.5909 4.07697C22.583 6.24924 22.6292 10.3745 20.5977 13.0389C19.8098 14.0721 18.2766 15.6199 16.8086 17.0321C15.3218 18.4623 13.838 19.8133 13.1065 20.4735C13.0368 20.5363 12.9421 20.6239 12.8506 20.6942C12.7477 20.7732 12.5948 20.8746 12.3887 20.9373C12.1162 21.0202 11.8224 21.0202 11.5499 20.9373C11.3439 20.8746 11.1909 20.7731 11.0879 20.6942C10.9965 20.624 10.9017 20.5363 10.8321 20.4735C10.1006 19.8132 8.61667 18.4622 7.12993 17.0321C5.66188 15.6199 4.1277 14.072 3.33989 13.0389C1.25383 10.3026 1.63472 6.43467 4.27837 4.13264Z" fill="black"/>
</svg>
