<svg width="24" height="24" viewBox="0 0 24 24" fill="none" xmlns="http://www.w3.org/2000/svg">
<path fill-rule="evenodd" clip-rule="evenodd" d="M12 2C17.52 2 22 6.48 22 12C22 17.52 17.52 22 12 22C6.48 22 2 17.52 2 12C2 6.48 6.48 2 12 2ZM11 19H13V17H11V19ZM12 5C9.79 5 8 6.79 8 9H10C10 7.9 10.9 7 12 7C13.1 7 14 7.9 14 9C14 9.55 13.7802 10.0502 13.4102 10.4102L12.1699 11.6699C11.4499 12.3999 11 13.4 11 14.5V15H13C13 13.5 13.4499 12.8999 14.1699 12.1699L15.0703 11.25C15.6402 10.68 16 9.87992 16 9C16 6.79 14.21 5 12 5Z" fill="black"/>
</svg>
