<svg width="24" height="24" viewBox="0 0 24 24" fill="none" xmlns="http://www.w3.org/2000/svg">
<path d="M6.7002 11.5C6.7002 14.5 9.24 16.5996 12 16.5996C14.76 16.5996 17.2998 14.5 17.2998 11.5H19C19 14.92 16.28 17.7397 13 18.2197V20.5C13 21.0523 12.5523 21.5 12 21.5C11.4477 21.5 11 21.0523 11 20.5V18.2197C7.72002 17.7297 5 14.92 5 11.5H6.7002Z" fill="black"/>
<path d="M12 2.5C13.66 2.5 15 3.84 15 5.5L14.9902 11.5C14.9902 13.16 13.66 14.5 12 14.5C10.34 14.5 9 13.16 9 11.5V5.5C9 3.84 10.34 2.5 12 2.5Z" fill="black"/>
</svg>
