<svg width="24" height="24" viewBox="0 0 24 24" fill="none" xmlns="http://www.w3.org/2000/svg">
<path d="M11 8.90039H7C5.29 8.90039 3.90039 10.29 3.90039 12C3.90039 13.71 5.29 15.0996 7 15.0996H11V17H7C4.24 17 2 14.76 2 12C2 9.24 4.24 7 7 7H11V8.90039Z" fill="black"/>
<path d="M17 7C19.76 7 22 9.24 22 12C22 14.76 19.76 17 17 17H13V15.0996H17C18.71 15.0996 20.0996 13.71 20.0996 12C20.0996 10.29 18.71 8.90039 17 8.90039H13V7H17Z" fill="black"/>
<path d="M15 11C15.5523 11 16 11.4477 16 12C16 12.5523 15.5523 13 15 13H9C8.44772 13 8 12.5523 8 12C8 11.4477 8.44772 11 9 11H15Z" fill="black"/>
</svg>
