<svg width="24" height="24" viewBox="0 0 24 24" fill="none" xmlns="http://www.w3.org/2000/svg">
<path d="M13.4194 3C14.6692 3.00005 15.8396 3.238 16.9311 3.71289C18.0228 4.18789 18.9734 4.82936 19.7817 5.6377C20.5899 6.44595 21.2316 7.39579 21.7065 8.4873C22.1815 9.57897 22.4194 10.75 22.4194 12C22.4194 14.4999 21.5443 16.625 19.7944 18.375C18.0445 20.1249 15.9193 20.9999 13.4194 21C12.3694 21 11.3772 20.8333 10.4438 20.5C9.51057 20.1667 8.66064 19.6996 7.89403 19.0996C7.67749 18.9163 7.56108 18.687 7.54442 18.4121C7.52786 18.1374 7.61906 17.9001 7.81883 17.7002C8.01883 17.5002 8.25672 17.4004 8.53172 17.4004C8.80666 17.4004 9.06113 17.4838 9.29442 17.6504C9.87764 18.0836 10.515 18.4171 11.2065 18.6504C11.8982 18.8837 12.6361 19 13.4194 19C15.3524 18.9999 17.0021 18.3166 18.3686 16.9502C19.7353 15.5835 20.4194 13.9333 20.4194 12C20.4194 10.0667 19.7353 8.41647 18.3686 7.0498C17.0021 5.68343 15.3524 5.00009 13.4194 5C11.4862 5 9.83585 5.68326 8.46922 7.0498C7.10255 8.41647 6.41942 10.0667 6.41942 12V12.1748L7.54442 11.0498C7.7277 10.8667 7.95706 10.7754 8.23192 10.7754C8.50666 10.7755 8.74396 10.8667 8.94383 11.0498C9.14383 11.2498 9.24363 11.4877 9.24363 11.7627C9.24359 12.0376 9.14373 12.2747 8.94383 12.4746L6.11863 15.2998C5.91875 15.4996 5.68588 15.5995 5.41942 15.5996C5.15275 15.5996 4.91922 15.4998 4.71922 15.2998L1.86863 12.4502C1.66871 12.2502 1.57319 12.0123 1.58153 11.7373C1.5899 11.4624 1.69407 11.2331 1.89403 11.0498C2.09401 10.8665 2.33195 10.771 2.60692 10.7627C2.88176 10.7545 3.11116 10.8499 3.29442 11.0498L4.41942 12.2002V12C4.41942 10.75 4.65633 9.57897 5.13133 8.4873C5.60627 7.39581 6.24797 6.44594 7.05613 5.6377C7.86447 4.82936 8.81505 4.18789 9.90672 3.71289C10.9984 3.23789 12.1694 3 13.4194 3Z" fill="black"/>
<path fill-rule="evenodd" clip-rule="evenodd" d="M13.4194 8C13.9693 8.00009 14.4399 8.19631 14.8315 8.58789C15.2231 8.97952 15.4194 9.45009 15.4194 10V11C15.7024 11.0001 15.9398 11.0957 16.1313 11.2871C16.323 11.4788 16.4194 11.7167 16.4194 12V15C16.4194 15.2833 16.323 15.5212 16.1313 15.7129C15.9398 15.9043 15.7024 15.9999 15.4194 16H11.4194C11.1362 16 10.8982 15.9044 10.7065 15.7129C10.5149 15.5212 10.4194 15.2833 10.4194 15V12C10.4194 11.7167 10.5149 11.4788 10.7065 11.2871C10.8982 11.0956 11.1362 11 11.4194 11V10C11.4194 9.45014 11.6149 8.9795 12.0063 8.58789C12.398 8.19622 12.8694 8 13.4194 8ZM13.4194 9C13.1362 9 12.8982 9.09556 12.7065 9.28711C12.5149 9.47878 12.4194 9.71667 12.4194 10V11H14.4194V10C14.4194 9.71667 14.323 9.47878 14.1313 9.28711C13.9398 9.09573 13.7024 9.00008 13.4194 9Z" fill="black"/>
</svg>
