<svg width="24" height="24" viewBox="0 0 24 24" fill="none" xmlns="http://www.w3.org/2000/svg">
<path d="M11 3C11.5523 3 12 3.44772 12 4C12 4.55228 11.5523 5 11 5H4V19H11C11.5523 19 12 19.4477 12 20C12 20.5523 11.5523 21 11 21H4C2.9 21 2 20.1 2 19V5C2 3.9 2.9 3 4 3H11Z" fill="black"/>
<path d="M15.2998 7.7002C15.6864 7.3136 16.3136 7.3136 16.7002 7.7002L21 12L16.7002 16.2998C16.3136 16.6864 15.6864 16.6864 15.2998 16.2998C14.9135 15.9133 14.9136 15.2869 15.2998 14.9004L17.2002 13H10C9.44772 13 9 12.5523 9 12C9 11.4477 9.44772 11 10 11H17.2002L15.2998 9.09961C14.9136 8.71305 14.9135 8.08671 15.2998 7.7002Z" fill="black"/>
</svg>
