<svg width="24" height="24" viewBox="0 0 24 24" fill="none" xmlns="http://www.w3.org/2000/svg">
<path d="M14.7344 4.38229C14.9989 4.20598 15.3388 4.19046 15.6191 4.3403C15.8994 4.49042 16.0752 4.78209 16.0752 5.10007V18.9008C16.0747 19.2184 15.8992 19.5107 15.6191 19.6606C15.3391 19.81 14.9986 19.7945 14.7344 19.6186L9.77441 16.312H4.86328C4.3875 16.3118 4.00071 15.9263 4 15.4507V8.55026C4.00016 8.07414 4.38716 7.68713 4.86328 7.68698H9.77734L14.7344 4.38229Z" fill="black"/>
<path d="M18.4375 8.89303C18.7743 8.55624 19.3214 8.55632 19.6582 8.89303C21.3735 10.6088 21.3737 13.3913 19.6582 15.1069C19.3217 15.4428 18.7762 15.4425 18.4395 15.1069C18.1031 14.7705 18.102 14.2251 18.4375 13.8882C19.4796 12.846 19.4796 11.1549 18.4375 10.1128C18.1011 9.77612 18.1013 9.22985 18.4375 8.89303Z" fill="black"/>
</svg>
