<svg width="24" height="24" viewBox="0 0 24 24" fill="none" xmlns="http://www.w3.org/2000/svg">
<path d="M11.1125 6.8999C11.1125 7.45219 11.5602 7.8999 12.1125 7.8999C12.6647 7.8999 13.1125 7.45219 13.1125 6.8999V2.8999C13.1125 2.34762 12.6647 1.8999 12.1125 1.8999C11.5602 1.8999 11.1125 2.34762 11.1125 2.8999V6.8999Z" fill="black"/>
<path fill-rule="evenodd" clip-rule="evenodd" d="M19.1875 21.7999L17.6125 20.2499C16.7958 20.7832 15.925 21.1915 15 21.4749C14.075 21.7582 13.1125 21.8999 12.1125 21.8999C10.7291 21.8999 9.42915 21.6374 8.21248 21.1124C6.99582 20.5874 5.93748 19.8749 5.03748 18.9749C4.13748 18.0749 3.42498 17.0165 2.89998 15.7999C2.37498 14.5832 2.11248 13.2832 2.11248 11.8999C2.11248 10.8999 2.25415 9.93735 2.53748 9.01235C2.82082 8.08735 3.22915 7.21652 3.76248 6.39985L2.18748 4.82485C1.98748 4.62485 1.88748 4.38735 1.88748 4.11235C1.88748 3.83735 1.98748 3.59985 2.18748 3.39985C2.38748 3.19985 2.62498 3.09985 2.89998 3.09985C3.17498 3.09985 3.41248 3.19985 3.61248 3.39985L20.6125 20.3999C20.8125 20.5999 20.9125 20.8332 20.9125 21.0999C20.9125 21.3665 20.8125 21.5999 20.6125 21.7999C20.4125 21.9999 20.175 22.0999 19.9 22.0999C19.625 22.0999 19.3875 21.9999 19.1875 21.7999ZM12.1125 19.8999C12.8291 19.8999 13.525 19.8082 14.2 19.6249C14.875 19.4415 15.5291 19.1665 16.1625 18.7999L5.21248 7.84985C4.84582 8.48319 4.57082 9.13735 4.38748 9.81235C4.20415 10.4874 4.11248 11.1832 4.11248 11.8999C4.11248 14.1165 4.89165 16.004 6.44998 17.5624C8.00832 19.1207 9.89581 19.8999 12.1125 19.8999Z" fill="black"/>
<path d="M19.5 8.77488C19.89 9.69812 20.0938 10.6898 20.1113 11.7498C20.1121 11.7997 20.1125 11.8497 20.1125 11.8999C20.1125 12.4499 20.0583 12.9874 19.95 13.5124C19.8416 14.0374 19.6791 14.5499 19.4625 15.0499C19.3458 15.3165 19.3291 15.5832 19.4125 15.8499C19.4958 16.1165 19.6541 16.3165 19.8875 16.4499C20.1208 16.5832 20.3708 16.6124 20.6375 16.5374C20.9041 16.4624 21.0958 16.2999 21.2125 16.0499C21.2511 15.9662 21.2884 15.8822 21.3246 15.7979L21.325 15.7999C21.85 14.5832 22.1125 13.2832 22.1125 11.8999C22.1125 10.4999 21.85 9.19571 21.325 7.98738C20.9366 7.09332 20.4455 6.28366 19.8517 5.5584C19.5054 5.13536 18.8741 5.13828 18.4875 5.52488C18.1009 5.91148 18.1069 6.53474 18.4427 6.96615C18.8702 7.51521 19.2226 8.11812 19.5 8.77488Z" fill="black"/>
</svg>
