<svg width="24" height="24" viewBox="0 0 24 24" fill="none" xmlns="http://www.w3.org/2000/svg">
<path d="M5.50977 5.79004C5.86491 5.42174 6.44857 5.44896 6.81055 5.81055C7.22206 6.22206 7.18219 6.89644 6.79297 7.3291C5.6805 8.56558 5 10.2021 5 12C5 15.87 8.13 19 12 19C15.87 19 19 15.87 19 12C19 10.206 18.3226 8.57279 17.209 7.34277C16.8154 6.90806 16.7722 6.22833 17.1865 5.81348C17.5497 5.45027 18.1359 5.42297 18.4922 5.79297C20.0454 7.40606 21 9.58653 21 12C21 16.97 16.97 21 12 21C7.03 21 3 16.97 3 12C3 9.58541 3.95524 7.40335 5.50977 5.79004Z" fill="black"/>
<path d="M12 3C12.5523 3 13 3.44772 13 4V12C13 12.5523 12.5523 13 12 13C11.4477 13 11 12.5523 11 12V4C11 3.44772 11.4477 3 12 3Z" fill="black"/>
</svg>
