<svg width="24" height="24" viewBox="0 0 24 24" fill="none" xmlns="http://www.w3.org/2000/svg">
<path d="M9.0325 4.5C9.58464 4.50018 10.0325 4.94783 10.0325 5.5V16C10.0325 16.5522 9.58464 16.9998 9.0325 17C8.87183 16.9999 8.71974 16.961 8.58524 16.8936L5.47684 15.3398L7.19168 18.4277C8.07345 20.0148 9.74722 20.9998 11.5628 21H15.5325C17.1892 20.9998 18.5325 19.6567 18.5325 18V12C18.5325 11.4479 18.9804 11.0002 19.5325 11C20.0846 11.0002 20.5325 11.4478 20.5325 12V18C20.5325 20.7613 18.2938 22.9998 15.5325 23H11.5628C9.02089 22.9998 6.67815 21.6214 5.44364 19.3994L3.72782 16.3115C2.77316 14.5928 4.61274 12.6718 6.37137 13.5508L8.0325 14.3809V5.5C8.0325 4.94786 8.48042 4.50024 9.0325 4.5Z" fill="black"/>
<path d="M12.5325 10C13.0846 10.0002 13.5325 10.4478 13.5325 11V14C13.5325 14.5522 13.0846 14.9998 12.5325 15C11.9804 14.9998 11.5325 14.5521 11.5325 14V11C11.5325 10.4479 11.9804 10.0002 12.5325 10Z" fill="black"/>
<path d="M16.0325 10C16.5846 10.0002 17.0325 10.4478 17.0325 11V14C17.0325 14.5522 16.5846 14.9998 16.0325 15C15.4804 14.9998 15.0325 14.5521 15.0325 14V11C15.0325 10.4479 15.4804 10.0002 16.0325 10Z" fill="black"/>
<path d="M9.00028 1C11.4854 1.00018 13.5003 3.01483 13.5003 5.5V7C13.5003 7.55218 13.0524 7.99982 12.5003 8C11.948 8 11.5003 7.55228 11.5003 7V5.5C11.5003 4.1194 10.3808 3.00018 9.00028 3C7.61957 3 6.50028 4.11929 6.50028 5.5V7C6.50028 7.55218 6.05241 7.99982 5.50028 8C4.94799 8 4.50028 7.55228 4.50028 7V5.5C4.50028 3.01472 6.515 1 9.00028 1Z" fill="black"/>
</svg>
