<svg width="24" height="24" viewBox="0 0 24 24" fill="none" xmlns="http://www.w3.org/2000/svg">
<path d="M2.43106 2.47758C2.83253 2.36592 3.19507 2.48056 3.37539 2.54301C3.5717 2.61101 3.80506 2.71527 4.03848 2.82036L20.8217 10.3731C21.0497 10.4756 21.279 10.5783 21.4574 10.6788C21.6232 10.7721 21.944 10.9661 22.1264 11.335C22.3333 11.7538 22.3333 12.2453 22.1264 12.6641C21.944 13.033 21.6232 13.227 21.4574 13.3204C21.2789 13.4208 21.0497 13.5234 20.8217 13.626L4.04434 21.1768C3.81025 21.2822 3.57691 21.387 3.38028 21.4551C3.20004 21.5176 2.83622 21.6317 2.43399 21.5196C1.97957 21.3928 1.61036 21.0597 1.43887 20.6202C1.28705 20.231 1.36538 19.8576 1.40957 19.6719C1.45776 19.4695 1.53896 19.2269 1.62051 18.9834L3.25821 14.0918C3.38964 13.6992 3.45502 13.5026 3.57656 13.3575C3.68396 13.2293 3.82229 13.1305 3.97793 13.0694C4.15413 13.0002 4.36095 13 4.77481 13H12.0004C12.5523 12.9998 13.0001 12.552 13.0004 12C13.0004 11.4479 12.5525 11.0003 12.0004 11H4.75625C4.34106 11 4.13303 10.9992 3.95645 10.9297C3.80072 10.8683 3.66236 10.7692 3.55508 10.6407C3.43352 10.495 3.36845 10.2973 3.2377 9.90336L1.61367 5.00981C1.53305 4.76705 1.45229 4.52445 1.40469 4.32231C1.36101 4.13665 1.28469 3.76325 1.43692 3.37504C1.60904 2.9365 1.97717 2.60388 2.43106 2.47758Z" fill="black"/>
</svg>
