<svg width="24" height="24" viewBox="0 0 24 24" fill="none" xmlns="http://www.w3.org/2000/svg">
<path fill-rule="evenodd" clip-rule="evenodd" d="M13.251 2.1875C13.6703 2.18779 14.0291 2.49101 14.1006 2.9043L14.458 4.9707C14.7357 5.0671 15.0068 5.17961 15.2686 5.30664L16.9834 4.09766C17.3263 3.85626 17.7933 3.89679 18.0898 4.19336L19.8574 5.96094C20.154 6.25753 20.1946 6.72545 19.9531 7.06836L18.7441 8.78223C18.8712 9.04393 18.9837 9.31508 19.0801 9.59277L21.1465 9.9502C21.5597 10.0217 21.8629 10.3805 21.8633 10.7998V13.3018C21.863 13.7211 21.5598 14.0799 21.1465 14.1514L19.0801 14.5088C18.9837 14.7863 18.8701 15.0567 18.7432 15.3184L19.9531 17.0342C20.1943 17.3769 20.1537 17.8431 19.8574 18.1396L18.0898 19.9082C17.7932 20.2049 17.3254 20.2446 16.9824 20.0029L15.2686 18.7949C15.0069 18.9219 14.7356 19.0335 14.458 19.1299L14.1006 21.1973C14.029 21.6105 13.6694 21.9129 13.25 21.9131H10.749C10.3296 21.9129 9.97098 21.6105 9.89941 21.1973L9.54199 19.1299C9.26446 19.0335 8.99399 18.9218 8.73242 18.7949L7.0166 20.0029C6.67381 20.2445 6.20782 20.2045 5.91113 19.9082L4.14258 18.1396C3.84601 17.843 3.80617 17.3771 4.04785 17.0342L5.25586 15.3184C5.12892 15.0568 5.01725 14.7863 4.9209 14.5088L2.85352 14.1514C2.44023 14.0799 2.13701 13.7211 2.13672 13.3018V10.7998C2.13706 10.3805 2.44028 10.0217 2.85352 9.9502L4.9209 9.59277C5.01729 9.31509 5.12885 9.04393 5.25586 8.78223L4.04785 7.06836C3.80605 6.72541 3.84586 6.25766 4.14258 5.96094L5.91113 4.19336C6.20772 3.89692 6.67375 3.85629 7.0166 4.09766L8.73242 5.30664C8.99406 5.17967 9.26437 5.06707 9.54199 4.9707L9.89941 2.9043C9.9709 2.491 10.3296 2.18777 10.749 2.1875H13.251ZM12 8.68848C10.143 8.68848 8.63675 10.1937 8.63672 12.0508C8.63682 13.9078 10.143 15.4141 12 15.4141C13.8569 15.414 15.3622 13.9077 15.3623 12.0508C15.3623 10.1938 13.857 8.68855 12 8.68848Z" fill="black"/>
</svg>
