<svg width="24" height="24" viewBox="0 0 24 24" fill="none" xmlns="http://www.w3.org/2000/svg">
<path d="M5 19H6V21H5C3.89543 21 3 20.1046 3 19V18H5V19Z" fill="black"/>
<path d="M11 21H8V19H11V21Z" fill="black"/>
<path d="M16 21H13V19H16V21Z" fill="black"/>
<path d="M21 19C21 20.1046 20.1046 21 19 21H18V19H19V18H21V19Z" fill="black"/>
<path d="M6 15H5V16H3V15C3 13.8954 3.89543 13 5 13H6V15Z" fill="black"/>
<path d="M19 13C20.1046 13 21 13.8954 21 15V16H19V15H18V13H19Z" fill="black"/>
<path d="M11 15H8V13H11V15Z" fill="black"/>
<path d="M16 15H13V13H16V15Z" fill="black"/>
<path fill-rule="evenodd" clip-rule="evenodd" d="M19 3C20.1046 3 21 3.89543 21 5V9C21 10.1046 20.1046 11 19 11H5C3.89543 11 3 10.1046 3 9V5C3 3.89543 3.89543 3 5 3H19ZM5 9H19V5H5V9Z" fill="black"/>
</svg>
