<svg width="24" height="24" viewBox="0 0 24 24" fill="none" xmlns="http://www.w3.org/2000/svg">
<path fill-rule="evenodd" clip-rule="evenodd" d="M11.168 2.00293C11.6979 2.00293 12.2081 2.21218 12.5781 2.58203L21.4082 11.4121C22.1982 12.2021 22.1979 13.4622 21.418 14.2422L14.248 21.4121C13.468 22.1921 12.198 22.1921 11.418 21.4121L2.58789 12.582C2.2082 12.2121 1.99814 11.7026 1.99805 11.1729V4.00293C1.99805 2.90296 2.89808 2.00297 3.99805 2.00293H11.168ZM6.49805 5.00293C5.66808 5.00297 4.99805 5.67296 4.99805 6.50293C4.99828 7.33271 5.66822 8.00289 6.49805 8.00293C7.3279 8.00293 7.99782 7.33273 7.99805 6.50293C7.99805 5.67293 7.32805 5.00293 6.49805 5.00293Z" fill="black"/>
</svg>
