<svg width="24" height="24" viewBox="0 0 24 24" fill="none" xmlns="http://www.w3.org/2000/svg">
<path d="M12.6006 4.38272C12.865 4.20661 13.2051 4.19005 13.4854 4.33975C13.7655 4.48984 13.9403 4.78267 13.9404 5.10049V18.9003C13.9401 19.218 13.7654 19.511 13.4854 19.661C13.2052 19.8106 12.8649 19.794 12.6006 19.6181L7.64062 16.3124H2.72852C2.25269 16.3123 1.86691 15.9268 1.86621 15.4511V8.54971C1.86671 8.07385 2.25256 7.68751 2.72852 7.68741H7.64355L12.6006 4.38272Z" fill="black"/>
<path d="M20.6631 9.66592C20.9999 9.32945 21.5451 9.32939 21.8818 9.66592C22.2183 10.0027 22.2183 10.5479 21.8818 10.8847L20.335 12.4315L21.8818 13.9784C22.2183 14.3152 22.2183 14.8604 21.8818 15.1972C21.5451 15.5336 20.9998 15.5336 20.6631 15.1972L19.1162 13.6503L17.5693 15.1972C17.2326 15.5335 16.6873 15.5336 16.3506 15.1972C16.0141 14.8605 16.0142 14.3152 16.3506 13.9784L17.8975 12.4315L16.3506 10.8847C16.0141 10.548 16.0142 10.0027 16.3506 9.66592C16.6874 9.32944 17.2326 9.32937 17.5693 9.66592L19.1162 11.2128L20.6631 9.66592Z" fill="black"/>
</svg>
