<svg width="24" height="24" viewBox="0 0 24 24" fill="none" xmlns="http://www.w3.org/2000/svg">
<path d="M18.1564 1.61167C18.547 1.22129 19.181 1.22119 19.5715 1.61167C19.9613 2.00218 19.9616 2.63541 19.5715 3.02573L15.0861 7.51109V9.68198C15.0862 11.3419 16.4262 12.682 18.0861 12.682V14.682H12.0559V21.682L11.0559 22.682L10.0559 21.682V14.682H7.91426L5.4289 17.1673C5.03847 17.5577 4.40537 17.5576 4.01484 17.1673C3.62447 16.7768 3.62442 16.1438 4.01484 15.7533L18.1564 1.61167Z" fill="black"/>
<path d="M7.08125 9.85874C7.0846 9.80049 7.08613 9.74109 7.08613 9.68198V4.68198H6.08613C5.53623 4.68195 5.08625 4.23186 5.08613 3.68198C5.08636 3.1322 5.5363 2.68202 6.08613 2.68198H14.258L7.08125 9.85874Z" fill="black"/>
</svg>
