<svg width="24" height="24" viewBox="0 0 24 24" fill="none" xmlns="http://www.w3.org/2000/svg">
<path d="M6.62598 4.22203C7.01651 3.83163 7.64956 3.83155 8.04004 4.22203L22.1816 18.3636C22.572 18.7542 22.5721 19.3882 22.1816 19.7787C21.7912 20.1686 21.1579 20.1688 20.7676 19.7787L16.2822 15.2933H14.1113C12.4513 15.2933 11.1114 16.6333 11.1113 18.2933H9.11133V12.263H2.11133L1.11133 11.263L2.11133 10.263H9.11133V8.12144L6.62598 5.63609C6.23551 5.24562 6.23562 4.61256 6.62598 4.22203Z" fill="black"/>
<path d="M20.1113 5.29331C20.6611 5.29355 21.1113 5.74348 21.1113 6.29331V14.4652L13.9346 7.28843C13.9929 7.29179 14.0521 7.29331 14.1113 7.29331H19.1113V6.29331C19.1114 5.74334 19.5613 5.29331 20.1113 5.29331Z" fill="black"/>
</svg>
