<svg width="24" height="24" viewBox="0 0 24 24" fill="none" xmlns="http://www.w3.org/2000/svg">
<path fill-rule="evenodd" clip-rule="evenodd" d="M2.63965 3.13544C2.99034 2.78477 3.55946 2.78477 3.91016 3.13544L20.3691 19.5944C20.7201 19.9454 20.7201 20.5149 20.3691 20.8659C20.0186 21.2161 19.4507 21.2165 19.0996 20.8669L16.8047 18.5798L16.3848 18.1599C15.0348 18.6998 13.5548 18.9997 12.0049 18.9997C7.00494 18.9996 2.73487 15.8897 1.00488 11.4997C1.78487 9.51986 3.08526 7.80037 4.74512 6.51044L2.63965 4.40497C2.2893 4.05438 2.28942 3.4861 2.63965 3.13544ZM7.53516 9.30048C7.2053 9.97029 7.00494 10.71 7.00488 11.4997C7.00488 14.2597 9.24494 16.4996 12.0049 16.4997C12.7948 16.4997 13.5351 16.3004 14.2051 15.9704L12.6553 14.4196C12.4453 14.4696 12.2249 14.4997 12.0049 14.4997C10.3449 14.4996 9.00488 13.1597 9.00488 11.4997C9.00492 11.2799 9.03503 11.0601 9.08496 10.8503L7.53516 9.30048Z" fill="black"/>
<path d="M11.9951 3.99969C16.995 3.99974 21.2651 7.10987 22.9951 11.4997C22.2652 13.3595 21.0752 14.9897 19.5654 16.2497L16.6445 13.3298C16.8745 12.7598 17.0049 12.1497 17.0049 11.4997C17.0047 8.73986 14.7648 6.49969 12.0049 6.49969C11.3549 6.49971 10.7448 6.63006 10.1748 6.86005L8.01465 4.69989C9.25464 4.24989 10.5951 3.99969 11.9951 3.99969Z" fill="black"/>
<path d="M12.0146 8.51044C13.6746 8.51044 15.0146 9.85046 15.0146 11.5104L14.9951 11.6696L11.8447 8.5202L12.0146 8.51044Z" fill="black"/>
</svg>
