<svg width="24" height="24" viewBox="0 0 24 24" fill="none" xmlns="http://www.w3.org/2000/svg">
<path d="M19.5225 16.6826L14.75 21.4561H12.8408V19.5469L17.6133 14.7734L19.5225 16.6826Z" fill="black"/>
<path fill-rule="evenodd" clip-rule="evenodd" d="M15.542 2.54395C16.0393 2.54395 16.4434 2.94796 16.4434 3.44531V4.3457H17.3438C18.3342 4.34582 19.1445 5.15601 19.1445 6.14648V11.5498H17.3438V9.74902H4.73633V18.7539H11.04V20.5547H4.73633C3.73674 20.5547 2.93457 19.7445 2.93457 18.7539L2.94434 6.14648C2.94438 5.15594 3.73676 4.3457 4.73633 4.3457H5.63672V3.44531C5.63672 2.94797 6.03977 2.54396 6.53711 2.54395C7.03446 2.54395 7.4375 2.94796 7.4375 3.44531V4.3457H14.6416V3.44531C14.6416 2.94812 15.0449 2.5442 15.542 2.54395ZM4.73633 7.94727H17.3438V6.14648H4.73633V7.94727Z" fill="black"/>
<path d="M18.8926 13.4951C19.2438 13.1439 19.8109 13.1439 20.1621 13.4951L20.8018 14.1348C21.1527 14.486 21.1529 15.0532 20.8018 15.4043L20.1621 16.043L18.2529 14.1348L18.8926 13.4951Z" fill="black"/>
</svg>
