<svg width="24" height="24" viewBox="0 0 24 24" fill="none" xmlns="http://www.w3.org/2000/svg">
<path d="M13.6396 12C13.9324 11.7073 14.4075 11.7073 14.7002 12C14.9927 12.2926 14.9926 12.7669 14.7002 13.0596L12.79 14.9697L14.7002 16.8799C14.9929 17.1726 14.9929 17.6477 14.7002 17.9404C14.4075 18.233 13.9323 18.2331 13.6396 17.9404L11.7305 16.0303L9.82031 17.9404C9.52763 18.233 9.05246 18.233 8.75977 17.9404C8.46707 17.6477 8.46711 17.1726 8.75977 16.8799L10.6699 14.9697L8.75977 13.0596C8.46743 12.7669 8.46728 12.2926 8.75977 12C9.05248 11.7073 9.5276 11.7073 9.82031 12L11.7305 13.9102L13.6396 12Z" fill="black"/>
<path fill-rule="evenodd" clip-rule="evenodd" d="M17 2C17.5523 2 18 2.44772 18 3V4H19C20.1 4 21 4.9 21 6V20C21 21.1 20.1 22 19 22H5C3.9 22 3 21.1 3 20V6C3 4.9 3.9 4 5 4H6V3C6 2.44772 6.44772 2 7 2C7.55228 2 8 2.44772 8 3V4H16V3C16 2.44772 16.4477 2 17 2ZM5 20H19V10H5V20ZM5 8H19V6H5V8Z" fill="black"/>
</svg>
