<svg width="24" height="24" viewBox="0 0 24 24" fill="none" xmlns="http://www.w3.org/2000/svg">
<path d="M14.9004 12C15.1931 11.7075 15.6673 11.7074 15.96 12C16.2526 12.2926 16.2525 12.7668 15.96 13.0596L11.2676 17.7529C10.8771 18.1435 10.2431 18.1435 9.85254 17.7529L7.91992 15.8203C7.62721 15.5276 7.62721 15.0525 7.91992 14.7598C8.21264 14.4671 8.68778 14.4671 8.98047 14.7598L10.5596 16.3398L14.9004 12Z" fill="black"/>
<path fill-rule="evenodd" clip-rule="evenodd" d="M17 2C17.5523 2 18 2.44772 18 3V4H19C20.1 4 21 4.9 21 6V20C21 21.1 20.1 22 19 22H5C3.9 22 3 21.1 3 20V6C3 4.9 3.9 4 5 4H6V3C6 2.44772 6.44772 2 7 2C7.55228 2 8 2.44772 8 3V4H16V3C16 2.44772 16.4477 2 17 2ZM5 20H19V10H5V20ZM5 8H19V6H5V8Z" fill="black"/>
</svg>
