<svg width="24" height="24" viewBox="0 0 24 24" fill="none" xmlns="http://www.w3.org/2000/svg">
<path fill-rule="evenodd" clip-rule="evenodd" d="M2.53807 2.89941C2.92749 2.51038 3.55907 2.51102 3.94823 2.90039L20.918 19.8799C21.3072 20.2693 21.3073 20.9007 20.918 21.29C20.5286 21.6792 19.8971 21.6792 19.5078 21.29L18.1133 19.8945C16.5333 21.2645 14.4726 22.0947 12.2226 22.0947C7.2528 22.0945 3.22264 18.0646 3.22264 13.0947C3.22266 10.8449 4.05298 8.78503 5.42284 7.20508L4.62304 6.40527L3.56347 7.28516L2.28319 5.74512L3.20311 4.97461L2.53807 4.30957C2.14877 3.92026 2.14877 3.28872 2.53807 2.89941ZM6.84276 8.625C5.83289 9.83495 5.22266 11.3949 5.22264 13.0947C5.22264 16.9546 8.3628 20.0945 12.2226 20.0947C13.9226 20.0947 15.4834 19.4846 16.6933 18.4746L6.84276 8.625Z" fill="black"/>
<path d="M12.2226 4.09473C17.1926 4.09475 21.2226 8.12477 21.2226 13.0947C21.2226 14.3447 20.9631 15.5352 20.4932 16.6152L18.9326 15.0547C19.1126 14.4347 19.2226 13.7747 19.2226 13.0947C19.2226 9.23477 16.0826 6.09475 12.2226 6.09473C11.5428 6.09476 10.8826 6.2048 10.2627 6.38477L8.69335 4.81445C9.78312 4.35462 10.9729 4.09477 12.2226 4.09473Z" fill="black"/>
<path d="M22.167 5.75L20.8867 7.28516L16.2773 3.44141L17.5596 1.9043L22.167 5.75Z" fill="black"/>
<path d="M8.16307 3.44434L7.70311 3.8252L6.28319 2.40527L6.8828 1.9043L8.16307 3.44434Z" fill="black"/>
</svg>
