<svg width="24" height="24" viewBox="0 0 24 24" fill="none" xmlns="http://www.w3.org/2000/svg">
<path d="M8.29785 13.7021C8.68539 13.3146 9.31462 13.3146 9.70215 13.7021L14 18L9.70215 22.2979C9.31462 22.6854 8.68538 22.6854 8.29785 22.2979C7.91212 21.9116 7.91079 21.2864 8.29492 20.8984L10.1748 19H3C2.44772 19 2 18.5523 2 18C2 17.4477 2.44772 17 3 17H10.1748L8.29492 15.1016C7.91079 14.7136 7.91212 14.0884 8.29785 13.7021Z" fill="black"/>
<path fill-rule="evenodd" clip-rule="evenodd" d="M18 1C18.5523 1 19 1.44772 19 2V3H20C20.55 3 21.0204 3.19622 21.4121 3.58789C21.8038 3.97956 22 4.45 22 5V19C22 19.55 21.8038 20.0204 21.4121 20.4121C21.0204 20.8038 20.55 21 20 21H17C16.4477 21 16 20.5523 16 20C16 19.4477 16.4477 19 17 19H20V9H6V12C6 12.5523 5.55228 13 5 13C4.44772 13 4 12.5523 4 12V5C4 4.45 4.19622 3.97956 4.58789 3.58789C4.97956 3.19622 5.45 3 6 3H7V2C7 1.44772 7.44772 1 8 1C8.55228 1 9 1.44772 9 2V3H17V2C17 1.44772 17.4477 1 18 1ZM6 7H20V5H6V7Z" fill="black"/>
</svg>
