<svg width="24" height="24" viewBox="0 0 24 24" fill="none" xmlns="http://www.w3.org/2000/svg">
<path d="M15.75 12C16.1642 12 16.5 12.3358 16.5 12.75V16.2002L18.7412 17.5137C19.0986 17.7232 19.2063 18.1904 18.9766 18.5352C18.7651 18.8524 18.343 18.9499 18.0137 18.7578L15 17V12.75C15 12.3358 15.3358 12 15.75 12Z" fill="black"/>
<path fill-rule="evenodd" clip-rule="evenodd" d="M14 9.29004C14.63 9.10004 15.3 9 16 9C19.87 9 23 12.13 23 16C23 19.87 19.87 23 16 23C13.21 23 10.7997 21.36 9.67969 19H4C2.9 19 2 18.1 2 17V5H14V9.29004ZM16 11C13.24 11 11 13.24 11 16C11 18.76 13.24 21 16 21C18.76 21 21 18.76 21 16C21 13.24 18.76 11 16 11ZM4 17H9.08008C9.03008 16.67 9 16.34 9 16C9 13.62 10.19 11.5298 12 10.2598V7H4V17Z" fill="black"/>
<path d="M11.5 2H15V4H1V2H4.5L5.5 1H10.5L11.5 2Z" fill="black"/>
</svg>
