<svg width="24" height="24" viewBox="0 0 24 24" fill="none" xmlns="http://www.w3.org/2000/svg">
<path d="M8.90039 19.3701C9.56026 19.65 10.2602 19.8397 11 19.9297V21.9502C9.91006 21.8402 8.86035 21.5493 7.90039 21.1094L8.90039 19.3701Z" fill="black"/>
<path d="M16.0996 21.1094C15.1397 21.5493 14.0899 21.8402 13 21.9502V19.9297C13.7398 19.8397 14.4397 19.65 15.0996 19.3701L16.0996 21.1094Z" fill="black"/>
<path d="M5.63965 16.8301C6.07955 17.4099 6.58986 17.9194 7.17969 18.3594L6.16992 20.0996C5.3001 19.4697 4.53031 18.6999 3.90039 17.8301L5.63965 16.8301Z" fill="black"/>
<path d="M20.1104 17.8301C19.4804 18.7001 18.7098 19.4696 17.8398 20.0996L16.8301 18.3594C17.41 17.9194 17.9202 17.4092 18.3701 16.8193L20.1104 17.8301Z" fill="black"/>
<path d="M12 7C12.5523 7 13 7.44772 13 8V11.5898L15.9951 14.585C16.3843 14.9743 16.3844 15.6058 15.9951 15.9951C15.6058 16.3843 14.9743 16.3843 14.585 15.9951L11 12.4102V8C11 7.44772 11.4477 7 12 7Z" fill="black"/>
<path d="M4.07031 13C4.16031 13.7398 4.34996 14.4397 4.62988 15.0996L2.88965 16.0996C2.44975 15.1397 2.15981 14.0998 2.0498 13H4.07031Z" fill="black"/>
<path d="M21.9502 13C21.8402 14.0898 21.5503 15.1397 21.1104 16.0996L19.3701 15.0996C19.65 14.4397 19.8397 13.7398 19.9297 13H21.9502Z" fill="black"/>
<path d="M4.62988 8.89941C4.34988 9.55941 4.16031 10.26 4.07031 11H2.0498C2.1598 9.9 2.44965 8.85941 2.88965 7.89941L4.62988 8.89941Z" fill="black"/>
<path d="M21.1104 7.89941C21.5504 8.85941 21.8402 9.9 21.9502 11H19.9297C19.8397 10.26 19.6501 9.55941 19.3701 8.89941L21.1104 7.89941Z" fill="black"/>
<path d="M7.16992 5.63965C6.58992 6.07965 6.07965 6.58969 5.63965 7.17969L3.90039 6.16992C4.53038 5.28997 5.28996 4.52962 6.16992 3.88965L7.16992 5.63965Z" fill="black"/>
<path d="M17.8301 3.88965C18.7001 4.51965 19.4696 5.29016 20.0996 6.16016L18.3604 7.16992C17.9204 6.59 17.4102 6.07984 16.8203 5.62988L17.8301 3.88965Z" fill="black"/>
<path d="M11 4.06934C10.2601 4.15932 9.5603 4.34995 8.90039 4.62988L7.90039 2.88965C8.86028 2.44975 9.90015 2.15979 11 2.0498V4.06934Z" fill="black"/>
<path d="M13 2.0498C14.0999 2.15979 15.1397 2.44975 16.0996 2.88965L15.0996 4.62988C14.4397 4.34995 13.7399 4.15932 13 4.06934V2.0498Z" fill="black"/>
</svg>
