<svg width="24" height="24" viewBox="0 0 24 24" fill="none" xmlns="http://www.w3.org/2000/svg">
<path d="M13.5 3C18.47 3 22.5 7.03 22.5 12C22.5 16.97 18.47 21 13.5 21C11.3708 21 9.42432 20.2614 7.88574 19.0283C7.454 18.6822 7.45734 18.0427 7.84863 17.6514C8.24108 17.2594 8.87426 17.2678 9.31738 17.6016C10.4818 18.4785 11.9316 19 13.5 19C17.37 19 20.5 15.87 20.5 12C20.5 8.13 17.37 5 13.5 5C9.63 5 6.5 8.13 6.5 12H9.5L5.5 15.9902L1.5 12H4.5C4.5 7.03 8.53 3 13.5 3Z" fill="black"/>
<path d="M13.25 8C13.6642 8 14 8.33579 14 8.75V12.1504L16.874 13.8564C17.2301 14.068 17.3462 14.5288 17.1328 14.8838C16.9211 15.2358 16.4646 15.3511 16.1113 15.1416L12.5 13V8.75C12.5 8.33579 12.8358 8 13.25 8Z" fill="black"/>
</svg>
