<svg width="24" height="24" viewBox="0 0 24 24" fill="none" xmlns="http://www.w3.org/2000/svg">
<path d="M20.5 18C21.0523 18 21.5 18.4477 21.5 19C21.5 19.5523 21.0523 20 20.5 20H3.5C2.94772 20 2.5 19.5523 2.5 19C2.5 18.4477 2.94772 18 3.5 18H20.5Z" fill="black"/>
<path fill-rule="evenodd" clip-rule="evenodd" d="M20.5 8C21.05 8 21.5 8.45 21.5 9V15C21.5 15.55 21.05 16 20.5 16H3.5C2.95 16 2.5 15.55 2.5 15V9C2.5 8.45 2.95 8 3.5 8H20.5ZM4.5 14H19.5V10H4.5V14Z" fill="black"/>
<path d="M20.5 4C21.0523 4 21.5 4.44772 21.5 5C21.5 5.55228 21.0523 6 20.5 6H3.5C2.94772 6 2.5 5.55228 2.5 5C2.5 4.44772 2.94772 4 3.5 4H20.5Z" fill="black"/>
</svg>
