<svg width="24" height="24" viewBox="0 0 24 24" fill="none" xmlns="http://www.w3.org/2000/svg">
<path fill-rule="evenodd" clip-rule="evenodd" d="M21 3C22.1 3 23 3.9 23 5V19C23 20.1 22.1 21 21 21H3C1.9 21 1 20.1 1 19V5C1 3.9 1.9 3 3 3H21ZM18 12C17.4477 12 17 12.4477 17 13V15H15C14.4477 15 14 15.4477 14 16C14 16.5523 14.4477 17 15 17H19V13C19 12.4477 18.5523 12 18 12ZM5 11C5 11.5523 5.44772 12 6 12C6.55228 12 7 11.5523 7 11V9H9C9.55228 9 10 8.55228 10 8C10 7.44772 9.55228 7 9 7H5V11Z" fill="black"/>
</svg>
