<svg width="24" height="24" viewBox="0 0 24 24" fill="none" xmlns="http://www.w3.org/2000/svg">
<path fill-rule="evenodd" clip-rule="evenodd" d="M14 2.5C16.7614 2.5 19 4.73858 19 7.5C19 10.2614 16.7614 12.5 14 12.5H9V14.5H13C13.5523 14.5 14 14.9477 14 15.5C14 16.0523 13.5523 16.5 13 16.5H9V20.5C9 21.0523 8.55228 21.5 8 21.5C7.44772 21.5 7 21.0523 7 20.5V16.5H6C5.44772 16.5 5 16.0523 5 15.5C5 14.9477 5.44772 14.5 6 14.5H7V12.5H6C5.44772 12.5 5 12.0523 5 11.5C5 10.9477 5.44772 10.5 6 10.5H7V3.5C7 2.94772 7.44772 2.5 8 2.5H14ZM9 10.5H14C15.6569 10.5 17 9.15685 17 7.5C17 5.84315 15.6569 4.5 14 4.5H9V10.5Z" fill="black"/>
</svg>
