<svg width="24" height="24" viewBox="0 0 24 24" fill="none" xmlns="http://www.w3.org/2000/svg">
<path fill-rule="evenodd" clip-rule="evenodd" d="M22 7V21C22 22.1 21.1 23 20 23H3.99023C2.89023 23 2 22.1 2 21L2.00977 3C2.00977 1.9 2.9 1 4 1H16L22 7ZM7 17C6.44772 17 6 17.4477 6 18C6 18.5523 6.44772 19 7 19H11C11.5523 19 12 18.5523 12 18C12 17.4477 11.5523 17 11 17H7ZM7 13C6.44772 13 6 13.4477 6 14C6 14.5523 6.44772 15 7 15H15C15.5523 15 16 14.5523 16 14C16 13.4477 15.5523 13 15 13H7ZM7 9C6.44772 9 6 9.44771 6 10C6 10.5523 6.44772 11 7 11H9C9.55228 11 10 10.5523 10 10C10 9.44771 9.55228 9 9 9H7ZM15 7C15 7.55228 15.4477 8 16 8H20.5L15 2.5V7ZM7 5C6.44772 5 6 5.44772 6 6C6 6.55228 6.44772 7 7 7H11C11.5523 7 12 6.55228 12 6C12 5.44772 11.5523 5 11 5H7Z" fill="black"/>
</svg>
