<svg width="24" height="24" viewBox="0 0 24 24" fill="none" xmlns="http://www.w3.org/2000/svg">
<path fill-rule="evenodd" clip-rule="evenodd" d="M22 7V21C22 22.1 21.1 23 20 23H3.99023C2.89023 23 2 22.1 2 21L2.00977 3C2.00977 1.9 2.9 1 4 1H16L22 7ZM10.6504 14.1719C10.4966 14.172 10.3614 14.2236 10.2441 14.3262C10.1342 14.4215 10.0791 14.5385 10.0791 14.6777V16.5586C10.0791 16.7053 10.1341 16.83 10.2441 16.9326C10.3614 17.0278 10.4966 17.0761 10.6504 17.0762H12.334V17.9775H10.0791V19.001H12.9062C13.06 19.0009 13.1919 18.9527 13.3018 18.8574C13.4116 18.7548 13.4668 18.63 13.4668 18.4834V16.5586C13.4667 16.4121 13.4116 16.2915 13.3018 16.1963C13.1919 16.0937 13.06 16.0421 12.9062 16.042H11.2227V15.1953H13.4668V14.1719H10.6504ZM6.06738 14.1934C5.90622 14.1934 5.77105 14.2451 5.66113 14.3477C5.55856 14.4429 5.50693 14.5635 5.50684 14.71V18.4941C5.50684 18.6408 5.55847 18.7621 5.66113 18.8574C5.77102 18.9525 5.90632 18.9999 6.06738 19H9.13672V17.9883H6.62891V15.2275H9.13672V14.1934H6.06738ZM15.5635 19H17.3018L18.7314 14.1934H17.5771L16.4326 17.9551L15.2783 14.1934H14.123L15.5635 19ZM15 7C15 7.55228 15.4477 8 16 8H20.5L15 2.5V7Z" fill="black"/>
</svg>
