<svg width="24" height="24" viewBox="0 0 24 24" fill="none" xmlns="http://www.w3.org/2000/svg">
<path d="M20 19C20.5523 19 21 19.4477 21 20C21 20.5523 20.5523 21 20 21H4C3.44772 21 3 20.5523 3 20C3 19.4477 3.44772 19 4 19H20Z" fill="black"/>
<path d="M20 15C20.5523 15 21 15.4477 21 16C21 16.5523 20.5523 17 20 17H10C9.44772 17 9 16.5523 9 16C9 15.4477 9.44772 15 10 15H20Z" fill="black"/>
<path d="M20 11C20.5523 11 21 11.4477 21 12C21 12.5523 20.5523 13 20 13H4C3.44772 13 3 12.5523 3 12C3 11.4477 3.44772 11 4 11H20Z" fill="black"/>
<path d="M20 7C20.5523 7 21 7.44772 21 8C21 8.55228 20.5523 9 20 9H10C9.44772 9 9 8.55228 9 8C9 7.44772 9.44772 7 10 7H20Z" fill="black"/>
<path d="M20 3C20.5523 3 21 3.44772 21 4C21 4.55228 20.5523 5 20 5H4C3.44772 5 3 4.55228 3 4C3 3.44772 3.44772 3 4 3H20Z" fill="black"/>
</svg>
