<svg width="24" height="24" viewBox="0 0 24 24" fill="none" xmlns="http://www.w3.org/2000/svg">
<path fill-rule="evenodd" clip-rule="evenodd" d="M12.4463 3C15.3457 3.00008 17.6963 5.35056 17.6963 8.25C17.6963 9.48618 17.2676 10.6216 16.5527 11.5186C17.8522 12.4742 18.6963 14.0132 18.6963 15.75C18.6963 18.6494 16.3457 20.9999 13.4463 21H4.5V3H12.4463ZM7.5 18H13.4463C14.6889 17.9999 15.6963 16.9926 15.6963 15.75C15.6963 14.5074 14.6889 13.5001 13.4463 13.5H7.5V18ZM7.5 10.5H12.4463C13.6889 10.4999 14.6963 9.49259 14.6963 8.25C14.6963 7.00741 13.6889 6.00008 12.4463 6H7.5V10.5Z" fill="black"/>
</svg>
