<svg width="24" height="24" viewBox="0 0 24 24" fill="none" xmlns="http://www.w3.org/2000/svg">
<path d="M20 20C20.5522 20 21 20.4477 21 21C20.9999 21.5522 20.5522 22 20 22H3.99998C3.44774 21.9999 3.00002 21.5522 2.99998 21C2.99998 20.4477 3.44772 20 3.99998 20H20Z" fill="black"/>
<path fill-rule="evenodd" clip-rule="evenodd" d="M6.91697 1.70505C7.3063 1.31574 7.93777 1.31579 8.32713 1.70505L16.5615 9.9404C17.1514 10.5304 17.1515 11.4796 16.5615 12.0595L11.0615 17.5595C10.7715 17.8495 10.3819 18 10.0019 18C9.622 17.9999 9.23232 17.8495 8.94236 17.5595L3.44236 12.0595C2.8525 11.4796 2.85249 10.5304 3.44236 9.9404L8.59177 4.79001L6.91697 3.11521C6.52773 2.72587 6.52774 2.09439 6.91697 1.70505ZM5.21189 11H14.792L10.0019 6.20993L5.21189 11Z" fill="black"/>
<path d="M19.0019 12.5C19.0126 12.5115 21.0019 14.6735 21.0019 16C21.0019 17.0999 20.1019 18 19.0019 18C17.902 17.9999 17.002 17.0999 17.0019 16C17.002 14.6752 18.9862 12.5171 19.0019 12.5Z" fill="black"/>
</svg>
