<svg width="24" height="24" viewBox="0 0 24 24" fill="none" xmlns="http://www.w3.org/2000/svg">
<path fill-rule="evenodd" clip-rule="evenodd" d="M1.99634 1.99893C2.38686 1.60842 3.01988 1.60844 3.4104 1.99893L21.7952 20.3837C22.1856 20.7742 22.1857 21.4073 21.7952 21.7978C21.4047 22.1881 20.7716 22.1881 20.3811 21.7978L19.5139 20.9306C19.3498 20.9746 19.1779 20.9999 19.0002 20.9999H5.00025C3.90039 20.9999 3.00048 20.0997 3.00025 18.9999V4.99991C3.00025 4.82191 3.02344 4.64875 3.06763 4.48429L1.99634 3.413C1.6059 3.02253 1.60601 2.38946 1.99634 1.99893ZM5.00025 17.9999H16.5833L12.7874 14.204L11.0002 16.5097L8.50025 13.4999L5.00025 17.9999Z" fill="black"/>
<path d="M19.0002 2.99991C20.1001 3.00006 21.0002 3.9 21.0002 4.99991V16.7597L7.24048 2.99991H19.0002Z" fill="black"/>
</svg>
