<svg width="24" height="24" viewBox="0 0 24 24" fill="none" xmlns="http://www.w3.org/2000/svg">
<path fill-rule="evenodd" clip-rule="evenodd" d="M16.7578 4C17.3887 4.00024 17.8511 4.59299 17.6983 5.20508L17 8H19.7188C20.3692 8 20.847 8.61117 20.6895 9.24219C20.5782 9.68735 20.1776 10 19.7188 10H16.5L15.5 14H18.2188C18.8692 14 19.347 14.6112 19.1895 15.2422C19.0782 15.6874 18.6776 16 18.2188 16H15L14.1836 19.2656C14.0755 19.6972 13.6872 20 13.2422 20C12.6113 19.9998 12.1489 19.407 12.3018 18.7949L13 16H9.00001L8.18361 19.2656C8.07547 19.6972 7.68721 20 7.2422 20C6.61131 19.9998 6.14891 19.407 6.30177 18.7949L7.00001 16H4.28029C3.63009 15.9997 3.15307 15.3887 3.31056 14.7578C3.42181 14.3128 3.82163 14.0002 4.28029 14H7.50001L8.50001 10H5.78029C5.13009 9.99969 4.65307 9.38868 4.81056 8.75781C4.92181 8.3128 5.32163 8.00022 5.78029 8H9.00001L9.81642 4.73438C9.92455 4.30276 10.3128 4.00001 10.7578 4C11.3887 4.00024 11.8511 4.59299 11.6983 5.20508L11 8H15L15.8164 4.73438C15.9246 4.30276 16.3128 4.00001 16.7578 4ZM9.50001 14H13.5L14.5 10H10.5L9.50001 14Z" fill="black"/>
</svg>
