<svg width="24" height="24" viewBox="0 0 24 24" fill="none" xmlns="http://www.w3.org/2000/svg">
<path d="M21.296 6.20508C21.572 6.20527 21.796 6.42905 21.796 6.70508V11.2051C21.796 11.7572 21.3481 12.2049 20.796 12.2051C20.2437 12.2051 19.796 11.7574 19.796 11.2051V9.60547L13.9024 15.498C13.5119 15.8884 12.8788 15.8885 12.4884 15.498L9.19538 12.2051L3.89655 17.5039C3.50929 17.891 2.88142 17.8911 2.49421 17.5039C2.10798 17.1176 2.10727 16.4911 2.49226 16.1035L8.48835 10.0674C8.87849 9.67461 9.51389 9.673 9.90534 10.0645L13.1954 13.3555L18.3956 8.20508H16.796C16.2437 8.20508 15.796 7.75735 15.796 7.20508C15.796 6.65279 16.2437 6.20508 16.796 6.20508H21.296Z" fill="black"/>
</svg>
