<svg width="24" height="24" viewBox="0 0 24 24" fill="none" xmlns="http://www.w3.org/2000/svg">
<path d="M21.5 2C21.7761 2.00003 22 2.22388 22 2.5V7C22 7.55225 21.5522 7.99997 21 8C20.4477 8 20 7.55227 20 7V5.40039L14.1074 11.293C13.7169 11.6835 13.0829 11.6835 12.6924 11.293L9.40039 8L4.10156 13.2988C4.06964 13.3308 4.03493 13.3591 4 13.3857V20H6.5V14C6.5 13.4477 6.94772 13 7.5 13C8.05228 13 8.5 13.4477 8.5 14V20H11V16.1113C11 15.4977 11.4477 15 12 15C12.5523 15 13 15.4977 13 16.1113V20H15.5V14.1113C15.5 13.4977 15.9477 13 16.5 13C17.0523 13 17.5 13.4977 17.5 14.1113V20H20V12C20 11.4477 20.4477 11 21 11C21.5523 11 22 11.4477 22 12V21C22 21.5523 21.5523 22 21 22H2V3.5C2 2.94772 2.44772 2.5 3 2.5C3.55228 2.5 4 2.94772 4 3.5V10.5859L8.69238 5.8623C9.08249 5.46956 9.71791 5.46799 10.1094 5.85938L13.4004 9.15039L18.5996 4H17C16.4477 4 16 3.55227 16 3C16 2.44772 16.4477 2 17 2H21.5Z" fill="black"/>
</svg>
