<svg width="24" height="24" viewBox="0 0 24 24" fill="none" xmlns="http://www.w3.org/2000/svg">
<path d="M6.375 3C6.50833 3 6.63333 3.0252 6.75 3.0752C6.86664 3.12519 6.97522 3.19207 7.0752 3.27539C7.80832 3.95859 8.3546 4.6706 8.71289 5.41211C9.0712 6.15372 9.24997 6.94988 9.25 7.7998C9.25 8.38314 9.16667 8.99603 9 9.6377C8.83332 10.2793 8.5329 11.1172 8.09961 12.1504C7.68305 13.1502 7.39998 13.9169 7.25 14.4502C7.10007 14.9833 7.02543 15.4914 7.02539 15.9746C7.02539 16.5579 7.14603 17.1292 7.3877 17.6875C7.62936 18.2458 8.00002 18.7919 8.5 19.3252C8.58329 19.4252 8.64585 19.5338 8.6875 19.6504C8.72908 19.7669 8.75 19.8834 8.75 20C8.75 20.1333 8.7248 20.2671 8.6748 20.4004C8.6248 20.5335 8.54132 20.6414 8.4248 20.7246C8.3248 20.8079 8.22064 20.8748 8.1123 20.9248C8.00399 20.9748 7.8833 21 7.75 21C7.61667 21 7.48294 20.9704 7.34961 20.9121C7.21647 20.8538 7.09988 20.7747 7 20.6748C6.31672 19.9415 5.81229 19.1958 5.4873 18.4375C5.16237 17.6793 5.00005 16.8752 5 16.0254C5 15.4087 5.09206 14.7498 5.27539 14.0498C5.45871 13.35 5.77477 12.4667 6.22461 11.4004C6.60794 10.4504 6.87539 9.72461 7.02539 9.22461C7.17528 8.72486 7.24998 8.25834 7.25 7.8252C7.25 7.25865 7.1249 6.72113 6.875 6.21289C6.625 5.70456 6.23353 5.20794 5.7002 4.72461C5.58364 4.62469 5.50019 4.51257 5.4502 4.3877C5.4002 4.2627 5.375 4.13333 5.375 4C5.375 3.86667 5.4002 3.74167 5.4502 3.625C5.50019 3.50836 5.56707 3.39978 5.65039 3.2998C5.75025 3.20001 5.86252 3.12515 5.9873 3.0752C6.1123 3.0252 6.24167 3 6.375 3Z" fill="black"/>
<path d="M11.25 3C11.3833 3 11.5083 3.0252 11.625 3.0752C11.7416 3.12519 11.8502 3.19207 11.9502 3.27539C12.6834 3.95864 13.2296 4.67491 13.5879 5.4248C13.9462 6.17475 14.125 6.96654 14.125 7.7998C14.125 8.38314 14.0373 8.99603 13.8623 9.6377C13.6873 10.2793 13.3835 11.1172 12.9502 12.1504C12.5336 13.1503 12.2496 13.9169 12.0996 14.4502C11.9497 14.9833 11.875 15.4915 11.875 15.9746C11.875 16.5578 11.9958 17.1206 12.2373 17.6621C12.4789 18.2037 12.8497 18.7499 13.3496 19.2998C13.4329 19.3998 13.4998 19.5084 13.5498 19.625C13.5998 19.7417 13.625 19.8667 13.625 20C13.625 20.1333 13.5998 20.2627 13.5498 20.3877C13.4998 20.5126 13.4164 20.6247 13.2998 20.7246C13.1998 20.8079 13.0956 20.8748 12.9873 20.9248C12.879 20.9748 12.7583 21 12.625 21C12.4917 21 12.3579 20.9704 12.2246 20.9121C12.0915 20.8538 11.9749 20.7747 11.875 20.6748C11.1917 19.9415 10.6873 19.1914 10.3623 18.4248C10.0374 17.6582 9.875 16.8499 9.875 16C9.875 15.3833 9.96706 14.7331 10.1504 14.0498C10.3337 13.3666 10.6498 12.4834 11.0996 11.4004C11.4829 10.4505 11.7504 9.72121 11.9004 9.21289C12.0504 8.70456 12.125 8.23314 12.125 7.7998C12.125 7.23333 11.9999 6.70441 11.75 6.21289C11.5 5.72122 11.1085 5.22461 10.5752 4.72461C10.4753 4.62467 10.3962 4.50823 10.3379 4.375C10.2796 4.24167 10.25 4.10794 10.25 3.97461C10.25 3.84143 10.2752 3.72053 10.3252 3.6123C10.3752 3.50406 10.4421 3.39973 10.5254 3.2998C10.6253 3.20001 10.7375 3.12515 10.8623 3.0752C10.9873 3.0252 11.1167 3 11.25 3Z" fill="black"/>
<path d="M16.1504 3C16.2836 3.00005 16.4045 3.02524 16.5127 3.0752C16.6209 3.12518 16.7253 3.19212 16.8252 3.27539C17.5584 3.95864 18.1046 4.67491 18.4629 5.4248C18.8212 6.17475 19 6.96654 19 7.7998C19 8.38314 18.9123 8.99603 18.7373 9.6377C18.5623 10.2793 18.2584 11.125 17.8252 12.1748C17.4086 13.1746 17.1246 13.9413 16.9746 14.4746C16.8247 15.0078 16.75 15.5081 16.75 15.9746C16.75 16.5579 16.875 17.1292 17.125 17.6875C17.375 18.2458 17.75 18.7919 18.25 19.3252C18.3333 19.4252 18.3958 19.5338 18.4375 19.6504C18.4791 19.7669 18.5 19.8834 18.5 20C18.5 20.1333 18.4748 20.2671 18.4248 20.4004C18.3748 20.5335 18.2913 20.6414 18.1748 20.7246C18.0748 20.8079 17.9706 20.8748 17.8623 20.9248C17.754 20.9748 17.6333 21 17.5 21C17.3667 21 17.2329 20.9704 17.0996 20.9121C16.9665 20.8538 16.8499 20.7747 16.75 20.6748C16.0667 19.9415 15.5623 19.1958 15.2373 18.4375C14.9124 17.6793 14.75 16.8752 14.75 16.0254C14.75 15.4087 14.8421 14.7498 15.0254 14.0498C15.2087 13.35 15.5248 12.4667 15.9746 11.4004C16.3579 10.4504 16.6254 9.72461 16.7754 9.22461C16.9253 8.72486 17 8.25834 17 7.8252C17 7.25865 16.8749 6.72113 16.625 6.21289C16.375 5.70456 15.9835 5.20794 15.4502 4.72461C15.3503 4.62464 15.2746 4.51264 15.2246 4.3877C15.1746 4.2627 15.1504 4.13333 15.1504 4C15.1504 3.86668 15.1712 3.74602 15.2129 3.6377C15.2546 3.52936 15.3171 3.4252 15.4004 3.3252C15.5003 3.22528 15.6168 3.1462 15.75 3.08789C15.8833 3.02956 16.0171 3 16.1504 3Z" fill="black"/>
</svg>
