<svg width="24" height="24" viewBox="0 0 24 24" fill="none" xmlns="http://www.w3.org/2000/svg">
<path fill-rule="evenodd" clip-rule="evenodd" d="M9.5 2C15.02 2 19.5 6.48 19.5 12C19.5 17.52 15.02 22 9.5 22C7.68007 22 5.96996 21.5003 4.5 20.6504C7.49 18.9204 9.5 15.7 9.5 12C9.5 8.3 7.49 5.07961 4.5 3.34961C5.96996 2.49967 7.68007 2 9.5 2ZM9.5 4C9.16006 4 8.82018 4.02033 8.49023 4.07031C10.4001 6.23028 11.5 9.05013 11.5 12C11.5 14.9499 10.4001 17.7697 8.49023 19.9297C8.82018 19.9797 9.16006 20 9.5 20C13.91 20 17.5 16.41 17.5 12C17.5 7.59 13.91 4 9.5 4Z" fill="black"/>
</svg>
