<svg width="24" height="24" viewBox="0 0 24 24" fill="none" xmlns="http://www.w3.org/2000/svg">
<path d="M11.5 4C12.0523 4 12.5 4.44772 12.5 5V7.58984L14.3848 5.70508C14.7741 5.31572 15.4056 5.31572 15.7949 5.70508C16.1843 6.09444 16.1843 6.72587 15.7949 7.11523L12.5 10.4102V12H19.5C20.0523 12 20.5 12.4477 20.5 13C20.5 13.5523 20.0523 14 19.5 14H16.9102L18.7949 15.8848C19.1843 16.2741 19.1843 16.9056 18.7949 17.2949C18.4056 17.6843 17.7741 17.6843 17.3848 17.2949L14.0898 14H12.5V15.5898L15.7949 18.8848C16.1843 19.2741 16.1843 19.9056 15.7949 20.2949C15.4056 20.6843 14.7741 20.6843 14.3848 20.2949L12.5 18.4102V21C12.5 21.5523 12.0523 22 11.5 22C10.9477 22 10.5 21.5523 10.5 21V18.4102L8.61523 20.2949C8.22587 20.6843 7.59444 20.6843 7.20508 20.2949C6.81572 19.9056 6.81572 19.2741 7.20508 18.8848L10.5 15.5898V14H8.91016L5.61523 17.2949C5.22587 17.6843 4.59444 17.6843 4.20508 17.2949C3.81572 16.9056 3.81572 16.2741 4.20508 15.8848L6.08984 14H3.5C2.94772 14 2.5 13.5523 2.5 13C2.5 12.4477 2.94772 12 3.5 12H6.08984L4.20508 10.1152C3.81572 9.72587 3.81572 9.09444 4.20508 8.70508C4.59444 8.31572 5.22587 8.31572 5.61523 8.70508L8.91016 12H10.5V10.4102L7.20508 7.11523C6.81572 6.72587 6.81572 6.09444 7.20508 5.70508C7.59444 5.31572 8.22587 5.31572 8.61523 5.70508L10.5 7.58984V5C10.5 4.44772 10.9477 4 11.5 4Z" fill="black"/>
<path d="M20.5 8C21.0523 8 21.5 8.44772 21.5 9C21.5 9.55228 21.0523 10 20.5 10C19.9477 10 19.5 9.55228 19.5 9C19.5 8.44772 19.9477 8 20.5 8Z" fill="black"/>
<path d="M20.5 2C21.0523 2 21.5 2.44772 21.5 3V6C21.5 6.55228 21.0523 7 20.5 7C19.9477 7 19.5 6.55228 19.5 6V3C19.5 2.44772 19.9477 2 20.5 2Z" fill="black"/>
</svg>
