<svg width="24" height="24" viewBox="0 0 24 24" fill="none" xmlns="http://www.w3.org/2000/svg">
<path fill-rule="evenodd" clip-rule="evenodd" d="M7.5 3C8.33333 3 9.04167 3.29167 9.625 3.875C10.2083 4.45833 10.5 5.16667 10.5 6V12C11.1333 12.4833 11.6246 13.071 11.9746 13.7627C12.3246 14.4544 12.5 15.2 12.5 16C12.5 17.3833 12.0121 18.5621 11.0371 19.5371C10.0621 20.5121 8.88333 21 7.5 21C6.11667 21 4.93789 20.5121 3.96289 19.5371C2.98789 18.5621 2.5 17.3833 2.5 16C2.5 15.2 2.67539 14.4544 3.02539 13.7627C3.37539 13.071 3.86667 12.4833 4.5 12V6C4.5 5.16667 4.79167 4.45833 5.375 3.875C5.95833 3.29167 6.66667 3 7.5 3ZM7.5 5C7.21667 5 6.97878 5.09544 6.78711 5.28711C6.59544 5.47878 6.5 5.71667 6.5 6V10H8.5V6C8.5 5.71667 8.40456 5.47878 8.21289 5.28711C8.02122 5.09544 7.78333 5 7.5 5Z" fill="black"/>
<path d="M17 5.5H21C21.5523 5.5 22 5.94772 22 6.5C22 7.05228 21.5523 7.5 21 7.5H17V9H13V4H17V5.5Z" fill="black"/>
</svg>
