<svg width="24" height="24" viewBox="0 0 24 24" fill="none" xmlns="http://www.w3.org/2000/svg">
<path fill-rule="evenodd" clip-rule="evenodd" d="M7.5 3C8.33333 3 9.04167 3.29167 9.625 3.875C10.2083 4.45833 10.5 5.16667 10.5 6V12C11.1333 12.4833 11.6246 13.071 11.9746 13.7627C12.3246 14.4544 12.5 15.2 12.5 16C12.5 17.3833 12.0121 18.5621 11.0371 19.5371C10.0621 20.5121 8.88333 21 7.5 21C6.11667 21 4.93789 20.5121 3.96289 19.5371C2.98789 18.5621 2.5 17.3833 2.5 16C2.5 15.2 2.67539 14.4544 3.02539 13.7627C3.37539 13.071 3.86667 12.4833 4.5 12V6C4.5 5.16667 4.79167 4.45833 5.375 3.875C5.95833 3.29167 6.66667 3 7.5 3ZM7.5 5C7.21667 5 6.97878 5.09544 6.78711 5.28711C6.59544 5.47878 6.5 5.71667 6.5 6V10H8.5V6C8.5 5.71667 8.40456 5.47878 8.21289 5.28711C8.02122 5.09544 7.78333 5 7.5 5Z" fill="black"/>
<path d="M17.5 3C17.7833 3 18.0212 3.09544 18.2129 3.28711C18.4046 3.47878 18.5 3.71667 18.5 4V6H20.5C20.7833 6 21.0212 6.09544 21.2129 6.28711C21.4046 6.47878 21.5 6.71667 21.5 7C21.5 7.28333 21.4046 7.52122 21.2129 7.71289C21.0212 7.90456 20.7833 8 20.5 8H18.5V10C18.5 10.2833 18.4046 10.5212 18.2129 10.7129C18.0212 10.9046 17.7833 11 17.5 11C17.2167 11 16.9788 10.9046 16.7871 10.7129C16.5954 10.5212 16.5 10.2833 16.5 10V8H14.5C14.2167 8 13.9788 7.90456 13.7871 7.71289C13.5954 7.52122 13.5 7.28333 13.5 7C13.5 6.71667 13.5954 6.47878 13.7871 6.28711C13.9788 6.09544 14.2167 6 14.5 6H16.5V4C16.5 3.71667 16.5954 3.47878 16.7871 3.28711C16.9788 3.09544 17.2167 3 17.5 3Z" fill="black"/>
</svg>
