<svg width="24" height="24" viewBox="0 0 24 24" fill="none" xmlns="http://www.w3.org/2000/svg">
<path d="M9.5 20C9.85 20 10.146 20.1206 10.3877 20.3623C10.6294 20.604 10.75 20.9 10.75 21.25C10.75 21.6 10.6294 21.896 10.3877 22.1377C10.146 22.3794 9.85 22.5 9.5 22.5C9.15 22.5 8.85397 22.3794 8.6123 22.1377C8.37064 21.896 8.25 21.6 8.25 21.25C8.25 20.9 8.37064 20.604 8.6123 20.3623C8.85397 20.1206 9.15 20 9.5 20Z" fill="black"/>
<path d="M15.5 20C15.85 20 16.146 20.1206 16.3877 20.3623C16.6294 20.604 16.75 20.9 16.75 21.25C16.75 21.6 16.6294 21.896 16.3877 22.1377C16.146 22.3794 15.85 22.5 15.5 22.5C15.15 22.5 14.854 22.3794 14.6123 22.1377C14.3706 21.896 14.25 21.6 14.25 21.25C14.25 20.9 14.3706 20.604 14.6123 20.3623C14.854 20.1206 15.15 20 15.5 20Z" fill="black"/>
<path d="M6.5 17C6.85 17 7.14603 17.1206 7.3877 17.3623C7.62936 17.604 7.75 17.9 7.75 18.25C7.75 18.6 7.62936 18.896 7.3877 19.1377C7.14603 19.3794 6.85 19.5 6.5 19.5C6.15 19.5 5.85397 19.3794 5.6123 19.1377C5.37064 18.896 5.25 18.6 5.25 18.25C5.25 17.9 5.37064 17.604 5.6123 17.3623C5.85397 17.1206 6.15 17 6.5 17Z" fill="black"/>
<path d="M12.5 17C12.85 17 13.146 17.1206 13.3877 17.3623C13.6294 17.604 13.75 17.9 13.75 18.25C13.75 18.6 13.6294 18.896 13.3877 19.1377C13.146 19.3794 12.85 19.5 12.5 19.5C12.15 19.5 11.854 19.3794 11.6123 19.1377C11.3706 18.896 11.25 18.6 11.25 18.25C11.25 17.9 11.3706 17.604 11.6123 17.3623C11.854 17.1206 12.15 17 12.5 17Z" fill="black"/>
<path d="M18.5 17C18.85 17 19.146 17.1206 19.3877 17.3623C19.6294 17.604 19.75 17.9 19.75 18.25C19.75 18.6 19.6294 18.896 19.3877 19.1377C19.146 19.3794 18.85 19.5 18.5 19.5C18.15 19.5 17.854 19.3794 17.6123 19.1377C17.3706 18.896 17.25 18.6 17.25 18.25C17.25 17.9 17.3706 17.604 17.6123 17.3623C17.854 17.1206 18.15 17 18.5 17Z" fill="black"/>
<path fill-rule="evenodd" clip-rule="evenodd" d="M12 1.5C13.4999 1.5 14.8038 1.9793 15.9121 2.9375C17.0204 3.89583 17.6915 5.09206 17.9248 6.52539C19.0748 6.62539 20.0419 7.1002 20.8252 7.9502C21.6084 8.80015 22 9.81676 22 11C22 12.25 21.5625 13.3125 20.6875 14.1875C19.8125 15.0625 18.75 15.5 17.5 15.5H7.5C5.98333 15.5 4.6873 14.9627 3.6123 13.8877C2.5373 12.8127 2 11.5167 2 10C2 8.61667 2.45833 7.40833 3.375 6.375C4.29167 5.34167 5.42539 4.73314 6.77539 4.5498C7.30871 3.59995 8.03799 2.85411 8.96289 2.3125C9.88781 1.77095 10.9001 1.5 12 1.5ZM12 3.5C11.2 3.5 10.4708 3.71706 9.8125 4.15039C9.15426 4.58371 8.6585 5.16712 8.3252 5.90039L8.0752 6.5H7.4502C6.50024 6.53333 5.68768 6.88756 5.0127 7.5625C4.3377 8.2375 4 9.05 4 10C4 10.9667 4.34206 11.7913 5.02539 12.4746C5.70872 13.1579 6.53333 13.5 7.5 13.5H17.5C18.2 13.5 18.7921 13.2587 19.2754 12.7754C19.7587 12.2921 20 11.7 20 11C20 10.3 19.7587 9.70794 19.2754 9.22461C18.7921 8.74128 18.2 8.5 17.5 8.5H16V7.5C16 6.4 15.6085 5.45814 14.8252 4.6748C14.0419 3.89147 13.1 3.5 12 3.5Z" fill="black"/>
</svg>
