<svg width="24" height="24" viewBox="0 0 24 24" fill="none" xmlns="http://www.w3.org/2000/svg">
<path d="M5.5498 17.0908C5.7998 16.9575 6.05417 16.9367 6.3125 17.0283C6.57082 17.12 6.76706 17.291 6.90039 17.541L8.40039 20.541C8.53354 20.7909 8.55451 21.0455 8.46289 21.3037C8.37122 21.5618 8.19999 21.7573 7.9502 21.8906C7.7002 22.024 7.44583 22.0448 7.1875 21.9531C6.92918 21.8615 6.73294 21.6904 6.59961 21.4404L5.09961 18.4404C4.96656 18.1907 4.94572 17.9367 5.03711 17.6787C5.12875 17.4204 5.29991 17.2242 5.5498 17.0908Z" fill="black"/>
<path d="M11.5498 17.0908C11.7998 16.9575 12.0542 16.9367 12.3125 17.0283C12.5708 17.12 12.7671 17.291 12.9004 17.541L14.4004 20.541C14.5335 20.7909 14.5545 21.0455 14.4629 21.3037C14.3712 21.5618 14.2 21.7573 13.9502 21.8906C13.7002 22.024 13.4458 22.0448 13.1875 21.9531C12.9292 21.8615 12.7329 21.6904 12.5996 21.4404L11.0996 18.4404C10.9666 18.1907 10.9457 17.9367 11.0371 17.6787C11.1288 17.4204 11.2999 17.2242 11.5498 17.0908Z" fill="black"/>
<path d="M17.5498 17.0908C17.7998 16.9575 18.0542 16.9367 18.3125 17.0283C18.5708 17.12 18.7671 17.291 18.9004 17.541L20.4004 20.541C20.5335 20.7909 20.5545 21.0455 20.4629 21.3037C20.3712 21.5618 20.2 21.7573 19.9502 21.8906C19.7002 22.024 19.4458 22.0448 19.1875 21.9531C18.9292 21.8615 18.7329 21.6904 18.5996 21.4404L17.0996 18.4404C16.9666 18.1907 16.9457 17.9367 17.0371 17.6787C17.1288 17.4204 17.2999 17.2242 17.5498 17.0908Z" fill="black"/>
<path fill-rule="evenodd" clip-rule="evenodd" d="M12 1.99023C13.5 1.99023 14.8038 2.47038 15.9121 3.42871C17.0204 4.38701 17.6915 5.58236 17.9248 7.01562C19.0748 7.11562 20.0419 7.59047 20.8252 8.44043C21.6085 9.29043 22 10.3079 22 11.4912C21.9999 12.741 21.5624 13.8038 20.6875 14.6787C19.8125 15.5535 18.7499 15.9912 17.5 15.9912H7.5C5.98333 15.9912 4.6873 15.4529 3.6123 14.3779C2.53758 13.3031 2.00012 12.0076 2 10.4912C2 9.108 2.45849 7.89948 3.375 6.86621C4.29167 5.83288 5.42539 5.22435 6.77539 5.04102C7.30872 4.09102 8.03789 3.34538 8.96289 2.80371C9.88787 2.26207 10.9 1.99023 12 1.99023ZM12 3.99121C11.2 3.99121 10.4708 4.20731 9.8125 4.64062C9.15421 5.07393 8.65853 5.65736 8.3252 6.39062L8.0752 6.99121H7.4502C6.5002 7.02454 5.6877 7.37871 5.0127 8.05371C4.33779 8.72868 4 9.54128 4 10.4912C4.00011 11.4577 4.34217 12.2826 5.02539 12.9658C5.70868 13.649 6.53345 13.9912 7.5 13.9912H17.5C18.2 13.9912 18.7921 13.749 19.2754 13.2656C19.7584 12.7824 19.9999 12.1909 20 11.4912C20 10.7913 19.7586 10.1991 19.2754 9.71582C18.7921 9.23249 18.2 8.99121 17.5 8.99121H16V7.99121C16 6.89132 15.6084 5.9493 14.8252 5.16602C14.0419 4.38268 13.1 3.99121 12 3.99121Z" fill="black"/>
</svg>
