<svg width="24" height="24" viewBox="0 0 24 24" fill="none" xmlns="http://www.w3.org/2000/svg">
<path d="M18.998 16.4834C18.9976 17.1806 18.9958 17.766 18.9561 18.252C18.9101 18.814 18.8117 19.3311 18.5645 19.8164C18.181 20.5689 17.5689 21.181 16.8164 21.5645C16.3311 21.8117 15.814 21.9101 15.252 21.9561C14.7108 22.0003 14.0462 22 13.2412 22H10.7588C9.95383 22 9.28924 22.0003 8.74805 21.9561C8.18599 21.9101 7.6689 21.8117 7.18359 21.5645C6.43109 21.181 5.81902 20.5689 5.43555 19.8164C5.18827 19.3311 5.08987 18.814 5.04395 18.252C5.00435 17.7674 5.0014 17.1839 5.00098 16.4893C5.37193 16.6636 5.67815 16.8088 5.69336 16.8154C5.77176 16.8497 5.88186 16.8951 6.02344 16.9482C6.30769 17.0548 6.71971 17.1916 7.25781 17.3262C8.33467 17.5954 9.91598 17.8555 12 17.8555C14.084 17.8555 15.6653 17.5954 16.7422 17.3262C17.2803 17.1916 17.6923 17.0548 17.9766 16.9482C18.0413 16.9238 18.4997 16.7128 18.998 16.4834Z" fill="black"/>
<path d="M19 14.2803C18.3471 14.5829 17.3465 15.0488 17.2734 15.0762C17.0577 15.157 16.7192 15.2704 16.2578 15.3857C15.3347 15.6165 13.9158 15.8555 12 15.8555C10.0843 15.8555 8.66532 15.6165 7.74219 15.3857C7.28081 15.2704 6.94228 15.157 6.72656 15.0762C6.61867 15.0357 6.54062 15.0028 6.49414 14.9824C6.46591 14.9696 5.5814 14.5528 5 14.2793V12.4893C5.37131 12.6637 5.67814 12.8088 5.69336 12.8154C5.77176 12.8497 5.88186 12.8951 6.02344 12.9482C6.30769 13.0548 6.71971 13.1916 7.25781 13.3262C8.33467 13.5954 9.91598 13.8555 12 13.8555C14.084 13.8555 15.6653 13.5954 16.7422 13.3262C17.2803 13.1916 17.6923 13.0548 17.9766 12.9482C18.0414 12.9238 18.5009 12.7122 19 12.4824V14.2803Z" fill="black"/>
<path d="M18.9932 8.62891C18.9991 8.97011 19 9.34598 19 9.75879V10.2803C18.3471 10.5829 17.3465 11.0488 17.2734 11.0762C17.0577 11.157 16.7192 11.2704 16.2578 11.3857C15.3347 11.6165 13.9158 11.8555 12 11.8555C10.0843 11.8555 8.66532 11.6165 7.74219 11.3857C7.28081 11.2704 6.94228 11.157 6.72656 11.0762C6.61867 11.0357 6.54062 11.0028 6.49414 10.9824C6.46591 10.9696 5.5814 10.5528 5 10.2793V9.75879C4.99999 9.34875 5.00002 8.97512 5.00586 8.63574C5.3745 8.80896 5.67822 8.95236 5.69336 8.95898C5.77176 8.99328 5.88186 9.03869 6.02344 9.0918C6.30769 9.19839 6.71971 9.3352 7.25781 9.46973C8.33467 9.73891 9.91598 9.99902 12 9.99902C14.084 9.99902 15.6653 9.73891 16.7422 9.46973C17.2803 9.3352 17.6923 9.19839 17.9766 9.0918C18.0411 9.06742 18.4967 8.85749 18.9932 8.62891Z" fill="black"/>
<path d="M13 2C13.6487 2 14.4072 2.16061 15.0195 2.67676C15.4564 3.04503 15.7527 3.53759 15.8975 4.12891C16.2179 4.19111 16.5235 4.2863 16.8164 4.43555C17.5689 4.81902 18.181 5.43109 18.5645 6.18359C18.6259 6.3041 18.6771 6.42717 18.7217 6.55176C18.0953 6.84191 17.3367 7.19599 17.2734 7.21973C17.0577 7.3006 16.7192 7.41394 16.2578 7.5293C15.3347 7.76008 13.9158 7.99902 12 7.99902C10.0843 7.99902 8.66532 7.76008 7.74219 7.5293C7.28081 7.41394 6.94228 7.3006 6.72656 7.21973C6.61867 7.17927 6.54062 7.14631 6.49414 7.12598C6.47012 7.11511 5.82607 6.81229 5.27637 6.55371C5.32108 6.42831 5.37376 6.30486 5.43555 6.18359C5.81902 5.43109 6.43109 4.81902 7.18359 4.43555C7.47651 4.2863 7.78211 4.19111 8.10254 4.12891C8.24729 3.53759 8.54363 3.04503 8.98047 2.67676C9.5928 2.16061 10.3513 2 11 2H13Z" fill="black"/>
</svg>
