<svg width="24" height="24" viewBox="0 0 24 24" fill="none" xmlns="http://www.w3.org/2000/svg">
<path d="M21.6318 17.0547C21.6038 17.1366 21.5755 17.2173 21.543 17.2959C20.934 18.7661 19.7661 19.934 18.2959 20.543C17.1933 20.9997 15.7956 21 13 21H11C8.20442 21 6.80672 20.9997 5.7041 20.543C4.23393 19.934 3.06599 18.7661 2.45703 17.2959C2.42635 17.2218 2.39779 17.1464 2.37109 17.0693C3.46687 17.369 4.48504 17.6427 4.83984 17.7246C6.53048 18.1148 8.41648 18.5 11.5 18.5C14.5834 18.5 16.991 18.1948 18.6816 17.8047C19.0738 17.7142 20.3409 17.3902 21.6318 17.0547Z" fill="black"/>
<path d="M2.04297 9.01172C4.45684 9.07115 8.0816 9.38735 11.8682 9.9834C12.824 10.1339 13.8928 10.302 15.1035 10.4883C17.711 10.8894 20.3803 10.6398 22 10.1426C22 10.6767 22 11.2865 22 12C22 13.1933 21.9965 14.1317 21.9609 14.9014C20.449 15.2968 18.6778 15.7537 18.2324 15.8564C16.6731 16.2163 14.3735 16.5 11.457 16.5C8.54059 16.5 6.84841 16.1352 5.28906 15.7754C4.87369 15.6795 3.39303 15.2782 2.03809 14.9043C2.00237 14.1341 2 13.1948 2 12C2 10.7614 2.00318 9.79742 2.04297 9.01172Z" fill="black"/>
<path d="M15.5 2.5C22 2.5 22 5.00024 22 6.7041C22 7.1264 22 7.53896 22 8C21.3845 8.36926 18.6245 9.0065 15.4082 8.51172C14.2331 8.33093 13.1848 8.16581 12.2383 8.0166C8.5585 7.43655 4.90129 7.09793 2.34277 7.01855C2.37754 6.91075 2.41483 6.806 2.45703 6.7041C3.68418 3.7415 9 2.5 15.5 2.5Z" fill="black"/>
</svg>
