<svg width="24" height="24" viewBox="0 0 24 24" fill="none" xmlns="http://www.w3.org/2000/svg">
<path d="M12.9766 1.02344C18.583 1.52875 22.9766 6.23858 22.9766 11.9766C22.9766 18.0517 18.0517 22.9766 11.9766 22.9766C5.90143 22.9766 0.976562 18.0517 0.976562 11.9766C0.976563 6.23858 5.37015 1.52875 10.9766 1.02344V13.5625L9.31934 11.9053C8.92878 11.5151 8.29568 11.5149 7.90527 11.9053C7.5152 12.2957 7.51522 12.9289 7.90527 13.3193L11.2695 16.6836C11.6599 17.074 12.2931 17.0738 12.6836 16.6836L16.0479 13.3193C16.4381 12.9288 16.4382 12.2957 16.0479 11.9053C15.6574 11.5149 15.0243 11.5151 14.6338 11.9053L12.9766 13.5625V1.02344Z" fill="black"/>
</svg>
