<svg width="24" height="24" viewBox="0 0 24 24" fill="none" xmlns="http://www.w3.org/2000/svg">
<path fill-rule="evenodd" clip-rule="evenodd" d="M19 2C19.55 2 20.0204 2.19622 20.4121 2.58789C20.8038 2.97956 21 3.45 21 4V20C21 20.55 20.8038 21.0204 20.4121 21.4121C20.0204 21.8038 19.55 22 19 22H5C4.45 22 3.97956 21.8038 3.58789 21.4121C3.19622 21.0204 3 20.55 3 20V4C3 3.45 3.19622 2.97956 3.58789 2.58789C3.97956 2.19622 4.45 2 5 2H19ZM7 18H9V16H7V18ZM11 18H13V16H11V18ZM15 18H17V16H15V18ZM7 15H9V13H7V15ZM11 15H13V13H11V15ZM15 15H17V13H15V15ZM7 12H9V10H7V12ZM11 12H13V10H11V12ZM15 12H17V10H15V12ZM5 6H19V4H5V6Z" fill="black"/>
</svg>
