<svg width="24" height="24" viewBox="0 0 24 24" fill="none" xmlns="http://www.w3.org/2000/svg">
<path fill-rule="evenodd" clip-rule="evenodd" d="M17 1C18.6569 1 20 2.34315 20 4V20C20 21.6569 18.6569 23 17 23H7C5.34315 23 4 21.6569 4 20V4C4 2.34315 5.34315 1 7 1H17ZM11.832 8.23438C11.721 7.9219 11.279 7.9219 11.168 8.23438L10.9795 8.76562C10.944 8.86549 10.8655 8.94397 10.7656 8.97949L10.2344 9.16797C9.9219 9.27905 9.9219 9.72095 10.2344 9.83203L10.7656 10.0205C10.8655 10.056 10.944 10.1345 10.9795 10.2344L11.168 10.7656C11.2791 11.0781 11.721 11.0781 11.832 10.7656L12.0205 10.2344C12.056 10.1345 12.1345 10.056 12.2344 10.0205L12.7656 9.83203C13.0781 9.72095 13.0781 9.27905 12.7656 9.16797L12.2344 8.97949C12.1345 8.94397 12.056 8.86549 12.0205 8.76562L11.832 8.23438ZM14.4434 5.3125C14.2953 4.89559 13.7047 4.89559 13.5566 5.3125L13.3066 6.02051C13.2593 6.15407 13.1541 6.25931 13.0205 6.30664L12.3125 6.55664C11.8956 6.70465 11.8956 7.29535 12.3125 7.44336L13.0205 7.69336C13.1541 7.74069 13.2593 7.84593 13.3066 7.97949L13.5566 8.6875C13.7047 9.10441 14.2953 9.10441 14.4434 8.6875L14.6934 7.97949C14.7407 7.84593 14.8459 7.74069 14.9795 7.69336L15.6875 7.44336C16.1044 7.29535 16.1044 6.70465 15.6875 6.55664L14.9795 6.30664C14.8459 6.25931 14.7407 6.15407 14.6934 6.02051L14.4434 5.3125Z" fill="black"/>
</svg>
