<svg width="24" height="24" viewBox="0 0 24 24" fill="none" xmlns="http://www.w3.org/2000/svg">
<path fill-rule="evenodd" clip-rule="evenodd" d="M16.1543 3.50391C17.7394 3.58421 19 4.89489 19 6.5V15.5H20V14.5C20 13.9477 20.4477 13.5 21 13.5C21.5523 13.5 22 13.9477 22 14.5V17.5H12.9639C12.7212 19.1961 11.2632 20.5 9.5 20.5C7.7368 20.5 6.27879 19.1961 6.03613 17.5H4C2.89543 17.5 2 16.6046 2 15.5V6.5C2 4.84315 3.34315 3.5 5 3.5H16L16.1543 3.50391ZM9.5 15.5C8.67157 15.5 8 16.1716 8 17C8 17.8284 8.67157 18.5 9.5 18.5C10.3284 18.5 11 17.8284 11 17C11 16.1716 10.3284 15.5 9.5 15.5Z" fill="black"/>
</svg>
