<svg width="24" height="24" viewBox="0 0 24 24" fill="none" xmlns="http://www.w3.org/2000/svg">
<path fill-rule="evenodd" clip-rule="evenodd" d="M16 4.49993C17.6569 4.49993 19 5.84307 19 7.49993V16.4999H20V15.4999C20 14.9476 20.4477 14.4999 21 14.4999C21.5523 14.4999 22 14.9476 22 15.4999V18.4999H12.9639C12.7212 20.196 11.2632 21.4999 9.5 21.4999C7.73683 21.4999 6.27882 20.196 6.03613 18.4999H4C2.89546 18.4999 2.00004 17.6045 2 16.4999V14.4999C2 14.3969 2.015 14.3318 2.04395 14.2948C2.12225 14.121 2.29695 13.9999 2.5 13.9999H12C12.5523 13.9999 13 13.5522 13 12.9999V4.99993C13 4.79225 13.1264 4.61356 13.3066 4.53801C13.3448 4.51384 13.4062 4.49993 13.5 4.49993H16ZM9.5 16.4999C8.67157 16.4999 8 17.1715 8 17.9999C8.00004 18.8283 8.6716 19.4999 9.5 19.4999C10.3284 19.4999 11 18.8283 11 17.9999C11 17.1715 10.3284 16.4999 9.5 16.4999Z" fill="black"/>
<path d="M9.29297 2.79289C9.68349 2.40237 10.3165 2.40237 10.707 2.79289C11.0973 3.18344 11.0975 3.81652 10.707 4.20696L7.91406 6.99993L10.707 9.79289C11.0973 10.1834 11.0975 10.8165 10.707 11.207C10.3166 11.5973 9.68348 11.5972 9.29297 11.207L6.5 8.41399L3.70703 11.207C3.31659 11.5973 2.68349 11.5972 2.29297 11.207C1.90247 10.8165 1.90253 10.1834 2.29297 9.79289L5.08594 6.99993L2.29297 4.20696C1.90248 3.81647 1.90255 3.18343 2.29297 2.79289C2.68349 2.40237 3.31651 2.40237 3.70703 2.79289L6.5 5.58586L9.29297 2.79289Z" fill="black"/>
</svg>
