<svg width="24" height="24" viewBox="0 0 24 24" fill="none" xmlns="http://www.w3.org/2000/svg">
<path fill-rule="evenodd" clip-rule="evenodd" d="M21.1025 5.00488C21.6067 5.05621 22 5.48232 22 6V16.4648L21.9922 16.5889C21.956 16.8741 21.795 17.1274 21.5332 17.2578C20.4479 17.7983 17.4254 19 12 19C6.91425 19 3.93978 17.9446 2.69336 17.3672L2.4668 17.2578C2.205 17.1274 2.04398 16.8741 2.00781 16.5889L2 16.4648V6C2 5.44772 2.44772 5 3 5H21L21.1025 5.00488ZM7 11C7 11.5523 7.44772 12 8 12H16C16.5523 12 17 11.5523 17 11V7H7V11Z" fill="black"/>
</svg>
