<svg width="24" height="24" viewBox="0 0 24 24" fill="none" xmlns="http://www.w3.org/2000/svg">
<path fill-rule="evenodd" clip-rule="evenodd" d="M20 2C21.1 2 22 2.9 22 4V20C22 21.1 21.1 22 20 22H4C2.9 22 2 21.1 2 20V4C2 2.9 2.9 2 4 2H20ZM9.0498 16.0098C9.6798 16.4798 10.43 16.7999 11.25 16.9199V13.8096L9.0498 16.0098ZM12.75 16.9199C13.57 16.7999 14.3202 16.4798 14.9502 16.0098L12.75 13.8096V16.9199ZM7.08008 12.75C7.20008 13.57 7.52024 14.3202 7.99023 14.9502L10.1904 12.75H7.08008ZM16.0098 14.9502C16.4798 14.3202 16.7999 13.57 16.9199 12.75H13.8096L16.0098 14.9502ZM12 11C11.45 11 11 11.45 11 12C11 12.55 11.45 13 12 13C12.55 13 13 12.55 13 12C13 11.45 12.55 11 12 11ZM7.99023 9.0498C7.52024 9.6798 7.20008 10.43 7.08008 11.25H10.1904L7.99023 9.0498ZM13.8096 11.25H16.9199C16.7999 10.44 16.4798 9.6898 16.0098 9.0498L13.8096 11.25ZM11.25 7.08008C10.43 7.20008 9.6798 7.52024 9.0498 7.99023L11.25 10.1904V7.08008ZM12.75 10.1904L14.9502 7.99023C14.3202 7.52024 13.57 7.20008 12.75 7.08008V10.1904Z" fill="black"/>
</svg>
