<svg width="24" height="24" viewBox="0 0 24 24" fill="none" xmlns="http://www.w3.org/2000/svg">
<path d="M17.168 4.44532C17.4743 3.98593 18.0952 3.86173 18.5547 4.16798L18 5.00001C18.5202 4.21968 18.5532 4.17168 18.5557 4.16895L18.5586 4.17091C18.5586 4.17091 18.5618 4.17269 18.5635 4.17384C18.5672 4.17635 18.572 4.18006 18.5771 4.1836C18.5874 4.19068 18.6006 4.1998 18.6162 4.21095C18.6477 4.23351 18.6902 4.26425 18.7412 4.30372C18.8433 4.38273 18.9819 4.49641 19.1445 4.64552C19.4696 4.9435 19.8949 5.38682 20.3174 5.98536C21.1673 7.18935 22 9.01263 22 11.5C22 13.9874 21.1673 15.8106 20.3174 17.0147C19.8949 17.6132 19.4696 18.0565 19.1445 18.3545C18.9819 18.5036 18.8433 18.6173 18.7412 18.6963C18.6902 18.7358 18.6477 18.7665 18.6162 18.7891C18.6007 18.8002 18.5874 18.8093 18.5771 18.8164C18.572 18.82 18.5662 18.8237 18.5625 18.8262L18.5596 18.8291L18.4668 18.8848C18.4563 18.8903 18.4451 18.8943 18.4346 18.8994C18.3885 18.9217 18.3407 18.941 18.291 18.9561C18.2678 18.9631 18.2442 18.9683 18.2207 18.9736C18.2125 18.9755 18.2045 18.9779 18.1963 18.9795C18.1781 18.9831 18.1599 18.9857 18.1416 18.9883C18.126 18.9905 18.1105 18.9936 18.0947 18.9951C18.0729 18.9972 18.0511 18.9974 18.0293 18.9981C18.0196 18.9983 18.0098 19 18 19H17.9131C17.707 19.5823 17.1529 20 16.5 20C15.8471 20 15.293 19.5823 15.0869 19H13.4131C13.207 19.5823 12.6529 20 12 20C11.3471 20 10.793 19.5823 10.5869 19H8.91309C8.707 19.5823 8.15288 20 7.5 20C6.84712 20 6.293 19.5823 6.08691 19H6C5.99019 19 5.98045 18.9983 5.9707 18.9981C5.94857 18.9974 5.92642 18.9972 5.9043 18.9951C5.8885 18.9936 5.873 18.9905 5.85742 18.9883C5.83916 18.9857 5.8209 18.9832 5.80273 18.9795C5.79451 18.9779 5.78647 18.9755 5.77832 18.9736C5.75482 18.9683 5.73123 18.9632 5.70801 18.9561C5.65833 18.9409 5.61051 18.9218 5.56445 18.8994C5.55414 18.8944 5.5434 18.8902 5.5332 18.8848L5.44043 18.8291L5.43652 18.8262C5.43281 18.8237 5.42797 18.82 5.42285 18.8164C5.4126 18.8093 5.39934 18.8002 5.38379 18.7891C5.3523 18.7665 5.30979 18.7358 5.25879 18.6963C5.15669 18.6173 5.01813 18.5036 4.85547 18.3545C4.53039 18.0565 4.10513 17.6132 3.68262 17.0147C2.83275 15.8106 2 13.9874 2 11.5C2.00004 9.01263 2.83274 7.18935 3.68262 5.98536C4.10514 5.38682 4.5304 4.9435 4.85547 4.64552C5.01814 4.49641 5.1567 4.38273 5.25879 4.30372C5.3098 4.26425 5.35231 4.23351 5.38379 4.21095C5.39935 4.1998 5.41261 4.19068 5.42285 4.1836C5.42797 4.18006 5.43282 4.17635 5.43652 4.17384C5.43823 4.17269 5.44141 4.17091 5.44141 4.17091L5.44336 4.16895C5.44577 4.17168 5.47978 4.21968 6 5.00001L5.44531 4.16798C5.90479 3.86173 6.52567 3.98593 6.83203 4.44532C7.13771 4.90385 7.01468 5.52303 6.55762 5.83009L6.54883 5.83595C6.53642 5.84484 6.51421 5.86191 6.4834 5.88575C6.42148 5.93366 6.32544 6.01159 6.20703 6.12013C5.96967 6.33772 5.64475 6.67591 5.31738 7.13966C4.66733 8.06061 4.00004 9.48767 4 11.5C4 13.5124 4.66734 14.9394 5.31738 15.8604C5.64474 16.3241 5.96965 16.6623 6.20703 16.8799C6.25785 16.9265 6.307 16.9647 6.34863 17H17.6514C17.693 16.9647 17.7422 16.9265 17.793 16.8799C18.0303 16.6623 18.3553 16.3241 18.6826 15.8604C19.3327 14.9394 20 13.5124 20 11.5C20 9.48767 19.3327 8.06061 18.6826 7.13966C18.3552 6.67591 18.0303 6.33772 17.793 6.12013C17.6746 6.01159 17.5785 5.93366 17.5166 5.88575C17.4858 5.86191 17.4636 5.84484 17.4512 5.83595L17.4424 5.83009C16.9853 5.52303 16.8623 4.90385 17.168 4.44532Z" fill="black"/>
<path d="M12 12C12.5523 12 12.9999 12.4478 13 13C12.9999 13.5522 12.5522 14 12 14C11.4478 14 11.0001 13.5522 11 13C11.0001 12.4478 11.4477 12 12 12Z" fill="black"/>
<path d="M12 5.00001C12.5523 5.00001 12.9999 5.44777 13 6.00001V9.00001C12.9999 9.55223 12.5522 10 12 10C11.4478 10 11.0001 9.55223 11 9.00001V6.00001C11.0001 5.44777 11.4477 5.00001 12 5.00001Z" fill="black"/>
</svg>
