<svg width="24" height="24" viewBox="0 0 24 24" fill="none" xmlns="http://www.w3.org/2000/svg">
<path fill-rule="evenodd" clip-rule="evenodd" d="M13.4004 2C14.2502 2.00008 14.8963 2.25444 15.3379 2.7627C15.7793 3.27085 15.9999 3.84156 16 4.47461C16 4.90789 15.9045 5.33338 15.7129 5.75C15.5212 6.16667 15.2252 6.50872 14.8252 6.77539C14.4586 7.00869 14.1625 7.30822 13.9375 7.6748C13.7126 8.04138 13.558 8.43305 13.4746 8.84961L13.7754 9C13.8752 9.04992 13.9666 9.10828 14.0498 9.1748L16.3496 8.3252C16.6328 8.22525 16.9039 8.14621 17.1621 8.08789C17.4203 8.02958 17.6914 8.00003 17.9746 8C19.3246 8 20.3333 8.55823 21 9.6748C21.6667 10.7915 22 12.0337 22 13.4004C21.9999 14.2502 21.7334 14.8963 21.2002 15.3379C20.6669 15.7795 20.0748 16 19.4248 16C19.0084 16 18.6043 15.9044 18.2129 15.7129C17.8212 15.5212 17.4913 15.2252 17.2246 14.8252C16.9913 14.4586 16.6918 14.1625 16.3252 13.9375C15.9586 13.7126 15.5669 13.558 15.1504 13.4746L15 13.7754C14.9501 13.8752 14.8917 13.9666 14.8252 14.0498L15.6504 16.3496C15.7504 16.6162 15.8337 16.8707 15.9004 17.1123C15.9671 17.354 16 17.6083 16 17.875C16.0167 18.9583 15.5669 19.9167 14.6504 20.75C13.7337 21.5833 12.3829 22 10.5996 22C9.7498 21.9999 9.10371 21.7456 8.66211 21.2373C8.22062 20.729 8 20.1499 8 19.5C8 19.0667 8.09544 18.6456 8.28711 18.2373C8.47878 17.829 8.77481 17.4913 9.1748 17.2246C9.54141 16.9913 9.83752 16.6918 10.0625 16.3252C10.2874 15.9586 10.442 15.5669 10.5254 15.1504L10.2246 15C10.1248 14.9501 10.0334 14.8917 9.9502 14.8252L7.65039 15.6504C7.36709 15.7504 7.09183 15.8337 6.8252 15.9004C6.55853 15.9671 6.28333 16 6 16C4.95007 16 4.02118 15.5415 3.21289 14.625C2.40456 13.7083 2 12.3663 2 10.5996C2.00008 9.7498 2.25444 9.10371 2.7627 8.66211C3.27085 8.22071 3.84156 8.00009 4.47461 8C4.90789 8 5.33338 8.09549 5.75 8.28711C6.16667 8.47878 6.50872 8.7748 6.77539 9.1748C7.00869 9.54141 7.30822 9.83752 7.6748 10.0625C8.04138 10.2874 8.43305 10.442 8.84961 10.5254L9 10.2246C9.04992 10.1248 9.10828 10.0334 9.1748 9.9502L8.34961 7.65039C8.24962 7.36709 8.16627 7.09183 8.09961 6.8252C8.03298 6.55866 8.00003 6.29193 8 6.02539C8 4.9588 8.45846 4.02119 9.375 3.21289C10.2917 2.40456 11.6337 2 13.4004 2ZM12 10.5C11.5833 10.5 11.2292 10.6458 10.9375 10.9375C10.6458 11.2292 10.5 11.5833 10.5 12C10.5 12.4167 10.6458 12.7708 10.9375 13.0625C11.2292 13.3542 11.5833 13.5 12 13.5C12.4167 13.5 12.7708 13.3542 13.0625 13.0625C13.3542 12.7708 13.5 12.4167 13.5 12C13.5 11.5833 13.3542 11.2292 13.0625 10.9375C12.7708 10.6458 12.4167 10.5 12 10.5Z" fill="black"/>
</svg>
