<svg width="24" height="24" viewBox="0 0 24 24" fill="none" xmlns="http://www.w3.org/2000/svg">
<path d="M17.2239 2.00013C17.7763 1.44787 18.6779 1.44501 19.178 2.04505C23.9757 7.80159 23.9755 16.2065 19.178 21.9552C18.6775 22.5549 17.7762 22.5514 17.2239 21.9992C16.6718 21.4469 16.6791 20.5559 17.1672 19.9464C20.8792 15.3132 20.8794 8.68501 17.1672 4.05189C16.6792 3.44261 16.6719 2.55213 17.2239 2.00013Z" fill="black"/>
<path d="M5.72388 4.99915C5.72388 4.99915 10.2237 11.4654 10.2239 14.4747C10.2236 16.9634 8.19873 18.9992 5.72388 18.9992C3.24902 18.9992 1.22412 16.9634 1.22388 14.4747C1.22404 11.4654 5.72388 4.99915 5.72388 4.99915Z" fill="black"/>
<path d="M13.2229 6.00013C13.7752 5.44778 14.6815 5.44329 15.1497 6.06849C17.775 9.57637 17.7755 14.4304 15.1506 17.9318C14.6821 18.5567 13.7762 18.5514 13.2239 17.9992C12.6719 17.4469 12.6866 16.5579 13.1184 15.9074C14.6856 13.5473 14.6859 10.4508 13.1184 8.09095C12.6866 7.44083 12.6711 6.55205 13.2229 6.00013Z" fill="black"/>
</svg>
