<svg width="24" height="24" viewBox="0 0 24 24" fill="none" xmlns="http://www.w3.org/2000/svg">
<path fill-rule="evenodd" clip-rule="evenodd" d="M19 3C19.55 3 20.0204 3.19622 20.4121 3.58789C20.8038 3.97956 21 4.45 21 5V19C21 19.55 20.8038 20.0204 20.4121 20.4121C20.0204 20.8038 19.55 21 19 21H5C4.45 21 3.97956 20.8038 3.58789 20.4121C3.19622 20.0204 3 19.55 3 19V5C3 4.45 3.19622 3.97956 3.58789 3.58789C3.97956 3.19622 4.45 3 5 3H19ZM8 15C7.71667 15 7.47878 15.0954 7.28711 15.2871C7.09544 15.4788 7 15.7167 7 16C7 16.2833 7.09544 16.5212 7.28711 16.7129C7.47878 16.9046 7.71667 17 8 17H11C11.2833 17 11.5212 16.9046 11.7129 16.7129C11.9046 16.5212 12 16.2833 12 16C12 15.7167 11.9046 15.4788 11.7129 15.2871C11.5212 15.0954 11.2833 15 11 15H8ZM8 11C8 11.5523 8.44772 12 9 12H15C15.5523 12 16 11.5523 16 11V5H8V11Z" fill="black"/>
</svg>
