<svg width="24" height="24" viewBox="0 0 24 24" fill="none" xmlns="http://www.w3.org/2000/svg">
<path fill-rule="evenodd" clip-rule="evenodd" d="M20 2C21.1046 2 22 2.89543 22 4V20C22 21.1046 21.1046 22 20 22H4C2.89543 22 2 21.1046 2 20V4C2 2.89543 2.89543 2 4 2H20ZM6.70703 5.29297C6.31651 4.90244 5.68349 4.90244 5.29297 5.29297C4.90258 5.6835 4.90249 6.31655 5.29297 6.70703L5.7207 7.13477C6.91521 8.32945 7.15399 10.1794 6.30273 11.6387C5.0904 13.7174 5.30906 16.333 6.84961 18.1816L7.23145 18.6406C7.58499 19.0647 8.21639 19.122 8.64062 18.7686C9.0648 18.415 9.12206 17.7836 8.76855 17.3594L8.38574 16.9014C7.38405 15.6992 7.24205 13.9982 8.03027 12.6465C9.33932 10.4024 8.9717 7.55782 7.13477 5.7207L6.70703 5.29297ZM11.707 5.29297C11.3165 4.90244 10.6835 4.90244 10.293 5.29297C9.90258 5.6835 9.90249 6.31655 10.293 6.70703L10.7432 7.15723C11.8885 8.3026 12.0665 10.0976 11.168 11.4453C9.74076 13.5863 10.0233 16.4374 11.8428 18.2568L12.293 18.707C12.6835 19.0975 13.3165 19.0974 13.707 18.707C14.0975 18.3165 14.0975 17.6835 13.707 17.293L13.2568 16.8428C12.1115 15.6975 11.9337 13.9024 12.832 12.5547C14.2594 10.4137 13.9767 7.56266 12.1572 5.74316L11.707 5.29297ZM16.707 5.29297C16.3165 4.90244 15.6835 4.90244 15.293 5.29297C14.9026 5.6835 14.9025 6.31655 15.293 6.70703L15.7432 7.15723C16.8885 8.3026 17.0665 10.0976 16.168 11.4453C14.7408 13.5863 15.0233 16.4374 16.8428 18.2568L17.293 18.707C17.6835 19.0975 18.3165 19.0974 18.707 18.707C19.0975 18.3165 19.0975 17.6835 18.707 17.293L18.2568 16.8428C17.1115 15.6975 16.9337 13.9024 17.832 12.5547C19.2594 10.4137 18.9767 7.56266 17.1572 5.74316L16.707 5.29297Z" fill="black"/>
</svg>
