<svg width="24" height="24" viewBox="0 0 24 24" fill="none" xmlns="http://www.w3.org/2000/svg">
<path d="M8.88477 3.5C10.4102 3.50006 11.7079 4.03527 12.7783 5.10547C13.8488 6.17597 14.3848 7.47433 14.3848 9C14.3848 9.46033 14.3383 9.88401 14.2461 10.2705C14.1538 10.6568 14.0156 11.0231 13.8311 11.3691L19.6504 17.1768C20.0055 17.5317 20.1826 17.9639 20.1826 18.4717C20.1825 18.9791 20.0054 19.4106 19.6504 19.7656C19.2952 20.1206 18.8631 20.2979 18.3555 20.2979C17.848 20.2978 17.4166 20.1186 17.0615 19.7598L11.2539 13.9463C10.8823 14.1179 10.5029 14.2527 10.1162 14.3516C9.72978 14.4502 9.31934 14.5 8.88477 14.5C7.35927 14.5 6.06073 13.965 4.99023 12.8945C3.91957 11.824 3.38477 10.5257 3.38477 9C3.38477 8.78214 3.39987 8.5611 3.43066 8.33691C3.46149 8.1126 3.5052 7.89488 3.56152 7.68457C3.60636 7.54357 3.67555 7.44095 3.76855 7.37695C3.86151 7.31286 3.97049 7.26378 4.09473 7.23047C4.21889 7.19727 4.34126 7.19811 4.46094 7.2334C4.58082 7.26858 4.68845 7.33395 4.7832 7.42871L7.48438 10.0918L9.97656 7.59961L7.33301 4.93652C7.23817 4.84169 7.17303 4.73083 7.1377 4.60449C7.10242 4.47839 7.10145 4.35295 7.13477 4.22852C7.16805 4.10449 7.21959 3.99599 7.29004 3.90332C7.36054 3.81032 7.4607 3.74112 7.58887 3.69629C7.79886 3.62703 8.01266 3.57655 8.23047 3.5459C8.44847 3.51507 8.66693 3.5 8.88477 3.5Z" fill="black"/>
</svg>
