<svg width="24" height="24" viewBox="0 0 24 24" fill="none" xmlns="http://www.w3.org/2000/svg">
<path d="M12.2312 1.35965C12.5154 1.01864 12.991 0.905588 13.3982 1.08231C13.8055 1.25908 14.047 1.6838 13.992 2.1243L13.1326 9.00028H19.3279C19.5688 9.00023 19.8131 8.99981 20.0125 9.01786C20.2011 9.03494 20.5618 9.08049 20.8748 9.33329C21.2334 9.62305 21.4394 10.0618 21.4324 10.5227C21.4263 10.9253 21.2295 11.2322 21.1219 11.388C21.0081 11.5526 20.8522 11.7401 20.698 11.9251L11.7684 22.6399C11.4842 22.981 11.0086 23.094 10.6014 22.9173C10.1944 22.7404 9.95269 22.3165 10.0076 21.8763L10.867 15.0003H4.67265C4.43181 15.0003 4.18743 14.9997 3.98808 14.9817C3.79947 14.9646 3.43801 14.9194 3.1248 14.6663C2.76641 14.3766 2.56036 13.9386 2.56718 13.4778C2.57325 13.0752 2.77009 12.7684 2.87773 12.6126C2.99152 12.4478 3.14823 12.2606 3.30253 12.0755L12.2312 1.35965Z" fill="black"/>
</svg>
