<svg width="24" height="24" viewBox="0 0 24 24" fill="none" xmlns="http://www.w3.org/2000/svg">
<path d="M11 22.9999H2L2.88965 18.9999H11V22.9999Z" fill="black"/>
<path d="M22 22.9999H13V18.9999H21.1104L22 22.9999Z" fill="black"/>
<path d="M11 16.9999H3.33008L4 13.9999H11V16.9999Z" fill="black"/>
<path d="M20.6699 16.9999H13V13.9999H20L20.6699 16.9999Z" fill="black"/>
<path d="M7.29297 1.29289C7.68349 0.902369 8.31651 0.902369 8.70703 1.29289C9.59648 2.18241 9.8705 3.51654 9.40332 4.68449L8.4541 7.05852C8.28426 7.48359 8.38334 7.9692 8.70703 8.29289C9.09746 8.68342 9.09752 9.31646 8.70703 9.70696C8.31652 10.0972 7.68343 10.0973 7.29297 9.70696C6.40353 8.81751 6.12966 7.48328 6.59668 6.31535L7.5459 3.94133C7.7159 3.51623 7.61667 3.03073 7.29297 2.70696C6.90252 2.31651 6.90267 1.68344 7.29297 1.29289Z" fill="black"/>
<path d="M11.293 1.29289C11.6835 0.902369 12.3165 0.902369 12.707 1.29289C13.5965 2.18241 13.8705 3.51654 13.4033 4.68449L12.4541 7.05852C12.2843 7.48359 12.3833 7.9692 12.707 8.29289C13.0975 8.68342 13.0975 9.31646 12.707 9.70696C12.3165 10.0972 11.6834 10.0973 11.293 9.70696C10.4035 8.81751 10.1297 7.48328 10.5967 6.31535L11.5459 3.94133C11.7159 3.51623 11.6167 3.03073 11.293 2.70696C10.9025 2.31651 10.9027 1.68344 11.293 1.29289Z" fill="black"/>
<path d="M15.293 1.29289C15.6835 0.902369 16.3165 0.902369 16.707 1.29289C17.5965 2.18241 17.8705 3.51654 17.4033 4.68449L16.4541 7.05852C16.2843 7.48359 16.3833 7.9692 16.707 8.29289C17.0975 8.68342 17.0975 9.31646 16.707 9.70696C16.3165 10.0972 15.6834 10.0973 15.293 9.70696C14.4035 8.81751 14.1297 7.48328 14.5967 6.31535L15.5459 3.94133C15.7159 3.51623 15.6167 3.03073 15.293 2.70696C14.9025 2.31651 14.9027 1.68344 15.293 1.29289Z" fill="black"/>
</svg>
