<svg width="24" height="24" viewBox="0 0 24 24" fill="none" xmlns="http://www.w3.org/2000/svg">
<path fill-rule="evenodd" clip-rule="evenodd" d="M9 3C9.55 3 10.0204 3.19622 10.4121 3.58789C10.8038 3.97956 11 4.45 11 5V13.25H12.25C13.9069 13.25 15.25 14.5931 15.25 16.25V18.125C15.25 18.6082 15.6418 19 16.125 19C16.6082 19 17 18.6082 17 18.125V11.8252C16.6869 11.936 16.3511 12 16 12C14.3431 12 13 10.6569 13 9C13 7.69153 13.8385 6.58103 15.0068 6.1709L13.293 4.45703L14.707 3.04297L18.1211 6.45703C18.6836 7.01957 18.9999 7.78259 19 8.57812V18.125C19 19.7128 17.7128 21 16.125 21C14.5372 21 13.25 19.7128 13.25 18.125V16.25C13.25 15.6977 12.8023 15.25 12.25 15.25H11V21H1V5C1 4.45 1.19622 3.97956 1.58789 3.58789C1.97956 3.19622 2.45 3 3 3H9ZM3 10H9V5H3V10ZM16 8C15.4477 8 15 8.44772 15 9C15 9.55228 15.4477 10 16 10C16.5523 10 17 9.55228 17 9C17 8.44772 16.5523 8 16 8Z" fill="black"/>
<path d="M22 9C22.2833 9 22.5212 9.09544 22.7129 9.28711C22.9046 9.47878 23 9.71667 23 10C23 10.2833 22.9046 10.5212 22.7129 10.7129C22.5212 10.9046 22.2833 11 22 11C21.7167 11 21.4788 10.9046 21.2871 10.7129C21.0954 10.5212 21 10.2833 21 10C21 9.71667 21.0954 9.47878 21.2871 9.28711C21.4788 9.09544 21.7167 9 22 9Z" fill="black"/>
<path d="M22 3C22.2833 3 22.5212 3.09544 22.7129 3.28711C22.9046 3.47878 23 3.71667 23 4V7C23 7.28333 22.9046 7.52122 22.7129 7.71289C22.5212 7.90456 22.2833 8 22 8C21.7167 8 21.4788 7.90456 21.2871 7.71289C21.0954 7.52122 21 7.28333 21 7V4C21 3.71667 21.0954 3.47878 21.2871 3.28711C21.4788 3.09544 21.7167 3 22 3Z" fill="black"/>
</svg>
