<svg width="24" height="24" viewBox="0 0 24 24" fill="none" xmlns="http://www.w3.org/2000/svg">
<path d="M4.84668 3.80112C5.29564 3.41651 5.96978 3.56862 6.26562 4.08041C6.52421 4.52798 6.39846 5.09477 6.0127 5.43881C4.16475 7.08673 3.00013 9.48479 3 12.1556C3.0001 14.6766 4.03764 16.9546 5.70801 18.5882C6.06545 18.9378 6.17296 19.4844 5.92285 19.9173C5.61712 20.4462 4.91292 20.5886 4.46777 20.1703C2.33355 18.1641 1.00011 15.3158 1 12.1556C1.00013 8.81237 2.49248 5.81817 4.84668 3.80112Z" fill="black"/>
<path d="M17.7334 4.08041C18.0289 3.5688 18.7016 3.41685 19.1504 3.80112C21.5057 5.81804 22.9999 8.81153 23 12.1556C22.9999 15.3163 21.6653 18.1642 19.5303 20.1703C19.0852 20.5884 18.3818 20.4459 18.0762 19.9173C17.8264 19.4846 17.9337 18.9375 18.291 18.5882C19.9618 16.9547 20.9999 14.6768 21 12.1556C20.9999 9.48407 19.8351 7.08485 17.9863 5.43686C17.6008 5.09316 17.4751 4.5277 17.7334 4.08041Z" fill="black"/>
<path fill-rule="evenodd" clip-rule="evenodd" d="M12 4.15561C16.4182 4.15561 19.9999 7.73738 20 12.1556C19.9999 16.5738 16.4182 20.1556 12 20.1556C7.58177 20.1556 4.00007 16.5738 4 12.1556C4.00005 7.73738 7.58176 4.15561 12 4.15561ZM12 14.1556C11.4478 14.1556 11.0001 14.6034 11 15.1556C11.0001 15.7078 11.4478 16.1556 12 16.1556C12.5522 16.1556 12.9999 15.7078 13 15.1556C12.9999 14.6034 12.5522 14.1556 12 14.1556ZM12 8.15561C11.4478 8.15561 11.0001 8.60342 11 9.15561V12.1556C11.0001 12.7078 11.4478 13.1556 12 13.1556C12.5522 13.1556 12.9999 12.7078 13 12.1556V9.15561C12.9999 8.60342 12.5522 8.15561 12 8.15561Z" fill="black"/>
</svg>
