<svg width="24" height="24" viewBox="0 0 24 24" fill="none" xmlns="http://www.w3.org/2000/svg">
<path d="M11.5874 4.42578C11.7207 4.42578 11.8457 4.44661 11.9624 4.48828C12.079 4.52994 12.1876 4.60023 12.2876 4.7002L18.8872 11.3008C19.0705 11.4841 19.1626 11.7133 19.1626 11.9883C19.1625 12.2631 19.0704 12.5003 18.8872 12.7002C18.6873 12.9001 18.4501 12.9999 18.1753 13C17.9003 13 17.6624 12.9002 17.4624 12.7002L12.5874 7.8252V19C12.5874 19.2833 12.4919 19.5212 12.3003 19.7129C12.1086 19.9046 11.8707 20 11.5874 20C11.3042 20 11.0671 19.9044 10.8755 19.7129C10.6838 19.5212 10.5874 19.2833 10.5874 19V7.8252L5.68799 12.7256C5.48806 12.9255 5.25435 13.021 4.98779 13.0127C4.72113 13.0044 4.4876 12.9002 4.2876 12.7002C4.1043 12.5002 4.00882 12.2666 4.00049 12C3.99225 11.7336 4.0878 11.5007 4.2876 11.3008L10.8872 4.7002C10.9871 4.60026 11.0958 4.52996 11.2124 4.48828C11.329 4.44663 11.4541 4.42579 11.5874 4.42578Z" fill="black"/>
</svg>
