<svg width="24" height="24" viewBox="0 0 24 24" fill="none" xmlns="http://www.w3.org/2000/svg">
<path d="M11.5874 4.42578C11.8707 4.42578 12.1086 4.52123 12.3003 4.71289C12.4919 4.90453 12.5874 5.14251 12.5874 5.42578V16.6006L17.4624 11.7256C17.6624 11.5256 17.9003 11.4258 18.1753 11.4258C18.4501 11.4258 18.6873 11.5257 18.8872 11.7256C19.0704 11.9255 19.1625 12.1627 19.1626 12.4375C19.1626 12.7125 19.0705 12.9417 18.8872 13.125L12.2876 19.7256C12.1876 19.8256 12.079 19.8958 11.9624 19.9375C11.8457 19.9792 11.7207 20 11.5874 20C11.4541 20 11.329 19.9792 11.2124 19.9375C11.0958 19.8958 10.9871 19.8255 10.8872 19.7256L4.2876 13.125C4.0878 12.9251 3.99225 12.6922 4.00049 12.4258C4.00882 12.1591 4.1043 11.9256 4.2876 11.7256C4.4876 11.5256 4.72113 11.4214 4.98779 11.4131C5.25435 11.4048 5.48806 11.5003 5.68799 11.7002L10.5874 16.6006V5.42578C10.5874 5.14245 10.6838 4.90456 10.8755 4.71289C11.0671 4.52142 11.3042 4.42581 11.5874 4.42578Z" fill="black"/>
</svg>
