<svg width="24" height="24" viewBox="0 0 24 24" fill="none" xmlns="http://www.w3.org/2000/svg">
<path d="M15.0752 10.0127C15.3418 10.0211 15.5754 10.1165 15.7754 10.2998C15.9753 10.4998 16.0796 10.7334 16.0879 11C16.0962 11.2667 15.9998 11.5002 15.7998 11.7002L12.7002 14.7998C12.5002 14.9998 12.2667 15.0996 12 15.0996C11.7333 15.0996 11.4998 14.9998 11.2998 14.7998L8.22461 11.7246C8.02492 11.5247 7.92485 11.2874 7.9248 11.0127C7.9248 10.7377 8.02467 10.4998 8.22461 10.2998C8.42461 10.1165 8.6625 10.0254 8.9375 10.0254C9.21245 10.0254 9.44168 10.1165 9.625 10.2998L12 12.6748L14.375 10.2998C14.575 10.0999 14.8086 10.0044 15.0752 10.0127Z" fill="black"/>
<path fill-rule="evenodd" clip-rule="evenodd" d="M12 2C13.3833 2 14.6837 2.26211 15.9004 2.78711C17.117 3.3121 18.1752 4.02485 19.0752 4.9248C19.9751 5.82476 20.6879 6.88302 21.2129 8.09961C21.7379 9.31628 22 10.6167 22 12C22 13.3833 21.7379 14.6837 21.2129 15.9004C20.6879 17.117 19.9751 18.1752 19.0752 19.0752C18.1752 19.9751 17.117 20.6879 15.9004 21.2129C14.6837 21.7379 13.3833 22 12 22C10.6167 22 9.31628 21.7379 8.09961 21.2129C6.88302 20.6879 5.82476 19.9751 4.9248 19.0752C4.02485 18.1752 3.3121 17.117 2.78711 15.9004C2.26211 14.6837 2 13.3833 2 12C2 10.6167 2.26211 9.31628 2.78711 8.09961C3.3121 6.88302 4.02485 5.82476 4.9248 4.9248C5.82476 4.02485 6.88302 3.3121 8.09961 2.78711C9.31628 2.26211 10.6167 2 12 2ZM12 4C9.76667 4 7.8752 4.7752 6.3252 6.3252C4.7752 7.8752 4 9.76667 4 12C4 14.2333 4.7752 16.1248 6.3252 17.6748C7.8752 19.2248 9.76667 20 12 20C14.2333 20 16.1248 19.2248 17.6748 17.6748C19.2248 16.1248 20 14.2333 20 12C20 9.76667 19.2248 7.8752 17.6748 6.3252C16.1248 4.7752 14.2333 4 12 4Z" fill="black"/>
</svg>
