<svg width="24" height="24" viewBox="0 0 24 24" fill="none" xmlns="http://www.w3.org/2000/svg">
<path d="M11.9932 11.7188C12.1264 11.7188 12.2516 11.7396 12.3682 11.7812C12.4847 11.8229 12.5934 11.8933 12.6934 11.9932L17.2939 16.5938C17.4771 16.777 17.5727 17.0064 17.5811 17.2812C17.5893 17.556 17.4936 17.7933 17.2939 17.9932C17.1107 18.1764 16.877 18.2685 16.5938 18.2686C16.3104 18.2686 16.0769 18.1765 15.8936 17.9932L11.9932 14.1182L8.09375 17.9932C7.91047 18.1764 7.68115 18.2729 7.40625 18.2812C7.13125 18.2896 6.89336 18.1932 6.69336 17.9932C6.51029 17.81 6.41904 17.577 6.41895 17.2939C6.41895 17.0107 6.51016 16.7771 6.69336 16.5938L11.2939 11.9932C11.3937 11.8935 11.5018 11.8229 11.6182 11.7812C11.7347 11.7396 11.86 11.7188 11.9932 11.7188Z" fill="black"/>
<path d="M11.9932 5.71875C12.1264 5.71875 12.2516 5.73964 12.3682 5.78125C12.4847 5.82288 12.5934 5.8933 12.6934 5.99316L17.2939 10.5938C17.4771 10.777 17.5727 11.0064 17.5811 11.2812C17.5893 11.556 17.4936 11.7933 17.2939 11.9932C17.1107 12.1764 16.877 12.2685 16.5938 12.2686C16.3104 12.2686 16.0769 12.1765 15.8936 11.9932L11.9932 8.11816L8.09375 11.9932C7.91047 12.1764 7.68115 12.2729 7.40625 12.2812C7.13125 12.2896 6.89336 12.1932 6.69336 11.9932C6.51029 11.81 6.41904 11.577 6.41895 11.2939C6.41895 11.0107 6.51016 10.7771 6.69336 10.5938L11.2939 5.99316C11.3937 5.89348 11.5018 5.82288 11.6182 5.78125C11.7347 5.73962 11.86 5.71879 11.9932 5.71875Z" fill="black"/>
</svg>
