<svg width="24" height="24" viewBox="0 0 24 24" fill="none" xmlns="http://www.w3.org/2000/svg">
<path fill-rule="evenodd" clip-rule="evenodd" d="M10.1025 15.0049C10.573 15.0528 10.9472 15.427 10.9951 15.8975L11 16V20C11 20.5523 10.5523 21 10 21H4C3.44772 21 3 20.5523 3 20V16L3.00488 15.8975C3.05278 15.427 3.42703 15.0528 3.89746 15.0049L4 15H10L10.1025 15.0049ZM5 19H9V17H5V19Z" fill="black"/>
<path fill-rule="evenodd" clip-rule="evenodd" d="M20.1025 11.0049C20.573 11.0528 20.9472 11.427 20.9951 11.8975L21 12V20C21 20.5523 20.5523 21 20 21H14C13.4477 21 13 20.5523 13 20V12C13 11.4823 13.3933 11.0562 13.8975 11.0049L14 11H20L20.1025 11.0049ZM15 19H19V13H15V19Z" fill="black"/>
<path fill-rule="evenodd" clip-rule="evenodd" d="M10 3C10.5523 3 11 3.44772 11 4V12C11 12.5177 10.6067 12.9438 10.1025 12.9951L10 13H4L3.89746 12.9951C3.42703 12.9472 3.05278 12.573 3.00488 12.1025L3 12V4C3 3.44772 3.44772 3 4 3H10ZM5 11H9V5H5V11Z" fill="black"/>
<path fill-rule="evenodd" clip-rule="evenodd" d="M20 3C20.5523 3 21 3.44772 21 4V8C21 8.51768 20.6067 8.94379 20.1025 8.99512L20 9H14L13.8975 8.99512C13.427 8.94722 13.0528 8.57297 13.0049 8.10254L13 8V4C13 3.44772 13.4477 3 14 3H20ZM15 7H19V5H15V7Z" fill="black"/>
</svg>
