<svg width="24" height="24" viewBox="0 0 24 24" fill="none" xmlns="http://www.w3.org/2000/svg">
<path d="M6.79492 6C7.34721 6 7.79492 6.44772 7.79492 7V17C7.79492 17.5523 7.34721 18 6.79492 18C6.24269 17.9999 5.79492 17.5522 5.79492 17V7C5.79492 6.44776 6.24269 6.00007 6.79492 6Z" fill="black"/>
<path d="M16.0898 6.70508C16.4792 6.31572 17.1106 6.31572 17.5 6.70508C17.8893 7.09444 17.8894 7.72588 17.5 8.11523L13.6152 12L17.5 15.8848C17.8894 16.2741 17.8893 16.9056 17.5 17.2949C17.1106 17.6843 16.4792 17.6843 16.0898 17.2949L10.7949 12L16.0898 6.70508Z" fill="black"/>
</svg>
