<svg width="24" height="24" viewBox="0 0 24 24" fill="none" xmlns="http://www.w3.org/2000/svg">
<path fill-rule="evenodd" clip-rule="evenodd" d="M11.4775 2.33597C11.7769 2.25498 12.0907 2.24493 12.3936 2.3057L12.5225 2.33597L12.6826 2.38871C13.0467 2.52881 13.3532 2.7853 13.5967 2.97464L20.3789 8.25003C20.7873 8.56768 21.1481 8.83746 21.4121 9.19437C21.6289 9.48753 21.7903 9.81791 21.8887 10.169C21.9784 10.4897 21.9967 10.8234 22 11.1885V17.7998C22 18.3431 22.001 18.8108 21.9697 19.1944C21.9374 19.5896 21.8655 19.9831 21.6729 20.3614C21.3853 20.9257 20.9266 21.3853 20.3623 21.6729C19.9841 21.8656 19.5905 21.9365 19.1953 21.9688C18.8117 22.0001 18.3432 22 17.7998 22H6.2002C5.65675 22 5.18831 22.0001 4.80469 21.9688C4.40952 21.9365 4.01591 21.8656 3.6377 21.6729C3.07338 21.3853 2.61471 20.9257 2.32715 20.3614C2.1345 19.9831 2.06257 19.5896 2.03027 19.1944C2.01464 19.0028 2.00763 18.7901 2.00391 18.5577L2 17.7998V11.1885C2.00325 10.8234 2.02155 10.4897 2.11133 10.169C2.20966 9.81791 2.37114 9.48752 2.58789 9.19437C2.8519 8.83747 3.21269 8.56768 3.62109 8.25003L10.4033 2.97464C10.6816 2.75819 11.0423 2.45384 11.4775 2.33597ZM11.9932 4.28128C11.9181 4.33146 11.8184 4.40766 11.6318 4.55277L4.84961 9.82816C4.35264 10.2147 4.25877 10.2985 4.19629 10.3828C4.12408 10.4805 4.0699 10.5911 4.03711 10.708C4.0088 10.8092 4 10.934 4 11.5645V17.7998L4.00293 18.5254C4.00602 18.7261 4.01284 18.8905 4.02441 19.0323C4.0466 19.3034 4.0842 19.4047 4.10938 19.4541C4.20522 19.642 4.35802 19.7949 4.5459 19.8907C4.59536 19.9158 4.69642 19.9534 4.96777 19.9756C5.25108 19.9988 5.62379 20 6.2002 20H8V14.5996C8 14.3362 7.99889 14.0782 8.0166 13.8614C8.03529 13.6329 8.0796 13.3631 8.21777 13.0918C8.40947 12.7157 8.71564 12.4095 9.0918 12.2178C9.36296 12.0797 9.63289 12.0353 9.86133 12.0166C10.0781 11.9989 10.3363 12 10.5996 12H13.4004C13.6637 12 13.9219 11.9989 14.1387 12.0166C14.3671 12.0353 14.637 12.0797 14.9082 12.2178C15.2374 12.3856 15.513 12.6409 15.7051 12.9541L15.7822 13.0918L15.8691 13.294C15.9408 13.4951 15.9694 13.6899 15.9834 13.8614C16.0011 14.0782 16 14.3362 16 14.5996V20H17.7998C18.3762 20 18.7489 19.9988 19.0322 19.9756C19.3036 19.9534 19.4046 19.9158 19.4541 19.8907C19.642 19.7949 19.7948 19.642 19.8906 19.4541C19.9158 19.4047 19.9534 19.3034 19.9756 19.0323C19.9987 18.749 20 18.3762 20 17.7998V11.5645C20 10.934 19.9912 10.8092 19.9629 10.708C19.9301 10.5911 19.8759 10.4805 19.8037 10.3828C19.7412 10.2985 19.6474 10.2147 19.1504 9.82816L12.3682 4.55277C12.1816 4.40765 12.0819 4.33146 12.0068 4.28128C12.0045 4.27969 12.0022 4.27783 12 4.2764C11.9978 4.27783 11.9955 4.2797 11.9932 4.28128ZM10.5996 14C10.3035 14 10.1409 14.0003 10.0244 14.0098C10.0201 14.0102 10.0156 14.0104 10.0117 14.0108C10.0113 14.015 10.0111 14.0197 10.0107 14.0244C10.0012 14.141 10 14.3033 10 14.5996V20H14V14.5996C14 14.3033 13.9988 14.141 13.9893 14.0244C13.9889 14.0197 13.9877 14.015 13.9873 14.0108C13.9837 14.0104 13.9796 14.0101 13.9756 14.0098C13.8591 14.0003 13.6965 14 13.4004 14H10.5996Z" fill="black"/>
</svg>
