<svg width="24" height="24" viewBox="0 0 24 24" fill="none" xmlns="http://www.w3.org/2000/svg">
<path fill-rule="evenodd" clip-rule="evenodd" d="M13.5 3.5C13.0633 4.08141 12.7496 4.76112 12.5996 5.5H4.5V14.5H8.0498C8.23312 14.5 8.39982 14.5461 8.5498 14.6377C8.69977 14.7293 8.82481 14.85 8.9248 15C9.20814 15.45 9.57539 15.8129 10.0254 16.0879C10.4753 16.3627 10.9668 16.5 11.5 16.5C12.0332 16.5 12.5247 16.3627 12.9746 16.0879C13.4246 15.8129 13.7919 15.45 14.0752 15C14.1752 14.85 14.3002 14.7293 14.4502 14.6377C14.6002 14.5461 14.7669 14.5 14.9502 14.5H18.5V11.4004C19.2389 11.2504 19.9186 10.9367 20.5 10.5V19.5C20.5 20.05 20.3038 20.5204 19.9121 20.9121C19.5204 21.3038 19.05 21.5 18.5 21.5H4.5C3.95 21.5 3.47956 21.3038 3.08789 20.9121C2.69622 20.5204 2.5 20.05 2.5 19.5V5.5C2.5 4.95 2.69622 4.47956 3.08789 4.08789C3.47956 3.69622 3.95 3.5 4.5 3.5H13.5ZM4.5 16.5V19.5H18.5V16.5H15.5C15.0001 17.1332 14.4044 17.6246 13.7129 17.9746C13.0212 18.3246 12.2833 18.5 11.5 18.5C10.7167 18.5 9.97878 18.3246 9.28711 17.9746C8.59564 17.6246 7.99989 17.1332 7.5 16.5H4.5Z" fill="black"/>
<path fill-rule="evenodd" clip-rule="evenodd" d="M18 2.5C19.933 2.5 21.5 4.067 21.5 6C21.5 7.933 19.933 9.5 18 9.5C16.067 9.5 14.5 7.933 14.5 6C14.5 4.067 16.067 2.5 18 2.5ZM18 4.5C17.1716 4.5 16.5 5.17157 16.5 6C16.5 6.82843 17.1716 7.5 18 7.5C18.8284 7.5 19.5 6.82843 19.5 6C19.5 5.17157 18.8284 4.5 18 4.5Z" fill="black"/>
</svg>
