<svg width="24" height="24" viewBox="0 0 24 24" fill="none" xmlns="http://www.w3.org/2000/svg">
<path fill-rule="evenodd" clip-rule="evenodd" d="M19.874 3.47059C20.2865 3.29801 20.7008 3.71244 20.5283 4.12488L13.6465 20.5555C13.5336 20.8249 13.2696 20.9999 12.9775 20.9999C12.678 20.9998 12.4097 20.8155 12.3018 20.536L9.99902 14.5731C9.89763 14.3105 9.69019 14.1027 9.42773 14.0009L3.46289 11.6893C3.18384 11.5811 3 11.3119 3 11.0126C3.00018 10.7204 3.17571 10.4564 3.44531 10.3436L19.874 3.47059ZM7.13965 10.9598L10.5703 12.2899L10.9795 12.4501C11.2408 12.5523 11.4468 12.7596 11.5479 13.0214L13.0303 16.8602L17.2695 6.73035L7.13965 10.9598Z" fill="black"/>
</svg>
