<svg width="24" height="24" viewBox="0 0 24 24" fill="none" xmlns="http://www.w3.org/2000/svg">
<path d="M6 20C6.55228 20 7 20.4477 7 21C7 21.5523 6.55228 22 6 22C5.44772 22 5 21.5523 5 21C5 20.4477 5.44772 20 6 20Z" fill="black"/>
<path d="M12 20C12.5523 20 13 20.4477 13 21C13 21.5523 12.5523 22 12 22C11.4477 22 11 21.5523 11 21C11 20.4477 11.4477 20 12 20Z" fill="black"/>
<path d="M18 20C18.5523 20 19 20.4477 19 21C19 21.5523 18.5523 22 18 22C17.4477 22 17 21.5523 17 21C17 20.4477 17.4477 20 18 20Z" fill="black"/>
<path d="M9 17C9.55228 17 10 17.4477 10 18C10 18.5523 9.55228 19 9 19C8.44772 19 8 18.5523 8 18C8 17.4477 8.44772 17 9 17Z" fill="black"/>
<path d="M15 17C15.5523 17 16 17.4477 16 18C16 18.5523 15.5523 19 15 19C14.4477 19 14 18.5523 14 18C14 17.4477 14.4477 17 15 17Z" fill="black"/>
<path d="M12 14C12.5523 14 13 14.4477 13 15C13 15.5523 12.5523 16 12 16C11.4477 16 11 15.5523 11 15C11 14.4477 11.4477 14 12 14Z" fill="black"/>
<path fill-rule="evenodd" clip-rule="evenodd" d="M9.5 2C11.7091 2 13.5 3.79086 13.5 6V8H16.0732C18.2419 8.00004 20 9.75809 20 11.9268C20 12.5195 19.5195 13 18.9268 13H5.07324C4.48055 13 4 12.5195 4 11.9268C4.00004 9.75809 5.75809 8.00004 7.92676 8H11.5V6C11.5 4.89543 10.6046 4 9.5 4H5C4.44772 4 4 3.55228 4 3C4 2.44772 4.44772 2 5 2H9.5ZM7.92676 10C7.19862 10 6.56494 10.404 6.2373 11H17.7627C17.4351 10.404 16.8014 10 16.0732 10H7.92676Z" fill="black"/>
</svg>
