<svg width="24" height="24" viewBox="0 0 24 24" fill="none" xmlns="http://www.w3.org/2000/svg">
<path d="M3 17.625C3 17.4917 3.0252 17.3667 3.0752 17.25C3.12519 17.1334 3.19207 17.0248 3.27539 16.9248C3.95859 16.1917 4.6706 15.6454 5.41211 15.2871C6.15372 14.9288 6.94988 14.75 7.7998 14.75C8.38314 14.75 8.99603 14.8333 9.6377 15C10.2793 15.1667 11.1172 15.4671 12.1504 15.9004C13.1502 16.317 13.9169 16.6 14.4502 16.75C14.9833 16.8999 15.4914 16.9746 15.9746 16.9746C16.5579 16.9746 17.1292 16.854 17.6875 16.6123C18.2458 16.3706 18.7919 16 19.3252 15.5C19.4252 15.4167 19.5338 15.3542 19.6504 15.3125C19.7669 15.2709 19.8834 15.25 20 15.25C20.1333 15.25 20.2671 15.2752 20.4004 15.3252C20.5335 15.3752 20.6414 15.4587 20.7246 15.5752C20.8079 15.6752 20.8748 15.7794 20.9248 15.8877C20.9748 15.996 21 16.1167 21 16.25C21 16.3833 20.9704 16.5171 20.9121 16.6504C20.8538 16.7835 20.7747 16.9001 20.6748 17C19.9415 17.6833 19.1958 18.1877 18.4375 18.5127C17.6793 18.8376 16.8752 19 16.0254 19C15.4087 19 14.7498 18.9079 14.0498 18.7246C13.35 18.5413 12.4667 18.2252 11.4004 17.7754C10.4504 17.3921 9.72461 17.1246 9.22461 16.9746C8.72486 16.8247 8.25834 16.75 7.8252 16.75C7.25865 16.75 6.72113 16.8751 6.21289 17.125C5.70456 17.375 5.20794 17.7665 4.72461 18.2998C4.62469 18.4164 4.51257 18.4998 4.3877 18.5498C4.2627 18.5998 4.13333 18.625 4 18.625C3.86667 18.625 3.74167 18.5998 3.625 18.5498C3.50836 18.4998 3.39978 18.4329 3.2998 18.3496C3.20001 18.2497 3.12515 18.1375 3.0752 18.0127C3.0252 17.8877 3 17.7583 3 17.625Z" fill="black"/>
<path d="M3 12.75C3 12.6167 3.0252 12.4917 3.0752 12.375C3.12519 12.2584 3.19207 12.1498 3.27539 12.0498C3.95864 11.3166 4.67491 10.7704 5.4248 10.4121C6.17475 10.0538 6.96654 9.87503 7.7998 9.875C8.38314 9.875 8.99603 9.9627 9.6377 10.1377C10.2793 10.3127 11.1172 10.6165 12.1504 11.0498C13.1503 11.4664 13.9169 11.7504 14.4502 11.9004C14.9833 12.0503 15.4915 12.125 15.9746 12.125C16.5578 12.125 17.1206 12.0042 17.6621 11.7627C18.2037 11.5211 18.7499 11.1503 19.2998 10.6504C19.3998 10.5671 19.5084 10.5002 19.625 10.4502C19.7417 10.4002 19.8667 10.375 20 10.375C20.1333 10.375 20.2627 10.4002 20.3877 10.4502C20.5126 10.5002 20.6247 10.5836 20.7246 10.7002C20.8079 10.8002 20.8748 10.9044 20.9248 11.0127C20.9748 11.121 21 11.2417 21 11.375C21 11.5083 20.9704 11.6421 20.9121 11.7754C20.8538 11.9085 20.7747 12.0251 20.6748 12.125C19.9415 12.8083 19.1914 13.3127 18.4248 13.6377C17.6582 13.9626 16.8499 14.125 16 14.125C15.3833 14.125 14.7331 14.0329 14.0498 13.8496C13.3666 13.6663 12.4834 13.3502 11.4004 12.9004C10.4505 12.5171 9.72121 12.2496 9.21289 12.0996C8.70456 11.9496 8.23314 11.875 7.7998 11.875C7.23333 11.875 6.70441 12.0001 6.21289 12.25C5.72122 12.5 5.22461 12.8915 4.72461 13.4248C4.62467 13.5247 4.50823 13.6038 4.375 13.6621C4.24167 13.7204 4.10794 13.75 3.97461 13.75C3.84143 13.75 3.72053 13.7248 3.6123 13.6748C3.50406 13.6248 3.39973 13.5579 3.2998 13.4746C3.20001 13.3747 3.12515 13.2625 3.0752 13.1377C3.0252 13.0127 3 12.8833 3 12.75Z" fill="black"/>
<path d="M3 7.84961C3.00005 7.71643 3.02524 7.59553 3.0752 7.4873C3.12518 7.37906 3.19212 7.27473 3.27539 7.1748C3.95864 6.44162 4.67491 5.89539 5.4248 5.53711C6.17475 5.1788 6.96654 5.00003 7.7998 5C8.38314 5 8.99603 5.0877 9.6377 5.2627C10.2793 5.43769 11.125 5.74158 12.1748 6.1748C13.1746 6.5914 13.9413 6.87537 14.4746 7.02539C15.0078 7.17535 15.5081 7.24996 15.9746 7.25C16.5579 7.25 17.1292 7.125 17.6875 6.875C18.2458 6.625 18.7919 6.25 19.3252 5.75C19.4252 5.66671 19.5338 5.60415 19.6504 5.5625C19.7669 5.52092 19.8834 5.5 20 5.5C20.1333 5.5 20.2671 5.5252 20.4004 5.5752C20.5335 5.6252 20.6414 5.70868 20.7246 5.8252C20.8079 5.9252 20.8748 6.02936 20.9248 6.1377C20.9748 6.24601 21 6.3667 21 6.5C21 6.63333 20.9704 6.76706 20.9121 6.90039C20.8538 7.03353 20.7747 7.15012 20.6748 7.25C19.9415 7.93328 19.1958 8.43771 18.4375 8.7627C17.6793 9.08763 16.8752 9.24995 16.0254 9.25C15.4087 9.25 14.7498 9.15794 14.0498 8.97461C13.35 8.79129 12.4667 8.47523 11.4004 8.02539C10.4504 7.64206 9.72461 7.37461 9.22461 7.22461C8.72486 7.07473 8.25834 7.00002 7.8252 7C7.25865 7 6.72113 7.1251 6.21289 7.375C5.70456 7.625 5.20794 8.01647 4.72461 8.5498C4.62464 8.64975 4.51264 8.72541 4.3877 8.77539C4.2627 8.82539 4.13333 8.84961 4 8.84961C3.86668 8.84961 3.74602 8.82877 3.6377 8.78711C3.52936 8.74544 3.4252 8.68294 3.3252 8.59961C3.22528 8.49967 3.1462 8.38323 3.08789 8.25C3.02956 8.11667 3 7.98294 3 7.84961Z" fill="black"/>
</svg>
