<svg width="24" height="24" viewBox="0 0 24 24" fill="none" xmlns="http://www.w3.org/2000/svg">
<path d="M8.11792 3.02538C8.35253 2.92393 8.59847 3.14328 8.52417 3.38769L6.98609 8.41894C6.92194 8.6282 6.66197 8.70062 6.49878 8.55468L5.573 7.72655L4.74195 8.67675C3.87623 9.66633 3.75607 11.1048 4.44507 12.2246L5.2439 13.5225C6.45718 15.4943 6.15737 18.0416 4.52027 19.6787L3.75464 20.4443C3.3641 20.8347 2.73104 20.8348 2.34058 20.4443C1.95034 20.0539 1.95032 19.4207 2.34058 19.0303L3.1062 18.2646C4.0885 17.2823 4.26786 15.7534 3.5398 14.5703L2.74097 13.2725C1.59273 11.406 1.79412 9.00861 3.23706 7.35937L4.08179 6.39257L3.20874 5.6123C3.04581 5.46634 3.08913 5.20031 3.2898 5.11327L8.11792 3.02538Z" fill="black"/>
<path d="M15.1179 3.02538C15.3525 2.92393 15.5985 3.14328 15.5242 3.38769L13.9861 8.41894C13.9219 8.6282 13.662 8.70062 13.4988 8.55468L12.573 7.72655L11.7419 8.67675C10.8762 9.66633 10.7561 11.1048 11.4451 12.2246L12.2439 13.5225C13.4572 15.4943 13.1574 18.0416 11.5203 19.6787L10.7546 20.4443C10.3641 20.8347 9.73104 20.8348 9.34058 20.4443C8.95034 20.0539 8.95032 19.4207 9.34058 19.0303L10.1062 18.2646C11.0885 17.2823 11.2679 15.7534 10.5398 14.5703L9.74097 13.2725C8.59273 11.406 8.79412 9.00861 10.2371 7.35937L11.0818 6.39257L10.2087 5.6123C10.0458 5.46634 10.0891 5.20031 10.2898 5.11327L15.1179 3.02538Z" fill="black"/>
<path d="M22.1179 3.02538C22.3525 2.92393 22.5985 3.14328 22.5242 3.38769L20.9861 8.41894C20.9219 8.6282 20.662 8.70062 20.4988 8.55468L19.573 7.72655L18.7419 8.67675C17.8762 9.66633 17.7561 11.1048 18.4451 12.2246L19.2439 13.5225C20.4572 15.4943 20.1574 18.0416 18.5203 19.6787L17.7546 20.4443C17.3641 20.8347 16.731 20.8348 16.3406 20.4443C15.9503 20.0539 15.9503 19.4207 16.3406 19.0303L17.1062 18.2646C18.0885 17.2823 18.2679 15.7534 17.5398 14.5703L16.741 13.2725C15.5927 11.406 15.7941 9.00861 17.2371 7.35937L18.0818 6.39257L17.2087 5.6123C17.0458 5.46634 17.0891 5.20031 17.2898 5.11327L22.1179 3.02538Z" fill="black"/>
</svg>
