<svg width="24" height="24" viewBox="0 0 24 24" fill="none" xmlns="http://www.w3.org/2000/svg">
<path d="M7.05273 8.10547C7.54671 7.85848 8.14754 8.05876 8.39453 8.55273L8.64551 9.05371C9.27659 10.316 9.11582 11.8305 8.23438 12.9326C7.87027 13.3878 7.77862 14.0047 7.99512 14.5459L8.42871 15.6289C8.63347 16.1416 8.38372 16.7237 7.87109 16.9287C7.35846 17.1335 6.7764 16.8836 6.57129 16.3711L6.13867 15.2881C5.65468 14.0781 5.85879 12.7013 6.67285 11.6836C7.06706 11.1906 7.13868 10.5128 6.85645 9.94824L6.60547 9.44727C6.35849 8.95331 6.55881 8.35248 7.05273 8.10547Z" fill="black"/>
<path d="M16.0527 8.10547C16.5467 7.85848 17.1475 8.05876 17.3945 8.55273L17.6455 9.05371C18.2766 10.316 18.1158 11.8305 17.2344 12.9326C16.8703 13.3878 16.7786 14.0047 16.9951 14.5459L17.4287 15.6289C17.6335 16.1416 17.3837 16.7237 16.8711 16.9287C16.3585 17.1335 15.7764 16.8836 15.5713 16.3711L15.1387 15.2881C14.6547 14.0781 14.8588 12.7013 15.6729 11.6836C16.0671 11.1906 16.1387 10.5128 15.8564 9.94824L15.6055 9.44727C15.3585 8.95331 15.5588 8.35248 16.0527 8.10547Z" fill="black"/>
<path d="M11.5527 6.10547C12.0467 5.85848 12.6475 6.05876 12.8945 6.55273L13.1455 7.05371C13.7766 8.31601 13.6158 9.8305 12.7344 10.9326C12.3703 11.3878 12.2786 12.0047 12.4951 12.5459L12.9287 13.6289C13.1335 14.1416 12.8837 14.7237 12.3711 14.9287C11.8585 15.1335 11.2764 14.8836 11.0713 14.3711L10.6387 13.2881C10.1547 12.0781 10.3588 10.7013 11.1729 9.68359C11.5671 9.19063 11.6387 8.51284 11.3564 7.94824L11.1055 7.44727C10.8585 6.95331 11.0588 6.35248 11.5527 6.10547Z" fill="black"/>
<path fill-rule="evenodd" clip-rule="evenodd" d="M12 1C18.0751 1 23 5.92487 23 12C23 18.0751 18.0751 23 12 23C5.92487 23 1 18.0751 1 12C1 5.92487 5.92487 1 12 1ZM12 3C7.02944 3 3 7.02944 3 12C3 16.9706 7.02944 21 12 21C16.9706 21 21 16.9706 21 12C21 7.02944 16.9706 3 12 3Z" fill="black"/>
</svg>
