<svg width="24" height="24" viewBox="0 0 24 24" fill="none" xmlns="http://www.w3.org/2000/svg">
<path fill-rule="evenodd" clip-rule="evenodd" d="M12 5.7998C12 7.01962 12.9997 7.79957 14.0195 7.7998C14.5795 7.7998 15.1396 7.56974 15.5596 7.0498L16 6.5C18.39 7.88 20 10.54 20 13.5C20 17.92 16.42 21.5 12 21.5C7.58 21.5 4 17.92 4 13.5C4 6.5 12 2.5 12 2.5V5.7998ZM10.5801 16.2002C10.2002 16.5701 10.0001 17.0498 10 17.5596C10 18.6296 10.9 19.5 12 19.5C13.1 19.5 14 18.6296 14 17.5596C13.9999 17.0497 13.7996 16.5701 13.4297 16.2002L12 14.7998L10.5801 16.2002ZM10.0303 6.25C8.13027 7.85 6 10.34 6 13.5C6 15.29 6.79004 16.9 8.04004 18C8.00004 17.66 7.81011 16.1202 9.16992 14.7803L12 12L14.8301 14.7803C16.1799 16.1102 16 17.64 15.96 18C17.21 16.9 18 15.29 18 13.5C18 11.85 17.3402 10.2796 16.2002 9.13965C15.5602 9.56965 14.7995 9.7998 14.0195 9.7998C11.9598 9.79957 10.2603 8.23983 10.0303 6.25Z" fill="black"/>
</svg>
