<svg width="24" height="24" viewBox="0 0 24 24" fill="none" xmlns="http://www.w3.org/2000/svg">
<path d="M12 2C12.2833 2 12.5212 2.09544 12.7129 2.28711C12.9046 2.47878 13 2.71667 13 3V6.15039L15.5498 3.65039C15.7331 3.4671 15.9624 3.37504 16.2373 3.375C16.5123 3.375 16.7502 3.46706 16.9502 3.65039C17.1333 3.85028 17.2246 4.08753 17.2246 4.3623C17.2246 4.63721 17.1334 4.8665 16.9502 5.0498L13 9V11H15L18.9502 7.0498C19.1335 6.8666 19.3628 6.77539 19.6377 6.77539C19.9126 6.77544 20.1497 6.87531 20.3496 7.0752C20.5329 7.25853 20.625 7.4877 20.625 7.7627C20.625 8.03761 20.5329 8.26691 20.3496 8.4502L17.8496 11H21C21.2833 11 21.5212 11.0954 21.7129 11.2871C21.9046 11.4788 22 11.7167 22 12C22 12.2833 21.9046 12.5212 21.7129 12.7129C21.5212 12.9046 21.2833 13 21 13H17.8496L20.3496 15.5752C20.5329 15.7585 20.625 15.9877 20.625 16.2627C20.625 16.5376 20.5329 16.7669 20.3496 16.9502C20.1497 17.15 19.9125 17.25 19.6377 17.25C19.397 17.25 19.191 17.1737 19.0205 17.0205L15 13H13V15L16.9502 18.9746C17.1334 19.1579 17.2245 19.3873 17.2246 19.6621C17.2246 19.9371 17.1248 20.175 16.9248 20.375C16.7415 20.5583 16.5123 20.6504 16.2373 20.6504C15.9624 20.6503 15.7331 20.5583 15.5498 20.375L13 17.8496V21.0254C12.9999 21.3084 12.9042 21.5414 12.7129 21.7246C12.5212 21.9079 12.2833 22 12 22C11.7167 22 11.4788 21.9046 11.2871 21.7129C11.0954 21.5212 11 21.2833 11 21V17.8496L8.4248 20.375C8.24149 20.5583 8.01226 20.6504 7.7373 20.6504C7.46239 20.6503 7.23309 20.5496 7.0498 20.3496C6.85001 20.1663 6.75 19.937 6.75 19.6621C6.75009 19.3874 6.85003 19.1501 7.0498 18.9502L11 15V13H9L5.02539 16.9746C4.84214 17.1579 4.61272 17.2499 4.33789 17.25C4.06294 17.25 3.82498 17.1501 3.625 16.9502C3.44171 16.7669 3.34965 16.5376 3.34961 16.2627C3.34961 15.9877 3.44173 15.7585 3.625 15.5752L6.15039 13H2.97461C2.69165 12.9999 2.45858 12.9042 2.27539 12.7129C2.09206 12.5212 2 12.2833 2 12C2 11.7167 2.09544 11.4788 2.28711 11.2871C2.47878 11.0954 2.71667 11 3 11H6.15039L3.625 8.4502C3.44171 8.26691 3.34965 8.03761 3.34961 7.7627C3.34961 7.4877 3.45039 7.2498 3.65039 7.0498C3.83368 6.86667 4.06304 6.77539 4.33789 6.77539C4.61263 6.77548 4.84994 6.86668 5.0498 7.0498L9 11H11V9L7.02539 5.0498C6.84206 4.86647 6.75 4.6373 6.75 4.3623C6.75005 4.08752 6.85005 3.85028 7.0498 3.65039C7.23309 3.4671 7.46239 3.37504 7.7373 3.375C8.0123 3.375 8.24147 3.46706 8.4248 3.65039L11 6.15039V3C11 2.71667 11.0954 2.47878 11.2871 2.28711C11.4788 2.09544 11.7167 2 12 2Z" fill="black"/>
</svg>
