<svg width="24" height="24" viewBox="0 0 24 24" fill="none" xmlns="http://www.w3.org/2000/svg">
<path d="M1.19727 2.4043C1.5262 1.96111 2.15218 1.86862 2.5957 2.19727L11.2334 8.59668C11.9968 9.16249 12.4482 10.0575 12.4482 11.0078V20C12.4479 21.1043 11.5516 22 10.4473 22H2C1.44789 22 1.00028 21.552 1 21C1.00002 20.4477 1.44773 20 2 20H9.94727C10.2233 20 10.4471 19.776 10.4473 19.5V11.0078C10.4472 10.6913 10.2971 10.3937 10.043 10.2051L1.4043 3.80273C0.961076 3.47389 0.868806 2.84785 1.19727 2.4043Z" fill="black"/>
<path fill-rule="evenodd" clip-rule="evenodd" d="M18 2C18.5522 2 18.9999 2.44784 19 3V15C19 15.0481 18.9948 15.0954 18.9883 15.1416C20.4399 15.5681 21.4999 16.9103 21.5 18.5C21.5 20.433 19.933 22 18 22C16.067 22 14.5 20.433 14.5 18.5C14.5001 16.9107 15.5595 15.5684 17.0107 15.1416C17.0042 15.0954 17 15.048 17 15V3C17.0001 2.44784 17.4478 2 18 2ZM18 17C17.1717 17 16.5001 17.6717 16.5 18.5C16.5 19.3284 17.1716 20 18 20C18.8284 20 19.5 19.3284 19.5 18.5C19.4999 17.6717 18.8283 17 18 17Z" fill="black"/>
<path d="M22.5 10C22.7761 10 22.9999 10.224 23 10.5V11.5C23 11.7761 22.7761 12 22.5 12H21.5C21.2239 12 21 11.7761 21 11.5V10.5C21.0001 10.224 21.2239 10 21.5 10H22.5Z" fill="black"/>
<path d="M22.5 6C22.7761 6 22.9999 6.22398 23 6.5V7.5C23 7.77614 22.7761 8 22.5 8H21.5C21.2239 8 21 7.77614 21 7.5V6.5C21.0001 6.22398 21.2239 6 21.5 6H22.5Z" fill="black"/>
<path d="M22.5 2C22.7761 2 22.9999 2.22398 23 2.5V3.5C23 3.77614 22.7761 4 22.5 4H21.5C21.2239 4 21 3.77614 21 3.5V2.5C21.0001 2.22398 21.2239 2 21.5 2H22.5Z" fill="black"/>
</svg>
