<svg width="24" height="24" viewBox="0 0 24 24" fill="none" xmlns="http://www.w3.org/2000/svg">
<path d="M8.25098 13.5C8.62091 13.5 8.92119 13.7602 8.99121 14.1201C9.40123 16.3397 11.2709 17.1 12.6309 16.9902C13.0609 16.9702 13.4209 17.3102 13.4209 17.7402C13.4208 18.14 13.101 18.4701 12.7012 18.4902C10.5713 18.62 8.08073 17.3999 7.51074 14.3701C7.43082 13.9203 7.79121 13.5003 8.25098 13.5Z" fill="black"/>
<path fill-rule="evenodd" clip-rule="evenodd" d="M12 2C17.3299 6.54991 19.9999 10.4798 20 13.7998C20 18.7798 16.2 22 12 22C7.8 22 4 18.7798 4 13.7998C4.0001 10.4798 6.6701 6.54991 12 2ZM12 4.66016C7.95017 8.36002 6.00011 11.4598 6 13.7998C6 17.4298 8.65 20 12 20C15.35 20 18 17.4298 18 13.7998C17.9999 11.4498 16.0498 8.36002 12 4.66016Z" fill="black"/>
</svg>
