<svg width="24" height="24" viewBox="0 0 24 24" fill="none" xmlns="http://www.w3.org/2000/svg">
<path d="M7 20C7.28333 20 7.52122 20.0954 7.71289 20.2871C7.90456 20.4788 8 20.7167 8 21C8 21.2833 7.90456 21.5212 7.71289 21.7129C7.52122 21.9046 7.28333 22 7 22C6.71667 22 6.47878 21.9046 6.28711 21.7129C6.09544 21.5212 6 21.2833 6 21C6 20.7167 6.09544 20.4788 6.28711 20.2871C6.47878 20.0954 6.71667 20 7 20Z" fill="black"/>
<path d="M17 20C17.2833 20 17.5212 20.0954 17.7129 20.2871C17.9046 20.4788 18 20.7167 18 21C18 21.2833 17.9046 21.5212 17.7129 21.7129C17.5212 21.9046 17.2833 22 17 22H10C9.71667 22 9.47878 21.9046 9.28711 21.7129C9.09544 21.5212 9 21.2833 9 21C9 20.7167 9.09544 20.4788 9.28711 20.2871C9.47878 20.0954 9.71667 20 10 20H17Z" fill="black"/>
<path d="M15 17C15.2833 17 15.5212 17.0954 15.7129 17.2871C15.9046 17.4788 16 17.7167 16 18C16 18.2833 15.9046 18.5212 15.7129 18.7129C15.5212 18.9046 15.2833 19 15 19H6C5.71667 19 5.47878 18.9046 5.28711 18.7129C5.09544 18.5212 5 18.2833 5 18C5 17.7167 5.09544 17.4788 5.28711 17.2871C5.47878 17.0954 5.71667 17 6 17H15Z" fill="black"/>
<path d="M18 17C18.2833 17 18.5212 17.0954 18.7129 17.2871C18.9046 17.4788 19 17.7167 19 18C19 18.2833 18.9046 18.5212 18.7129 18.7129C18.5212 18.9046 18.2833 19 18 19C17.7167 19 17.4788 18.9046 17.2871 18.7129C17.0954 18.5212 17 18.2833 17 18C17 17.7167 17.0954 17.4788 17.2871 17.2871C17.4788 17.0954 17.7167 17 18 17Z" fill="black"/>
<path fill-rule="evenodd" clip-rule="evenodd" d="M12 2C13.4999 2 14.8038 2.4793 15.9121 3.4375C17.0204 4.39583 17.6915 5.59206 17.9248 7.02539C19.0748 7.12539 20.0419 7.6002 20.8252 8.4502C21.6084 9.30015 22 10.3168 22 11.5C22 12.75 21.5625 13.8125 20.6875 14.6875C19.8125 15.5625 18.75 16 17.5 16H7.5C5.98333 16 4.6873 15.4627 3.6123 14.3877C2.5373 13.3127 2 12.0167 2 10.5C2 9.11667 2.45833 7.90833 3.375 6.875C4.29167 5.84167 5.42539 5.23314 6.77539 5.0498C7.30871 4.09995 8.03799 3.35411 8.96289 2.8125C9.88781 2.27095 10.9001 2 12 2ZM12 4C11.2 4 10.4708 4.21706 9.8125 4.65039C9.15426 5.08371 8.6585 5.66712 8.3252 6.40039L8.0752 7H7.4502C6.50024 7.03333 5.68768 7.38756 5.0127 8.0625C4.3377 8.7375 4 9.55 4 10.5C4 11.4667 4.34206 12.2913 5.02539 12.9746C5.70872 13.6579 6.53333 14 7.5 14H17.5C18.2 14 18.7921 13.7587 19.2754 13.2754C19.7587 12.7921 20 12.2 20 11.5C20 10.8 19.7587 10.2079 19.2754 9.72461C18.7921 9.24128 18.2 9 17.5 9H16V8C16 6.9 15.6085 5.95814 14.8252 5.1748C14.0419 4.39147 13.1 4 12 4Z" fill="black"/>
</svg>
