<svg width="24" height="24" viewBox="0 0 24 24" fill="none" xmlns="http://www.w3.org/2000/svg">
<path fill-rule="evenodd" clip-rule="evenodd" d="M12 10.0751C14.1556 10.0751 16.0181 11.2848 17.002 13.0546C17.23 13.0206 17.4635 13.0018 17.7002 13.0018C20.3758 13.0019 22.4997 15.2222 22.5 17.9042C22.4997 20.5862 20.3758 22.8064 17.7002 22.8065H6.2998C3.62435 22.8062 1.50028 20.5861 1.5 17.9042C1.50027 15.2223 3.62435 13.0021 6.2998 13.0018C6.5362 13.0018 6.76929 13.0207 6.99707 13.0546C7.98086 11.2846 9.84438 10.0752 12 10.0751ZM12 12.0751C10.416 12.0752 9.04077 13.0964 8.49609 14.5682C8.30538 15.0823 7.73575 15.3476 7.21973 15.162C6.93289 15.0587 6.6232 15.0018 6.2998 15.0018C4.77871 15.0021 3.50027 16.2764 3.5 17.9042C3.50027 19.5319 4.77871 20.8062 6.2998 20.8065H17.7002C19.2214 20.8064 20.4997 19.5321 20.5 17.9042C20.4997 16.2763 19.2214 15.0019 17.7002 15.0018C17.3769 15.0019 17.0671 15.0587 16.7803 15.162C16.2643 15.3473 15.6945 15.0824 15.5039 14.5682C14.9592 13.0963 13.5841 12.0751 12 12.0751Z" fill="black"/>
<path d="M10.5752 5.19714C12.3971 5.19719 13.9691 6.23218 14.7803 7.73328C15.0426 8.21908 14.8607 8.82622 14.375 9.08874C13.8894 9.3505 13.2831 9.16964 13.0205 8.68445C12.5352 7.78644 11.6144 7.19719 10.5752 7.19714C9.05397 7.19733 7.7756 8.47158 7.77539 10.0995C7.77511 10.6514 7.32735 11.0993 6.77539 11.0995C6.22343 11.0993 5.77567 10.6514 5.77539 10.0995C5.7756 7.41747 7.89961 5.19733 10.5752 5.19714Z" fill="black"/>
<path d="M1.7373 8.06042C1.87025 7.52462 2.41236 7.19731 2.94824 7.32996L3.91895 7.57117C4.45484 7.70405 4.78207 8.24617 4.64941 8.7821C4.51636 9.31768 3.97421 9.6441 3.43848 9.5116L2.46777 9.27136C1.93194 9.13854 1.60485 8.59628 1.7373 8.06042Z" fill="black"/>
<path d="M17.2891 4.88757C17.7935 4.66356 18.3849 4.89128 18.6094 5.39539C18.8334 5.89991 18.6059 6.49133 18.1016 6.7157L17.0059 7.203C16.5015 7.42706 15.9101 7.20016 15.6855 6.69617C15.4616 6.1918 15.6884 5.60037 16.1924 5.37585L17.2891 4.88757Z" fill="black"/>
<path d="M5.74805 2.14246C6.20942 1.83956 6.82949 1.9675 7.13281 2.42859L7.72754 3.33484C8.03052 3.79607 7.90316 4.41612 7.44238 4.7196C6.98117 5.02262 6.36113 4.89518 6.05762 4.43445L5.46094 3.52722C5.15816 3.06578 5.2868 2.44566 5.74805 2.14246Z" fill="black"/>
<path d="M11.5693 1.953C11.7022 1.41727 12.2445 1.0901 12.7803 1.22253C13.3161 1.35541 13.6433 1.89758 13.5107 2.43347L13.2705 3.40417C13.1376 3.93995 12.5954 4.26713 12.0596 4.13464C11.5237 4.0019 11.1968 3.45955 11.3291 2.92371L11.5693 1.953Z" fill="black"/>
</svg>
