<svg width="24" height="24" viewBox="0 0 24 24" fill="none" xmlns="http://www.w3.org/2000/svg">
<path d="M11.5 14.5C13.15 14.5 14.5 15.85 14.5 17.5C14.5 19.15 13.15 20.5 11.5 20.5C9.85 20.5 8.5 19.15 8.5 17.5H10.5C10.5 18.05 10.95 18.5 11.5 18.5C12.05 18.5 12.5 18.05 12.5 17.5C12.5 16.95 12.05 16.5 11.5 16.5H3C2.44772 16.5 2 16.0523 2 15.5C2 14.9477 2.44772 14.5 3 14.5H11.5Z" fill="black"/>
<path d="M18.5 11.5C20.43 11.5 22 13.07 22 15C22 16.93 20.43 18.5 18.5 18.5V16.5C19.33 16.5 20 15.83 20 15C20 14.17 19.33 13.5 18.5 13.5H3C2.44772 13.5 2 13.0523 2 12.5C2 11.9477 2.44772 11.5 3 11.5H18.5Z" fill="black"/>
<path d="M15.5 3.5C17.43 3.5 19 5.07 19 7C19 8.93 17.43 10.5 15.5 10.5H3C2.44772 10.5 2 10.0523 2 9.5C2 8.94772 2.44772 8.5 3 8.5H15.5C16.33 8.5 17 7.83 17 7C17 6.17 16.33 5.5 15.5 5.5C14.67 5.5 14 6.17 14 7H12C12 5.07 13.57 3.5 15.5 3.5Z" fill="black"/>
</svg>
