<svg width="24" height="24" viewBox="0 0 24 24" fill="none" xmlns="http://www.w3.org/2000/svg">
<path d="M14.1299 15.9902C14.6897 16.5401 14.9999 17.2798 15 18.0596C15 19.6795 13.6499 20.9999 12 21C10.35 21 9 19.6796 9 18.0596C9.00011 17.2797 9.31022 16.5501 9.87012 15.9902L12 13.9004L14.1299 15.9902Z" fill="black"/>
<path d="M12 6.2998C12 8.1898 14.3796 9.0198 15.5596 7.5498L16 7C18.7898 8.61998 20.5192 11.9698 19.8594 15.5195C19.4394 17.7595 18.0394 19.6703 16.1494 20.8203C16.6894 20.0304 16.9999 19.0902 17 18.0703C17 16.7403 16.4793 15.5003 15.5293 14.5703L12 11.0996L8.46973 14.5596C7.51983 15.4995 7.00011 16.7397 7 18.0596C7 19.0996 7.32965 20.0704 7.88965 20.8604C5.55965 19.4704 4 16.92 4 14C4 7 12 3 12 3V6.2998Z" fill="black"/>
</svg>
