<svg width="24" height="24" viewBox="0 0 24 24" fill="none" xmlns="http://www.w3.org/2000/svg">
<path d="M13 2C13.5523 2 14 2.49768 14 3.11133V4.5459C15.0886 4.90596 16.0664 5.55116 16.8623 6.40527L18.1211 5.00781C18.5115 4.57398 19.1446 4.57415 19.5352 5.00781C19.9257 5.44173 19.9257 6.14519 19.5352 6.5791L18.1211 8.15039C18.113 8.15936 18.103 8.16621 18.0947 8.1748C18.514 8.99791 18.8032 9.91391 18.9287 10.8887H21C21.5523 10.8887 22 11.3864 22 12C22 12.6136 21.5523 13.1113 21 13.1113H18.9287C18.8095 14.0369 18.5437 14.9098 18.1582 15.7002L19.5352 17.2305C19.9254 17.6643 19.9254 18.3669 19.5352 18.8008C19.1446 19.2346 18.5116 19.2347 18.1211 18.8008L16.9482 17.498C16.1371 18.3993 15.1286 19.0798 14 19.4531V20.8887C14 21.5023 13.5523 22 13 22C12.4477 22 12 21.5023 12 20.8887V18.667C12 18.5518 12.0154 18.4406 12.0449 18.3359C12.0644 18.2665 12.0904 18.1996 12.1211 18.1367C12.2909 17.7855 12.6209 17.5298 12.9932 17.4463C13.9764 17.226 14.8539 16.6837 15.5361 15.9248C16.4474 14.8722 17 13.5006 17 12C17 10.4991 16.4477 9.12695 15.5361 8.07422C14.8539 7.31556 13.9761 6.77392 12.9932 6.55371C12.6098 6.46765 12.2713 6.19865 12.1064 5.83105C12.0823 5.77765 12.0612 5.72196 12.0449 5.66406C12.0154 5.55943 12 5.44822 12 5.33301V3.11133C12 2.49768 12.4477 2 13 2Z" fill="black"/>
<path d="M6.79297 4.79297C7.18349 4.40244 7.81651 4.40244 8.20703 4.79297L11.4141 8C11.7891 8.37503 12 8.88372 12 9.41406V14.5859C11.9999 15.1163 11.7891 15.625 11.4141 16L8.20703 19.207C7.81653 19.5975 7.18347 19.5975 6.79297 19.207C6.40247 18.8165 6.40252 18.1835 6.79297 17.793L10 14.5859V13H8.91406L5.20703 16.707C4.81654 17.0974 4.18346 17.0974 3.79297 16.707C3.40248 16.3165 3.40256 15.6835 3.79297 15.293L6.08496 13H3C2.44774 13 2.00004 12.5523 2 12C2 11.4477 2.44772 11 3 11H6.08496L3.79297 8.70703C3.40253 8.31651 3.40251 7.68347 3.79297 7.29297C4.18347 6.90254 4.81653 6.90254 5.20703 7.29297L8.91406 11H10V9.41406L6.79297 6.20703C6.40247 5.81653 6.40252 5.1835 6.79297 4.79297Z" fill="black"/>
</svg>
