<svg width="24" height="24" viewBox="0 0 24 24" fill="none" xmlns="http://www.w3.org/2000/svg">
<path d="M5.55037 13.1002C5.80019 12.967 6.05395 12.9462 6.31209 13.0377C6.57037 13.1293 6.76665 13.3005 6.89998 13.5504L8.89998 17.5504C9.03305 17.8001 9.05392 18.054 8.96248 18.3121C8.87082 18.5704 8.69976 18.7667 8.44979 18.9C8.19983 19.0332 7.94538 19.0541 7.68709 18.9625C7.42894 18.8708 7.23345 18.6997 7.10018 18.4498L5.10018 14.4498C4.96692 14.1998 4.94603 13.9454 5.03768 13.6871C5.12939 13.429 5.30053 13.2334 5.55037 13.1002Z" fill="black"/>
<path d="M20.0504 14.1002C20.3002 13.967 20.554 13.9462 20.8121 14.0377C21.0704 14.1293 21.2667 14.3005 21.4 14.5504L22.9 17.5504C23.033 17.8001 23.0539 18.054 22.9625 18.3121C22.8708 18.5704 22.6998 18.7667 22.4498 18.9C22.1998 19.0332 21.9454 19.0541 21.6871 18.9625C21.4289 18.8708 21.2335 18.6997 21.1002 18.4498L19.6002 15.4498C19.4669 15.1998 19.446 14.9454 19.5377 14.6871C19.6294 14.429 19.8005 14.2334 20.0504 14.1002Z" fill="black"/>
<path d="M11.3502 15.1002C11.6001 14.9669 11.8546 14.9461 12.1129 15.0377C12.3709 15.1294 12.5665 15.3006 12.6998 15.5504L13.6998 17.5504C13.8329 17.8001 13.8537 18.0497 13.7623 18.2994C13.6706 18.5494 13.4996 18.7413 13.2496 18.8746C12.9998 19.0078 12.746 19.033 12.4879 18.9498C12.2296 18.8664 12.0333 18.6998 11.9 18.4498L10.9 16.4498C10.7667 16.1999 10.7458 15.9454 10.8375 15.6871C10.9292 15.429 11.1003 15.2334 11.3502 15.1002Z" fill="black"/>
<path d="M13.4996 10.1002C13.7495 9.96689 14.004 9.94606 14.2623 10.0377C14.5205 10.1293 14.7168 10.2996 14.8502 10.5494L18.3502 17.5504C18.4832 17.8 18.504 18.0498 18.4127 18.2994C18.321 18.5493 18.1499 18.7413 17.9 18.8746C17.65 19.0079 17.3956 19.0331 17.1373 18.9498C16.8791 18.8664 16.6837 18.6997 16.5504 18.4498L13.0504 11.4498C12.9171 11.1998 12.8962 10.9454 12.9879 10.6871C13.0795 10.4292 13.25 10.2334 13.4996 10.1002Z" fill="black"/>
<path d="M6.10018 5.10018C6.35011 4.96692 6.60462 4.94606 6.86287 5.03768C7.12076 5.12932 7.31655 5.29988 7.44979 5.5494L10.9498 12.5504C11.0829 12.8001 11.1038 13.054 11.0123 13.3121C10.9206 13.5704 10.7496 13.7667 10.4996 13.9C10.2498 14.0331 9.99596 14.0539 9.73787 13.9625C9.47958 13.8708 9.2833 13.6998 9.14998 13.4498L5.64998 6.44979C5.51675 6.19985 5.49584 5.94535 5.58748 5.68709C5.67919 5.42897 5.85032 5.23344 6.10018 5.10018Z" fill="black"/>
<path d="M15.5504 5.10018C15.8002 4.96703 16.054 4.94616 16.3121 5.03768C16.5702 5.12928 16.7667 5.29967 16.9 5.5494L19.9 11.5504C20.033 11.8001 20.0539 12.054 19.9625 12.3121C19.8708 12.5704 19.6998 12.7666 19.4498 12.9C19.1998 13.0332 18.9454 13.0541 18.6871 12.9625C18.4289 12.8708 18.2335 12.6997 18.1002 12.4498L15.1002 6.44979C14.9669 6.19984 14.946 5.94537 15.0377 5.68709C15.1294 5.429 15.3005 5.23343 15.5504 5.10018Z" fill="black"/>
<path d="M1.55037 5.10018C1.80019 4.96703 2.05395 4.94616 2.31209 5.03768C2.57025 5.12928 2.76665 5.29967 2.89998 5.5494L5.39998 10.5494C5.53324 10.7993 5.55397 11.0539 5.46248 11.3121C5.37082 11.5704 5.19976 11.7666 4.94979 11.9C4.69983 12.0332 4.44538 12.0541 4.18709 11.9625C3.92894 11.8708 3.73345 11.6997 3.60018 11.4498L1.10018 6.44979C0.966919 6.19984 0.94603 5.94537 1.03768 5.68709C1.12939 5.429 1.30053 5.23343 1.55037 5.10018Z" fill="black"/>
<path d="M10.775 5.10018C11.0249 4.96688 11.275 4.94605 11.525 5.03768C11.7748 5.12931 11.9669 5.29968 12.1002 5.5494L13.1002 7.5494C13.2334 7.79924 13.2541 8.05393 13.1627 8.31209C13.071 8.5704 12.8999 8.76665 12.65 8.89998C12.4 9.03332 12.1456 9.05415 11.8873 8.96248C11.6291 8.87082 11.4337 8.69967 11.3004 8.44979L10.3248 6.44979C10.1916 6.19988 10.1707 5.94533 10.2623 5.68709C10.354 5.42897 10.5251 5.23345 10.775 5.10018Z" fill="black"/>
</svg>
