<svg width="24" height="24" viewBox="0 0 24 24" fill="none" xmlns="http://www.w3.org/2000/svg">
<path d="M9 16.75C9.35 16.75 9.64603 16.8706 9.8877 17.1123C10.1294 17.354 10.25 17.65 10.25 18C10.25 18.3333 10.1293 18.625 9.8877 18.875C9.64603 19.125 9.35 19.25 9 19.25C8.66667 19.25 8.375 19.125 8.125 18.875C7.875 18.625 7.75 18.3333 7.75 18C7.75 17.65 7.875 17.354 8.125 17.1123C8.37498 16.8707 8.66671 16.75 9 16.75Z" fill="black"/>
<path d="M15 16.75C15.35 16.75 15.646 16.8706 15.8877 17.1123C16.1294 17.354 16.25 17.65 16.25 18C16.25 18.3333 16.1293 18.625 15.8877 18.875C15.646 19.125 15.35 19.25 15 19.25C14.6667 19.25 14.375 19.125 14.125 18.875C13.875 18.625 13.75 18.3333 13.75 18C13.75 17.65 13.875 17.354 14.125 17.1123C14.375 16.8707 14.6667 16.75 15 16.75Z" fill="black"/>
<path d="M6 12.75C6.35 12.75 6.64603 12.8706 6.8877 13.1123C7.12936 13.354 7.25 13.65 7.25 14C7.25 14.3333 7.1293 14.625 6.8877 14.875C6.64603 15.125 6.35 15.25 6 15.25C5.66667 15.25 5.375 15.125 5.125 14.875C4.875 14.625 4.75 14.3333 4.75 14C4.75 13.65 4.875 13.354 5.125 13.1123C5.37498 12.8707 5.66671 12.75 6 12.75Z" fill="black"/>
<path d="M12 12.75C12.35 12.75 12.646 12.8706 12.8877 13.1123C13.1294 13.354 13.25 13.65 13.25 14C13.25 14.3333 13.1293 14.625 12.8877 14.875C12.646 15.125 12.35 15.25 12 15.25C11.6667 15.25 11.375 15.125 11.125 14.875C10.875 14.625 10.75 14.3333 10.75 14C10.75 13.65 10.875 13.354 11.125 13.1123C11.375 12.8707 11.6667 12.75 12 12.75Z" fill="black"/>
<path d="M18 12.75C18.35 12.75 18.646 12.8706 18.8877 13.1123C19.1294 13.354 19.25 13.65 19.25 14C19.25 14.3333 19.1293 14.625 18.8877 14.875C18.646 15.125 18.35 15.25 18 15.25C17.6667 15.25 17.375 15.125 17.125 14.875C16.875 14.625 16.75 14.3333 16.75 14C16.75 13.65 16.875 13.354 17.125 13.1123C17.375 12.8707 17.6667 12.75 18 12.75Z" fill="black"/>
<path d="M9 8.75C9.35 8.75 9.64603 8.87064 9.8877 9.1123C10.1294 9.35397 10.25 9.65 10.25 10C10.25 10.3333 10.1293 10.625 9.8877 10.875C9.64603 11.125 9.35 11.25 9 11.25C8.66667 11.25 8.375 11.125 8.125 10.875C7.875 10.625 7.75 10.3333 7.75 10C7.75 9.65 7.875 9.35397 8.125 9.1123C8.37498 8.8707 8.66671 8.75 9 8.75Z" fill="black"/>
<path d="M15 8.75C15.35 8.75 15.646 8.87064 15.8877 9.1123C16.1294 9.35397 16.25 9.65 16.25 10C16.25 10.3333 16.1293 10.625 15.8877 10.875C15.646 11.125 15.35 11.25 15 11.25C14.6667 11.25 14.375 11.125 14.125 10.875C13.875 10.625 13.75 10.3333 13.75 10C13.75 9.65 13.875 9.35397 14.125 9.1123C14.375 8.8707 14.6667 8.75 15 8.75Z" fill="black"/>
<path d="M6 4.75C6.35 4.75 6.64603 4.87064 6.8877 5.1123C7.12936 5.35397 7.25 5.65 7.25 6C7.25 6.33329 7.1293 6.62502 6.8877 6.875C6.64603 7.125 6.35 7.25 6 7.25C5.66667 7.25 5.375 7.125 5.125 6.875C4.875 6.625 4.75 6.33333 4.75 6C4.75 5.65 4.875 5.35397 5.125 5.1123C5.37498 4.8707 5.66671 4.75 6 4.75Z" fill="black"/>
<path d="M12 4.75C12.35 4.75 12.646 4.87064 12.8877 5.1123C13.1294 5.35397 13.25 5.65 13.25 6C13.25 6.33329 13.1293 6.62502 12.8877 6.875C12.646 7.125 12.35 7.25 12 7.25C11.6667 7.25 11.375 7.125 11.125 6.875C10.875 6.625 10.75 6.33333 10.75 6C10.75 5.65 10.875 5.35397 11.125 5.1123C11.375 4.8707 11.6667 4.75 12 4.75Z" fill="black"/>
<path d="M18 4.75C18.35 4.75 18.646 4.87064 18.8877 5.1123C19.1294 5.35397 19.25 5.65 19.25 6C19.25 6.33329 19.1293 6.62502 18.8877 6.875C18.646 7.125 18.35 7.25 18 7.25C17.6667 7.25 17.375 7.125 17.125 6.875C16.875 6.625 16.75 6.33333 16.75 6C16.75 5.65 16.875 5.35397 17.125 5.1123C17.375 4.8707 17.6667 4.75 18 4.75Z" fill="black"/>
</svg>
