<svg width="24" height="24" viewBox="0 0 24 24" fill="none" xmlns="http://www.w3.org/2000/svg">
<path d="M12 20C12.5523 20 13 20.4477 13 21V21.9502C13 22.5025 12.5523 22.9502 12 22.9502C11.4477 22.9502 11 22.5025 11 21.9502V21C11 20.4477 11.4477 20 12 20Z" fill="black"/>
<path d="M17.9395 17.96C18.3263 17.5729 18.9537 17.5722 19.3418 17.958L19.7334 18.3467C20.1236 18.7346 20.1243 19.3658 19.7354 19.7549C19.3463 20.1439 18.7151 20.143 18.3271 19.7529L17.9385 19.3623C17.5527 18.9744 17.5528 18.3469 17.9395 17.96Z" fill="black"/>
<path d="M4.63477 17.9492C5.02366 17.5582 5.65676 17.5565 6.04688 17.9463C6.4356 18.3347 6.43626 18.9647 6.04883 19.3545L5.66504 19.7412C5.27605 20.1325 4.64309 20.1333 4.25293 19.7432C3.86433 19.3546 3.86343 18.7246 4.25098 18.335L4.63477 17.9492Z" fill="black"/>
<path d="M12 6C15.31 6 18 8.69 18 12C17.9999 15.3099 15.3099 18 12 18C8.69007 18 6.00011 15.3099 6 12C6 8.69 8.69 6 12 6Z" fill="black"/>
<path d="M3 11C3.55228 11 4 11.4477 4 12C4 12.5523 3.55228 13 3 13H2C1.44772 13 1 12.5523 1 12C1 11.4477 1.44772 11 2 11H3Z" fill="black"/>
<path d="M22 11C22.5523 11 23 11.4477 23 12C23 12.5523 22.5523 13 22 13H21C20.4477 13 20 12.5523 20 12C20 11.4477 20.4477 11 21 11H22Z" fill="black"/>
<path d="M4.25586 4.25391C4.64504 3.86474 5.27578 3.86385 5.66602 4.25195L6.04688 4.63086C6.4397 5.02156 6.43967 5.65724 6.04688 6.04785C5.65627 6.43577 5.02501 6.43515 4.63574 6.0459L4.25586 5.66602C3.86593 5.27608 3.86593 4.64384 4.25586 4.25391Z" fill="black"/>
<path d="M18.335 4.25488C18.7244 3.86548 19.3557 3.86548 19.7451 4.25488C20.1345 4.64429 20.1345 5.27564 19.7451 5.66504L19.3652 6.04492C18.9758 6.43433 18.3445 6.43433 17.9551 6.04492C17.5657 5.65552 17.5657 5.02417 17.9551 4.63477L18.335 4.25488Z" fill="black"/>
<path d="M12 1.0498C12.5523 1.0498 13 1.49752 13 2.0498V3C13 3.55228 12.5523 4 12 4C11.4477 4 11 3.55228 11 3V2.0498C11 1.49752 11.4477 1.0498 12 1.0498Z" fill="black"/>
</svg>
