<svg width="24" height="24" viewBox="0 0 24 24" fill="none" xmlns="http://www.w3.org/2000/svg">
<path fill-rule="evenodd" clip-rule="evenodd" d="M12 3C12.8333 3 13.5417 3.29167 14.125 3.875C14.7083 4.45833 15 5.16667 15 6V12C15.6333 12.4833 16.1246 13.071 16.4746 13.7627C16.8246 14.4544 17 15.2 17 16C17 17.3833 16.5121 18.5621 15.5371 19.5371C14.5621 20.5121 13.3833 21 12 21C10.6167 21 9.43789 20.5121 8.46289 19.5371C7.48789 18.5621 7 17.3833 7 16C7 15.2 7.17539 14.4544 7.52539 13.7627C7.87539 13.071 8.36667 12.4833 9 12V6C9 5.16667 9.29167 4.45833 9.875 3.875C10.4583 3.29167 11.1667 3 12 3ZM12 5C11.7167 5 11.4788 5.09544 11.2871 5.28711C11.0954 5.47878 11 5.71667 11 6V10H13V6C13 5.71667 12.9046 5.47878 12.7129 5.28711C12.5212 5.09544 12.2833 5 12 5Z" fill="black"/>
</svg>
