<svg width="24" height="24" viewBox="0 0 24 24" fill="none" xmlns="http://www.w3.org/2000/svg">
<path fill-rule="evenodd" clip-rule="evenodd" d="M12 2C17.3299 6.54991 19.9999 10.4798 20 13.7998C20 18.7798 16.2 22 12 22C7.8 22 4 18.7798 4 13.7998C4.0001 10.4798 6.6701 6.54991 12 2ZM8.25098 13.5C7.79121 13.5003 7.43082 13.9203 7.51074 14.3701C8.08073 17.3999 10.5713 18.62 12.7012 18.4902C13.101 18.4701 13.4208 18.14 13.4209 17.7402C13.4209 17.3102 13.0609 16.9702 12.6309 16.9902C11.2709 17.1 9.40123 16.3397 8.99121 14.1201C8.92119 13.7602 8.62091 13.5 8.25098 13.5Z" fill="black"/>
</svg>
