<svg width="24" height="24" viewBox="0 0 24 24" fill="none" xmlns="http://www.w3.org/2000/svg">
<path fill-rule="evenodd" clip-rule="evenodd" d="M12 2C17.5228 2 22 6.47715 22 12C22 17.5228 17.5228 22 12 22C6.47715 22 2 17.5228 2 12C2 6.47715 6.47715 2 12 2ZM16.707 8.70703C16.3165 8.31667 15.6835 8.31667 15.293 8.70703L10.2178 13.7822L8.21777 11.7178C7.83336 11.3216 7.20016 11.312 6.80371 11.6963C6.4075 12.0807 6.39807 12.7139 6.78223 13.1104L9.41895 15.8301C9.84644 16.2708 10.5521 16.2769 10.9863 15.8428L16.707 10.1211C17.0974 9.73059 17.0974 9.09752 16.707 8.70703Z" fill="black"/>
</svg>
