<svg width="24" height="24" viewBox="0 0 24 24" fill="none" xmlns="http://www.w3.org/2000/svg">
<path fill-rule="evenodd" clip-rule="evenodd" d="M14.9961 1.67354C15.2269 1.57441 15.496 1.6615 15.624 1.87764L17.0703 4.32002C17.2103 4.55626 17.4422 4.72404 17.71 4.78487L20.4727 5.4128C20.7172 5.46835 20.8823 5.69632 20.8594 5.946L20.5996 8.77217C20.5745 9.04493 20.6625 9.31696 20.8428 9.52315L22.7129 11.6608C22.8775 11.8491 22.8772 12.1305 22.7129 12.319L20.8408 14.4675C20.6615 14.6734 20.5747 14.9436 20.5996 15.2155L20.8594 18.0437C20.8823 18.2933 20.7172 18.5213 20.4727 18.5769L17.71 19.2048C17.4422 19.2656 17.2103 19.4334 17.0703 19.6696L15.624 22.112C15.496 22.3282 15.2269 22.4152 14.9961 22.3161L12.3955 21.1999C12.1429 21.0915 11.8568 21.0918 11.6045 21.2009L9.00488 22.3249C8.77361 22.4249 8.50411 22.3368 8.37598 22.1198L6.92871 19.6706C6.78885 19.4341 6.55796 19.2658 6.29004 19.2048L3.52735 18.5769C3.28287 18.5213 3.1168 18.2933 3.13965 18.0437L3.40039 15.2067C3.42543 14.9341 3.33748 14.6628 3.15723 14.4567L1.28809 12.319C1.12325 12.1306 1.12325 11.8493 1.28809 11.6608L3.15723 9.52217C3.33741 9.31614 3.42535 9.04571 3.40039 8.77315L3.14063 5.93721C3.11765 5.68713 3.28336 5.45916 3.52832 5.40401L6.28906 4.78389C6.55774 4.72347 6.78931 4.55501 6.92969 4.31807L8.37598 1.87764C8.50403 1.6615 8.77306 1.57441 9.00391 1.67354L11.6055 2.79073C11.8573 2.89881 12.1427 2.89881 12.3945 2.79073L14.9961 1.67354ZM16.207 9.29268C15.8165 8.90216 15.1835 8.90217 14.793 9.29268L11 13.0856L9.70703 11.7927C9.31651 11.4022 8.68349 11.4022 8.29297 11.7927C7.90245 12.1832 7.90245 12.8162 8.29297 13.2067L10.1162 15.03C10.6044 15.5181 11.3956 15.5181 11.8838 15.03L16.207 10.7067C16.5975 10.3162 16.5976 9.6832 16.207 9.29268Z" fill="black"/>
</svg>
