<svg width="24" height="24" viewBox="0 0 24 24" fill="none" xmlns="http://www.w3.org/2000/svg">
<path fill-rule="evenodd" clip-rule="evenodd" d="M12 1C18.0751 1 23 5.92487 23 12C23 18.0751 18.0751 23 12 23C5.92501 22.9998 1 18.075 1 12C1 5.92497 5.92501 1.00017 12 1ZM12 3C7.02958 3.00017 3 7.02954 3 12C3 16.9705 7.02958 20.9998 12 21C16.6325 21 20.4468 17.4999 20.9443 13H10.4141L12.0713 14.6572C12.4615 15.0478 12.4617 15.6809 12.0713 16.0713C11.6809 16.4617 11.0478 16.4615 10.6572 16.0713L7.29297 12.707C6.90273 12.3165 6.90258 11.6834 7.29297 11.293L10.6572 7.92871C11.0477 7.53857 11.6808 7.53856 12.0713 7.92871C12.4617 8.31914 12.4615 8.95223 12.0713 9.34277L10.4141 11H20.9443C20.4468 6.5001 16.6325 3 12 3Z" fill="black"/>
</svg>
