<svg width="24" height="24" viewBox="0 0 24 24" fill="none" xmlns="http://www.w3.org/2000/svg">
<path fill-rule="evenodd" clip-rule="evenodd" d="M18.1543 4.00391C19.7394 4.08421 21 5.39489 21 7V11.1738C22.1647 11.5859 23 12.6941 23 14V20C23 20.5523 22.5523 21 22 21C21.4477 21 21 20.5523 21 20V19H3V20C3 20.5523 2.55228 21 2 21C1.44772 21 1 20.5523 1 20V14C1 12.6941 1.83532 11.5859 3 11.1738V7C3 5.34315 4.34315 4 6 4H18L18.1543 4.00391ZM4 13C3.44772 13 3 13.4477 3 14V17H21V14C21 13.4477 20.5523 13 20 13H4ZM7 10C6.26007 10 5.61546 10.4027 5.26953 11H10.7305C10.3845 10.4027 9.73993 10 9 10H7ZM15 10C14.2601 10 13.6155 10.4027 13.2695 11H18.7305C18.3845 10.4027 17.7399 10 17 10H15ZM6 6C5.44772 6 5 6.44772 5 7V8.53613C5.58845 8.19564 6.27125 8 7 8H9C10.195 8 11.267 8.52463 12 9.35547C12.733 8.52463 13.805 8 15 8H17C17.7288 8 18.4116 8.19564 19 8.53613V7C19 6.44772 18.5523 6 18 6H6Z" fill="black"/>
</svg>
