<svg width="24" height="24" viewBox="0 0 24 24" fill="none" xmlns="http://www.w3.org/2000/svg">
<path d="M7.99609 18C9.09609 18 9.99609 18.9 9.99609 20C9.99609 21.1 9.09609 22 7.99609 22C6.89618 21.9999 6.00586 21.0999 6.00586 20C6.00586 18.9001 6.89618 18.0001 7.99609 18Z" fill="black"/>
<path d="M17.9961 18C19.0961 18 19.9961 18.9 19.9961 20C19.9961 21.1 19.0961 22 17.9961 22C16.8962 21.9999 16.0059 21.0999 16.0059 20C16.0059 18.9001 16.8962 18.0001 17.9961 18Z" fill="black"/>
<path fill-rule="evenodd" clip-rule="evenodd" d="M6.20605 4H21.0059C21.7659 4 22.246 4.82047 21.876 5.48047L18.2959 11.9697C17.9559 12.5897 17.2959 13 16.5459 13H9.09668L7.99609 15H18.9961C19.5484 15 19.9961 15.4477 19.9961 16C19.9961 16.5523 19.5484 17 18.9961 17H7.99609C6.47631 16.9999 5.51642 15.3702 6.24609 14.0303L7.59668 11.5898L3.99609 4H2.99609C2.44389 3.9999 1.99609 3.55222 1.99609 3C1.99609 2.44778 2.44389 2.0001 2.99609 2H5.2666L6.20605 4ZM9.52637 11H16.5459L19.3066 6H7.15625L9.52637 11Z" fill="black"/>
</svg>
