<svg width="24" height="24" viewBox="0 0 24 24" fill="none" xmlns="http://www.w3.org/2000/svg">
<path d="M16.5996 8.72461C16.8829 8.72461 17.1165 8.81678 17.2998 9C17.4831 9.18333 17.5752 9.41686 17.5752 9.7002C17.5752 9.98348 17.4831 10.2171 17.2998 10.4004L12.7002 15C12.6002 15.1 12.4917 15.1712 12.375 15.2129C12.2584 15.2545 12.1333 15.2754 12 15.2754C11.8667 15.2754 11.7416 15.2545 11.625 15.2129C11.5083 15.1712 11.3998 15.1 11.2998 15L6.7002 10.4004C6.51688 10.2171 6.42483 9.98348 6.4248 9.7002C6.4248 9.41686 6.51686 9.18333 6.7002 9C6.88351 8.81675 7.11712 8.72461 7.40039 8.72461C7.68343 8.72468 7.91639 8.81692 8.09961 9L12 12.9004L15.9004 9C16.0836 8.81691 16.3166 8.7247 16.5996 8.72461Z" fill="black"/>
</svg>
