<svg width="24" height="24" viewBox="0 0 24 24" fill="none" xmlns="http://www.w3.org/2000/svg">
<path d="M12 8.72461C12.1333 8.72461 12.2583 8.74642 12.375 8.78809C12.4916 8.82976 12.6002 8.90005 12.7002 9L17.2998 13.6006C17.483 13.7838 17.5751 14.0167 17.5752 14.2998C17.5752 14.5831 17.4831 14.8167 17.2998 15C17.1165 15.1833 16.8829 15.2754 16.5996 15.2754C16.3165 15.2753 16.0836 15.1832 15.9004 15L12 11.1006L8.09961 15C7.91638 15.1832 7.68347 15.2753 7.40039 15.2754C7.11709 15.2754 6.88352 15.1833 6.7002 15C6.51686 14.8167 6.4248 14.5831 6.4248 14.2998C6.42487 14.0167 6.51702 13.7838 6.7002 13.6006L11.2998 9C11.3998 8.90004 11.5084 8.82976 11.625 8.78809C11.7417 8.74642 11.8667 8.72461 12 8.72461Z" fill="black"/>
</svg>
