<svg width="24" height="24" viewBox="0 0 24 24" fill="none" xmlns="http://www.w3.org/2000/svg">
<path d="M12 8.90039C12.2667 8.90039 12.5002 9.0002 12.7002 9.2002L15.7754 12.2754C15.9751 12.4753 16.0751 12.7126 16.0752 12.9873C16.0752 13.2623 15.9753 13.5002 15.7754 13.7002C15.5754 13.8835 15.3375 13.9746 15.0625 13.9746C14.7875 13.9746 14.5583 13.8835 14.375 13.7002L12 11.3252L9.625 13.7002C9.42502 13.9001 9.19143 13.9956 8.9248 13.9873C8.65822 13.9789 8.42456 13.8835 8.22461 13.7002C8.02467 13.5002 7.92044 13.2666 7.91211 13C7.90378 12.7333 8.0002 12.4998 8.2002 12.2998L11.2998 9.2002C11.4998 9.0002 11.7333 8.90039 12 8.90039Z" fill="black"/>
<path fill-rule="evenodd" clip-rule="evenodd" d="M12 2C13.3833 2 14.6837 2.26211 15.9004 2.78711C17.117 3.3121 18.1752 4.02485 19.0752 4.9248C19.9751 5.82476 20.6879 6.88302 21.2129 8.09961C21.7379 9.31628 22 10.6167 22 12C22 13.3833 21.7379 14.6837 21.2129 15.9004C20.6879 17.117 19.9751 18.1752 19.0752 19.0752C18.1752 19.9751 17.117 20.6879 15.9004 21.2129C14.6837 21.7379 13.3833 22 12 22C10.6167 22 9.31628 21.7379 8.09961 21.2129C6.88302 20.6879 5.82476 19.9751 4.9248 19.0752C4.02485 18.1752 3.3121 17.117 2.78711 15.9004C2.26211 14.6837 2 13.3833 2 12C2 10.6167 2.26211 9.31628 2.78711 8.09961C3.3121 6.88302 4.02485 5.82476 4.9248 4.9248C5.82476 4.02485 6.88302 3.3121 8.09961 2.78711C9.31628 2.26211 10.6167 2 12 2ZM12 4C9.76667 4 7.8752 4.7752 6.3252 6.3252C4.7752 7.8752 4 9.76667 4 12C4 14.2333 4.7752 16.1248 6.3252 17.6748C7.8752 19.2248 9.76667 20 12 20C14.2333 20 16.1248 19.2248 17.6748 17.6748C19.2248 16.1248 20 14.2333 20 12C20 9.76667 19.2248 7.8752 17.6748 6.3252C16.1248 4.7752 14.2333 4 12 4Z" fill="black"/>
</svg>
