<svg width="24" height="24" viewBox="0 0 24 24" fill="none" xmlns="http://www.w3.org/2000/svg">
<path d="M14.2998 6.4248C14.5831 6.4248 14.8167 6.51686 15 6.7002C15.1833 6.88352 15.2754 7.1171 15.2754 7.40039C15.2753 7.68345 15.1831 7.91638 15 8.09961L11.0996 12L15 15.9004C15.1831 16.0836 15.2753 16.3166 15.2754 16.5996C15.2754 16.8829 15.1832 17.1165 15 17.2998C14.8167 17.4831 14.5831 17.5752 14.2998 17.5752C14.0165 17.5752 13.7829 17.4831 13.5996 17.2998L9 12.7002C8.9 12.6002 8.82878 12.4917 8.78711 12.375C8.74548 12.2584 8.72461 12.1333 8.72461 12C8.72461 11.8667 8.74547 11.7416 8.78711 11.625C8.82878 11.5083 8.9 11.3998 9 11.2998L13.5996 6.7002C13.7829 6.5169 14.0165 6.42484 14.2998 6.4248Z" fill="black"/>
</svg>
