<svg width="24" height="24" viewBox="0 0 24 24" fill="none" xmlns="http://www.w3.org/2000/svg">
<path fill-rule="evenodd" clip-rule="evenodd" d="M11.4775 2.20316C11.7769 2.12217 12.0907 2.11212 12.3936 2.17289L12.5225 2.20316L12.6826 2.25589C13.0467 2.39601 13.3533 2.65251 13.5967 2.84183L20.3789 8.11722C20.7872 8.43479 21.1481 8.70471 21.4121 9.06156C21.6288 9.35464 21.7904 9.68522 21.8887 10.0362C21.9783 10.3568 21.9967 10.6908 22 11.0557V17.667C22 18.21 22.001 18.6781 21.9697 19.0616C21.9374 19.4566 21.8654 19.8504 21.6729 20.2285C21.3853 20.7927 20.9265 21.2525 20.3623 21.5401C19.9842 21.7327 19.5904 21.8037 19.1953 21.836C18.8117 21.8673 18.3432 21.8672 17.7998 21.8672H6.2002C5.65677 21.8672 5.1883 21.8673 4.80469 21.836C4.40959 21.8037 4.01585 21.7327 3.6377 21.5401C3.07351 21.2525 2.61472 20.7927 2.32715 20.2285C2.13458 19.8504 2.06259 19.4566 2.03027 19.0616C2.01465 18.8701 2.00763 18.6571 2.00391 18.4248L2 17.667V11.0557C2.00325 10.6908 2.02166 10.3568 2.11133 10.0362C2.20963 9.68522 2.37125 9.35463 2.58789 9.06156C2.85185 8.70472 3.21278 8.43478 3.62109 8.11722L10.4033 2.84183C10.6816 2.6254 11.0424 2.32105 11.4775 2.20316ZM11.9932 4.14847C11.9181 4.19865 11.8182 4.275 11.6318 4.41996L4.84961 9.69535C4.35286 10.0817 4.25876 10.1657 4.19629 10.25C4.1242 10.3476 4.06987 10.4584 4.03711 10.5752C4.00891 10.6763 4 10.8022 4 11.4317V17.667L4.00293 18.3926C4.00602 18.593 4.01285 18.7579 4.02441 18.8994C4.0466 19.1702 4.08421 19.2719 4.10938 19.3213C4.20523 19.509 4.35816 19.6621 4.5459 19.7578C4.59543 19.783 4.69679 19.8207 4.96777 19.8428C5.25107 19.8659 5.62382 19.8672 6.2002 19.8672H17.7998C18.3762 19.8672 18.7489 19.8659 19.0322 19.8428C19.3032 19.8207 19.4046 19.783 19.4541 19.7578C19.6418 19.6621 19.7948 19.509 19.8906 19.3213C19.9158 19.2719 19.9534 19.1702 19.9756 18.8994C19.9987 18.6162 20 18.2431 20 17.667V11.4317C20 10.8022 19.9911 10.6763 19.9629 10.5752C19.9301 10.4584 19.8758 10.3476 19.8037 10.25C19.7412 10.1657 19.6472 10.0817 19.1504 9.69535L12.3682 4.41996C12.1818 4.27499 12.0819 4.19865 12.0068 4.14847L12 4.14359L11.9932 4.14847Z" fill="black"/>
<path d="M15.0518 13.6837C15.2265 13.1599 15.7926 12.8772 16.3164 13.0518C16.8402 13.2266 17.1229 13.7926 16.9482 14.3165C15.3628 19.0718 8.63715 19.0718 7.05176 14.3165C6.87714 13.7926 7.15984 13.2266 7.68359 13.0518C8.20744 12.8772 8.77348 13.1599 8.94824 13.6837C9.92569 16.616 14.0743 16.616 15.0518 13.6837Z" fill="black"/>
</svg>
