<svg width="24" height="24" viewBox="0 0 24 24" fill="none" xmlns="http://www.w3.org/2000/svg">
<path d="M17.2051 6C17.7573 6.00003 18.2051 6.44773 18.2051 7V17C18.2051 17.5523 17.7573 18 17.2051 18C16.6528 18 16.2051 17.5523 16.2051 17V7C16.2051 6.44772 16.6528 6 17.2051 6Z" fill="black"/>
<path d="M6.5 6.70508C6.88936 6.31572 7.5208 6.31572 7.91016 6.70508L13.2051 12L7.91016 17.2949C7.5208 17.6843 6.88936 17.6843 6.5 17.2949C6.1107 16.9056 6.11066 16.2741 6.5 15.8848L10.3848 12L6.5 8.11523C6.11066 7.72589 6.1107 7.09444 6.5 6.70508Z" fill="black"/>
</svg>
