<svg width="24" height="24" viewBox="0 0 24 24" fill="none" xmlns="http://www.w3.org/2000/svg">
<path fill-rule="evenodd" clip-rule="evenodd" d="M20.5 3C20.78 3 21 3.22 21 3.5V18.6201C20.9999 18.8501 20.8496 19.0296 20.6396 19.0996L15 21L9 18.9004L3.66016 20.9697L3.5 21C3.22 21 3 20.78 3 20.5V5.37988C3.00005 5.14994 3.15039 4.97038 3.36035 4.90039L9 3L15 5.09961L20.3398 3.03027L20.5 3ZM16 6.86035V18.5498L19 17.54V5.7002L16 6.86035ZM10 17.1299L14 18.5303V6.87012L10 5.46973V17.1299ZM5 6.45996V18.3096L8 17.1504V5.4502L5 6.45996Z" fill="black"/>
</svg>
