<svg width="24" height="24" viewBox="0 0 24 24" fill="none" xmlns="http://www.w3.org/2000/svg">
<path fill-rule="evenodd" clip-rule="evenodd" d="M11.7852 7.01399C11.9988 6.98668 12.2163 7.00052 12.4258 7.05501C12.7909 7.14999 13.0906 7.39586 13.2539 7.5179L17.7754 10.8968C18.0314 11.0881 18.3189 11.2928 18.5313 11.5687C18.7026 11.7914 18.8323 12.044 18.9112 12.3148C19.0097 12.6531 19 13.0066 19 13.3158V17.9505C19 18.2918 19.0011 18.6106 18.9786 18.8763C18.9549 19.1548 18.8998 19.4641 18.7383 19.7689C18.5091 20.201 18.1475 20.5459 17.712 20.7591C17.4085 20.9076 17.1014 20.9577 16.8204 20.9798C16.5499 21.001 16.2236 21.0003 15.8663 21.0003H8.13383C7.7765 21.0003 7.4502 21.001 7.17973 20.9798C6.89864 20.9577 6.59159 20.9077 6.28813 20.7591C5.85259 20.5459 5.49095 20.201 5.26176 19.7689C5.10025 19.4641 5.04523 19.1548 5.02153 18.8763C4.99896 18.6106 5.00004 18.2918 5.00004 17.9505V13.3158C5.00004 13.0066 4.9904 12.6531 5.08891 12.3148C5.1678 12.044 5.29751 11.7913 5.46879 11.5687C5.68115 11.2928 5.96866 11.0881 6.22465 10.8968L10.7461 7.5179C10.9094 7.39587 11.2092 7.15001 11.5743 7.05501L11.7852 7.01399ZM11.9434 9.11946L7.42192 12.4993C7.26317 12.618 7.17397 12.6849 7.10942 12.7386C7.07454 12.7676 7.05893 12.7829 7.05375 12.7884C7.03257 12.816 7.01825 12.8454 7.00981 12.8743C7.00856 12.8831 7.00673 12.9019 7.00492 12.9349C7.00059 13.0146 7.00004 13.1217 7.00004 13.3158V17.9505C7.00004 18.3263 7.00097 18.5459 7.01469 18.7074C7.02101 18.7815 7.02826 18.8207 7.03227 18.8372C7.05916 18.8852 7.10425 18.931 7.16801 18.9622C7.18287 18.9666 7.2299 18.9773 7.33598 18.9857C7.51008 18.9993 7.74467 19.0003 8.13383 19.0003H9.00004V15.2601C9.00004 15.098 8.99924 14.9132 9.01274 14.7542C9.02737 14.5824 9.0643 14.3527 9.1895 14.1165L9.2559 14.0023C9.42046 13.7446 9.6528 13.5394 9.92387 13.4066C10.156 13.2929 10.3809 13.2607 10.5508 13.2474C10.7101 13.2349 10.8958 13.2347 11.0664 13.2347H12.9336C13.1043 13.2347 13.29 13.2349 13.4493 13.2474C13.5766 13.2574 13.7346 13.2776 13.9034 13.3353L14.0762 13.4066L14.1895 13.4681C14.412 13.5992 14.6031 13.7813 14.7442 14.0023L14.8106 14.1165L14.8897 14.2913C14.9535 14.4636 14.9764 14.6254 14.9873 14.7542C15.0008 14.9132 15 15.098 15 15.2601V19.0003H15.8663C16.2554 19.0003 16.49 18.9993 16.6641 18.9857C16.7699 18.9774 16.8171 18.9666 16.8321 18.9622C16.8956 18.9311 16.9399 18.885 16.9668 18.8372C16.9708 18.8209 16.979 18.7819 16.9854 18.7074C16.9991 18.5459 17 18.3263 17 17.9505V13.3158C17 13.1217 16.9995 13.0146 16.9952 12.9349C16.9933 12.9019 16.9915 12.8831 16.9903 12.8743C16.9818 12.8454 16.9675 12.816 16.9463 12.7884C16.9411 12.7829 16.9256 12.7677 16.8907 12.7386C16.8261 12.6849 16.737 12.618 16.5782 12.4993L12.0567 9.11946C12.0363 9.10423 12.0173 9.09035 12 9.07747C11.9828 9.09034 11.9637 9.10426 11.9434 9.11946ZM11 19.0003H13V15.2601C13 15.2515 12.9991 15.2429 12.9991 15.2347H11V19.0003Z" fill="black"/>
<path d="M7.1602 3.04622C7.38255 2.98525 7.61753 2.98524 7.83989 3.04622C8.09795 3.11713 8.31584 3.29003 8.4893 3.42805L10.7784 5.23177C10.2226 5.45426 9.82096 5.79072 9.69731 5.88997L4.84574 9.71516C4.65456 9.86553 4.27273 10.1523 3.93656 10.556L3.79594 10.7366C3.50149 11.1403 3.28313 11.5937 3.15043 12.0736C3.02753 12.5187 3.00379 12.9583 3.00004 13.2679V15.9866C2.93846 15.9839 2.87936 15.9845 2.82328 15.9798C2.56641 15.9585 2.31034 15.9114 2.06449 15.7845C1.69786 15.5951 1.39983 15.2918 1.21293 14.9202C1.08797 14.6714 1.04058 14.4126 1.01957 14.1527C0.99971 13.9062 1.00003 13.6059 1.00004 13.2591V9.06087C0.999707 8.74722 0.999666 8.46985 1.07231 8.20637C1.13621 7.97521 1.24108 7.75684 1.38188 7.5638C1.54254 7.34367 1.75926 7.17325 2.00395 6.98079L6.51078 3.42805C6.68421 3.29006 6.9022 3.11716 7.1602 3.04622Z" fill="black"/>
<path d="M16.1602 3.04622C16.3826 2.98525 16.6175 2.98524 16.8399 3.04622C17.098 3.11713 17.3158 3.29003 17.4893 3.42805L21.9961 6.98079C22.2408 7.17324 22.4575 7.34368 22.6182 7.5638C22.759 7.75685 22.8639 7.9752 22.9278 8.20637C23.0004 8.46987 23.0004 8.7472 23 9.06087V13.2591C23.0001 13.6059 23.0004 13.9061 22.9805 14.1527C22.9595 14.4126 22.9121 14.6714 22.7872 14.9202C22.6002 15.2919 22.3022 15.5951 21.9356 15.7845C21.6898 15.9114 21.4336 15.9585 21.1768 15.9798C21.1207 15.9845 21.0616 15.9839 21 15.9866V13.2679C20.9963 12.9583 20.9725 12.5197 20.8497 12.0745C20.7335 11.6544 20.5516 11.2538 20.3106 10.89L20.2041 10.7366L20.0635 10.556C19.7273 10.1522 19.3465 9.86553 19.1553 9.71516L14.3028 5.88997C14.179 5.79062 13.7771 5.45418 13.2207 5.23177L15.5108 3.42805C15.6842 3.29006 15.9022 3.11716 16.1602 3.04622Z" fill="black"/>
</svg>
