<svg width="24" height="24" viewBox="0 0 24 24" fill="none" xmlns="http://www.w3.org/2000/svg">
<path d="M5 4C5.28333 4 5.52122 4.09544 5.71289 4.28711C5.90456 4.47878 6 4.71667 6 5V19C6 19.2833 5.90456 19.5212 5.71289 19.7129C5.52122 19.9046 5.28333 20 5 20C4.71667 20 4.47878 19.9046 4.28711 19.7129C4.09544 19.5212 4 19.2833 4 19V5C4 4.71667 4.09544 4.47878 4.28711 4.28711C4.47878 4.09544 4.71667 4 5 4Z" fill="black"/>
<path d="M12 16C12.2833 16 12.5212 16.0954 12.7129 16.2871C12.9046 16.4788 13 16.7167 13 17V19C13 19.2833 12.9046 19.5212 12.7129 19.7129C12.5212 19.9046 12.2833 20 12 20C11.7167 20 11.4788 19.9046 11.2871 19.7129C11.0954 19.5212 11 19.2833 11 19V17C11 16.7167 11.0954 16.4788 11.2871 16.2871C11.4788 16.0954 11.7167 16 12 16Z" fill="black"/>
<path d="M19 4C19.2833 4 19.5212 4.09544 19.7129 4.28711C19.9046 4.47878 20 4.71667 20 5V19C20 19.2833 19.9046 19.5212 19.7129 19.7129C19.5212 19.9046 19.2833 20 19 20C18.7167 20 18.4788 19.9046 18.2871 19.7129C18.0954 19.5212 18 19.2833 18 19V5C18 4.71667 18.0954 4.47878 18.2871 4.28711C18.4788 4.09544 18.7167 4 19 4Z" fill="black"/>
<path d="M12 10C12.2833 10 12.5212 10.0954 12.7129 10.2871C12.9046 10.4788 13 10.7167 13 11V13C13 13.2833 12.9046 13.5212 12.7129 13.7129C12.5212 13.9046 12.2833 14 12 14C11.7167 14 11.4788 13.9046 11.2871 13.7129C11.0954 13.5212 11 13.2833 11 13V11C11 10.7167 11.0954 10.4788 11.2871 10.2871C11.4788 10.0954 11.7167 10 12 10Z" fill="black"/>
<path d="M12 4C12.2833 4 12.5212 4.09544 12.7129 4.28711C12.9046 4.47878 13 4.71667 13 5V7C13 7.28333 12.9046 7.52122 12.7129 7.71289C12.5212 7.90456 12.2833 8 12 8C11.7167 8 11.4788 7.90456 11.2871 7.71289C11.0954 7.52122 11 7.28333 11 7V5C11 4.71667 11.0954 4.47878 11.2871 4.28711C11.4788 4.09544 11.7167 4 12 4Z" fill="black"/>
</svg>
