<svg width="24" height="24" viewBox="0 0 24 24" fill="none" xmlns="http://www.w3.org/2000/svg">
<path d="M16.1934 18.8129C16.6234 18.5484 17.1872 18.5796 17.543 18.9379L17.5635 18.9584C17.9795 19.3773 17.9461 20.0682 17.4512 20.39C16.4476 21.0427 15.3198 21.521 14.1104 21.7797C13.5323 21.9031 13.0208 21.4372 13.0205 20.8461V20.8148C13.0205 20.3099 13.3987 19.8908 13.8896 19.7728C14.7148 19.5747 15.4889 19.2463 16.1934 18.8129Z" fill="black"/>
<path d="M9.88379 2.22792C10.4635 2.10064 10.9802 2.56709 10.9805 3.16054V3.19374C10.9805 3.6952 10.606 4.1127 10.1191 4.23281C6.62514 5.09482 4.03027 8.25228 4.03027 12.0004C4.03041 15.7483 6.62528 18.905 10.1191 19.767C10.606 19.8871 10.9804 20.3047 10.9805 20.806V20.8393C10.9804 21.4329 10.4635 21.9001 9.88379 21.7728C5.39207 20.7855 2.03041 16.7787 2.03027 12.0004C2.03027 7.22195 5.39198 3.21525 9.88379 2.22792Z" fill="black"/>
<path d="M20.8652 13.0004C21.4567 13.0004 21.9235 13.5129 21.7998 14.0912C21.5411 15.3006 21.0618 16.4276 20.4092 17.431C20.0873 17.9258 19.3974 17.96 18.9785 17.5443L18.957 17.5228C18.5991 17.167 18.5685 16.6032 18.833 16.1732C19.2664 15.4688 19.5949 14.6947 19.793 13.8695C19.9109 13.3788 20.3293 13.0006 20.834 13.0004H20.8652Z" fill="black"/>
<path fill-rule="evenodd" clip-rule="evenodd" d="M12 7.00038C14.1 7.00038 15.9999 8.61005 16 11.1C16 12.76 14.67 14.7304 12 17.0004C9.33 14.7304 8 12.76 8 11.1C8.00005 8.61007 9.90004 7.0004 12 7.00038ZM12 9.85976C11.41 9.85978 10.9297 10.3401 10.9297 10.9301C10.9297 11.5201 11.41 12.0004 12 12.0004C12.59 12.0004 13.0703 11.5201 13.0703 10.9301C13.0703 10.3401 12.59 9.85976 12 9.85976Z" fill="black"/>
<path d="M18.9785 6.46132C19.397 6.04316 20.0897 6.07654 20.4121 6.57265C21.0636 7.57532 21.5414 8.7015 21.7998 9.90956C21.9234 10.4878 21.4566 11.0004 20.8652 11.0004H20.834C20.3292 11.0002 19.9109 10.6212 19.793 10.1303C19.5953 9.30716 19.2679 8.53586 18.8359 7.83632C18.5705 7.40647 18.5989 6.84205 18.9561 6.48476L18.9785 6.46132Z" fill="black"/>
<path d="M13.0205 3.15468C13.0207 2.56325 13.533 2.09692 14.1113 2.22109C15.3172 2.48003 16.4469 2.95861 17.4512 3.61074C17.9462 3.9323 17.9794 4.62253 17.5635 5.0414L17.543 5.06288C17.1872 5.42103 16.6234 5.45146 16.1934 5.18691C15.4889 4.75351 14.7148 4.42603 13.8896 4.22792C13.3987 4.11005 13.0206 3.69084 13.0205 3.18593V3.15468Z" fill="black"/>
</svg>
