<svg width="24" height="24" viewBox="0 0 24 24" fill="none" xmlns="http://www.w3.org/2000/svg">
<path d="M12.0001 13C12.4166 13.0001 12.771 13.1459 13.0626 13.4375C13.3542 13.7291 13.5001 14.0834 13.5001 14.5C13.5001 14.9166 13.3542 15.2709 13.0626 15.5625C12.771 15.8541 12.4166 15.9999 12.0001 16C11.5835 16 11.2293 15.854 10.9376 15.5625C10.646 15.2708 10.5001 14.9167 10.5001 14.5C10.5001 14.0833 10.646 13.7292 10.9376 13.4375C11.2293 13.146 11.5835 13 12.0001 13Z" fill="black"/>
<path fill-rule="evenodd" clip-rule="evenodd" d="M12.0001 8.5C13.6833 8.50009 15.1046 9.09989 16.2628 10.2998C17.421 11.4998 18.0001 12.9505 18.0001 14.6504C18.0001 15.2169 17.8915 15.8084 17.6749 16.4248C17.4583 17.0414 17.137 17.6873 16.712 18.3623C16.2871 19.0372 15.7661 19.7292 15.1495 20.4375C14.533 21.1457 13.8166 21.8751 13.0001 22.625C12.8668 22.7583 12.7121 22.8538 12.5372 22.9121C12.3624 22.9704 12.1833 23 12.0001 23C11.8169 23 11.637 22.9704 11.462 22.9121C11.2873 22.8538 11.1333 22.7581 11.0001 22.625C10.1835 21.875 9.46638 21.1458 8.84973 20.4375C8.23315 19.7293 7.71219 19.0372 7.28723 18.3623C6.86233 17.6874 6.54196 17.0414 6.32532 16.4248C6.10872 15.8083 6.00017 15.2169 6.00012 14.6504C6.00012 12.9504 6.5791 11.4998 7.73743 10.2998C8.89573 9.09993 10.3169 8.5 12.0001 8.5ZM12.0001 10.5C10.8835 10.5 9.93721 10.9046 9.16223 11.7129C8.38745 12.5212 8.00012 13.5006 8.00012 14.6504C8.00025 15.4003 8.35451 16.3207 9.06262 17.4121C9.77095 18.5037 10.7502 19.6419 12.0001 20.8252C13.2501 19.6419 14.2293 18.5037 14.9376 17.4121C15.6456 16.3208 16 15.4002 16.0001 14.6504C16.0001 13.5004 15.612 12.5212 14.837 11.7129C14.0621 10.9047 13.1166 10.5001 12.0001 10.5Z" fill="black"/>
<path fill-rule="evenodd" clip-rule="evenodd" d="M11.9601 4.59961C12.6169 4.5997 13.2502 4.70956 13.8556 4.92969C14.3841 5.12194 14.8733 5.38899 15.3204 5.72949L15.5099 5.88086L15.5128 5.88281C15.698 6.03974 15.8032 6.2518 15.8175 6.49414C15.832 6.74085 15.7473 6.96644 15.5724 7.1416L15.5714 7.14062C15.4073 7.31284 15.194 7.4002 14.9601 7.40039C14.7362 7.40035 14.5306 7.32467 14.3585 7.18262V7.18457C14.0165 6.91381 13.6409 6.7056 13.2316 6.55957C12.8247 6.41453 12.401 6.34091 11.9601 6.34082C11.5181 6.34084 11.0956 6.41237 10.6925 6.55371C10.2881 6.69563 9.91439 6.90216 9.57239 7.17285L9.57141 7.17188C9.39657 7.31566 9.18722 7.38834 8.96008 7.38184C8.73567 7.37519 8.52865 7.29562 8.36048 7.1416L8.35364 7.13574L8.34778 7.12988C8.17523 6.95728 8.08671 6.73439 8.10169 6.4873C8.11642 6.24539 8.22499 6.03717 8.40735 5.88281L8.41028 5.88086C8.908 5.46756 9.46039 5.14941 10.0646 4.92969C10.67 4.70965 11.3033 4.59963 11.9601 4.59961ZM14.6652 6.91406C14.6691 6.9166 14.6739 6.91847 14.6779 6.9209C14.6536 6.90599 14.6292 6.88929 14.6066 6.87012L14.6652 6.91406ZM15.3947 6.69238C15.4035 6.66721 15.4113 6.64135 15.4152 6.61426V6.6084C15.411 6.63741 15.404 6.66546 15.3947 6.69238ZM10.8986 6.07324C10.7845 6.10263 10.6714 6.13759 10.5597 6.17676C10.6152 6.15728 10.6715 6.13913 10.7277 6.12207C10.7842 6.1049 10.8414 6.08796 10.8986 6.07324ZM13.9464 5.39551C13.94 5.3928 13.9334 5.3894 13.9269 5.38672L13.7179 5.30566C13.7948 5.33363 13.8714 5.36415 13.9464 5.39551Z" fill="black"/>
<path d="M12.0001 1C13.2378 1.00004 14.4242 1.20353 15.5587 1.61133C16.6933 2.01917 17.729 2.60837 18.6652 3.37695C18.8711 3.54941 18.9823 3.76877 18.9982 4.03516C19.014 4.30176 18.9268 4.52956 18.7365 4.71777C18.5619 4.90595 18.3391 4.99994 18.0695 5C17.7999 4.99992 17.5618 4.9136 17.3556 4.74121C16.594 4.14525 15.7571 3.68581 14.8449 3.36426C13.9325 3.04273 12.9839 2.88285 12.0001 2.88281C11.0163 2.88281 10.0716 3.03886 9.16712 3.35254C8.2627 3.66624 7.42972 4.12178 6.66809 4.71777C6.46194 4.89019 6.22377 4.97257 5.95423 4.96484C5.6846 4.95701 5.45416 4.8667 5.2638 4.69434C5.07337 4.5061 4.98621 4.28226 5.00208 4.02344C5.01797 3.76477 5.12897 3.54944 5.33508 3.37695C6.27131 2.60838 7.30696 2.01915 8.44153 1.61133C9.57602 1.20359 10.7625 1 12.0001 1Z" fill="black"/>
</svg>
