<svg width="24" height="24" viewBox="0 0 24 24" fill="none" xmlns="http://www.w3.org/2000/svg">
<path fill-rule="evenodd" clip-rule="evenodd" d="M12 3C16.9707 3 21 7.02931 21 12C21 16.9707 16.9707 21 12 21C7.02931 21 3 16.9707 3 12C3 7.02931 7.02931 3 12 3ZM13.1621 5.63086C13.162 5.94127 12.91 6.19311 12.5996 6.19336H11.7207C11.5328 6.19336 11.3571 6.28708 11.2529 6.44336L10.96 6.88281C10.8823 6.9993 10.7637 7.08307 10.6279 7.11719L10.1035 7.24805C9.85312 7.31084 9.67773 7.53593 9.67773 7.79395V7.95312C9.67773 8.26377 9.92959 8.51562 10.2402 8.51562H13.5078C13.5815 8.51561 13.6545 8.53043 13.7227 8.55859C13.7909 8.58685 13.8531 8.62847 13.9053 8.68066L14.1562 8.93164C14.2619 9.03725 14.4055 9.09668 14.5547 9.09668H14.9209C15.2314 9.09682 15.4834 9.34862 15.4834 9.65918C15.4833 9.90107 15.3282 10.1158 15.0986 10.1924L13.3818 10.7646C13.2403 10.8118 13.0857 10.8011 12.9521 10.7344L12.418 10.4668C12.1429 10.329 11.8389 10.2578 11.5312 10.2578H11.499C11.0701 10.258 10.6527 10.397 10.3096 10.6543L9.30859 11.4053C8.80967 11.7798 8.51562 12.3674 8.51562 12.9912V13.501C8.51573 14.0268 8.72498 14.5314 9.09668 14.9033C9.46858 15.2748 9.97238 15.4833 10.498 15.4834H11.4375C11.748 15.4834 11.9997 15.7355 12 16.0459V17.1309C12 17.5754 12.1039 18.0145 12.3027 18.4121C12.4734 18.753 12.8219 18.9688 13.2031 18.9688C13.3689 18.9687 13.5326 18.9278 13.6787 18.8496C13.8248 18.7714 13.9491 18.6574 14.041 18.5195L14.5137 17.8105C14.7724 17.4226 15.077 17.0669 15.4209 16.752C15.5105 16.6696 15.5713 16.5608 15.5938 16.4414L15.75 15.6133C15.766 15.5288 15.8011 15.4488 15.8525 15.3799L16.5322 14.4736C16.6052 14.3764 16.6455 14.2573 16.6455 14.1357V13.7246C16.6455 13.4141 16.3935 13.1623 16.083 13.1621H15.7852C15.5972 13.1621 15.4215 13.0675 15.3174 12.9111L14.8369 12.1904C14.6312 11.8817 14.7742 11.4621 15.126 11.3447L15.2227 11.3135C15.3039 11.2865 15.3907 11.2777 15.4756 11.2891C15.5603 11.3005 15.6417 11.3315 15.7129 11.3789L16.373 11.8193C16.4555 11.8744 16.5514 11.9069 16.6504 11.9131C16.7492 11.9193 16.8479 11.8988 16.9365 11.8545L17.4951 11.5752C17.6856 11.4801 17.8066 11.2852 17.8066 11.0723V10.8203C17.8068 10.5098 18.0586 10.2578 18.3691 10.2578H19.0381C18.346 7.46439 16.0368 5.30886 13.1621 4.84277V5.63086Z" fill="black"/>
</svg>
