<svg width="24" height="24" viewBox="0 0 24 24" fill="none" xmlns="http://www.w3.org/2000/svg">
<path d="M17 7.39941C17.2667 7.39942 17.5002 7.5002 17.7002 7.7002L21.2998 11.2998C21.3998 11.3998 21.471 11.5083 21.5127 11.625C21.5543 11.7416 21.5752 11.8667 21.5752 12C21.5752 12.1333 21.5544 12.2584 21.5127 12.375C21.471 12.4917 21.3998 12.6002 21.2998 12.7002L17.7002 16.2998C17.5002 16.4998 17.2667 16.5996 17 16.5996C16.7333 16.5996 16.4998 16.4998 16.2998 16.2998C16.1 16.1 16.0001 15.8626 16 15.5879C16 15.313 16.0999 15.075 16.2998 14.875L18.1748 13H5.8252L7.7002 14.875C7.88344 15.075 7.97897 15.313 7.9873 15.5879C7.99551 15.8626 7.89997 16.1 7.7002 16.2998C7.5002 16.4998 7.26666 16.5996 7 16.5996C6.73333 16.5996 6.4998 16.4998 6.2998 16.2998L2.7002 12.7002C2.6002 12.6002 2.52897 12.4917 2.4873 12.375C2.44565 12.2584 2.42481 12.1333 2.4248 12C2.4248 11.8667 2.44567 11.7416 2.4873 11.625C2.52897 11.5083 2.6002 11.3998 2.7002 11.2998L6.2998 7.7002C6.4998 7.5002 6.73333 7.39941 7 7.39941C7.26666 7.39942 7.5002 7.5002 7.7002 7.7002C7.89996 7.90007 7.99993 8.13735 8 8.41211C8 8.68708 7.90016 8.92501 7.7002 9.125L5.8252 11H18.1748L16.2998 9.125C16.1165 8.92501 16.021 8.68709 16.0127 8.41211C16.0044 8.13734 16.1 7.90008 16.2998 7.7002C16.4998 7.5002 16.7333 7.39941 17 7.39941Z" fill="black"/>
</svg>
