<svg width="24" height="24" viewBox="0 0 24 24" fill="none" xmlns="http://www.w3.org/2000/svg">
<path d="M11.7754 4.41797C12.0502 4.41805 12.2874 4.51021 12.4873 4.69336C12.6873 4.89336 12.7871 5.13125 12.7871 5.40625C12.787 5.68111 12.6872 5.91824 12.4873 6.11816L7.6123 10.9932H18.7871C19.0704 10.9932 19.3083 11.0896 19.5 11.2812C19.6915 11.4728 19.787 11.71 19.7871 11.9932C19.7871 12.2765 19.6917 12.5144 19.5 12.7061C19.3083 12.8977 19.0704 12.9932 18.7871 12.9932H7.6123L12.5127 17.8936C12.7126 18.0935 12.8081 18.3271 12.7998 18.5938C12.7914 18.8603 12.6872 19.094 12.4873 19.2939C12.2874 19.4771 12.0536 19.5727 11.7871 19.5811C11.5208 19.5893 11.2877 19.4936 11.0879 19.2939L4.4873 12.6934C4.38739 12.5934 4.31704 12.4848 4.27539 12.3682C4.23376 12.2515 4.21289 12.1264 4.21289 11.9932C4.21292 11.8599 4.23375 11.7347 4.27539 11.6182C4.31703 11.5018 4.3876 11.3937 4.4873 11.2939L11.0879 4.69336C11.2712 4.51018 11.5005 4.41797 11.7754 4.41797Z" fill="black"/>
</svg>
