<svg width="24" height="24" viewBox="0 0 24 24" fill="none" xmlns="http://www.w3.org/2000/svg">
<path d="M12 1C17.738 1 22.4478 5.39359 22.9531 11H10.4141L12.0713 9.34277C12.4614 8.95222 12.4617 8.31911 12.0713 7.92871C11.6809 7.53864 11.0477 7.53866 10.6572 7.92871L7.29297 11.293C6.9026 11.6834 6.90279 12.3165 7.29297 12.707L10.6572 16.0713C11.0478 16.4615 11.6809 16.4617 12.0713 16.0713C12.4616 15.6809 12.4615 15.0478 12.0713 14.6572L10.4141 13H22.9531C22.4478 18.6064 17.738 23 12 23C5.92487 23 1 18.0751 1 12C1 5.92487 5.92487 1 12 1Z" fill="black"/>
</svg>
