<svg width="24" height="24" viewBox="0 0 24 24" fill="none" xmlns="http://www.w3.org/2000/svg">
<path d="M20 11C21.6569 11 23 12.3431 23 14V20C23 20.5523 22.5523 21 22 21C21.4477 21 21 20.5523 21 20V19H3V20C3 20.5523 2.55228 21 2 21C1.44772 21 1 20.5523 1 20V14C1 12.3431 2.34315 11 4 11H20Z" fill="black"/>
<path d="M18 4C18.2315 4 18.4564 4.02848 18.6729 4.07812C18.7179 4.08846 18.7624 4.09997 18.8066 4.1123C18.8559 4.12605 18.9049 4.14009 18.9531 4.15625C18.9953 4.17039 19.0368 4.1862 19.0781 4.20215C19.1265 4.2208 19.1746 4.23969 19.2217 4.26074C19.2658 4.28045 19.3086 4.30248 19.3516 4.32422C19.3908 4.34406 19.4296 4.36426 19.4678 4.38574C19.5142 4.41186 19.5596 4.43929 19.6045 4.46777C19.6401 4.49036 19.6754 4.51308 19.71 4.53711C19.7505 4.56533 19.79 4.59486 19.8291 4.625C19.8667 4.65403 19.9042 4.68311 19.9404 4.71387C19.9807 4.74807 20.0192 4.78406 20.0576 4.82031C20.0846 4.84578 20.1117 4.87102 20.1377 4.89746C20.1776 4.93806 20.2153 4.98063 20.2529 5.02344C20.2805 5.05484 20.3087 5.08562 20.335 5.11816C20.3645 5.15475 20.3911 5.19347 20.4189 5.23145C20.4467 5.26928 20.475 5.30655 20.501 5.3457C20.53 5.38953 20.5562 5.43507 20.583 5.48047C20.6043 5.51653 20.6267 5.55186 20.6465 5.58887C20.6686 5.63031 20.6878 5.67324 20.708 5.71582C20.7297 5.76153 20.753 5.80656 20.7725 5.85352C20.787 5.88867 20.7983 5.92512 20.8115 5.96094C20.8317 6.01556 20.8531 6.06991 20.8701 6.12598C20.8746 6.14077 20.8776 6.15601 20.8818 6.1709C20.9575 6.43439 21 6.71218 21 7V10.1738C20.6869 10.0631 20.351 10 20 10H19C19 8.89543 18.1046 8 17 8H15C13.8954 8 13 8.89543 13 10H11C11 8.89543 10.1046 8 9 8H7C5.89543 8 5 8.89543 5 10H4C3.649 10 3.31306 10.0631 3 10.1738V7C3 6.94825 3.00132 6.89681 3.00391 6.8457C3.08421 5.26055 4.39489 4 6 4H18Z" fill="black"/>
</svg>
