<svg width="24" height="24" viewBox="0 0 24 24" fill="none" xmlns="http://www.w3.org/2000/svg">
<path fill-rule="evenodd" clip-rule="evenodd" d="M12 2C13.3833 2 14.6837 2.26211 15.9004 2.78711C17.117 3.3121 18.1752 4.02485 19.0752 4.9248C19.9751 5.82476 20.6879 6.88302 21.2129 8.09961C21.7379 9.31628 22 10.6167 22 12C22 13.3833 21.7379 14.6837 21.2129 15.9004C20.6879 17.117 19.9751 18.1752 19.0752 19.0752C18.1752 19.9751 17.117 20.6879 15.9004 21.2129C14.6837 21.7379 13.3833 22 12 22C10.6167 22 9.31628 21.7379 8.09961 21.2129C6.88302 20.6879 5.82476 19.9751 4.9248 19.0752C4.02485 18.1752 3.3121 17.117 2.78711 15.9004C2.26211 14.6837 2 13.3833 2 12C2 10.6167 2.26211 9.31628 2.78711 8.09961C3.3121 6.88302 4.02485 5.82476 4.9248 4.9248C5.82476 4.02485 6.88302 3.3121 8.09961 2.78711C9.31628 2.26211 10.6167 2 12 2ZM12.0752 8.91211C11.8085 8.91211 11.575 9.01194 11.375 9.21191L8.2998 12.2871C8.10002 12.487 8.00012 12.7243 8 12.999C8 13.274 8.0999 13.5119 8.2998 13.7119C8.4998 13.8952 8.7377 13.9873 9.0127 13.9873C9.28761 13.9873 9.51691 13.8952 9.7002 13.7119L12.0752 11.3369L14.4502 13.7119C14.6502 13.9119 14.8837 14.0074 15.1504 13.999C15.4168 13.9906 15.6497 13.8951 15.8496 13.7119C16.0496 13.5119 16.1538 13.2784 16.1621 13.0117C16.1704 12.7452 16.0749 12.5115 15.875 12.3115L12.7754 9.21191C12.5754 9.01196 12.3418 8.91216 12.0752 8.91211Z" fill="black"/>
</svg>
