<svg width="24" height="24" viewBox="0 0 24 24" fill="none" xmlns="http://www.w3.org/2000/svg">
<path d="M9.7002 6.4248C9.98343 6.42485 10.2171 6.51691 10.4004 6.7002L15 11.2998C15.1 11.3998 15.1712 11.5083 15.2129 11.625C15.2545 11.7416 15.2754 11.8667 15.2754 12C15.2754 12.1333 15.2545 12.2584 15.2129 12.375C15.1712 12.4917 15.1 12.6002 15 12.7002L10.4004 17.2998C10.2171 17.4831 9.98343 17.5751 9.7002 17.5752C9.41686 17.5752 9.18333 17.4831 9 17.2998C8.81674 17.1165 8.72461 16.8829 8.72461 16.5996C8.7247 16.3166 8.81687 16.0836 9 15.9004L12.9004 12L9 8.09961C8.81688 7.91638 8.72468 7.68346 8.72461 7.40039C8.72461 7.11709 8.81671 6.88352 9 6.7002C9.18333 6.51686 9.41686 6.4248 9.7002 6.4248Z" fill="black"/>
</svg>
