<svg width="24" height="24" viewBox="0 0 24 24" fill="none" xmlns="http://www.w3.org/2000/svg">
<path fill-rule="evenodd" clip-rule="evenodd" d="M12 2C13.3833 2 14.6837 2.26211 15.9004 2.78711C17.117 3.3121 18.1752 4.02485 19.0752 4.9248C19.9751 5.82476 20.6879 6.88302 21.2129 8.09961C21.7379 9.31628 22 10.6167 22 12C22 13.3833 21.7379 14.6837 21.2129 15.9004C20.6879 17.117 19.9751 18.1752 19.0752 19.0752C18.1752 19.9751 17.117 20.6879 15.9004 21.2129C14.6837 21.7379 13.3833 22 12 22C10.6167 22 9.31628 21.7379 8.09961 21.2129C6.88302 20.6879 5.82476 19.9751 4.9248 19.0752C4.02485 18.1752 3.3121 17.117 2.78711 15.9004C2.26211 14.6837 2 13.3833 2 12C2 10.6167 2.26211 9.31628 2.78711 8.09961C3.3121 6.88302 4.02485 5.82476 4.9248 4.9248C5.82476 4.02485 6.88302 3.3121 8.09961 2.78711C9.31628 2.26211 10.6167 2 12 2ZM15.1504 10.001C14.8837 9.99264 14.6502 10.0881 14.4502 10.2881L12.0752 12.6631L9.7002 10.2881C9.51691 10.1048 9.28761 10.0127 9.0127 10.0127C8.7377 10.0127 8.4998 10.1048 8.2998 10.2881C8.0999 10.4881 8 10.726 8 11.001C8.00012 11.2757 8.10002 11.513 8.2998 11.7129L11.375 14.7881C11.575 14.9881 11.8085 15.0879 12.0752 15.0879C12.3418 15.0878 12.5754 14.988 12.7754 14.7881L15.875 11.6885C16.0749 11.4885 16.1704 11.2548 16.1621 10.9883C16.1538 10.7216 16.0496 10.4881 15.8496 10.2881C15.6497 10.1049 15.4168 10.0094 15.1504 10.001Z" fill="black"/>
</svg>
