<svg width="24" height="24" viewBox="0 0 24 24" fill="none" xmlns="http://www.w3.org/2000/svg">
<path fill-rule="evenodd" clip-rule="evenodd" d="M12 3C16.9718 3 21 7.02823 21 12C21 16.9718 16.9718 21 12 21C7.02823 21 3 16.9718 3 12C3 7.02823 7.02823 3 12 3ZM11.5098 12.5947C11.2124 12.5948 10.9187 12.6788 10.6611 12.8311L9.10449 13.7637C8.60741 14.0612 8.30187 14.5982 8.30176 15.1787V16.0459C8.30176 16.5648 8.54555 17.0551 8.96289 17.3672L9.76855 17.9736C10.0843 18.2094 10.661 18.4013 11.0527 18.4014H11.7861C12.1054 18.4015 12.3662 18.6631 12.3662 18.9824V19.2402C14.9465 19.1096 17.1748 17.6355 18.3506 15.498H17.8643C17.6902 15.498 17.5198 15.429 17.3965 15.3057L16.7686 14.6787C16.5508 14.461 16.2567 14.3369 15.9482 14.3369H15.2842L13.7168 12.9912C13.4193 12.7372 13.0381 12.5948 12.6426 12.5947H11.5098ZM11.7861 4.75293L10.7373 5.54004C10.6648 5.59445 10.6211 5.68178 10.6211 5.77246V6.49805C10.6211 6.65767 10.7515 6.78898 10.9111 6.78906H11.4922C11.6518 6.78892 11.7822 6.65764 11.7822 6.49805V6.20801L12.3633 5.62695H13.1143C13.3391 5.62703 13.5242 5.81233 13.5244 6.03711C13.5244 6.14598 13.4805 6.25192 13.4043 6.32812L12.4316 7.30078C12.3882 7.34413 12.3339 7.37671 12.2725 7.39844L10.8203 7.88086C10.7006 7.92083 10.6211 8.0339 10.6211 8.15723C10.621 8.39661 10.5262 8.62514 10.3594 8.79199L9.62988 9.52148C9.52116 9.63033 9.45996 9.77933 9.45996 9.93164V10.8496C9.45997 11.1689 9.72082 11.4305 10.04 11.4307H10.8428C11.0638 11.4305 11.2633 11.307 11.3613 11.1113L11.7021 10.4326C11.753 10.3346 11.855 10.2725 11.9639 10.2725H12.0762C12.2157 10.2725 12.333 10.3722 12.3604 10.5039L12.3721 10.6211C12.3995 10.7531 12.5176 10.8535 12.6572 10.8535H13.2373C13.397 10.8535 13.5273 10.7222 13.5273 10.5625V10.4834C13.5273 10.3564 13.6078 10.247 13.7275 10.207L14.874 9.82617C15.1099 9.74633 15.2695 9.52482 15.2695 9.27441V9.11133C15.2695 8.79197 15.5312 8.53027 15.8506 8.53027H17.1826C17.4074 8.53047 17.5926 8.71568 17.5928 8.94043V9.28223C17.5926 9.50694 17.4073 9.69219 17.1826 9.69238H16.0205C15.9118 9.6925 15.8066 9.73542 15.7305 9.81152L15.3896 10.1523C15.3134 10.2286 15.2695 10.3345 15.2695 10.4434C15.2696 10.6682 15.4548 10.8534 15.6797 10.8535H16.2607C16.3694 10.8536 16.4746 10.8966 16.5508 10.9727L16.8916 11.3145C16.9678 11.3907 17.0117 11.4956 17.0117 11.6045V11.9199L16.5576 12.374C16.391 12.541 16.3915 12.8127 16.5547 12.9795L17.7158 14.1631C17.8247 14.2755 17.9739 14.3369 18.1299 14.3369H18.8662C19.1166 13.6039 19.2578 12.8165 19.2578 12C19.2578 7.99732 16.003 4.74242 11.9932 4.74219C11.9243 4.74219 11.855 4.7493 11.7861 4.75293ZM9.05371 6.78906C8.94485 6.78906 8.8389 6.83201 8.7627 6.9082L7.84082 7.83008C7.76476 7.90618 7.7218 8.01144 7.72168 8.12012C7.72168 8.34512 7.90684 8.53027 8.13184 8.53027H8.71191C8.82062 8.53027 8.92577 8.48712 9.00195 8.41113L9.34375 8.06934C9.41977 7.99315 9.46289 7.88802 9.46289 7.7793V7.19922C9.46289 6.97438 9.27849 6.78933 9.05371 6.78906Z" fill="black"/>
</svg>
