<svg width="24" height="24" viewBox="0 0 24 24" fill="none" xmlns="http://www.w3.org/2000/svg">
<path fill-rule="evenodd" clip-rule="evenodd" d="M11.9902 2C12.7439 2.00002 13 2 13.1836 2.24316C11.6781 3.45441 10.4972 5.36639 9.90918 8H11L12 10H9.59473C9.53272 10.6337 9.5 11.3003 9.5 12C9.5 12.68 9.57016 13.34 9.66016 14H14.3398C14.4298 13.34 14.5 12.68 14.5 12H16.5C16.5 12.68 16.4403 13.34 16.3604 14H19.7402C19.9002 13.36 20 12.69 20 12C20 11.7435 19.9858 11.4897 19.96 11.2393L21.9941 11.7842C21.9957 11.856 22 11.9279 22 12C22 17.5199 17.5201 21.9999 11.9902 22C6.47023 22 2 17.52 2 12C2 6.48 6.47023 2 11.9902 2ZM10.0898 16C10.5198 17.43 11.17 18.76 12 19.96C12.83 18.76 13.4802 17.43 13.9102 16H10.0898ZM5.08008 16C6.04008 17.66 7.57017 18.9296 9.41016 19.5596C8.81024 18.4497 8.35025 17.2499 8.03027 16H5.08008ZM15.9697 16C15.6498 17.2499 15.1898 18.4497 14.5898 19.5596C16.4298 18.9296 17.9599 17.65 18.9199 16H15.9697ZM4.25977 10C4.09977 10.64 4 11.31 4 12C4 12.69 4.09977 13.36 4.25977 14H7.63965C7.55965 13.34 7.5 12.68 7.5 12C7.5 11.32 7.55965 10.66 7.63965 10H4.25977ZM9.41016 4.44043C7.57017 5.07043 6.04008 6.34002 5.08008 8H8.03027C8.35025 6.75012 8.81024 5.55034 9.41016 4.44043Z" fill="black"/>
<path fill-rule="evenodd" clip-rule="evenodd" d="M18.7061 3.34961C18.8916 3.42461 19.0661 3.50344 19.2285 3.58594C19.3907 3.66837 19.5566 3.7698 19.7266 3.88965L21.0723 3.48535L22 5.01465L20.9326 5.91504C20.9635 6.11004 20.9795 6.305 20.9795 6.5C20.9795 6.695 20.9635 6.88996 20.9326 7.08496L22 7.98535L21.0723 9.51465L19.7266 9.11035C19.5566 9.2302 19.3907 9.33163 19.2285 9.41406C19.0661 9.49656 18.8916 9.57539 18.7061 9.65039L18.4277 11H16.5723L16.2939 9.65039C16.1084 9.57539 15.9339 9.49656 15.7715 9.41406C15.6093 9.33163 15.4434 9.2302 15.2734 9.11035L13.9277 9.51465L13 7.98535L14.0674 7.08496C14.0365 6.88996 14.0205 6.695 14.0205 6.5C14.0205 6.305 14.0365 6.11004 14.0674 5.91504L13 5.01465L13.9277 3.48535L15.2734 3.88965C15.4434 3.7698 15.6093 3.66837 15.7715 3.58594C15.9339 3.50344 16.1084 3.42461 16.2939 3.34961L16.5723 2H18.4277L18.7061 3.34961ZM17.5 4.7002C16.9898 4.7002 16.5528 4.8761 16.1895 5.22852C15.8261 5.58102 15.6445 6.005 15.6445 6.5C15.6445 6.995 15.8261 7.41898 16.1895 7.77148C16.5528 8.1239 16.9898 8.2998 17.5 8.2998C18.0103 8.2998 18.4472 8.1239 18.8105 7.77148C19.1739 7.41898 19.3555 6.995 19.3555 6.5C19.3555 6.005 19.1739 5.58102 18.8105 5.22852C18.4472 4.8761 18.0103 4.7002 17.5 4.7002Z" fill="black"/>
</svg>
