<svg width="24" height="24" viewBox="0 0 24 24" fill="none" xmlns="http://www.w3.org/2000/svg">
<path fill-rule="evenodd" clip-rule="evenodd" d="M11.4775 2.20316C11.7769 2.12217 12.0907 2.11212 12.3936 2.17289L12.5225 2.20316L12.6826 2.25589C13.0466 2.39601 13.3533 2.65251 13.5967 2.84183L20.3789 8.11722C20.7872 8.43478 21.1482 8.70472 21.4121 9.06156C21.6287 9.35463 21.7904 9.68523 21.8887 10.0362C21.9783 10.3568 21.9967 10.6908 22 11.0557V17.667C22 18.21 22.001 18.6782 21.9697 19.0616C21.9374 19.4566 21.8654 19.8505 21.6729 20.2285C21.3853 20.7927 20.9265 21.2525 20.3623 21.5401C19.9842 21.7327 19.5904 21.8037 19.1953 21.836C18.8117 21.8673 18.3432 21.8672 17.7998 21.8672H6.2002C5.65677 21.8672 5.1883 21.8673 4.80469 21.836C4.4096 21.8037 4.01584 21.7327 3.6377 21.5401C3.07352 21.2525 2.61472 20.7927 2.32715 20.2285C2.13459 19.8505 2.06259 19.4566 2.03027 19.0616C2.01466 18.8702 2.00763 18.6571 2.00391 18.4248L2 17.667V11.0557C2.00325 10.6908 2.02167 10.3568 2.11133 10.0362C2.20962 9.68523 2.37126 9.35462 2.58789 9.06156C2.85184 8.70473 3.21279 8.43478 3.62109 8.11722L10.4033 2.84183C10.6816 2.6254 11.0424 2.32105 11.4775 2.20316ZM16.3164 13.0518C15.7926 12.8772 15.2265 13.1599 15.0518 13.6836C14.0743 16.616 9.92569 16.616 8.94824 13.6836C8.77346 13.1599 8.20742 12.8772 7.68359 13.0518C7.15991 13.2266 6.87719 13.7926 7.05176 14.3164C8.63715 19.0718 15.3628 19.0718 16.9482 14.3164C17.1229 13.7926 16.8402 13.2266 16.3164 13.0518Z" fill="black"/>
</svg>
