<svg width="24" height="24" viewBox="0 0 24 24" fill="none" xmlns="http://www.w3.org/2000/svg">
<path fill-rule="evenodd" clip-rule="evenodd" d="M11.7852 7.01349C11.9986 6.98622 12.2165 7.0001 12.4258 7.05451C12.7906 7.1495 13.0906 7.39533 13.2539 7.5174L17.7754 10.8963C18.0314 11.0876 18.319 11.2924 18.5313 11.5682C18.7025 11.7908 18.8323 12.0436 18.9112 12.3143C19.0097 12.6526 19 13.0062 19 13.3153V17.95C19 18.2913 19.0011 18.6102 18.9786 18.8758C18.9549 19.1543 18.8998 19.4637 18.7383 19.7684C18.5092 20.2004 18.1474 20.5454 17.712 20.7586C17.4086 20.9071 17.1013 20.9572 16.8204 20.9793C16.55 21.0005 16.2234 20.9998 15.8663 20.9998H8.13383C7.77669 20.9998 7.4501 21.0005 7.17973 20.9793C6.89877 20.9572 6.59143 20.9071 6.28813 20.7586C5.85273 20.5454 5.4909 20.2004 5.26176 19.7684C5.10032 19.4637 5.04523 19.1543 5.02153 18.8758C4.99898 18.6102 5.00004 18.2913 5.00004 17.95V13.3153C5.00003 13.0062 4.99043 12.6526 5.08891 12.3143C5.1678 12.0436 5.29756 11.7908 5.46879 11.5682C5.68112 11.2924 5.9687 11.0876 6.22465 10.8963L10.7461 7.5174C10.9094 7.39537 11.2094 7.14953 11.5743 7.05451L11.7852 7.01349ZM10.5 13.9998C10.2239 13.9998 10 14.2237 10 14.4998V18.9998H14V14.4998C14 14.2237 13.7762 13.9998 13.5 13.9998H10.5Z" fill="black"/>
<path d="M7.1602 3.04572C7.38253 2.98476 7.61755 2.98476 7.83989 3.04572C8.09791 3.11663 8.31586 3.28955 8.4893 3.42756L10.7784 5.23127C10.2227 5.45374 9.82101 5.79017 9.69731 5.88947L4.84574 9.71467C4.65457 9.86502 4.27272 10.1518 3.93656 10.5555L3.79594 10.7362C3.50151 11.1398 3.28313 11.5932 3.15043 12.0731C3.02755 12.5182 3.00379 12.9578 3.00004 13.2674V15.9862C2.93847 15.9834 2.87936 15.984 2.82328 15.9793C2.56643 15.958 2.31033 15.9109 2.06449 15.784C1.69789 15.5946 1.39981 15.2913 1.21293 14.9197C1.08801 14.6709 1.04058 14.4121 1.01957 14.1522C0.999721 13.9057 1.00003 13.6054 1.00004 13.2586V9.06037C0.999707 8.74678 0.999676 8.46932 1.07231 8.20588C1.13621 7.97476 1.2411 7.75631 1.38188 7.5633C1.54254 7.34321 1.75928 7.17273 2.00395 6.98029L6.51078 3.42756C6.6842 3.28957 6.90222 3.11665 7.1602 3.04572Z" fill="black"/>
<path d="M16.1602 3.04572C16.3825 2.98476 16.6176 2.98476 16.8399 3.04572C17.0979 3.11663 17.3159 3.28955 17.4893 3.42756L21.9961 6.98029C22.2408 7.17272 22.4575 7.34323 22.6182 7.5633C22.759 7.75631 22.8639 7.97475 22.9278 8.20588C23.0004 8.46933 23.0004 8.74676 23 9.06037V13.2586C23.0001 13.6054 23.0004 13.9057 22.9805 14.1522C22.9595 14.4121 22.9121 14.6709 22.7872 14.9197C22.6003 15.2913 22.3022 15.5946 21.9356 15.784C21.6898 15.9109 21.4336 15.958 21.1768 15.9793C21.1207 15.984 21.0616 15.9834 21 15.9862V13.2674C20.9963 12.9578 20.9725 12.5191 20.8497 12.074C20.7335 11.654 20.5515 11.2532 20.3106 10.8895L20.2041 10.7362L20.0635 10.5555C19.7273 10.1518 19.3465 9.86502 19.1553 9.71467L14.3028 5.88947C14.1789 5.79005 13.777 5.45364 13.2207 5.23127L15.5108 3.42756C15.6842 3.28957 15.9022 3.11665 16.1602 3.04572Z" fill="black"/>
</svg>
