<svg width="24" height="24" viewBox="0 0 24 24" fill="none" xmlns="http://www.w3.org/2000/svg">
<path d="M10.9805 4.07031C7.06048 4.59031 4.0303 7.95002 4.03027 12C4.03027 16.05 7.06047 19.4097 10.9805 19.9297V21.9502C5.95047 21.4202 2.03027 17.16 2.03027 12C2.0303 6.84002 5.95048 2.5798 10.9805 2.0498V4.07031Z" fill="black"/>
<path d="M18.3398 19.7402C16.86 20.9501 15.0302 21.7501 13.0205 21.9502V19.9297C14.4803 19.7496 15.8101 19.1695 16.9199 18.3096L18.3398 19.7402Z" fill="black"/>
<path d="M21.9697 13C21.7697 15.01 20.9698 16.8403 19.7598 18.3203L18.3301 16.9004C19.1901 15.7904 19.7702 14.46 19.9502 13H21.9697Z" fill="black"/>
<path fill-rule="evenodd" clip-rule="evenodd" d="M12 7C14.0999 7 15.9998 8.60986 16 11.0996C16 12.7596 14.67 14.73 12 17C9.33003 14.73 8 12.7596 8 11.0996C8.00022 8.60987 9.90014 7.00002 12 7ZM12 9.86035C11.4101 9.86037 10.9299 10.3399 10.9297 10.9297C10.9297 11.5197 11.41 12 12 12C12.59 12 13.0703 11.5197 13.0703 10.9297C13.0701 10.3399 12.5899 9.86035 12 9.86035Z" fill="black"/>
<path d="M19.7598 5.67969C20.9697 7.15967 21.7697 8.99003 21.9697 11H19.9502C19.7702 9.5401 19.19 8.2103 18.3301 7.11035L19.7598 5.67969Z" fill="black"/>
<path d="M13.0205 2.0498C15.0202 2.24987 16.86 3.04997 18.3398 4.25977L16.9199 5.69043C15.8101 4.83053 14.4803 4.25038 13.0205 4.07031V2.0498Z" fill="black"/>
</svg>
