<svg width="24" height="24" viewBox="0 0 24 24" fill="none" xmlns="http://www.w3.org/2000/svg">
<path fill-rule="evenodd" clip-rule="evenodd" d="M12.0001 8.5C13.6834 8.50003 15.1045 9.09984 16.2628 10.2998C17.4211 11.4998 18.0001 12.9504 18.0001 14.6504C18.0001 15.2169 17.8915 15.8083 17.6749 16.4248C17.4583 17.0415 17.137 17.6873 16.712 18.3623C16.287 19.0373 15.7662 19.7292 15.1495 20.4375C14.5329 21.1457 13.8167 21.8751 13.0001 22.625C12.8668 22.7583 12.7122 22.8538 12.5372 22.9121C12.3623 22.9704 12.1834 23 12.0001 23C11.8168 23 11.637 22.9704 11.462 22.9121C11.2873 22.8538 11.1333 22.7582 11.0001 22.625C10.1835 21.875 9.4664 21.1458 8.84973 20.4375C8.23312 19.7292 7.71221 19.0373 7.28723 18.3623C6.86231 17.6874 6.54196 17.0414 6.32532 16.4248C6.10872 15.8083 6.00017 15.2169 6.00012 14.6504C6.00012 12.9504 6.5791 11.4998 7.73743 10.2998C8.89575 9.09985 10.3168 8.5 12.0001 8.5ZM12.0001 13C11.5835 13 11.2293 13.1459 10.9376 13.4375C10.646 13.7292 10.5001 14.0833 10.5001 14.5C10.5001 14.9167 10.646 15.2708 10.9376 15.5625C11.2293 15.8541 11.5835 16 12.0001 16C12.4167 16 12.771 15.8541 13.0626 15.5625C13.3542 15.2708 13.5001 14.9166 13.5001 14.5C13.5001 14.0834 13.3542 13.7292 13.0626 13.4375C12.771 13.1459 12.4167 13 12.0001 13Z" fill="black"/>
<path fill-rule="evenodd" clip-rule="evenodd" d="M11.9601 4.59961C12.617 4.59967 13.2501 4.70954 13.8556 4.92969C14.3842 5.12194 14.8732 5.38894 15.3204 5.72949L15.5099 5.88086L15.5128 5.88281C15.6981 6.03975 15.8032 6.25174 15.8175 6.49414C15.832 6.74091 15.7474 6.96642 15.5724 7.1416L15.5714 7.14062C15.4073 7.31289 15.1941 7.40026 14.9601 7.40039C14.7361 7.40034 14.5306 7.32474 14.3585 7.18262V7.18457C14.0164 6.91376 13.641 6.7056 13.2316 6.55957C12.8246 6.4145 12.401 6.34088 11.9601 6.34082C11.518 6.34084 11.0957 6.41232 10.6925 6.55371C10.2881 6.69565 9.91443 6.90211 9.57239 7.17285L9.57141 7.17188C9.3965 7.31571 9.18731 7.3884 8.96008 7.38184C8.73562 7.37519 8.52867 7.2957 8.36048 7.1416L8.35364 7.13574L8.34778 7.12988C8.17523 6.95728 8.08671 6.73439 8.10169 6.4873C8.11642 6.24539 8.22499 6.03717 8.40735 5.88281L8.41028 5.88086C8.90804 5.4675 9.46034 5.14944 10.0646 4.92969C10.67 4.70959 11.3032 4.59963 11.9601 4.59961ZM14.6652 6.91406C14.6691 6.91666 14.6738 6.91843 14.6779 6.9209C14.6536 6.90596 14.6293 6.88934 14.6066 6.87012L14.6652 6.91406ZM15.3947 6.69238C15.4035 6.66719 15.4113 6.64138 15.4152 6.61426V6.6084C15.411 6.63743 15.4041 6.66544 15.3947 6.69238ZM10.8986 6.07324C10.7844 6.10265 10.6714 6.13756 10.5597 6.17676C10.6153 6.15726 10.6715 6.13915 10.7277 6.12207C10.7843 6.10487 10.8414 6.08798 10.8986 6.07324ZM13.9464 5.39551C13.9399 5.39277 13.9334 5.38942 13.9269 5.38672L13.7179 5.30566C13.7949 5.33365 13.8713 5.36413 13.9464 5.39551Z" fill="black"/>
<path d="M12.0001 1C13.2378 1.00001 14.4241 1.20351 15.5587 1.61133C16.6933 2.01917 17.7289 2.60833 18.6652 3.37695C18.8712 3.54942 18.9823 3.76871 18.9982 4.03516C19.014 4.30182 18.9269 4.52954 18.7365 4.71777C18.5619 4.906 18.3392 5 18.0695 5C17.7998 4.99992 17.5618 4.91368 17.3556 4.74121C16.594 4.1452 15.7572 3.68581 14.8449 3.36426C13.9324 3.0427 12.984 2.88283 12.0001 2.88281C11.0163 2.88281 10.0716 3.03881 9.16712 3.35254C8.26265 3.66626 7.42976 4.12173 6.66809 4.71777C6.46188 4.89024 6.22387 4.97263 5.95423 4.96484C5.68454 4.957 5.45419 4.86678 5.2638 4.69434C5.07337 4.5061 4.98621 4.28226 5.00208 4.02344C5.01796 3.76476 5.12897 3.54945 5.33508 3.37695C6.27135 2.60833 7.30691 2.01917 8.44153 1.61133C9.57608 1.20354 10.7624 1 12.0001 1Z" fill="black"/>
</svg>
