<svg width="24" height="24" viewBox="0 0 24 24" fill="none" xmlns="http://www.w3.org/2000/svg">
<path d="M18 12C18.5523 12 19 12.4477 19 13V17H15C14.4477 17 14 16.5523 14 16C14 15.4477 14.4477 15 15 15H17V13C17 12.4477 17.4477 12 18 12Z" fill="black"/>
<path d="M9 7C9.55228 7 10 7.44772 10 8C10 8.55228 9.55228 9 9 9H7V11C7 11.5523 6.55228 12 6 12C5.44772 12 5 11.5523 5 11V7H9Z" fill="black"/>
<path fill-rule="evenodd" clip-rule="evenodd" d="M21 3C22.1 3 23 3.9 23 5V19C23 20.1 22.1 21 21 21H3C1.9 21 1 20.1 1 19V5C1 3.9 1.9 3 3 3H21ZM3 19.0098H21V4.99023H3V19.0098Z" fill="black"/>
</svg>
