<svg width="24" height="24" viewBox="0 0 24 24" fill="none" xmlns="http://www.w3.org/2000/svg">
<path d="M14.5 2.5C16.8435 2.5 18.9911 3.34976 20.6475 4.75684C21.0684 5.11438 21.1192 5.7451 20.7617 6.16602C20.4042 6.58693 19.7735 6.63879 19.3525 6.28125C18.0441 5.16973 16.3515 4.5 14.5 4.5C11.4248 4.5 8.78347 6.35152 7.62598 9H14C14.5523 9 15 9.44772 15 10C15 10.5523 14.5523 11 14 11H7.06836C7.02475 11.3272 7 11.6608 7 12C7 12.3392 7.02475 12.6728 7.06836 13H14C14.5523 13 15 13.4477 15 14C15 14.5523 14.5523 15 14 15H7.62598C8.78347 17.6485 11.4248 19.5 14.5 19.5C16.3515 19.5 18.0441 18.8303 19.3525 17.7188C19.7735 17.3612 20.4042 17.4131 20.7617 17.834C21.1192 18.2549 21.0684 18.8856 20.6475 19.2432C18.9911 20.6502 16.8435 21.5 14.5 21.5C10.3019 21.5 6.74252 18.7761 5.48633 15H4C3.44772 15 3 14.5523 3 14C3 13.4477 3.44772 13 4 13H5.05273C5.01835 12.6713 5 12.3378 5 12C5 11.6622 5.01835 11.3287 5.05273 11H4C3.44772 11 3 10.5523 3 10C3 9.44772 3.44772 9 4 9H5.48633C6.74252 5.22388 10.3019 2.5 14.5 2.5Z" fill="black"/>
</svg>
