<svg width="24" height="24" viewBox="0 0 24 24" fill="none" xmlns="http://www.w3.org/2000/svg">
<path fill-rule="evenodd" clip-rule="evenodd" d="M5.5 13C7.433 13 9 14.6667 9 18L8.99512 18.3076C8.90137 21.4359 7.37259 23 5.5 23L5.32031 22.9951C3.53048 22.8977 2.09561 21.3352 2.00488 18.3076L2 18C2 14.6667 3.567 13 5.5 13ZM5.5 15C5.16217 15 4.87456 15.1214 4.61719 15.46C4.32538 15.8439 4 16.6232 4 18C4 19.3768 4.32538 20.1561 4.61719 20.54C4.87456 20.8786 5.16217 21 5.5 21C5.83783 21 6.12544 20.8786 6.38281 20.54C6.67462 20.1561 7 19.3768 7 18C7 16.6232 6.67462 15.8439 6.38281 15.46C6.12544 15.1214 5.83783 15 5.5 15Z" fill="black"/>
<path d="M12 13C12.5523 13 13 13.4477 13 14V22C13 22.5523 12.5523 23 12 23C11.4477 23 11 22.5523 11 22V14C11 13.4477 11.4477 13 12 13Z" fill="black"/>
<path fill-rule="evenodd" clip-rule="evenodd" d="M18.5 13C20.433 13 22 14.6667 22 18L21.9951 18.3076C21.9014 21.4359 20.3726 23 18.5 23L18.3203 22.9951C16.5305 22.8977 15.0956 21.3352 15.0049 18.3076L15 18C15 14.6667 16.567 13 18.5 13ZM18.5 15C18.1622 15 17.8746 15.1214 17.6172 15.46C17.3254 15.8439 17 16.6232 17 18C17 19.3768 17.3254 20.1561 17.6172 20.54C17.8746 20.8786 18.1622 21 18.5 21C18.8378 21 19.1254 20.8786 19.3828 20.54C19.6746 20.1561 20 19.3768 20 18C20 16.6232 19.6746 15.8439 19.3828 15.46C19.1254 15.1214 18.8378 15 18.5 15Z" fill="black"/>
<path d="M3 1C3.55228 1 4 1.44772 4 2V10C4 10.5523 3.55228 11 3 11C2.44772 11 2 10.5523 2 10V2C2 1.44772 2.44772 1 3 1Z" fill="black"/>
<path d="M7 1C7.55228 1 8 1.44772 8 2V10C8 10.5523 7.55228 11 7 11C6.44772 11 6 10.5523 6 10V2C6 1.44772 6.44772 1 7 1Z" fill="black"/>
<path fill-rule="evenodd" clip-rule="evenodd" d="M13.5 1C15.433 1 17 2.66667 17 6L16.9951 6.30762C16.9014 9.43587 15.3726 11 13.5 11L13.3203 10.9951C11.5305 10.8977 10.0956 9.33519 10.0049 6.30762L10 6C10 2.66667 11.567 1 13.5 1ZM13.5 3C13.1622 3 12.8746 3.12136 12.6172 3.45996C12.3254 3.84389 12 4.6232 12 6C12 7.3768 12.3254 8.15611 12.6172 8.54004C12.8746 8.87864 13.1622 9 13.5 9C13.8378 9 14.1254 8.87864 14.3828 8.54004C14.6746 8.15611 15 7.3768 15 6C15 4.6232 14.6746 3.84389 14.3828 3.45996C14.1254 3.12136 13.8378 3 13.5 3Z" fill="black"/>
<path d="M20 1C20.5523 1 21 1.44772 21 2V10C21 10.5523 20.5523 11 20 11C19.4477 11 19 10.5523 19 10V2C19 1.44772 19.4477 1 20 1Z" fill="black"/>
</svg>
