<svg width="24" height="24" viewBox="0 0 24 24" fill="none" xmlns="http://www.w3.org/2000/svg">
<path fill-rule="evenodd" clip-rule="evenodd" d="M22 7V21C22 22.1 21.1 23 20 23H3.99023C2.89023 23 2 22.1 2 21L2.00977 3C2.00977 1.9 2.9 1 4 1H16L22 7ZM5 3C4.44772 3 4 3.44772 4 4V20C4 20.5523 4.44772 21 5 21H19C19.5523 21 20 20.5523 20 20V8H16C15.4477 8 15 7.55228 15 7V3H5Z" fill="black"/>
<path d="M11 17C11.5523 17 12 17.4477 12 18C12 18.5523 11.5523 19 11 19H7C6.44772 19 6 18.5523 6 18C6 17.4477 6.44772 17 7 17H11Z" fill="black"/>
<path d="M15 13C15.5523 13 16 13.4477 16 14C16 14.5523 15.5523 15 15 15H7C6.44772 15 6 14.5523 6 14C6 13.4477 6.44772 13 7 13H15Z" fill="black"/>
<path d="M9 9C9.55228 9 10 9.44771 10 10C10 10.5523 9.55228 11 9 11H7C6.44772 11 6 10.5523 6 10C6 9.44771 6.44772 9 7 9H9Z" fill="black"/>
<path d="M11 5C11.5523 5 12 5.44772 12 6C12 6.55228 11.5523 7 11 7H7C6.44772 7 6 6.55228 6 6C6 5.44772 6.44772 5 7 5H11Z" fill="black"/>
</svg>
