<svg width="24" height="24" viewBox="0 0 24 24" fill="none" xmlns="http://www.w3.org/2000/svg">
<path fill-rule="evenodd" clip-rule="evenodd" d="M8.78906 14.1934C8.943 14.1934 9.0746 14.2451 9.18457 14.3477C9.29453 14.443 9.34957 14.5599 9.34961 14.6992V16.833C9.34961 16.9797 9.29457 17.1044 9.18457 17.207C9.0746 17.3023 8.943 17.3506 8.78906 17.3506H6.64355V19H5.5V14.1934H8.78906ZM6.64355 16.3271H8.2168V15.2168H6.64355V16.3271Z" fill="black"/>
<path fill-rule="evenodd" clip-rule="evenodd" d="M13.5684 14.1934C13.7224 14.1934 13.8548 14.245 13.9648 14.3477C14.0746 14.4429 14.1298 14.5636 14.1299 14.71V18.4941C14.1299 18.6408 14.0748 18.7621 13.9648 18.8574C13.8548 18.9528 13.7224 19 13.5684 19H10.3242V14.1934H13.5684ZM11.4453 17.9883H12.9971V15.2275H11.4453V17.9883Z" fill="black"/>
<path d="M18.7598 15.2275H16.2627V16.1074H17.6377V17.1191H16.2627V19H15.1514V14.1934H18.7598V15.2275Z" fill="black"/>
<path fill-rule="evenodd" clip-rule="evenodd" d="M22 7V21C22 22.1 21.1 23 20 23H3.99023C2.89023 23 2 22.1 2 21L2.00977 3C2.00977 1.9 2.9 1 4 1H16L22 7ZM5 3C4.44772 3 4 3.44772 4 4V20C4 20.5523 4.44772 21 5 21H19C19.5523 21 20 20.5523 20 20V8H16C15.4477 8 15 7.55228 15 7V3H5Z" fill="black"/>
</svg>
