<svg width="24" height="24" viewBox="0 0 24 24" fill="none" xmlns="http://www.w3.org/2000/svg">
<path d="M13.4668 15.1953H11.2227V16.042H12.9062C13.06 16.0421 13.1919 16.0937 13.3018 16.1963C13.4116 16.2915 13.4667 16.4121 13.4668 16.5586V18.4834C13.4668 18.63 13.4116 18.7548 13.3018 18.8574C13.1919 18.9527 13.06 19.0009 12.9062 19.001H10.0791V17.9775H12.334V17.0762H10.6504C10.4966 17.0761 10.3614 17.0278 10.2441 16.9326C10.1341 16.83 10.0791 16.7053 10.0791 16.5586V14.6777C10.0791 14.5385 10.1342 14.4215 10.2441 14.3262C10.3614 14.2236 10.4966 14.172 10.6504 14.1719H13.4668V15.1953Z" fill="black"/>
<path d="M9.13672 15.2275H6.62891V17.9883H9.13672V19H6.06738C5.90632 18.9999 5.77102 18.9525 5.66113 18.8574C5.55847 18.7621 5.50684 18.6408 5.50684 18.4941V14.71C5.50693 14.5635 5.55856 14.4429 5.66113 14.3477C5.77105 14.2451 5.90622 14.1934 6.06738 14.1934H9.13672V15.2275Z" fill="black"/>
<path d="M16.4326 17.9551L17.5771 14.1934H18.7314L17.3018 19H15.5635L14.123 14.1934H15.2783L16.4326 17.9551Z" fill="black"/>
<path fill-rule="evenodd" clip-rule="evenodd" d="M22 7V21C22 22.1 21.1 23 20 23H3.99023C2.89023 23 2 22.1 2 21L2.00977 3C2.00977 1.9 2.9 1 4 1H16L22 7ZM5 3C4.44772 3 4 3.44772 4 4V20C4 20.5523 4.44772 21 5 21H19C19.5523 21 20 20.5523 20 20V8H16C15.4477 8 15 7.55228 15 7V3H5Z" fill="black"/>
</svg>
