<svg width="24" height="24" viewBox="0 0 24 24" fill="none" xmlns="http://www.w3.org/2000/svg">
<path d="M3.25 16.5C4.08 16.5 4.75 17.18 4.75 18C4.75 18.82 4.07 19.5 3.25 19.5C2.43 19.5 1.75 18.82 1.75 18C1.75 17.18 2.42 16.5 3.25 16.5Z" fill="black"/>
<path d="M21.25 17C21.8023 17 22.25 17.4477 22.25 18C22.25 18.5523 21.8023 19 21.25 19H9.25C8.69772 19 8.25 18.5523 8.25 18C8.25 17.4477 8.69772 17 9.25 17H21.25Z" fill="black"/>
<path d="M3.25 10.5C4.08 10.5 4.75 11.17 4.75 12C4.75 12.83 4.08 13.5 3.25 13.5C2.42 13.5 1.75 12.83 1.75 12C1.75 11.17 2.42 10.5 3.25 10.5Z" fill="black"/>
<path d="M21.25 11C21.8023 11 22.25 11.4477 22.25 12C22.25 12.5523 21.8023 13 21.25 13H9.25C8.69772 13 8.25 12.5523 8.25 12C8.25 11.4477 8.69772 11 9.25 11H21.25Z" fill="black"/>
<path d="M3.25 4.5C4.08 4.5 4.75 5.17 4.75 6C4.75 6.83 4.08 7.5 3.25 7.5C2.42 7.5 1.75 6.83 1.75 6C1.75 5.17 2.42 4.5 3.25 4.5Z" fill="black"/>
<path d="M21.25 5C21.8023 5 22.25 5.44772 22.25 6C22.25 6.55228 21.8023 7 21.25 7H9.25C8.69772 7 8.25 6.55228 8.25 6C8.25 5.44772 8.69772 5 9.25 5H21.25Z" fill="black"/>
</svg>
