<svg width="24" height="24" viewBox="0 0 24 24" fill="none" xmlns="http://www.w3.org/2000/svg">
<path d="M12.667 17.667C13.3111 17.6671 13.8329 18.1889 13.833 18.833C13.833 19.4772 13.3112 19.9998 12.667 20H2.16699C1.52266 20 1 19.4773 1 18.833C1.00013 18.1887 1.52274 17.667 2.16699 17.667H12.667Z" fill="black"/>
<path d="M17.7939 4.37105C18.1843 3.98178 18.8157 3.98178 19.2061 4.37105L22.3105 7.46773C22.626 7.78255 22.4027 8.32125 21.957 8.32125H19.667V18.833C19.667 19.4773 19.1443 20 18.5 20C17.8557 20 17.333 19.4773 17.333 18.833V8.32125H15.043C14.5973 8.32125 14.374 7.78255 14.6895 7.46773L17.7939 4.37105Z" fill="black"/>
<path d="M12.667 11.833C13.3112 11.8331 13.833 12.3557 13.833 13C13.833 13.6441 13.3111 14.1668 12.667 14.167H2.16699C1.52269 14.167 1.00004 13.6443 1 13C1 12.3556 1.52266 11.833 2.16699 11.833H12.667Z" fill="black"/>
<path d="M9.16699 5.99996C9.81118 6.00013 10.333 6.52273 10.333 7.16695C10.3328 7.81099 9.81104 8.33279 9.16699 8.33297H2.16699C1.5228 8.33297 1.00022 7.8111 1 7.16695C1 6.52262 1.52266 5.99996 2.16699 5.99996H9.16699Z" fill="black"/>
</svg>
