<svg width="24" height="24" viewBox="0 0 24 24" fill="none" xmlns="http://www.w3.org/2000/svg">
<path d="M21 11C21.5523 11 22 11.4477 22 12C22 12.5523 21.5523 13 21 13H17.6045C17.6636 13.0652 17.7234 13.1312 17.7803 13.2002C18.3521 13.8935 18.6387 14.8384 18.6387 16.0342C18.6386 17.6458 18.0232 18.9115 16.793 19.8301C15.5797 20.7487 13.9926 21.2079 12.0342 21.208C9.90251 21.208 8.23888 20.6611 7.04297 19.5693C6.07731 18.6737 5.46137 17.518 5.19629 16.1025C5.09039 15.5354 5.55488 15.0461 6.13184 15.0459H6.33887C6.85505 15.0464 7.27579 15.4431 7.39551 15.9453C7.60802 16.8379 8.01029 17.5615 8.60254 18.1143C9.39979 18.8419 10.544 19.206 12.0342 19.2061C13.3512 19.206 14.3917 18.9457 15.1543 18.4258C15.934 17.8885 16.3241 17.0912 16.3242 16.0342C16.3242 15.341 16.116 14.7771 15.7002 14.3438C15.2843 13.9106 14.7643 13.5808 14.1406 13.3555C13.8535 13.2406 13.5151 13.1225 13.127 13H3C2.44772 13 2 12.5523 2 12C2 11.4477 2.44772 11 3 11H21Z" fill="black"/>
<path d="M11.8525 2.5918C13.6723 2.59189 15.163 3.08631 16.3242 4.07422C17.2339 4.82344 17.8296 5.76858 18.1094 6.91016C18.2477 7.47478 17.7785 7.97335 17.1973 7.97363H16.9951C16.4817 7.97343 16.0689 7.57688 15.9062 7.08984C15.6948 6.4559 15.3219 5.92706 14.79 5.50391C14.0448 4.89745 13.0655 4.59384 11.8525 4.59375C10.6222 4.59375 9.66009 4.84527 8.9668 5.34766C8.27348 5.85031 7.92677 6.54376 7.92676 7.42773C7.92676 8.07221 8.10085 8.59515 8.44531 9H5.88867C5.73925 8.53663 5.66406 8.01251 5.66406 7.42773C5.66407 6.47459 5.92453 5.63415 6.44434 4.90625C6.96432 4.17836 7.69301 3.61444 8.62891 3.21582C9.58206 2.80003 10.6568 2.5918 11.8525 2.5918Z" fill="black"/>
</svg>
