<svg width="24" height="24" viewBox="0 0 24 24" fill="none" xmlns="http://www.w3.org/2000/svg">
<path d="M21.0919 18C21.3679 17.9998 21.5919 17.776 21.5919 17.5V13C21.5919 12.4478 21.1441 12.0002 20.5919 12C20.0397 12 19.592 12.4477 19.5919 13V14.5996L13.6984 8.70703C13.3078 8.31671 12.6748 8.31658 12.2843 8.70703L8.99136 12L3.69253 6.70117C3.30527 6.31406 2.67739 6.31397 2.29019 6.70117C1.90396 7.08751 1.90324 7.71397 2.28823 8.10156L8.28433 14.1377C8.67446 14.5305 9.30986 14.5321 9.70132 14.1406L12.9914 10.8496L18.1916 16H16.5919C16.0397 16 15.592 16.4477 15.5919 17C15.5919 17.5523 16.0397 18 16.5919 18H21.0919Z" fill="black"/>
</svg>
