<svg width="24" height="24" viewBox="0 0 24 24" fill="none" xmlns="http://www.w3.org/2000/svg">
<path fill-rule="evenodd" clip-rule="evenodd" d="M11 17C13.2091 17 15 18.7909 15 21V23H2V21C2 18.7909 3.79086 17 6 17H11Z" fill="black"/>
<path fill-rule="evenodd" clip-rule="evenodd" d="M8.5 9C10.433 9 12 10.567 12 12.5C12 14.433 10.433 16 8.5 16C6.567 16 5 14.433 5 12.5C5 10.567 6.567 9 8.5 9Z" fill="black"/>
<path d="M13.2002 4.40039C13.5315 3.95876 14.1578 3.86909 14.5996 4.2002C15.4633 4.84794 16.0108 5.83272 16.1045 6.9082L16.3594 9.83789C16.408 10.3969 16.7841 10.8743 17.3164 11.0518C17.8401 11.2265 18.1227 11.7926 17.9482 12.3164C17.7735 12.8402 17.2074 13.1229 16.6836 12.9482C15.3951 12.5186 14.485 11.3649 14.3672 10.0117L14.1123 7.08203C14.068 6.57306 13.8091 6.10639 13.4004 5.7998C12.9587 5.46845 12.869 4.84217 13.2002 4.40039Z" fill="black"/>
<path d="M17.2002 4.40039C17.5315 3.95876 18.1578 3.86909 18.5996 4.2002C19.4633 4.84794 20.0108 5.83272 20.1045 6.9082L20.3594 9.83789C20.408 10.3969 20.7841 10.8743 21.3164 11.0518C21.8401 11.2265 22.1227 11.7926 21.9482 12.3164C21.7735 12.8402 21.2074 13.1229 20.6836 12.9482C19.3951 12.5186 18.485 11.3649 18.3672 10.0117L18.1123 7.08203C18.068 6.57306 17.8091 6.10639 17.4004 5.7998C16.9587 5.46845 16.869 4.84217 17.2002 4.40039Z" fill="black"/>
<path d="M21 1C22.1046 1 23 1.89543 23 3V6C23 6.55228 22.5523 7 22 7C21.4477 7 21 6.55228 21 6V3H3V5H10.1816C10.7339 5 11.1816 5.44772 11.1816 6C11.1816 6.55228 10.7339 7 10.1816 7H3C1.89543 7 1 6.10457 1 5V3C1 1.89543 1.89543 1 3 1H21Z" fill="black"/>
</svg>
