<svg width="24" height="24" viewBox="0 0 24 24" fill="none" xmlns="http://www.w3.org/2000/svg">
<path d="M7.7998 17.7499C8.38314 17.7499 8.99603 17.8333 9.6377 17.9999C10.2793 18.1666 11.1172 18.467 12.1504 18.9003C13.1501 19.3169 13.917 19.5999 14.4502 19.7499C14.9833 19.8998 15.4915 19.9745 15.9746 19.9745C16.5579 19.9745 17.1292 19.8539 17.6875 19.6122C18.2458 19.3706 18.7919 18.9999 19.3252 18.4999C19.4252 18.4166 19.5338 18.3541 19.6504 18.3124C19.7669 18.2708 19.8834 18.2499 20 18.2499C20.1333 18.2499 20.2671 18.2751 20.4004 18.3251C20.5335 18.3751 20.6414 18.4586 20.7246 18.5751C20.8079 18.6751 20.8748 18.7793 20.9248 18.8876C20.9748 18.9959 21 19.1167 21 19.2499C21 19.3832 20.9704 19.517 20.9121 19.6503C20.8538 19.7834 20.7747 19.9001 20.6748 19.9999C19.9415 20.6832 19.1958 21.1876 18.4375 21.5126C17.6793 21.8375 16.8752 21.9999 16.0254 21.9999C15.4087 21.9999 14.7498 21.9079 14.0498 21.7245C13.35 21.5412 12.4667 21.2251 11.4004 20.7753C10.4504 20.392 9.72461 20.1245 9.22461 19.9745C8.72486 19.8246 8.25834 19.7499 7.8252 19.7499C7.25865 19.7499 6.72113 19.875 6.21289 20.1249C5.70457 20.3749 5.20793 20.7664 4.72461 21.2997C4.6247 21.4163 4.51255 21.4997 4.3877 21.5497C4.2627 21.5997 4.13332 21.6249 4 21.6249C3.86668 21.6249 3.74166 21.5997 3.625 21.5497C3.50838 21.4997 3.39977 21.4328 3.2998 21.3495C3.20003 21.2497 3.12515 21.1374 3.0752 21.0126C3.02521 20.8876 3.00001 20.7582 3 20.6249C3 20.4916 3.02522 20.3666 3.0752 20.2499C3.12518 20.1333 3.19209 20.0247 3.27539 19.9247C3.95858 19.1916 4.67061 18.6453 5.41211 18.287C6.15372 17.9287 6.94988 17.75 7.7998 17.7499Z" fill="black"/>
<path d="M7.7998 12.8749C8.38314 12.8749 8.99603 12.9626 9.6377 13.1376C10.2793 13.3126 11.1172 13.6165 12.1504 14.0497C13.1502 14.4663 13.9169 14.7503 14.4502 14.9003C14.9833 15.0502 15.4915 15.1249 15.9746 15.1249C16.5578 15.1249 17.1206 15.0042 17.6621 14.7626C18.2037 14.521 18.7499 14.1502 19.2998 13.6503C19.3998 13.567 19.5084 13.5001 19.625 13.4501C19.7417 13.4001 19.8667 13.3749 20 13.3749C20.1333 13.3749 20.2627 13.4001 20.3877 13.4501C20.5126 13.5001 20.6247 13.5836 20.7246 13.7001C20.8079 13.8001 20.8748 13.9043 20.9248 14.0126C20.9748 14.1209 21 14.2417 21 14.3749C21 14.5082 20.9704 14.642 20.9121 14.7753C20.8538 14.9084 20.7747 15.0251 20.6748 15.1249C19.9415 15.8082 19.1914 16.3126 18.4248 16.6376C17.6582 16.9625 16.8499 17.1249 16 17.1249C15.3833 17.1249 14.7331 17.0329 14.0498 16.8495C13.3666 16.6662 12.4833 16.3501 11.4004 15.9003C10.4506 15.5171 9.72121 15.2495 9.21289 15.0995C8.70456 14.9495 8.23314 14.8749 7.7998 14.8749C7.23333 14.875 6.70441 15.0001 6.21289 15.2499C5.72124 15.4999 5.2246 15.8914 4.72461 16.4247C4.62468 16.5246 4.50821 16.6037 4.375 16.662C4.24168 16.7204 4.10793 16.7499 3.97461 16.7499C3.84144 16.7499 3.72052 16.7247 3.6123 16.6747C3.50407 16.6247 3.39972 16.5578 3.2998 16.4745C3.20003 16.3747 3.12515 16.2624 3.0752 16.1376C3.02521 16.0126 3.00001 15.8832 3 15.7499C3 15.6166 3.02522 15.4916 3.0752 15.3749C3.12518 15.2583 3.19209 15.1497 3.27539 15.0497C3.95863 14.3166 4.67492 13.7703 5.4248 13.412C6.17475 13.0537 6.96654 12.875 7.7998 12.8749Z" fill="black"/>
<path d="M7.29297 2.29289C7.68349 1.90237 8.31651 1.90237 8.70703 2.29289C9.59654 3.18241 9.87052 4.51651 9.40332 5.68449L8.4541 8.05852C8.28419 8.48362 8.38331 8.96917 8.70703 9.29289C9.09754 9.68342 9.09755 10.3164 8.70703 10.707C8.3165 11.0973 7.68345 11.0974 7.29297 10.707C6.40349 9.81748 6.12958 8.48331 6.59668 7.31535L7.5459 4.94133C7.71591 4.5162 7.61672 4.03073 7.29297 3.70696C6.90249 3.31648 6.90259 2.68343 7.29297 2.29289Z" fill="black"/>
<path d="M11.293 2.29289C11.6835 1.90237 12.3165 1.90237 12.707 2.29289C13.5965 3.18241 13.8705 4.51651 13.4033 5.68449L12.4541 8.05852C12.2842 8.48362 12.3833 8.96917 12.707 9.29289C13.0975 9.68342 13.0975 10.3164 12.707 10.707C12.3165 11.0973 11.6834 11.0974 11.293 10.707C10.4035 9.81748 10.1296 8.48331 10.5967 7.31535L11.5459 4.94133C11.7159 4.5162 11.6167 4.03073 11.293 3.70696C10.9025 3.31648 10.9026 2.68343 11.293 2.29289Z" fill="black"/>
<path d="M15.293 2.29289C15.6835 1.90237 16.3165 1.90237 16.707 2.29289C17.5965 3.18241 17.8705 4.51651 17.4033 5.68449L16.4541 8.05852C16.2842 8.48362 16.3833 8.96917 16.707 9.29289C17.0975 9.68342 17.0975 10.3164 16.707 10.707C16.3165 11.0973 15.6834 11.0974 15.293 10.707C14.4035 9.81748 14.1296 8.48331 14.5967 7.31535L15.5459 4.94133C15.7159 4.5162 15.6167 4.03073 15.293 3.70696C14.9025 3.31648 14.9026 2.68343 15.293 2.29289Z" fill="black"/>
</svg>
