<svg width="24" height="24" viewBox="0 0 24 24" fill="none" xmlns="http://www.w3.org/2000/svg">
<path fill-rule="evenodd" clip-rule="evenodd" d="M12 1C18.0751 1 23 5.92487 23 12C23 18.0751 18.0751 23 12 23C5.92487 23 1 18.0751 1 12C1 5.92487 5.92487 1 12 1ZM8.39453 8.55273C8.14754 8.05876 7.54671 7.85848 7.05273 8.10547C6.55886 8.3525 6.3585 8.95333 6.60547 9.44727L6.85645 9.94824C7.1386 10.5128 7.06702 11.1907 6.67285 11.6836C5.85886 12.7012 5.65469 14.0781 6.13867 15.2881L6.57129 16.3711C6.77645 16.8835 7.35852 17.1335 7.87109 16.9287C8.38366 16.7237 8.63336 16.1415 8.42871 15.6289L7.99512 14.5459C7.77864 14.0047 7.87034 13.3878 8.23438 12.9326C9.11579 11.8305 9.27651 10.316 8.64551 9.05371L8.39453 8.55273ZM17.3945 8.55273C17.1475 8.05876 16.5467 7.85848 16.0527 8.10547C15.5589 8.3525 15.3585 8.95333 15.6055 9.44727L15.8564 9.94824C16.1386 10.5128 16.067 11.1907 15.6729 11.6836C14.8589 12.7012 14.6547 14.0781 15.1387 15.2881L15.5713 16.3711C15.7764 16.8835 16.3585 17.1335 16.8711 16.9287C17.3837 16.7237 17.6334 16.1415 17.4287 15.6289L16.9951 14.5459C16.7786 14.0047 16.8703 13.3878 17.2344 12.9326C18.1158 11.8305 18.2765 10.316 17.6455 9.05371L17.3945 8.55273ZM12.8945 6.55273C12.6475 6.05876 12.0467 5.85848 11.5527 6.10547C11.0589 6.3525 10.8585 6.95333 11.1055 7.44727L11.3564 7.94824C11.6386 8.51281 11.567 9.19067 11.1729 9.68359C10.3589 10.7012 10.1547 12.0781 10.6387 13.2881L11.0713 14.3711C11.2764 14.8835 11.8585 15.1335 12.3711 14.9287C12.8837 14.7237 13.1334 14.1415 12.9287 13.6289L12.4951 12.5459C12.2786 12.0047 12.3703 11.3878 12.7344 10.9326C13.6158 9.83054 13.7765 8.31598 13.1455 7.05371L12.8945 6.55273Z" fill="black"/>
</svg>
