<svg width="24" height="24" viewBox="0 0 24 24" fill="none" xmlns="http://www.w3.org/2000/svg">
<path fill-rule="evenodd" clip-rule="evenodd" d="M4.52588 2C5.07811 2 5.52579 2.44779 5.52588 3V15C5.52588 15.0481 5.52073 15.0953 5.51416 15.1416C6.96586 15.5681 8.02581 16.9103 8.02588 18.5C8.02588 20.433 6.45888 22 4.52588 22C2.59288 22 1.02588 20.433 1.02588 18.5C1.02595 16.9106 2.08538 15.5684 3.53662 15.1416C3.53007 15.0954 3.52588 15.0481 3.52588 15V3C3.52596 2.44779 3.97365 2 4.52588 2Z" fill="black"/>
<path d="M11.7231 2.4043C12.0521 1.96111 12.6781 1.86862 13.1216 2.19727L21.7593 8.59668C22.5228 9.16249 22.9741 10.0575 22.9741 11.0078V20C22.974 21.1044 22.0776 22 20.9731 22H12.5259C11.9736 22 11.5259 21.5522 11.5259 21C11.5259 20.4477 11.9736 20 12.5259 20H20.9731V11.0078C20.9731 10.6912 20.8231 10.3937 20.5688 10.2051L11.9302 3.80273C11.4869 3.47383 11.3945 2.84787 11.7231 2.4043Z" fill="black"/>
<path d="M9.02588 10C9.30197 10 9.52579 10.2239 9.52588 10.5V11.5C9.52588 11.7761 9.30202 12 9.02588 12H8.02588C7.74974 12 7.52588 11.7761 7.52588 11.5V10.5C7.52596 10.2239 7.74979 10 8.02588 10H9.02588Z" fill="black"/>
<path d="M9.02588 6C9.30197 6 9.52579 6.22393 9.52588 6.5V7.5C9.52588 7.77614 9.30202 8 9.02588 8H8.02588C7.74974 8 7.52588 7.77614 7.52588 7.5V6.5C7.52596 6.22393 7.74979 6 8.02588 6H9.02588Z" fill="black"/>
<path d="M9.02588 2C9.30197 2 9.52579 2.22393 9.52588 2.5V3.5C9.52588 3.77614 9.30202 4 9.02588 4H8.02588C7.74974 4 7.52588 3.77614 7.52588 3.5V2.5C7.52596 2.22393 7.74979 2 8.02588 2H9.02588Z" fill="black"/>
</svg>
