<svg width="24" height="24" viewBox="0 0 24 24" fill="none" xmlns="http://www.w3.org/2000/svg">
<path fill-rule="evenodd" clip-rule="evenodd" d="M6.70605 2.2002C7.53928 2.20025 8.24778 2.49192 8.83105 3.0752C9.41431 3.65851 9.70605 4.36692 9.70605 5.2002V11.2002C10.3393 11.6835 10.8307 12.2713 11.1807 12.9629C11.5306 13.6545 11.7061 14.4002 11.7061 15.2002C11.7061 16.5835 11.2181 17.7623 10.2432 18.7373C9.26822 19.7122 8.08928 20.2001 6.70605 20.2002C5.32278 20.2002 4.14392 19.7122 3.16895 18.7373C2.19395 17.7623 1.70605 16.5835 1.70605 15.2002C1.70605 14.4002 1.88145 13.6546 2.23145 12.9629C2.58144 12.2713 3.07275 11.6835 3.70605 11.2002V5.2002C3.70605 4.36686 3.99772 3.65853 4.58105 3.0752C5.16436 2.49194 5.87278 2.2002 6.70605 2.2002ZM6.70605 4.2002C6.42278 4.2002 6.18481 4.29572 5.99316 4.4873C5.8015 4.67897 5.70605 4.91686 5.70605 5.2002V9.2002H7.70605V5.2002C7.70605 4.91692 7.61053 4.67895 7.41895 4.4873C7.22733 4.29569 6.98928 4.20025 6.70605 4.2002Z" fill="black"/>
<path d="M17.7061 2.2002C17.9726 2.20026 18.2063 2.30006 18.4062 2.5L22.0059 6.09961C22.2058 6.29958 22.3023 6.5332 22.2939 6.7998C22.2856 7.06642 22.1891 7.30003 22.0059 7.5C21.806 7.69981 21.5721 7.79974 21.3057 7.7998C21.0392 7.79972 20.8063 7.70757 20.6064 7.52441L18.7061 5.64941V9.7998C18.7061 10.0831 18.6105 10.321 18.4189 10.5127C18.2273 10.7043 17.9893 10.7998 17.7061 10.7998C17.4228 10.7998 17.1848 10.7043 16.9932 10.5127C16.8015 10.321 16.7061 10.0831 16.7061 9.7998V5.64941L14.8311 7.52441C14.6312 7.70761 14.3895 7.79967 14.1064 7.7998C13.8233 7.7998 13.5895 7.69978 13.4062 7.5C13.2063 7.3 13.1098 7.06211 13.1182 6.78711C13.1265 6.51219 13.223 6.2829 13.4062 6.09961L17.0059 2.5C17.2058 2.30008 17.4394 2.2002 17.7061 2.2002Z" fill="black"/>
</svg>
