<svg width="24" height="24" viewBox="0 0 24 24" fill="none" xmlns="http://www.w3.org/2000/svg">
<path fill-rule="evenodd" clip-rule="evenodd" d="M6.70605 2.2002C7.53928 2.20025 8.24778 2.49192 8.83105 3.0752C9.41431 3.65851 9.70605 4.36692 9.70605 5.2002V11.2002C10.3393 11.6835 10.8307 12.2713 11.1807 12.9629C11.5306 13.6545 11.7061 14.4002 11.7061 15.2002C11.7061 16.5835 11.2181 17.7623 10.2432 18.7373C9.26822 19.7122 8.08928 20.2001 6.70605 20.2002C5.32278 20.2002 4.14392 19.7122 3.16895 18.7373C2.19395 17.7623 1.70605 16.5835 1.70605 15.2002C1.70605 14.4002 1.88145 13.6546 2.23145 12.9629C2.58144 12.2713 3.07275 11.6835 3.70605 11.2002V5.2002C3.70605 4.36686 3.99772 3.65853 4.58105 3.0752C5.16436 2.49194 5.87278 2.2002 6.70605 2.2002ZM6.70605 4.2002C6.42278 4.2002 6.18481 4.29572 5.99316 4.4873C5.8015 4.67897 5.70605 4.91686 5.70605 5.2002V9.2002H7.70605V5.2002C7.70605 4.91692 7.61053 4.67895 7.41895 4.4873C7.22733 4.29569 6.98928 4.20025 6.70605 4.2002Z" fill="black"/>
<path d="M17.7061 2.2002C17.9893 2.20025 18.2273 2.29569 18.4189 2.4873C18.6105 2.67895 18.7061 2.91692 18.7061 3.2002V7.35059L20.6064 5.47559C20.8063 5.29243 21.0392 5.20028 21.3057 5.2002C21.5721 5.20026 21.806 5.30019 22.0059 5.5C22.1891 5.69997 22.2856 5.93358 22.2939 6.2002C22.3023 6.4668 22.2058 6.70042 22.0059 6.90039L18.4062 10.5C18.2063 10.6999 17.9726 10.7997 17.7061 10.7998C17.4394 10.7998 17.2058 10.6999 17.0059 10.5L13.4062 6.90039C13.223 6.7171 13.1265 6.48781 13.1182 6.21289C13.1098 5.93789 13.2063 5.7 13.4062 5.5C13.5895 5.30022 13.8233 5.2002 14.1064 5.2002C14.3895 5.20033 14.6312 5.29239 14.8311 5.47559L16.7061 7.35059V3.2002C16.7061 2.91686 16.8015 2.67897 16.9932 2.4873C17.1848 2.29572 17.4228 2.2002 17.7061 2.2002Z" fill="black"/>
</svg>
