<svg width="24" height="24" viewBox="0 0 24 24" fill="none" xmlns="http://www.w3.org/2000/svg">
<path fill-rule="evenodd" clip-rule="evenodd" d="M9.5 3C10.3333 3 11.0417 3.29167 11.625 3.875C12.2083 4.45833 12.5 5.16667 12.5 6V12C13.1333 12.4833 13.6246 13.071 13.9746 13.7627C14.3246 14.4544 14.5 15.2 14.5 16C14.5 17.3833 14.0121 18.5621 13.0371 19.5371C12.0621 20.5121 10.8833 21 9.5 21C8.11667 21 6.93789 20.5121 5.96289 19.5371C4.98789 18.5621 4.5 17.3833 4.5 16C4.5 15.2 4.67539 14.4544 5.02539 13.7627C5.37539 13.071 5.86667 12.4833 6.5 12V6C6.5 5.16667 6.79167 4.45833 7.375 3.875C7.95833 3.29167 8.66667 3 9.5 3ZM9.5 5C9.21667 5 8.97878 5.09544 8.78711 5.28711C8.59544 5.47878 8.5 5.71667 8.5 6V10H10.5V6C10.5 5.71667 10.4046 5.47878 10.2129 5.28711C10.0212 5.09544 9.78333 5 9.5 5Z" fill="black"/>
<path d="M18.5 9C18.7833 9 19.0212 9.09544 19.2129 9.28711C19.4046 9.47878 19.5 9.71667 19.5 10C19.5 10.2833 19.4046 10.5212 19.2129 10.7129C19.0212 10.9046 18.7833 11 18.5 11C18.2167 11 17.9788 10.9046 17.7871 10.7129C17.5954 10.5212 17.5 10.2833 17.5 10C17.5 9.71667 17.5954 9.47878 17.7871 9.28711C17.9788 9.09544 18.2167 9 18.5 9Z" fill="black"/>
<path d="M18.5 3C18.7833 3 19.0212 3.09544 19.2129 3.28711C19.4046 3.47878 19.5 3.71667 19.5 4V7C19.5 7.28333 19.4046 7.52122 19.2129 7.71289C19.0212 7.90456 18.7833 8 18.5 8C18.2167 8 17.9788 7.90456 17.7871 7.71289C17.5954 7.52122 17.5 7.28333 17.5 7V4C17.5 3.71667 17.5954 3.47878 17.7871 3.28711C17.9788 3.09544 18.2167 3 18.5 3Z" fill="black"/>
</svg>
