<svg width="24" height="24" viewBox="0 0 24 24" fill="none" xmlns="http://www.w3.org/2000/svg">
<path d="M19 19.415C19.5523 19.415 20 19.8628 20 20.415C19.9997 20.9671 19.5521 21.415 19 21.415H5C4.44788 21.415 4.00026 20.9671 4 20.415C4 19.8628 4.44772 19.415 5 19.415H19Z" fill="black"/>
<path d="M22 15.415C22.5523 15.415 23 15.8628 23 16.415C22.9997 16.9671 22.5521 17.415 22 17.415H2C1.44788 17.415 1.00026 16.9671 1 16.415C1 15.8628 1.44772 15.415 2 15.415H22Z" fill="black"/>
<path d="M4 11.415C4.55228 11.415 5 11.8628 5 12.415C4.99974 12.9671 4.55212 13.415 4 13.415H2C1.44788 13.415 1.00026 12.9671 1 12.415C1 11.8628 1.44772 11.415 2 11.415H4Z" fill="black"/>
<path d="M12 8.41504C14.4212 8.41504 16.4406 10.1365 16.9014 12.4219C17.0098 12.9629 16.552 13.415 16 13.415H8C7.44803 13.415 6.99018 12.9629 7.09863 12.4219C7.55943 10.1365 9.57879 8.41504 12 8.41504Z" fill="black"/>
<path d="M22 11.415C22.5523 11.415 23 11.8628 23 12.415C22.9997 12.9671 22.5521 13.415 22 13.415H20C19.4479 13.415 19.0003 12.9671 19 12.415C19 11.8628 19.4477 11.415 20 11.415H22Z" fill="black"/>
<path d="M4.29297 5.70801C4.68347 5.31758 5.31653 5.31758 5.70703 5.70801L7.12109 7.12207C7.51135 7.51259 7.51146 8.14568 7.12109 8.53613C6.73063 8.92633 6.09749 8.92633 5.70703 8.53613L4.29297 7.12207C3.9026 6.73162 3.90271 6.09853 4.29297 5.70801Z" fill="black"/>
<path d="M18.293 5.70801C18.6835 5.31748 19.3165 5.31748 19.707 5.70801C20.0973 6.09855 20.0975 6.73163 19.707 7.12207L18.293 8.53613C17.9025 8.92633 17.2694 8.92633 16.8789 8.53613C16.4885 8.14569 16.4886 7.51261 16.8789 7.12207L18.293 5.70801Z" fill="black"/>
<path d="M12 2.58496C12.5521 2.58496 12.9997 3.03388 13 3.58594V5.58594C12.9997 6.138 12.5521 6.58594 12 6.58594C11.4479 6.58594 11.0003 6.138 11 5.58594V3.58594C11.0003 3.03388 11.4479 2.58496 12 2.58496Z" fill="black"/>
</svg>
