<svg width="24" height="24" viewBox="0 0 24 24" fill="none" xmlns="http://www.w3.org/2000/svg">
<path d="M18.6699 14.5C19.988 14.5 20.4792 14.9568 21.042 15.2529C21.5308 15.5101 22 15.9477 22 16.5C22 17.0523 21.544 17.522 21.0078 17.3896C19.9539 17.1295 19.614 16.5 18.6699 16.5C17.43 16.5 17.2798 17.5 15.3398 17.5C13.43 17.4999 13.1997 16.5 12.0098 16.5C10.77 16.5001 10.6198 17.5 8.66992 17.5C6.72 17.5 6.57983 16.5 5.33984 16.5C4.36041 16.5001 4.059 17.1343 2.99219 17.3926C2.45561 17.5222 2 17.0521 2 16.5C2 15.9478 2.46857 15.5097 2.95801 15.2539C3.52467 14.9578 4.02022 14.5 5.33984 14.5C7.2898 14.5 7.42999 15.5 8.66992 15.5C9.90987 15.5 10.06 14.5001 12.0098 14.5C13.9197 14.5 14.15 15.4999 15.3398 15.5C16.5798 15.5 16.72 14.5 18.6699 14.5Z" fill="black"/>
<path d="M18.6504 10.5C19.932 10.5001 20.457 10.9508 21.0234 11.2471C21.5129 11.503 21.9805 11.9477 21.9805 12.5C21.9805 13.0506 21.5229 13.5165 20.9892 13.3814C19.9414 13.1163 19.6136 12.5 18.6699 12.5C17.43 12.5 17.2898 13.5 15.3398 13.5C13.43 13.4999 13.1997 12.5 12.0098 12.5C10.77 12.5001 10.6296 13.5 8.67969 13.5C6.76998 13.4999 6.53954 12.5 5.34961 12.5C4.41393 12.5002 4.05051 13.1295 2.99219 13.3896C2.45587 13.5215 2 13.0523 2 12.5C2 11.9477 2.46924 11.5101 2.95801 11.2529C3.52081 10.9568 4.01204 10.5 5.33008 10.5C7.24001 10.5 7.47017 11.5 8.66016 11.5C9.90001 11.4999 10.0403 10.5 11.9902 10.5C13.9 10.5001 14.1304 11.5 15.3203 11.5C16.56 11.4998 16.7006 10.5 18.6504 10.5Z" fill="black"/>
<path d="M18.6504 6.5C19.9355 6.50009 20.4601 6.95284 21.0283 7.24902C21.5155 7.50295 21.9805 7.94572 21.9805 8.49512C21.9803 9.04843 21.5196 9.51645 20.9834 9.37988C19.94 9.11404 19.612 8.5 18.6699 8.5C17.43 8.50004 17.2898 9.5 15.3398 9.5C13.43 9.49995 13.1997 8.5 12.0098 8.5C10.77 8.50013 10.6296 9.5 8.67969 9.5C6.76998 9.49989 6.53954 8.5 5.34961 8.5C4.41393 8.50017 4.05051 9.12946 2.99219 9.38965C2.45587 9.5215 2 9.05228 2 8.5C2 7.94772 2.46924 7.51007 2.95801 7.25293C3.52081 6.95681 4.01204 6.5 5.33008 6.5C7.24001 6.50003 7.47017 7.5 8.66016 7.5C9.90001 7.49992 10.0403 6.5 11.9902 6.5C13.9 6.50008 14.1304 7.5 15.3203 7.5C16.56 7.49983 16.7006 6.5 18.6504 6.5Z" fill="black"/>
</svg>
