<svg width="24" height="24" viewBox="0 0 24 24" fill="none" xmlns="http://www.w3.org/2000/svg">
<path fill-rule="evenodd" clip-rule="evenodd" d="M11 1.5C12.3 1.5 13.4003 2.34 13.8203 3.5H17C18.1 3.5 19 4.4 19 5.5V11.1797C18.38 10.8897 17.71 10.6801 17 10.5801V5.5H15V8.5H7V5.5H5V20.5H9.69043C10.0404 21.2499 10.5204 21.93 11.1104 22.5H5C3.9 22.5 3 21.6 3 20.5V5.5C3 4.4 3.9 3.5 5 3.5H8.17969C8.59969 2.34 9.7 1.5 11 1.5ZM11 3.5C10.45 3.5 10 3.95 10 4.5C10 5.05 10.45 5.5 11 5.5C11.55 5.5 12 5.05 12 4.5C12 3.95 11.55 3.5 11 3.5Z" fill="black"/>
<path fill-rule="evenodd" clip-rule="evenodd" d="M16 12.5C18.76 12.5 21 14.74 21 17.5C21 20.26 18.76 22.5 16 22.5C13.24 22.5 11 20.26 11 17.5C11 14.74 13.24 12.5 16 12.5ZM16 14.5C15.7239 14.5 15.5 14.7239 15.5 15V17.7002L17.2949 19.4951C17.4906 19.6907 17.8087 19.6892 18.0029 19.4922C18.1949 19.2971 18.1936 18.9836 18 18.79L16.5 17.29V15C16.5 14.7239 16.2761 14.5 16 14.5Z" fill="black"/>
</svg>
