<svg width="24" height="24" viewBox="0 0 24 24" fill="none" xmlns="http://www.w3.org/2000/svg">
<path d="M9 18H7V16H9V18Z" fill="black"/>
<path d="M13 18H11V16H13V18Z" fill="black"/>
<path d="M17 18H15V16H17V18Z" fill="black"/>
<path d="M9 14H7V12H9V14Z" fill="black"/>
<path d="M13 14H11V12H13V14Z" fill="black"/>
<path d="M17 14H15V12H17V14Z" fill="black"/>
<path fill-rule="evenodd" clip-rule="evenodd" d="M17 2C17.5523 2 18 2.44772 18 3V4H19C20.1 4 21 4.9 21 6V20C21 21.1 20.1 22 19 22H5C3.89 22 3 21.1 3 20L3.00977 6C3.00977 4.9 3.89 4 5 4H6V3C6 2.44772 6.44772 2 7 2C7.55228 2 8 2.44772 8 3V4H16V3C16 2.44772 16.4477 2 17 2ZM5 20H19V10H5V20Z" fill="black"/>
</svg>
