<svg width="24" height="24" viewBox="0 0 24 24" fill="none" xmlns="http://www.w3.org/2000/svg">
<path d="M18.25 20.7998C18.25 21.1298 18.1276 21.4125 17.8828 21.6475C17.638 21.8825 17.3438 22 17 22C16.6562 22 16.362 21.8825 16.1172 21.6475C15.8724 21.4125 15.75 21.1298 15.75 20.7998H18.25Z" fill="black"/>
<path d="M17 11C17.2604 11 17.4818 11.0877 17.6641 11.2627C17.8463 11.4377 17.9375 11.6504 17.9375 11.9004V12.3203C18.7708 12.5203 19.4479 12.9429 19.9688 13.5879C20.4894 14.2328 20.75 14.97 20.75 15.7998V19H21.375C21.5519 19 21.7006 19.0571 21.8203 19.1719C21.94 19.2868 21.9999 19.4298 22 19.5996C22 19.7696 21.9401 19.9124 21.8203 20.0273C21.7005 20.1423 21.5521 20.2002 21.375 20.2002H12.625C12.4479 20.2002 12.2995 20.1423 12.1797 20.0273C12.0599 19.9124 12 19.7696 12 19.5996C12.0001 19.4298 12.06 19.2868 12.1797 19.1719C12.2994 19.0571 12.4481 19 12.625 19H13.25V15.7998C13.25 14.97 13.5106 14.2328 14.0312 13.5879C14.5521 12.9429 15.2292 12.5203 16.0625 12.3203V11.9004C16.0625 11.6504 16.1537 11.4377 16.3359 11.2627C16.5182 11.0877 16.7396 11 17 11Z" fill="black"/>
<path fill-rule="evenodd" clip-rule="evenodd" d="M14.7275 2C15.2295 2.00014 15.6367 2.40719 15.6367 2.90918V3.81836H16.5459C17.5457 3.8186 18.3633 4.63687 18.3633 5.63672V9.27246H3.81836V18.3633H10V20.1816H3.81836C2.80927 20.1816 2 19.3633 2 18.3633V5.63672C2 4.63672 2.80927 3.81836 3.81836 3.81836H4.72754V2.90918C4.72754 2.4071 5.13464 2 5.63672 2C6.13863 2.00019 6.5459 2.40722 6.5459 2.90918V3.81836H13.8184V2.90918C13.8184 2.4071 14.2255 2 14.7275 2Z" fill="black"/>
</svg>
