<svg width="24" height="24" viewBox="0 0 24 24" fill="none" xmlns="http://www.w3.org/2000/svg">
<path fill-rule="evenodd" clip-rule="evenodd" d="M2.81151 3.70703C3.20244 3.31887 3.83506 3.32043 4.22459 3.70996L21.1953 20.6895C21.5844 21.0789 21.5836 21.7103 21.1943 22.0996C20.8049 22.4887 20.1735 22.4889 19.7842 22.0996L18.0898 20.4053C16.59 21.5251 14.7297 22.1952 12.7099 22.1953C7.73028 22.1951 3.71021 18.165 3.70994 13.1953C3.70994 11.1754 4.38006 9.31442 5.49998 7.81445L2.80955 5.12402C2.41833 4.73258 2.41892 4.0971 2.81151 3.70703ZM6.92967 9.24512C6.15981 10.3651 5.70994 11.7255 5.70994 13.1953C5.71021 17.065 8.84028 20.1951 12.7099 20.1953C14.1796 20.1952 15.5394 19.7444 16.6592 18.9746L6.92967 9.24512Z" fill="black"/>
<path d="M12.7099 4.19531C14.8295 4.19541 16.7793 4.93514 18.3291 6.1748L19.75 4.75488C20.2598 5.17475 20.7293 5.65524 21.1592 6.16504L19.7392 7.58496C20.9692 9.12496 21.7099 11.0753 21.7099 13.1953C21.7099 14.6951 21.3393 16.1049 20.6894 17.3447L19.1894 15.8447C19.5194 15.0249 19.7099 14.1351 19.7099 13.1953C19.7099 9.32545 16.5798 6.19554 12.7099 6.19531C11.7701 6.19536 10.8794 6.3849 10.0596 6.71484L8.55955 5.21484C9.79944 4.56491 11.2101 4.19537 12.7099 4.19531Z" fill="black"/>
<path d="M13.7099 10.3652L11.7099 8.36523V8.19531H13.7099V10.3652Z" fill="black"/>
<path d="M15.7099 3.19531H9.70994V1.19434H15.7099V3.19531Z" fill="black"/>
</svg>
