<svg width="24" height="24" viewBox="0 0 24 24" fill="none" xmlns="http://www.w3.org/2000/svg">
<path fill-rule="evenodd" clip-rule="evenodd" d="M12 4.09473C16.9698 4.09499 21 8.12491 21 13.0947C21 18.0646 16.9698 22.0945 12 22.0947C7.03 22.0947 3 18.0647 3 13.0947C3.00003 8.12475 7.03002 4.09473 12 4.09473ZM16 10.2051C15.7073 9.91251 15.2326 9.91304 14.9404 10.2061L10.5391 14.625L8.93945 13.0244C8.64685 12.732 8.17255 12.7321 7.87988 13.0244C7.58723 13.3171 7.58719 13.7923 7.87988 14.085L9.82227 16.0273C10.2128 16.4178 10.8458 16.4178 11.2363 16.0273L16 11.2646C16.2924 10.9723 16.2923 10.4975 16 10.2051Z" fill="black"/>
<path d="M7.94434 3.44043L3.33691 7.28516L2.05664 5.74902L6.66211 1.9043L7.94434 3.44043Z" fill="black"/>
<path d="M21.9434 5.75L20.6631 7.28516L16.0537 3.44141L17.3369 1.9043L21.9434 5.75Z" fill="black"/>
</svg>
