<svg width="24" height="24" viewBox="0 0 24 24" fill="none" xmlns="http://www.w3.org/2000/svg">
<path fill-rule="evenodd" clip-rule="evenodd" d="M12 4.09473C16.9698 4.09499 21 8.12491 21 13.0947C21 18.0646 16.9698 22.0945 12 22.0947C7.03 22.0947 3 18.0647 3 13.0947C3.00003 8.12475 7.03002 4.09473 12 4.09473ZM11.75 8C11.3358 8 11 8.33579 11 8.75V14L15.5537 16.8027C15.9106 17.0222 16.378 16.9105 16.5977 16.5537C16.8191 16.1939 16.7041 15.7222 16.3418 15.5049L12.5 13.2002V8.75C12.5 8.33579 12.1642 8 11.75 8Z" fill="black"/>
<path d="M7.94434 3.44043L3.33691 7.28516L2.05664 5.74902L6.66211 1.9043L7.94434 3.44043Z" fill="black"/>
<path d="M21.9434 5.75L20.6631 7.28516L16.0537 3.44141L17.3369 1.9043L21.9434 5.75Z" fill="black"/>
</svg>
