<svg width="24" height="24" viewBox="0 0 24 24" fill="none" xmlns="http://www.w3.org/2000/svg">
<path d="M12 14.9805C12.2833 14.9805 12.5212 15.0759 12.7129 15.2676C12.9044 15.4592 13 15.6972 13 15.9805C12.9999 16.2635 12.9043 16.5008 12.7129 16.6924C12.5212 16.884 12.2833 16.9805 12 16.9805C11.7167 16.9805 11.4788 16.884 11.2871 16.6924C11.0957 16.5008 11.0001 16.2635 11 15.9805C11 15.6972 11.0956 15.4592 11.2871 15.2676C11.4788 15.0759 11.7167 14.9805 12 14.9805Z" fill="black"/>
<path d="M12 6.98047C12.2833 6.98047 12.5212 7.07591 12.7129 7.26758C12.9044 7.45922 13 7.69722 13 7.98047V11.9805C12.9999 12.2635 12.9043 12.5008 12.7129 12.6924C12.5212 12.884 12.2833 12.9805 12 12.9805C11.7167 12.9805 11.4788 12.884 11.2871 12.6924C11.0957 12.5008 11.0001 12.2635 11 11.9805V7.98047C11 7.69722 11.0956 7.45922 11.2871 7.26758C11.4788 7.07591 11.7167 6.98047 12 6.98047Z" fill="black"/>
<path fill-rule="evenodd" clip-rule="evenodd" d="M14.9248 3C15.1915 3 15.4458 3.05039 15.6875 3.15039C15.9291 3.25039 16.1419 3.3919 16.3252 3.5752L20.4248 7.6748C20.6081 7.8581 20.7496 8.07089 20.8496 8.3125C20.9496 8.55417 21 8.80853 21 9.0752V14.9248C21 15.1915 20.9496 15.4458 20.8496 15.6875C20.7496 15.9291 20.6081 16.1419 20.4248 16.3252L16.3252 20.4248C16.1419 20.6081 15.9291 20.7496 15.6875 20.8496C15.4458 20.9496 15.1915 21 14.9248 21H9.0752C8.80853 21 8.55417 20.9496 8.3125 20.8496C8.07089 20.7496 7.8581 20.6081 7.6748 20.4248L3.5752 16.3252C3.3919 16.1419 3.25039 15.9291 3.15039 15.6875C3.05039 15.4458 3 15.1915 3 14.9248V9.0752C3 8.80853 3.05039 8.55417 3.15039 8.3125C3.25039 8.07089 3.3919 7.8581 3.5752 7.6748L7.6748 3.5752C7.8581 3.3919 8.07089 3.25039 8.3125 3.15039C8.55417 3.05039 8.80853 3 9.0752 3H14.9248ZM5 9.09961V14.9004L9.09961 19H14.9004L19 14.9004V9.09961L14.9004 5H9.09961L5 9.09961Z" fill="black"/>
</svg>
