<svg width="24" height="24" viewBox="0 0 24 24" fill="none" xmlns="http://www.w3.org/2000/svg">
<path d="M11.9502 15.5C12.3001 15.5 12.5963 15.6207 12.8379 15.8623C13.0795 16.104 13.2002 16.4 13.2002 16.75C13.2002 17.1 13.0795 17.396 12.8379 17.6377C12.5963 17.8793 12.3001 18 11.9502 18C11.6002 18 11.3041 17.8793 11.0625 17.6377C10.8208 17.396 10.7002 17.1 10.7002 16.75C10.7002 16.4 10.8208 16.104 11.0625 15.8623C11.3041 15.6207 11.6002 15.5 11.9502 15.5Z" fill="black"/>
<path d="M12.0996 6C13.0163 6 13.821 6.27083 14.5127 6.8125C15.2043 7.35415 15.5498 8.05044 15.5498 8.90039C15.5497 9.43342 15.4125 9.91648 15.1377 10.3496C14.8628 10.7828 14.5336 11.1832 14.1504 11.5498C13.8837 11.7998 13.6337 12.0629 13.4004 12.3379C13.1671 12.6129 13.0169 12.9254 12.9502 13.2754C12.9002 13.5252 12.7872 13.7338 12.6123 13.9004C12.4374 14.0669 12.2245 14.1504 11.9746 14.1504C11.7414 14.1503 11.5372 14.0704 11.3623 13.9121C11.1876 13.7539 11.0997 13.5583 11.0996 13.3252C11.0996 12.8252 11.2454 12.3746 11.5371 11.9746C11.8287 11.5747 12.1665 11.2083 12.5498 10.875C12.8331 10.625 13.0875 10.3585 13.3125 10.0752C13.5375 9.79186 13.6504 9.46628 13.6504 9.09961C13.6503 8.69978 13.4957 8.36619 13.1875 8.09961C12.8792 7.83305 12.5162 7.7002 12.0996 7.7002C11.7998 7.70025 11.5122 7.76712 11.2373 7.90039C10.9625 8.03369 10.733 8.22478 10.5498 8.47461C10.3831 8.70794 10.1748 8.85039 9.9248 8.90039C9.67501 8.95029 9.43335 8.90853 9.2002 8.77539C9.0169 8.65875 8.90399 8.48762 8.8623 8.2627C8.82065 8.03776 8.85802 7.82495 8.97461 7.625C9.27453 7.07515 9.71234 6.66706 10.2871 6.40039C10.862 6.13378 11.4664 6.00005 12.0996 6Z" fill="black"/>
<path fill-rule="evenodd" clip-rule="evenodd" d="M12 2C13.3833 2 14.6837 2.26211 15.9004 2.78711C17.117 3.3121 18.1752 4.02485 19.0752 4.9248C19.9751 5.82476 20.6879 6.88302 21.2129 8.09961C21.7379 9.31628 22 10.6167 22 12C22 13.3833 21.7379 14.6837 21.2129 15.9004C20.6879 17.117 19.9751 18.1752 19.0752 19.0752C18.1752 19.9751 17.117 20.6879 15.9004 21.2129C14.6837 21.7379 13.3833 22 12 22C10.6167 22 9.31628 21.7379 8.09961 21.2129C6.88302 20.6879 5.82476 19.9751 4.9248 19.0752C4.02485 18.1752 3.3121 17.117 2.78711 15.9004C2.26211 14.6837 2 13.3833 2 12C2 10.6167 2.26211 9.31628 2.78711 8.09961C3.3121 6.88302 4.02485 5.82476 4.9248 4.9248C5.82476 4.02485 6.88302 3.3121 8.09961 2.78711C9.31628 2.26211 10.6167 2 12 2ZM12 4C9.76667 4 7.8752 4.7752 6.3252 6.3252C4.7752 7.8752 4 9.76667 4 12C4 14.2333 4.7752 16.1248 6.3252 17.6748C7.8752 19.2248 9.76667 20 12 20C14.2333 20 16.1248 19.2248 17.6748 17.6748C19.2248 16.1248 20 14.2333 20 12C20 9.76667 19.2248 7.8752 17.6748 6.3252C16.1248 4.7752 14.2333 4 12 4Z" fill="black"/>
</svg>
