<svg width="24" height="24" viewBox="0 0 24 24" fill="none" xmlns="http://www.w3.org/2000/svg">
<path d="M15.293 8.70703C15.6835 8.31667 16.3165 8.31667 16.707 8.70703C17.0975 9.09752 17.0974 9.73056 16.707 10.1211L10.9863 15.8428C10.5521 16.277 9.84646 16.2709 9.41895 15.8301L6.78223 13.1104C6.39804 12.7138 6.4074 12.0807 6.80371 11.6963C7.20016 11.312 7.83336 11.3216 8.21777 11.7178L10.2178 13.7822L15.293 8.70703Z" fill="black"/>
<path fill-rule="evenodd" clip-rule="evenodd" d="M12 2C17.5228 2 22 6.47715 22 12C22 17.5228 17.5228 22 12 22C6.47715 22 2 17.5228 2 12C2 6.47715 6.47715 2 12 2ZM12 4C7.58172 4 4 7.58172 4 12C4 16.4183 7.58172 20 12 20C16.4183 20 20 16.4183 20 12C20 7.58172 16.4183 4 12 4Z" fill="black"/>
</svg>
