<svg width="24" height="24" viewBox="0 0 24 24" fill="none" xmlns="http://www.w3.org/2000/svg">
<path d="M11.9524 15.9999C12.2356 16 12.4737 16.0954 12.6653 16.287C12.8569 16.4787 12.9524 16.7167 12.9524 16.9999C12.9524 17.2831 12.8569 17.5212 12.6653 17.7128C12.4737 17.9044 12.2356 17.9998 11.9524 17.9999C11.6692 17.9999 11.4312 17.9043 11.2396 17.7128C11.0479 17.5212 10.9525 17.2832 10.9524 16.9999C10.9524 16.7166 11.0479 16.4787 11.2396 16.287C11.4312 16.0955 11.6692 15.9999 11.9524 15.9999Z" fill="black"/>
<path d="M11.9524 9.99992C12.2356 10 12.4737 10.0954 12.6653 10.287C12.8569 10.4787 12.9524 10.7167 12.9524 10.9999V13.9999C12.9524 14.2831 12.8569 14.5212 12.6653 14.7128C12.4737 14.9044 12.2356 14.9998 11.9524 14.9999C11.6692 14.9999 11.4312 14.9043 11.2396 14.7128C11.0479 14.5212 10.9525 14.2832 10.9524 13.9999V10.9999C10.9524 10.7166 11.0479 10.4787 11.2396 10.287C11.4312 10.0955 11.6692 9.99992 11.9524 9.99992Z" fill="black"/>
<path fill-rule="evenodd" clip-rule="evenodd" d="M10.3313 3.49992C11.1012 2.16675 13.0254 2.16664 13.7952 3.49992L22.4554 18.4999C23.2009 19.7916 22.321 21.3961 20.8655 21.495L20.723 21.4999H3.40264L3.26006 21.495C1.85169 21.3991 0.982586 19.8935 1.60381 18.6259L1.67119 18.4999L10.3313 3.49992ZM3.40264 19.4999H20.723L12.0628 4.49992L3.40264 19.4999Z" fill="black"/>
</svg>
