<svg width="24" height="24" viewBox="0 0 24 24" fill="none" xmlns="http://www.w3.org/2000/svg">
<path fill-rule="evenodd" clip-rule="evenodd" d="M12 6H20C21.11 6 22 6.89 22 8V18C22 19.11 21.11 20 20 20H4C2.89 20 2 19.11 2 18L2.00977 6C2.00977 4.89 2.89 4 4 4H10L12 6ZM15 9C14.4477 9 14 9.44772 14 10V12H12C11.4477 12 11 12.4477 11 13C11 13.5523 11.4477 14 12 14H14V16C14 16.5523 14.4477 17 15 17C15.5523 17 16 16.5523 16 16V14H18C18.5523 14 19 13.5523 19 13C19 12.4477 18.5523 12 18 12H16V10C16 9.44772 15.5523 9 15 9Z" fill="black"/>
</svg>
