<svg width="24" height="24" viewBox="0 0 24 24" fill="none" xmlns="http://www.w3.org/2000/svg">
<path d="M10.7637 2.59408C12.6699 2.25945 14.8981 2.83694 16.1406 4.01693C16.541 4.39723 16.5569 5.03055 16.1768 5.43099C15.7964 5.83098 15.164 5.84717 14.7637 5.46713C14.0544 4.79359 12.4987 4.31993 11.1094 4.56381C10.4454 4.68043 9.90129 4.94878 9.52734 5.35385C9.16603 5.74539 8.88554 6.34876 8.88379 7.29818C8.89667 8.16453 9.26686 8.77703 9.81738 9.72103C10.2445 10.4534 10.7336 11.329 10.9209 12.4994H15C15.5522 12.4994 15.9998 12.9472 16 13.4994C16 14.0516 15.5523 14.4994 15 14.4994H10.9404C10.7163 16.4437 9.87493 18.0395 9.0625 19.1722C8.981 19.2858 8.8973 19.3943 8.81641 19.4994H17.5C18.0522 19.4994 18.4998 19.9472 18.5 20.4994C18.5 21.0516 18.0523 21.4994 17.5 21.4994H6.5C6.07398 21.4994 5.69522 21.229 5.55566 20.8265C5.41658 20.4246 5.54639 19.9789 5.87988 19.7152C5.88038 19.7148 5.88066 19.7142 5.88184 19.7132C5.88537 19.7104 5.89218 19.7052 5.90137 19.6976C5.92047 19.6818 5.95148 19.6551 5.99219 19.6195C6.07392 19.548 6.19598 19.4377 6.34375 19.2913C6.64067 18.9973 7.03934 18.5622 7.4375 18.0072C8.08975 17.0978 8.71519 15.9036 8.92578 14.4994H6.5C5.94772 14.4994 5.5 14.0516 5.5 13.4994C5.50019 12.9472 5.94783 12.4994 6.5 12.4994H8.88379C8.72894 11.861 8.43362 11.32 8.08887 10.7288C7.59028 9.87394 6.90274 8.80278 6.88379 7.31674V7.30404C6.88444 5.92569 7.30568 4.8122 8.05762 3.9974C8.79785 3.19545 9.78015 2.76678 10.7637 2.59408Z" fill="black"/>
</svg>
