<svg width="24" height="24" viewBox="0 0 24 24" fill="none" xmlns="http://www.w3.org/2000/svg">
<path fill-rule="evenodd" clip-rule="evenodd" d="M22 7V21C22 22.1 21.1 23 20 23H3.99023C2.89023 23 2 22.1 2 21L2.00977 3C2.00977 1.9 2.9 1 4 1H16L22 7ZM15.8369 14.1719C15.6829 14.1719 15.547 14.2235 15.4297 14.3262C15.3197 14.4215 15.2647 14.5385 15.2646 14.6777V16.5586C15.2646 16.7053 15.3197 16.83 15.4297 16.9326C15.547 17.0279 15.6829 17.0762 15.8369 17.0762H17.5195V17.9775H15.2646V19.001H18.0918C18.2457 19.0009 18.3774 18.9527 18.4873 18.8574C18.5972 18.7548 18.6523 18.63 18.6523 18.4834V16.5586C18.6523 16.4121 18.5972 16.2915 18.4873 16.1963C18.3774 16.0937 18.2457 16.0421 18.0918 16.042H16.4082V15.1953H18.6523V14.1719H15.8369ZM6.99023 16.5918L5.3291 19H6.81445L7.73828 17.6807L8.65137 19H10.1367L8.47559 16.5918L10.1367 14.1934H8.65137L7.73828 15.5137L6.81445 14.1934H5.3291L6.99023 16.5918ZM11.0273 19H14.2832V17.9775H12.1719V14.1934H11.0273V19ZM15 7C15 7.55228 15.4477 8 16 8H20.5L15 2.5V7Z" fill="black"/>
</svg>
