<svg width="24" height="24" viewBox="0 0 24 24" fill="none" xmlns="http://www.w3.org/2000/svg">
<path d="M8.2168 16.3271H6.64355V15.2168H8.2168V16.3271Z" fill="black"/>
<path d="M12.9971 17.9883H11.4453V15.2275H12.9971V17.9883Z" fill="black"/>
<path fill-rule="evenodd" clip-rule="evenodd" d="M22 7V21C22 22.1 21.1 23 20 23H3.99023C2.89023 23 2 22.1 2 21L2.00977 3C2.00977 1.9 2.9 1 4 1H16L22 7ZM5.5 19H6.64355V17.3506H8.78906C8.943 17.3506 9.0746 17.3023 9.18457 17.207C9.29457 17.1044 9.34961 16.9797 9.34961 16.833V14.6992C9.34957 14.5599 9.29453 14.443 9.18457 14.3477C9.0746 14.2451 8.943 14.1934 8.78906 14.1934H5.5V19ZM10.3242 19H13.5684C13.7224 19 13.8548 18.9528 13.9648 18.8574C14.0748 18.7621 14.1299 18.6408 14.1299 18.4941V14.71C14.1298 14.5636 14.0746 14.4429 13.9648 14.3477C13.8548 14.245 13.7224 14.1934 13.5684 14.1934H10.3242V19ZM15.1514 19H16.2627V17.1191H17.6377V16.1074H16.2627V15.2275H18.7598V14.1934H15.1514V19ZM15 7C15 7.55228 15.4477 8 16 8H20.5L15 2.5V7Z" fill="black"/>
</svg>
