<svg width="24" height="24" viewBox="0 0 24 24" fill="none" xmlns="http://www.w3.org/2000/svg">
<path d="M10 10C10.5523 10 11 10.4477 11 11C11 11.5523 10.5523 12 10 12H8V20C8 20.5523 7.55228 21 7 21C6.44772 21 6 20.5523 6 20V12H4C3.44772 12 3 11.5523 3 11C3 10.4477 3.44772 10 4 10H10Z" fill="black"/>
<path d="M20 3C20.5523 3 21 3.44772 21 4C21 4.55228 20.5523 5 20 5H16V20C16 20.5523 15.5523 21 15 21C14.4477 21 14 20.5523 14 20V5H10C9.44772 5 9 4.55228 9 4C9 3.44772 9.44772 3 10 3H20Z" fill="black"/>
</svg>
