<svg width="24" height="24" viewBox="0 0 24 24" fill="none" xmlns="http://www.w3.org/2000/svg">
<path d="M9.99992 12.9999C10.2651 12.9999 10.5194 13.1054 10.707 13.2929C10.8944 13.4804 10.9999 13.7347 10.9999 13.9999V19.9999C10.9999 20.5521 10.5521 20.9999 9.99992 20.9999C9.44766 20.9999 8.99996 20.5522 8.99992 19.9999V16.414L3.70696 21.7069C3.31646 22.0974 2.68342 22.0974 2.29289 21.7069C1.90237 21.3164 1.90237 20.6834 2.29289 20.2929L7.58586 14.9999H3.99992C3.44766 14.9999 2.99996 14.5522 2.99992 13.9999C2.99992 13.4476 3.44764 12.9999 3.99992 12.9999H9.99992Z" fill="black"/>
<path d="M20.2929 2.29288C20.6834 1.90238 21.3164 1.90237 21.707 2.29288C22.0974 2.68341 22.0974 3.31646 21.707 3.70695L16.414 8.99992H19.9999C20.5522 8.99998 20.9999 9.44767 20.9999 9.99992C20.9999 10.5521 20.5521 10.9998 19.9999 10.9999H13.9999C13.4477 10.9999 13 10.5522 12.9999 9.99992V3.99992C12.9999 3.44763 13.4476 2.99992 13.9999 2.99992C14.5522 2.99998 14.9999 3.44767 14.9999 3.99992V7.58585L20.2929 2.29288Z" fill="black"/>
</svg>
