<svg width="24" height="24" viewBox="0 0 24 24" fill="none" xmlns="http://www.w3.org/2000/svg">
<path d="M19.293 3.29297C19.6835 2.90244 20.3165 2.90244 20.707 3.29297C21.0976 3.68349 21.0976 4.31651 20.707 4.70703L4.70703 20.707C4.31651 21.0976 3.68349 21.0976 3.29297 20.707C2.90244 20.3165 2.90244 19.6835 3.29297 19.293L19.293 3.29297Z" fill="black"/>
<path fill-rule="evenodd" clip-rule="evenodd" d="M17.7139 14.4287C19.5284 14.4287 20.9998 15.8994 21 17.7139C21 19.5285 19.5285 21 17.7139 21C15.8994 20.9998 14.4287 19.5284 14.4287 17.7139C14.4289 15.8995 15.8995 14.4289 17.7139 14.4287ZM17.7139 16.4287C17.0041 16.4289 16.4289 17.0041 16.4287 17.7139C16.4287 18.4238 17.004 18.9998 17.7139 19C18.4239 19 19 18.4239 19 17.7139C18.9998 17.004 18.4238 16.4287 17.7139 16.4287Z" fill="black"/>
<path fill-rule="evenodd" clip-rule="evenodd" d="M6.28613 3C8.10059 3.00023 9.57129 4.47162 9.57129 6.28613C9.57106 8.10045 8.10045 9.57106 6.28613 9.57129C4.47162 9.57129 3.00023 8.10059 3 6.28613C3 4.47148 4.47148 3 6.28613 3ZM6.28613 5C5.57605 5 5 5.57605 5 6.28613C5.00023 6.99602 5.57619 7.57129 6.28613 7.57129C6.99588 7.57106 7.57106 6.99588 7.57129 6.28613C7.57129 5.57619 6.99602 5.00023 6.28613 5Z" fill="black"/>
</svg>
