<svg width="24" height="24" viewBox="0 0 24 24" fill="none" xmlns="http://www.w3.org/2000/svg">
<path fill-rule="evenodd" clip-rule="evenodd" d="M16 4C16.55 4 17.0204 4.19622 17.4121 4.58789C17.8038 4.97956 18 5.45 18 6V10.5L22 6.5V17.5L18 13.5V18C18 18.55 17.8038 19.0204 17.4121 19.4121C17.0204 19.8038 16.55 20 16 20H4C3.45 20 2.97956 19.8038 2.58789 19.4121C2.19622 19.0204 2 18.55 2 18V6C2 5.45 2.19622 4.97956 2.58789 4.58789C2.97956 4.19622 3.45 4 4 4H16ZM9.25 14.5L7.7002 12.5L5 16H15L11.5498 11.5L9.25 14.5Z" fill="black"/>
</svg>
