<svg width="24" height="24" viewBox="0 0 24 24" fill="none" xmlns="http://www.w3.org/2000/svg">
<path fill-rule="evenodd" clip-rule="evenodd" d="M1.79778 17.7374C5.78666 11.2529 11.0015 11.0563 17.1601 14.0353C18.6744 14.7618 20.189 15.4821 21.7109 16.1984C22.0578 16.3559 22.212 16.7639 22.0615 17.1144L19.8915 22.0167C19.7339 22.3777 19.308 22.5348 18.9501 22.3634L14.4062 20.2218C11.1407 18.6571 9.32897 18.2954 7.52434 21.2706C7.26999 21.6927 7.03728 22.0872 6.85442 22.3917C6.67933 22.6862 6.3228 22.805 6.0136 22.6935L5.8847 22.632L1.33391 19.8312C1.00808 19.6311 0.903516 19.2049 1.09661 18.879C1.31175 18.5395 1.56888 18.088 1.79778 17.7374ZM5.1347 21.3702L5.14055 21.3624C5.14201 21.36 5.143 21.3571 5.14446 21.3546C5.14129 21.3598 5.1378 21.365 5.1347 21.3702ZM16.289 15.8351C13.3806 14.4283 11.0023 13.9308 9.03802 14.3029C7.32675 14.6271 5.61671 15.6755 3.97259 18.0646L3.48723 18.8077L5.81145 20.2384L5.81438 20.2335C6.88597 18.4668 8.27075 17.2072 10.2597 17.0499C11.9564 16.9158 13.6909 17.6612 15.2704 18.4181L18.6025 19.9884L19.7177 17.4679C18.5748 16.9274 17.4345 16.3848 16.2949 15.838L16.289 15.8351Z" fill="black"/>
<path fill-rule="evenodd" clip-rule="evenodd" d="M17.1503 1.6095C17.3504 1.27263 17.7873 1.1651 18.12 1.36926L22.6718 4.17297C22.9903 4.36978 23.0973 4.79264 22.9042 5.11828L22.206 6.26379C18.2207 12.7446 13.0002 12.9411 6.86321 9.96594C5.15496 9.14928 3.26374 8.25047 2.31145 7.80286C1.96462 7.64542 1.80732 7.23726 1.96087 6.88684L4.12786 1.9845C4.28537 1.62645 4.71115 1.46597 5.06927 1.63782L9.59466 3.78235C12.8601 5.34352 14.6763 5.70884 16.4775 2.73352C16.7352 2.30806 16.9716 1.91746 17.1503 1.6095ZM18.1874 3.76965L18.1865 3.76868C17.1157 5.53726 15.7313 6.79667 13.7421 6.95325C12.0484 7.08646 10.3157 6.34396 8.73821 5.58996L5.41595 4.01477L4.30169 6.5343C5.28735 7.00146 6.55101 7.59976 7.72552 8.16125L7.73528 8.16614C10.6314 9.57021 13.0067 10.0676 14.9697 9.69543C16.8425 9.34014 18.7167 8.11788 20.4999 5.21985C20.5051 5.2114 20.5093 5.20213 20.5146 5.19348L18.1913 3.76184C18.1899 3.76426 18.1889 3.76725 18.1874 3.76965Z" fill="black"/>
</svg>
