<svg width="24" height="24" viewBox="0 0 24 24" fill="none" xmlns="http://www.w3.org/2000/svg">
<path fill-rule="evenodd" clip-rule="evenodd" d="M18.9367 1.00245C19.073 0.992421 19.2104 1.01324 19.339 1.06397C19.4675 1.11469 19.5851 1.19441 19.6847 1.29737C19.7843 1.40045 19.8639 1.52525 19.9181 1.66358C19.9723 1.80193 20.0004 1.95136 20.0001 2.10206V21.8989C20.0003 22.0479 19.9731 22.1956 19.9201 22.3325C19.8669 22.4696 19.7884 22.5939 19.6906 22.6968L19.6535 22.7339C19.5642 22.8186 19.4614 22.8857 19.3507 22.9312L19.3019 22.9497C19.1895 22.9886 19.0712 23.005 18.9533 22.9985L5.58023 22.3384C5.34458 22.3277 5.12047 22.2255 4.94741 22.0503L4.91323 22.0142C4.73616 21.817 4.63337 21.5533 4.62515 21.2759L4.0021 3.12843C3.9943 2.9841 4.01193 2.83926 4.05484 2.70264C4.09778 2.56597 4.16496 2.43963 4.2521 2.33155C4.33926 2.22354 4.44561 2.13568 4.56362 2.07276C4.68163 2.00992 4.80976 1.97254 4.94058 1.96436L15.9054 1.20362L15.9132 1.22218L15.8136 3.70655C15.8125 3.7376 15.8191 3.76847 15.8332 3.79542C15.8474 3.82259 15.8694 3.84543 15.8947 3.85987C15.9135 3.87051 15.9343 3.87624 15.9552 3.87745H15.9767C16.0049 3.87453 16.0324 3.86242 16.0548 3.84327L16.9347 3.11085L17.6828 3.75245L17.6994 3.76319C17.7169 3.77273 17.7364 3.77836 17.756 3.77979C17.7758 3.78116 17.796 3.77807 17.8146 3.771L17.8332 3.76221C17.8505 3.75251 17.8664 3.7393 17.8791 3.72315L17.8908 3.70557C17.9052 3.68121 17.9138 3.65262 17.9152 3.62354L17.8322 1.09425L18.9367 1.00245ZM14.5998 2.6919C14.4757 2.70038 6.06666 3.37099 5.95718 3.42628C5.86143 3.48063 5.77497 3.55769 5.70425 3.65089C5.63383 3.74393 5.57889 3.85269 5.54409 3.97022C5.50935 4.08805 5.4948 4.21393 5.50112 4.33839L6.00698 20.0112C6.01375 20.2506 6.0976 20.4788 6.24136 20.6489L6.2687 20.6802C6.40923 20.8314 6.592 20.9199 6.78335 20.9292L17.6496 21.4995C17.7452 21.5051 17.8416 21.4901 17.9328 21.4566L17.9718 21.4409C18.0616 21.4018 18.1454 21.344 18.2179 21.271L18.2482 21.2378C18.3275 21.1492 18.3916 21.0424 18.4347 20.9243C18.4778 20.8061 18.4992 20.6779 18.4992 20.5493V5.5337C18.4983 5.73261 18.2763 5.85116 18.1105 5.74073L16.9992 5.0005L15.3468 5.99073C15.5948 6.16604 15.8276 6.36866 16.0402 6.60303C16.9533 7.6099 17.3145 8.96481 17.3146 10.4224V11.146L16.7492 11.5962C16.5296 11.771 16.2899 11.8667 16.1427 11.9165C16.247 12.0292 16.3504 12.1468 16.4474 12.273C17.0647 13.0761 17.4533 14.0891 17.4533 15.3511C17.4531 16.8113 16.8835 18.055 15.8751 18.9107C14.8961 19.7413 13.6207 20.1098 12.3312 20.1099H12.3205L12.2228 20.1089H12.2121C11.0049 20.0921 9.61945 19.8108 8.56265 18.8316C7.46019 17.8097 7.00214 16.3013 7.11734 14.4614L7.12515 14.3364L7.15347 14.2144C7.25878 13.7637 7.5288 13.4771 7.71206 13.3276C7.89457 13.1789 8.07714 13.0936 8.19644 13.0454C8.22382 13.0344 8.25205 13.0249 8.27944 13.0151C7.68567 12.2944 7.22865 11.3444 7.20327 10.0649L7.2023 10.0581V9.97022L7.20132 9.96241V9.9546C7.2014 8.62951 7.63142 7.37398 8.58413 6.45264C9.5329 5.53538 10.8341 5.10995 12.2726 5.10987H12.2873L12.3937 5.11085H12.4064C13.1556 5.12453 13.875 5.25768 14.5246 5.5337L14.5998 2.6919ZM12.2726 6.60987C9.97742 6.61003 8.70147 7.95103 8.70132 9.9546L8.7023 10.0357C8.76958 13.4255 13.0736 13.5019 13.0744 15.3814L13.0636 15.5757C13.0116 16.0008 12.774 16.2397 12.3087 16.2398L12.2443 16.2388C11.5921 16.2149 11.3262 15.8161 11.3615 14.5552C11.3603 14.2747 8.70271 14.1812 8.61441 14.5552L8.60171 14.8394C8.53109 17.7058 10.2477 18.5813 12.2335 18.6089L12.3312 18.6099C14.3007 18.6097 15.8533 17.5194 15.9484 15.5444L15.9533 15.3511C15.9532 11.6318 11.507 11.7322 11.507 9.8921C11.5072 9.13651 12.0324 9.03476 12.3312 9.03468L12.3947 9.03565C12.7282 9.04677 13.2373 9.17675 13.1984 10.4858C13.2029 10.8508 15.5008 10.6716 15.8146 10.4224C15.8145 7.96657 14.5995 6.6514 12.3791 6.61085L12.2726 6.60987Z" fill="black"/>
</svg>
