<svg width="24" height="24" viewBox="0 0 24 24" fill="none" xmlns="http://www.w3.org/2000/svg">
<path d="M9 0.999512C9.55215 0.999512 9.99978 1.44741 10 1.99951V3.99951C10 4.5518 9.55229 4.99951 9 4.99951H7C5.89557 4.99951 5.00022 5.89513 5 6.99951V16.9995C5 18.1041 5.89543 18.9995 7 18.9995H17C18.1046 18.9995 19 18.1041 19 16.9995V14.9995C19.0002 14.4474 19.4479 13.9995 20 13.9995H22C22.5521 13.9995 22.9998 14.4474 23 14.9995C23 15.5518 22.5523 15.9995 22 15.9995H21V16.9995C21 19.1395 19.3194 20.8874 17.2061 20.9946L17 20.9995H16V21.9995C16 22.5518 15.5523 22.9995 15 22.9995C14.4477 22.9995 14 22.5518 14 21.9995V20.9995H10V21.9995C10 22.5518 9.55229 22.9995 9 22.9995C8.44772 22.9995 8 22.5518 8 21.9995V20.9995H7L6.79395 20.9946C4.74881 20.8909 3.10865 19.2507 3.00488 17.2056L3 16.9995V15.9995H2C1.44772 15.9995 1 15.5518 1 14.9995C1.00022 14.4474 1.44785 13.9995 2 13.9995H3V9.99951H2C1.44772 9.99951 1 9.5518 1 8.99951C1.00022 8.44741 1.44785 7.99951 2 7.99951H3V6.99951C3.00022 4.79056 4.791 2.99951 7 2.99951H8V1.99951C8.00022 1.44741 8.44785 0.999512 9 0.999512Z" fill="black"/>
<path d="M11.9277 9.01025C12.0453 8.9762 12.1852 9.02729 12.2363 9.16357L12.6436 10.2505C12.8353 10.7616 13.2389 11.1652 13.75 11.3569L14.8369 11.7642C15.0544 11.8461 15.0543 12.1538 14.8369 12.2358L13.75 12.644C13.239 12.8357 12.8353 13.2385 12.6436 13.7495L12.2363 14.8364C12.23 14.8532 12.2217 14.8691 12.2129 14.8833C12.2078 14.8916 12.2021 14.8993 12.1963 14.9067L12.1924 14.9116C12.1858 14.9195 12.1783 14.9272 12.1709 14.9341C12.1671 14.9376 12.1631 14.9406 12.1592 14.9438C12.1551 14.9472 12.1508 14.9506 12.1465 14.9536C12.1413 14.9573 12.1362 14.9611 12.1309 14.9644C12.1253 14.9677 12.119 14.9703 12.1133 14.9731C12.1091 14.9752 12.1049 14.9772 12.1006 14.979C12.0941 14.9817 12.0867 14.9846 12.0801 14.9868C12.0762 14.9881 12.0723 14.9896 12.0684 14.9907C12.0607 14.9928 12.0528 14.9942 12.0449 14.9956C12.0414 14.9962 12.0377 14.9971 12.0342 14.9976C12.0113 15.0006 11.9878 15.0006 11.9648 14.9976C11.962 14.9972 11.9588 14.9961 11.9561 14.9956C11.9479 14.9942 11.9397 14.9929 11.9316 14.9907C11.927 14.9894 11.9216 14.9874 11.917 14.9858C11.9114 14.984 11.9058 14.9823 11.9004 14.98C11.8954 14.9779 11.8906 14.9756 11.8857 14.9731C11.8796 14.9701 11.8731 14.967 11.8672 14.9634C11.863 14.9608 11.8586 14.9574 11.8545 14.9546C11.8489 14.9507 11.8432 14.9463 11.8379 14.9419C11.8347 14.9393 11.8311 14.9369 11.8281 14.9341C11.8208 14.9272 11.8142 14.9195 11.8076 14.9116L11.8037 14.9067C11.7978 14.8993 11.7922 14.8916 11.7871 14.8833C11.7783 14.869 11.77 14.8533 11.7637 14.8364L11.3564 13.7495C11.1647 13.2385 10.7611 12.8357 10.25 12.644L9.16309 12.2358C9.09528 12.2103 9.04895 12.1627 9.02344 12.1069C8.99279 12.0397 8.99274 11.9603 9.02344 11.8931C9.03355 11.871 9.04674 11.8502 9.06348 11.8315C9.08895 11.8034 9.12238 11.7795 9.16309 11.7642L9.36914 11.686L10.25 11.3569C10.7348 11.1751 11.1229 10.8026 11.3252 10.3286L11.3564 10.2505L11.7637 9.16357C11.7739 9.13639 11.7883 9.11269 11.8047 9.09229C11.8211 9.07191 11.8396 9.05412 11.8604 9.04053C11.8812 9.02694 11.9043 9.01706 11.9277 9.01025Z" fill="black"/>
<path d="M17.8789 1.01709C18.0748 0.960232 18.3084 1.04574 18.3936 1.27295L19.0723 3.0835C19.3918 3.93551 20.064 4.60868 20.916 4.92822L22.7275 5.60693C23.0908 5.74326 23.0906 6.25661 22.7275 6.39307L20.916 7.07275C20.0642 7.39229 19.3918 8.06461 19.0723 8.9165L18.3936 10.728C18.383 10.756 18.3692 10.7815 18.3545 10.8052C18.3457 10.8193 18.3362 10.8326 18.3262 10.8452C18.3244 10.8474 18.3231 10.8499 18.3213 10.8521C18.3101 10.8655 18.2976 10.8776 18.2852 10.8892C18.2785 10.8953 18.2716 10.9011 18.2646 10.9067C18.2579 10.9122 18.2511 10.9174 18.2441 10.9224C18.2356 10.9284 18.2267 10.9346 18.2178 10.9399C18.2085 10.9455 18.199 10.9508 18.1895 10.9556C18.1821 10.9592 18.1745 10.9621 18.167 10.9653C18.1562 10.9699 18.1449 10.9744 18.1338 10.978C18.1271 10.9802 18.1201 10.982 18.1133 10.9839C18.1005 10.9874 18.0873 10.9904 18.0742 10.9927C18.0687 10.9937 18.0632 10.9948 18.0576 10.9956C18.0193 11.0007 17.9797 11.0008 17.9414 10.9956C17.9368 10.995 17.9323 10.9944 17.9277 10.9937C17.9136 10.9913 17.8996 10.9877 17.8857 10.9839C17.878 10.9817 17.87 10.9796 17.8623 10.9771C17.8528 10.9738 17.8433 10.9702 17.834 10.9663C17.8257 10.9628 17.8176 10.9586 17.8096 10.9546C17.7994 10.9495 17.7891 10.9449 17.7793 10.939C17.7721 10.9346 17.7647 10.9291 17.7578 10.9243C17.7484 10.9177 17.7393 10.9103 17.7305 10.9028C17.7252 10.8984 17.719 10.8949 17.7139 10.8901C17.7014 10.8785 17.6899 10.8655 17.6787 10.8521C17.6768 10.8497 17.6747 10.8476 17.6729 10.8452C17.663 10.8328 17.6542 10.8191 17.6455 10.8052C17.6308 10.7814 17.617 10.7561 17.6064 10.728L16.9277 8.9165C16.6082 8.0645 15.935 7.39226 15.083 7.07275L13.2725 6.39307C13.159 6.35042 13.0806 6.27151 13.0381 6.17822C12.987 6.06621 12.9869 5.93376 13.0381 5.82178C13.0551 5.78459 13.0781 5.74958 13.1064 5.71826C13.149 5.67123 13.2045 5.63247 13.2725 5.60693L13.6162 5.47705L15.083 4.92822C15.891 4.62522 16.5379 4.00429 16.875 3.21436L16.9277 3.0835L17.6064 1.27197C17.6234 1.22691 17.6467 1.18767 17.6738 1.15381C17.7012 1.11982 17.7329 1.09055 17.7676 1.06787C17.8021 1.04531 17.84 1.02843 17.8789 1.01709Z" fill="black"/>
</svg>
