<svg width="24" height="24" viewBox="0 0 24 24" fill="none" xmlns="http://www.w3.org/2000/svg">
<path fill-rule="evenodd" clip-rule="evenodd" d="M11.7574 2.03454C12.1491 1.92084 12.6153 2.09199 12.7857 2.54626L14.1451 6.16735C14.7841 7.87106 16.128 9.21675 17.8316 9.85583L21.4547 11.2142C22.1809 11.487 22.1809 12.5146 21.4547 12.7875L17.8316 14.1459C16.1282 14.7849 14.7841 16.1298 14.1451 17.8334L12.7857 21.4554L12.7496 21.5355C12.7364 21.561 12.7223 21.586 12.7076 21.6097L12.6519 21.6908C12.6484 21.6952 12.6448 21.7002 12.6412 21.7045C12.6191 21.731 12.5955 21.7557 12.5709 21.7787L12.5289 21.8129C12.5154 21.8238 12.5019 21.8351 12.4879 21.8451L12.4351 21.8802L12.3785 21.9105C12.3639 21.9178 12.3485 21.9257 12.3336 21.932L12.2681 21.9545L12.2262 21.9681C12.2008 21.975 12.1748 21.9822 12.149 21.9867L12.1139 21.9925C12.0757 21.9976 12.037 22.0003 11.9986 22.0004L11.8834 21.9925L11.8541 21.9867L11.7701 21.9681C11.755 21.964 11.739 21.9595 11.7242 21.9545L11.6676 21.933L11.6187 21.9095L11.5582 21.8783L11.5162 21.85C11.4973 21.8368 11.4784 21.822 11.4605 21.807L11.4283 21.7806C11.4034 21.7575 11.3793 21.7313 11.357 21.7045L11.3453 21.6908L11.2896 21.6107C11.2602 21.5632 11.2326 21.5116 11.2115 21.4554L9.85409 17.8334C9.215 16.1298 7.87021 14.7849 6.16659 14.1459L2.54354 12.7875C2.37362 12.7235 2.24315 12.618 2.15292 12.4906L2.07577 12.3568C1.97374 12.133 1.97379 11.8687 2.07577 11.6449C2.10968 11.5707 2.15611 11.5004 2.21249 11.4379C2.2762 11.3674 2.35473 11.3051 2.44686 11.2572L2.54354 11.2142L3.23104 10.9554L6.16659 9.85583C7.78216 9.24982 9.07435 8.00856 9.74862 6.42907L9.85409 6.16735L11.2115 2.5443C11.2455 2.45393 11.2928 2.37486 11.3473 2.307C11.4019 2.23911 11.4665 2.1824 11.5357 2.13708C11.6047 2.09205 11.6797 2.05721 11.7574 2.03454ZM11.7271 6.8695L11.7174 6.89489L11.7076 6.92126L11.6012 7.182L11.5943 7.1986L11.5875 7.21423C10.7549 9.16439 9.20774 10.7235 7.26327 11.5687L6.86874 11.7279L6.14022 12.0004L6.86874 12.2738C9.11311 13.1156 10.8852 14.8866 11.7271 17.1312L11.9996 17.8588L12.273 17.1312L12.441 16.7162C13.3371 14.6696 15.0249 13.0633 17.1295 12.2738L17.857 12.0004L17.1295 11.7279C15.0249 10.9384 13.3372 9.33205 12.441 7.28551L12.273 6.87048L11.9986 6.14196L11.7271 6.8695Z" fill="black"/>
</svg>
