<svg width="24" height="24" viewBox="0 0 24 24" fill="none" xmlns="http://www.w3.org/2000/svg">
<path fill-rule="evenodd" clip-rule="evenodd" d="M13.9808 2C14.5821 2.00017 15.0475 2.52728 14.973 3.12402L14.1136 10H17.9778C18.8257 10 19.2892 10.9893 18.7464 11.6406L10.4134 21.6406C10.2234 21.8685 9.94156 22 9.64484 22H9.26594C8.65757 21.9998 8.19063 21.4607 8.27668 20.8584L9.11359 15H6.02179C5.21517 14.9999 4.74038 14.0939 5.19953 13.4307L12.8148 2.43066C13.0015 2.16093 13.309 2.00007 13.637 2H13.9808ZM7.93781 13H11.4134L10.6634 18.2002L15.8382 12H11.8382L12.5628 6.3252L7.93781 13Z" fill="black"/>
</svg>
