<svg width="24" height="24" viewBox="0 0 24 24" fill="none" xmlns="http://www.w3.org/2000/svg">
<path fill-rule="evenodd" clip-rule="evenodd" d="M20.3779 19.3359L19.0859 20.6289L17.2529 18.7959H6.5C3.46598 18.7959 1.00024 16.3299 1 13.2959C1 10.4635 3.14531 8.12554 5.9043 7.83203H6.28906L3.75 5.29297L5.04297 4L20.3779 19.3359ZM6.5 9.62891C4.47417 9.62891 2.83301 11.2701 2.83301 13.2959C2.83325 15.3215 4.47432 16.9619 6.5 16.9619H15.4199L8.08594 9.62891H6.5Z" fill="black"/>
<path d="M12 4.12891C15.3367 4.12891 18.114 6.50352 18.7373 9.66602C21.1204 9.8311 22.9998 11.7921 23 14.2119C23 15.6232 22.3494 16.8608 21.3506 17.7041L20.0576 16.4121C20.7266 15.908 21.167 15.1193 21.167 14.2119C21.1668 12.6905 19.9384 11.4621 18.417 11.4619H17.042V11.0039C17.042 8.21724 14.7867 5.96191 12 5.96191C11.2942 5.96191 10.6337 6.11796 10.0195 6.38379L8.6543 5.01758C9.64419 4.45857 10.781 4.12891 12 4.12891Z" fill="black"/>
</svg>
