<svg width="24" height="24" viewBox="0 0 24 24" fill="none" xmlns="http://www.w3.org/2000/svg">
<path fill-rule="evenodd" clip-rule="evenodd" d="M13.2949 4.78924C14.953 4.49824 16.1369 5.03287 16.8926 5.69745C17.1169 5.89489 17.2975 6.09983 17.4414 6.28729C17.4602 6.28336 17.4796 6.27799 17.499 6.27459C18.0439 6.17922 18.8249 6.17004 19.6142 6.58905C20.3785 6.99489 20.8189 7.60144 21.0625 8.08123C21.1266 8.20776 21.1747 8.32893 21.2148 8.43573C21.4123 8.5416 21.6459 8.69082 21.8769 8.90545C22.4816 9.46765 22.996 10.3814 22.9961 11.756C22.9958 13.844 21.2565 15.2638 19.7314 15.2639H16.2822C16.3133 15.4736 16.332 15.696 16.332 15.9308C16.3317 16.9635 15.8674 17.8102 15.251 18.383C14.6517 18.9394 13.849 19.2931 13.0674 19.2931H4.88767C4.47732 19.2931 3.51933 19.2603 2.65037 18.7814C2.19735 18.5316 1.7574 18.1535 1.44431 17.5988C1.1314 17.0441 0.980648 16.3735 1.00681 15.5939C1.04615 14.4288 1.64766 13.6298 2.30564 13.1525C2.59734 12.9411 2.91213 12.7853 3.21189 12.6779C3.27013 12.347 3.37498 11.9471 3.56639 11.5383C4.02194 10.5659 4.94513 9.59127 6.6406 9.31073C7.31905 9.19858 7.9265 9.21606 8.46287 9.32733C8.61335 9.15434 8.77731 9.00332 8.94627 8.87323C9.24211 8.64553 9.56353 8.47933 9.8701 8.36444C9.92486 8.01336 10.0253 7.5809 10.2207 7.13788C10.6636 6.13405 11.577 5.09093 13.2949 4.78924ZM7.68064 11.2394C7.47247 11.2287 7.23542 11.24 6.96678 11.2844C5.99742 11.4449 5.58731 11.937 5.37693 12.3859C5.14061 12.8908 5.13767 13.3984 5.13767 13.4963V14.4963H4.13865L4.07127 14.506C4.02866 14.5148 3.97257 14.5295 3.90916 14.551C3.7815 14.5943 3.62689 14.6649 3.47947 14.7717C3.21958 14.9603 3.01945 15.2293 3.00486 15.6623C2.98894 16.141 3.08416 16.435 3.1865 16.6164C3.28841 16.7967 3.43368 16.9283 3.61717 17.0295C4.02189 17.2523 4.5478 17.2931 4.88767 17.2931H13.0674C13.2721 17.2931 13.6041 17.183 13.8896 16.9181C14.1577 16.6691 14.3317 16.332 14.332 15.9308C14.332 15.6523 14.2926 15.4343 14.2383 15.2639H11.5517C11.1372 15.2638 10.1696 15.2289 9.29295 14.716C8.83652 14.4489 8.40166 14.0505 8.09568 13.4748C7.79146 12.9021 7.6453 12.2108 7.67088 11.4025C7.67263 11.3474 7.67662 11.293 7.68064 11.2394ZM15.5703 7.19842C15.2278 6.89744 14.6467 6.58239 13.6406 6.75897C12.6933 6.92535 12.274 7.44047 12.0508 7.94647C11.8053 8.50353 11.8017 9.06209 11.8017 9.17108V10.1711H10.8027L10.7461 10.1808C10.7097 10.1889 10.6566 10.203 10.5908 10.2267C10.4668 10.2715 10.3139 10.3444 10.166 10.4582L10.167 10.4592C9.90804 10.6586 9.68508 10.9603 9.66892 11.466C9.65228 11.9937 9.75127 12.3261 9.86228 12.5353C9.97174 12.7412 10.1228 12.8841 10.3027 12.9894C10.7002 13.2219 11.2162 13.2638 11.5517 13.2639H19.7314C19.9405 13.2638 20.2595 13.1376 20.5312 12.8693C20.7959 12.608 20.9959 12.2301 20.9961 11.756C20.996 10.9332 20.7103 10.5514 20.5156 10.3703C20.4606 10.3192 20.405 10.2784 20.3545 10.2453L20.2197 10.1691C20.1999 10.1598 20.1822 10.1539 20.1679 10.1486H20.1572L20.1269 10.133L19.5176 9.98553L19.4912 9.82245L19.416 9.36834L19.4111 9.34393L19.4101 9.33807L19.3926 9.26873C19.3727 9.20162 19.3369 9.10009 19.2793 8.98651C19.164 8.75932 18.978 8.51577 18.6767 8.35565C18.4001 8.20877 18.106 8.1994 17.8437 8.2453C17.715 8.26788 17.6064 8.30287 17.5332 8.33026L17.459 8.36053C17.4543 8.36265 17.4494 8.36379 17.4453 8.36541L16.7246 8.74334L16.4795 8.87225L16.3769 8.61541L16.0654 7.83807C16.0633 7.83377 16.0604 7.82814 16.0576 7.82245C16.0424 7.7918 16.0134 7.73872 15.9717 7.67206C15.8874 7.53762 15.7555 7.36135 15.5703 7.19842Z" fill="black"/>
</svg>
