<svg width="24" height="24" viewBox="0 0 24 24" fill="none" xmlns="http://www.w3.org/2000/svg">
<path fill-rule="evenodd" clip-rule="evenodd" d="M9 2C10.1046 2 11 2.89543 11 4V14C11 15.0357 10.2128 15.887 9.2041 15.9893L9 16H7V19C7 19.5523 7.44772 20 8 20H16C16.5523 20 17 19.5523 17 19V14.5L13.3594 11.2998C13.1314 11.1098 13 10.828 13 10.5312V7C13 6.44772 13.4477 6 14 6H15V3C15 2.44772 15.4477 2 16 2C16.5523 2 17 2.44772 17 3V6H19V3C19 2.44772 19.4477 2 20 2C20.5523 2 21 2.44772 21 3V6H22C22.5523 6 23 6.44772 23 7V10.5312C23 10.828 22.8686 11.1098 22.6406 11.2998L19 14.5V19C19 20.6569 17.6569 22 16 22H8C6.34315 22 5 20.6569 5 19V16H3L2.7959 15.9893C1.85435 15.8938 1.1062 15.1457 1.01074 14.2041L1 14V4C1 2.89543 1.89543 2 3 2H9ZM3 12V14H9V12H3ZM3 10H9V8H3V10ZM3 6H9V4H3V6Z" fill="black"/>
</svg>
