<svg width="24" height="24" viewBox="0 0 24 24" fill="none" xmlns="http://www.w3.org/2000/svg">
<path fill-rule="evenodd" clip-rule="evenodd" d="M6.40039 15C6.66378 15 6.92186 14.9989 7.13867 15.0166C7.36717 15.0353 7.63695 15.0796 7.9082 15.2178C8.28445 15.4095 8.59049 15.7155 8.78223 16.0918C8.92044 16.3631 8.9647 16.6328 8.9834 16.8613C9.00111 17.0781 9 17.3362 9 17.5996V19.4004C9 19.6638 9.00111 19.9219 8.9834 20.1387C8.9647 20.3672 8.92044 20.6369 8.78223 20.9082C8.59049 21.2845 8.28445 21.5905 7.9082 21.7822C7.63695 21.9204 7.36717 21.9647 7.13867 21.9834C6.92186 22.0011 6.66378 22 6.40039 22H4.59961C4.33622 22 4.07814 22.0011 3.86133 21.9834C3.63283 21.9647 3.36305 21.9204 3.0918 21.7822C2.71555 21.5905 2.40951 21.2845 2.21777 20.9082C2.07956 20.6369 2.0353 20.3672 2.0166 20.1387C1.99889 19.9219 2 19.6638 2 19.4004V17.5996C2 17.3362 1.99889 17.0781 2.0166 16.8613C2.03062 16.6901 2.05937 16.4958 2.13086 16.2949L2.21777 16.0918L2.29492 15.9541C2.48707 15.6409 2.76256 15.3855 3.0918 15.2178C3.36305 15.0796 3.63283 15.0353 3.86133 15.0166C4.07814 14.9989 4.33622 15 4.59961 15H6.40039ZM4.59961 17C4.30334 17 4.14095 17.0012 4.02441 17.0107C4.02032 17.0111 4.01641 17.0114 4.0127 17.0117C4.01232 17.0157 4.01111 17.0199 4.01074 17.0244C4.00122 17.1409 4 17.3033 4 17.5996V19.4004C4 19.6967 4.00122 19.8591 4.01074 19.9756C4.01108 19.9797 4.01235 19.9836 4.0127 19.9873C4.01643 19.9876 4.02029 19.9889 4.02441 19.9893C4.14095 19.9988 4.30334 20 4.59961 20H6.40039C6.69666 20 6.85905 19.9988 6.97559 19.9893C6.98007 19.9889 6.98426 19.9877 6.98828 19.9873C6.98862 19.9836 6.98892 19.9797 6.98926 19.9756C6.99878 19.8591 7 19.6967 7 19.4004V17.5996C7 17.3033 6.99878 17.1409 6.98926 17.0244C6.98889 17.02 6.98865 17.0157 6.98828 17.0117C6.98428 17.0114 6.98004 17.0111 6.97559 17.0107C6.85905 17.0012 6.69666 17 6.40039 17H4.59961Z" fill="black"/>
<path d="M12 20C12.5523 20 13 20.4477 13 21C13 21.5523 12.5523 22 12 22H11.9902C11.4379 22 10.9902 21.5523 10.9902 21C10.9902 20.4477 11.4379 20 11.9902 20H12Z" fill="black"/>
<path d="M21 20C21.5523 20 22 20.4477 22 21C22 21.5523 21.5523 22 21 22H16C15.4477 22 15 21.5523 15 21C15 20.4477 15.4477 20 16 20H21Z" fill="black"/>
<path d="M17 11C17.5523 11 18 11.4477 18 12C18 12.5523 17.5523 13 17 13H13V17C13 17.5523 12.5523 18 12 18C11.4477 18 11 17.5523 11 17V12C11 11.4477 11.4477 11 12 11H17Z" fill="black"/>
<path d="M16 16C16.5523 16 17 16.4477 17 17C17 17.5523 16.5523 18 16 18H15.9902C15.4379 18 14.9902 17.5523 14.9902 17C14.9902 16.4477 15.4379 16 15.9902 16H16Z" fill="black"/>
<path d="M21 16C21.5523 16 22 16.4477 22 17C22 17.5523 21.5523 18 21 18H19.5C18.9477 18 18.5 17.5523 18.5 17C18.5 16.4477 18.9477 16 19.5 16H21Z" fill="black"/>
<path d="M3 11C3.55228 11 4 11.4477 4 12C4 12.5523 3.55228 13 3 13H2.99023C2.43795 13 1.99023 12.5523 1.99023 12C1.99023 11.4477 2.43795 11 2.99023 11H3Z" fill="black"/>
<path d="M8.5 11C9.05228 11 9.5 11.4477 9.5 12C9.5 12.5523 9.05228 13 8.5 13H6.5C5.94772 13 5.5 12.5523 5.5 12C5.5 11.4477 5.94772 11 6.5 11H8.5Z" fill="black"/>
<path d="M21 11C21.5523 11 22 11.4477 22 12C22 12.5523 21.5523 13 21 13H20.9902C20.438 13 19.9902 12.5523 19.9902 12C19.9902 11.4477 20.438 11 20.9902 11H21Z" fill="black"/>
<path fill-rule="evenodd" clip-rule="evenodd" d="M6.40039 2C6.66378 2 6.92186 1.99889 7.13867 2.0166C7.36717 2.0353 7.63695 2.07956 7.9082 2.21777C8.28445 2.40951 8.59049 2.71555 8.78223 3.0918C8.92044 3.36306 8.9647 3.63282 8.9834 3.86133C9.00111 4.07814 9 4.33622 9 4.59961V6.40039C9 6.66378 9.00111 6.92186 8.9834 7.13867C8.9647 7.36718 8.92044 7.63694 8.78223 7.9082C8.59049 8.28445 8.28445 8.59049 7.9082 8.78223C7.63695 8.92044 7.36717 8.9647 7.13867 8.9834C6.92186 9.00111 6.66378 9 6.40039 9H4.59961C4.33622 9 4.07814 9.00111 3.86133 8.9834C3.63283 8.9647 3.36305 8.92044 3.0918 8.78223C2.71554 8.59049 2.40951 8.28445 2.21777 7.9082C2.07956 7.63694 2.0353 7.36718 2.0166 7.13867C1.99889 6.92186 2 6.66378 2 6.40039V4.59961C2 4.33622 1.99889 4.07814 2.0166 3.86133C2.03062 3.69005 2.05937 3.49576 2.13086 3.29492L2.21777 3.0918L2.29492 2.9541C2.48707 2.64085 2.76256 2.38555 3.0918 2.21777C3.36305 2.07956 3.63283 2.0353 3.86133 2.0166C4.07814 1.99889 4.33622 2 4.59961 2H6.40039ZM4.59961 4C4.30334 4 4.14095 4.00122 4.02441 4.01074C4.02032 4.01108 4.01641 4.01138 4.0127 4.01172C4.01232 4.01575 4.01111 4.01992 4.01074 4.02441C4.00122 4.14095 4 4.30333 4 4.59961V6.40039C4 6.69667 4.00122 6.85905 4.01074 6.97559C4.01108 6.97972 4.01235 6.98356 4.0127 6.9873C4.01643 6.98765 4.02029 6.98892 4.02441 6.98926C4.14095 6.99878 4.30334 7 4.59961 7H6.40039C6.69666 7 6.85905 6.99878 6.97559 6.98926C6.98007 6.98889 6.98426 6.98768 6.98828 6.9873C6.98862 6.98359 6.98892 6.97969 6.98926 6.97559C6.99878 6.85905 7 6.69667 7 6.40039V4.59961C7 4.30333 6.99878 4.14095 6.98926 4.02441C6.98889 4.01996 6.98865 4.01572 6.98828 4.01172C6.98428 4.01135 6.98004 4.01111 6.97559 4.01074C6.85905 4.00122 6.69666 4 6.40039 4H4.59961Z" fill="black"/>
<path d="M12 1C12.5523 1.00001 13 1.44772 13 2V8C13 8.55228 12.5523 8.99999 12 9C11.4477 9 11 8.55228 11 8V2C11 1.44772 11.4477 1 12 1Z" fill="black"/>
<path fill-rule="evenodd" clip-rule="evenodd" d="M19.4004 2C19.6638 2 19.9219 1.99889 20.1387 2.0166C20.3672 2.0353 20.6369 2.07956 20.9082 2.21777C21.2845 2.40951 21.5905 2.71555 21.7822 3.0918C21.9204 3.36306 21.9647 3.63282 21.9834 3.86133C22.0011 4.07814 22 4.33622 22 4.59961V6.40039C22 6.66378 22.0011 6.92186 21.9834 7.13867C21.9647 7.36718 21.9204 7.63694 21.7822 7.9082C21.5905 8.28445 21.2845 8.59049 20.9082 8.78223C20.6369 8.92044 20.3672 8.9647 20.1387 8.9834C19.9219 9.00111 19.6638 9 19.4004 9H17.5996C17.3362 9 17.0781 9.00111 16.8613 8.9834C16.6328 8.9647 16.3631 8.92044 16.0918 8.78223C15.7155 8.59049 15.4095 8.28445 15.2178 7.9082C15.0796 7.63694 15.0353 7.36718 15.0166 7.13867C14.9989 6.92186 15 6.66378 15 6.40039V4.59961C15 4.33622 14.9989 4.07814 15.0166 3.86133C15.0306 3.69005 15.0594 3.49576 15.1309 3.29492L15.2178 3.0918L15.2949 2.9541C15.4871 2.64085 15.7626 2.38555 16.0918 2.21777C16.3631 2.07956 16.6328 2.0353 16.8613 2.0166C17.0781 1.99889 17.3362 2 17.5996 2H19.4004ZM17.5996 4C17.3033 4 17.1409 4.00122 17.0244 4.01074C17.0203 4.01108 17.0164 4.01138 17.0127 4.01172C17.0123 4.01575 17.0111 4.01992 17.0107 4.02441C17.0012 4.14095 17 4.30333 17 4.59961V6.40039C17 6.69667 17.0012 6.85905 17.0107 6.97559C17.0111 6.97972 17.0124 6.98356 17.0127 6.9873C17.0164 6.98765 17.0203 6.98892 17.0244 6.98926C17.1409 6.99878 17.3033 7 17.5996 7H19.4004C19.6967 7 19.8591 6.99878 19.9756 6.98926C19.9801 6.98889 19.9843 6.98768 19.9883 6.9873C19.9886 6.98359 19.9889 6.97969 19.9893 6.97559C19.9988 6.85905 20 6.69667 20 6.40039V4.59961C20 4.30333 19.9988 4.14095 19.9893 4.02441C19.9889 4.01996 19.9886 4.01572 19.9883 4.01172C19.9843 4.01135 19.98 4.01111 19.9756 4.01074C19.8591 4.00122 19.6967 4 19.4004 4H17.5996Z" fill="black"/>
</svg>
