<svg width="24" height="24" viewBox="0 0 24 24" fill="none" xmlns="http://www.w3.org/2000/svg">
<path d="M4.25879 5.67045C4.60859 5.24364 5.24821 5.24826 5.63867 5.63823C6.02991 6.02964 6.02516 6.66392 5.68457 7.10014C4.63028 8.4498 4.00016 10.1514 4 11.9996C4.00008 13.8479 4.6302 15.5502 5.68457 16.8999C6.02504 17.3361 6.02978 17.9695 5.63867 18.3609C5.24819 18.7512 4.60865 18.7557 4.25879 18.3287C2.84735 16.6045 2.00008 14.3999 2 11.9996C2.00017 9.59923 2.84727 7.39454 4.25879 5.67045Z" fill="black"/>
<path d="M18.3613 5.63823C18.7518 5.24826 19.3914 5.24364 19.7412 5.67045C21.1527 7.39454 21.9998 9.59923 22 11.9996C21.9999 14.3999 21.1527 16.6045 19.7412 18.3287C19.3914 18.7557 18.7518 18.7512 18.3613 18.3609C17.9702 17.9695 17.975 17.3361 18.3154 16.8999C19.3698 15.5502 19.9999 13.8479 20 11.9996C19.9998 10.1514 19.3697 8.4498 18.3154 7.10014C17.9748 6.66392 17.9701 6.02964 18.3613 5.63823Z" fill="black"/>
<path d="M7.11426 8.51616C7.4352 8.06939 8.0766 8.07665 8.46582 8.46537C8.85794 8.85768 8.84414 9.49313 8.55957 9.96928C8.20393 10.5639 8.00013 11.2596 8 11.9996C8.00006 12.7448 8.20725 13.4449 8.56445 14.0455C8.84524 14.5176 8.854 15.1452 8.46582 15.5337C8.07664 15.9227 7.43529 15.9308 7.11426 15.4839C6.41144 14.5047 6.00007 13.3006 6 11.9996C6.00015 10.6987 6.41155 9.4953 7.11426 8.51616Z" fill="black"/>
<path d="M15.5342 8.46537C15.9234 8.07665 16.5648 8.06939 16.8857 8.51616C17.5885 9.4953 17.9998 10.6987 18 11.9996C17.9999 13.3006 17.5886 14.5047 16.8857 15.4839C16.5647 15.9308 15.9234 15.9227 15.5342 15.5337C15.146 15.1452 15.1548 14.5176 15.4355 14.0455C15.7927 13.4449 15.9999 12.7448 16 11.9996C15.9999 11.2596 15.7961 10.5639 15.4404 9.96928C15.1559 9.49313 15.1421 8.85768 15.5342 8.46537Z" fill="black"/>
<path d="M12 9.99955C13.0998 9.99955 13.9996 10.8999 14 11.9996C13.9998 13.0994 13.0999 13.9996 12 13.9996C10.9001 13.9996 10.0002 13.0994 10 11.9996C10.0004 10.8999 10.9002 9.99955 12 9.99955Z" fill="black"/>
</svg>
