<svg width="24" height="24" viewBox="0 0 24 24" fill="none" xmlns="http://www.w3.org/2000/svg">
<path d="M12.0048 12.5C12.557 12.5 13.0048 12.9477 13.0048 13.5C13.0048 14.0523 12.557 14.5 12.0048 14.5C11.4526 14.4998 11.0048 14.0522 11.0048 13.5C11.0048 12.9478 11.4526 12.5002 12.0048 12.5Z" fill="black"/>
<path fill-rule="evenodd" clip-rule="evenodd" d="M15.0048 9.5C15.5547 9.50001 16.0048 9.95001 16.0048 10.5V22.5C16.0048 23.05 15.5547 23.5 15.0048 23.5H9.00475C8.45491 23.4998 8.00475 23.0499 8.00475 22.5V10.5C8.00475 9.95011 8.45491 9.50019 9.00475 9.5H15.0048ZM10.0048 21.5H14.0048V11.5H10.0048V21.5Z" fill="black"/>
<path d="M12.0048 4.5C13.5765 4.5 15.0291 5.01752 16.2001 5.89551C16.6418 6.22675 16.6383 6.8664 16.2479 7.25684C15.859 7.64562 15.2329 7.63754 14.7743 7.33398C13.9797 6.80804 13.0278 6.5 12.0048 6.5C10.9817 6.50007 10.0298 6.808 9.23522 7.33398C8.77662 7.63745 8.15044 7.64568 7.76159 7.25684C7.37149 6.86644 7.36801 6.22673 7.80944 5.89551C8.98036 5.01748 10.433 4.50007 12.0048 4.5Z" fill="black"/>
<path d="M12.0048 0.5C14.687 0.500005 17.1438 1.45755 19.0448 3.05664C19.465 3.41021 19.4614 4.04427 19.0731 4.43262C18.6825 4.82304 18.0515 4.81661 17.621 4.4707C16.0868 3.23818 14.1333 2.5 12.0048 2.5C9.87417 2.50008 7.91885 3.23936 6.3778 4.46777C5.94751 4.81068 5.3196 4.81484 4.93053 4.42578C4.54112 4.03586 4.53865 3.39995 4.96178 3.04688C6.86908 1.45652 9.32435 0.500081 12.0048 0.5Z" fill="black"/>
</svg>
