<svg width="24" height="24" viewBox="0 0 24 24" fill="none" xmlns="http://www.w3.org/2000/svg">
<path d="M2.90039 2.51855C3.17515 2.51863 3.41243 2.61859 3.6123 2.81836L20.5879 19.7939C20.7876 19.9938 20.8832 20.2268 20.875 20.4932C20.8667 20.7598 20.7625 20.9934 20.5625 21.1934C20.3625 21.3767 20.129 21.4731 19.8623 21.4814C19.5958 21.4897 19.363 21.3932 19.1631 21.1934L13.0879 15.1182V19.2939C13.0878 19.5771 12.9914 19.8143 12.7998 20.0059C12.6082 20.1974 12.3711 20.2939 12.0879 20.2939C11.8046 20.2939 11.5667 20.1975 11.375 20.0059C11.1835 19.8143 11.088 19.577 11.0879 19.2939V13.1182L7.08789 9.14355V9.29395C7.08793 9.81047 7.17127 10.3107 7.33789 10.7939C7.50455 11.2771 7.73818 11.727 8.03809 12.1436C8.17132 12.3435 8.2373 12.5607 8.2373 12.7939C8.23721 13.0271 8.15388 13.227 7.9873 13.3936C7.82069 13.5601 7.62092 13.6435 7.3877 13.6436C7.15436 13.6436 6.97122 13.5515 6.83789 13.3682C6.38795 12.7849 6.03371 12.1476 5.77539 11.4561C5.5171 10.7645 5.38774 10.0438 5.3877 9.29395C5.3877 9.01068 5.40418 8.73535 5.4375 8.46875C5.47083 8.20211 5.52898 7.92686 5.6123 7.64355L4.33789 6.36816C4.15457 6.85145 4.01647 7.33507 3.9248 7.81836C3.83314 8.30169 3.78809 8.79395 3.78809 9.29395C3.78813 10.2605 3.94171 11.1939 4.25 12.0938C4.5583 12.9936 5.01244 13.8185 5.6123 14.5684C5.76226 14.7516 5.83785 14.9601 5.83789 15.1934C5.83789 15.4267 5.75456 15.6273 5.58789 15.7939C5.42123 15.9606 5.22062 16.0396 4.9873 16.0312C4.7541 16.0228 4.56302 15.9264 4.41309 15.7432C3.66312 14.8265 3.0875 13.8187 2.6875 12.7188C2.28754 11.6189 2.08793 10.4771 2.08789 9.29395C2.08789 8.56061 2.16686 7.83919 2.3252 7.13086C2.48353 6.4226 2.72145 5.73496 3.03809 5.06836L2.1875 4.21875C2.00421 4.03546 1.91215 3.80616 1.91211 3.53125C1.91211 3.25625 2.00417 3.01836 2.1875 2.81836C2.38749 2.61839 2.62541 2.51855 2.90039 2.51855Z" fill="black"/>
<path d="M19.1875 2.55566C19.4208 2.564 19.6127 2.66042 19.7627 2.84375C20.5125 3.76025 21.0873 4.7684 21.4873 5.86816C21.8873 6.96816 22.0879 8.11061 22.0879 9.29395C22.0879 10.3938 21.9212 11.4522 21.5879 12.4688C21.2546 13.4854 20.7623 14.4351 20.1123 15.3184C19.979 15.5017 19.7958 15.5938 19.5625 15.5938C19.3293 15.5937 19.1295 15.5102 18.9629 15.3438C18.7962 15.1771 18.7129 14.9765 18.7129 14.7432C18.713 14.51 18.7798 14.2936 18.9131 14.0938C19.3964 13.3938 19.7627 12.635 20.0127 11.8184C20.2626 11.0019 20.3877 10.1604 20.3877 9.29395C20.3877 8.32728 20.2331 7.39316 19.9248 6.49316C19.6165 5.59334 19.1624 4.76843 18.5625 4.01855C18.4125 3.83523 18.3379 3.62687 18.3379 3.39355C18.3379 3.16024 18.4213 2.9606 18.5879 2.79395C18.7545 2.62731 18.9542 2.54736 19.1875 2.55566Z" fill="black"/>
<path d="M16.7881 4.94336C17.0212 4.94349 17.2046 5.03554 17.3379 5.21875C17.8045 5.80201 18.1631 6.4393 18.4131 7.13086C18.6631 7.82253 18.7881 8.54395 18.7881 9.29395C18.788 9.92715 18.696 10.5524 18.5127 11.1689C18.3294 11.7855 18.0541 12.3603 17.6875 12.8936C17.5542 13.0768 17.3752 13.1723 17.1504 13.1807C16.9256 13.189 16.7213 13.102 16.5381 12.9189C16.3714 12.7523 16.2881 12.5517 16.2881 12.3184C16.2881 12.0853 16.3542 11.8688 16.4873 11.6689C16.6873 11.3023 16.8375 10.9185 16.9375 10.5186C17.0375 10.1187 17.0879 9.71048 17.0879 9.29395C17.0879 8.77744 17.0045 8.27714 16.8379 7.79395C16.6712 7.31061 16.4377 6.86003 16.1377 6.44336C16.0045 6.2435 15.9376 6.02709 15.9375 5.79395C15.9375 5.56061 16.0208 5.36003 16.1875 5.19336C16.3542 5.02672 16.5548 4.94336 16.7881 4.94336Z" fill="black"/>
<path d="M12.0879 6.79395C12.7877 6.79401 13.3791 7.03539 13.8623 7.51855C14.3456 8.00189 14.5879 8.59395 14.5879 9.29395V9.54395C14.5878 9.62715 14.5714 9.71074 14.5381 9.79395C14.4881 9.99372 14.3585 10.1146 14.1504 10.1562C13.9421 10.1979 13.7623 10.1432 13.6123 9.99316L11.3877 7.76855C11.2377 7.61855 11.1873 7.44316 11.2373 7.24316C11.2873 7.04333 11.4046 6.91038 11.5879 6.84375C11.6712 6.81047 11.7546 6.79395 11.8379 6.79395H12.0879Z" fill="black"/>
</svg>
