<svg width="24" height="24" viewBox="0 0 24 24" fill="none" xmlns="http://www.w3.org/2000/svg">
<path d="M12 7.3441C12.6999 7.3441 13.2921 7.58649 13.7754 8.06968C14.2583 8.5528 14.4999 9.14456 14.5 9.8441C14.5 10.3438 14.3626 10.8026 14.0879 11.2191C13.813 11.6357 13.4499 11.9439 13 12.1439V19.8441C13 20.1273 12.9043 20.3654 12.7129 20.557C12.5212 20.7487 12.2833 20.8441 12 20.8441C11.7167 20.8441 11.4788 20.7487 11.2871 20.557C11.0957 20.3654 11 20.1273 11 19.8441V12.1439C10.5501 11.9439 10.187 11.6357 9.91211 11.2191C9.63738 10.8026 9.5 10.3438 9.5 9.8441C9.50015 9.14456 9.74168 8.5528 10.2246 8.06968C10.7079 7.58649 11.3001 7.3441 12 7.3441Z" fill="black"/>
<path d="M4.9375 3.1566C5.17891 3.14828 5.38324 3.22759 5.5498 3.3939C5.71637 3.56047 5.7997 3.76134 5.7998 3.99449C5.79977 4.22764 5.72502 4.43626 5.5752 4.61949C4.97528 5.36938 4.51249 6.1865 4.1875 7.06968C3.86265 7.95272 3.70027 8.87778 3.7002 9.8441C3.7002 10.8106 3.86259 11.7363 4.1875 12.6195C4.51246 13.5027 4.97533 14.3198 5.5752 15.0697C5.72493 15.2528 5.79971 15.4617 5.7998 15.6947C5.79972 15.9278 5.71624 16.1278 5.5498 16.2943C5.38315 16.4609 5.17912 16.5399 4.9375 16.5316C4.69584 16.5233 4.4996 16.4278 4.34961 16.2445C3.59981 15.3446 3.02058 14.3486 2.6123 13.2572C2.20406 12.1656 2 11.0273 2 9.8441C2.00007 8.66107 2.2041 7.52339 2.6123 6.43199C3.02057 5.34063 3.59986 4.34447 4.34961 3.44468C4.49958 3.26151 4.69594 3.16493 4.9375 3.1566Z" fill="black"/>
<path d="M19.0625 3.1566C19.3041 3.16493 19.5004 3.26151 19.6504 3.44468C20.4001 4.34447 20.9794 5.34063 21.3877 6.43199C21.7959 7.52339 21.9999 8.66107 22 9.8441C22 11.0273 21.7959 12.1656 21.3877 13.2572C20.9794 14.3486 20.4002 15.3446 19.6504 16.2445C19.5004 16.4278 19.3042 16.5233 19.0625 16.5316C18.8209 16.5399 18.6168 16.4609 18.4502 16.2943C18.2838 16.1278 18.2003 15.9278 18.2002 15.6947C18.2003 15.4617 18.2751 15.2528 18.4248 15.0697C19.0247 14.3198 19.4875 13.5027 19.8125 12.6195C20.1374 11.7363 20.2998 10.8106 20.2998 9.8441C20.2997 8.87778 20.1374 7.95272 19.8125 7.06968C19.4875 6.1865 19.0247 5.36938 18.4248 4.61949C18.275 4.43626 18.2002 4.22764 18.2002 3.99449C18.2003 3.76134 18.2836 3.56047 18.4502 3.3939C18.6168 3.22759 18.8211 3.14828 19.0625 3.1566Z" fill="black"/>
<path d="M7.25 5.44468C7.48323 5.44468 7.68299 5.52816 7.84961 5.69468C8.01618 5.86125 8.09951 6.06551 8.09961 6.30699C8.09958 6.54846 8.03356 6.76146 7.90039 6.94468C7.60049 7.37788 7.3746 7.83652 7.22461 8.31968C7.07476 8.80269 7.00006 9.31116 7 9.8441C7 10.3773 7.07469 10.8863 7.22461 11.3695C7.37458 11.8527 7.6005 12.3113 7.90039 12.7445C8.0335 12.9276 8.09953 13.1408 8.09961 13.3822C8.09952 13.6236 8.01605 13.8279 7.84961 13.9945C7.683 14.161 7.4832 14.2445 7.25 14.2445C7.01667 14.2445 6.83353 14.1524 6.7002 13.9691C6.25031 13.3858 5.90373 12.7398 5.66211 12.0316C5.4206 11.3235 5.2998 10.5939 5.2998 9.8441C5.29987 9.09432 5.42051 8.36473 5.66211 7.6566C5.90377 6.94844 6.25029 6.30231 6.7002 5.7191C6.8335 5.5361 7.01688 5.44468 7.25 5.44468Z" fill="black"/>
<path d="M16.75 5.44468C16.9831 5.44468 17.1665 5.5361 17.2998 5.7191C17.7497 6.30231 18.0962 6.94844 18.3379 7.6566C18.5795 8.36473 18.7001 9.09432 18.7002 9.8441C18.7002 10.5939 18.5794 11.3235 18.3379 12.0316C18.0963 12.7398 17.7497 13.3858 17.2998 13.9691C17.1665 14.1524 16.9833 14.2445 16.75 14.2445C16.5168 14.2445 16.317 14.161 16.1504 13.9945C15.9839 13.8279 15.9005 13.6236 15.9004 13.3822C15.9005 13.1408 15.9665 12.9276 16.0996 12.7445C16.3995 12.3113 16.6254 11.8527 16.7754 11.3695C16.9253 10.8863 17 10.3773 17 9.8441C16.9999 9.31116 16.9252 8.80269 16.7754 8.31968C16.6254 7.83652 16.3995 7.37788 16.0996 6.94468C15.9664 6.76146 15.9004 6.54846 15.9004 6.30699C15.9005 6.06551 15.9838 5.86125 16.1504 5.69468C16.317 5.52816 16.5168 5.44468 16.75 5.44468Z" fill="black"/>
</svg>
