<svg width="24" height="24" viewBox="0 0 24 24" fill="none" xmlns="http://www.w3.org/2000/svg">
<path d="M9 18.1699C10.66 16.5099 13.35 16.5099 15 18.1699L12 21.1699L9 18.1699Z" fill="black"/>
<path d="M2.70508 3.51465C3.09443 3.12533 3.72588 3.12532 4.11523 3.51465L19.6748 19.0742C20.0642 19.4636 20.0641 20.095 19.6748 20.4844C19.2854 20.8737 18.654 20.8737 18.2646 20.4844L11.8896 14.1094C10.1098 14.1295 8.34991 14.82 7 16.1699L5 14.1699C6.27 12.9099 7.79016 12.0599 9.41016 11.6299L7.16992 9.38965C5.64996 10.0096 4.22997 10.94 3 12.1699L1 10.1699C2.21996 8.95997 3.58986 7.99952 5.0498 7.26953L2.70508 4.92481C2.31574 4.53544 2.31572 3.904 2.70508 3.51465Z" fill="black"/>
<path d="M15.2803 11.8398C16.6401 12.3198 17.9201 13.09 19 14.1699L18.2998 14.8594L15.2803 11.8398Z" fill="black"/>
<path d="M9.2998 5.85938C14.1298 5.01938 19.27 6.43994 23 10.1699L21 12.1699C18.49 9.65994 15.1799 8.41945 11.8799 8.43945L9.2998 5.85938Z" fill="black"/>
</svg>
