<svg width="24" height="24" viewBox="0 0 24 24" fill="none" xmlns="http://www.w3.org/2000/svg">
<path d="M19.0004 16.586C19.0004 16.9518 18.8001 17.2886 18.479 17.4639L12.479 20.7383C12.1804 20.9012 11.8195 20.9012 11.521 20.7383L5.52095 17.4639C5.19987 17.2886 5.00044 16.9518 5.00044 16.586V13.1797L12.0004 17L19.0004 13.1797V16.586Z" fill="black"/>
<path d="M11.521 3.26076C11.8194 3.09797 12.1805 3.09798 12.479 3.26076L23.0004 9.00002V16C23.0003 16.5521 22.5525 16.9998 22.0004 17C21.4482 17 21.0006 16.5522 21.0004 16V10.0899L12.0004 15L1.80513 9.4385C1.4577 9.24899 1.4577 8.75008 1.80513 8.56057L11.521 3.26076Z" fill="black"/>
</svg>
