<svg width="24" height="24" viewBox="0 0 24 24" fill="none" xmlns="http://www.w3.org/2000/svg">
<path d="M11 12C14.3137 12 17 14.6863 17 18V21H1V18C1 14.6863 3.68629 12 7 12H11Z" fill="black"/>
<path d="M9 3C11.2091 3 13 4.79086 13 7C13 9.20914 11.2091 11 9 11C6.79086 11 5 9.20914 5 7C5 4.79086 6.79086 3 9 3Z" fill="black"/>
<path d="M19 3C19.5523 3 20 3.44772 20 4V6.00488H22C22.5523 6.00488 23 6.4526 23 7.00488C23 7.55717 22.5523 8.00488 22 8.00488H20V10C20 10.5523 19.5523 11 19 11C18.4477 11 18 10.5523 18 10V8.00488H16C15.4477 8.00488 15 7.55717 15 7.00488C15 6.4526 15.4477 6.00488 16 6.00488H18V4C18 3.44772 18.4477 3 19 3Z" fill="black"/>
</svg>
