<svg width="24" height="24" viewBox="0 0 24 24" fill="none" xmlns="http://www.w3.org/2000/svg">
<path d="M11 8.5C11.5523 8.5 12 8.94772 12 9.5V11H13.5C14.0523 11 14.5 11.4477 14.5 12C14.5 12.5523 14.0523 13 13.5 13H12V14.5C12 15.0523 11.5523 15.5 11 15.5C10.4477 15.5 10 15.0523 10 14.5V13H8.5C7.94772 13 7.5 12.5523 7.5 12C7.5 11.4477 7.94772 11 8.5 11H10V9.5C10 8.94772 10.4477 8.5 11 8.5Z" fill="black"/>
<path fill-rule="evenodd" clip-rule="evenodd" d="M17.1543 5.00391C18.7394 5.08421 20 6.39489 20 8V9H21L21.1025 9.00488C21.6067 9.05621 22 9.48232 22 10V14L21.9951 14.1025C21.9438 14.6067 21.5177 15 21 15H20V16L19.9961 16.1543C19.9184 17.6883 18.6883 18.9184 17.1543 18.9961L17 19H5C3.39489 19 2.08421 17.7394 2.00391 16.1543L2 16V8C2 6.34315 3.34315 5 5 5H17L17.1543 5.00391ZM5 7C4.44772 7 4 7.44772 4 8V16C4 16.5523 4.44772 17 5 17H17C17.5523 17 18 16.5523 18 16V8C18 7.44772 17.5523 7 17 7H5Z" fill="black"/>
</svg>
