<svg width="24" height="24" viewBox="0 0 24 24" fill="none" xmlns="http://www.w3.org/2000/svg">
<path d="M13 12.0049H15V14.0049H13V16H11V14.0049H9V12.0049H11V10H13V12.0049Z" fill="black"/>
<path fill-rule="evenodd" clip-rule="evenodd" d="M14 2C14.5523 2 15 2.44772 15 3V4H15.5C16.8807 4 18 5.11929 18 6.5V19.5L17.9873 19.7559C17.8592 21.0164 16.7943 22 15.5 22H8.5L8.24414 21.9873C7.06772 21.8677 6.13227 20.9323 6.0127 19.7559L6 19.5V6.5C6 5.20566 6.98361 4.14082 8.24414 4.0127L8.5 4H9V3C9 2.44772 9.44772 2 10 2H14ZM8.5 6C8.22386 6 8 6.22386 8 6.5V19.5C8 19.7761 8.22386 20 8.5 20H15.5C15.7761 20 16 19.7761 16 19.5V6.5C16 6.22386 15.7761 6 15.5 6H8.5Z" fill="black"/>
</svg>
