<svg width="24" height="24" viewBox="0 0 24 24" fill="none" xmlns="http://www.w3.org/2000/svg">
<path d="M7 5C7.55228 5 8 5.44772 8 6C8 6.55228 7.55228 7 7 7H5C4.44772 7 4 7.44772 4 8V16L4.00488 16.1025C4.05621 16.6067 4.48232 17 5 17H7C7.55228 17 8 17.4477 8 18C8 18.5523 7.55228 19 7 19H5C3.39489 19 2.08421 17.7394 2.00391 16.1543L2 16V8C2 6.34315 3.34315 5 5 5H7Z" fill="black"/>
<path d="M17 5C18.6569 5 20 6.34315 20 8V9H21L21.1025 9.00488C21.6067 9.05621 22 9.48232 22 10V14L21.9951 14.1025C21.9438 14.6067 21.5177 15 21 15H20V16C20 17.6569 18.6569 19 17 19H15C14.4477 19 14 18.5523 14 18C14 17.4477 14.4477 17 15 17H17C17.5523 17 18 16.5523 18 16V8C18 7.44772 17.5523 7 17 7H15C14.4477 7 14 6.55228 14 6C14 5.44772 14.4477 5 15 5H17Z" fill="black"/>
<path d="M11 14C11.5523 14 12 14.4477 12 15C12 15.5523 11.5523 16 11 16C10.4477 16 10 15.5523 10 15C10 14.4477 10.4477 14 11 14Z" fill="black"/>
<path d="M11 8C11.5523 8 12 8.44772 12 9V12C12 12.5523 11.5523 13 11 13C10.4477 13 10 12.5523 10 12V9C10 8.44772 10.4477 8 11 8Z" fill="black"/>
</svg>
