<svg width="24" height="24" viewBox="0 0 24 24" fill="none" xmlns="http://www.w3.org/2000/svg">
<path d="M4.70511 4.70508C5.0945 4.31568 5.72586 4.3157 6.11527 4.70508L19.294 17.8838C19.6838 18.2736 19.6838 18.9061 19.294 19.2959C18.9047 19.6849 18.2738 19.6852 17.8838 19.2969L16.2901 17.71L12.2071 21.793C12.0745 21.9255 11.8945 22 11.7071 22C11.3166 21.9999 11.0001 21.6834 11 21.293V14.4102L7.11527 18.2949C6.72586 18.6843 6.0945 18.6843 5.70511 18.2949C5.31575 17.9055 5.31575 17.2742 5.70511 16.8848L10.5899 12L4.70511 6.11523C4.31574 5.72584 4.31575 5.09447 4.70511 4.70508ZM13 18.1699L14.8799 16.29L13 14.4102V18.1699ZM11.7071 2C11.8945 2 12.0744 2.07464 12.2071 2.20703L17.002 6.99316C17.3929 7.3836 17.3927 8.0175 17.002 8.4082L14.6905 10.7197L13.2803 9.30957L14.8799 7.70996L13 5.83008V9.03027L11 7.03027V2.70703C11.0002 2.31665 11.3167 2.00021 11.7071 2Z" fill="black"/>
</svg>
