<svg width="24" height="24" viewBox="0 0 24 24" fill="none" xmlns="http://www.w3.org/2000/svg">
<path d="M15.6758 11.4082L10.167 16.917L6.95801 13.708L8.25098 12.416L10.167 14.3311L14.3828 10.1152L15.6758 11.4082Z" fill="black"/>
<path fill-rule="evenodd" clip-rule="evenodd" d="M12 5C15.3367 5 18.114 7.37463 18.7373 10.5371C21.1204 10.7022 22.9998 12.6632 23 15.083C23 17.6129 20.9468 19.6668 18.417 19.667H6.5C3.46594 19.667 1.00018 17.201 1 14.167C1 11.3346 3.1453 8.99662 5.9043 8.70312C7.0502 6.50334 9.35099 5 12 5ZM12 6.83301C10.1118 6.83301 8.40701 7.87831 7.53613 9.55566L7.07715 10.4268L6.09668 10.5273C4.23605 10.72 2.83301 12.288 2.83301 14.167C2.83318 16.1927 4.47428 17.833 6.5 17.833H18.417C19.9293 17.8328 21.167 16.5954 21.167 15.083C21.1668 13.6623 20.048 12.4618 18.6182 12.3701L17.2158 12.2686L16.9404 10.8936C16.4727 8.53807 14.4014 6.83301 12 6.83301Z" fill="black"/>
</svg>
