<svg width="24" height="24" viewBox="0 0 24 24" fill="none" xmlns="http://www.w3.org/2000/svg">
<path d="M3.21191 17.4199C3.21191 17.1528 3.5346 17.0185 3.72363 17.207L7.69922 21.1836C7.8882 21.3726 7.75457 21.6953 7.4873 21.6953H3.51172C3.34611 21.6953 3.21202 21.5611 3.21191 21.3955V17.4199Z" fill="black"/>
<path d="M11.6211 3.21973C11.8984 1.99965 13.6778 1.9997 13.9551 3.21973L13.9775 3.3457L14.292 5.69531H18.3877C18.6086 5.69531 18.7881 5.87479 18.7881 6.0957V8.29492C18.7881 8.51584 18.6086 8.69531 18.3877 8.69531H17.1885C16.9676 8.69531 16.7881 8.51584 16.7881 8.29492V7.69531H14.5586L14.96 10.6953H20.3877C20.6086 10.6953 20.7881 10.8748 20.7881 11.0957V13.2949C20.7881 13.5158 20.6086 13.6953 20.3877 13.6953H19.1885C18.9676 13.6953 18.7881 13.5158 18.7881 13.2949V12.6953H15.2275L16.2793 20.5625C16.3525 21.1098 15.9681 21.6131 15.4209 21.6865C14.8735 21.7597 14.3701 21.3746 14.2969 20.8271L13.21 12.6953H12.3662L11.2793 20.8271C11.2061 21.3745 10.7027 21.7597 10.1553 21.6865C9.608 21.6132 9.2237 21.1098 9.29688 20.5625L10.3486 12.6953H6.78809V13.2949C6.78809 13.5158 6.60861 13.6953 6.3877 13.6953H5.18848C4.96756 13.6953 4.78809 13.5158 4.78809 13.2949V10.6953H10.6162L11.0176 7.69531H8.78809V8.29492C8.78809 8.51584 8.60861 8.69531 8.3877 8.69531H7.18848C6.96756 8.69531 6.78809 8.51584 6.78809 8.29492V6.0957C6.78809 5.87479 6.96756 5.69531 7.18848 5.69531H11.2842L11.5986 3.3457L11.6211 3.21973Z" fill="black"/>
</svg>
