<svg width="24" height="24" viewBox="0 0 24 24" fill="none" xmlns="http://www.w3.org/2000/svg">
<path d="M10.833 3.21973C11.1103 1.99965 12.8897 1.9997 13.167 3.21973L13.1895 3.3457L13.5039 5.69531H17.5996C17.8205 5.69531 18 5.87479 18 6.0957V8.29492C18 8.51584 17.8205 8.69531 17.5996 8.69531H16.4004C16.1795 8.69531 16 8.51584 16 8.29492V7.69531H13.7705L14.1719 10.6953H19.5996C19.8205 10.6953 20 10.8748 20 11.0957V13.2949C20 13.5158 19.8205 13.6953 19.5996 13.6953H18.4004C18.1795 13.6953 18 13.5158 18 13.2949V12.6953H14.4395L15.4912 20.5625C15.5644 21.1098 15.18 21.6131 14.6328 21.6865C14.0854 21.7597 13.582 21.3746 13.5088 20.8271L12.4219 12.6953H11.5781L10.4912 20.8271C10.418 21.3745 9.91458 21.7597 9.36719 21.6865C8.81991 21.6132 8.43562 21.1098 8.50879 20.5625L9.56055 12.6953H6V13.2949C6 13.5158 5.82052 13.6953 5.59961 13.6953H4.40039C4.17948 13.6953 4 13.5158 4 13.2949V10.6953H9.82812L10.2295 7.69531H8V8.29492C8 8.51584 7.82052 8.69531 7.59961 8.69531H6.40039C6.17948 8.69531 6 8.51584 6 8.29492V6.0957C6 5.87479 6.17948 5.69531 6.40039 5.69531H10.4961L10.8105 3.3457L10.833 3.21973Z" fill="black"/>
</svg>
