<svg width="24" height="24" viewBox="0 0 24 24" fill="none" xmlns="http://www.w3.org/2000/svg">
<path d="M20.0742 16.7148C20.723 16.2001 21.6672 16.1919 22.2529 16.7773C22.8386 17.3631 22.8427 18.319 22.2051 18.8477C19.4354 21.1439 15.8788 22.5244 12 22.5244C8.12118 22.5243 4.56453 21.1439 1.79491 18.8477C1.15755 18.319 1.16154 17.363 1.74705 16.7773C2.33278 16.1916 3.27782 16.2 3.92674 16.7148C6.14422 18.4741 8.94954 19.5243 12 19.5244C15.0506 19.5244 17.8566 18.4742 20.0742 16.7148Z" fill="black"/>
<path d="M15.7851 12.9141C16.4816 12.4657 17.425 12.4496 18.0107 13.0352C18.5964 13.6208 18.6025 14.581 17.9365 15.0732C16.2763 16.2995 14.2223 17.0244 12 17.0244C9.7778 17.0243 7.72452 16.2994 6.06444 15.0732C5.39842 14.5811 5.40383 13.6209 5.98924 13.0352C6.57497 12.4494 7.5193 12.4657 8.2158 12.9141C9.307 13.6164 10.6059 14.0243 12 14.0244C13.3943 14.0244 14.6938 13.6166 15.7851 12.9141Z" fill="black"/>
<path d="M15.6865 7.47461C15.6865 9.68375 13.8956 11.4746 11.6865 11.4746C9.47756 11.4744 7.68651 9.68361 7.68651 7.47461H15.6865Z" fill="black"/>
<path d="M19.6865 1.47461C20.2388 1.47461 20.6865 1.92232 20.6865 2.47461V4.47461C20.6865 5.02689 20.2388 5.47461 19.6865 5.47461H3.68651C3.13441 5.47439 2.68651 5.02676 2.68651 4.47461V2.47461C2.68651 1.92246 3.13441 1.47483 3.68651 1.47461H19.6865Z" fill="black"/>
</svg>
