<svg width="24" height="24" viewBox="0 0 24 24" fill="none" xmlns="http://www.w3.org/2000/svg">
<path d="M13.2207 7.16113C13.4908 6.8286 14.0341 7.05065 13.9854 7.47363L13.416 13.4395H17.5684C17.9293 13.4396 18.1302 13.85 17.9053 14.1279L10.7793 21.8389C10.5092 22.1715 9.96571 21.9495 10.0146 21.5264L10.584 15.5615H6.43066C6.06974 15.561 5.87009 15.1489 6.0957 14.8711L13.2207 7.16113Z" fill="black"/>
<path d="M12 2C13.3775 2 14.6928 2.27949 15.8896 2.78516C16.3979 3.00025 16.6356 3.58622 16.4209 4.09473C16.206 4.60347 15.6191 4.8419 15.1104 4.62695C14.1555 4.22359 13.1052 4 12 4C7.58172 4 4 7.58172 4 12C4 12.5523 3.55228 13 3 13C2.44772 13 2 12.5523 2 12C2 6.47715 6.47715 2 12 2Z" fill="black"/>
<path d="M18.3711 5.56543C18.8004 5.21804 19.4299 5.28454 19.7773 5.71387C21.1669 7.43109 22 9.61957 22 12C22 12.5523 21.5523 13 21 13C20.4477 13 20 12.5523 20 12C20 10.0939 19.3347 8.34589 18.2227 6.97168C17.8752 6.54235 17.9418 5.91284 18.3711 5.56543Z" fill="black"/>
</svg>
