<svg width="24" height="24" viewBox="0 0 24 24" fill="none" xmlns="http://www.w3.org/2000/svg">
<path d="M10.751 2.51905C11.4813 1.93506 12.5187 1.93505 13.249 2.51905L20.874 8.61866C21.5856 9.18794 21.9999 10.0502 22 10.9614V21.0005C21.9999 21.5527 21.5522 22.0005 21 22.0005C20.4478 22.0005 20.0001 21.5527 20 21.0005V10.9614C19.9999 10.6579 19.8619 10.3709 19.625 10.1812L12 4.08058L4.375 10.1812C4.13809 10.3709 4.00006 10.6579 4 10.9614V21.0005C3.99989 21.5527 3.55222 22.0005 3 22.0005C2.44778 22.0005 2.00011 21.5527 2 21.0005V10.9614C2.00006 10.0502 2.41438 9.18794 3.12598 8.61866L10.751 2.51905Z" fill="black"/>
<path d="M14 8.0005C14.5523 8.0005 15 8.44821 15 9.0005V12.0005H16C16.5523 12.0005 17 12.4482 17 13.0005V16.5317C17 16.8285 16.8686 17.1103 16.6406 17.3003L14 19.5005V21.0005C13.9998 21.5526 13.5521 22.0005 13 22.0005H11C10.4479 22.0005 10.0002 21.5526 10 21.0005V19.5005L7.35938 17.3003C7.13144 17.1103 7.00002 16.8285 7 16.5317V13.0005C7 12.4482 7.44772 12.0005 8 12.0005H9V9.0005C9 8.44821 9.44772 8.0005 10 8.0005C10.5523 8.0005 11 8.44821 11 9.0005V12.0005H13V9.0005C13 8.44821 13.4477 8.0005 14 8.0005Z" fill="black"/>
</svg>
