<svg width="24" height="24" viewBox="0 0 24 24" fill="none" xmlns="http://www.w3.org/2000/svg">
<path d="M7 17C7 17.5523 6.55228 18 6 18C5.44772 18 5 17.5523 5 17C5 16.4477 5.44772 16 6 16C6.55228 16 7 16.4477 7 17Z" fill="black"/>
<path d="M10.5 17C10.5 17.5523 10.0523 18 9.5 18C8.94772 18 8.5 17.5523 8.5 17C8.5 16.4477 8.94772 16 9.5 16C10.0523 16 10.5 16.4477 10.5 17Z" fill="black"/>
<path d="M14 17C14 17.5523 13.5523 18 13 18C12.4477 18 12 17.5523 12 17C12 16.4477 12.4477 16 13 16C13.5523 16 14 16.4477 14 17Z" fill="black"/>
<path fill-rule="evenodd" clip-rule="evenodd" d="M17 8C17.5523 8 18 8.44772 18 9V12H20C21.1 12 22 12.9 22 14V20C22 21.1 21.1 22 20 22H4C2.9 22 2 21.1 2 20V14C2 12.9 2.9 12 4 12H16V9C16 8.44772 16.4477 8 17 8ZM4 20H20V14H4V20Z" fill="black"/>
<path d="M17 4.90527C18.1735 4.90535 19.2593 5.33063 20.1426 6.05762C20.5456 6.38968 20.5384 7.0535 20.1875 7.45605C19.837 7.85727 19.2715 7.84787 18.8457 7.55762C18.3039 7.18803 17.6723 6.9737 17 6.97363C16.3325 6.97369 15.7054 7.18485 15.1689 7.55273C14.7396 7.84716 14.1665 7.86128 13.8125 7.45605C13.4616 7.0534 13.4551 6.38958 13.8584 6.05762C14.7416 5.33081 15.8266 4.90534 17 4.90527Z" fill="black"/>
<path d="M17 1.76758C19.1651 1.76766 21.1538 2.64356 22.709 4.10352C23.0941 4.46535 23.0902 5.12734 22.7383 5.53125C22.3853 5.936 21.8134 5.93132 21.4199 5.5791C20.2024 4.48838 18.6673 3.83602 17 3.83594C15.3328 3.83601 13.7985 4.48852 12.5811 5.5791C12.1876 5.9316 11.6149 5.93601 11.2617 5.53125C10.9099 5.1273 10.9058 4.4653 11.291 4.10352C12.8462 2.64352 14.8348 1.76766 17 1.76758Z" fill="black"/>
</svg>
