<svg width="24" height="24" viewBox="0 0 24 24" fill="none" xmlns="http://www.w3.org/2000/svg">
<path d="M15.7529 1.74732C16.3386 1.16183 17.2946 1.15773 17.8232 1.79517C20.1195 4.56481 21.4999 8.12143 21.5 12.0003C21.5 15.8791 20.1194 19.4356 17.8232 22.2053C17.2946 22.843 16.3387 22.8389 15.7529 22.2532C15.1675 21.6676 15.1751 20.7233 15.6895 20.0745C17.4488 17.8569 18.5 15.0509 18.5 12.0003C18.4999 8.94978 17.4487 6.14451 15.6895 3.92701C15.1749 3.2781 15.1673 2.33294 15.7529 1.74732Z" fill="black"/>
<path d="M11.5107 5.99048C12.0965 5.40476 13.0567 5.39938 13.5488 6.06568C14.775 7.72583 15.5 9.77899 15.5 12.0012C15.4999 14.2234 14.775 16.2767 13.5488 17.9368C13.0567 18.6028 12.0964 18.5975 11.5107 18.012C10.925 17.4262 10.9413 16.4819 11.3896 15.7854C12.092 14.6942 12.4999 13.3954 12.5 12.0012C12.5 10.6069 12.0922 9.3074 11.3896 8.21607C10.9414 7.51964 10.9252 6.5762 11.5107 5.99048Z" fill="black"/>
<path d="M5.5 9.00025C7.15671 9.00025 8.49977 10.3436 8.5 12.0003C8.5 13.6571 7.15685 15.0003 5.5 15.0003C3.84315 15.0003 2.5 13.6571 2.5 12.0003C2.50023 10.3436 3.84329 9.00025 5.5 9.00025Z" fill="black"/>
</svg>
