<svg width="24" height="24" viewBox="0 0 24 24" fill="none" xmlns="http://www.w3.org/2000/svg">
<path d="M6 14C6.82843 14 7.5 14.6716 7.5 15.5V18.5C7.5 19.3284 6.82843 20 6 20C5.17157 20 4.5 19.3284 4.5 18.5V15.5C4.5 14.6716 5.17157 14 6 14Z" fill="black"/>
<path d="M12 9C12.8284 9 13.5 9.67157 13.5 10.5V18.5C13.5 19.3284 12.8284 20 12 20C11.1716 20 10.5 19.3284 10.5 18.5V10.5C10.5 9.67157 11.1716 9 12 9Z" fill="black"/>
<path d="M18 4C18.8284 4 19.5 4.67157 19.5 5.5V18.5C19.5 19.3284 18.8284 20 18 20C17.1716 20 16.5 19.3284 16.5 18.5V5.5C16.5 4.67157 17.1716 4 18 4Z" fill="black"/>
</svg>
