<svg width="24" height="24" viewBox="0 0 24 24" fill="none" xmlns="http://www.w3.org/2000/svg">
<path d="M12 10.6748C10.9 10.6748 10 11.5748 10 12.6748C10 13.7748 10.9 14.6748 12 14.6748C13.1 14.6748 14 13.7748 14 12.6748C14 11.5748 13.1 10.6748 12 10.6748ZM18 12.6748C18 9.3648 15.31 6.6748 12 6.6748C8.69 6.6748 6 9.3648 6 12.6748C6 14.5322 6.84704 16.1867 8.17213 17.2866C8.60111 17.6428 9.2259 17.4717 9.50371 16.9884C9.77861 16.51 9.60521 15.9071 9.20977 15.5224C8.46575 14.7986 8 13.7971 8 12.6748C8 10.4648 9.79 8.6748 12 8.6748C14.21 8.6748 16 10.4648 16 12.6748C16 13.7971 15.5342 14.7986 14.7902 15.5224C14.3948 15.9071 14.2214 16.51 14.4963 16.9884C14.7741 17.4717 15.3989 17.6428 15.8279 17.2866C17.153 16.1867 18 14.5322 18 12.6748ZM12 2.6748C6.48 2.6748 2 7.1548 2 12.6748C2 16.0153 3.63833 18.9645 6.14967 20.7792C6.59809 21.1032 7.21472 20.936 7.49159 20.4571C7.76721 19.9802 7.60091 19.3749 7.16293 19.041C5.24463 17.5784 4 15.2774 4 12.6748C4 8.2548 7.58 4.6748 12 4.6748C16.42 4.6748 20 8.2548 20 12.6748C20 15.2777 18.755 17.5791 16.8295 19.0416C16.3904 19.3751 16.2233 19.9811 16.4992 20.4585C16.7758 20.9369 17.3914 21.1043 17.8398 20.7814C20.3603 18.9669 22 16.0166 22 12.6748C22 7.1548 17.52 2.6748 12 2.6748Z" fill="black"/>
</svg>
