<svg width="24" height="24" viewBox="0 0 24 24" fill="none" xmlns="http://www.w3.org/2000/svg">
<path fill-rule="evenodd" clip-rule="evenodd" d="M7.56078 1.0127C7.70154 1.02887 7.83945 1.0611 7.97289 1.10938L8.17016 1.19336L8.36645 1.30762C8.49024 1.39096 8.60055 1.48913 8.69848 1.59766L8.83618 1.76855L8.84594 1.78223L11.7483 6H14.2727C14.9512 6.0001 15.5609 6.24917 16.0422 6.73047C16.5234 7.2117 16.7727 7.82115 16.7727 8.5C16.7727 9.17885 16.5234 9.7883 16.0422 10.2695C15.621 10.6907 15.1015 10.934 14.5237 10.9883L14.2727 11H11.7473L8.86938 15.168C8.68892 15.4415 8.4419 15.6617 8.13598 15.8057C7.93297 15.9012 7.7182 15.9624 7.49633 15.9873L7.2727 16H12.7727V15C12.7727 13.8955 13.6682 13 14.7727 13H18.7727C19.8768 13.0002 20.7727 13.8953 20.7727 15V16H21.0061C22.5608 16.0001 23.5206 17.6965 22.7209 19.0293L20.9211 22.0293C20.5597 22.6315 19.9086 22.9999 19.2063 23H7.12621C5.97647 22.9998 4.93485 22.3435 4.43383 21.3232L4.34106 21.1143L3.39282 18.7422C2.86796 17.4293 3.83422 16.0004 5.24926 16H7.12231C6.45799 15.9999 5.87998 15.697 5.51586 15.125C5.17164 14.5841 5.10705 13.9618 5.34008 13.3623L6.2434 11H5.31469L4.53539 12.1963L4.52368 12.2139L4.51098 12.2314C4.38363 12.4096 4.22712 12.5673 4.04125 12.6924L3.84496 12.8066C3.65213 12.903 3.44698 12.964 3.23559 12.9883L3.0227 13H2.84789C2.27786 13 1.77288 12.7582 1.41625 12.3125C1.0361 11.8373 0.945197 11.2603 1.11157 10.7021H1.10961L1.73266 8.5L1.06079 6.14941C0.91305 5.63197 0.992972 5.08449 1.35766 4.63379L1.49145 4.48633C1.8171 4.16478 2.23991 4.00002 2.6975 4H3.0725C3.29298 4.00003 3.50677 4.04335 3.70629 4.12695L3.90161 4.22363C4.13568 4.36033 4.32963 4.54626 4.47778 4.76758L5.3059 6H6.23754L5.26489 3.48633L5.25903 3.47168L5.25414 3.45801C5.0522 2.88581 5.11623 2.28295 5.48364 1.76855L5.62328 1.59375C5.96901 1.2102 6.44004 1.00002 6.97289 1H7.34789L7.56078 1.0127ZM14.7727 18H5.25024L6.19848 20.3721C6.35051 20.7512 6.7177 20.9999 7.12621 21H19.2063L21.0061 18H18.7727V15H14.7727V18ZM9.15649 8H4.2395L3.24633 6.52148L3.81176 8.49902L3.73461 8.77246L3.2395 10.5205L4.23071 9H9.15063L7.23754 14H7.24536L10.6975 9H14.2727C14.4271 8.99992 14.5264 8.95726 14.6282 8.85547C14.7301 8.75347 14.7727 8.65428 14.7727 8.5C14.7727 8.34572 14.7301 8.24653 14.6282 8.14453C14.5518 8.0682 14.4768 8.02463 14.3791 8.00781L14.2727 8H10.6965L7.25512 3H7.22192L9.15649 8Z" fill="black"/>
</svg>
