<svg width="24" height="24" viewBox="0 0 24 24" fill="none" xmlns="http://www.w3.org/2000/svg">
<path fill-rule="evenodd" clip-rule="evenodd" d="M17.6074 4.01367C17.7285 4.0316 17.8463 4.06699 17.957 4.11914L18.1182 4.20996L19.4434 5.09375C19.7911 5.32558 20 5.71585 20 6.13379V8.86621C20 9.28415 19.7911 9.67442 19.4434 9.90625L19.3027 10L19.4434 10.0938C19.7911 10.3256 20 10.7159 20 11.1338V14.8662C20 15.2841 19.7911 15.6744 19.4434 15.9062L18.1182 16.79C18.077 16.8175 18.0331 16.8401 17.9893 16.8623C17.9955 16.9074 18 16.9532 18 17V18H19C19.5523 18 20 18.4477 20 19C20 19.5523 19.5523 20 19 20H7.09766C7.06395 20.0034 7.02973 20.0049 6.99512 20.0049C6.96055 20.0049 6.92624 20.0034 6.89258 20H5C4.44772 20 4 19.5523 4 19C4 18.4477 4.44772 18 5 18H5.99512V17.0049C5.99512 16.9558 5.99902 16.9076 6.00586 16.8604C5.96362 16.8387 5.92155 16.8165 5.88184 16.79L4.55664 15.9062C4.20889 15.6744 4 15.2841 4 14.8662V11.1338L4.00977 10.9785C4.05453 10.6207 4.25239 10.2966 4.55664 10.0938L4.69727 10L4.55664 9.90625C4.20889 9.67442 4 9.28415 4 8.86621V6.13379C4 5.71585 4.20889 5.32558 4.55664 5.09375L5.88184 4.20996C6.08717 4.07307 6.32939 4 6.57617 4H17.4238L17.6074 4.01367ZM7.99512 18H16V17H7.99512V18ZM6 11.5352V14.4639L6.80273 15H17.1973L18 14.4639V11.5352L17.1973 11H6.80273L6 11.5352ZM6 6.53516V8.46484L6.80273 9H17.1973L18 8.46484V6.53516L17.1973 6H6.80273L6 6.53516Z" fill="black"/>
<path d="M2 10C2.55228 10 3 10.4477 3 11V15C3 15.5523 2.55228 16 2 16C1.44772 16 1 15.5523 1 15V11C1 10.4477 1.44772 10 2 10Z" fill="black"/>
<path d="M22 10C22.5523 10 23 10.4477 23 11V15C23 15.5523 22.5523 16 22 16C21.4477 16 21 15.5523 21 15V11C21 10.4477 21.4477 10 22 10Z" fill="black"/>
<path d="M2 5C2.55228 5 3 5.44772 3 6V8C3 8.55228 2.55228 9 2 9C1.44772 9 1 8.55228 1 8V6C1 5.44772 1.44772 5 2 5Z" fill="black"/>
<path d="M22 5C22.5523 5 23 5.44772 23 6V8C23 8.55228 22.5523 9 22 9C21.4477 9 21 8.55228 21 8V6C21 5.44772 21.4477 5 22 5Z" fill="black"/>
</svg>
