<svg width="24" height="24" viewBox="0 0 24 24" fill="none" xmlns="http://www.w3.org/2000/svg">
<path fill-rule="evenodd" clip-rule="evenodd" d="M17.127 12.4355C17.9345 11.9642 18.9999 12.5381 19 13.5205V20.4795C19 21.5276 17.7872 22.1108 16.9688 21.4561L15.1484 20H12.5C11.6716 20 11 19.3284 11 18.5V15.5C11.0001 14.6717 11.6716 14 12.5 14H15.1484L16.9688 12.5439L17.127 12.4355ZM16.125 15.7812L15.8506 16H13V18H15.8506L16.125 18.2188L17 18.9189V15.0801L16.125 15.7812Z" fill="black"/>
<path d="M20.4453 13.168C20.9048 12.8617 21.5257 12.9858 21.832 13.4453L21.9834 13.6719C23.3268 15.6872 23.3268 18.3128 21.9834 20.3281L21.832 20.5547C21.5257 21.0142 20.9048 21.1384 20.4453 20.832C19.9858 20.5257 19.8616 19.9048 20.168 19.4453L20.3193 19.2188C21.2148 17.8753 21.2149 16.1247 20.3193 14.7812L20.168 14.5547C19.8617 14.0952 19.9858 13.4743 20.4453 13.168Z" fill="black"/>
<path fill-rule="evenodd" clip-rule="evenodd" d="M16.6074 4.01367C16.7285 4.0316 16.8463 4.06699 16.957 4.11914L17.1182 4.20996L18.4434 5.09375C18.7911 5.32558 19 5.71585 19 6.13379V8.86621C19 9.28415 18.7911 9.67442 18.4434 9.90625L18.3027 10L16.7266 10.874C16.5781 10.9564 16.4109 11 16.2412 11H6.80273L6 11.5352V14.4639L6.80273 15H10V17H7.99512V18H10V20H7.09766C7.06395 20.0034 7.02973 20.0049 6.99512 20.0049C6.96055 20.0049 6.92624 20.0034 6.89258 20H5C4.44772 20 4 19.5523 4 19C4 18.4477 4.44772 18 5 18H5.99512V17.0049C5.99512 16.9558 5.99902 16.9076 6.00586 16.8604C5.96362 16.8387 5.92155 16.8165 5.88184 16.79L4.55664 15.9062C4.20889 15.6744 4 15.2841 4 14.8662V11.1338L4.00977 10.9785C4.05453 10.6207 4.25239 10.2966 4.55664 10.0938L4.69727 10L4.55664 9.90625C4.20889 9.67442 4 9.28415 4 8.86621V6.13379C4 5.71585 4.20889 5.32558 4.55664 5.09375L5.88184 4.20996C6.08717 4.07307 6.32939 4 6.57617 4H16.4238L16.6074 4.01367ZM6 6.53516V8.46484L6.80273 9H16.1973L17 8.46484V6.53516L16.1973 6H6.80273L6 6.53516Z" fill="black"/>
<path d="M2 10C2.55228 10 3 10.4477 3 11V15C3 15.5523 2.55228 16 2 16C1.44772 16 1 15.5523 1 15V11C1 10.4477 1.44772 10 2 10Z" fill="black"/>
<path d="M2 5C2.55228 5 3 5.44772 3 6V8C3 8.55228 2.55228 9 2 9C1.44772 9 1 8.55228 1 8V6C1 5.44772 1.44772 5 2 5Z" fill="black"/>
<path d="M21 5C21.5523 5 22 5.44772 22 6V8C22 8.55228 21.5523 9 21 9C20.4477 9 20 8.55228 20 8V6C20 5.44772 20.4477 5 21 5Z" fill="black"/>
</svg>
