<svg width="24" height="24" viewBox="0 0 24 24" fill="none" xmlns="http://www.w3.org/2000/svg">
<path fill-rule="evenodd" clip-rule="evenodd" d="M17.5859 5.64453C18.0547 5.64491 18.4346 6.02529 18.4346 6.49414C18.4339 6.96243 18.0543 7.34142 17.5859 7.3418H16.9385L14.7842 14.7266L16.5156 19.3027H17.1309C17.5996 19.3032 17.9785 19.6835 17.9785 20.1523C17.9783 20.6209 17.5994 21.0015 17.1309 21.002H6.85059C6.38186 21.0017 6.00124 20.6211 6.00098 20.1523C6.001 19.6834 6.38171 19.303 6.85059 19.3027H7.46387L9.19238 14.7363L7.04199 7.3418H6.41406C5.94569 7.34144 5.56608 6.96245 5.56543 6.49414C5.56543 6.02528 5.94528 5.64488 6.41406 5.64453H17.5859ZM9.28027 19.3027H14.6992L13.3047 15.6152H10.6748L9.28027 19.3027ZM10.7236 13.918H13.25L15.1689 7.3418H8.81152L10.7236 13.918Z" fill="black"/>
<path d="M13.8506 2.99805C14.3193 2.99844 14.6991 3.3799 14.6992 3.84863C14.699 4.31725 14.3192 4.69785 13.8506 4.69824H10.1299C9.66116 4.69801 9.28054 4.31735 9.28027 3.84863C9.2804 3.37981 9.66108 2.99828 10.1299 2.99805H13.8506Z" fill="black"/>
</svg>
