<svg width="24" height="24" viewBox="0 0 24 24" fill="none" xmlns="http://www.w3.org/2000/svg">
<path d="M14 14C14.5523 14 15 14.4477 15 15V16C15 16.5523 14.5523 17 14 17H10C9.44772 17 9 16.5523 9 16V15C9 14.4477 9.44772 14 10 14H14Z" fill="black"/>
<path d="M12 7C12.5523 7 13 7.44772 13 8V12C13 12.5523 12.5523 13 12 13C11.4477 13 11 12.5523 11 12V8C11 7.44772 11.4477 7 12 7Z" fill="black"/>
<path fill-rule="evenodd" clip-rule="evenodd" d="M14 1C15.1046 1 16 1.89543 16 3H17C18.1046 3 19 3.89543 19 5V19C19 20.1046 18.1046 21 17 21H16C16 22.1046 15.1046 23 14 23H10C8.89543 23 8 22.1046 8 21H7C5.89543 21 5 20.1046 5 19V5C5 3.89543 5.89543 3 7 3H8C8 1.89543 8.89543 1 10 1H14ZM7 19H17V5H7V19Z" fill="black"/>
</svg>
