<svg width="24" height="24" viewBox="0 0 24 24" fill="none" xmlns="http://www.w3.org/2000/svg">
<path fill-rule="evenodd" clip-rule="evenodd" d="M16 4.49993C17.6569 4.49993 19 5.84307 19 7.49993V16.4999H20V15.4999C20 14.9476 20.4477 14.4999 21 14.4999C21.5523 14.4999 22 14.9476 22 15.4999V18.4999H12.9639C12.7212 20.196 11.2632 21.4999 9.5 21.4999C7.73682 21.4999 6.27882 20.196 6.03613 18.4999H4C2.89546 18.4999 2.00004 17.6045 2 16.4999V14.4999C2 13.9476 2.44772 13.4999 3 13.4999C3.55228 13.4999 4 13.9476 4 14.4999V16.4999H6.33691C6.89864 15.3174 8.10379 14.4999 9.5 14.4999C10.8962 14.4999 12.1014 15.3174 12.6631 16.4999H17V7.49993C17 6.94764 16.5523 6.49993 16 6.49993H13.5C12.9477 6.49993 12.5 6.05218 12.5 5.49993C12.5 4.94764 12.9477 4.49993 13.5 4.49993H16ZM9.5 16.4999C8.67157 16.4999 8 17.1715 8 17.9999C8.00004 18.8283 8.6716 19.4999 9.5 19.4999C10.3284 19.4999 11 18.8283 11 17.9999C11 17.1715 10.3284 16.4999 9.5 16.4999Z" fill="black"/>
<path d="M9.29297 2.79289C9.68349 2.40237 10.3165 2.40237 10.707 2.79289C11.0974 3.18343 11.0975 3.81648 10.707 4.20696L7.91406 6.99993L10.707 9.79289C11.0974 10.1834 11.0975 10.8165 10.707 11.207C10.3165 11.5974 9.68348 11.5973 9.29297 11.207L6.5 8.41399L3.70703 11.207C3.31655 11.5974 2.68348 11.5973 2.29297 11.207C1.90246 10.8165 1.90251 10.1834 2.29297 9.79289L5.08594 6.99993L2.29297 4.20696C1.90247 3.81646 1.90252 3.18343 2.29297 2.79289C2.68349 2.40237 3.31651 2.40237 3.70703 2.79289L6.5 5.58586L9.29297 2.79289Z" fill="black"/>
</svg>
