<svg width="24" height="24" viewBox="0 0 24 24" fill="none" xmlns="http://www.w3.org/2000/svg">
<path fill-rule="evenodd" clip-rule="evenodd" d="M21.1025 5.00488C21.6067 5.05621 22 5.48232 22 6V16.4648L21.9922 16.5889C21.956 16.8741 21.795 17.1274 21.5332 17.2578C20.4479 17.7983 17.4254 19 12 19C6.91425 19 3.93978 17.9446 2.69336 17.3672L2.4668 17.2578C2.205 17.1274 2.04398 16.8741 2.00781 16.5889L2 16.4648V6C2 5.44772 2.44772 5 3 5H21L21.1025 5.00488ZM4 15.752C5.24513 16.2472 7.82301 17 12 17C16.177 17 18.7549 16.2472 20 15.752V7H17V11C17 11.5523 16.5523 12 16 12H8C7.44772 12 7 11.5523 7 11V7H4V15.752Z" fill="black"/>
</svg>
