<svg width="24" height="24" viewBox="0 0 24 24" fill="none" xmlns="http://www.w3.org/2000/svg">
<path fill-rule="evenodd" clip-rule="evenodd" d="M12 6C15.31 6 18 8.69 18 12C18 15.31 15.31 18 12 18C8.69 18 6 15.31 6 12C6 8.69 8.69 6 12 6ZM9.75 15.2998C10.2 15.5998 10.7 15.8199 11.25 15.9199V13.7998L9.75 15.2998ZM12.75 15.9199C13.3 15.8199 13.8 15.6096 14.25 15.3096L12.75 13.8096V15.9199ZM8.07031 12.75C8.18032 13.3 8.39044 13.81 8.69043 14.25L10.1904 12.75H8.07031ZM15.3096 14.25C15.6096 13.8 15.8199 13.3 15.9199 12.75H13.8096L15.3096 14.25ZM12 11C11.45 11 11 11.45 11 12C11 12.55 11.45 13 12 13C12.55 13 13 12.55 13 12C13 11.45 12.55 11 12 11ZM8.69043 9.75C8.39043 10.2 8.18008 10.7 8.08008 11.25H10.1904L8.69043 9.75ZM13.8096 11.25H15.9199C15.8199 10.7 15.6096 10.2 15.3096 9.75L13.8096 11.25ZM12.75 10.2002L14.25 8.7002C13.8 8.4002 13.3 8.18008 12.75 8.08008V10.2002ZM11.25 8.08008C10.7 8.18008 10.2 8.39043 9.75 8.69043L11.25 10.1904V8.08008Z" fill="black"/>
<path fill-rule="evenodd" clip-rule="evenodd" d="M20 2C21.1 2 22 2.9 22 4V20C22 21.1 21.1 22 20 22H4C2.9 22 2 21.1 2 20V4C2 2.9 2.9 2 4 2H20ZM4 20H20V4H4V20Z" fill="black"/>
</svg>
