<svg width="24" height="24" viewBox="0 0 24 24" fill="none" xmlns="http://www.w3.org/2000/svg">
<path d="M12 1.01465C14.2335 1.01467 16.3145 1.6816 18.0508 2.82715C18.5114 3.13124 18.6386 3.75104 18.335 4.21191C18.0308 4.67288 17.4102 4.80018 16.9492 4.49609C15.5298 3.55963 13.83 3.01467 12 3.01465C7.02944 3.01465 3 7.04409 3 12.0146C3 16.9852 7.02944 21.0146 12 21.0146C15.9847 21.0146 19.3667 18.4243 20.5498 14.833C20.7226 14.3085 21.288 14.0237 21.8125 14.1963C22.337 14.3691 22.623 14.9345 22.4502 15.459C21.005 19.8459 16.8736 23.0146 12 23.0146C5.92487 23.0146 1 18.0898 1 12.0146C1 5.93952 5.92487 1.01465 12 1.01465Z" fill="black"/>
<path d="M9.58594 5.66895C13.1858 4.25349 17.2501 6.03257 18.667 9.63574C18.869 10.1496 18.6164 10.7295 18.1025 10.9316C17.5886 11.1338 17.0078 10.8812 16.8057 10.3672C15.7911 7.78776 12.885 6.52059 10.3174 7.53027C10.0942 7.61803 9.88148 7.72106 9.67871 7.83594L11.6465 10.0479C11.7613 10.0273 11.8792 10.0146 12 10.0146C13.1046 10.0146 14 10.9101 14 12.0146C14 13.1192 13.1046 14.0146 12 14.0146C10.8954 14.0146 10 13.1192 10 12.0146C10 11.7772 10.0432 11.5501 10.1191 11.3389L8.17383 9.15234C7.86661 9.55701 7.62267 10.0058 7.4502 10.4824C7.2622 11.0015 6.68813 11.2698 6.16895 11.082C5.64965 10.8941 5.38047 10.3201 5.56836 9.80078C6.22804 7.97828 7.63943 6.4344 9.58594 5.66895Z" fill="black"/>
<path d="M22 9C22.2833 9 22.5212 9.09544 22.7129 9.28711C22.9046 9.47878 23 9.71667 23 10C23 10.2833 22.9046 10.5212 22.7129 10.7129C22.5212 10.9046 22.2833 11 22 11C21.7167 11 21.4788 10.9046 21.2871 10.7129C21.0954 10.5212 21 10.2833 21 10C21 9.71667 21.0954 9.47878 21.2871 9.28711C21.4788 9.09544 21.7167 9 22 9Z" fill="black"/>
<path d="M22 1C22.2833 1 22.5212 1.09544 22.7129 1.28711C22.9046 1.47878 23 1.71667 23 2V7C23 7.28333 22.9046 7.52122 22.7129 7.71289C22.5212 7.90456 22.2833 8 22 8C21.7167 8 21.4788 7.90456 21.2871 7.71289C21.0954 7.52122 21 7.28333 21 7V2C21 1.71667 21.0954 1.47878 21.2871 1.28711C21.4788 1.09544 21.7167 1 22 1Z" fill="black"/>
</svg>
