<svg width="24" height="24" viewBox="0 0 24 24" fill="none" xmlns="http://www.w3.org/2000/svg">
<path fill-rule="evenodd" clip-rule="evenodd" d="M2.40753 3.21289C2.79841 2.82479 3.43009 2.82544 3.81964 3.21484L20.7894 20.1855C21.1787 20.5749 21.1787 21.2054 20.7894 21.5947C20.4 21.9839 19.7695 21.984 19.3802 21.5947L16.2249 18.4404C15.8248 20.2303 13.9844 21.7002 10.9046 21.7002C9.25492 21.6999 8.30499 20.4201 8.30499 19.2002C8.30499 18.2603 8.69531 17.4899 9.50519 16.9199C10.2249 16.41 10.5853 15.9096 10.8353 14.8799C10.6154 14.7799 10.4051 14.6497 10.2151 14.5098C7.9455 15.4096 7.36482 15.7002 6.30499 15.7002C4.1951 15.7 2.30499 13.7897 2.30499 10.2998C2.30519 8.65017 3.58517 7.70034 4.80499 7.7002C5.08481 7.70022 5.3454 7.75059 5.58527 7.81055L2.4046 4.62988C2.01329 4.23842 2.01484 3.60297 2.40753 3.21289ZM12.8245 15.1602C12.4845 16.6401 11.9345 17.6598 10.6546 18.5498C10.3548 18.7697 10.305 18.9302 10.305 19.2002C10.305 19.2802 10.3351 19.6999 10.9046 19.7002C12.9046 19.7002 14.305 18.8802 14.305 17.7002C14.305 17.3202 14.235 17.0102 13.8851 16.1104L12.9144 15.1406C12.8846 15.141 12.8543 15.1601 12.8245 15.1602ZM4.80499 9.7002C4.72432 9.70026 4.30518 9.73084 4.30499 10.2998C4.30499 12.2996 5.12514 13.7 6.30499 13.7002C6.81485 13.7002 7.19508 13.5796 8.99445 12.8398C8.92454 12.64 8.87501 12.4395 8.84503 12.2197C7.36518 11.8797 6.34435 11.3297 5.45441 10.0498C5.23469 9.75041 5.07469 9.70022 4.80499 9.7002Z" fill="black"/>
<path fill-rule="evenodd" clip-rule="evenodd" d="M13.7044 1.7002C15.3544 1.70022 16.305 2.98021 16.305 4.2002C16.305 5.14018 15.9148 5.91047 15.1048 6.48047C14.385 6.99038 14.0247 7.49068 13.7747 8.52051C13.9946 8.62047 14.2049 8.75069 14.3948 8.89062C16.6646 7.99072 17.2452 7.70025 18.305 7.7002C20.4149 7.70032 22.305 9.6107 22.305 13.1006C22.3048 14.7503 21.0248 15.7001 19.805 15.7002C19.5251 15.7002 19.2646 15.6498 19.0247 15.5898L11.7747 8.33984L11.7952 8.24023C12.1252 6.76052 12.6849 5.75046 13.9544 4.85059C14.2544 4.6306 14.305 4.47018 14.305 4.2002C14.305 4.1202 14.2744 3.70022 13.7044 3.7002C11.7048 3.70039 10.305 4.52034 10.305 5.7002C10.305 6.08018 10.3752 6.39014 10.7151 7.29004L8.38507 4.95996C8.78517 3.17023 10.625 1.70042 13.7044 1.7002ZM18.305 9.7002C17.7951 9.70024 17.4142 9.82047 15.6146 10.5703C15.6846 10.7703 15.735 10.9705 15.765 11.1904C17.2448 11.5204 18.2547 12.0807 19.1546 13.3506C19.3745 13.6503 19.5352 13.7002 19.805 13.7002C19.8855 13.7001 20.3048 13.6697 20.305 13.1006C20.305 11.1007 19.4849 9.70036 18.305 9.7002Z" fill="black"/>
</svg>
