<svg width="24" height="24" viewBox="0 0 24 24" fill="none" xmlns="http://www.w3.org/2000/svg">
<path d="M20 19.5C20.5523 19.5 21 19.9477 21 20.5C21 21.0523 20.5523 21.5 20 21.5H8C7.44772 21.5 7 21.0523 7 20.5C7 19.9477 7.44772 19.5 8 19.5H20Z" fill="black"/>
<path fill-rule="evenodd" clip-rule="evenodd" d="M18 2.5C18.5523 2.5 19 2.94772 19 3.5V4.5H20L20.1543 4.50391C21.7394 4.58421 23 5.89489 23 7.5V15.5L22.9961 15.6543C22.9184 17.1883 21.6883 18.4184 20.1543 18.4961L20 18.5H8C6.39489 18.5 5.08421 17.2394 5.00391 15.6543L5 15.5H4C3.44772 15.5 3 15.0523 3 14.5V12.5H2L1.89746 12.4951C1.39333 12.4438 1 12.0177 1 11.5C1 10.9477 1.44772 10.5 2 10.5H3V8.5C3 7.94772 3.44772 7.5 4 7.5H5C5 5.84315 6.34315 4.5 8 4.5H10V3.5C10 2.94772 10.4477 2.5 11 2.5H18ZM19 16.5H20C20.5523 16.5 21 16.0523 21 15.5V7.5C21 6.94772 20.5523 6.5 20 6.5H19V16.5ZM8 6.5C7.44772 6.5 7 6.94772 7 7.5V15.5C7 16.0523 7.44772 16.5 8 16.5H17V14.5H10C9.44771 14.5 9 14.0523 9 13.5C9 12.9477 9.44771 12.5 10 12.5H17V10.5H10C9.44771 10.5 9 10.0523 9 9.5C9 8.94772 9.44771 8.5 10 8.5H17V6.5H8Z" fill="black"/>
</svg>
