<svg width="24" height="24" viewBox="0 0 24 24" fill="none" xmlns="http://www.w3.org/2000/svg">
<path fill-rule="evenodd" clip-rule="evenodd" d="M8.99023 13C10.1001 13.0001 10.9999 13.8998 11 15.0098V19.9902C10.9999 21.1001 10.1002 21.9999 8.99023 22H4.00977C2.8999 21.9999 2.00013 21.1002 2 19.9902V15.0098C2.00013 13.8999 2.89981 13.0001 4.00977 13H8.99023ZM4 15.0098V19.9902L4.00977 20H8.99023L9 19.9902V15.0098L8.99023 15H4.00977C4.00443 15.0001 4.00012 15.0044 4 15.0098Z" fill="black"/>
<path fill-rule="evenodd" clip-rule="evenodd" d="M19.5752 13C19.7751 13 19.9671 13.0373 20.1504 13.1123C20.3336 13.1873 20.5005 13.3003 20.6504 13.4502L21.5752 14.375C21.7085 14.525 21.8127 14.6917 21.8877 14.875C21.9627 15.0582 22 15.2416 22 15.4248C22 15.608 21.967 15.7957 21.9004 15.9873C21.8337 16.1789 21.7251 16.35 21.5752 16.5L16.0752 22H13V18.9248L18.5254 13.4248C18.6753 13.275 18.8422 13.1662 19.0254 13.0996C19.2086 13.0331 19.392 13 19.5752 13ZM14.5 19.5498V20.5H15.4502L18.4746 17.4502L17.5498 16.5254L14.5 19.5498Z" fill="black"/>
<path fill-rule="evenodd" clip-rule="evenodd" d="M8.99023 2C10.1001 2.00013 10.9999 2.89981 11 4.00977V8.99023C10.9999 10.1001 10.1002 10.9999 8.99023 11H4.00977C2.8999 10.9999 2.00013 10.1002 2 8.99023V4.00977C2.00013 2.8999 2.89981 2.00013 4.00977 2H8.99023ZM4 4.00977V8.99023L4.00977 9H8.99023L9 8.99023V4.00977L8.99023 4H4.00977C4.00443 4.00012 4.00012 4.00443 4 4.00977Z" fill="black"/>
<path fill-rule="evenodd" clip-rule="evenodd" d="M19.9902 2C21.1001 2.00013 21.9999 2.89981 22 4.00977V8.99023C21.9999 10.1001 21.1002 10.9999 19.9902 11H15.0098C13.8999 10.9999 13.0001 10.1002 13 8.99023V4.00977C13.0001 2.8999 13.8998 2.00013 15.0098 2H19.9902ZM15 4.00977V8.99023L15.0098 9H19.9902L20 8.99023V4.00977L19.9902 4H15.0098C15.0044 4.00012 15.0001 4.00443 15 4.00977Z" fill="black"/>
</svg>
