<svg width="24" height="24" viewBox="0 0 24 24" fill="none" xmlns="http://www.w3.org/2000/svg">
<path fill-rule="evenodd" clip-rule="evenodd" d="M4.13502 2.79818C4.98632 2.36763 5.99173 2.36763 6.84303 2.79818C7.307 3.03289 7.70611 3.44837 8.1819 3.92416L8.37623 4.11947C8.68968 4.43292 8.96091 4.69601 9.14674 4.98178C9.79295 5.97598 9.793 7.2581 9.14674 8.25229C8.96093 8.53808 8.6897 8.80113 8.37623 9.11459C8.31888 9.17195 8.28926 9.20137 8.26881 9.22299L8.26686 9.23471C8.27014 9.24197 8.27446 9.25207 8.28053 9.26498C8.29008 9.28527 8.30235 9.30834 8.31764 9.34018C8.96544 10.6894 9.84837 11.9558 10.969 13.0765C12.0895 14.197 13.3553 15.0801 14.7044 15.7279C14.7364 15.7433 14.7601 15.7554 14.7805 15.765C14.7929 15.7708 14.8027 15.7744 14.8098 15.7777C14.8118 15.7775 14.8142 15.7781 14.8167 15.7777L14.8215 15.7757C14.8432 15.7553 14.8735 15.7267 14.9309 15.6693C15.2444 15.3558 15.5074 15.0846 15.7932 14.8988C16.7874 14.2525 18.0695 14.2525 19.0637 14.8988C19.3495 15.0846 19.6126 15.3558 19.926 15.6693L20.4651 16.2083C20.7938 16.5428 21.0713 16.8546 21.2473 17.2025C21.6779 18.0538 21.6778 19.0592 21.2473 19.9105C21.0126 20.3744 20.5961 20.7726 20.1204 21.2484L19.9631 21.4066C19.4642 21.9055 19.0962 22.284 18.5911 22.5677C18.0411 22.8766 17.251 23.0823 16.6204 23.0804C16.0489 23.0787 15.6375 22.9562 15.0911 22.8011C11.8979 21.8948 8.88491 20.1838 6.3733 17.6722C3.86172 15.1606 2.15072 12.1476 1.2444 8.95443C1.08932 8.40806 0.96683 7.99657 0.9651 7.42514C0.963265 6.79451 1.16899 6.00431 1.4778 5.45443C1.76153 4.94939 2.14004 4.58125 2.63893 4.08236L3.14088 3.58041C3.47538 3.25167 3.78707 2.97422 4.13502 2.79818ZM5.94069 4.58236C5.65695 4.43888 5.32111 4.43888 5.03737 4.58236C4.93069 4.63639 4.79768 4.75272 4.21119 5.3392L4.05299 5.49643C3.49305 6.05637 3.34164 6.21914 3.22096 6.43393C3.08121 6.68304 2.9643 7.13379 2.9651 7.41928C2.96588 7.67326 3.0031 7.82674 3.16823 8.40854C3.98382 11.2821 5.5231 13.9938 7.78737 16.2581C10.0517 18.5224 12.7635 20.0607 15.637 20.8763C16.2191 21.0415 16.3721 21.0796 16.6262 21.0804C16.9119 21.0813 17.3625 20.9635 17.6116 20.8236C17.8264 20.7029 17.9891 20.5525 18.5491 19.9925L18.7063 19.8343C19.2933 19.2474 19.4092 19.1139 19.4631 19.0072C19.6064 18.7235 19.6066 18.3884 19.4631 18.1048C19.4091 17.9981 19.293 17.8644 18.7063 17.2777L18.512 17.0833C18.1264 16.6978 18.0396 16.6183 17.9739 16.5755C17.6425 16.3601 17.2145 16.3601 16.8831 16.5755C16.8174 16.6183 16.7304 16.6979 16.345 17.0833C16.2519 17.1764 16.1302 17.3022 15.9817 17.4085C15.4948 17.7571 14.833 17.87 14.2581 17.7025C14.0851 17.6521 13.9449 17.5824 13.8391 17.5316C12.2892 16.7874 10.8374 15.773 9.55494 14.4906C8.27252 13.2081 7.25808 11.7563 6.51393 10.2064C6.46314 10.1006 6.39344 9.96036 6.34303 9.78744C6.17551 9.21255 6.28844 8.55072 6.63698 8.06381C6.7433 7.91536 6.86912 7.79357 6.96217 7.70053C7.34757 7.31513 7.42723 7.22816 7.46998 7.16244C7.68537 6.83105 7.68538 6.40301 7.46998 6.07162C7.42722 6.0059 7.3476 5.91897 6.96217 5.53354L6.76686 5.3392C6.18021 4.75256 6.04737 4.63638 5.94069 4.58236Z" fill="black"/>
<path d="M13.1038 5.72885C13.2096 5.1869 13.7346 4.83309 14.2766 4.93881C15.4486 5.16749 16.526 5.74095 17.3704 6.58529C18.2146 7.42964 18.7882 8.50711 19.0169 9.67904C19.1224 10.2209 18.7686 10.746 18.2268 10.8519C17.6848 10.9576 17.1598 10.6038 17.054 10.0619C16.9015 9.28062 16.5191 8.56223 15.9563 7.99936C15.3934 7.43652 14.6751 7.05417 13.8938 6.9017C13.3518 6.79592 12.998 6.27088 13.1038 5.72885Z" fill="black"/>
<path d="M14.1956 0.926114C16.4503 1.1766 18.5533 2.18632 20.1585 3.7894C21.7635 5.39243 22.7752 7.49415 23.0286 9.74838C23.0902 10.2972 22.6956 10.7922 22.1467 10.8538C21.5979 10.9155 21.103 10.5208 21.0413 9.97201C20.8386 8.16854 20.0285 6.48691 18.7444 5.20443C17.4604 3.92221 15.7784 3.1148 13.9749 2.9144C13.426 2.8534 13.0301 2.35877 13.0911 1.8099C13.1521 1.2611 13.6467 0.86516 14.1956 0.926114Z" fill="black"/>
</svg>
