<svg width="24" height="24" viewBox="0 0 24 24" fill="none" xmlns="http://www.w3.org/2000/svg">
<path fill-rule="evenodd" clip-rule="evenodd" d="M9.3125 3.3125C10.9792 3.3125 12.3958 3.89583 13.5625 5.0625C14.7292 6.22917 15.3125 7.64583 15.3125 9.3125C15.3125 9.69583 15.2796 10.0587 15.2129 10.4004C15.1462 10.7419 15.0454 11.0789 14.9121 11.4121L19.9629 16.4121C20.4462 16.8954 20.6875 17.4875 20.6875 18.1875C20.6875 18.8875 20.4462 19.4796 19.9629 19.9629C19.4796 20.4462 18.8875 20.6875 18.1875 20.6875C17.4875 20.6875 16.8954 20.4375 16.4121 19.9375L11.4121 14.9121C11.0789 15.0454 10.7419 15.1462 10.4004 15.2129C10.0587 15.2796 9.69583 15.3125 9.3125 15.3125C7.64583 15.3125 6.22917 14.7292 5.0625 13.5625C3.89583 12.3958 3.3125 10.9792 3.3125 9.3125C3.3125 8.97917 3.3377 8.64583 3.3877 8.3125C3.4377 7.97918 3.52878 7.6623 3.66211 7.3623C3.7454 7.19572 3.84969 7.07064 3.97461 6.9873C4.09961 6.90397 4.2377 6.84583 4.3877 6.8125C4.53754 6.77923 4.69145 6.78362 4.84961 6.8252C5.00794 6.86686 5.15378 6.95456 5.28711 7.08789L7.91211 9.71289L9.71289 7.91211L7.08789 5.28711C6.95456 5.15378 6.86686 5.00794 6.8252 4.84961C6.78362 4.69145 6.77923 4.53754 6.8125 4.3877C6.84583 4.2377 6.90397 4.09961 6.9873 3.97461C7.07064 3.84969 7.19572 3.7454 7.3623 3.66211C7.6623 3.52878 7.97918 3.4377 8.3125 3.3877C8.64583 3.3377 8.97917 3.3125 9.3125 3.3125ZM11.8125 7.21289C12.0123 7.41275 12.1122 7.64569 12.1123 7.91211C12.1123 8.17873 12.0124 8.41233 11.8125 8.6123L8.6123 11.8125C8.41233 12.0124 8.17873 12.1123 7.91211 12.1123C7.64569 12.1122 7.41275 12.0123 7.21289 11.8125L5.3623 9.96289C5.51235 10.9127 5.95867 11.708 6.7002 12.3496C7.44186 12.9913 8.3125 13.3125 9.3125 13.3125C9.74579 13.3125 10.179 13.2456 10.6123 13.1123C11.0456 12.979 11.4371 12.7706 11.7871 12.4873L17.8623 18.5625C17.9456 18.6458 18.0585 18.6831 18.2002 18.6748C18.3418 18.6664 18.4538 18.6204 18.5371 18.5371C18.6204 18.4538 18.6621 18.3418 18.6621 18.2002C18.6621 18.0585 18.6204 17.9456 18.5371 17.8623L12.4629 11.8125C12.7627 11.4793 12.979 11.0918 13.1123 10.6504C13.2456 10.2087 13.3125 9.7625 13.3125 9.3125C13.3125 8.3125 12.9913 7.44186 12.3496 6.7002C11.708 5.95867 10.9127 5.51235 9.96289 5.3623L11.8125 7.21289Z" fill="black"/>
</svg>
