<svg width="24" height="24" viewBox="0 0 24 24" fill="none" xmlns="http://www.w3.org/2000/svg">
<path fill-rule="evenodd" clip-rule="evenodd" d="M6 3C7.3 3 8.40031 3.84 8.82031 5H17C19.21 5 21 6.79 21 9C21 11.21 19.21 13 17 13H7C5.9 13 5 13.9 5 15C5 16.1 5.9 17 7 17H15.1797C15.5997 15.84 16.7 15 18 15C19.66 15 21 16.34 21 18C21 19.66 19.66 21 18 21C16.7 21 15.5997 20.16 15.1797 19H7C4.79 19 3 17.21 3 15C3 12.79 4.79 11 7 11H17C18.1 11 19 10.1 19 9C19 7.9 18.1 7 17 7H8.82031C8.41031 8.16 7.31 9 6 9C4.34 9 3 7.66 3 6C3 4.34 4.34 3 6 3ZM18 17C17.45 17 17 17.45 17 18C17 18.55 17.45 19 18 19C18.55 19 19 18.55 19 18C19 17.45 18.55 17 18 17ZM6 5C5.45 5 5 5.45 5 6C5 6.55 5.45 7 6 7C6.55 7 7 6.55 7 6C7 5.45 6.55 5 6 5Z" fill="black"/>
</svg>
