<svg width="24" height="24" viewBox="0 0 24 24" fill="none" xmlns="http://www.w3.org/2000/svg">
<path fill-rule="evenodd" clip-rule="evenodd" d="M15.7559 3.97363C16.3079 3.97385 16.7558 4.42155 16.7559 4.97363V6.60352H21.0391C21.5911 6.60367 22.0389 7.05143 22.0391 7.60352V15.3965H22.3721C22.9242 15.3966 23.372 15.8444 23.3721 16.3965C23.3719 16.9485 22.9241 17.3964 22.3721 17.3965H16.7559V19.0264H17.3379C17.89 19.0265 18.3378 19.4742 18.3379 20.0264C18.3377 20.5784 17.89 21.0262 17.3379 21.0264H6.66211C6.11002 21.0263 5.66227 20.5784 5.66211 20.0264C5.66219 19.4742 6.10996 19.0265 6.66211 19.0264H7.24512V17.3965H1.62793C1.07577 17.3965 0.628127 16.9486 0.62793 16.3965C0.628012 15.8443 1.0757 15.3965 1.62793 15.3965H1.96191V7.60352C1.96203 7.05133 2.4097 6.60352 2.96191 6.60352H7.24512V4.97363C7.2452 4.42142 7.69288 3.97363 8.24512 3.97363H15.7559ZM9.24512 19.0225H14.7559V5.97363H9.24512V19.0225ZM3.96191 15.3877H7.16211V8.60352H3.96191V15.3877ZM16.8379 15.3877H20.0391V8.60352H16.8379V15.3877Z" fill="black"/>
</svg>
