<svg width="24" height="24" viewBox="0 0 24 24" fill="none" xmlns="http://www.w3.org/2000/svg">
<path fill-rule="evenodd" clip-rule="evenodd" d="M12.2312 1.36073C12.5154 1.01974 12.991 0.906703 13.3982 1.08339C13.8051 1.26029 14.047 1.68413 13.992 2.1244L13.1326 9.00038H19.3269C19.5676 9.00034 19.8122 8.99997 20.0115 9.01796C20.2001 9.03504 20.5617 9.0805 20.8748 9.33339C21.2332 9.62311 21.4393 10.062 21.4324 10.5228L21.4217 10.6693C21.3784 10.9996 21.216 11.2518 21.1219 11.3881L20.9246 11.6488C20.8521 11.7393 20.7741 11.8328 20.6971 11.9252L11.7683 22.641L11.6531 22.7572C11.3663 23.0048 10.9576 23.072 10.6014 22.9174C10.1946 22.7406 9.9529 22.3165 10.0076 21.8764L10.867 15.0004H4.67167C4.55144 15.0004 4.43007 15.0007 4.31425 14.9984L3.9871 14.9828C3.822 14.9678 3.5251 14.9305 3.24393 14.7523L3.12479 14.6674C2.76642 14.3778 2.56047 13.9386 2.56718 13.4779C2.57173 13.1762 2.68406 12.928 2.78495 12.7572L2.87772 12.6127C2.99136 12.4482 3.14752 12.2603 3.30155 12.0756L12.2312 1.36073ZM5.13456 13.0004H10.867C11.4406 13.0004 11.9864 13.2471 12.366 13.6771C12.7455 14.1072 12.9225 14.6793 12.8514 15.2484L12.4148 18.7396L18.865 11.0004H13.1326C12.5592 11.0003 12.0122 10.7535 11.6326 10.3236C11.2534 9.89379 11.0773 9.32113 11.1482 8.75233L11.5838 5.26112L5.13456 13.0004Z" fill="black"/>
</svg>
