<svg width="24" height="24" viewBox="0 0 24 24" fill="none" xmlns="http://www.w3.org/2000/svg">
<path fill-rule="evenodd" clip-rule="evenodd" d="M22 22H2L4 12H20L22 22ZM4.44043 20H11V18H4.83984L4.44043 20ZM13 20H19.5596L19.1602 18H13V20ZM5.24023 16H11V14H5.63965L5.24023 16ZM13 16H18.7598L18.3604 14H13V16Z" fill="black"/>
<path d="M12 8C12.5523 8 13 8.44772 13 9V10C13 10.5523 12.5523 11 12 11C11.4477 11 11 10.5523 11 10V9C11 8.44772 11.4477 8 12 8Z" fill="black"/>
<path d="M6.11914 6.49902C6.50966 6.1085 7.14268 6.1085 7.5332 6.49902C7.92354 6.88956 7.92366 7.52263 7.5332 7.91309L6.82617 8.62012C6.4357 9.01047 5.80261 9.01041 5.41211 8.62012C5.02163 8.22963 5.0217 7.59658 5.41211 7.20605L6.11914 6.49902Z" fill="black"/>
<path d="M16.4717 6.49805C16.8622 6.10759 17.4952 6.10758 17.8857 6.49805L18.5928 7.20508C18.9833 7.59558 18.9832 8.22862 18.5928 8.61914C18.2023 9.00966 17.5692 9.00966 17.1787 8.61914L16.4717 7.91211C16.0812 7.52159 16.0812 6.88856 16.4717 6.49805Z" fill="black"/>
<path d="M9 2C9 3.65 10.35 5 12 5C13.65 5 15 3.65 15 2H17C17 4.76 14.76 7 12 7C9.24 7 7 4.76 7 2H9Z" fill="black"/>
<path d="M5 2C5.55228 2 6 2.44772 6 3C6 3.55228 5.55228 4 5 4H4C3.44772 4 3 3.55228 3 3C3 2.44772 3.44772 2 4 2H5Z" fill="black"/>
<path d="M20 2C20.5523 2 21 2.44772 21 3C21 3.55228 20.5523 4 20 4H19C18.4477 4 18 3.55228 18 3C18 2.44772 18.4477 2 19 2H20Z" fill="black"/>
</svg>
