<svg width="24" height="24" viewBox="0 0 24 24" fill="none" xmlns="http://www.w3.org/2000/svg">
<path fill-rule="evenodd" clip-rule="evenodd" d="M9.9502 3C11.0822 3.00011 11.9999 3.91776 12 5.0498V13.25H13.25C14.9069 13.25 16.25 14.5931 16.25 16.25V18.125C16.25 18.6082 16.6418 19 17.125 19C17.6082 19 18 18.6082 18 18.125V11H17C16.4477 11 16 10.5523 16 10V6H17V4.5C17 4.22386 17.2239 4 17.5 4C17.7761 4 18 4.22386 18 4.5V6H20V4.5C20 4.22386 20.2239 4 20.5 4C20.7761 4 21 4.22386 21 4.5V6H22V10C22 10.5523 21.5523 11 21 11H20V18.125C20 19.7128 18.7128 21 17.125 21C15.5372 21 14.25 19.7128 14.25 18.125V16.25C14.25 15.6977 13.8023 15.25 13.25 15.25H12V21H2V5.0498C2.00011 3.91779 2.91776 3.00011 4.0498 3H9.9502ZM4 19H10V18H4V19ZM4.0498 5C4.02235 5.0001 4.00011 5.02235 4 5.0498V16H6.25V11.2861H4L7.75 5V9.71387H10L6.25 16H10V5.0498C9.99992 5.02926 9.9875 5.01152 9.96973 5.00391L9.9502 5H4.0498Z" fill="black"/>
</svg>
