<svg width="24" height="24" viewBox="0 0 24 24" fill="none" xmlns="http://www.w3.org/2000/svg">
<path d="M18 19.5C18.5523 19.5 19 19.9477 19 20.5C19 21.0523 18.5523 21.5 18 21.5H6C5.44772 21.5 5 21.0523 5 20.5C5 19.9477 5.44772 19.5 6 19.5H18Z" fill="black"/>
<path fill-rule="evenodd" clip-rule="evenodd" d="M15 2.5C15.5523 2.5 16 2.94772 16 3.5V5.5H18L18.2568 5.50684C20.8989 5.64053 23 7.82472 23 10.5V13.5C23 16.1753 20.8989 18.3595 18.2568 18.4932L18 18.5H6C3.32472 18.5 1.14053 16.3989 1.00684 13.7568L1 13.5V10.5C1 7.73858 3.23858 5.5 6 5.5H8V3.5C8 2.94772 8.44772 2.5 9 2.5H15ZM6 7.5C4.34315 7.5 3 8.84315 3 10.5V13.5C3 15.1569 4.34315 16.5 6 16.5H18C19.6569 16.5 21 15.1569 21 13.5V10.5C21 8.8949 19.7394 7.58421 18.1543 7.50391L18 7.5H6ZM10 5.5H14V4.5H10V5.5Z" fill="black"/>
</svg>
