<svg width="24" height="24" viewBox="0 0 24 24" fill="none" xmlns="http://www.w3.org/2000/svg">
<path d="M4.84668 3.80113C5.29564 3.41651 5.96978 3.56861 6.26562 4.08042C6.52422 4.52799 6.39847 5.09478 6.0127 5.43882C4.16475 7.08674 3.00012 9.48479 3 12.1556C3.0001 14.6766 4.03763 16.9546 5.70801 18.5882C6.06545 18.9378 6.17297 19.4845 5.92285 19.9173C5.61712 20.4462 4.91292 20.5887 4.46777 20.1703C2.33355 18.1641 1.00011 15.3158 1 12.1556C1.00012 8.81237 2.49247 5.81818 4.84668 3.80113Z" fill="black"/>
<path d="M17.7334 4.08042C18.0289 3.56879 18.7016 3.41684 19.1504 3.80113C21.5057 5.81805 22.9999 8.81153 23 12.1556C22.9999 15.3164 21.6653 18.1642 19.5303 20.1703C19.0852 20.5884 18.3818 20.4459 18.0762 19.9173C17.8264 19.4846 17.9337 18.9375 18.291 18.5882C19.9618 16.9547 20.9999 14.6769 21 12.1556C20.9999 9.48407 19.8351 7.08486 17.9863 5.43687C17.6008 5.09317 17.4751 4.52772 17.7334 4.08042Z" fill="black"/>
<path d="M12 14.1556C12.5523 14.1556 13 14.6034 13 15.1556C12.9999 15.7078 12.5522 16.1556 12 16.1556C11.4478 16.1556 11.0001 15.7078 11 15.1556C11 14.6034 11.4477 14.1556 12 14.1556Z" fill="black"/>
<path d="M12 8.15562C12.5523 8.15562 13 8.60337 13 9.15562V12.1556C12.9999 12.7078 12.5522 13.1556 12 13.1556C11.4478 13.1556 11.0001 12.7078 11 12.1556V9.15562C11 8.60337 11.4477 8.15562 12 8.15562Z" fill="black"/>
<path fill-rule="evenodd" clip-rule="evenodd" d="M12 4.15562C16.4183 4.15562 20 7.73738 20 12.1556C19.9999 16.5738 16.4182 20.1556 12 20.1556C7.58177 20.1556 4.00007 16.5738 4 12.1556C4.00004 7.73738 7.58175 4.15562 12 4.15562ZM12 6.15562C8.68632 6.15562 6.00004 8.84195 6 12.1556C6.00007 15.4693 8.68634 18.1556 12 18.1556C15.3137 18.1556 17.9999 15.4693 18 12.1556C18 8.84195 15.3137 6.15562 12 6.15562Z" fill="black"/>
</svg>
