<svg width="24" height="24" viewBox="0 0 24 24" fill="none" xmlns="http://www.w3.org/2000/svg">
<path d="M15.6737 17.1238C15.6158 16.7547 16.0361 16.4432 16.4501 16.5486L22.5868 18.114C23.0421 18.2305 23.1234 18.7486 22.7255 18.9988L17.3632 22.3689C17.0017 22.5955 16.5066 22.4278 16.4481 22.0594L16.2264 20.6463C15.5358 20.9095 14.8086 21.0427 14.0438 21.0428C13.4272 21.0428 12.7682 20.9517 12.0682 20.7683C11.3684 20.585 10.4852 20.268 9.41882 19.8181C8.4689 19.4348 7.74304 19.1683 7.24304 19.0183C6.74321 18.8684 6.27683 18.7928 5.84363 18.7928C5.27711 18.7928 4.73954 18.9179 4.23132 19.1678C3.72306 19.4177 3.22631 19.8093 2.74304 20.3426C2.64313 20.4424 2.53099 20.5182 2.40613 20.5681C2.28118 20.6181 2.15171 20.6433 2.01843 20.6433C1.88528 20.6433 1.76435 20.6224 1.65613 20.5808C1.54798 20.5392 1.44347 20.4765 1.34363 20.3933C1.24373 20.2934 1.16464 20.1759 1.10632 20.0428C1.04812 19.9097 1.01855 19.7764 1.01843 19.6433C1.01843 19.5102 1.04375 19.3883 1.09363 19.2801C1.14356 19.172 1.2107 19.0673 1.29382 18.9676C1.97689 18.2346 2.69355 17.6891 3.44324 17.3308C4.19318 16.9725 4.98498 16.7928 5.81824 16.7928C6.40157 16.7928 7.01446 16.8804 7.65613 17.0554C8.2977 17.2304 9.14354 17.5344 10.1932 17.9676C11.193 18.3841 11.9598 18.6681 12.493 18.8181C13.0262 18.9681 13.5265 19.0427 13.993 19.0428C14.5763 19.0428 15.1477 18.9177 15.7059 18.6678C15.7713 18.6385 15.8362 18.6067 15.9012 18.574L15.6737 17.1238Z" fill="black"/>
<path d="M15.6737 9.62381C15.6158 9.2546 16.0361 8.94316 16.4501 9.04861L22.5868 10.614C23.0421 10.7305 23.1235 11.2486 22.7255 11.4988L17.3632 14.8679C17.0015 15.0949 16.5064 14.9272 16.4481 14.5584L16.2264 13.1463C15.5359 13.4094 14.8086 13.5427 14.0438 13.5428C13.4272 13.5428 12.7682 13.4507 12.0682 13.2674C11.3684 13.0841 10.4851 12.7679 9.41882 12.3181C8.4689 11.9348 7.74304 11.6674 7.24304 11.5174C6.74329 11.3675 6.27678 11.2928 5.84363 11.2928C5.27707 11.2928 4.73957 11.4178 4.23132 11.6678C3.72305 11.9178 3.22632 12.3093 2.74304 12.8426C2.64313 12.9424 2.53098 13.0182 2.40613 13.0681C2.28118 13.1181 2.15171 13.1424 2.01843 13.1424C1.88519 13.1424 1.76441 13.1215 1.65613 13.0799C1.54787 13.0382 1.44356 12.9756 1.34363 12.8924C1.2438 12.7925 1.16462 12.6758 1.10632 12.5428C1.04805 12.4096 1.0185 12.2755 1.01843 12.1424C1.01847 12.0093 1.04378 11.8882 1.09363 11.7801C1.14358 11.6719 1.21064 11.5674 1.29382 11.4676C1.97702 10.7344 2.6934 10.1882 3.44324 9.82986C4.19318 9.47156 4.98498 9.29278 5.81824 9.29275C6.40157 9.29275 7.01446 9.38045 7.65613 9.55545C8.29771 9.73045 9.14353 10.0344 10.1932 10.4676C11.193 10.8841 11.9597 11.1681 12.493 11.3181C13.0262 11.4681 13.5265 11.5427 13.993 11.5428C14.5763 11.5428 15.1477 11.4177 15.7059 11.1678C15.7713 11.1385 15.8363 11.1067 15.9012 11.074L15.6737 9.62381Z" fill="black"/>
<path d="M15.6737 2.12381C15.6158 1.75466 16.0361 1.44322 16.4501 1.54861L22.5868 3.11404C23.0421 3.2305 23.1234 3.74855 22.7255 3.99881L17.3632 7.36892C17.0017 7.59549 16.5066 7.42781 16.4481 7.05935L16.2264 5.64627C15.5358 5.90945 14.8086 6.04271 14.0438 6.04275C13.4272 6.04275 12.7682 5.95165 12.0682 5.76834C11.3684 5.58503 10.4852 5.268 9.41882 4.81814C8.4689 4.43484 7.74304 4.16834 7.24304 4.01834C6.74321 3.86841 6.27683 3.79277 5.84363 3.79275C5.27711 3.79275 4.73954 3.91788 4.23132 4.16775C3.72306 4.41775 3.22631 4.8093 2.74304 5.34256C2.64313 5.44241 2.53099 5.51818 2.40613 5.56814C2.28118 5.6181 2.15171 5.64334 2.01843 5.64334C1.88528 5.64334 1.76435 5.62239 1.65613 5.58084C1.54798 5.53924 1.44347 5.47645 1.34363 5.39334C1.24373 5.29343 1.16464 5.17592 1.10632 5.04275C1.04812 4.90971 1.01855 4.77638 1.01843 4.64334C1.01843 4.51016 1.04375 4.38829 1.09363 4.28006C1.14356 4.17197 1.2107 4.06734 1.29382 3.96756C1.97689 3.23459 2.69355 2.68911 3.44324 2.33084C4.19318 1.97253 4.98498 1.79278 5.81824 1.79275C6.40157 1.79275 7.01446 1.88045 7.65613 2.05545C8.2977 2.23044 9.14354 2.53436 10.1932 2.96756C11.193 3.3841 11.9598 3.66813 12.493 3.81814C13.0262 3.96808 13.5265 4.04271 13.993 4.04275C14.5763 4.04275 15.1477 3.9177 15.7059 3.66775C15.7713 3.63849 15.8362 3.60669 15.9012 3.574L15.6737 2.12381Z" fill="black"/>
</svg>
