<svg width="24" height="24" viewBox="0 0 24 24" fill="none" xmlns="http://www.w3.org/2000/svg">
<path fill-rule="evenodd" clip-rule="evenodd" d="M10.5 3C11.18 3 11.85 3.08 12.5 3.25V6C12.5 6.55228 12.9477 7 13.5 7H15.5V9C15.5 9.55228 15.9477 10 16.5 10H18.4199C18.4699 10.39 18.5 10.7902 18.5 11.2002C18.4999 14.5202 15.8299 18.4501 10.5 23C5.1701 18.4501 2.5001 14.5202 2.5 11.2002C2.5 6.2202 6.3 3 10.5 3ZM10.5 9C9.4 9 8.5 9.9 8.5 11C8.5 12.1 9.4 13 10.5 13C11.6 13 12.5 12.1 12.5 11C12.5 9.9 11.6 9 10.5 9Z" fill="black"/>
<path d="M17.5 1C18.0523 1 18.5 1.44772 18.5 2V4H20.5C21.0523 4 21.5 4.44772 21.5 5C21.5 5.55228 21.0523 6 20.5 6H18.5V8C18.5 8.55228 18.0523 9 17.5 9C16.9477 9 16.5 8.55228 16.5 8V6H14.5C13.9477 6 13.5 5.55228 13.5 5C13.5 4.44772 13.9477 4 14.5 4H16.5V2C16.5 1.44772 16.9477 1 17.5 1Z" fill="black"/>
</svg>
