<svg width="24" height="24" viewBox="0 0 24 24" fill="none" xmlns="http://www.w3.org/2000/svg">
<path d="M18 10.5C18.5523 10.5 19 10.9477 19 11.5V13.5H21C21.5523 13.5 22 13.9477 22 14.5C22 15.0523 21.5523 15.5 21 15.5H19V17.5C19 18.0523 18.5523 18.5 18 18.5C17.4477 18.5 17 18.0523 17 17.5V15.5H15C14.4477 15.5 14 15.0523 14 14.5C14 13.9477 14.4477 13.5 15 13.5H17V11.5C17 10.9477 17.4477 10.5 18 10.5Z" fill="black"/>
<path d="M11 7.40039H7C5.29 7.40039 3.90039 8.79 3.90039 10.5C3.90039 12.21 5.29 13.5996 7 13.5996H11V15.5H7C4.24 15.5 2 13.26 2 10.5C2 7.74 4.24 5.5 7 5.5H11V7.40039Z" fill="black"/>
<path d="M15 9.5C15.5523 9.5 16 9.94772 16 10.5C16 11.0523 15.5523 11.5 15 11.5H9C8.44772 11.5 8 11.0523 8 10.5C8 9.94772 8.44772 9.5 9 9.5H15Z" fill="black"/>
<path d="M17 5.5C19.76 5.5 22 7.74 22 10.5H20.0996C20.0996 8.79 18.71 7.40039 17 7.40039H13V5.5H17Z" fill="black"/>
</svg>
