<svg width="24" height="24" viewBox="0 0 24 24" fill="none" xmlns="http://www.w3.org/2000/svg">
<path fill-rule="evenodd" clip-rule="evenodd" d="M12 2.00008C12.8656 2.00008 13.4944 1.99193 14.0352 2.1368C15.4155 2.50666 16.4934 3.58461 16.8633 4.96493C16.9457 5.27234 16.9763 5.60836 16.9893 6.00008H18.7998C19.3434 6.00008 19.8116 5.99901 20.1953 6.03036C20.5906 6.06267 20.984 6.1345 21.3623 6.32723C21.9265 6.61479 22.3853 7.0736 22.6729 7.63778C22.8656 8.01604 22.9374 8.40955 22.9697 8.80477C23.0011 9.18842 23 9.65677 23 10.2003V17.7999C23 18.3434 23.0011 18.8117 22.9697 19.1954C22.9374 19.5906 22.8656 19.9841 22.6729 20.3624C22.3853 20.9266 21.9265 21.3854 21.3623 21.6729C20.984 21.8657 20.5906 21.9375 20.1953 21.9698C19.8116 22.0012 19.3434 22.0001 18.7998 22.0001H5.2002C4.65665 22.0001 4.18836 22.0012 3.80469 21.9698C3.40944 21.9375 3.01599 21.8657 2.6377 21.6729C2.0735 21.3854 1.61472 20.9266 1.32715 20.3624C1.13443 19.9841 1.06259 19.5906 1.03028 19.1954C0.99894 18.8117 1 18.3434 1 17.7999V10.2003C1 9.65677 0.998933 9.18842 1.03028 8.80477C1.06259 8.40955 1.13442 8.01604 1.32715 7.63778C1.61473 7.07359 2.0735 6.61479 2.6377 6.32723C3.01599 6.13449 3.40945 6.06267 3.80469 6.03036C4.18836 5.99901 4.65665 6.00008 5.2002 6.00008H7.01075C7.02368 5.60836 7.05435 5.27234 7.13672 4.96493C7.50662 3.58461 8.58451 2.50666 9.96485 2.1368C10.5056 1.99192 11.1344 2.00008 12 2.00008ZM12 4.00008C11.0057 4.00008 10.7047 4.00889 10.4824 4.06844C9.79227 4.25337 9.25332 4.79237 9.06836 5.48251C9.03654 5.60127 9.01993 5.7426 9.01075 6.00008H14.9893C14.9801 5.7426 14.9635 5.60127 14.9316 5.48251C14.7467 4.79237 14.2077 4.25337 13.5176 4.06844C13.2953 4.00889 12.9943 4.00008 12 4.00008Z" fill="black"/>
</svg>
