<svg width="24" height="24" viewBox="0 0 24 24" fill="none" xmlns="http://www.w3.org/2000/svg">
<path fill-rule="evenodd" clip-rule="evenodd" d="M12 2C17.52 2 22 6.48 22 12C22 17.52 17.52 22 12 22C6.48 22 2 17.52 2 12C2 6.48 6.48 2 12 2ZM18.2979 7.29297C17.9075 6.89987 17.2716 6.89832 16.8799 7.29004L10 14.1699L7.11523 11.2939C6.72544 10.9052 6.09433 10.9057 5.70508 11.2949C5.316 11.6845 5.316 12.3156 5.70508 12.7051L9.38574 16.3857C9.72508 16.7247 10.2749 16.7247 10.6143 16.3857L18.2949 8.70508C18.6846 8.31545 18.6858 7.68414 18.2979 7.29297Z" fill="black"/>
</svg>
