<svg width="24" height="24" viewBox="0 0 24 24" fill="none" xmlns="http://www.w3.org/2000/svg">
<path fill-rule="evenodd" clip-rule="evenodd" d="M22 7V21C22 22.1 21.1 23 20 23H3.99023C2.89023 23 2 22.1 2 21L2.00977 3C2.00977 1.9 2.9 1 4 1H16L22 7ZM8.70605 13.3037C8.31614 13.6936 8.31625 14.3258 8.70605 14.7158C9.09511 15.1049 9.72587 15.1065 10.1162 14.7188L11 13.8398V17C11 17.5523 11.4477 18 12 18C12.5523 18 13 17.5523 13 17V13.8398L13.8809 14.7207C14.2724 15.1118 14.9088 15.1095 15.2988 14.7168C15.6861 14.3266 15.6866 13.6955 15.2988 13.3057L12.0098 10L8.70605 13.3037ZM15 7C15 7.55228 15.4477 8 16 8H20.5L15 2.5V7Z" fill="black"/>
</svg>
