<svg width="24" height="24" viewBox="0 0 24 24" fill="none" xmlns="http://www.w3.org/2000/svg">
<path d="M13 16C13.5523 16 14 16.4477 14 17C14 17.5523 13.5523 18 13 18H11C10.4477 18 10 17.5523 10 17C10 16.4477 10.4477 16 11 16H13Z" fill="black"/>
<path d="M17 11C17.5523 11 18 11.4477 18 12C18 12.5523 17.5523 13 17 13H7C6.44772 13 6 12.5523 6 12C6 11.4477 6.44772 11 7 11H17Z" fill="black"/>
<path d="M20 6C20.5523 6 21 6.44772 21 7C21 7.55228 20.5523 8 20 8H4C3.44772 8 3 7.55228 3 7C3 6.44772 3.44772 6 4 6H20Z" fill="black"/>
</svg>
