<svg width="24" height="24" viewBox="0 0 24 24" fill="none" xmlns="http://www.w3.org/2000/svg">
<path d="M2.63477 3.63467C2.98543 3.28427 3.55472 3.28415 3.90527 3.63467L19.3701 19.1093C19.7178 19.4574 19.7177 20.0219 19.3701 20.37C19.0222 20.7178 18.4577 20.7184 18.1094 20.371L14.7305 16.9999H13V15.2694L10.7305 12.9999H8.7998C8.35823 12.9998 8.00027 12.6416 8 12.2001V11.7294C8.00044 11.3266 8.32757 10.9999 8.73047 10.9999L6.66016 8.92959C5.11031 9.09959 3.90062 10.4101 3.90039 11.9999C3.90056 13.7098 5.2901 15.0995 7 15.0995H11V16.9999H7C4.2401 16.9999 2.00016 14.7598 2 11.9999C2.00018 9.91012 3.29051 8.11975 5.11035 7.37979L2.63477 4.9042C2.28467 4.55354 2.28437 3.98515 2.63477 3.63467Z" fill="black"/>
<path d="M17 6.99991C19.7598 6.99991 21.9998 9.24011 22 11.9999C21.9999 13.9496 20.8797 15.6093 19.25 16.4394L17.79 14.9794C19.1198 14.6293 20.0995 13.4297 20.0996 11.9999C20.0994 10.2901 18.7099 8.89932 17 8.89932H13V6.99991H17Z" fill="black"/>
<path d="M15 10.9999C15.5521 10.9999 15.9998 11.4478 16 11.9999V12.9999H15.8096L13.8096 10.9999H15Z" fill="black"/>
</svg>
