<svg width="24" height="24" viewBox="0 0 24 24" fill="none" xmlns="http://www.w3.org/2000/svg">
<path fill-rule="evenodd" clip-rule="evenodd" d="M12 1.5C14.76 1.5 17 3.74 17 6.5V8.5H18C19.1 8.5 20 9.4 20 10.5V20.5C20 21.6 19.1 22.5 18 22.5H6C4.9 22.5 4 21.6 4 20.5V10.5C4 9.4 4.9 8.5 6 8.5H7V6.5C7 3.74 9.24 1.5 12 1.5ZM12 13.5C10.9 13.5 10 14.4 10 15.5C10 16.6 10.9 17.5 12 17.5C13.1 17.5 14 16.6 14 15.5C14 14.4 13.1 13.5 12 13.5ZM12 3.40039C10.29 3.40039 8.90039 4.79 8.90039 6.5V8.5H15.0996V6.5C15.0996 4.79 13.71 3.40039 12 3.40039Z" fill="black"/>
</svg>
