<svg width="24" height="24" viewBox="0 0 24 24" fill="none" xmlns="http://www.w3.org/2000/svg">
<path d="M4.89941 8.31348C4.32572 9.41675 4 10.6699 4 12C4 16.42 7.58 20 12 20C13.3299 20 14.5824 19.6732 15.6855 19.0996L17.1572 20.5713C15.652 21.4778 13.8881 22 12 22C6.47 22 2 17.53 2 12C2 10.1118 2.52117 8.34711 3.42773 6.8418L4.89941 8.31348Z" fill="black"/>
<path fill-rule="evenodd" clip-rule="evenodd" d="M12 2C17.53 2 22 6.47 22 12C22 14.4042 21.152 16.6052 19.7422 18.3281L20.707 19.293C21.0975 19.6835 21.0975 20.3165 20.707 20.707C20.3165 21.0976 19.6835 21.0975 19.293 20.707L3.29297 4.70703C2.90244 4.31651 2.90244 3.68349 3.29297 3.29297C3.68349 2.90245 4.31651 2.90245 4.70703 3.29297L5.66992 4.25586C7.39312 2.84623 9.5958 2 12 2ZM12 4C10.1507 4 8.45009 4.62877 7.0957 5.68164L18.3164 16.9023C19.3695 15.5482 20 13.8493 20 12C20 7.58 16.42 4 12 4Z" fill="black"/>
</svg>
