<svg width="24" height="24" viewBox="0 0 24 24" fill="none" xmlns="http://www.w3.org/2000/svg">
<path d="M18 2.04004C19.66 2.04004 21 3.38004 21 5.04004C21 6.70001 19.66 8.04004 18 8.04004C17.21 8.04004 16.5 7.72949 15.96 7.22949L8.91016 11.3398C8.96016 11.5698 9 11.8 9 12.04C8.99999 12.28 8.96015 12.5103 8.91016 12.7402L16.04 16.8896C16.56 16.4197 17.2401 16.1201 18 16.1201C19.61 16.1201 20.9199 17.43 20.9199 19.04C20.9199 20.65 19.61 21.96 18 21.96C16.39 21.96 15.0801 20.65 15.0801 19.04C15.0801 18.82 15.1102 18.5996 15.1602 18.3896L8.04004 14.2295C7.50004 14.7295 6.79 15.04 6 15.04C4.34002 15.04 3.00003 13.7 3 12.04C3 10.38 4.34 9.04004 6 9.04004C6.78992 9.04004 7.50006 9.3497 8.04004 9.84961L15.0898 5.74023C15.0398 5.51025 15 5.28002 15 5.04004C15 3.38004 16.34 2.04004 18 2.04004Z" fill="black"/>
</svg>
