<svg width="24" height="24" viewBox="0 0 24 24" fill="none" xmlns="http://www.w3.org/2000/svg">
<path fill-rule="evenodd" clip-rule="evenodd" d="M12 2.00008C12.8655 2.00008 13.4944 1.99194 14.0351 2.1368C15.4154 2.50665 16.4934 3.58466 16.8633 4.96493C16.9456 5.27231 16.9763 5.6084 16.9892 6.00008H18.7998C19.3433 6.00008 19.8116 5.99901 20.1953 6.03036C20.5905 6.06266 20.984 6.13452 21.3623 6.32723C21.9265 6.61478 22.3853 7.07364 22.6728 7.63778C22.8656 8.01601 22.9374 8.40958 22.9697 8.80477C23.0011 9.18839 23 9.65682 23 10.2003V17.7999C23 18.3433 23.001 18.8118 22.9697 19.1954C22.9374 19.5906 22.8655 19.9841 22.6728 20.3624C22.3853 20.9266 21.9265 21.3854 21.3623 21.6729C20.984 21.8657 20.5906 21.9375 20.1953 21.9698C19.8116 22.0012 19.3433 22.0001 18.7998 22.0001H5.20018C4.65664 22.0001 4.18834 22.0012 3.80468 21.9698C3.40943 21.9375 3.01597 21.8657 2.63768 21.6729C2.07351 21.3854 1.6147 20.9266 1.32714 20.3624C1.13445 19.9841 1.06257 19.5906 1.03026 19.1954C0.998933 18.8118 0.999989 18.3433 0.999989 17.7999V10.2003C0.999989 9.65682 0.99892 9.18839 1.03026 8.80477C1.06258 8.40958 1.13442 8.01601 1.32714 7.63778C1.61472 7.07363 2.07352 6.61478 2.63768 6.32723C3.01596 6.13451 3.40944 6.06267 3.80468 6.03036C4.18834 5.99901 4.65664 6.00008 5.20018 6.00008H7.01073C7.02367 5.6084 7.05434 5.27231 7.13671 4.96493C7.50663 3.58465 8.58453 2.50665 9.96483 2.1368C10.5055 1.99193 11.1344 2.00008 12 2.00008ZM7.99999 10.0001C7.44773 10.0001 7.00003 10.4478 6.99999 11.0001V17.0001C6.99999 17.5524 7.44771 18.0001 7.99999 18.0001C8.55227 18.0001 8.99999 17.5524 8.99999 17.0001V11.0001C8.99994 10.4478 8.55225 10.0001 7.99999 10.0001ZM16 10.0001C15.4477 10.0001 15 10.4478 15 11.0001V17.0001C15 17.5524 15.4477 18.0001 16 18.0001C16.5523 18.0001 17 17.5524 17 17.0001V11.0001C16.9999 10.4478 16.5522 10.0001 16 10.0001ZM12 4.00008C11.0057 4.00008 10.7047 4.00889 10.4824 4.06844C9.79229 4.25336 9.25333 4.79241 9.06835 5.48251C9.03653 5.60126 9.01992 5.74267 9.01073 6.00008H14.9892C14.9801 5.74267 14.9634 5.60126 14.9316 5.48251C14.7466 4.79242 14.2077 4.25336 13.5176 4.06844C13.2953 4.0089 12.9942 4.00008 12 4.00008Z" fill="black"/>
</svg>
