<svg width="24" height="24" viewBox="0 0 24 24" fill="none" xmlns="http://www.w3.org/2000/svg">
<path d="M12.7539 4.38229C13.0184 4.20598 13.3583 4.19046 13.6387 4.3403C13.919 4.49042 14.0947 4.78209 14.0947 5.10007V18.9008C14.0942 19.2184 13.9187 19.5107 13.6387 19.6606C13.3586 19.81 13.0182 19.7945 12.7539 19.6186L7.79395 16.312H2.88281C2.40703 16.3118 2.02024 15.9263 2.01953 15.4507V8.55026C2.01969 8.07414 2.40669 7.68713 2.88281 7.68698H7.79688L12.7539 4.38229Z" fill="black"/>
<path d="M18.2314 5.89011C18.5682 5.55373 19.1135 5.55373 19.4502 5.89011C22.8239 9.26432 22.8242 14.7358 19.4502 18.1098C19.1137 18.4458 18.5682 18.4455 18.2314 18.1098C17.8948 17.7732 17.8951 17.226 18.2314 16.8891C20.9308 14.1887 20.9311 9.81009 18.2314 7.10983C17.8946 6.77301 17.8946 6.22693 18.2314 5.89011Z" fill="black"/>
<path d="M16.457 8.89303C16.7938 8.55624 17.3409 8.55632 17.6777 8.89303C19.393 10.6088 19.3932 13.3913 17.6777 15.1069C17.3412 15.4428 16.7957 15.4425 16.459 15.1069C16.1226 14.7705 16.1216 14.2251 16.457 13.8882C17.4991 12.846 17.4991 11.1549 16.457 10.1128C16.1206 9.77612 16.1209 9.22985 16.457 8.89303Z" fill="black"/>
</svg>
