<svg width="24" height="24" viewBox="0 0 24 24" fill="none" xmlns="http://www.w3.org/2000/svg">
<path d="M19 15C19.5523 15 20 15.4477 20 16V18C20 19.1 19.1 20 18 20H6C4.9 20 4 19.1 4 18V16C4 15.4477 4.44772 15 5 15C5.55228 15 6 15.4477 6 16V18H18V16C18 15.4477 18.4477 15 19 15Z" fill="black"/>
<path d="M16.2939 8.29395C16.6837 8.68368 16.6837 9.31632 16.2939 9.70605C15.9048 10.0948 15.2746 10.0951 14.8848 9.70703L13 7.83008V15C13 15.5523 12.5523 16 12 16C11.4477 16 11 15.5523 11 15V7.83008L9.11523 9.70703C8.72539 10.0951 8.09522 10.0948 7.70605 9.70605C7.31632 9.31632 7.31632 8.68368 7.70605 8.29395L12 4L16.2939 8.29395Z" fill="black"/>
</svg>
