<svg width="24" height="24" viewBox="0 0 24 24" fill="none" xmlns="http://www.w3.org/2000/svg">
<path fill-rule="evenodd" clip-rule="evenodd" d="M12 2C17.53 2 22 6.47 22 12C22 17.53 17.53 22 12 22C6.47 22 2 17.53 2 12C2 6.47 6.47 2 12 2ZM15.2949 8.70508C14.9056 8.31573 14.2741 8.31572 13.8848 8.70508L12 10.5898L10.1152 8.70508C9.72587 8.31573 9.09443 8.31572 8.70508 8.70508C8.31574 9.09444 8.31574 9.72588 8.70508 10.1152L10.5898 12L8.70508 13.8848C8.31574 14.2741 8.31574 14.9056 8.70508 15.2949C9.09443 15.6843 9.72587 15.6843 10.1152 15.2949L12 13.4102L13.8848 15.2949C14.2741 15.6843 14.9056 15.6843 15.2949 15.2949C15.6843 14.9056 15.6843 14.2741 15.2949 13.8848L13.4102 12L15.2949 10.1152C15.6843 9.72587 15.6843 9.09444 15.2949 8.70508Z" fill="black"/>
</svg>
