<svg width="24" height="24" viewBox="0 0 24 24" fill="none" xmlns="http://www.w3.org/2000/svg">
<path d="M18 17H6L9 13L11.25 16L14.25 12L18 17Z" fill="black"/>
<path fill-rule="evenodd" clip-rule="evenodd" d="M15.3076 2.00879C15.6112 2.04917 15.8823 2.22741 16.0391 2.49609L17.4424 4.90039C17.4692 4.94636 17.5125 4.9796 17.5625 4.99316L17.6152 5H20C21.6569 5 23 6.34315 23 8V19C23 20.6051 21.7394 21.9158 20.1543 21.9961L20 22H4L3.8457 21.9961C2.31166 21.9184 1.08163 20.6883 1.00391 19.1543L1 19V8C1 6.34315 2.34315 5 4 5H6.38477C6.4559 5 6.52178 4.96183 6.55762 4.90039L7.96094 2.49609C8.14015 2.18902 8.46868 2.00005 8.82422 2H15.1758L15.3076 2.00879ZM8.28516 5.9082C7.89089 6.58408 7.16723 7 6.38477 7H4C3.44772 7 3 7.44772 3 8V19C3 19.5523 3.44772 20 4 20H20C20.5523 20 21 19.5523 21 19V8C21 7.44772 20.5523 7 20 7H17.6152C16.8328 7 16.1091 6.58408 15.7148 5.9082L14.6016 4H9.39844L8.28516 5.9082Z" fill="black"/>
</svg>
