<svg width="24" height="24" viewBox="0 0 24 24" fill="none" xmlns="http://www.w3.org/2000/svg">
<path d="M17.7234 2.86929C18.0716 2.44082 18.702 2.37581 19.1306 2.72378C19.5592 3.07205 19.6243 3.70239 19.2761 4.13101L14.1013 10.5002H17.9997C18.5519 10.5002 18.9996 10.948 18.9997 11.5002C18.9997 12.0524 18.552 12.5001 17.9997 12.5002H12.9997V14.5002H16.9997C17.5519 14.5002 17.9996 14.948 17.9997 15.5002C17.9997 16.0524 17.552 16.5001 16.9997 16.5002H12.9997V20.5002C12.9997 21.0524 12.552 21.5001 11.9997 21.5002C11.4476 21.5 10.9997 21.0523 10.9997 20.5002V16.5002H6.99975C6.44759 16.5 5.99975 16.0523 5.99975 15.5002C5.9999 14.9481 6.44768 14.5003 6.99975 14.5002H10.9997V12.5002H5.99975C5.44759 12.5 4.99975 12.0523 4.99975 11.5002C4.9999 10.9481 5.44768 10.5003 5.99975 10.5002H9.89819L4.72338 4.13101C4.37541 3.7024 4.44041 3.07198 4.86889 2.72378C5.29741 2.37562 5.92779 2.44096 6.27612 2.86929L11.9997 9.91324L17.7234 2.86929Z" fill="black"/>
</svg>
