<svg width="24" height="24" viewBox="0 0 24 24" fill="none" xmlns="http://www.w3.org/2000/svg">
<path d="M18.6523 15.1953H16.4082V16.042H18.0918C18.2457 16.0421 18.3774 16.0937 18.4873 16.1963C18.5972 16.2915 18.6523 16.4121 18.6523 16.5586V18.4834C18.6523 18.63 18.5972 18.7548 18.4873 18.8574C18.3774 18.9527 18.2457 19.0009 18.0918 19.001H15.2646V17.9775H17.5195V17.0762H15.8369C15.6829 17.0762 15.547 17.0279 15.4297 16.9326C15.3197 16.83 15.2646 16.7053 15.2646 16.5586V14.6777C15.2647 14.5385 15.3197 14.4215 15.4297 14.3262C15.547 14.2235 15.6829 14.1719 15.8369 14.1719H18.6523V15.1953Z" fill="black"/>
<path d="M7.73828 15.5137L8.65137 14.1934H10.1367L8.47559 16.5918L10.1367 19H8.65137L7.73828 17.6807L6.81445 19H5.3291L6.99023 16.5918L5.3291 14.1934H6.81445L7.73828 15.5137Z" fill="black"/>
<path d="M12.1719 17.9775H14.2832V19H11.0273V14.1934H12.1719V17.9775Z" fill="black"/>
<path fill-rule="evenodd" clip-rule="evenodd" d="M22 7V21C22 22.1 21.1 23 20 23H3.99023C2.89023 23 2 22.1 2 21L2.00977 3C2.00977 1.9 2.9 1 4 1H16L22 7ZM5 3C4.44772 3 4 3.44772 4 4V20C4 20.5523 4.44772 21 5 21H19C19.5523 21 20 20.5523 20 20V8H16C15.4477 8 15 7.55228 15 7V3H5Z" fill="black"/>
</svg>
