<svg width="24" height="24" viewBox="0 0 24 24" fill="none" xmlns="http://www.w3.org/2000/svg">
<path d="M19 18C20.1046 18 21 18.8954 21 20C21 21.1046 20.1046 22 19 22H5C3.89543 22 3 21.1046 3 20C3 18.8954 3.89543 18 5 18H19Z" fill="black"/>
<path fill-rule="evenodd" clip-rule="evenodd" d="M12.0547 2.00098C12.0635 2.00145 12.0722 2.00319 12.0811 2.00391C12.103 2.00571 12.1248 2.00751 12.1465 2.01074C12.1651 2.0135 12.1836 2.01667 12.2021 2.02051C12.2123 2.02261 12.2224 2.02493 12.2324 2.02734C12.2504 2.03166 12.2683 2.03663 12.2861 2.04199C12.3039 2.0473 12.3214 2.05329 12.3389 2.05957C12.3516 2.06418 12.3643 2.06905 12.377 2.07422C12.3928 2.08065 12.4084 2.0875 12.4238 2.09473C12.4316 2.09835 12.4396 2.10162 12.4473 2.10547C12.4552 2.10946 12.4629 2.11399 12.4707 2.11816C12.4832 2.12481 12.4956 2.13149 12.5078 2.13867C12.5256 2.14914 12.5427 2.16047 12.5596 2.17188C12.5725 2.18061 12.5851 2.18986 12.5977 2.19922C12.6076 2.2066 12.6174 2.21398 12.627 2.22168C12.6433 2.23483 12.6592 2.24846 12.6748 2.2627C12.6808 2.26815 12.6875 2.27273 12.6934 2.27832L12.7217 2.30664C12.7269 2.31213 12.7312 2.3186 12.7363 2.32422C12.7506 2.33977 12.7642 2.35574 12.7773 2.37207C12.784 2.38037 12.7904 2.3889 12.7969 2.39746C12.8103 2.41526 12.8228 2.43356 12.835 2.45215C12.8397 2.45939 12.845 2.46624 12.8496 2.47363C12.8628 2.49502 12.8752 2.51681 12.8867 2.53906C12.8891 2.54366 12.8922 2.54808 12.8945 2.55273L18.8945 14.5527C19.1414 15.0467 18.9412 15.6476 18.4473 15.8945C17.9533 16.1414 17.3525 15.9411 17.1055 15.4473L15.8818 13H8.11816L6.89453 15.4473C6.64751 15.9411 6.04665 16.1414 5.55273 15.8945C5.0588 15.6476 4.85859 15.0467 5.10547 14.5527L11.1055 2.55273C11.1078 2.54808 11.1109 2.54366 11.1133 2.53906C11.1247 2.51696 11.1363 2.49488 11.1494 2.47363C11.154 2.46624 11.1593 2.45939 11.1641 2.45215C11.1762 2.43357 11.1887 2.41525 11.2021 2.39746C11.2086 2.38891 11.215 2.38037 11.2217 2.37207C11.2348 2.35574 11.2485 2.33976 11.2627 2.32422C11.2725 2.31349 11.2818 2.30223 11.292 2.29199C11.3022 2.28176 11.3135 2.27252 11.3242 2.2627C11.3398 2.24846 11.3557 2.23483 11.3721 2.22168C11.3816 2.21398 11.3915 2.2066 11.4014 2.19922C11.4139 2.18985 11.4265 2.18062 11.4395 2.17188C11.4563 2.16047 11.4734 2.14915 11.4912 2.13867C11.5034 2.13149 11.5159 2.12482 11.5283 2.11816C11.5364 2.11385 11.5445 2.10959 11.5527 2.10547C11.5604 2.10162 11.5684 2.09835 11.5762 2.09473C11.5914 2.08762 11.6066 2.08055 11.6221 2.07422C11.6347 2.06904 11.6474 2.06419 11.6602 2.05957C11.668 2.05674 11.6757 2.05342 11.6836 2.05078L11.7422 2.0332C11.7503 2.03103 11.7585 2.0293 11.7666 2.02734C11.7767 2.02492 11.7867 2.02262 11.7969 2.02051C11.8154 2.01666 11.834 2.01351 11.8525 2.01074C11.8742 2.00749 11.8961 2.00573 11.918 2.00391C11.9268 2.00318 11.9355 2.00146 11.9443 2.00098C11.9518 2.00055 11.9593 2.00026 11.9668 2H12.0332C12.0404 2.00024 12.0475 2.00058 12.0547 2.00098ZM9.11816 11H14.8818L12 5.23633L9.11816 11Z" fill="black"/>
</svg>
