<svg width="24" height="24" viewBox="0 0 24 24" fill="none" xmlns="http://www.w3.org/2000/svg">
<path d="M5.5 20H2.5V19H4.5V18.5H3.5V17.5H4.5V17H2.5V16H5.5V20Z" fill="black"/>
<path d="M21.5 17C22.0523 17 22.5 17.4477 22.5 18C22.5 18.5523 22.0523 19 21.5 19H9.5C8.94772 19 8.5 18.5523 8.5 18C8.5 17.4477 8.94772 17 9.5 17H21.5Z" fill="black"/>
<path d="M5.5 10.9004L3.7002 13H5.5V14H2.5V13.0996L4.2998 11H2.5V10H5.5V10.9004Z" fill="black"/>
<path d="M21.5 11C22.0523 11 22.5 11.4477 22.5 12C22.5 12.5523 22.0523 13 21.5 13H9.5C8.94772 13 8.5 12.5523 8.5 12C8.5 11.4477 8.94772 11 9.5 11H21.5Z" fill="black"/>
<path d="M4.5 8H3.5V5H2.5V4H4.5V8Z" fill="black"/>
<path d="M21.5 5C22.0523 5 22.5 5.44772 22.5 6C22.5 6.55228 22.0523 7 21.5 7H9.5C8.94772 7 8.5 6.55228 8.5 6C8.5 5.44772 8.94772 5 9.5 5H21.5Z" fill="black"/>
</svg>
