<svg width="24" height="24" viewBox="0 0 24 24" fill="none" xmlns="http://www.w3.org/2000/svg">
<path d="M8.75 7H6.25V17H8.75L5.25 20.5L1.75 17H4.25V7H1.75L5.25 3.5L8.75 7Z" fill="black"/>
<path d="M21.25 17C21.8023 17 22.25 17.4477 22.25 18C22.25 18.5523 21.8023 19 21.25 19H11.25C10.6977 19 10.25 18.5523 10.25 18C10.25 17.4477 10.6977 17 11.25 17H21.25Z" fill="black"/>
<path d="M21.25 11C21.8023 11 22.25 11.4477 22.25 12C22.25 12.5523 21.8023 13 21.25 13H11.25C10.6977 13 10.25 12.5523 10.25 12C10.25 11.4477 10.6977 11 11.25 11H21.25Z" fill="black"/>
<path d="M21.25 5C21.8023 5 22.25 5.44772 22.25 6C22.25 6.55228 21.8023 7 21.25 7H11.25C10.6977 7 10.25 6.55228 10.25 6C10.25 5.44772 10.6977 5 11.25 5H21.25Z" fill="black"/>
</svg>
