<svg width="24" height="24" viewBox="0 0 24 24" fill="none" xmlns="http://www.w3.org/2000/svg">
<path fill-rule="evenodd" clip-rule="evenodd" d="M1.99636 1.99889C2.38685 1.60841 3.01989 1.60848 3.41043 1.99889L21.7952 20.3837C22.1856 20.7742 22.1857 21.4072 21.7952 21.7977C21.4047 22.188 20.7716 22.188 20.3811 21.7977L19.5139 20.9305C19.3499 20.9746 19.1779 20.9998 19.0003 20.9999H5.00027C3.90039 20.9999 3.00047 20.0997 3.00027 18.9999V4.99987C3.00027 4.82185 3.02345 4.64873 3.06765 4.48425L1.99636 3.41296C1.60601 3.02248 1.60605 2.3894 1.99636 1.99889ZM5.00027 18.9999H17.5833L15.5833 16.9999H6.00027L9.00027 13.1395L11.1399 15.7303L12.5247 13.9413L5.00027 6.41686V18.9999Z" fill="black"/>
<path d="M19.0003 2.99987C20.1001 3.00003 21.0003 3.89997 21.0003 4.99987V16.7596L19.0003 14.7596V4.99987H9.2405L7.2405 2.99987H19.0003Z" fill="black"/>
</svg>
