<svg width="24" height="24" viewBox="0 0 24 24" fill="none" xmlns="http://www.w3.org/2000/svg">
<path d="M18.7705 4.04004C19.4148 4.04004 19.9375 4.5627 19.9375 5.20703V15.7188H22.2285C22.6741 15.719 22.8966 16.2575 22.5811 16.5723L19.4766 19.6689C19.0862 20.0581 18.4547 20.0582 18.0645 19.6689L14.96 16.5723C14.6447 16.2574 14.8678 15.7188 15.3135 15.7188H17.6045V5.20703C17.6045 4.56279 18.1263 4.04019 18.7705 4.04004Z" fill="black"/>
<path d="M9.4375 15.707C10.0817 15.7071 10.6043 16.2289 10.6045 16.873C10.6045 17.5174 10.0818 18.04 9.4375 18.04H2.4375C1.79317 18.04 1.27051 17.5174 1.27051 16.873C1.27068 16.2289 1.79328 15.707 2.4375 15.707H9.4375Z" fill="black"/>
<path d="M12.9375 9.87305C13.5818 9.87307 14.1045 10.3957 14.1045 11.04C14.1045 11.6844 13.5818 12.207 12.9375 12.207H2.4375C1.79317 12.207 1.27051 11.6844 1.27051 11.04C1.27051 10.3957 1.79317 9.87305 2.4375 9.87305H12.9375Z" fill="black"/>
<path d="M12.9375 4.04004C13.5818 4.04006 14.1045 4.56271 14.1045 5.20703C14.1043 5.8512 13.5817 6.37302 12.9375 6.37305H2.4375C1.79328 6.37305 1.27068 5.85121 1.27051 5.20703C1.27051 4.5627 1.79317 4.04004 2.4375 4.04004H12.9375Z" fill="black"/>
</svg>
