<svg width="24" height="24" viewBox="0 0 24 24" fill="none" xmlns="http://www.w3.org/2000/svg">
<path d="M3 2C3.38589 2 3.71998 2.21896 3.88672 2.53906C3.96336 2.58233 4.03629 2.6359 4.10156 2.70117L9.40039 8L12.6924 4.70703C13.0829 4.31651 13.7169 4.31651 14.1074 4.70703L20 10.5996V9C20 8.44773 20.4477 8 21 8C21.5522 8.00003 22 8.44775 22 9V13.5C22 13.7761 21.7761 14 21.5 14H17C16.4477 14 16 13.5523 16 13C16 12.4477 16.4477 12 17 12H18.5996L13.4004 6.84961L10.1094 10.1406C9.71791 10.532 9.08249 10.5304 8.69238 10.1377L4 5.41309V20H6.5V14.8887C6.50013 14.3979 6.9478 14 7.5 14C8.0522 14 8.49987 14.3979 8.5 14.8887V20H11V13.1113C11 12.4977 11.4477 12 12 12C12.5523 12 13 12.4977 13 13.1113V20H15.5V17C15.5 16.4477 15.9477 16 16.5 16C17.0523 16 17.5 16.4477 17.5 17V20H20V18.1113C20 17.4977 20.4477 17 21 17C21.5523 17 22 17.4977 22 18.1113V20.8887C22 20.908 21.9979 20.9272 21.9971 20.9463C21.998 20.9641 22 20.982 22 21C22 21.5523 21.5523 22 21 22H2V3C2 2.44772 2.44772 2 3 2Z" fill="black"/>
</svg>
