<svg width="24" height="24" viewBox="0 0 24 24" fill="none" xmlns="http://www.w3.org/2000/svg">
<path fill-rule="evenodd" clip-rule="evenodd" d="M17.0021 7.00205C17.3929 7.39289 17.3925 8.02667 17.0012 8.41707L13.4102 12L17.0012 15.5829C17.3925 15.9733 17.3929 16.6071 17.0021 16.998L12.2071 21.7929C12.0745 21.9255 11.8946 22 11.7071 22C11.3166 22 11 21.6834 11 21.2929V14.4102L7.11524 18.2949C6.72583 18.6843 6.09449 18.6843 5.70508 18.2949C5.31568 17.9055 5.31568 17.2742 5.70508 16.8848L10.5898 12L5.70508 7.11524C5.31568 6.72583 5.31568 6.09448 5.70508 5.70508C6.09449 5.31567 6.72583 5.31567 7.11524 5.70508L11 9.58984V2.70711C11 2.31658 11.3166 2 11.7071 2C11.8946 2 12.0745 2.0745 12.2071 2.20711L17.0021 7.00205ZM13 18.1699L14.8799 16.29L13 14.4102V18.1699ZM13 9.58984L14.8799 7.70996L13 5.83008V9.58984Z" fill="black"/>
<path d="M6.78787 11.7879C6.90503 11.905 6.90503 12.095 6.78787 12.2121L5.21214 13.7879C5.09498 13.905 4.90503 13.905 4.78787 13.7879L3.21214 12.2121C3.09498 12.095 3.09498 11.905 3.21214 11.7879L4.78787 10.2121C4.90503 10.095 5.09498 10.095 5.21214 10.2121L6.78787 11.7879Z" fill="black"/>
<path d="M20.7879 11.7879C20.905 11.905 20.905 12.095 20.7879 12.2121L19.2121 13.7879C19.095 13.905 18.905 13.905 18.7879 13.7879L17.2121 12.2121C17.095 12.095 17.095 11.905 17.2121 11.7879L18.7879 10.2121C18.905 10.095 19.095 10.095 19.2121 10.2121L20.7879 11.7879Z" fill="black"/>
</svg>
