<svg width="24" height="24" viewBox="0 0 24 24" fill="none" xmlns="http://www.w3.org/2000/svg">
<path fill-rule="evenodd" clip-rule="evenodd" d="M9.50879 2.42376C9.82685 1.97253 10.4509 1.86467 10.9023 2.18254C13.728 4.17253 15.6562 7.3552 15.957 10.9999H18V7.7929C18.0003 7.33611 18.5628 7.11888 18.8701 7.45696L22.6943 11.664C22.8673 11.8546 22.8674 12.1453 22.6943 12.3359L18.8701 16.5429C18.5818 16.86 18.0696 16.6884 18.0068 16.289L18 16.207V12.9999H15.957C15.6562 16.6446 13.728 19.8273 10.9023 21.8173C10.4509 22.1352 9.82684 22.0273 9.50879 21.5761C9.19091 21.1247 9.29881 20.5006 9.75 20.1825C12.3224 18.3711 14 15.3812 14 11.9999C14 8.61865 12.3224 5.62878 9.75 3.81731C9.2988 3.49925 9.19094 2.87517 9.50879 2.42376Z" fill="black"/>
<path fill-rule="evenodd" clip-rule="evenodd" d="M3.5 15.4999C4.52505 15.4999 5.40518 16.1171 5.79102 16.9999H10.3535C9.8213 17.6874 9.15287 18.343 8.34473 18.9999H5.79004C5.40408 19.8825 4.52485 20.4999 3.5 20.4999C2.11932 20.4999 1.00005 19.3806 1 17.9999C1 16.6192 2.11929 15.4999 3.5 15.4999Z" fill="black"/>
<path fill-rule="evenodd" clip-rule="evenodd" d="M3.5 9.49993C4.52505 9.49993 5.40518 10.1171 5.79102 10.9999H11.9512C11.9835 11.3201 12 11.6532 12 11.9999C12 12.3468 11.9836 12.6797 11.9512 12.9999H5.79004C5.40408 13.8825 4.52485 14.4999 3.5 14.4999C2.11932 14.4999 1.00005 13.3806 1 11.9999C1 10.6192 2.11929 9.49993 3.5 9.49993Z" fill="black"/>
<path fill-rule="evenodd" clip-rule="evenodd" d="M3.5 3.49993C4.52505 3.49993 5.40518 4.11712 5.79102 4.99993H8.34473C9.15286 5.65688 9.82131 6.31247 10.3535 6.99993H5.79004C5.40408 7.88246 4.52485 8.49993 3.5 8.49993C2.11932 8.49993 1.00005 7.38059 1 5.99993C1 4.61922 2.11929 3.49993 3.5 3.49993Z" fill="black"/>
</svg>
