<svg width="24" height="24" viewBox="0 0 24 24" fill="none" xmlns="http://www.w3.org/2000/svg">
<path d="M9.83301 3.52441C10.1103 2.30434 11.8897 2.30439 12.167 3.52441L12.1895 3.65039L12.5039 6H16.5996C16.8205 6 17 6.17948 17 6.40039V8.59961C17 8.82052 16.8205 9 16.5996 9H15.4004C15.1795 9 15 8.82052 15 8.59961V8H12.7705L13.1719 11H18.5996C18.8205 11 19 11.1795 19 11.4004V13.5996C19 13.8205 18.8205 14 18.5996 14H17.4004C17.1795 14 17 13.8205 17 13.5996V13H13.4395L14.4912 20.8672C14.5644 21.4145 14.18 21.9178 13.6328 21.9912C13.0854 22.0644 12.582 21.6793 12.5088 21.1318L11.4219 13H10.5781L9.49121 21.1318C9.41803 21.6792 8.91458 22.0644 8.36719 21.9912C7.81991 21.9179 7.43562 21.4145 7.50879 20.8672L8.56055 13H5V13.5996C5 13.8205 4.82052 14 4.59961 14H3.40039C3.17948 14 3 13.8205 3 13.5996V11H8.82812L9.22949 8H7V8.59961C7 8.82052 6.82052 9 6.59961 9H5.40039C5.17948 9 5 8.82052 5 8.59961V6.40039C5 6.17948 5.17948 6 5.40039 6H9.49609L9.81055 3.65039L9.83301 3.52441Z" fill="black"/>
<path d="M20.7002 2C20.8657 2.00015 20.9999 2.1343 21 2.2998V6.27539C21 6.54266 20.6763 6.67727 20.4873 6.48828L16.5117 2.51172C16.3233 2.32268 16.4575 2 16.7246 2H20.7002Z" fill="black"/>
</svg>
