<svg width="24" height="24" viewBox="0 0 24 24" fill="none" xmlns="http://www.w3.org/2000/svg">
<path d="M12 10.6748C10.9 10.6748 10 11.5748 10 12.6748C10 13.7748 10.9 14.6748 12 14.6748C13.1 14.6748 14 13.7748 14 12.6748C14 11.5748 13.1 10.6748 12 10.6748ZM18 12.6748C18 9.3648 15.31 6.6748 12 6.6748C8.69 6.6748 6 9.3648 6 12.6748C6 14.5344 6.84906 16.1906 8.17687 17.2906C8.60359 17.6441 9.22759 17.4688 9.50371 16.9884C9.77694 16.5129 9.60772 15.9084 9.21411 15.5266C8.46757 14.8025 8 13.7993 8 12.6748C8 10.4648 9.79 8.6748 12 8.6748C14.21 8.6748 16 10.4648 16 12.6748C16 13.7993 15.5324 14.8025 14.7859 15.5266C14.3923 15.9084 14.2231 16.5129 14.4963 16.9884C14.7724 17.4688 15.3964 17.6441 15.8231 17.2906C17.1509 16.1906 18 14.5344 18 12.6748ZM12 2.6748C6.48 2.6748 2 7.1548 2 12.6748C2 16.0154 3.63848 18.9647 6.15001 20.7794C6.59826 21.1033 7.21484 20.9358 7.49159 20.4571C7.7671 19.9804 7.60107 19.375 7.16326 19.0412C5.24477 17.5787 4 15.2775 4 12.6748C4 8.2548 7.58 4.6748 12 4.6748C16.42 4.6748 20 8.2548 20 12.6748C20 15.2778 18.7549 17.5792 16.8293 19.0418C16.3903 19.3752 16.2234 19.9812 16.4992 20.4585C16.7757 20.9368 17.3913 21.1043 17.8397 20.7816C20.3602 18.967 22 16.0167 22 12.6748C22 7.1548 17.52 2.6748 12 2.6748Z" fill="black"/>
</svg>
