<svg width="24" height="24" viewBox="0 0 24 24" fill="none" xmlns="http://www.w3.org/2000/svg">
<path d="M19.0293 17.0137C20.1296 17.0137 21.0214 17.9056 21.0215 19.0059C21.0215 19.4075 20.9027 19.7819 20.6982 20.0947C20.3648 20.6377 19.7648 20.9998 19.0801 21C19.0514 21 19.0225 20.9993 18.9941 20.998C17.9102 20.9791 17.0371 20.0944 17.0371 19.0059C17.0372 17.9056 17.929 17.0137 19.0293 17.0137Z" fill="black"/>
<path d="M11.5303 6.80566C8.87601 7.04296 6.77246 9.27098 6.77246 11.9824C6.77252 14.852 9.10315 17.1923 11.9775 17.1924H16.2314V20.9541H11.9775C7.00757 20.9541 2.97858 16.944 2.97852 11.9824C2.97852 7.17816 6.77881 3.24406 11.5303 3V6.80566Z" fill="black"/>
<path d="M20.9766 16.2529H17.1709V12.4473H20.9766V16.2529Z" fill="black"/>
<path d="M12.4258 3C13.4467 3.05337 14.4743 3.29119 15.4209 3.68262C16.5127 4.1341 17.5052 4.79565 18.3408 5.62988C19.1763 6.46397 19.8388 7.45421 20.291 8.54395C20.6832 9.48916 20.9231 10.4874 20.9766 11.5068H17.1709C17.1235 10.9855 16.9875 10.4795 16.7861 9.99414C16.5246 9.36374 16.1405 8.79108 15.6572 8.30859C15.1739 7.82614 14.6002 7.44275 13.9688 7.18164C13.4828 6.98075 12.9478 6.85297 12.4258 6.80566V3Z" fill="black"/>
</svg>
