<svg width="24" height="24" viewBox="0 0 24 24" fill="none" xmlns="http://www.w3.org/2000/svg">
<path d="M6.95508 18.2061C7.54897 18.6877 8.22589 19.0944 8.97852 19.4014C9.73104 19.7083 10.4985 19.8908 11.2598 19.9619L10.9805 22.9492C9.92914 22.851 8.87397 22.5981 7.8457 22.1787C6.81722 21.7592 5.88569 21.2014 5.06543 20.5361L6.95508 18.2061Z" fill="black"/>
<path d="M19.0254 20.4609C17.3526 21.8464 15.2978 22.71 13.1377 22.9365L12.8242 19.9531C14.3963 19.7883 15.895 19.1587 17.1123 18.1504L19.0254 20.4609Z" fill="black"/>
<path d="M4.04004 12.8184C4.20486 14.3905 4.83541 15.8881 5.84375 17.1055L3.5332 19.0195C2.14746 17.3465 1.28309 15.2914 1.05664 13.1309L4.04004 12.8184Z" fill="black"/>
<path d="M22.9561 13.0127C22.8578 14.0643 22.6051 15.1199 22.1855 16.1484C21.7661 17.1768 21.2082 18.1075 20.543 18.9277L18.2129 17.0381C18.6946 16.4442 19.1002 15.7673 19.4072 15.0146C19.7142 14.2621 19.8976 13.4947 19.9688 12.7334L22.9561 13.0127Z" fill="black"/>
<path fill-rule="evenodd" clip-rule="evenodd" d="M19.4727 1.95703C19.6527 1.95729 19.8334 2.02923 19.9775 2.16602L21.668 3.85645C21.9491 4.13806 21.9486 4.59308 21.6602 4.88184L19.4072 7.13574L20.7939 8.52246L19.7754 9.54004L18.75 8.51465L12.3086 14.957H8.87793V11.5264L15.3193 5.08398L14.2939 4.05859L15.3125 3.04004L16.7061 4.41992L18.959 2.16602C19.1034 2.02895 19.285 1.95703 19.4727 1.95703ZM10.3223 12.126L11.709 13.5127L17.5293 7.69141L16.1426 6.30469L10.3223 12.126Z" fill="black"/>
<path d="M5.78711 6.94922C5.30551 7.543 4.89977 8.2192 4.59277 8.97168C4.28577 9.72429 4.1024 10.4916 4.03125 11.2529L1.04395 10.9746C1.14217 9.92297 1.3949 8.86743 1.81445 7.83887C2.23396 6.8105 2.79182 5.87976 3.45703 5.05957L5.78711 6.94922Z" fill="black"/>
<path d="M11.1758 4.03418C9.60382 4.19893 8.10601 4.82881 6.88867 5.83691L4.97461 3.52637C6.64744 2.14093 8.70209 1.27728 10.8623 1.05078L11.1758 4.03418Z" fill="black"/>
</svg>
