<svg width="24" height="24" viewBox="0 0 24 24" fill="none" xmlns="http://www.w3.org/2000/svg">
<path d="M17 15C17.5523 15 18 15.4477 18 16C18 16.5523 17.5523 17 17 17H11C10.4477 17 10 16.5523 10 16C10 15.4477 10.4477 15 11 15H17Z" fill="black"/>
<path d="M17 11C17.5523 11 18 11.4477 18 12C18 12.5523 17.5523 13 17 13H11C10.4477 13 10 12.5523 10 12C10 11.4477 10.4477 11 11 11H17Z" fill="black"/>
<path fill-rule="evenodd" clip-rule="evenodd" d="M20.2041 2.01074C21.2128 2.113 22 2.96435 22 4V20L21.9893 20.2041C21.8938 21.1457 21.1457 21.8938 20.2041 21.9893L20 22H4L3.7959 21.9893C2.85435 21.8938 2.1062 21.1457 2.01074 20.2041L2 20V4C2 2.96435 2.78722 2.113 3.7959 2.01074L4 2H20L20.2041 2.01074ZM4 20H6V8H4V20ZM8 20H20V8H8V20ZM4 6H20V4H4V6Z" fill="black"/>
</svg>
