<svg width="24" height="24" viewBox="0 0 24 24" fill="none" xmlns="http://www.w3.org/2000/svg">
<path fill-rule="evenodd" clip-rule="evenodd" d="M11.4881 1.077C12.4952 0.733171 14.3425 1.58413 15.1483 2.6815C16.1514 4.04557 16.5079 5.64552 16.8797 7.36509V7.37681C18.6616 7.60868 20.2041 8.07991 21.6063 9.06529C23.473 10.3831 23.465 13.7336 21.579 15.0438C20.1768 16.0176 18.6235 16.4704 16.869 16.7293C16.7025 17.4209 16.5663 18.159 16.3495 18.87C15.9544 20.1528 15.4471 21.4015 14.3163 22.2323C12.7707 23.3762 10.8874 23.2331 9.47739 21.8612C8.29245 20.7095 7.75746 19.2255 7.50571 17.6297C7.46702 17.3824 7.46738 17.1266 7.44028 16.7596C5.9878 16.5935 4.57021 16.2805 3.31137 15.4959C2.43226 14.9511 1.69556 14.3178 1.2811 13.3016C0.700253 11.8796 1.05674 10.7079 2.0018 9.63365C3.15604 8.32372 4.72877 7.80966 6.37485 7.46958C6.68085 7.40776 6.99916 7.41158 7.37876 7.37681C7.52984 5.94322 7.89719 4.63279 8.56333 3.38853C9.21796 2.16745 10.2526 1.49821 11.4881 1.077ZM14.6493 14.078C13.3053 16.014 11.0972 16.2724 8.99399 16.829C9.32261 18.1843 9.42824 19.5088 10.4266 20.5321C11.5616 21.6875 13.1543 21.6219 13.9793 20.2538C14.874 18.7699 15.2998 17.1272 15.2108 15.3768C15.1837 14.8668 15.2454 14.3369 14.6493 14.078ZM20.0565 10.0165C18.1819 8.95772 16.2334 8.82583 14.0799 9.25083V9.25474C15.9545 10.8198 16.3268 13.0311 16.9852 15.284C18.0852 14.8435 19.0766 14.4563 20.0565 14.0467C21.625 13.3935 22.0743 11.1565 20.0565 10.0165ZM7.36313 8.98814C5.96099 9.10406 4.74821 9.52952 3.74887 10.2831C2.24995 11.4153 2.14197 12.4821 3.44711 13.5448C5.28694 15.044 7.45971 15.4688 10.0858 14.8622C8.32364 13.158 7.56065 11.2101 7.36313 8.98814ZM12.1424 10.4842C11.2944 10.4613 10.5624 11.1607 10.5428 12.0145C10.5236 12.8762 11.2133 13.5908 12.077 13.6063C12.9214 13.6217 13.6573 12.9224 13.6805 12.076C13.7035 11.2414 12.9906 10.5074 12.1424 10.4842ZM13.8778 3.70493C13.1069 2.59265 11.6471 2.39583 10.7176 3.30747C10.2296 3.78662 9.74517 4.37789 9.53208 5.01158C8.97823 6.63837 8.85429 8.32734 9.17563 10.2323C10.7753 8.22309 12.9445 7.70478 15.1561 7.32993H15.1522C15.009 6.61154 14.955 5.97767 14.7498 5.39439C14.5407 4.80321 14.2341 4.2227 13.8778 3.70493Z" fill="black"/>
</svg>
