<svg width="24" height="24" viewBox="0 0 24 24" fill="none" xmlns="http://www.w3.org/2000/svg">
<path fill-rule="evenodd" clip-rule="evenodd" d="M18.0342 10.5078C18.1431 10.5239 18.2474 10.5644 18.3398 10.626L19.666 11.5098C19.8747 11.6489 20 11.883 20 12.1338V15.3662C20 15.617 19.8747 15.8511 19.666 15.9902L18.3398 16.874C18.2377 16.942 18.1204 16.9818 17.999 16.9941L18 17V18H19C19.5523 18 20 18.4477 20 19C20 19.5523 19.5523 20 19 20H5C4.44772 20 4 19.5523 4 19C4 18.4477 4.44772 18 5 18H6V16.9941C5.87896 16.9817 5.762 16.9418 5.66016 16.874L4.33398 15.9902C4.15133 15.8685 4.03262 15.6738 4.00586 15.459L4 15.3662V12.1338C4 11.883 4.12534 11.6489 4.33398 11.5098L5.66016 10.626L5.75586 10.5713C5.85544 10.5244 5.96518 10.5 6.07617 10.5H17.9238L18.0342 10.5078ZM8 18H16V17H8V18Z" fill="black"/>
<path d="M2 10C2.55228 10 3 10.4477 3 11V15C3 15.5523 2.55228 16 2 16C1.44772 16 1 15.5523 1 15V11C1 10.4477 1.44772 10 2 10Z" fill="black"/>
<path d="M22 10C22.5523 10 23 10.4477 23 11V15C23 15.5523 22.5523 16 22 16C21.4477 16 21 15.5523 21 15V11C21 10.4477 21.4477 10 22 10Z" fill="black"/>
<path d="M18.0342 4.50781C18.1431 4.52394 18.2474 4.56444 18.3398 4.62598L19.666 5.50977C19.8747 5.64886 20 5.88303 20 6.13379V7.86621C20 8.11697 19.8747 8.35114 19.666 8.49023L18.3398 9.37402C18.2167 9.45602 18.0718 9.5 17.9238 9.5H6.07617C5.92824 9.5 5.78329 9.45602 5.66016 9.37402L4.33398 8.49023C4.12534 8.35114 4 8.11697 4 7.86621V6.13379L4.00586 6.04102C4.03262 5.82617 4.15133 5.63154 4.33398 5.50977L5.66016 4.62598L5.75586 4.57129C5.85544 4.52436 5.96518 4.5 6.07617 4.5H17.9238L18.0342 4.50781Z" fill="black"/>
<path d="M2 5C2.55228 5 3 5.44772 3 6V8C3 8.55228 2.55228 9 2 9C1.44772 9 1 8.55228 1 8V6C1 5.44772 1.44772 5 2 5Z" fill="black"/>
<path d="M22 5C22.5523 5 23 5.44772 23 6V8C23 8.55228 22.5523 9 22 9C21.4477 9 21 8.55228 21 8V6C21 5.44772 21.4477 5 22 5Z" fill="black"/>
</svg>
