<svg width="24" height="24" viewBox="0 0 24 24" fill="none" xmlns="http://www.w3.org/2000/svg">
<path fill-rule="evenodd" clip-rule="evenodd" d="M16.6074 4.01367C16.7285 4.0316 16.8463 4.06699 16.957 4.11914L17.1182 4.20996L18.4434 5.09375C18.7911 5.32558 19 5.71585 19 6.13379V8.86621C19 9.28415 18.7911 9.67442 18.4434 9.90625L18.3027 10L16.7266 10.874C16.5781 10.9564 16.4109 11 16.2412 11H6.80273L6 11.5352V14.4639L6.80273 15H10V17H7.99512V18H10V20H7.09766C7.06395 20.0034 7.02973 20.0049 6.99512 20.0049C6.96055 20.0049 6.92624 20.0034 6.89258 20H5C4.44772 20 4 19.5523 4 19C4 18.4477 4.44772 18 5 18H5.99512V17.0049C5.99512 16.9558 5.99902 16.9076 6.00586 16.8604C5.96362 16.8387 5.92155 16.8165 5.88184 16.79L4.55664 15.9062C4.20889 15.6744 4 15.2841 4 14.8662V11.1338L4.00977 10.9785C4.05453 10.6207 4.25239 10.2966 4.55664 10.0938L4.69727 10L4.55664 9.90625C4.20889 9.67442 4 9.28415 4 8.86621V6.13379C4 5.71585 4.20889 5.32558 4.55664 5.09375L5.88184 4.20996C6.08717 4.07307 6.32939 4 6.57617 4H16.4238L16.6074 4.01367ZM6 6.53516V8.46484L6.80273 9H16.1973L17 8.46484V6.53516L16.1973 6H6.80273L6 6.53516Z" fill="black"/>
<path d="M2 10C2.55228 10 3 10.4477 3 11V15C3 15.5523 2.55228 16 2 16C1.44772 16 1 15.5523 1 15V11C1 10.4477 1.44772 10 2 10Z" fill="black"/>
<path d="M2 5C2.55228 5 3 5.44772 3 6V8C3 8.55228 2.55228 9 2 9C1.44772 9 1 8.55228 1 8V6C1 5.44772 1.44772 5 2 5Z" fill="black"/>
<path d="M21 5C21.5523 5 22 5.44772 22 6V8C22 8.55228 21.5523 9 21 9C20.4477 9 20 8.55228 20 8V6C20 5.44772 20.4477 5 21 5Z" fill="black"/>
<path fill-rule="evenodd" clip-rule="evenodd" d="M17.127 12.4357C17.9345 11.9643 18.9999 12.5382 19 13.5206V20.4796C19 21.5277 17.7872 22.1109 16.9688 21.4562L15.1484 20.0001H12.5C11.6716 20.0001 11 19.3286 11 18.5001V15.5001C11.0001 14.6718 11.6716 14.0001 12.5 14.0001H15.1484L16.9688 12.5441L17.127 12.4357Z" fill="#E23E1D"/>
<path d="M22.2675 15.0557C22.658 14.6652 23.291 14.6652 23.6816 15.0557C24.0719 15.4463 24.072 16.0793 23.6816 16.4698L23.1513 17L23.6816 17.5303C24.072 17.9209 24.0721 18.5539 23.6816 18.9444C23.291 19.3348 22.658 19.3348 22.2675 18.9444L21.7372 18.4141L21.207 18.9444C20.8165 19.3349 20.1834 19.3347 19.7929 18.9444C19.4024 18.5539 19.4024 17.9208 19.7929 17.5303L20.3232 17L19.7929 16.4698C19.4024 16.0793 19.4025 15.4462 19.7929 15.0557C20.1834 14.6652 20.8164 14.6652 21.207 15.0557L21.7372 15.586L22.2675 15.0557Z" fill="#E23E1D"/>
</svg>
