<svg width="24" height="24" viewBox="0 0 24 24" fill="none" xmlns="http://www.w3.org/2000/svg">
<path fill-rule="evenodd" clip-rule="evenodd" d="M14 1C15.1046 1 16 1.89543 16 3H17C18.1046 3 19 3.89543 19 5V19C19 20.1046 18.1046 21 17 21H16C16 22.1046 15.1046 23 14 23H10C8.89543 23 8 22.1046 8 21H7C5.89543 21 5 20.1046 5 19V5C5 3.89543 5.89543 3 7 3H8C8 1.89543 8.89543 1 10 1H14ZM10 14C9.44772 14 9 14.4477 9 15V16C9 16.5523 9.44772 17 10 17H14C14.5523 17 15 16.5523 15 16V15C15 14.4477 14.5523 14 14 14H10ZM12 7C11.4477 7 11 7.44772 11 8V12C11 12.5523 11.4477 13 12 13C12.5523 13 13 12.5523 13 12V8C13 7.44772 12.5523 7 12 7Z" fill="black"/>
</svg>
