<svg width="24" height="24" viewBox="0 0 24 24" fill="none" xmlns="http://www.w3.org/2000/svg">
<path fill-rule="evenodd" clip-rule="evenodd" d="M16 4.5C17.6569 4.5 19 5.84315 19 7.5V16.5H20V15.5C20 14.9477 20.4477 14.5 21 14.5C21.5523 14.5 22 14.9477 22 15.5V18.5H12.9639C12.7212 20.1961 11.2632 21.5 9.5 21.5C7.7368 21.5 6.27879 20.1961 6.03613 18.5H4C2.89543 18.5 2 17.6046 2 16.5V14.5C2 14.3969 2.01498 14.3318 2.04395 14.2949C2.12225 14.1211 2.29695 14 2.5 14H10C10.5523 14 11 13.5523 11 13V5C11 4.79232 11.1264 4.61363 11.3066 4.53809C11.3448 4.51392 11.4062 4.5 11.5 4.5H16ZM9.5 16.5C8.67157 16.5 8 17.1716 8 18C8 18.8284 8.67157 19.5 9.5 19.5C10.3284 19.5 11 18.8284 11 18C11 17.1716 10.3284 16.5 9.5 16.5Z" fill="black"/>
<path d="M7 10.5C7.55228 10.5 8 10.9477 8 11.5C8 12.0523 7.55228 12.5 7 12.5C6.44772 12.5 6 12.0523 6 11.5C6 10.9477 6.44772 10.5 7 10.5Z" fill="black"/>
<path d="M7 2.5C7.55228 2.5 8 2.94772 8 3.5V8.5C8 9.05228 7.55228 9.5 7 9.5C6.44772 9.5 6 9.05228 6 8.5V3.5C6 2.94772 6.44772 2.5 7 2.5Z" fill="black"/>
</svg>
