<svg width="24" height="24" viewBox="0 0 24 24" fill="none" xmlns="http://www.w3.org/2000/svg">
<path fill-rule="evenodd" clip-rule="evenodd" d="M21 12C21 14.3 20.1204 16.6104 18.3604 18.3604C16.6104 20.1204 14.3 21 12 21C9.88003 21 7.92987 20.2602 6.37988 19.0303L4.41016 21L3 19.5898L4.96973 17.6104C3.73973 16.0704 3 14.12 3 12C3 6.86 7.2 3 12 3H21V12ZM13.8799 7.12012C13.7299 6.97012 13.4803 6.96035 13.3203 7.11035L8.16016 11.7402C7.83021 12.0402 8.02001 12.5898 8.45996 12.6299L12.5098 13.0303L10.0703 16.3604C9.95037 16.5203 9.97037 16.7399 10.1104 16.8799C10.2604 17.0298 10.51 17.0396 10.6699 16.8896L15.8301 12.2598C16.1598 11.9598 15.98 11.4103 15.5303 11.3701L11.4805 10.9697L13.9199 7.63965C14.0398 7.47966 14.0198 7.26006 13.8799 7.12012Z" fill="black"/>
</svg>
