<svg width="24" height="24" viewBox="0 0 24 24" fill="none" xmlns="http://www.w3.org/2000/svg">
<path fill-rule="evenodd" clip-rule="evenodd" d="M12.6855 2C15.2457 2 16.526 1.99999 17.5039 2.48438C18.3641 2.91048 19.0637 3.59048 19.502 4.42676C20.0001 5.37746 20 6.62231 20 9.11133V14.8887C20 17.3777 20.0001 18.6225 19.502 19.5732C19.0637 20.4095 18.3641 21.0895 17.5039 21.5156C16.526 22 15.2457 22 12.6855 22H11.3145C8.75426 22 7.47397 22 6.49609 21.5156C5.63592 21.0895 4.93633 20.4095 4.49805 19.5732C3.99986 18.6225 4 17.3777 4 14.8887V9.11133C4 6.62231 3.99986 5.37746 4.49805 4.42676C4.93633 3.59048 5.63592 2.91048 6.49609 2.48438C7.47397 1.99999 8.75426 2 11.3145 2H12.6855ZM9 16C8.44771 16 8 16.4477 8 17C8 17.5523 8.44772 18 9 18H10C10.5523 18 11 17.5523 11 17C11 16.4477 10.5523 16 10 16H9ZM14 16C13.4477 16 13 16.4477 13 17C13 17.5523 13.4477 18 14 18H15C15.5523 18 16 17.5523 16 17C16 16.4477 15.5523 16 15 16H14Z" fill="black"/>
</svg>
