<svg width="24" height="24" viewBox="0 0 24 24" fill="none" xmlns="http://www.w3.org/2000/svg">
<path fill-rule="evenodd" clip-rule="evenodd" d="M19 2C20.1 2 21 2.9 21 4C21 4 21 18.9 21 20C21 21.1 20.1 22 19 22H17V22.5C17 22.7761 16.7761 23 16.5 23H15.5C15.2239 23 15 22.7761 15 22.5V22H9V22.5C9 22.7761 8.77614 23 8.5 23H7.5C7.22386 23 7 22.7761 7 22.5V22H5C3.9 22 3 21.1 3 20V4C3 2.9 3.9 2 5 2H19ZM12 5.5C12 5.5 7.00015 8.82525 7 12.8945C7 15.0153 8.52477 16.8024 10.6104 17.3623C9.96474 16.9977 9.50724 16.3579 9.63281 15.6025C9.83885 14.3642 10.6678 14.4738 11.3135 13.4551C11.956 12.4411 11.8622 11.2881 11.8613 11.2773C11.8613 11.2773 13.7835 13.3318 13.9482 15.2891C14.0299 16.2609 13.5021 17.1305 12.6934 17.5C15.1273 17.1862 17 15.2451 17 12.8945C16.9999 11.1738 15.9937 8.62741 14.5 7.8252C14.5 7.8252 14.4869 8.84203 14.2246 9.14453C13.9622 9.44665 13.6125 9.58093 13.2627 9.58105C12.6253 9.58092 12 9.12709 12 8.41797V5.5Z" fill="black"/>
</svg>
