<svg width="24" height="24" viewBox="0 0 24 24" fill="none" xmlns="http://www.w3.org/2000/svg">
<path fill-rule="evenodd" clip-rule="evenodd" d="M14 2C14.5523 2 15 2.44772 15 3V4H16C18.21 4 20 5.79 20 8V18C20 20.21 18.21 22 16 22H8C5.79 22 4 20.21 4 18V8C4 5.79 5.79 4 8 4H9V3C9 2.44772 9.44772 2 10 2C10.5523 2 11 2.44772 11 3V4H13V3C13 2.44772 13.4477 2 14 2ZM12 11.75C9.93 14.15 9.5 14.45 9.5 15.54C9.50002 16.9 10.62 18 12 18C13.38 18 14.5 16.9 14.5 15.54C14.5 14.45 14.05 14.13 12 11.75ZM9 8C8.44772 8 8 8.44772 8 9C8 9.55228 8.44772 10 9 10H15C15.5523 10 16 9.55228 16 9C16 8.44772 15.5523 8 15 8H9Z" fill="black"/>
</svg>
