<svg width="24" height="24" viewBox="0 0 24 24" fill="none" xmlns="http://www.w3.org/2000/svg">
<path d="M4 3C4.55228 3 5 3.44772 5 4V16C5 16.5523 5.44772 17 6 17C6.55228 17 7 16.5523 7 16V9C7 7.34315 8.34315 6 10 6C11.6569 6 13 7.34315 13 9V16C13 16.5523 13.4477 17 14 17C14.5523 17 15 16.5523 15 16V9C15 7.34315 16.3431 6 18 6C19.6569 6 21 7.34315 21 9V20C21 20.5523 20.5523 21 20 21C19.4477 21 19 20.5523 19 20V9C19 8.44772 18.5523 8 18 8C17.4477 8 17 8.44772 17 9V16C17 17.6569 15.6569 19 14 19C12.3431 19 11 17.6569 11 16V9C11 8.44772 10.5523 8 10 8C9.44772 8 9 8.44772 9 9V16C9 17.6569 7.65685 19 6 19C4.34315 19 3 17.6569 3 16V4C3 3.44772 3.44772 3 4 3Z" fill="black"/>
</svg>
