<svg width="24" height="24" viewBox="0 0 24 24" fill="none" xmlns="http://www.w3.org/2000/svg">
<path fill-rule="evenodd" clip-rule="evenodd" d="M12 2C17.5228 2 22 6.47715 22 12C22 17.5228 17.5228 22 12 22C6.47715 22 2 17.5228 2 12C2 6.47715 6.47715 2 12 2ZM7.0957 18.3174C8.20222 19.1776 9.53926 19.7533 11 19.9355V14.4141L7.0957 18.3174ZM13 19.9355C14.4605 19.7534 15.7969 19.1774 16.9033 18.3174L13 14.4141V19.9355ZM4.06445 13C4.24658 14.4601 4.82109 15.7971 5.68066 16.9033L9.58496 13H4.06445ZM18.3174 16.9033C19.1774 15.7969 19.7534 14.4605 19.9355 13H14.4141L18.3174 16.9033ZM5.68066 7.0957C4.82082 8.20203 4.24661 9.53967 4.06445 11H9.58496L5.68066 7.0957ZM14.4141 11H19.9355C19.7533 9.53926 19.1776 8.20222 18.3174 7.0957L14.4141 11ZM11 4.06348C9.53942 4.24565 8.20216 4.82157 7.0957 5.68164L11 9.58594V4.06348ZM13 9.58496L16.9033 5.68164C15.797 4.82184 14.4603 4.24561 13 4.06348V9.58496Z" fill="black"/>
</svg>
