<svg width="24" height="24" viewBox="0 0 24 24" fill="none" xmlns="http://www.w3.org/2000/svg">
<path fill-rule="evenodd" clip-rule="evenodd" d="M14 13C17.3137 13 20 15.6863 20 19V22H4V19C4 15.6863 6.68629 13 10 13H14ZM9 15.126C8.21345 15.3284 7.52118 15.7647 7 16.3555V20H9V15.126ZM15 20H17V16.3555C16.4788 15.7647 15.7866 15.3284 15 15.126V20Z" fill="black"/>
<path fill-rule="evenodd" clip-rule="evenodd" d="M12 2C12.3453 2 12.6804 2.04371 13 2.12598V3.49512C13 3.77126 13.2239 3.99512 13.5 3.99512C13.7761 3.99512 14 3.77126 14 3.49512V2.53613C15.1954 3.22781 16 4.51961 16 6C16.5523 6 17 6.44772 17 7C17 7.51768 16.6067 7.94379 16.1025 7.99512L16 8C16 10.2091 14.2091 12 12 12C9.79086 12 8 10.2091 8 8L7.89746 7.99512C7.39333 7.94379 7 7.51768 7 7C7 6.48232 7.39333 6.05621 7.89746 6.00488L8 6C8 4.51961 8.80464 3.22781 10 2.53613V3.49512C10 3.77126 10.2239 3.99512 10.5 3.99512C10.7761 3.99512 11 3.77126 11 3.49512V2.12598C11.3196 2.04371 11.6547 2 12 2ZM10 8C10 9.10457 10.8954 10 12 10C13.1046 10 14 9.10457 14 8H10Z" fill="black"/>
</svg>
