<svg width="24" height="24" viewBox="0 0 24 24" fill="none" xmlns="http://www.w3.org/2000/svg">
<path fill-rule="evenodd" clip-rule="evenodd" d="M20 12C20 14.2333 19.2248 16.1248 17.6748 17.6748C16.1248 19.2248 14.2333 20 12 20C11.0667 20 10.1873 19.8542 9.3623 19.5625C8.53737 19.2708 7.78289 18.8585 7.09961 18.3252L5.7002 19.7002C5.51686 19.8835 5.28333 19.9746 5 19.9746C4.71667 19.9746 4.48314 19.8835 4.2998 19.7002C4.11647 19.5169 4.02539 19.2833 4.02539 19C4.02539 18.7167 4.11647 18.4831 4.2998 18.2998L5.6748 16.9248C5.14163 16.2416 4.72913 15.4835 4.4375 14.6504C4.14583 13.8171 4 12.9333 4 12C4 9.76667 4.7752 7.8752 6.3252 6.3252C7.8752 4.7752 9.76667 4 12 4H20V12ZM13 10.0254C12.7167 10.0254 12.4831 10.1165 12.2998 10.2998L7.13379 15.4648C7.50866 16.0222 7.98306 16.5063 8.53125 16.8936L13.7002 11.7246C13.9 11.5247 14 11.2875 14 11.0127C14 10.7377 13.9002 10.4998 13.7002 10.2998C13.5169 10.1165 13.2833 10.0254 13 10.0254Z" fill="black"/>
</svg>
