<svg width="24" height="24" viewBox="0 0 24 24" fill="none" xmlns="http://www.w3.org/2000/svg">
<path d="M12 1C14.2335 1.00002 16.3145 1.66695 18.0508 2.8125C18.5114 3.11659 18.6386 3.7364 18.335 4.19727C18.0308 4.65823 17.4102 4.78554 16.9492 4.48145C15.5298 3.54498 13.83 3.00002 12 3C7.02944 3 3 7.02944 3 12C3 16.9706 7.02944 21 12 21C15.9847 21 19.3667 18.4096 20.5498 14.8184C20.7226 14.2939 21.288 14.009 21.8125 14.1816C22.337 14.3545 22.623 14.9198 22.4502 15.4443C21.005 19.8313 16.8736 23 12 23C5.92487 23 1 18.0751 1 12C1 5.92487 5.92487 1 12 1Z" fill="black"/>
<path d="M9.58594 5.6543C13.1858 4.23884 17.2501 6.01792 18.667 9.62109C18.869 10.135 18.6164 10.7148 18.1025 10.917C17.5886 11.1191 17.0078 10.8665 16.8057 10.3525C15.7911 7.77311 12.885 6.50594 10.3174 7.51562C10.0942 7.60338 9.88148 7.70641 9.67871 7.82129L11.6465 10.0332C11.7613 10.0127 11.8792 10 12 10C13.1046 10 14 10.8954 14 12C14 13.1046 13.1046 14 12 14C10.8954 14 10 13.1046 10 12C10 11.7626 10.0432 11.5355 10.1191 11.3242L8.17383 9.1377C7.86661 9.54236 7.62267 9.99118 7.4502 10.4678C7.2622 10.9869 6.68813 11.2551 6.16895 11.0674C5.64965 10.8795 5.38047 10.3054 5.56836 9.78613C6.22804 7.96363 7.63943 6.41975 9.58594 5.6543Z" fill="black"/>
<path d="M22 8.98535C22.2833 8.98535 22.5212 9.08079 22.7129 9.27246C22.9046 9.46413 23 9.70202 23 9.98535C23 10.2687 22.9046 10.5066 22.7129 10.6982C22.5212 10.8899 22.2833 10.9854 22 10.9854C21.7167 10.9854 21.4788 10.8899 21.2871 10.6982C21.0954 10.5066 21 10.2687 21 9.98535C21 9.70202 21.0954 9.46413 21.2871 9.27246C21.4788 9.08079 21.7167 8.98535 22 8.98535Z" fill="black"/>
<path d="M22 0.985352C22.2833 0.985352 22.5212 1.08079 22.7129 1.27246C22.9046 1.46413 23 1.70202 23 1.98535V6.98535C23 7.26868 22.9046 7.50658 22.7129 7.69824C22.5212 7.88991 22.2833 7.98535 22 7.98535C21.7167 7.98535 21.4788 7.88991 21.2871 7.69824C21.0954 7.50658 21 7.26868 21 6.98535V1.98535C21 1.70202 21.0954 1.46413 21.2871 1.27246C21.4788 1.08079 21.7167 0.985352 22 0.985352Z" fill="black"/>
</svg>
