<svg width="24" height="24" viewBox="0 0 24 24" fill="none" xmlns="http://www.w3.org/2000/svg">
<path d="M2.40759 3.20703C2.79858 2.81923 3.43031 2.8205 3.8197 3.20996L20.7904 20.1895C21.1795 20.5788 21.1794 21.2103 20.7904 21.5996C20.4011 21.9888 19.7696 21.9888 19.3802 21.5996L16.2152 18.4346C15.8152 20.2245 13.9943 21.6953 10.9144 21.6953C8.12516 21.6947 7.45544 18.255 9.47498 16.915C10.2049 16.435 10.6653 15.6844 10.8353 14.8545C10.6355 14.7645 10.4351 14.6445 10.2552 14.5146L7.96521 15.335C5.31526 16.5448 2.30505 14.7046 2.30505 10.3047C2.30513 8.30501 4.07473 7.39528 5.57458 7.79492L2.40466 4.62402C2.01347 4.23255 2.01494 3.59707 2.40759 3.20703Z" fill="black"/>
<path d="M13.6947 1.69434C16.4844 1.69443 17.1547 5.13447 15.1351 6.47461C14.4052 6.95461 13.9448 7.70524 13.7748 8.53516C13.9747 8.62512 14.1749 8.74508 14.3549 8.875L16.6449 8.05469C19.2949 6.85482 22.3051 8.69504 22.3051 13.085C22.305 15.0848 20.5345 15.9846 19.0345 15.5947L8.3949 4.95508C8.79489 3.16518 10.615 1.69448 13.6947 1.69434Z" fill="black"/>
</svg>
