<svg width="24" height="24" viewBox="0 0 24 24" fill="none" xmlns="http://www.w3.org/2000/svg">
<path d="M15.1104 12.4502C15.2704 12.79 15.6201 13 16 13H22V18C22 19.1 21.1 20 20 20H4C2.9 20 2 19.1 2 18V13H7.37988L9.11035 16.4502C9.27042 16.79 9.62011 17 10 17C10.3799 17 10.7296 16.79 10.8896 16.4502L14 10.2402L15.1104 12.4502Z" fill="black"/>
<path d="M20 4C21.1 4 22 4.9 22 6V11H16.6201L14.9004 7.5498C14.5604 6.8699 13.4505 6.8701 13.1104 7.5498L10 13.7598L8.88965 11.5498C8.72958 11.21 8.37989 11 8 11H2V6C2 4.9 2.9 4 4 4H20Z" fill="black"/>
</svg>
