<svg width="24" height="24" viewBox="0 0 24 24" fill="none" xmlns="http://www.w3.org/2000/svg">
<path fill-rule="evenodd" clip-rule="evenodd" d="M20 3C20.55 3 21 3.45 21 4C21 4.55 20.55 5 20 5H19V11H20C20.55 11 21 11.45 21 12C21 12.55 20.55 13 20 13H19V19H20C20.55 19 21 19.45 21 20C21 20.55 20.55 21 20 21H4C3.45 21 3 20.55 3 20C3 19.45 3.45 19 4 19H5V13H4C3.45 13 3 12.55 3 12C3 11.45 3.45 11 4 11H5V5H4C3.45 5 3 4.55 3 4C3 3.45 3.45 3 4 3H20ZM12 8.5C9.52012 11.3799 9.00005 11.75 9 13.0498C9 14.6798 10.34 16 12 16C13.66 16 15 14.6798 15 13.0498C14.9999 11.74 14.4699 11.3599 12 8.5Z" fill="black"/>
</svg>
