<svg width="24" height="24" viewBox="0 0 24 24" fill="none" xmlns="http://www.w3.org/2000/svg">
<path fill-rule="evenodd" clip-rule="evenodd" d="M17.5 2C17.7761 2 18 2.22386 18 2.5V3.66602L21.418 3.09668C21.7225 3.04606 21.9998 3.28114 22 3.58984V17.1914L21.9951 17.2588C21.954 17.5691 21.6348 17.7671 21.3389 17.665L21.2764 17.6387L18 16V21C18 21.5523 17.5523 22 17 22H16C15.4477 22 15 21.5523 15 21V20H9V21C9 21.5523 8.55228 22 8 22H7C6.44772 22 6 21.5523 6 21V16L2.72363 17.6387L2.66113 17.665C2.36521 17.7671 2.04602 17.5691 2.00488 17.2588L2 17.1914V3.58984C2.00023 3.28114 2.27748 3.04606 2.58203 3.09668L6 3.66602V2.5C6 2.22386 6.22386 2 6.5 2H17.5ZM8 17V18H16V17H8ZM8 15H16V4H8V15Z" fill="black"/>
</svg>
