<svg width="24" height="24" viewBox="0 0 24 24" fill="none" xmlns="http://www.w3.org/2000/svg">
<path d="M4.09962 2.87776C4.95096 2.44715 5.95726 2.44715 6.80861 2.87776C7.64413 3.30051 8.60248 4.27874 9.11134 5.06135C9.75779 6.05562 9.7577 7.33755 9.11134 8.33186C8.9381 8.59831 8.69097 8.84549 8.40431 9.13166C8.31512 9.22063 8.21706 9.28498 8.28224 9.42073C8.93006 10.77 9.81393 12.0354 10.9346 13.1561C12.0552 14.2767 13.3207 15.1606 14.6699 15.8084C14.8093 15.8752 14.8668 15.7788 14.959 15.6864C15.245 15.3998 15.4915 15.1525 15.7578 14.9793C16.7521 14.3329 18.034 14.333 19.0283 14.9793C19.8111 15.4882 20.7902 16.4464 21.2129 17.2821C21.6435 18.1333 21.6434 19.1388 21.2129 19.9901C20.7183 20.9679 19.516 22.1083 18.5567 22.6473C18.0067 22.9562 17.2157 23.1619 16.585 23.16C16.0334 23.1583 15.6311 23.0438 15.1123 22.8963C11.8032 21.9558 8.77176 20.1866 6.3379 17.7528C3.90399 15.3188 2.13396 12.2876 1.19337 8.97834C1.04586 8.45933 0.931343 8.0566 0.9297 7.50471C0.927861 6.87404 1.13355 6.08389 1.4424 5.53401C1.97361 4.58835 3.11438 3.37624 4.09962 2.87776Z" fill="black"/>
<path d="M13.0684 5.80842C13.1742 5.26663 13.6994 4.91289 14.2412 5.01838C15.4132 5.24704 16.4906 5.82058 17.335 6.66487C18.1794 7.50925 18.7528 8.58658 18.9815 9.75862C19.0872 10.3007 18.7335 10.8257 18.1914 10.9315C17.6494 11.0372 17.1243 10.6835 17.0186 10.1414C16.8661 9.36015 16.4838 8.64181 15.9209 8.07893C15.358 7.51611 14.6397 7.1337 13.8584 6.98127C13.3165 6.8754 12.9626 6.3504 13.0684 5.80842Z" fill="black"/>
<path d="M14.1602 1.00666C16.4149 1.25715 18.5179 2.2668 20.1231 3.86994C21.7281 5.47307 22.7408 7.57458 22.9942 9.82893C23.0556 10.3776 22.66 10.8727 22.1113 10.9344C21.5627 10.9958 21.0675 10.6003 21.0059 10.0516C20.8032 8.24829 19.9939 6.56739 18.71 5.28498C17.4258 4.00247 15.7433 3.19436 13.9395 2.99397C13.3907 2.93288 12.9957 2.43831 13.0567 1.88948C13.1178 1.34086 13.6115 0.945867 14.1602 1.00666Z" fill="black"/>
</svg>
