<svg width="24" height="24" viewBox="0 0 24 24" fill="none" xmlns="http://www.w3.org/2000/svg">
<path fill-rule="evenodd" clip-rule="evenodd" d="M19 3C19.55 3 20.0204 3.19622 20.4121 3.58789C20.8038 3.97956 21 4.45 21 5V19C21 19.55 20.8038 20.0204 20.4121 20.4121C20.0204 20.8038 19.55 21 19 21H5C4.45 21 3.97956 20.8038 3.58789 20.4121C3.19622 20.0204 3 19.55 3 19V5C3 4.45 3.19622 3.97956 3.58789 3.58789C3.97956 3.19622 4.45 3 5 3H19ZM7 14V16C7 16.5523 7.44772 17 8 17H16C16.5523 17 17 16.5523 17 16V14L14 10H10L7 14Z" fill="black"/>
</svg>
