<svg width="24" height="24" viewBox="0 0 24 24" fill="none" xmlns="http://www.w3.org/2000/svg">
<path d="M5.99512 3.00391C7.2949 3.00333 8.39477 3.84237 8.81543 5.00195L16.9961 4.99707C19.206 4.99588 20.9967 6.7852 20.998 8.99512C20.9991 11.2048 19.2106 12.9956 17.001 12.9971L7.00098 13.0029C5.90106 13.0036 5.00143 13.904 5.00195 15.0039C5.00261 16.1039 5.90296 17.0035 7.00293 17.0029L15.1826 16.998C15.6019 15.8378 16.702 14.9969 18.002 14.9961C19.6619 14.9952 21.0029 16.3352 21.0039 17.9951C21.0046 19.6547 19.6655 20.9948 18.0059 20.9961C16.7059 20.9969 15.6053 20.1578 15.1846 18.998L7.00391 19.0029C4.79404 19.0041 3.00327 17.2148 3.00195 15.0049C3.00088 12.7952 4.78936 11.0045 6.99902 11.0029L16.999 10.9971C18.0989 10.9964 18.9986 10.096 18.998 8.99609C18.9974 7.8961 18.0971 6.99643 16.9971 6.99707L8.81738 7.00195C8.40807 8.1622 7.30805 9.00313 5.99805 9.00391C4.33814 9.00479 2.99708 7.66482 2.99609 6.00488C2.99535 4.34509 4.33527 3.00489 5.99512 3.00391Z" fill="black"/>
</svg>
