<svg width="24" height="24" viewBox="0 0 24 24" fill="none" xmlns="http://www.w3.org/2000/svg">
<path fill-rule="evenodd" clip-rule="evenodd" d="M11 3C11.55 3 12.0204 3.19622 12.4121 3.58789C12.8038 3.97956 13 4.45 13 5V13.25H14.25C15.9069 13.25 17.25 14.5931 17.25 16.25V18.125C17.25 18.6082 17.6418 19 18.125 19C18.6082 19 19 18.6082 19 18.125V11.8252C18.6869 11.936 18.3511 12 18 12C16.3431 12 15 10.6569 15 9C15 7.69153 15.8385 6.58103 17.0068 6.1709L15.293 4.45703L16.707 3.04297L20.1211 6.45703C20.6836 7.01957 20.9999 7.78259 21 8.57812V18.125C21 19.7128 19.7128 21 18.125 21C16.5372 21 15.25 19.7128 15.25 18.125V16.25C15.25 15.6977 14.8023 15.25 14.25 15.25H13V21H3V5C3 4.45 3.19622 3.97956 3.58789 3.58789C3.97956 3.19622 4.45 3 5 3H11ZM5 10H11V5H5V10ZM18 8C17.4477 8 17 8.44772 17 9C17 9.55228 17.4477 10 18 10C18.5523 10 19 9.55228 19 9C19 8.44772 18.5523 8 18 8Z" fill="black"/>
</svg>
