<svg width="24" height="24" viewBox="0 0 24 24" fill="none" xmlns="http://www.w3.org/2000/svg">
<path d="M15.9502 2.2002V5.02539L17.3496 3.625L20.9004 7.1748C21.1837 7.4581 21.3998 7.77942 21.5498 8.1377C21.6998 8.49599 21.7754 8.87544 21.7754 9.27539C21.7753 9.6752 21.6997 10.0583 21.5498 10.4248C21.3998 10.7915 21.1837 11.1171 20.9004 11.4004L18.7754 9.27539L17.375 10.6748L16.3252 9.625L11.1504 14.7998V16.9004L5.84961 22.2002C5.74982 22.2999 5.64178 22.3748 5.52539 22.4248C5.40887 22.4747 5.28354 22.4999 5.15039 22.5C5.01712 22.5 4.88764 22.4748 4.7627 22.4248C4.63772 22.3748 4.52479 22.3002 4.4248 22.2002L2.3252 20.0996C2.22524 19.9996 2.1496 19.8876 2.09961 19.7627C2.04961 19.6377 2.02441 19.5083 2.02441 19.375C2.02441 19.2417 2.04964 19.1166 2.09961 19C2.14961 18.8833 2.2252 18.7748 2.3252 18.6748L7.625 13.375H9.75L10.5996 12.5254L6.47461 8.40039H5.0498L2.02441 5.375L4.84961 2.5498L7.875 5.5752V7L12 11.125L14.9004 8.22461L13.8252 7.15039L15.2246 5.75H12.4004L11.7002 5.0498L15.25 1.5L15.9502 2.2002Z" fill="black"/>
<path d="M15.9004 13.2998C16.0335 13.2999 16.1589 13.3207 16.2754 13.3623C16.3919 13.404 16.4997 13.4753 16.5996 13.5752L21.7002 18.6748C21.8001 18.7748 21.8704 18.8834 21.9121 19C21.9538 19.1167 21.9746 19.2417 21.9746 19.375C21.9746 19.5083 21.9538 19.6333 21.9121 19.75C21.8704 19.8666 21.8001 19.9752 21.7002 20.0752L19.5752 22.2002C19.4753 22.3001 19.3666 22.3704 19.25 22.4121C19.1334 22.4538 19.0083 22.4746 18.875 22.4746C18.7417 22.4746 18.6167 22.4538 18.5 22.4121C18.3834 22.3704 18.2748 22.3002 18.1748 22.2002L13.0752 17.0996C12.9753 16.9997 12.904 16.8919 12.8623 16.7754C12.8207 16.6588 12.7998 16.5336 12.7998 16.4004C12.7998 16.2672 12.8207 16.1419 12.8623 16.0254C12.904 15.9087 12.9752 15.8002 13.0752 15.7002L15.2002 13.5752C15.3002 13.4752 15.4087 13.404 15.5254 13.3623C15.6419 13.3208 15.7672 13.2998 15.9004 13.2998Z" fill="black"/>
</svg>
