<svg width="24" height="24" viewBox="0 0 24 24" fill="none" xmlns="http://www.w3.org/2000/svg">
<path fill-rule="evenodd" clip-rule="evenodd" d="M13.5576 2.0039C13.7904 2.00762 14.0035 2.01459 14.1953 2.03026C14.5906 2.06257 14.984 2.13439 15.3623 2.32714C15.9265 2.61471 16.3853 3.07347 16.6729 3.63768C16.8656 4.01598 16.9374 4.40942 16.9697 4.80468C17.0011 5.18834 17 5.65664 17 6.20018V6.99999H18.3369C18.5339 6.99999 18.7958 6.99397 19.0527 7.05565C19.2059 7.09243 19.3542 7.14642 19.4941 7.21776L19.6309 7.29491L19.791 7.40624C19.9434 7.52434 20.0712 7.65717 20.1758 7.76171L22.2383 9.82421C22.3775 9.96347 22.567 10.1439 22.7051 10.3691C22.8147 10.548 22.8953 10.7432 22.9443 10.9473C23.006 11.2042 23 11.4661 23 11.6631V14.4004C23 14.6638 23.0011 14.9219 22.9834 15.1387C22.9647 15.3672 22.9204 15.6369 22.7822 15.9082C22.5905 16.2844 22.2845 16.5905 21.9082 16.7822C21.6369 16.9204 21.3672 16.9647 21.1387 16.9834C20.9946 16.9952 20.832 16.9969 20.6621 16.998C20.8787 17.4532 21 17.9624 21 18.5C21 20.433 19.433 22 17.5 22C15.567 22 14 20.433 14 18.5C14 17.9632 14.1209 17.4546 14.3369 17H9.66309C9.87907 17.4546 10 17.9632 10 18.5C10 20.433 8.433 22 6.5 22C4.56701 22 3 20.433 3 18.5C3.00001 17.9282 3.13773 17.3887 3.38086 16.9121C3.12961 16.8666 2.88012 16.7964 2.6377 16.6728C2.07348 16.3853 1.61473 15.9265 1.32715 15.3623C1.13441 14.984 1.06259 14.5906 1.03028 14.1953C0.998932 13.8116 1 13.3433 1 12.7998V6.20018C1 5.65664 0.998931 5.18834 1.03028 4.80468C1.06259 4.40942 1.1344 4.01598 1.32715 3.63768C1.61473 3.07347 2.07348 2.61471 2.6377 2.32714C3.016 2.13439 3.40944 2.06257 3.80469 2.03026C4.18836 1.99892 4.65665 1.99999 5.2002 1.99999H12.7998L13.5576 2.0039ZM6.5 17C5.67158 17 5.00001 17.6716 5 18.5C5 19.3284 5.67158 20 6.5 20C7.32843 20 8 19.3284 8 18.5C8 17.6716 7.32843 17 6.5 17ZM17.5 17C16.6716 17 16 17.6716 16 18.5C16 19.3284 16.6716 20 17.5 20C18.3284 20 19 19.3284 19 18.5C19 17.6716 18.3284 17 17.5 17ZM5.2002 3.99999C4.62365 3.99999 4.25111 4.00125 3.96778 4.0244C3.6962 4.0466 3.59534 4.08417 3.5459 4.10936C3.35794 4.2052 3.20522 4.35792 3.10938 4.54589C3.08419 4.59532 3.04662 4.69619 3.02442 4.96776C3.00127 5.2511 3 5.62364 3 6.20018V12.7998C3 13.3763 3.00127 13.7489 3.02442 14.0322C3.04661 14.3038 3.08419 14.4046 3.10938 14.4541C3.20522 14.6421 3.35794 14.7948 3.5459 14.8906C3.59534 14.9158 3.69619 14.9534 3.96778 14.9756C4.25111 14.9987 4.62365 15 5.2002 15H15V6.20018C15 5.62364 14.9987 5.2511 14.9756 4.96776C14.9534 4.69619 14.9158 4.59532 14.8906 4.54589C14.7948 4.35792 14.6421 4.2052 14.4541 4.10936C14.4047 4.08417 14.3038 4.0466 14.0322 4.0244C13.8906 4.01283 13.7268 4.00601 13.5264 4.00292L12.7998 3.99999H5.2002Z" fill="black"/>
</svg>
