<svg width="24" height="24" viewBox="0 0 24 24" fill="none" xmlns="http://www.w3.org/2000/svg">
<path fill-rule="evenodd" clip-rule="evenodd" d="M13.6035 2.00488C13.8185 2.00878 14.0162 2.01564 14.1953 2.03027C14.5906 2.06258 14.984 2.1344 15.3623 2.32715C15.9265 2.61472 16.3853 3.07348 16.6729 3.6377C16.8656 4.01599 16.9374 4.40943 16.9697 4.80469C17.0011 5.18836 17 5.65665 17 6.2002V7H18.3369C18.5339 7 18.7958 6.99398 19.0527 7.05566C19.2058 7.09244 19.3542 7.14643 19.4941 7.21777L19.6309 7.29492L19.791 7.40625C19.9434 7.52435 20.0712 7.65718 20.1758 7.76172L22.2383 9.82422C22.3775 9.96348 22.567 10.1439 22.7051 10.3691C22.8147 10.548 22.8953 10.7432 22.9443 10.9473C23.006 11.2042 23 11.4661 23 11.6631V14.4004C23 14.6638 23.0011 14.9219 22.9834 15.1387C22.9647 15.3672 22.9204 15.6369 22.7822 15.9082C22.5905 16.2845 22.2845 16.5905 21.9082 16.7822C21.6369 16.9204 21.3672 16.9647 21.1387 16.9834C20.9946 16.9952 20.832 16.997 20.6621 16.998C20.8787 17.4532 21 17.9624 21 18.5C21 20.433 19.433 22 17.5 22C15.567 22 14 20.433 14 18.5C14 17.9632 14.1209 17.4546 14.3369 17H9.66309C9.87907 17.4546 10 17.9632 10 18.5C10 20.433 8.43299 22 6.5 22C4.56701 22 3 20.433 3 18.5C3 17.9282 3.13772 17.3888 3.38086 16.9121C3.12961 16.8666 2.88011 16.7964 2.6377 16.6729C2.07348 16.3853 1.61472 15.9265 1.32715 15.3623C1.1344 14.984 1.06258 14.5906 1.03027 14.1953C1.00319 13.8639 1.00028 13.4693 1 13.0176V10C1 9.44772 1.44772 9 2 9C2.55228 9 3 9.44772 3 10V12.7998C3 13.3764 3.00126 13.7489 3.02441 14.0322C3.04661 14.3038 3.08419 14.4047 3.10938 14.4541C3.20521 14.6421 3.35793 14.7948 3.5459 14.8906C3.59534 14.9158 3.6962 14.9534 3.96777 14.9756C4.25111 14.9987 4.62365 15 5.2002 15H15V6.2002C15 5.62364 14.9987 5.25111 14.9756 4.96777C14.9534 4.6962 14.9158 4.59534 14.8906 4.5459C14.7948 4.35793 14.6421 4.20521 14.4541 4.10938C14.4047 4.08419 14.3038 4.04661 14.0322 4.02441C13.8906 4.01285 13.7268 4.00602 13.5264 4.00293L13 4L12.8975 3.99512C12.3933 3.94379 12 3.51768 12 3C12 2.44772 12.4477 2 13 2H13.5C13.5349 2 13.5695 2.00139 13.6035 2.00488ZM6.5 17C5.67158 17 5 17.6716 5 18.5C5 19.3284 5.67158 20 6.5 20C7.32842 20 8 19.3284 8 18.5C8 17.6716 7.32842 17 6.5 17ZM17.5 17C16.6716 17 16 17.6716 16 18.5C16 19.3284 16.6716 20 17.5 20C18.3284 20 19 19.3284 19 18.5C19 17.6716 18.3284 17 17.5 17Z" fill="black"/>
<path d="M6.74805 2.24414C7.16556 1.88265 7.79669 1.92822 8.1582 2.3457L10.7559 5.3457C11.081 5.72142 11.0811 6.27862 10.7559 6.6543L8.1582 9.6543C7.79671 10.0716 7.16553 10.1172 6.74805 9.75586C6.33068 9.39444 6.2853 8.76322 6.64648 8.3457L7.81152 7H2C1.44778 7 1.00011 6.55219 1 6C1 5.44772 1.44772 5 2 5H7.81152L6.64648 3.6543C6.28522 3.23682 6.33074 2.60561 6.74805 2.24414Z" fill="black"/>
</svg>
