<svg width="24" height="24" viewBox="0 0 24 24" fill="none" xmlns="http://www.w3.org/2000/svg">
<path fill-rule="evenodd" clip-rule="evenodd" d="M15.96 2C18.4242 2 19.6564 1.99996 20.5977 2.48438C21.4255 2.91048 22.0987 3.5905 22.5205 4.42676C23 5.37747 23 6.62227 23 9.11133V11.333C23 15.0667 22.9996 16.9343 22.2803 18.3604C21.6475 19.6145 20.6382 20.6344 19.3965 21.2734C17.9847 22 16.1365 22 12.4404 22H8.04004C5.57581 22 4.34356 22 3.40234 21.5156C2.57446 21.0895 1.90132 20.4095 1.47949 19.5732C0.999957 18.6225 1 17.3777 1 14.8887V9.11133C1 6.62227 0.999957 5.37747 1.47949 4.42676C1.90132 3.5905 2.57446 2.91048 3.40234 2.48438C4.34356 1.99996 5.57581 2 8.04004 2H15.96ZM17 17C16.4477 17 16 17.4477 16 18C16 18.5523 16.4477 19 17 19H18C18.5523 19 19 18.5523 19 18C19 17.4477 18.5523 17 18 17H17ZM8.2002 6C7.08009 6 6.51962 5.99979 6.0918 6.21777C5.71554 6.40951 5.40951 6.71554 5.21777 7.0918C4.99979 7.51962 5 8.08009 5 9.2002V11.7998C5 12.9199 4.99979 13.4804 5.21777 13.9082C5.40951 14.2845 5.71554 14.5905 6.0918 14.7822C6.51962 15.0002 7.08009 15 8.2002 15H15.7998C16.9199 15 17.4804 15.0002 17.9082 14.7822C18.2845 14.5905 18.5905 14.2845 18.7822 13.9082C19.0002 13.4804 19 12.9199 19 11.7998V9.2002C19 8.08009 19.0002 7.51962 18.7822 7.0918C18.5905 6.71554 18.2845 6.40951 17.9082 6.21777C17.4804 5.99979 16.9199 6 15.7998 6H8.2002Z" fill="black"/>
</svg>
