<svg width="24" height="24" viewBox="0 0 24 24" fill="none" xmlns="http://www.w3.org/2000/svg">
<path d="M18.9199 13.2878C19.4499 13.4278 19.9097 13.7776 20.1797 14.2576L22.46 18.3572C22.9599 19.2471 22.7999 20.3569 22.0801 21.0769C21.1901 21.9669 19.7504 21.9669 18.8604 21.0769L14.25 16.4675V20.7478C15.35 20.7478 16.25 21.6478 16.25 22.7478H10.25C10.25 21.6479 11.1501 20.7479 12.25 20.7478V15.0271C12.26 15.0271 12.6401 15.2478 13.25 15.2478C14.36 15.2478 15.3196 14.5373 15.6396 13.4773C15.7396 13.1473 15.7702 12.807 15.7402 12.4871L18.9199 13.2878Z" fill="black"/>
<path d="M7.25 18.7478C7.80226 18.7478 8.24995 19.1956 8.25 19.7478C8.24978 20.2999 7.80215 20.7478 7.25 20.7478H4.25C3.69791 20.7477 3.25022 20.2999 3.25 19.7478C3.25005 19.1956 3.6978 18.7479 4.25 18.7478H7.25Z" fill="black"/>
<path d="M11.75 10.7478C11.3402 11.0578 11.0203 11.4975 10.8604 12.0173C10.5504 13.0172 10.9099 14.0672 11.6797 14.6873L8.99023 16.2976C8.51026 16.5876 7.94013 16.6575 7.41016 16.5076L2.90039 15.2175C1.9204 14.9375 1.25 14.0471 1.25 13.0271C1.2502 11.7673 2.2704 10.7478 3.53027 10.7478H11.75Z" fill="black"/>
<path d="M11.8105 12.3074C12.0506 11.5077 12.8899 11.0677 13.6797 11.3074C14.4797 11.5474 14.9196 12.3875 14.6797 13.1775C14.4396 13.9772 13.6004 14.4172 12.8105 14.1775C12.0206 13.9375 11.5705 13.0974 11.8105 12.3074Z" fill="black"/>
<path d="M16.3105 1.86695C17.0505 1.16745 18.1703 1.05724 19.04 1.57691C20.12 2.22689 20.4703 3.62778 19.8203 4.70777L15.5498 11.8171C15.2798 11.1374 14.7302 10.5872 13.9805 10.3572C13.2305 10.1272 12.61 10.3078 12.25 10.4578V6.5271C12.2501 5.97724 12.48 5.44682 12.8799 5.07691L16.3105 1.86695Z" fill="black"/>
<path d="M5.25 6.74781C5.80226 6.74781 6.24995 7.19556 6.25 7.74781C6.24978 8.2999 5.80215 8.74781 5.25 8.74781H2.25C1.69791 8.74774 1.25022 8.29986 1.25 7.74781C1.25005 7.1956 1.6978 6.74787 2.25 6.74781H5.25Z" fill="black"/>
<path d="M9.25 2.74781C9.80226 2.74781 10.25 3.19556 10.25 3.74781C10.2498 4.2999 9.80215 4.74781 9.25 4.74781H5.25C4.69791 4.74774 4.25022 4.29986 4.25 3.74781C4.25005 3.1956 4.6978 2.74787 5.25 2.74781H9.25Z" fill="black"/>
</svg>
