<svg width="24" height="24" viewBox="0 0 24 24" fill="none" xmlns="http://www.w3.org/2000/svg">
<path d="M11 12C11.5523 12 12 12.4477 12 13V16C12 16.5523 11.5523 17 11 17H8C7.44772 17 7 16.5523 7 16V13C7 12.4477 7.44772 12 8 12H11Z" fill="black"/>
<path fill-rule="evenodd" clip-rule="evenodd" d="M17 2C17.5523 2 18 2.44772 18 3V4H19C20.1 4 21 4.9 21 6V20C21 21.1 20.1 22 19 22H5C3.89 22 3 21.1 3 20V6C3 4.9 3.89 4 5 4H6V3C6 2.44772 6.44772 2 7 2C7.55228 2 8 2.44772 8 3V4H16V3C16 2.44772 16.4477 2 17 2ZM5 20H19V10H5V20ZM5 8H19V6H5V8Z" fill="black"/>
</svg>
