<svg width="24" height="24" viewBox="0 0 24 24" fill="none" xmlns="http://www.w3.org/2000/svg">
<path d="M5.5 15C6.32843 15 7 15.6716 7 16.5C7 17.3284 6.32843 18 5.5 18C4.67157 18 4 17.3284 4 16.5C4 15.6716 4.67157 15 5.5 15Z" fill="black"/>
<path d="M12.5 15C13.3284 15 14 15.6716 14 16.5C14 17.3284 13.3284 18 12.5 18C11.6716 18 11 17.3284 11 16.5C11 15.6716 11.6716 15 12.5 15Z" fill="black"/>
<path d="M15.75 4C16.1642 4 16.5 4.33579 16.5 4.75V8.25L18.7402 9.56152C19.086 9.76432 19.199 10.2114 18.9902 10.5537C18.7854 10.8896 18.3476 10.9975 18.0098 10.7959L15 9V4.75C15 4.33579 15.3358 4 15.75 4Z" fill="black"/>
<path fill-rule="evenodd" clip-rule="evenodd" d="M16 1C19.87 1 23 4.13 23 8C23 11.53 20.39 14.4299 17 14.9199V18C17 18.8799 16.6099 19.6697 16 20.2197V22C16 22.55 15.55 23 15 23H14C13.45 23 13 22.55 13 22V21H5V22C5 22.55 4.55 23 4 23H3C2.45 23 2 22.55 2 22V20.2197C1.39008 19.6697 1 18.8799 1 18V8C1 4.5 4.58 4 9 4C9.43 4 9.84 4.00953 10.25 4.01953C11.51 2.19971 13.6101 1 16 1ZM3 18C3 18.37 3.20984 18.6205 3.33984 18.7305L3.62988 19H14.3701L14.6602 18.7305C14.7902 18.6205 15 18.37 15 18V14.9199C14.0601 14.7899 13.1901 14.47 12.4102 14H3V18ZM16 3C13.24 3 11 5.24 11 8C11 10.76 13.24 13 16 13C18.76 13 21 10.76 21 8C21 5.24 18.76 3 16 3ZM3 12H10.2598C9.64985 11.1201 9.2401 10.1001 9.08008 8.99023H3V12ZM9 6C5.31 6 3.88984 6.46023 3.33984 6.99023H9.08008C9.13008 6.66023 9.20004 6.32 9.29004 6H9Z" fill="black"/>
</svg>
