<svg width="24" height="24" viewBox="0 0 24 24" fill="none" xmlns="http://www.w3.org/2000/svg">
<path d="M12 8.5C12.5523 8.5 13 8.94772 13 9.5V13.5C13 14.0523 12.5523 14.5 12 14.5C11.4477 14.5 11 14.0523 11 13.5V9.5C11 8.94772 11.4477 8.5 12 8.5Z" fill="black"/>
<path fill-rule="evenodd" clip-rule="evenodd" d="M12 4.5C14.12 4.5 16.0701 5.24047 17.6201 6.48047L19.04 5.05957C19.55 5.47955 20.0202 5.95975 20.4502 6.46973L19.0303 7.88965C20.2603 9.42965 21 11.38 21 13.5C21 18.47 16.98 22.5 12 22.5C7.02 22.5 3 18.47 3 13.5C3 8.53 7.03 4.5 12 4.5ZM12 6.5C8.13 6.5 5 9.63 5 13.5C5 17.37 8.13 20.5 12 20.5C15.87 20.5 19 17.37 19 13.5C19 9.63 15.87 6.5 12 6.5Z" fill="black"/>
<path d="M15 3.5H9V1.5H15V3.5Z" fill="black"/>
</svg>
