<svg width="24" height="24" viewBox="0 0 24 24" fill="none" xmlns="http://www.w3.org/2000/svg">
<path d="M11.999 9.09473C12.5513 9.09473 12.999 9.54247 12.999 10.0947V12.0947H14.999C15.5513 12.0947 15.999 12.5425 15.999 13.0947C15.999 13.647 15.5513 14.0947 14.999 14.0947H12.999V16.0947C12.999 16.647 12.5513 17.0947 11.999 17.0947C11.447 17.0945 10.999 16.6469 10.999 16.0947V14.0947H8.99902C8.44695 14.0945 7.99902 13.6469 7.99902 13.0947C7.99906 12.5426 8.44697 12.095 8.99902 12.0947H10.999V10.0947C10.9991 9.54262 11.447 9.09498 11.999 9.09473Z" fill="black"/>
<path fill-rule="evenodd" clip-rule="evenodd" d="M11.999 4.09473C16.969 4.09473 20.999 8.12475 20.999 13.0947C20.999 18.0647 16.969 22.0947 11.999 22.0947C7.02924 22.0945 2.99902 18.0646 2.99902 13.0947C2.99906 8.12491 7.02926 4.09498 11.999 4.09473ZM11.999 6.09473C8.13926 6.09498 4.99906 9.23491 4.99902 13.0947C4.99902 16.9546 8.13924 20.0945 11.999 20.0947C15.859 20.0947 18.999 16.9547 18.999 13.0947C18.999 9.23475 15.859 6.09473 11.999 6.09473Z" fill="black"/>
<path d="M7.94434 3.44043L3.33691 7.28516L2.05664 5.74902L6.66211 1.9043L7.94434 3.44043Z" fill="black"/>
<path d="M21.9434 5.75L20.6631 7.28516L16.0537 3.44141L17.3369 1.9043L21.9434 5.75Z" fill="black"/>
</svg>
