<svg width="24" height="24" viewBox="0 0 24 24" fill="none" xmlns="http://www.w3.org/2000/svg">
<path d="M14.9404 10.2061C15.2326 9.91304 15.7073 9.91251 16 10.2051C16.2924 10.4975 16.2924 10.9722 16 11.2646L11.2363 16.0273C10.8458 16.4179 10.2128 16.4179 9.82227 16.0273L7.87988 14.085C7.58717 13.7922 7.58717 13.3171 7.87988 13.0244C8.17255 12.7321 8.64685 12.732 8.93945 13.0244L10.5391 14.625L14.9404 10.2061Z" fill="black"/>
<path fill-rule="evenodd" clip-rule="evenodd" d="M12 4.09473C16.9698 4.09499 21 8.12491 21 13.0947C21 18.0646 16.9698 22.0945 12 22.0947C7.03 22.0947 3 18.0647 3 13.0947C3.00003 8.12475 7.03002 4.09473 12 4.09473ZM12 6.09473C8.14002 6.09473 5.00003 9.23475 5 13.0947C5 16.9547 8.14 20.0947 12 20.0947C15.8598 20.0945 19 16.9546 19 13.0947C19 9.23491 15.8598 6.09499 12 6.09473Z" fill="black"/>
<path d="M7.94434 3.44043L3.33691 7.28516L2.05664 5.74902L6.66211 1.9043L7.94434 3.44043Z" fill="black"/>
<path d="M21.9434 5.75L20.6631 7.28516L16.0537 3.44141L17.3369 1.9043L21.9434 5.75Z" fill="black"/>
</svg>
