<svg width="24" height="24" viewBox="0 0 24 24" fill="none" xmlns="http://www.w3.org/2000/svg">
<path d="M11.75 7C12.1642 7 12.5 7.33579 12.5 7.75V12.2002L16.3418 14.5049C16.7041 14.7222 16.8191 15.1939 16.5977 15.5537C16.378 15.9105 15.9106 16.0222 15.5537 15.8027L11 13V7.75C11 7.33579 11.3358 7 11.75 7Z" fill="black"/>
<path fill-rule="evenodd" clip-rule="evenodd" d="M12 2C17.5 2 22 6.5 22 12C22 17.5 17.5 22 12 22C6.5 22 2 17.5 2 12C2 6.5 6.5 2 12 2ZM12 4C7.59 4 4 7.59 4 12C4 16.41 7.59 20 12 20C16.41 20 20 16.41 20 12C20 7.59 16.41 4 12 4Z" fill="black"/>
</svg>
