<svg width="24" height="24" viewBox="0 0 24 24" fill="none" xmlns="http://www.w3.org/2000/svg">
<path d="M12.0224 2.02246C17.2077 2.02246 21.472 5.97033 21.9731 11.0239C22.0276 11.5735 21.5747 12.0225 21.0224 12.0225C20.4701 12.0225 20.029 11.5725 19.9608 11.0245C19.4694 7.0776 16.1022 4.02246 12.0224 4.02246C7.60469 4.02246 4.0224 7.60473 4.0224 12.0225C4.0224 16.1022 7.07756 19.4695 11.0244 19.9608C11.5725 20.029 12.0224 20.4702 12.0224 21.0225C12.0224 21.5747 11.5734 22.0277 11.0238 21.9732C5.97027 21.472 2.02241 17.2077 2.02241 12.0225C2.02241 6.50017 6.50012 2.02246 12.0224 2.02246Z" fill="black"/>
<path d="M12.0224 8.02246C12.0224 7.47017 12.4746 7.01202 13.016 7.1211C15.302 7.58167 17.0224 9.60044 17.0224 12.0225C17.0224 14.7847 14.7847 17.0225 12.0224 17.0225C9.60033 17.0225 7.5816 15.302 7.12105 13.0161C7.01197 12.4747 7.47012 12.0225 8.02241 12.0225C8.57469 12.0225 9.00607 12.4824 9.18659 13.0044C9.59299 14.1794 10.7086 15.0225 12.0224 15.0225C13.6801 15.0225 15.0224 13.6802 15.0224 12.0225C15.0224 10.7087 14.1794 9.59304 13.0043 9.18664C12.4824 9.00611 12.0224 8.57474 12.0224 8.02246Z" fill="black"/>
</svg>
