<svg width="24" height="24" viewBox="0 0 24 24" fill="none" xmlns="http://www.w3.org/2000/svg">
<path fill-rule="evenodd" clip-rule="evenodd" d="M12 2.00008C12.8656 2.00008 13.4944 1.99193 14.0352 2.1368C15.4155 2.50666 16.4934 3.58461 16.8633 4.96493C16.9456 5.27234 16.9763 5.60836 16.9893 6.00008H18.7998C19.3433 6.00008 19.8116 5.99901 20.1953 6.03036C20.5905 6.06267 20.984 6.1345 21.3623 6.32723C21.9265 6.61479 22.3853 7.0736 22.6728 7.63778C22.8656 8.01604 22.9374 8.40955 22.9697 8.80477C23.0011 9.18842 23 9.65677 23 10.2003V17.7999C23 18.3434 23.0011 18.8117 22.9697 19.1954C22.9374 19.5906 22.8656 19.9841 22.6728 20.3624C22.3853 20.9266 21.9265 21.3854 21.3623 21.6729C20.984 21.8657 20.5906 21.9375 20.1953 21.9698C19.8116 22.0012 19.3434 22.0001 18.7998 22.0001H5.20019C4.65664 22.0001 4.18835 22.0012 3.80468 21.9698C3.40943 21.9375 3.01598 21.8657 2.63769 21.6729C2.07349 21.3854 1.61471 20.9266 1.32715 20.3624C1.13443 19.9841 1.06258 19.5906 1.03027 19.1954C0.998932 18.8117 0.999997 18.3434 0.999997 17.7999V10.2003C0.999997 9.65677 0.998925 9.18842 1.03027 8.80477C1.06259 8.40955 1.13441 8.01604 1.32715 7.63778C1.61472 7.07359 2.0735 6.61479 2.63769 6.32723C3.01598 6.13449 3.40944 6.06267 3.80468 6.03036C4.18835 5.99901 4.65664 6.00008 5.20019 6.00008H7.01074C7.02368 5.60836 7.05434 5.27234 7.13672 4.96493C7.50661 3.58461 8.58451 2.50666 9.96484 2.1368C10.5056 1.99192 11.1344 2.00008 12 2.00008ZM5.20019 8.00008C4.62364 8.00008 4.25111 8.00135 3.96777 8.0245C3.69625 8.04669 3.59535 8.08427 3.5459 8.10946C3.35795 8.20528 3.20521 8.35805 3.10937 8.54598C3.08419 8.59541 3.04661 8.69635 3.02441 8.96786C3.00126 9.25118 3 9.62379 3 10.2003V17.7999C3 18.3764 3.00127 18.749 3.02441 19.0323C3.04659 19.3037 3.08418 19.4047 3.10937 19.4542C3.2052 19.6421 3.35795 19.7949 3.5459 19.8907C3.59533 19.9159 3.6962 19.9535 3.96777 19.9757C4.25111 19.9988 4.62364 20.0001 5.20019 20.0001H18.7998C19.3764 20.0001 19.7489 19.9988 20.0322 19.9757C20.3038 19.9535 20.4047 19.9159 20.4541 19.8907C20.6421 19.7949 20.7948 19.6421 20.8906 19.4542C20.9158 19.4047 20.9534 19.3037 20.9756 19.0323C20.9987 18.749 21 18.3764 21 17.7999V10.2003C21 9.62379 20.9987 9.25118 20.9756 8.96786C20.9534 8.69635 20.9158 8.59541 20.8906 8.54598C20.7948 8.35805 20.642 8.20528 20.4541 8.10946C20.4046 8.08427 20.3037 8.04669 20.0322 8.0245C19.7489 8.00135 19.3763 8.00008 18.7998 8.00008H5.20019ZM12 4.00008C11.0057 4.00008 10.7047 4.00889 10.4824 4.06844C9.79227 4.25337 9.25331 4.79237 9.06836 5.48251C9.03653 5.60127 9.01992 5.7426 9.01074 6.00008H14.9893C14.9801 5.7426 14.9635 5.60127 14.9316 5.48251C14.7467 4.79237 14.2077 4.25337 13.5176 4.06844C13.2953 4.00889 12.9943 4.00008 12 4.00008Z" fill="black"/>
</svg>
