<svg width="24" height="24" viewBox="0 0 24 24" fill="none" xmlns="http://www.w3.org/2000/svg">
<path fill-rule="evenodd" clip-rule="evenodd" d="M17 12C18.3833 12 19.5621 12.4879 20.5371 13.4629C21.5121 14.4379 22 15.6167 22 17C22 18.3833 21.5121 19.5621 20.5371 20.5371C19.5621 21.5121 18.3833 22 17 22C15.6167 22 14.4379 21.5121 13.4629 20.5371C12.4879 19.5621 12 18.3833 12 17C12 15.6167 12.4879 14.4379 13.4629 13.4629C14.4379 12.4879 15.6167 12 17 12ZM16.5 18.0996L14.7002 16.2998L14 17L17 20L20 17L19.2998 16.2998L17.5 18.0996V14H16.5V18.0996Z" fill="black"/>
<path fill-rule="evenodd" clip-rule="evenodd" d="M11 2C13.4832 2 15.604 2.39154 17.3623 3.1748C19.1206 3.95814 20 4.9 20 6V10.6748C19.6835 10.5249 19.3586 10.3998 19.0254 10.2998C18.6921 10.1998 18.35 10.1252 18 10.0752V8.52539C17.1335 9.00863 16.1002 9.37502 14.9004 9.625C13.7004 9.875 12.4 10 11 10C9.58341 10 8.27514 9.87497 7.0752 9.625C5.87527 9.37502 4.84997 9.00868 4 8.52539V11.0498C4.85 11.8331 5.9377 12.354 7.2627 12.6123C8.58764 12.8706 9.83338 13 11 13H11.2754C11.0587 13.3 10.8712 13.6169 10.7129 13.9502C10.5546 14.2835 10.4165 14.6333 10.2998 15C9.03332 14.9333 7.85859 14.7787 6.77539 14.5371C5.69214 14.2955 4.76663 13.9587 4 13.5254V16C4.11665 16.2166 4.36676 16.4371 4.75 16.6621C5.13333 16.8871 5.60039 17.0877 6.15039 17.2627C6.70025 17.4376 7.31252 17.5879 7.9873 17.7129C8.6623 17.8379 9.35853 17.9246 10.0752 17.9746C10.1252 18.3413 10.1998 18.6921 10.2998 19.0254C10.3998 19.3586 10.5249 19.6835 10.6748 20C9.45839 19.9833 8.32521 19.867 7.27539 19.6504C6.22547 19.4337 5.30869 19.1454 4.52539 18.7871C3.74206 18.4288 3.1248 18.0121 2.6748 17.5371C2.225 17.0622 2 16.5499 2 16V6C2 4.9 2.87936 3.95814 4.6377 3.1748C6.39598 2.39154 8.51678 2 11 2ZM11 4C9.48333 4 7.99544 4.2127 6.53711 4.6377C5.07903 5.06266 4.23331 5.52544 4 6.02539C4.23354 6.47524 5.07936 6.92078 6.53711 7.3623C7.99544 7.80397 9.48333 8.02539 11 8.02539C12.4832 8.02539 13.9747 7.80391 15.4746 7.3623C16.9742 6.92075 17.8164 6.47528 18 6.02539C17.8167 5.54206 16.979 5.08372 15.4873 4.65039C13.9957 4.21707 12.5 4 11 4Z" fill="black"/>
</svg>
