<svg width="24" height="24" viewBox="0 0 24 24" fill="none" xmlns="http://www.w3.org/2000/svg">
<path d="M15.2988 13.3057C15.6866 13.6955 15.6861 14.3266 15.2988 14.7168C14.9088 15.1095 14.2724 15.1118 13.8809 14.7207L13 13.8398V17C13 17.5523 12.5523 18 12 18C11.4477 18 11 17.5523 11 17V13.8398L10.1162 14.7188C9.72587 15.1065 9.09511 15.1049 8.70605 14.7158C8.31625 14.3258 8.31614 13.6936 8.70605 13.3037L12.0098 10L15.2988 13.3057Z" fill="black"/>
<path fill-rule="evenodd" clip-rule="evenodd" d="M22 7V21C22 22.1 21.1 23 20 23H3.99023C2.89023 23 2 22.1 2 21L2.00977 3C2.00977 1.9 2.9 1 4 1H16L22 7ZM5 3C4.44772 3 4 3.44772 4 4V20C4 20.5523 4.44772 21 5 21H19C19.5523 21 20 20.5523 20 20V8H16C15.4477 8 15 7.55228 15 7V3H5Z" fill="black"/>
</svg>
