<svg width="24" height="24" viewBox="0 0 24 24" fill="none" xmlns="http://www.w3.org/2000/svg">
<path fill-rule="evenodd" clip-rule="evenodd" d="M4.27836 4.13264C5.72449 2.87352 7.42577 2.78103 8.94047 3.28987C10.0599 3.66604 11.1029 4.37229 11.9688 5.201C12.8313 4.37445 13.868 3.672 14.9844 3.29768C16.477 2.79739 18.1439 2.8861 19.5909 4.07697C22.583 6.24924 22.6292 10.3745 20.5977 13.0389C19.8098 14.0721 18.2766 15.6199 16.8086 17.0321C15.3218 18.4623 13.838 19.8133 13.1065 20.4735C13.0368 20.5363 12.9421 20.6239 12.8506 20.6942C12.7477 20.7732 12.5948 20.8746 12.3887 20.9373C12.1162 21.0202 11.8224 21.0202 11.5498 20.9373C11.3439 20.8746 11.1909 20.7731 11.0879 20.6942C10.9965 20.624 10.9017 20.5363 10.8321 20.4735C10.1006 19.8132 8.61666 18.4622 7.12992 17.0321C5.66187 15.6199 4.12769 14.072 3.33988 13.0389C1.25382 10.3026 1.63471 6.43467 4.27836 4.13264ZM8.30375 5.18635C7.31231 4.85325 6.39343 4.94275 5.59184 5.64045C3.73954 7.25339 3.48666 9.93178 4.9307 11.826C5.61067 12.7177 7.03279 14.1633 8.51664 15.5906C9.85486 16.8779 11.1949 18.1027 11.9688 18.8035C12.7426 18.1028 14.0833 16.8783 15.4219 15.5906C16.9058 14.1632 18.3279 12.7177 19.0079 11.826C20.5068 9.85985 20.3129 7.07323 18.4161 5.69612C18.396 5.68152 18.3764 5.66529 18.3575 5.64924C17.5313 4.94972 16.6041 4.86436 15.6202 5.19416C14.5939 5.53824 13.5511 6.33265 12.7354 7.30451C12.5454 7.53082 12.2643 7.66096 11.9688 7.66096C11.6735 7.66079 11.393 7.53066 11.2032 7.30451C10.3884 6.33385 9.33621 5.53335 8.30375 5.18635Z" fill="black"/>
</svg>
