<svg width="24" height="24" viewBox="0 0 24 24" fill="none" xmlns="http://www.w3.org/2000/svg">
<path d="M2.70508 3.62987C3.09445 3.24059 3.7259 3.24054 4.11523 3.62987L19.4453 18.9599C19.8345 19.3493 19.8345 19.9808 19.4453 20.3701C19.056 20.7594 18.4245 20.7593 18.0352 20.3701L14.7305 17.0654H13V15.3349L10.7305 13.0654H9C8.44787 13.0654 8.00025 12.6175 8 12.0654V11.7949C8.00003 11.3918 8.32732 11.0654 8.73047 11.0654L6.66016 8.9951C5.11016 9.1651 3.90039 10.4754 3.90039 12.0654C3.90064 13.7752 5.29016 15.165 7 15.165H11V17.0654H7C4.24016 17.0654 2.00025 14.8252 2 12.0654C2 9.97542 3.29035 8.1853 5.11035 7.4453L2.70508 5.04003C2.31572 4.65067 2.31572 4.01923 2.70508 3.62987Z" fill="black"/>
<path d="M17 7.06542C19.76 7.06542 22 9.30542 22 12.0654C21.9998 13.8552 21.0497 15.4247 19.6299 16.3047L18.2305 14.9053C19.3302 14.4353 20.0994 13.3351 20.0996 12.0654C20.0996 10.3554 18.71 8.96483 17 8.96483H13V7.06542H17Z" fill="black"/>
<path d="M15 11.0654C15.5523 11.0654 16 11.5131 16 12.0654V12.6748L14.3896 11.0654H15Z" fill="black"/>
</svg>
