<svg width="24" height="24" viewBox="0 0 24 24" fill="none" xmlns="http://www.w3.org/2000/svg">
<path d="M20 3C21.1 3 22 3.9 22 5V19C22 20.1 21.1 21 20 21H13C12.4477 21 12 20.5523 12 20C12 19.4477 12.4477 19 13 19H20V5H13C12.4477 5 12 4.55228 12 4C12 3.44772 12.4477 3 13 3H20Z" fill="black"/>
<path d="M10.2998 7.7002C10.6864 7.3136 11.3136 7.3136 11.7002 7.7002L16 12L11.7002 16.2998C11.3136 16.6864 10.6864 16.6864 10.2998 16.2998C9.9135 15.9133 9.91356 15.2869 10.2998 14.9004L12.2002 13H3C2.44772 13 2 12.5523 2 12C2 11.4477 2.44772 11 3 11H12.2002L10.2998 9.09961C9.91356 8.71305 9.9135 8.08671 10.2998 7.7002Z" fill="black"/>
</svg>
