<svg width="24" height="24" viewBox="0 0 24 24" fill="none" xmlns="http://www.w3.org/2000/svg">
<path d="M7.5625 10.5C7.84583 10.5 8.08372 10.5954 8.27539 10.7871C8.46706 10.9788 8.5625 11.2167 8.5625 11.5V15.5C8.5625 15.7833 8.46706 16.0212 8.27539 16.2129C8.08372 16.4046 7.84583 16.5 7.5625 16.5C7.27917 16.5 7.04128 16.4046 6.84961 16.2129C6.65794 16.0212 6.5625 15.7833 6.5625 15.5V14.0752C5.94585 14.2085 5.4371 14.5254 5.03711 15.0254C4.63734 15.5253 4.4375 16.1002 4.4375 16.75C4.4375 17.5167 4.70833 18.1669 5.25 18.7002C5.79165 19.2335 6.43754 19.5 7.1875 19.5C7.47083 19.5 7.70872 19.5954 7.90039 19.7871C8.09206 19.9788 8.1875 20.2167 8.1875 20.5C8.1875 20.7833 8.09206 21.0212 7.90039 21.2129C7.70872 21.4046 7.47083 21.5 7.1875 21.5C5.87083 21.5 4.7502 21.0373 3.8252 20.1123C2.9002 19.1873 2.4375 18.0667 2.4375 16.75C2.4375 15.8001 2.68324 14.9501 3.1748 14.2002C3.66644 13.4502 4.31238 12.8833 5.1123 12.5H3.5625C3.27917 12.5 3.04128 12.4046 2.84961 12.2129C2.65794 12.0212 2.5625 11.7833 2.5625 11.5C2.5625 11.2167 2.65794 10.9788 2.84961 10.7871C3.04128 10.5954 3.27917 10.5 3.5625 10.5H7.5625Z" fill="black"/>
<path d="M19.5625 2.5C20.1125 2.5 20.5829 2.69622 20.9746 3.08789C21.3663 3.47956 21.5625 3.95 21.5625 4.5V18.5C21.5625 19.05 21.3663 19.5204 20.9746 19.9121C20.5829 20.3038 20.1125 20.5 19.5625 20.5H11.5625C11.2792 20.5 11.0413 20.4046 10.8496 20.2129C10.6579 20.0212 10.5625 19.7833 10.5625 19.5C10.5625 19.2167 10.6579 18.9788 10.8496 18.7871C11.0413 18.5954 11.2792 18.5 11.5625 18.5H19.5625V4.5H5.5625V7.5C5.5625 7.78333 5.46706 8.02122 5.27539 8.21289C5.08372 8.40456 4.84583 8.5 4.5625 8.5C4.27917 8.5 4.04128 8.40456 3.84961 8.21289C3.65794 8.02122 3.5625 7.78333 3.5625 7.5V4.5C3.5625 3.95 3.75872 3.47956 4.15039 3.08789C4.54206 2.69622 5.0125 2.5 5.5625 2.5H19.5625Z" fill="black"/>
<path d="M16.5625 14.5C16.8458 14.5 17.0837 14.5954 17.2754 14.7871C17.4671 14.9788 17.5625 15.2167 17.5625 15.5C17.5625 15.7833 17.4671 16.0212 17.2754 16.2129C17.0837 16.4046 16.8458 16.5 16.5625 16.5H11.5625C11.2792 16.5 11.0413 16.4046 10.8496 16.2129C10.6579 16.0212 10.5625 15.7833 10.5625 15.5C10.5625 15.2167 10.6579 14.9788 10.8496 14.7871C11.0413 14.5954 11.2792 14.5 11.5625 14.5H16.5625Z" fill="black"/>
<path d="M16.5625 10.5C16.8458 10.5 17.0837 10.5954 17.2754 10.7871C17.4671 10.9788 17.5625 11.2167 17.5625 11.5C17.5625 11.7833 17.4671 12.0212 17.2754 12.2129C17.0837 12.4046 16.8458 12.5 16.5625 12.5H11.5625C11.2792 12.5 11.0413 12.4046 10.8496 12.2129C10.6579 12.0212 10.5625 11.7833 10.5625 11.5C10.5625 11.2167 10.6579 10.9788 10.8496 10.7871C11.0413 10.5954 11.2792 10.5 11.5625 10.5H16.5625Z" fill="black"/>
<path d="M16.5625 6.5C16.8458 6.5 17.0837 6.59544 17.2754 6.78711C17.4671 6.97878 17.5625 7.21667 17.5625 7.5C17.5625 7.78333 17.4671 8.02122 17.2754 8.21289C17.0837 8.40456 16.8458 8.5 16.5625 8.5H8.5625C8.27917 8.5 8.04128 8.40456 7.84961 8.21289C7.65794 8.02122 7.5625 7.78333 7.5625 7.5C7.5625 7.21667 7.65794 6.97878 7.84961 6.78711C8.04128 6.59544 8.27917 6.5 8.5625 6.5H16.5625Z" fill="black"/>
</svg>
