<svg width="24" height="24" viewBox="0 0 24 24" fill="none" xmlns="http://www.w3.org/2000/svg">
<path d="M9.03256 4.5C9.58469 4.50018 10.0326 4.94783 10.0326 5.5V16C10.0326 16.5522 9.58469 16.9998 9.03256 17C8.87188 16.9999 8.71979 16.961 8.58529 16.8936L5.47689 15.3398L7.19174 18.4277C8.07351 20.0148 9.74727 20.9998 11.5628 21H15.5326C17.1893 20.9998 18.5326 19.6567 18.5326 18V12C18.5326 11.4479 18.9805 11.0002 19.5326 11C20.0847 11.0002 20.5326 11.4478 20.5326 12V18C20.5326 20.7613 18.2938 22.9998 15.5326 23H11.5628C9.02094 22.9998 6.6782 21.6214 5.44369 19.3994L3.72787 16.3115C2.77321 14.5928 4.6128 12.6718 6.37142 13.5508L8.03256 14.3809V5.5C8.03256 4.94786 8.48048 4.50024 9.03256 4.5Z" fill="black"/>
<path d="M12.5326 10C13.0847 10.0002 13.5326 10.4478 13.5326 11V14C13.5326 14.5522 13.0847 14.9998 12.5326 15C11.9805 14.9998 11.5326 14.5521 11.5326 14V11C11.5326 10.4479 11.9805 10.0002 12.5326 10Z" fill="black"/>
<path d="M16.0326 10C16.5847 10.0002 17.0326 10.4478 17.0326 11V14C17.0326 14.5522 16.5847 14.9998 16.0326 15C15.4805 14.9998 15.0326 14.5521 15.0326 14V11C15.0326 10.4479 15.4805 10.0002 16.0326 10Z" fill="black"/>
<path d="M9.00033 1C11.4855 1.00018 13.5003 3.01483 13.5003 5.5V7C13.5003 7.55218 13.0525 7.99982 12.5003 8C11.948 8 11.5003 7.55228 11.5003 7V5.5C11.5003 4.1194 10.3809 3.00018 9.00033 3C7.61962 3 6.50033 4.11929 6.50033 5.5V7C6.50033 7.55218 6.05246 7.99982 5.50033 8C4.94805 8 4.50033 7.55228 4.50033 7V5.5C4.50033 3.01472 6.51505 1 9.00033 1Z" fill="black"/>
</svg>
