<svg width="24" height="24" viewBox="0 0 24 24" fill="none" xmlns="http://www.w3.org/2000/svg">
<path d="M16.3252 9.02539C16.5918 8.8921 16.854 8.87908 17.1123 8.9873C17.3706 9.09564 17.5417 9.29186 17.625 9.5752C17.7583 9.95846 17.8538 10.3501 17.9121 10.75C17.9704 11.15 18 11.5502 18 11.9502C18 14.1834 17.2248 16.0838 15.6748 17.6504C14.1249 19.2169 12.2332 20 10 20H9.8252L10.7246 20.9004C10.9079 21.0836 10.9999 21.3165 11 21.5996C11 21.8829 10.9079 22.1165 10.7246 22.2998C10.5414 22.483 10.3085 22.5751 10.0254 22.5752C9.74206 22.5752 9.50853 22.4831 9.3252 22.2998L6.72461 19.7002C6.52467 19.5002 6.42481 19.2666 6.4248 19C6.4248 18.7334 6.52468 18.4998 6.72461 18.2998L9.3252 15.7002C9.50853 15.5169 9.74206 15.4248 10.0254 15.4248C10.3085 15.4249 10.5414 15.517 10.7246 15.7002C10.9079 15.8835 11 16.1171 11 16.4004C10.9999 16.6835 10.9079 16.9164 10.7246 17.0996L9.8252 18H10C11.6667 18 13.0833 17.4123 14.25 16.2373C15.4166 15.0624 16 13.6334 16 11.9502C16 11.6835 15.9835 11.4204 15.9502 11.1621C15.9169 10.9041 15.8586 10.6501 15.7754 10.4004C15.6921 10.1172 15.7 9.8461 15.7998 9.58789C15.8998 9.32956 16.0752 9.14206 16.3252 9.02539Z" fill="black"/>
<path d="M9.97461 1.4248C10.2579 1.4248 10.4915 1.51686 10.6748 1.7002L13.2754 4.2998C13.4753 4.49978 13.5752 4.73338 13.5752 5C13.5752 5.26662 13.4753 5.50022 13.2754 5.7002L10.6748 8.2998C10.4915 8.48313 10.2579 8.5752 9.97461 8.5752C9.69151 8.57511 9.45862 8.48298 9.27539 8.2998C9.09206 8.11647 9 7.88294 9 7.59961C9.00008 7.31645 9.09214 7.08364 9.27539 6.90039L10.1748 6H10C8.33333 6 6.91667 6.5877 5.75 7.7627C4.58344 8.93763 4.00004 10.3666 4 12.0498C4 12.3165 4.01647 12.5796 4.0498 12.8379C4.08313 13.0959 4.1414 13.3499 4.22461 13.5996C4.3079 13.8828 4.30005 14.1539 4.2002 14.4121C4.1002 14.6704 3.9248 14.8579 3.6748 14.9746C3.40822 15.1079 3.14595 15.1209 2.8877 15.0127C2.62936 14.9044 2.45833 14.7081 2.375 14.4248C2.2417 14.0415 2.14622 13.6499 2.08789 13.25C2.02956 12.85 2 12.4498 2 12.0498C2.00004 9.81655 2.77524 7.91623 4.3252 6.34961C5.87514 4.78314 7.7668 4 10 4H10.1748L9.27539 3.09961C9.09214 2.91636 9.00009 2.68354 9 2.40039C9 2.11706 9.09206 1.88353 9.27539 1.7002C9.45863 1.51701 9.6915 1.42489 9.97461 1.4248Z" fill="black"/>
<path d="M21 9C21.2833 9 21.5212 9.09544 21.7129 9.28711C21.9046 9.47878 22 9.71667 22 10C22 10.2833 21.9046 10.5212 21.7129 10.7129C21.5212 10.9046 21.2833 11 21 11C20.7167 11 20.4788 10.9046 20.2871 10.7129C20.0954 10.5212 20 10.2833 20 10C20 9.71667 20.0954 9.47878 20.2871 9.28711C20.4788 9.09544 20.7167 9 21 9Z" fill="black"/>
<path d="M21 3C21.2833 3 21.5212 3.09544 21.7129 3.28711C21.9046 3.47878 22 3.71667 22 4V7C22 7.28333 21.9046 7.52122 21.7129 7.71289C21.5212 7.90456 21.2833 8 21 8C20.7167 8 20.4788 7.90456 20.2871 7.71289C20.0954 7.52122 20 7.28333 20 7V4C20 3.71667 20.0954 3.47878 20.2871 3.28711C20.4788 3.09544 20.7167 3 21 3Z" fill="black"/>
</svg>
