<svg width="24" height="24" viewBox="0 0 24 24" fill="none" xmlns="http://www.w3.org/2000/svg">
<path d="M2.99512 16C3.5474 16 3.99512 16.4477 3.99512 17V20H8.99512C9.5474 20 9.99512 20.4477 9.99512 21C9.99512 21.5523 9.5474 22 8.99512 22H3.99512C2.89055 22 1.99512 21.1046 1.99512 20V17C1.99512 16.4477 2.44283 16 2.99512 16Z" fill="black"/>
<path d="M20.9951 16C21.5474 16 21.9951 16.4477 21.9951 17V20C21.9951 21.1046 21.0997 22 19.9951 22H14.9951C14.4428 22 13.9951 21.5523 13.9951 21C13.9951 20.4477 14.4428 20 14.9951 20H19.9951V17C19.9951 16.4477 20.4428 16 20.9951 16Z" fill="black"/>
<path d="M3.00488 11C3.55717 11 4.00488 11.4477 4.00488 12C4.00488 12.5523 3.55717 13 3.00488 13H2.99512C2.44283 13 1.99512 12.5523 1.99512 12C1.99512 11.4477 2.44283 11 2.99512 11H3.00488Z" fill="black"/>
<path d="M7.50488 11C8.05717 11 8.50488 11.4477 8.50488 12C8.50488 12.5523 8.05717 13 7.50488 13H7.49512C6.94283 13 6.49512 12.5523 6.49512 12C6.49512 11.4477 6.94283 11 7.49512 11H7.50488Z" fill="black"/>
<path d="M12.0049 11C12.5572 11 13.0049 11.4477 13.0049 12C13.0049 12.5523 12.5572 13 12.0049 13H11.9951C11.4428 13 10.9951 12.5523 10.9951 12C10.9951 11.4477 11.4428 11 11.9951 11H12.0049Z" fill="black"/>
<path d="M16.5049 11C17.0572 11 17.5049 11.4477 17.5049 12C17.5049 12.5523 17.0572 13 16.5049 13H16.4951C15.9428 13 15.4951 12.5523 15.4951 12C15.4951 11.4477 15.9428 11 16.4951 11H16.5049Z" fill="black"/>
<path d="M21.0049 11C21.5572 11 22.0049 11.4477 22.0049 12C22.0049 12.5523 21.5572 13 21.0049 13H20.9951C20.4428 13 19.9951 12.5523 19.9951 12C19.9951 11.4477 20.4428 11 20.9951 11H21.0049Z" fill="black"/>
<path d="M8.99512 2C9.5474 2 9.99512 2.44772 9.99512 3C9.99512 3.55228 9.5474 4 8.99512 4H3.99512V7C3.99512 7.55228 3.5474 8 2.99512 8C2.44283 8 1.99512 7.55228 1.99512 7V4C1.99512 2.89543 2.89055 2 3.99512 2H8.99512Z" fill="black"/>
<path d="M19.9951 2C21.0997 2 21.9951 2.89543 21.9951 4V7C21.9951 7.55228 21.5474 8 20.9951 8C20.4428 8 19.9951 7.55228 19.9951 7V4H14.9951C14.4428 4 13.9951 3.55228 13.9951 3C13.9951 2.44772 14.4428 2 14.9951 2H19.9951Z" fill="black"/>
</svg>
