<svg width="24" height="24" viewBox="0 0 24 24" fill="none" xmlns="http://www.w3.org/2000/svg">
<path fill-rule="evenodd" clip-rule="evenodd" d="M11.1426 3.2998C15.474 3.29986 18.9853 6.8112 18.9854 11.1426C18.9853 12.9527 18.3699 14.618 17.3398 15.9453L20.4111 19.0166C20.7961 19.4015 20.7961 20.0262 20.4111 20.4111C20.0262 20.796 19.4015 20.7961 19.0166 20.4111L15.9453 17.3398C14.6181 18.3699 12.9527 18.9853 11.1426 18.9854C6.81123 18.9852 3.29986 15.4739 3.2998 11.1426C3.2999 6.81125 6.81126 3.29994 11.1426 3.2998ZM11.1426 5.27148C7.90005 5.27162 5.27158 7.90004 5.27148 11.1426C5.27154 14.3851 7.90003 17.0135 11.1426 17.0137C12.7276 17.0136 14.1644 16.3841 15.2207 15.3633C15.2418 15.3375 15.264 15.3121 15.2881 15.2881C15.3125 15.2637 15.3381 15.241 15.3643 15.2197C16.3846 14.1635 17.0136 12.7271 17.0137 11.1426C17.0136 7.9 14.3851 5.27154 11.1426 5.27148ZM14.1152 16.5479C13.9752 16.6251 13.8329 16.6992 13.6865 16.7656L13.9668 16.6299C14.0171 16.6039 14.0658 16.5751 14.1152 16.5479ZM15.458 15.5508C15.1218 15.8799 14.7477 16.17 14.3438 16.416C14.7484 16.1697 15.1233 15.8796 15.46 15.5498C15.4734 15.5336 15.4848 15.5152 15.5 15.5C15.4843 15.5157 15.4719 15.534 15.458 15.5508ZM5.16504 12.6846C5.21162 12.8656 5.2669 13.0435 5.3291 13.2178C5.26269 13.0317 5.20482 12.8413 5.15625 12.6475L5.16504 12.6846ZM17.2842 11.75C17.2684 11.9111 17.2447 12.0703 17.2168 12.2275C17.2433 12.0779 17.2667 11.9266 17.2822 11.7734L17.2842 11.75Z" fill="black"/>
</svg>
