<svg width="24" height="24" viewBox="0 0 24 24" fill="none" xmlns="http://www.w3.org/2000/svg">
<path fill-rule="evenodd" clip-rule="evenodd" d="M2.76604 2.4478C3.10672 2.39575 3.40419 2.48986 3.56194 2.54448C3.76749 2.61574 4.0139 2.72751 4.25822 2.83745L20.976 10.3599C21.2147 10.4673 21.457 10.576 21.644 10.6812C21.7892 10.763 22.0532 10.9212 22.2387 11.2066L22.3129 11.3365L22.3803 11.4966C22.5161 11.8771 22.4941 12.3 22.3129 12.6666C22.1305 13.0351 21.8098 13.2285 21.644 13.3218C21.4569 13.4271 21.2148 13.5357 20.976 13.6431L4.26408 21.1626C4.01898 21.2729 3.77275 21.3852 3.56682 21.4566C3.38667 21.519 3.02259 21.6329 2.62053 21.521C2.16625 21.3943 1.79697 21.0609 1.62541 20.6216C1.47369 20.2326 1.55192 19.8591 1.59612 19.6734C1.64661 19.4613 1.7334 19.2048 1.81877 18.9498L4.13225 12.0376L1.81096 5.04546C1.72662 4.79135 1.6411 4.53544 1.59123 4.32378C1.54755 4.13814 1.47128 3.76469 1.62346 3.37652L1.6967 3.21734C1.88868 2.85817 2.2204 2.58957 2.6176 2.47905L2.76604 2.4478ZM5.89494 11.0015H10.686C11.238 11.0018 11.686 11.4494 11.686 12.0015C11.6856 12.5534 11.2378 13.0013 10.686 13.0015H5.91936L3.85979 19.1519L19.7485 12.0005L3.85197 4.84722L5.89494 11.0015Z" fill="black"/>
</svg>
