<svg width="24" height="24" viewBox="0 0 24 24" fill="none" xmlns="http://www.w3.org/2000/svg">
<path fill-rule="evenodd" clip-rule="evenodd" d="M12 8.68848C13.857 8.68855 15.3623 10.1938 15.3623 12.0508C15.3622 13.9077 13.8569 15.414 12 15.4141C10.143 15.4141 8.63682 13.9078 8.63672 12.0508C8.63675 10.1937 10.143 8.68848 12 8.68848ZM12 10.4131C11.0957 10.4131 10.3623 11.1464 10.3623 12.0508C10.3624 12.9551 11.0957 13.6885 12 13.6885C12.9042 13.6884 13.6376 12.955 13.6377 12.0508C13.6377 11.1465 12.9043 10.4132 12 10.4131Z" fill="black"/>
<path fill-rule="evenodd" clip-rule="evenodd" d="M13.251 2.1875C13.6703 2.18779 14.0291 2.49101 14.1006 2.9043L14.458 4.9707C14.7357 5.0671 15.0068 5.17961 15.2686 5.30664L16.9834 4.09766C17.3263 3.85626 17.7933 3.89679 18.0898 4.19336L19.8574 5.96094C20.154 6.25753 20.1946 6.72545 19.9531 7.06836L18.7441 8.78223C18.8712 9.04393 18.9837 9.31508 19.0801 9.59277L21.1465 9.9502C21.5597 10.0217 21.8629 10.3805 21.8633 10.7998V13.3018C21.863 13.7211 21.5598 14.0799 21.1465 14.1514L19.0801 14.5088C18.9837 14.7863 18.8701 15.0567 18.7432 15.3184L19.9531 17.0342C20.1943 17.3769 20.1537 17.8431 19.8574 18.1396L18.0898 19.9082C17.7932 20.2049 17.3254 20.2446 16.9824 20.0029L15.2686 18.7949C15.0069 18.9219 14.7356 19.0335 14.458 19.1299L14.1006 21.1973C14.029 21.6105 13.6694 21.9129 13.25 21.9131H10.749C10.3296 21.9129 9.97098 21.6105 9.89941 21.1973L9.54199 19.1299C9.26446 19.0335 8.99399 18.9218 8.73242 18.7949L7.0166 20.0029C6.67381 20.2445 6.20782 20.2045 5.91113 19.9082L4.14258 18.1396C3.84601 17.843 3.80617 17.3771 4.04785 17.0342L5.25586 15.3184C5.12892 15.0568 5.01725 14.7863 4.9209 14.5088L2.85352 14.1514C2.44023 14.0799 2.13701 13.7211 2.13672 13.3018V10.7998C2.13706 10.3805 2.44028 10.0217 2.85352 9.9502L4.9209 9.59277C5.01729 9.31509 5.12885 9.04393 5.25586 8.78223L4.04785 7.06836C3.80605 6.72541 3.84586 6.25766 4.14258 5.96094L5.91113 4.19336C6.20772 3.89692 6.67375 3.85629 7.0166 4.09766L8.73242 5.30664C8.99406 5.17967 9.26437 5.06707 9.54199 4.9707L9.89941 2.9043C9.9709 2.491 10.3296 2.18777 10.749 2.1875H13.251ZM11.1523 5.78711C11.0949 6.11919 10.8482 6.38728 10.5225 6.47363C10.0194 6.60657 9.54218 6.80647 9.10254 7.0625C8.81113 7.23212 8.4485 7.21566 8.17285 7.02148L6.61719 5.92578L5.87598 6.66699L6.97168 8.22266C7.16594 8.49825 7.18221 8.86188 7.0127 9.15332C6.7567 9.59288 6.55677 10.0693 6.42383 10.5723C6.33767 10.8984 6.06867 11.1446 5.73633 11.2021L3.86328 11.5264V12.5752L5.73633 12.8984C6.06855 12.9559 6.33755 13.2024 6.42383 13.5283C6.55677 14.0315 6.75663 14.5086 7.0127 14.9482C7.18213 15.2397 7.1659 15.6043 6.97168 15.8799L5.87598 17.4336L6.61719 18.1748L8.1709 17.0791C8.44654 16.8848 8.81108 16.8685 9.10254 17.0381C9.54221 17.2942 10.0193 17.494 10.5225 17.627C10.8482 17.7133 11.0949 17.9823 11.1523 18.3145L11.4756 20.1875H12.5244L12.8486 18.3145C12.9061 17.9821 13.1524 17.7131 13.4785 17.627C13.9814 17.494 14.458 17.294 14.8975 17.0381C15.1889 16.8687 15.5526 16.8849 15.8281 17.0791L17.3838 18.1748L18.125 17.4336L17.0273 15.8799C16.8329 15.6041 16.8185 15.2398 16.9883 14.9482C17.2443 14.5086 17.4439 14.0317 17.5771 13.5283C17.6636 13.2026 17.9316 12.9559 18.2637 12.8984L20.1377 12.5752V11.5264L18.2637 11.2021C17.9313 11.1446 17.6633 10.8983 17.5771 10.5723C17.4442 10.0693 17.2442 9.59285 16.9883 9.15332C16.8187 8.86185 16.835 8.49829 17.0293 8.22266L18.125 6.66699L17.3838 5.92578L15.8281 7.02148C15.5525 7.2158 15.1889 7.23214 14.8975 7.0625C14.4579 6.80654 13.9815 6.60657 13.4785 6.47363C13.1526 6.38745 12.9062 6.11931 12.8486 5.78711L12.5244 3.91309H11.4756L11.1523 5.78711Z" fill="black"/>
</svg>
