<svg width="24" height="24" viewBox="0 0 24 24" fill="none" xmlns="http://www.w3.org/2000/svg">
<path d="M8 10.0001C8.55225 10.0001 8.99995 10.4478 9 11.0001V17.0001C9 17.5524 8.55228 18.0001 8 18.0001C7.44771 18.0001 7 17.5524 7 17.0001V11.0001C7.00004 10.4478 7.44774 10.0001 8 10.0001Z" fill="black"/>
<path d="M16 10.0001C16.5523 10.0001 17 10.4478 17 11.0001V17.0001C17 17.5524 16.5523 18.0001 16 18.0001C15.4477 18.0001 15 17.5524 15 17.0001V11.0001C15 10.4478 15.4477 10.0001 16 10.0001Z" fill="black"/>
<path fill-rule="evenodd" clip-rule="evenodd" d="M12 2.00008C12.8655 2.00008 13.4944 1.99194 14.0352 2.1368C15.4155 2.50665 16.4934 3.58466 16.8633 4.96493C16.9456 5.27231 16.9763 5.6084 16.9893 6.00008H18.7998C19.3433 6.00008 19.8116 5.99901 20.1953 6.03036C20.5905 6.06266 20.984 6.13452 21.3623 6.32723C21.9265 6.61478 22.3853 7.07364 22.6728 7.63778C22.8656 8.01601 22.9374 8.40958 22.9697 8.80477C23.0011 9.18839 23 9.65682 23 10.2003V17.7999C23 18.3433 23.0011 18.8118 22.9697 19.1954C22.9374 19.5906 22.8655 19.9841 22.6728 20.3624C22.3853 20.9266 21.9265 21.3854 21.3623 21.6729C20.984 21.8657 20.5906 21.9375 20.1953 21.9698C19.8116 22.0012 19.3434 22.0001 18.7998 22.0001H5.20019C4.65665 22.0001 4.18835 22.0012 3.80468 21.9698C3.40944 21.9375 3.01598 21.8657 2.63769 21.6729C2.07352 21.3854 1.6147 20.9266 1.32715 20.3624C1.13446 19.9841 1.06258 19.5906 1.03027 19.1954C0.998941 18.8118 0.999997 18.3433 0.999997 17.7999V10.2003C0.999997 9.65682 0.998927 9.18839 1.03027 8.80477C1.06259 8.40958 1.13443 8.01601 1.32715 7.63778C1.61472 7.07363 2.07352 6.61478 2.63769 6.32723C3.01597 6.13451 3.40945 6.06267 3.80468 6.03036C4.18835 5.99901 4.65665 6.00008 5.20019 6.00008H7.01074C7.02368 5.6084 7.05435 5.27231 7.13672 4.96493C7.50663 3.58465 8.58454 2.50665 9.96484 2.1368C10.5055 1.99193 11.1344 2.00008 12 2.00008ZM5.20019 8.00008C4.62365 8.00008 4.2511 8.00135 3.96777 8.0245C3.69632 8.04668 3.59536 8.08427 3.5459 8.10946C3.35798 8.20527 3.20522 8.35809 3.10937 8.54598C3.08419 8.59541 3.04661 8.69643 3.02441 8.96786C3.00126 9.25116 3 9.62385 3 10.2003V17.7999C3 18.3763 3.00128 18.749 3.02441 19.0323C3.04658 19.3036 3.08418 19.4047 3.10937 19.4542C3.20519 19.6421 3.35797 19.7949 3.5459 19.8907C3.59533 19.9159 3.69621 19.9535 3.96777 19.9757C4.2511 19.9988 4.62365 20.0001 5.20019 20.0001H18.7998C19.3764 20.0001 19.7489 19.9988 20.0322 19.9757C20.3038 19.9535 20.4047 19.9159 20.4541 19.8907C20.642 19.7949 20.7948 19.6421 20.8906 19.4542C20.9158 19.4047 20.9534 19.3036 20.9756 19.0323C20.9987 18.749 21 18.3763 21 17.7999V10.2003C21 9.62385 20.9987 9.25116 20.9756 8.96786C20.9534 8.69643 20.9158 8.59541 20.8906 8.54598C20.7948 8.35809 20.642 8.20527 20.4541 8.10946C20.4046 8.08427 20.3036 8.04668 20.0322 8.0245C19.7489 8.00135 19.3763 8.00008 18.7998 8.00008H5.20019ZM12 4.00008C11.0057 4.00008 10.7047 4.00889 10.4824 4.06844C9.7923 4.25336 9.25334 4.79241 9.06836 5.48251C9.03654 5.60126 9.01993 5.74267 9.01074 6.00008H14.9893C14.9801 5.74267 14.9635 5.60126 14.9316 5.48251C14.7467 4.79242 14.2077 4.25336 13.5176 4.06844C13.2953 4.0089 12.9942 4.00008 12 4.00008Z" fill="black"/>
</svg>
