<svg width="24" height="24" viewBox="0 0 24 24" fill="none" xmlns="http://www.w3.org/2000/svg">
<path fill-rule="evenodd" clip-rule="evenodd" d="M18.5288 1C19.0724 1 19.5407 0.998931 19.9243 1.03028C20.3196 1.06259 20.713 1.1344 21.0913 1.32715C21.6555 1.61472 22.1143 2.07348 22.4019 2.6377C22.5946 3.01599 22.6664 3.40944 22.6987 3.80469C22.7301 4.18836 22.729 4.65665 22.729 5.2002V9.79981C22.729 10.3434 22.7301 10.8116 22.6987 11.1953C22.6664 11.5906 22.5946 11.984 22.4019 12.3623C22.1143 12.9265 21.6555 13.3853 21.0913 13.6729C20.713 13.8656 20.3196 13.9374 19.9243 13.9697C19.5407 14.0011 19.0724 14 18.5288 14H17.7691C17.5683 14 17.4642 14 17.3892 14.0049C17.3868 14.005 17.3845 14.0047 17.3823 14.0049C17.3813 14.0069 17.3806 14.0095 17.3794 14.0117C17.3445 14.0783 17.3017 14.1731 17.2202 14.3565L13.8599 21.918C13.5675 22.5759 12.9148 23 12.1948 23C10.2807 23 8.72903 21.4483 8.72902 19.5342V16.5996C8.72902 16.3033 8.72877 16.141 8.71925 16.0244C8.71889 16.0199 8.71767 16.0157 8.7173 16.0117C8.71331 16.0114 8.70905 16.0111 8.70461 16.0107C8.58807 16.0012 8.4257 16 8.12941 16H7.32375C6.37779 16 5.60398 16.0009 4.98293 15.9473C4.35241 15.8928 3.77401 15.7763 3.24855 15.4775C2.44162 15.0187 1.81967 14.2931 1.48878 13.4258C1.27332 12.8609 1.2455 12.2713 1.28761 11.6397C1.32909 11.0177 1.44749 10.2533 1.59132 9.31836L2.11476 5.91797C2.22356 5.21077 2.31293 4.62495 2.42335 4.1504C2.53661 3.66376 2.6867 3.22215 2.95265 2.81446C3.36873 2.17674 3.9583 1.67072 4.65187 1.35645C5.09539 1.15549 5.55488 1.07407 6.05324 1.03614C6.53909 0.999155 7.13162 1 7.84718 1H18.5288ZM7.84718 3C7.10131 3 6.59703 3.00041 6.20461 3.03028C5.82498 3.0592 5.62369 3.11228 5.47707 3.17872C5.13047 3.33586 4.83541 3.58851 4.62746 3.90723C4.53956 4.04203 4.45786 4.23293 4.3716 4.60352C4.2824 4.98684 4.20474 5.48545 4.09132 6.22266L3.56789 9.62208C3.41866 10.5921 3.31714 11.2566 3.28273 11.7725C3.24897 12.2787 3.28971 12.5366 3.35695 12.7129C3.52231 13.1464 3.83356 13.5088 4.23683 13.7383C4.40081 13.8315 4.64956 13.9115 5.1548 13.9551C5.66984 13.9995 6.3424 14 7.32375 14H8.12941C8.39281 14 8.65087 13.9989 8.86769 14.0166C9.0962 14.0353 9.36595 14.0796 9.63722 14.2178C9.96646 14.3855 10.2419 14.6409 10.4341 14.9541L10.5112 15.0918L10.5982 15.2949C10.6697 15.4958 10.6984 15.6901 10.7124 15.8613C10.7301 16.0781 10.729 16.3362 10.729 16.5996V19.5342C10.729 20.3052 11.3245 20.9347 12.0806 20.9932L15.3931 13.544C15.4797 13.349 15.5808 13.1052 15.729 12.8789V3H7.84718ZM17.729 12H18.5288C19.1054 12 19.4779 11.9987 19.7612 11.9756C20.0328 11.9534 20.1337 11.9158 20.1831 11.8906C20.3711 11.7948 20.5238 11.6421 20.6196 11.4541C20.6448 11.4047 20.6834 11.3038 20.7056 11.0322C20.7287 10.7489 20.729 10.3764 20.729 9.79981V5.2002C20.729 4.62365 20.7287 4.25111 20.7056 3.96778C20.6834 3.69615 20.6448 3.59535 20.6196 3.5459C20.5238 3.35794 20.3711 3.20522 20.1831 3.10938C20.1337 3.08419 20.0328 3.04662 19.7612 3.02442C19.4779 3.00127 19.1054 3 18.5288 3H17.729V12Z" fill="black"/>
</svg>
