<svg width="24" height="24" viewBox="0 0 24 24" fill="none" xmlns="http://www.w3.org/2000/svg">
<path fill-rule="evenodd" clip-rule="evenodd" d="M18.1576 1.61127C18.5482 1.22161 19.1814 1.22114 19.5717 1.61127C19.9615 2.00156 19.9613 2.63489 19.5717 3.02533L15.0863 7.51068V9.68256C15.0866 11.3423 16.4265 12.6826 18.0863 12.6826V14.6826H12.0561V21.6826L11.0561 22.6826L10.0561 21.6826V14.6826H7.91447L5.42912 17.1679C5.0387 17.5579 4.40549 17.5579 4.01505 17.1679C3.62477 16.7775 3.62494 16.1444 4.01505 15.7538L18.1576 1.61127ZM9.91447 12.6826H14.0863C13.4565 11.8427 13.0864 10.8023 13.0863 9.68256V9.51068L9.91447 12.6826Z" fill="black"/>
<path d="M12.2582 4.68256H9.08634V7.85443L7.08146 9.85932C7.08481 9.80115 7.08633 9.74158 7.08634 9.68256V4.68256H6.08634C5.5365 4.68256 5.08659 4.23235 5.08634 3.68256C5.08658 3.13276 5.53648 2.68256 6.08634 2.68256H14.2582L12.2582 4.68256Z" fill="black"/>
</svg>
