<svg width="24" height="24" viewBox="0 0 24 24" fill="none" xmlns="http://www.w3.org/2000/svg">
<path fill-rule="evenodd" clip-rule="evenodd" d="M18.7002 4C19.5335 4 20.2419 4.29167 20.8252 4.875C21.4085 5.45833 21.7002 6.16667 21.7002 7C21.7002 7.83333 21.4085 8.54167 20.8252 9.125L7.72559 22.2002C7.52563 22.4001 7.29198 22.5 7.02539 22.5C6.75877 22.5 6.52517 22.4001 6.3252 22.2002L3.5 19.375C3.30006 19.175 3.2002 18.9414 3.2002 18.6748C3.20024 18.4082 3.30005 18.1746 3.5 17.9746L16.5752 4.875C17.1585 4.29167 17.8669 4 18.7002 4ZM5.625 18.6748L7.02539 20.0996L17.2998 9.8252L15.875 8.4248L5.625 18.6748Z" fill="black"/>
<path d="M18.8486 17.334C18.982 17.334 19.0992 17.3844 19.1992 17.4844L20.499 18.7842C20.5989 18.8841 20.6484 19.0006 20.6484 19.1338C20.6484 19.2671 20.599 19.3844 20.499 19.4844L19.1992 20.7842C19.0992 20.8842 18.982 20.9336 18.8486 20.9336C18.7155 20.9335 18.5989 20.884 18.499 20.7842L17.1992 19.4844C17.0992 19.3844 17.0488 19.2671 17.0488 19.1338C17.0489 19.0005 17.0993 18.8841 17.1992 18.7842L18.499 17.4844C18.599 17.3844 18.7154 17.334 18.8486 17.334Z" fill="black"/>
<path d="M21 11.5C21.1333 11.5 21.2506 11.5504 21.3506 11.6504L22.6504 12.9502C22.7502 13.0501 22.7998 13.1666 22.7998 13.2998C22.7998 13.4331 22.7504 13.5504 22.6504 13.6504L21.3506 14.9502C21.2506 15.0502 21.1333 15.0996 21 15.0996C20.8668 15.0996 20.7503 15.05 20.6504 14.9502L19.3506 13.6504C19.2506 13.5504 19.2002 13.4331 19.2002 13.2998C19.2002 13.1666 19.2506 13.0501 19.3506 12.9502L20.6504 11.6504C20.7503 11.5504 20.8667 11.5 21 11.5Z" fill="black"/>
<path d="M6.2002 1.5C6.2002 2.89394 6.6846 4.0762 7.6543 5.0459C8.62399 6.0156 9.80626 6.5 11.2002 6.5C9.80626 6.5 8.62399 6.9844 7.6543 7.9541C6.6846 8.9238 6.2002 10.1061 6.2002 11.5C6.2002 10.1061 5.71579 8.9238 4.74609 7.9541C3.7764 6.9844 2.59413 6.5 1.2002 6.5C2.59413 6.5 3.7764 6.0156 4.74609 5.0459C5.71579 4.0762 6.2002 2.89394 6.2002 1.5Z" fill="black"/>
</svg>
