<svg width="24" height="24" viewBox="0 0 24 24" fill="none" xmlns="http://www.w3.org/2000/svg">
<path fill-rule="evenodd" clip-rule="evenodd" d="M12 3C16.9707 3 21 7.02931 21 12C21 16.9707 16.9707 21 12 21C7.02931 21 3 16.9707 3 12C3 7.02931 7.02931 3 12 3ZM11.7236 4.75586C11.4236 4.76711 11.1287 4.79696 10.8389 4.84375V5.25391C10.8389 5.68576 10.3842 5.9665 9.99805 5.77344L9.12695 5.33789C7.46345 6.05826 6.12468 7.38398 5.38184 9.03516C5.74211 9.56922 6.29631 10.3909 6.63672 10.8906C6.82417 11.1668 7.04426 11.4199 7.29199 11.6436L7.32129 11.6699C7.66778 11.9823 8.05322 12.2492 8.46973 12.459C8.9777 12.7148 9.71973 13.1178 10.2412 13.4062C10.611 13.6106 10.8389 13.9995 10.8389 14.4219V15.583C10.8389 15.891 10.9611 16.1866 11.1787 16.4043C11.7227 16.9483 12.0613 17.8067 12 18.2646V19.2578C12.5317 19.2578 13.0485 19.1968 13.5479 19.0879L14.1787 17.3877C14.2527 17.1885 14.2968 16.9808 14.3516 16.7754C14.3904 16.6299 14.4677 16.4956 14.5762 16.3867C14.6966 16.2659 14.8449 16.1183 14.9863 15.9775C15.144 15.8207 15.269 15.6341 15.3545 15.4287C15.4399 15.2233 15.4843 15.0027 15.4844 14.7803C15.4843 14.4869 15.3676 14.2056 15.1602 13.998L14.6631 13.501C14.445 13.2833 14.1498 13.1611 13.8418 13.1611H11.4199C11.0785 12.9903 10.6405 12.0006 10.2588 12C9.87701 12 9.4997 11.9112 9.1582 11.7402L8.75684 11.5391C8.60986 11.4654 8.5166 11.3148 8.5166 11.1504C8.51666 11.0595 8.54551 10.9712 8.59863 10.8975C8.65176 10.8237 8.72632 10.7681 8.8125 10.7393L9.94434 10.3623C10.04 10.3305 10.1423 10.324 10.2412 10.3438C10.3402 10.3635 10.4326 10.4085 10.5088 10.4746L10.8457 10.7676C10.8982 10.813 10.9654 10.8378 11.0352 10.8379H11.2402C11.4557 10.8378 11.5964 10.611 11.5 10.418L10.9336 9.28613C10.9062 9.23119 10.8971 9.16892 10.9072 9.1084C10.9175 9.04767 10.9471 8.99121 10.9912 8.94824L11.3516 8.59863C11.406 8.54565 11.4782 8.51562 11.5537 8.51562H11.8799C11.9569 8.51565 12.0305 8.48502 12.085 8.43066L12.376 8.14062C12.4889 8.02751 12.4888 7.84368 12.376 7.73047L12.2051 7.55957C12.0922 7.44637 12.0921 7.26255 12.2051 7.14941L12.5811 6.77441L12.751 6.60449C12.9778 6.37772 12.9777 6.01003 12.751 5.7832L11.7236 4.75586ZM18.0137 8.99414C17.878 9.06161 17.7619 9.16321 17.6777 9.28906L16.9668 10.3555C16.8713 10.4985 16.8203 10.6669 16.8203 10.8389C16.8203 11.0106 16.8715 11.1784 16.9668 11.3213L17.6191 12.3008C17.7392 12.4811 17.9228 12.6094 18.1328 12.6621L19.1924 12.9268C19.2316 12.6227 19.2578 12.3146 19.2578 12C19.2578 10.834 18.975 9.73475 18.4844 8.75781L18.0137 8.99414Z" fill="black"/>
</svg>
