<svg width="24" height="24" viewBox="0 0 24 24" fill="none" xmlns="http://www.w3.org/2000/svg">
<path d="M16.4189 15C16.5931 15.0001 16.7333 15.064 16.8398 15.1914C16.9464 15.3191 17 15.4685 17 15.6387C16.9997 15.6817 16.9411 15.8304 16.8252 16.085L12.6104 20.7129C12.5135 20.8192 12.4162 20.894 12.3193 20.9365C12.2226 20.9789 12.1161 21 12 21C11.8839 21 11.7774 20.9789 11.6807 20.9365C11.5838 20.894 11.4865 20.8192 11.3896 20.7129L7.1748 16.085C7.11676 16.0212 7.07302 15.9523 7.04395 15.8779C7.01492 15.8036 7.00004 15.7236 7 15.6387C7 15.4685 7.05357 15.3191 7.16016 15.1914C7.26666 15.064 7.40688 15.0001 7.58105 15H16.4189Z" fill="black"/>
<path d="M12 3C12.1161 3 12.2226 3.02107 12.3193 3.06348C12.4162 3.10601 12.5135 3.18079 12.6104 3.28711L16.8252 7.91504C16.9411 8.16962 16.9997 8.31828 17 8.36133C17 8.53154 16.9464 8.68093 16.8398 8.80859C16.7333 8.93605 16.5931 8.99992 16.4189 9H7.58105C7.40688 8.99992 7.26666 8.93605 7.16016 8.80859C7.05357 8.68093 7 8.53154 7 8.36133C7.00004 8.27636 7.01492 8.19643 7.04395 8.12207C7.07302 8.04774 7.11676 7.97877 7.1748 7.91504L11.3896 3.28711C11.4865 3.18079 11.5838 3.10601 11.6807 3.06348C11.7774 3.02107 11.8839 3 12 3Z" fill="black"/>
</svg>
