<svg width="24" height="24" viewBox="0 0 24 24" fill="none" xmlns="http://www.w3.org/2000/svg">
<path d="M12.2129 4.41944C12.4793 4.4112 12.7122 4.50675 12.9121 4.70654L19.5127 11.3062C19.6126 11.4061 19.6829 11.5148 19.7246 11.6313C19.7663 11.748 19.7871 11.8731 19.7871 12.0063C19.7871 12.1397 19.7663 12.2647 19.7246 12.3813C19.6829 12.498 19.6127 12.6066 19.5127 12.7065L12.9121 19.3062C12.7288 19.4895 12.4996 19.5815 12.2246 19.5815C11.9498 19.5815 11.7126 19.4894 11.5127 19.3062C11.3128 19.1062 11.213 18.8691 11.2129 18.5942C11.2129 18.3192 11.3127 18.0813 11.5127 17.8813L16.3877 13.0063H5.21289C4.92962 13.0063 4.69164 12.9108 4.5 12.7192C4.30833 12.5276 4.21289 12.2897 4.21289 12.0063C4.21292 11.7232 4.30853 11.486 4.5 11.2944C4.69167 11.1028 4.92956 11.0063 5.21289 11.0063H16.3877L11.4873 6.10694C11.2874 5.907 11.1919 5.67329 11.2002 5.40674C11.2085 5.14008 11.3127 4.90654 11.5127 4.70654C11.7127 4.52324 11.9462 4.42777 12.2129 4.41944Z" fill="black"/>
</svg>
