<svg width="24" height="24" viewBox="0 0 24 24" fill="none" xmlns="http://www.w3.org/2000/svg">
<path fill-rule="evenodd" clip-rule="evenodd" d="M12 3C16.9707 3 21 7.02931 21 12C21 16.9707 16.9707 21 12 21C7.02931 21 3 16.9707 3 12C3 7.02931 7.02931 3 12 3ZM15.1494 13.1621C15.0891 13.1621 15.0305 13.1808 14.9814 13.2158L14.1211 13.8281C14.0583 13.8728 13.9898 13.9108 13.918 13.9395L12.4902 14.5098C12.3799 14.554 12.3076 14.6616 12.3076 14.7803V15.1504C12.3077 15.2273 12.3383 15.3011 12.3926 15.3555L12.8252 15.7881C12.934 15.8967 13.0817 15.958 13.2354 15.958H13.6104C13.6578 15.958 13.705 15.952 13.751 15.9404L14.5234 15.7471C14.6861 15.7064 14.857 15.7092 15.0186 15.7539C15.18 15.7987 15.3268 15.8845 15.4453 16.0029L15.918 16.4746C16.0268 16.5834 16.1743 16.6454 16.3281 16.6455H16.8789C17.0326 16.6454 17.1803 16.5834 17.2891 16.4746L17.6367 16.1279C17.7455 16.0191 17.8057 15.8706 17.8057 15.7168V14.8242C17.8056 14.6704 17.7446 14.5229 17.6357 14.4141L17.2041 13.9814C17.1497 13.927 17.1191 13.8533 17.1191 13.7764V13.3076C17.1191 13.2274 17.0538 13.1621 16.9736 13.1621H16.7539C16.6893 13.1621 16.6324 13.2045 16.6143 13.2666L16.4619 13.792C16.444 13.8535 16.3868 13.8965 16.3223 13.8965H16.1846C16.1561 13.8965 16.1282 13.8878 16.1045 13.8721C16.0807 13.8562 16.0618 13.8331 16.0508 13.8066L15.8564 13.3408C15.8115 13.2325 15.7059 13.1623 15.5889 13.1621H15.1494ZM12 4.74219C7.9979 4.74219 4.74219 7.9979 4.74219 12C4.74219 12.3963 4.78242 12.7823 4.84375 13.1611H7.11426C7.2681 13.1611 7.41653 13.1 7.52539 12.9912L8.23145 12.2842C8.37154 12.1442 8.60776 12.1833 8.69629 12.3604L9.51758 14.001C9.61592 14.198 9.81719 14.3223 10.0371 14.3223H10.2588C10.5793 14.3221 10.8387 14.0628 10.8389 13.7422V13.4023C10.8389 13.2485 10.7778 13.1001 10.6689 12.9912L10.4639 12.7861C10.3506 12.6729 10.3506 12.4892 10.4639 12.376L10.6689 12.1699C10.7777 12.0612 10.9254 12.0001 11.0791 12H11.0908C11.2947 11.9999 11.484 11.8926 11.5889 11.7178L12.2188 10.667C12.2842 10.5588 12.4434 10.5656 12.5 10.6787C12.549 10.7769 12.6499 10.8388 12.7598 10.8389H12.8711C13.0313 10.8388 13.1609 10.709 13.1611 10.5488V7.71387C13.1611 7.49409 13.0373 7.29275 12.8408 7.19434L12.4473 6.99805C12.2481 6.89823 12.2306 6.61984 12.416 6.49609L14.2363 5.09863C13.5312 4.86967 12.7806 4.74219 12 4.74219Z" fill="black"/>
</svg>
