<svg width="24" height="24" viewBox="0 0 24 24" fill="none" xmlns="http://www.w3.org/2000/svg">
<path d="M8 18C9.1 18 10 18.9 10 20C10 21.1 9.1 22 8 22C6.9 22 6.00977 21.1 6.00977 20C6.00977 18.9 6.9 18 8 18Z" fill="black"/>
<path d="M18 18C19.1 18 20 18.9 20 20C20 21.1 19.1 22 18 22C16.9 22 16.0098 21.1 16.0098 20C16.0098 18.9 16.9 18 18 18Z" fill="black"/>
<path d="M6.20996 4H21C21.55 4 22 4.45 22 5C22 5.17 21.9599 5.34047 21.8799 5.48047L18.2998 11.9697C17.9598 12.5897 17.2998 13 16.5498 13H9.09961L8.2002 14.6299L8.16992 14.75C8.16992 14.89 8.27996 15 8.41992 15H19C19.5523 15 20 15.4477 20 16C20 16.5523 19.5523 17 19 17H8C6.9 17 6 16.1 6 15C6 14.65 6.09001 14.32 6.25 14.04L7.59961 11.5898L4 4H3C2.44772 4 2 3.55228 2 3C2 2.44772 2.44772 2 3 2H5.26953L6.20996 4Z" fill="black"/>
</svg>
