<svg width="24" height="24" viewBox="0 0 24 24" fill="none" xmlns="http://www.w3.org/2000/svg">
<path d="M10.9814 6.41945C11.2562 6.41122 11.4935 6.50669 11.6934 6.70656C11.8767 6.88988 11.9687 7.12343 11.9688 7.40675C11.9687 7.68996 11.8766 7.92367 11.6934 8.10695L7.81836 12.0064L11.6934 15.9068C11.8767 16.0901 11.9731 16.3193 11.9814 16.5943C11.9897 16.8691 11.8932 17.1063 11.6934 17.3062C11.51 17.4895 11.2765 17.5816 10.9932 17.5816C10.71 17.5815 10.4772 17.4894 10.2939 17.3062L5.69336 12.7066C5.5934 12.6066 5.52311 12.498 5.48145 12.3814C5.43978 12.2647 5.41895 12.1397 5.41895 12.0064C5.41896 11.8731 5.43979 11.748 5.48145 11.6314C5.52312 11.5148 5.59344 11.4061 5.69336 11.3062L10.2939 6.70656C10.4772 6.52335 10.7065 6.42778 10.9814 6.41945Z" fill="black"/>
<path d="M17.5811 6.41945C17.856 6.41112 18.094 6.50657 18.2939 6.70656C18.4771 6.88985 18.5684 7.12356 18.5684 7.40675C18.5683 7.68996 18.4772 7.92367 18.2939 8.10695L14.4189 12.0064L18.2939 15.9068C18.477 16.09 18.5727 16.3194 18.5811 16.5943C18.5893 16.869 18.4936 17.1063 18.2939 17.3062C18.1107 17.4894 17.877 17.5815 17.5938 17.5816C17.3104 17.5816 17.0769 17.4895 16.8936 17.3062L12.2939 12.7066C12.194 12.6066 12.1227 12.498 12.0811 12.3814C12.0394 12.2647 12.0186 12.1396 12.0186 12.0064C12.0186 11.8731 12.0394 11.748 12.0811 11.6314C12.1227 11.5147 12.194 11.4061 12.2939 11.3062L16.8936 6.70656C17.0769 6.52323 17.3061 6.42778 17.5811 6.41945Z" fill="black"/>
</svg>
