<svg width="24" height="24" viewBox="0 0 24 24" fill="none" xmlns="http://www.w3.org/2000/svg">
<path d="M16.5942 11.7192C16.869 11.711 17.1062 11.8066 17.3061 12.0064C17.4895 12.1897 17.5815 12.4232 17.5815 12.7065C17.5815 12.9899 17.4895 13.2234 17.3061 13.4067L12.7065 18.0064C12.6065 18.1063 12.498 18.1776 12.3813 18.2192C12.2647 18.2609 12.1396 18.2817 12.0063 18.2817C11.8731 18.2817 11.748 18.2609 11.6313 18.2192C11.5147 18.1776 11.4061 18.1063 11.3061 18.0064L6.70653 13.4067C6.52325 13.2235 6.4278 12.9941 6.41942 12.7192C6.41109 12.4442 6.50653 12.2063 6.70653 12.0064C6.88984 11.8231 7.12345 11.7319 7.40672 11.7319C7.68994 11.732 7.92364 11.8231 8.10692 12.0064L12.0063 15.8814L15.9067 12.0064C16.09 11.8232 16.3193 11.7276 16.5942 11.7192Z" fill="black"/>
<path d="M16.5942 5.71924C16.869 5.71098 17.1062 5.80659 17.3061 6.00635C17.4895 6.18968 17.5815 6.42322 17.5815 6.70655C17.5815 6.98986 17.4895 7.22342 17.3061 7.40674L12.7065 12.0064C12.6065 12.1063 12.498 12.1776 12.3813 12.2192C12.2647 12.2609 12.1396 12.2817 12.0063 12.2817C11.8731 12.2817 11.748 12.2609 11.6313 12.2192C11.5147 12.1776 11.4061 12.1063 11.3061 12.0064L6.70653 7.40674C6.52325 7.22346 6.4278 6.99414 6.41942 6.71924C6.41109 6.44425 6.50653 6.20635 6.70653 6.00635C6.88984 5.8231 7.12345 5.73194 7.40672 5.73194C7.68994 5.73199 7.92364 5.82308 8.10692 6.00635L12.0063 9.88135L15.9067 6.00635C16.09 5.82316 16.3193 5.72757 16.5942 5.71924Z" fill="black"/>
</svg>
