<svg width="24" height="24" viewBox="0 0 24 24" fill="none" xmlns="http://www.w3.org/2000/svg">
<path d="M6.40675 6.41797C6.68996 6.41803 6.92367 6.51009 7.10695 6.69336L11.7066 11.2939C11.8064 11.3938 11.8778 11.5017 11.9194 11.6182C11.9611 11.7347 11.9819 11.8599 11.9819 11.9932C11.9819 12.1263 11.961 12.2516 11.9194 12.3682C11.8778 12.4848 11.8065 12.5934 11.7066 12.6934L7.10695 17.2939C6.92372 17.4772 6.69423 17.5726 6.41945 17.5811C6.14459 17.5894 5.90649 17.4937 5.70656 17.2939C5.5233 17.1107 5.43123 16.8769 5.43117 16.5938C5.43117 16.3104 5.52324 16.0769 5.70656 15.8936L9.58156 11.9932L5.70656 8.09375C5.5233 7.91049 5.42784 7.68111 5.41945 7.40625C5.41111 7.13126 5.50657 6.89336 5.70656 6.69336C5.88987 6.51009 6.12347 6.41797 6.40675 6.41797Z" fill="black"/>
<path d="M13.0064 6.41797C13.2897 6.41797 13.5232 6.51004 13.7066 6.69336L18.3062 11.2939C18.4061 11.3939 18.4774 11.5016 18.5191 11.6182C18.5607 11.7347 18.5815 11.8599 18.5816 11.9932C18.5816 12.1264 18.5607 12.2516 18.5191 12.3682C18.4774 12.4848 18.4062 12.5934 18.3062 12.6934L13.7066 17.2939C13.5233 17.4771 13.2939 17.5727 13.0191 17.5811C12.7441 17.5894 12.5061 17.4939 12.3062 17.2939C12.1229 17.1107 12.0318 16.8769 12.0318 16.5938C12.0318 16.3105 12.123 16.0769 12.3062 15.8936L16.1812 11.9932L12.3062 8.09375C12.1229 7.91049 12.0274 7.68111 12.0191 7.40625C12.0107 7.13131 12.1063 6.89333 12.3062 6.69336C12.4895 6.51006 12.7231 6.418 13.0064 6.41797Z" fill="black"/>
</svg>
