<svg width="24" height="24" viewBox="0 0 24 24" fill="none" xmlns="http://www.w3.org/2000/svg">
<path fill-rule="evenodd" clip-rule="evenodd" d="M12 2C13.3833 2 14.6837 2.26211 15.9004 2.78711C17.117 3.3121 18.1752 4.02485 19.0752 4.9248C19.9751 5.82476 20.6879 6.88302 21.2129 8.09961C21.7379 9.31628 22 10.6167 22 12C22 13.3833 21.7379 14.6837 21.2129 15.9004C20.6879 17.117 19.9751 18.1752 19.0752 19.0752C18.1752 19.9751 17.117 20.6879 15.9004 21.2129C14.6837 21.7379 13.3833 22 12 22C10.6167 22 9.31628 21.7379 8.09961 21.2129C6.88302 20.6879 5.82476 19.9751 4.9248 19.0752C4.02485 18.1752 3.3121 17.117 2.78711 15.9004C2.26211 14.6837 2 13.3833 2 12C2 10.6167 2.26211 9.31628 2.78711 8.09961C3.3121 6.88302 4.02485 5.82476 4.9248 4.9248C5.82476 4.02485 6.88302 3.3121 8.09961 2.78711C9.31628 2.26211 10.6167 2 12 2ZM10.9883 7.83789C10.7216 7.84622 10.4881 7.95039 10.2881 8.15039C10.1049 8.35025 10.0094 8.58319 10.001 8.84961C9.99264 9.11625 10.0881 9.34982 10.2881 9.5498L12.6631 11.9248L10.2881 14.2998C10.1048 14.4831 10.0127 14.7124 10.0127 14.9873C10.0127 15.2623 10.1048 15.5002 10.2881 15.7002C10.4881 15.9001 10.726 16 11.001 16C11.2757 15.9999 11.513 15.9 11.7129 15.7002L14.7881 12.625C14.9881 12.425 15.0879 12.1915 15.0879 11.9248C15.0878 11.6582 14.988 11.4246 14.7881 11.2246L11.6885 8.125C11.4885 7.92507 11.2548 7.82963 10.9883 7.83789Z" fill="black"/>
</svg>
