<svg width="24" height="24" viewBox="0 0 24 24" fill="none" xmlns="http://www.w3.org/2000/svg">
<path fill-rule="evenodd" clip-rule="evenodd" d="M11.4775 2.33579C11.8196 2.24322 12.1803 2.24321 12.5224 2.33579C12.9197 2.44337 13.2544 2.70625 13.5214 2.91587L20.456 8.30942C20.8326 8.6017 21.1648 8.85989 21.4121 9.19419C21.6288 9.48736 21.7903 9.81769 21.8886 10.1688C22.0007 10.5692 22.0005 10.9899 21.9999 11.4666V17.8387C22 18.3656 22.0003 18.8207 21.9697 19.1952C21.9374 19.5902 21.8654 19.9831 21.6728 20.3612C21.3852 20.9255 20.9266 21.3851 20.3622 21.6727C19.984 21.8654 19.5905 21.9373 19.1953 21.9696C18.8208 22.0002 18.3658 21.9999 17.8388 21.9999H6.16108C5.63406 21.9999 5.17913 22.0002 4.80463 21.9696C4.40937 21.9373 4.01594 21.8655 3.63764 21.6727C3.07329 21.3851 2.61467 20.9256 2.32709 20.3612C2.1345 19.9831 2.06253 19.5902 2.03022 19.1952C1.99962 18.8207 1.99993 18.3656 1.99994 17.8387V11.4666C1.99943 10.99 1.99922 10.5692 2.11127 10.1688C2.20961 9.81769 2.37105 9.48736 2.58783 9.19419C2.83508 8.8599 3.16728 8.60169 3.54389 8.30942L10.4785 2.91587C10.7454 2.70626 11.0802 2.44337 11.4775 2.33579ZM10.5996 12.9999C10.0399 12.9999 9.75969 12.9993 9.54584 13.1083C9.35775 13.2041 9.20519 13.3577 9.10932 13.5458C9.00039 13.7596 8.99994 14.0397 8.99994 14.5995V19.9999H14.9999V14.5995C14.9999 14.0396 14.9995 13.7596 14.8906 13.5458C14.7947 13.3577 14.6422 13.2041 14.454 13.1083C14.2402 12.9993 13.96 12.9999 13.4003 12.9999H10.5996Z" fill="black"/>
</svg>
