<svg width="24" height="24" viewBox="0 0 24 24" fill="none" xmlns="http://www.w3.org/2000/svg">
<path d="M13.5996 3C13.288 3.60962 13.0869 4.28511 13.0225 5H5V14H9.2002C9.4002 14.6 9.75874 15.0835 10.2754 15.4502C10.792 15.8167 11.3668 16 12 16C12.6332 16 13.208 15.8167 13.7246 15.4502C14.2413 15.0835 14.5998 14.6 14.7998 14H19V10.9775C19.7149 10.9131 20.3904 10.712 21 10.4004V19C21 19.55 20.8038 20.0204 20.4121 20.4121C20.0204 20.8038 19.55 21 19 21H5C4.45 21 3.97956 20.8038 3.58789 20.4121C3.19622 20.0204 3 19.55 3 19V5C3 4.45 3.19622 3.97956 3.58789 3.58789C3.97956 3.19622 4.45 3 5 3H13.5996Z" fill="black"/>
<path d="M18.5 2C20.433 2 22 3.567 22 5.5C22 7.433 20.433 9 18.5 9C16.567 9 15 7.433 15 5.5C15 3.567 16.567 2 18.5 2Z" fill="black"/>
</svg>
