<svg width="24" height="24" viewBox="0 0 24 24" fill="none" xmlns="http://www.w3.org/2000/svg">
<path fill-rule="evenodd" clip-rule="evenodd" d="M19 2C19.7376 2 20.4467 2.25298 21.0146 2.7666L21.127 2.87305L21.2334 2.98535C21.747 3.55328 22 4.26237 22 5V19C22 19.787 21.7122 20.5417 21.127 21.127C20.5417 21.7122 19.787 22 19 22H5C4.213 22 3.4583 21.7122 2.87305 21.127C2.2878 20.5417 2 19.787 2 19V5C2 4.213 2.2878 3.4583 2.87305 2.87305L2.98535 2.7666C3.55328 2.25298 4.26237 2 5 2H19ZM5 4C4.71667 4 4.47878 4.09544 4.28711 4.28711C4.09544 4.47878 4 4.71667 4 5V19C4 19.2833 4.09544 19.5212 4.28711 19.7129C4.47878 19.9046 4.71667 20 5 20C5.24788 20 5.46095 19.927 5.63867 19.7803L5.71289 19.7129C5.90456 19.5212 6 19.2833 6 19V5C6 4.71667 5.90456 4.47878 5.71289 4.28711C5.52122 4.09544 5.28333 4 5 4ZM12 16C11.7167 16 11.4788 16.0954 11.2871 16.2871C11.0954 16.4788 11 16.7167 11 17V19C11 19.2833 11.0954 19.5212 11.2871 19.7129C11.4788 19.9046 11.7167 20 12 20C12.2479 20 12.461 19.927 12.6387 19.7803L12.7129 19.7129C12.9046 19.5212 13 19.2833 13 19V17C13 16.7167 12.9046 16.4788 12.7129 16.2871C12.5212 16.0954 12.2833 16 12 16ZM19 4C18.7167 4 18.4788 4.09544 18.2871 4.28711C18.0954 4.47878 18 4.71667 18 5V19C18 19.2833 18.0954 19.5212 18.2871 19.7129C18.4788 19.9046 18.7167 20 19 20C19.2479 20 19.461 19.927 19.6387 19.7803L19.7129 19.7129C19.9046 19.5212 20 19.2833 20 19V5C20 4.71667 19.9046 4.47878 19.7129 4.28711C19.5212 4.09544 19.2833 4 19 4ZM12 10C11.7167 10 11.4788 10.0954 11.2871 10.2871C11.0954 10.4788 11 10.7167 11 11V13C11 13.2833 11.0954 13.5212 11.2871 13.7129C11.4788 13.9046 11.7167 14 12 14C12.2479 14 12.461 13.927 12.6387 13.7803L12.7129 13.7129C12.9046 13.5212 13 13.2833 13 13V11C13 10.7167 12.9046 10.4788 12.7129 10.2871C12.5212 10.0954 12.2833 10 12 10ZM12 4C11.7167 4 11.4788 4.09544 11.2871 4.28711C11.0954 4.47878 11 4.71667 11 5V7C11 7.28333 11.0954 7.52122 11.2871 7.71289C11.4788 7.90456 11.7167 8 12 8C12.2479 8 12.461 7.92698 12.6387 7.78027L12.7129 7.71289C12.9046 7.52122 13 7.28333 13 7V5C13 4.71667 12.9046 4.47878 12.7129 4.28711C12.5212 4.09544 12.2833 4 12 4Z" fill="black"/>
</svg>
