<svg width="24" height="24" viewBox="0 0 24 24" fill="none" xmlns="http://www.w3.org/2000/svg">
<path d="M11 12C11.623 12 12.2241 12.0943 12.7891 12.2705C12.8559 12.7851 13.0069 13.2703 13.2275 13.7139C11.3218 14.7173 10 16.6837 10 19V21H1V18C1 14.6863 3.68629 12 7 12H11Z" fill="black"/>
<path d="M18.875 15C21.1532 15 23 16.7909 23 19V21H12V19C12 16.7909 13.8468 15 16.125 15H18.875Z" fill="black"/>
<path d="M17.5 9C19.0188 9 20.25 10.1942 20.25 11.667C20.2498 13.1396 19.0187 14.333 17.5 14.333C15.9813 14.333 14.7502 13.1396 14.75 11.667C14.75 10.1942 15.9812 9 17.5 9Z" fill="black"/>
<path d="M9 3C11.2091 3 13 4.79086 13 7C13 9.20914 11.2091 11 9 11C6.79086 11 5 9.20914 5 7C5 4.79086 6.79086 3 9 3Z" fill="black"/>
</svg>
