<svg width="24" height="24" viewBox="0 0 24 24" fill="none" xmlns="http://www.w3.org/2000/svg">
<path fill-rule="evenodd" clip-rule="evenodd" d="M17.625 12C17.7441 12 17.8466 12.0844 17.8701 12.2012L18.1025 13.3545C18.1196 13.4389 18.1793 13.5078 18.2588 13.541C18.5636 13.668 18.8443 13.8315 19.1006 14.0312C19.1696 14.085 19.2609 14.1032 19.3438 14.0752L20.4658 13.6953C20.5787 13.6572 20.7031 13.7045 20.7627 13.8076L21.5576 15.1836C21.617 15.2864 21.5967 15.4173 21.5078 15.4961L20.6211 16.2812C20.5585 16.3369 20.5278 16.42 20.5391 16.5029C20.5615 16.6658 20.5801 16.827 20.5801 17C20.5801 17.173 20.5615 17.3342 20.5391 17.4971C20.5278 17.58 20.5585 17.6631 20.6211 17.7188L21.5078 18.5039C21.5967 18.5827 21.617 18.7136 21.5576 18.8164L20.7627 20.1924C20.7031 20.2955 20.5787 20.3428 20.4658 20.3047L19.3438 19.9248C19.2609 19.8968 19.1696 19.915 19.1006 19.9688C18.8443 20.1685 18.5636 20.332 18.2588 20.459C18.1793 20.4922 18.1196 20.5611 18.1025 20.6455L17.8701 21.7988C17.8466 21.9156 17.7441 22 17.625 22H16.0352C15.9161 22 15.8135 21.9156 15.79 21.7988L15.5576 20.6455C15.5405 20.5611 15.4808 20.4922 15.4014 20.459C15.0966 20.332 14.8158 20.1685 14.5596 19.9688C14.4906 19.915 14.3993 19.8968 14.3164 19.9248L13.1943 20.3047C13.0815 20.3428 12.9571 20.2955 12.8975 20.1924L12.1025 18.8164C12.0431 18.7136 12.0635 18.5827 12.1523 18.5039L13.0391 17.7188C13.1016 17.6631 13.1323 17.58 13.1211 17.4971C13.0987 17.3342 13.0801 17.173 13.0801 17C13.0801 16.827 13.0987 16.6658 13.1211 16.5029C13.1323 16.42 13.1016 16.3369 13.0391 16.2812L12.1523 15.4961C12.0635 15.4173 12.0431 15.2864 12.1025 15.1836L12.8975 13.8076C12.9571 13.7045 13.0815 13.6572 13.1943 13.6953L14.3164 14.0752C14.3993 14.1032 14.4906 14.085 14.5596 14.0312C14.8158 13.8315 15.0966 13.668 15.4014 13.541C15.4808 13.5078 15.5405 13.4389 15.5576 13.3545L15.79 12.2012C15.8135 12.0844 15.9161 12 16.0352 12H17.625ZM16.8301 15C15.7301 15 14.8301 15.9 14.8301 17C14.8301 18.1 15.7301 19 16.8301 19C17.9301 19 18.8301 18.1 18.8301 17C18.8301 15.9 17.9301 15 16.8301 15Z" fill="black"/>
<path d="M10.3809 14H9C6.79086 14 5 15.7909 5 18V19H10.0205L10.9424 21H3V18C3 14.6863 5.68629 12 9 12H11.6348L10.3809 14Z" fill="black"/>
<path fill-rule="evenodd" clip-rule="evenodd" d="M11 3C13.2091 3 15 4.79086 15 7C15 9.20914 13.2091 11 11 11C8.79086 11 7 9.20914 7 7C7 4.79086 8.79086 3 11 3ZM11 5C9.89543 5 9 5.89543 9 7C9 8.10457 9.89543 9 11 9C12.1046 9 13 8.10457 13 7C13 5.89543 12.1046 5 11 5Z" fill="black"/>
</svg>
