<svg width="24" height="24" viewBox="0 0 24 24" fill="none" xmlns="http://www.w3.org/2000/svg">
<path fill-rule="evenodd" clip-rule="evenodd" d="M13 2C13.6487 2 14.4072 2.16061 15.0195 2.67676C15.4565 3.04518 15.7518 3.53826 15.8965 4.12988C16.2172 4.19208 16.5233 4.28618 16.8164 4.43555C17.5689 4.81902 18.181 5.43109 18.5645 6.18359C18.8117 6.6689 18.9101 7.18599 18.9561 7.74805C19.001 8.29843 19 8.97632 19 9.7998V16.2002C19 17.0237 19.001 17.7016 18.9561 18.252C18.9101 18.814 18.8117 19.3311 18.5645 19.8164C18.181 20.5689 17.5689 21.181 16.8164 21.5645C16.3311 21.8117 15.814 21.9101 15.252 21.9561C14.7016 22.001 14.0237 22 13.2002 22H10.7998C9.97632 22 9.29843 22.001 8.74805 21.9561C8.18599 21.9101 7.6689 21.8117 7.1836 21.5645C6.43109 21.181 5.81902 20.5689 5.43555 19.8164C5.18827 19.3311 5.08988 18.814 5.04395 18.252C4.99898 17.7016 5 17.0237 5 16.2002V9.7998C5 8.97632 4.99898 8.29843 5.04395 7.74805C5.08988 7.18599 5.18827 6.6689 5.43555 6.18359C5.81902 5.43109 6.43109 4.81902 7.1836 4.43555C7.47645 4.28633 7.78218 4.19209 8.10254 4.12988C8.24721 3.53816 8.54341 3.04522 8.98047 2.67676C9.5928 2.16061 10.3513 2 11 2H13ZM16.7422 17.4697C15.6653 17.7389 14.0841 18 12 18C9.9159 18 8.33468 17.7389 7.25781 17.4697C7.17082 17.448 7.0872 17.425 7.00684 17.4033C7.01207 17.6657 7.02088 17.8902 7.03711 18.0889C7.07293 18.5273 7.13809 18.7518 7.21778 18.9082C7.40951 19.2845 7.71555 19.5905 8.0918 19.7822C8.2482 19.8619 8.47272 19.9271 8.91113 19.9629C9.36117 19.9997 9.94342 20 10.7998 20H13.2002C14.0566 20 14.6388 19.9997 15.0889 19.9629C15.5273 19.9271 15.7518 19.8619 15.9082 19.7822C16.2845 19.5905 16.5905 19.2845 16.7822 18.9082C16.8619 18.7518 16.9271 18.5273 16.9629 18.0889C16.9791 17.8902 16.987 17.6657 16.9922 17.4033C16.9121 17.425 16.8289 17.4481 16.7422 17.4697ZM16.7422 13.4697C15.6653 13.7389 14.0841 14 12 14C9.9159 14 8.33468 13.7389 7.25781 13.4697C7.16834 13.4474 7.08246 13.4237 7 13.4014V15.3135C7.19597 15.3784 7.44272 15.4554 7.74219 15.5303C8.66532 15.7611 10.0843 16 12 16C13.9158 16 15.3347 15.7611 16.2578 15.5303C16.5573 15.4554 16.804 15.3784 17 15.3135V13.4014C16.9175 13.4237 16.8317 13.4474 16.7422 13.4697ZM16.7422 9.46973C15.6653 9.73892 14.0841 10 12 10C9.9159 10 8.33468 9.73892 7.25781 9.46973C7.16867 9.44744 7.08316 9.42361 7.00098 9.40137C7.00078 9.52727 7 9.65988 7 9.7998V11.3135C7.19597 11.3784 7.44272 11.4554 7.74219 11.5303C8.66532 11.7611 10.0843 12 12 12C13.9158 12 15.3347 11.7611 16.2578 11.5303C16.5573 11.4554 16.804 11.3784 17 11.3135V9.7998C17 9.65988 16.9982 9.52727 16.998 9.40137C16.9161 9.42353 16.831 9.44752 16.7422 9.46973ZM11 4C10.6487 4 10.4072 4.09001 10.2695 4.20605C10.1625 4.29631 10.0001 4.49873 10 5.02832V5.96973L9.06055 6.02734C8.5227 6.06021 8.26672 6.12865 8.0918 6.21777C7.71555 6.40951 7.40951 6.71555 7.21778 7.0918C7.18218 7.16166 7.1505 7.24549 7.12207 7.35547C7.29559 7.41012 7.50218 7.47027 7.74219 7.53027C8.66532 7.76106 10.0843 8 12 8C13.9158 8 15.3347 7.76105 16.2578 7.53027C16.4974 7.47037 16.7036 7.41005 16.877 7.35547C16.8485 7.2456 16.8178 7.16161 16.7822 7.0918C16.5905 6.71554 16.2845 6.40951 15.9082 6.21777C15.7333 6.12865 15.4773 6.06021 14.9395 6.02734L14 5.96973V5.02832C13.9999 4.49873 13.8375 4.29631 13.7305 4.20605C13.5928 4.09001 13.3513 4 13 4H11Z" fill="black"/>
</svg>
