<svg width="24" height="24" viewBox="0 0 24 24" fill="none" xmlns="http://www.w3.org/2000/svg">
<path fill-rule="evenodd" clip-rule="evenodd" d="M15.5 1.75C18.8182 1.75 20.7992 2.37605 21.9053 3.5166C23.0347 4.68142 23 6.14476 23 6.9541C23.0001 8.25016 23 9.45461 23 12.25C23 13.6339 23.0004 14.722 22.9404 15.6006C22.8799 16.4882 22.754 17.2352 22.4668 17.9287C21.7563 19.6438 20.3939 21.0063 18.6787 21.7168C17.9852 22.004 17.2382 22.1299 16.3506 22.1904C15.472 22.2504 14.3839 22.25 13 22.25H11C9.61607 22.25 8.52802 22.2504 7.64941 22.1904C6.76176 22.1299 6.01476 22.004 5.32129 21.7168C3.60615 21.0063 2.24366 19.6438 1.5332 17.9287C1.24596 17.2352 1.12013 16.4882 1.05957 15.6006C0.999645 14.722 1 13.6339 1 12.25C1 10.8661 0.999649 9.77801 1.05957 8.89941C1.07728 8.63982 1.10156 8.39197 1.13281 8.1543C1.13434 8.13817 1.13736 8.12234 1.13965 8.10645C1.21572 7.55055 1.33563 7.04829 1.5332 6.57129C2.32518 4.65934 4.34009 3.48712 6.7168 2.78223C9.1398 2.06362 12.2 1.75 15.5 1.75ZM20.3672 17.6807C20.037 17.7744 19.6555 17.8752 19.2246 17.9746C17.534 18.3647 15.0834 18.75 12 18.75C8.91662 18.75 6.46603 18.3647 4.77539 17.9746C4.34414 17.8751 3.96219 17.7745 3.63184 17.6807C4.17744 18.6612 5.03992 19.4355 6.08691 19.8691C6.49603 20.0386 6.99946 20.1417 7.78516 20.1953C8.57996 20.2495 9.58851 20.25 11 20.25H13C14.4115 20.25 15.42 20.2495 16.2148 20.1953C17.0005 20.1417 17.504 20.0386 17.9131 19.8691C18.9599 19.4355 19.8216 18.661 20.3672 17.6807ZM3.04297 9.26074C3.00232 10.0195 3 10.9687 3 12.25C3 13.618 3.00138 14.6074 3.05078 15.3906C3.14514 15.4262 3.28076 15.4774 3.45703 15.5361C3.8508 15.6674 4.44525 15.8455 5.22461 16.0254C6.78396 16.3852 9.08356 16.75 12 16.75C14.9164 16.75 17.216 16.3852 18.7754 16.0254C19.5548 15.8455 20.1492 15.6674 20.543 15.5361C20.7187 15.4776 20.8539 15.4262 20.9482 15.3906C20.9976 14.6074 21 13.618 21 12.25C21 11.5946 21 11.0266 21 10.5244C19.7174 11.0831 17.7655 11.1872 14.8477 10.7383C8.82922 9.81237 6.42411 9.33235 3.04297 9.26074ZM15.5 3.75C12.3 3.75 9.45199 4.05657 7.28516 4.69922C5.11966 5.34149 3.87158 6.24666 3.41113 7.26953C6.80882 7.36941 9.39895 7.87659 15.1523 8.76172C18.3684 9.25647 19.8074 8.94927 20.4229 8.58008C20.8934 8.29776 21 7.89907 21 7.25C21 7.1514 21 7.05302 21 6.9541C21 6.05966 20.9652 5.42031 20.4697 4.90918C19.9507 4.37391 18.6816 3.75 15.5 3.75Z" fill="black"/>
</svg>
