<svg width="24" height="24" viewBox="0 0 24 24" fill="none" xmlns="http://www.w3.org/2000/svg">
<path fill-rule="evenodd" clip-rule="evenodd" d="M12 1C18.0751 1 23 5.92487 23 12C22.9998 18.075 18.075 23 12 23C5.92497 23 1.00017 18.075 1 12C1 5.92487 5.92487 1 12 1ZM13 13.5859L14.6572 11.9287C15.0478 11.5385 15.6809 11.5383 16.0713 11.9287C16.4617 12.3191 16.4615 12.9522 16.0713 13.3428L12.707 16.707C12.3165 17.0973 11.6834 17.0974 11.293 16.707L7.92871 13.3428C7.53857 12.9523 7.53856 12.3192 7.92871 11.9287C8.31914 11.5383 8.95223 11.5385 9.34277 11.9287L11 13.5859V3.05566C6.5001 3.55316 3 7.36749 3 12C3.00017 16.9704 7.02954 21 12 21C16.9705 21 20.9998 16.9704 21 12C21 7.36749 17.4999 3.55316 13 3.05566V13.5859Z" fill="black"/>
</svg>
