<svg width="24" height="24" viewBox="0 0 24 24" fill="none" xmlns="http://www.w3.org/2000/svg">
<path d="M14.4797 3.90356C14.4797 3.27142 15.061 2.79556 15.6604 2.99633C19.6234 4.32535 22.4797 8.06919 22.4797 12.4797C22.4794 18.0021 18.0021 22.4794 12.4797 22.4797C8.0692 22.4797 4.32536 19.6234 2.99632 15.6604C2.79555 15.0611 3.27141 14.4797 3.90354 14.4797H3.95628C4.4124 14.4799 4.80492 14.7914 4.96116 15.22C6.0801 18.2883 9.02429 20.4797 12.4797 20.4797C16.8975 20.4794 20.4794 16.8975 20.4797 12.4797C20.4797 9.02428 18.2883 6.08009 15.22 4.96117C14.7914 4.80494 14.4799 4.41236 14.4797 3.95629V3.90356Z" fill="black"/>
<path d="M12.4797 14.4797C13.0317 14.48 13.4797 14.9276 13.4797 15.4797C13.4794 16.0315 13.0315 16.4794 12.4797 16.4797C11.9277 16.4797 11.4801 16.0317 11.4797 15.4797C11.4797 14.9274 11.9274 14.4797 12.4797 14.4797Z" fill="black"/>
<path d="M12.4797 8.47973C13.0317 8.48003 13.4797 8.92763 13.4797 9.47973V12.4797C13.4794 13.0315 13.0315 13.4794 12.4797 13.4797C11.9277 13.4797 11.4801 13.0317 11.4797 12.4797V9.47973C11.4797 8.92744 11.9274 8.47973 12.4797 8.47973Z" fill="black"/>
<path d="M11.4807 1.52465C12.0304 1.47557 12.4797 1.92768 12.4797 2.47973V4.87914C12.4795 5.43112 12.0284 5.87157 11.4826 5.95434C8.63568 6.38565 6.38564 8.63569 5.95433 11.4827C5.8715 12.0284 5.43112 12.4795 4.87913 12.4797H2.47972C1.92771 12.4797 1.47564 12.0304 1.52464 11.4807C1.99988 6.20297 6.20296 1.99989 11.4807 1.52465Z" fill="black"/>
</svg>
