<svg width="24" height="24" viewBox="0 0 24 24" fill="none" xmlns="http://www.w3.org/2000/svg">
<path d="M11.168 8.23438C11.279 7.9219 11.721 7.9219 11.832 8.23438L12.0205 8.76562C12.056 8.86549 12.1345 8.94397 12.2344 8.97949L12.7656 9.16797C13.0781 9.27905 13.0781 9.72095 12.7656 9.83203L12.2344 10.0205C12.1345 10.056 12.056 10.1345 12.0205 10.2344L11.832 10.7656C11.721 11.0781 11.279 11.0781 11.168 10.7656L10.9795 10.2344C10.944 10.1345 10.8655 10.056 10.7656 10.0205L10.2344 9.83203C9.9219 9.72095 9.9219 9.27905 10.2344 9.16797L10.7656 8.97949C10.8655 8.94397 10.944 8.86549 10.9795 8.76562L11.168 8.23438Z" fill="black"/>
<path d="M13.5566 5.3125C13.7047 4.89559 14.2953 4.89559 14.4434 5.3125L14.6934 6.02051C14.7407 6.15407 14.8459 6.25931 14.9795 6.30664L15.6875 6.55664C16.1044 6.70465 16.1044 7.29535 15.6875 7.44336L14.9795 7.69336C14.8459 7.74069 14.7407 7.84593 14.6934 7.97949L14.4434 8.6875C14.2953 9.10441 13.7047 9.10441 13.5566 8.6875L13.3066 7.97949C13.2593 7.84593 13.1541 7.74069 13.0205 7.69336L12.3125 7.44336C11.8956 7.29535 11.8956 6.70465 12.3125 6.55664L13.0205 6.30664C13.1541 6.25931 13.2593 6.15407 13.3066 6.02051L13.5566 5.3125Z" fill="black"/>
<path fill-rule="evenodd" clip-rule="evenodd" d="M17 1C18.6569 1 20 2.34315 20 4V20C20 21.6569 18.6569 23 17 23H7C5.34315 23 4 21.6569 4 20V4C4 2.34315 5.34315 1 7 1H17ZM7 3C6.44772 3 6 3.44772 6 4V20C6 20.5523 6.44772 21 7 21H17C17.5523 21 18 20.5523 18 20V4C18 3.44772 17.5523 3 17 3H7Z" fill="black"/>
</svg>
