<svg width="24" height="24" viewBox="0 0 24 24" fill="none" xmlns="http://www.w3.org/2000/svg">
<path d="M13.3203 7.11035C13.4803 6.96035 13.7299 6.97012 13.8799 7.12012C14.0198 7.26006 14.0298 7.47967 13.9199 7.63965L11.4805 10.9697L15.5303 11.3701C15.98 11.4103 16.1598 11.9598 15.8301 12.2598L10.6699 16.8896C10.51 17.0396 10.2604 17.0298 10.1104 16.8799C9.97038 16.7399 9.96038 16.5203 10.0703 16.3604L12.5098 13.0303L8.45996 12.6299C8.02001 12.5898 7.84021 12.0402 8.16016 11.7402L13.3203 7.11035Z" fill="black"/>
<path fill-rule="evenodd" clip-rule="evenodd" d="M21 12C21 14.3 20.1204 16.6104 18.3604 18.3604C16.6104 20.1204 14.3 21 12 21C9.88003 21 7.92987 20.2602 6.37988 19.0303L4.41016 21L3 19.5898L4.96973 17.6104C3.73973 16.0704 3 14.12 3 12C3 6.86 7.2 3 12 3H21V12ZM12 5C10.16 5 8.41961 5.70977 7.09961 7.00977C5.73966 8.31976 5 10.1 5 12C5 15.86 8.14 19 12 19C13.87 19 15.6302 18.2702 16.9502 16.9502C18.2702 15.6302 19 13.87 19 12V5H12Z" fill="black"/>
</svg>
