<svg width="24" height="24" viewBox="0 0 24 24" fill="none" xmlns="http://www.w3.org/2000/svg">
<path d="M10 16C10.5523 16 11 16.4477 11 17C11 17.5523 10.5523 18 10 18H9C8.44772 18 8 17.5523 8 17C8 16.4477 8.44772 16 9 16H10Z" fill="black"/>
<path d="M15 16C15.5523 16 16 16.4477 16 17C16 17.5523 15.5523 18 15 18H14C13.4477 18 13 17.5523 13 17C13 16.4477 13.4477 16 14 16H15Z" fill="black"/>
<path fill-rule="evenodd" clip-rule="evenodd" d="M12.5996 2C13.7032 2 14.5914 1.99903 15.3086 2.05762C16.0373 2.11716 16.6773 2.24327 17.2695 2.54492C18.2103 3.02429 18.9757 3.78966 19.4551 4.73047C19.7567 5.32266 19.8828 5.9627 19.9424 6.69141C20.001 7.40857 20 8.29681 20 9.40039V14.5996C20 15.7032 20.001 16.5914 19.9424 17.3086C19.8828 18.0373 19.7567 18.6773 19.4551 19.2695C18.9757 20.2103 18.2103 20.9757 17.2695 21.4551C16.6773 21.7567 16.0373 21.8828 15.3086 21.9424C14.5914 22.001 13.7032 22 12.5996 22H11.4004C10.2968 22 9.40857 22.001 8.69141 21.9424C7.9627 21.8828 7.32266 21.7567 6.73047 21.4551C5.78966 20.9757 5.02429 20.2103 4.54492 19.2695C4.24327 18.6773 4.11716 18.0373 4.05762 17.3086C3.99903 16.5914 4 15.7032 4 14.5996V9.40039C4 8.29681 3.99903 7.40857 4.05762 6.69141C4.11716 5.9627 4.24327 5.32266 4.54492 4.73047C5.02429 3.78966 5.78966 3.02429 6.73047 2.54492C7.32266 2.24327 7.9627 2.11716 8.69141 2.05762C9.40857 1.99903 10.2968 2 11.4004 2H12.5996ZM11.4004 4C10.264 4 9.47129 4.00041 8.85449 4.05078C8.24933 4.10023 7.90105 4.19296 7.6377 4.32715C7.07347 4.61472 6.61472 5.07347 6.32715 5.6377C6.19296 5.90105 6.10023 6.24933 6.05078 6.85449C6.00041 7.47129 6 8.26396 6 9.40039V14.5996C6 15.736 6.00041 16.5287 6.05078 17.1455C6.10023 17.7507 6.19296 18.099 6.32715 18.3623C6.61472 18.9265 7.07347 19.3853 7.6377 19.6729C7.90105 19.807 8.24933 19.8998 8.85449 19.9492C9.47129 19.9996 10.264 20 11.4004 20H12.5996C13.736 20 14.5287 19.9996 15.1455 19.9492C15.7507 19.8998 16.099 19.807 16.3623 19.6729C16.9265 19.3853 17.3853 18.9265 17.6729 18.3623C17.807 18.099 17.8998 17.7507 17.9492 17.1455C17.9996 16.5287 18 15.736 18 14.5996V9.40039C18 8.26396 17.9996 7.47129 17.9492 6.85449C17.8998 6.24933 17.807 5.90105 17.6729 5.6377C17.3853 5.07347 16.9265 4.61472 16.3623 4.32715C16.099 4.19296 15.7507 4.10023 15.1455 4.05078C14.5287 4.00041 13.736 4 12.5996 4H11.4004Z" fill="black"/>
</svg>
