<svg width="24" height="24" viewBox="0 0 24 24" fill="none" xmlns="http://www.w3.org/2000/svg">
<path d="M12 11.75C14.05 14.13 14.5 14.45 14.5 15.54C14.5 16.9 13.38 18 12 18C10.62 18 9.50002 16.9 9.5 15.54C9.5 14.46 9.93 14.15 12 11.75Z" fill="black"/>
<path d="M15 8C15.5523 8 16 8.44772 16 9C16 9.55228 15.5523 10 15 10H9C8.44772 10 8 9.55228 8 9C8 8.44772 8.44772 8 9 8H15Z" fill="black"/>
<path fill-rule="evenodd" clip-rule="evenodd" d="M14 2C14.5523 2 15 2.44772 15 3V4H16C18.21 4 20 5.79 20 8V18C20 20.21 18.21 22 16 22H8C5.79 22 4 20.21 4 18V8C4 5.79 5.79 4 8 4H9V3C9 2.44772 9.44772 2 10 2C10.5523 2 11 2.44772 11 3V4H13V3C13 2.44772 13.4477 2 14 2ZM8 6C6.9 6 6 6.9 6 8V18C6 19.1 6.9 20 8 20H16C17.1 20 18 19.1 18 18V8C18 6.9 17.1 6 16 6H8Z" fill="black"/>
</svg>
