<svg width="24" height="24" viewBox="0 0 24 24" fill="none" xmlns="http://www.w3.org/2000/svg">
<path d="M14 20C14 20.55 13.8038 21.0204 13.4121 21.4121C13.0204 21.8038 12.55 22 12 22C11.45 22 10.9796 21.8038 10.5879 21.4121C10.1962 21.0204 10 20.55 10 20H14Z" fill="black"/>
<path d="M15 17C15.2833 17 15.5212 17.0954 15.7129 17.2871C15.9046 17.4788 16 17.7167 16 18C16 18.2833 15.9046 18.5212 15.7129 18.7129C15.5212 18.9046 15.2833 19 15 19H9C8.71667 19 8.47878 18.9046 8.28711 18.7129C8.09544 18.5212 8 18.2833 8 18C8 17.7167 8.09544 17.4788 8.28711 17.2871C8.47878 17.0954 8.71667 17 9 17H15Z" fill="black"/>
<path fill-rule="evenodd" clip-rule="evenodd" d="M12 2C14.0833 2 15.8542 2.72917 17.3125 4.1875C18.7708 5.64583 19.5 7.41667 19.5 9.5C19.5 10.85 19.1623 12.1 18.4873 13.25C17.8123 14.4 16.9 15.3167 15.75 16H8.25C7.10003 15.3167 6.18769 14.4 5.5127 13.25C4.8377 12.1 4.5 10.85 4.5 9.5C4.5 7.41667 5.22917 5.64583 6.6875 4.1875C8.14583 2.72917 9.91667 2 12 2ZM12 4C10.4667 4 9.16628 4.53294 8.09961 5.59961C7.03294 6.66628 6.5 7.96667 6.5 9.5C6.5 10.4 6.70397 11.2421 7.1123 12.0254C7.52058 12.8085 8.09981 13.4668 8.84961 14H15.1504C15.9002 13.4668 16.4794 12.8085 16.8877 12.0254C17.296 11.2421 17.5 10.4 17.5 9.5C17.5 7.96667 16.9671 6.66628 15.9004 5.59961C14.8337 4.53294 13.5333 4 12 4Z" fill="black"/>
</svg>
