<svg width="24" height="24" viewBox="0 0 24 24" fill="none" xmlns="http://www.w3.org/2000/svg">
<path fill-rule="evenodd" clip-rule="evenodd" d="M13.4004 2C14.2502 2.00008 14.8963 2.25444 15.3379 2.7627C15.7793 3.27085 15.9999 3.84156 16 4.47461C16 4.90789 15.9045 5.33338 15.7129 5.75C15.5212 6.16667 15.2252 6.50872 14.8252 6.77539C14.4586 7.00869 14.1625 7.30822 13.9375 7.6748C13.7126 8.04138 13.558 8.43305 13.4746 8.84961L13.7754 9C13.8752 9.04992 13.9666 9.10828 14.0498 9.1748L16.3496 8.3252C16.6328 8.22525 16.9039 8.14621 17.1621 8.08789C17.4203 8.02958 17.6914 8.00003 17.9746 8C19.3246 8 20.3333 8.55823 21 9.6748C21.6667 10.7915 22 12.0337 22 13.4004C21.9999 14.2502 21.7334 14.8963 21.2002 15.3379C20.6669 15.7795 20.0748 16 19.4248 16C19.0084 16 18.6043 15.9044 18.2129 15.7129C17.8212 15.5212 17.4913 15.2252 17.2246 14.8252C16.9913 14.4586 16.6918 14.1625 16.3252 13.9375C15.9586 13.7126 15.5669 13.558 15.1504 13.4746L15 13.7754C14.9501 13.8752 14.8917 13.9666 14.8252 14.0498L15.6504 16.3496C15.7504 16.6162 15.8337 16.8707 15.9004 17.1123C15.9671 17.354 16 17.6083 16 17.875C16.0167 18.9583 15.5669 19.9167 14.6504 20.75C13.7337 21.5833 12.3829 22 10.5996 22C9.7498 21.9999 9.10371 21.7456 8.66211 21.2373C8.22062 20.729 8 20.1499 8 19.5C8 19.0667 8.09544 18.6456 8.28711 18.2373C8.47878 17.829 8.77481 17.4913 9.1748 17.2246C9.54141 16.9913 9.83752 16.6918 10.0625 16.3252C10.2874 15.9586 10.442 15.5669 10.5254 15.1504L10.2246 15C10.1248 14.9501 10.0334 14.8917 9.9502 14.8252L7.65039 15.6504C7.36709 15.7504 7.09183 15.8337 6.8252 15.9004C6.55853 15.9671 6.28333 16 6 16C4.95007 16 4.02118 15.5415 3.21289 14.625C2.40456 13.7083 2 12.3663 2 10.5996C2.00008 9.7498 2.25444 9.10371 2.7627 8.66211C3.27085 8.22071 3.84156 8.00009 4.47461 8C4.90789 8 5.33338 8.09549 5.75 8.28711C6.16667 8.47878 6.50872 8.7748 6.77539 9.1748C7.00869 9.54141 7.30822 9.83752 7.6748 10.0625C8.04138 10.2874 8.43305 10.442 8.84961 10.5254L9 10.2246C9.04992 10.1248 9.10828 10.0334 9.1748 9.9502L8.34961 7.65039C8.24962 7.36709 8.16627 7.09183 8.09961 6.8252C8.03298 6.55866 8.00003 6.29193 8 6.02539C8 4.9588 8.45846 4.02119 9.375 3.21289C10.2917 2.40456 11.6337 2 13.4004 2ZM13.1504 15.2998C13.0505 15.3331 12.9461 15.3627 12.8379 15.3877C12.7297 15.4127 12.6253 15.4335 12.5254 15.4502C12.3921 16.1502 12.1377 16.8004 11.7627 17.4004C11.3877 18.0003 10.8919 18.5004 10.2754 18.9004C10.1921 18.967 10.1208 19.0539 10.0625 19.1621C10.0042 19.2704 9.98333 19.3833 10 19.5C10.0167 19.6333 10.0671 19.7496 10.1504 19.8496C10.2337 19.9495 10.3832 19.9999 10.5996 20C11.3828 20 12.1539 19.8419 12.9121 19.5254C13.6704 19.2087 14.0333 18.6583 14 17.875C14 17.7417 13.9792 17.6167 13.9375 17.5C13.8958 17.3833 13.8585 17.2748 13.8252 17.1748L13.1504 15.2998ZM4.47461 10C4.3248 10.0001 4.20826 10.0505 4.125 10.1504C4.04185 10.2503 4.00005 10.4 4 10.5996C4 11.4995 4.17111 12.2913 4.5127 12.9746C4.85436 13.6579 5.35 14 6 14C6.23333 14 6.50853 13.9419 6.8252 13.8252L8.7002 13.1504C8.6669 13.0505 8.63729 12.9461 8.6123 12.8379C8.58733 12.7297 8.56646 12.6253 8.5498 12.5254C7.84985 12.3921 7.19958 12.1377 6.59961 11.7627C5.99973 11.3877 5.49956 10.8919 5.09961 10.2754C5.03302 10.1922 4.94604 10.1252 4.83789 10.0752C4.72956 10.0252 4.60794 10 4.47461 10ZM17.9746 10C17.8248 10 17.683 10.0165 17.5498 10.0498C17.4165 10.0831 17.2914 10.1171 17.1748 10.1504L15.2998 10.8496C15.3331 10.9495 15.3627 11.0539 15.3877 11.1621C15.4127 11.2703 15.4335 11.3747 15.4502 11.4746C16.1502 11.6079 16.8004 11.8623 17.4004 12.2373C18.0003 12.6123 18.5004 13.1081 18.9004 13.7246C18.9504 13.8079 19.025 13.8748 19.125 13.9248C19.2249 13.9748 19.3249 14 19.4248 14C19.5748 14 19.7085 13.9583 19.8252 13.875C19.9417 13.7917 19.9999 13.6334 20 13.4004C20 12.7671 19.8663 12.0456 19.5996 11.2373C19.3329 10.4292 18.7912 10.0167 17.9746 10ZM12 10.5C11.5833 10.5 11.2292 10.6458 10.9375 10.9375C10.6458 11.2292 10.5 11.5833 10.5 12C10.5 12.4167 10.6458 12.7708 10.9375 13.0625C11.2292 13.3542 11.5833 13.5 12 13.5C12.4167 13.5 12.7708 13.3542 13.0625 13.0625C13.3542 12.7708 13.5 12.4167 13.5 12C13.5 11.5833 13.3542 11.2292 13.0625 10.9375C12.7708 10.6458 12.4167 10.5 12 10.5ZM13.4004 4C12.7671 4 12.05 4.13714 11.25 4.41211C10.45 4.68711 10.0333 5.22539 10 6.02539C10 6.17525 10.0209 6.31698 10.0625 6.4502C10.1041 6.58346 10.1415 6.70858 10.1748 6.8252L10.8496 8.7002C10.9495 8.6669 11.0539 8.63729 11.1621 8.6123C11.2703 8.58733 11.3747 8.56646 11.4746 8.5498C11.6079 7.84985 11.8623 7.19958 12.2373 6.59961C12.6123 5.99973 13.1081 5.49956 13.7246 5.09961C13.8079 5.03294 13.8748 4.94961 13.9248 4.84961C13.9747 4.74965 14 4.62449 14 4.47461C13.9999 4.34145 13.9495 4.22927 13.8496 4.1377C13.7497 4.04616 13.6001 4.00006 13.4004 4Z" fill="black"/>
</svg>
