<svg width="24" height="24" viewBox="0 0 24 24" fill="none" xmlns="http://www.w3.org/2000/svg">
<path d="M4 18H20V15H22V18C22 19.1 21.1 20 20 20H4C2.9 20 2 19.1 2 18V15H4V18Z" fill="black"/>
<path d="M13.0996 7.5498C13.4396 6.8699 14.5495 6.8701 14.8896 7.5498L16.6201 11H21C21.5523 11 22 11.4477 22 12C22 12.5523 21.5523 13 21 13H16C15.6201 13 15.2804 12.79 15.1104 12.4502L14 10.2402L10.8896 16.4502C10.7196 16.79 10.3799 17 10 17C9.62 17 9.27961 16.7902 9.09961 16.4502L7.37988 13H3C2.44772 13 2 12.5523 2 12C2 11.4477 2.44772 11 3 11H8C8.37989 11 8.7196 11.21 8.88965 11.5498L10 13.7598L13.0996 7.5498Z" fill="black"/>
<path d="M20 4C21.1 4 22 4.9 22 6V9H20V6H4V9H2V6C2 4.9 2.9 4 4 4H20Z" fill="black"/>
</svg>
