<svg width="24" height="24" viewBox="0 0 24 24" fill="none" xmlns="http://www.w3.org/2000/svg">
<path fill-rule="evenodd" clip-rule="evenodd" d="M12 1.03516C16.3999 1.03516 19.9598 4.57499 20 8.96484V14.9648C20 19.3848 16.42 22.9648 12 22.9648C7.58 22.9648 4 19.3848 4 14.9648V8.96484C4.04017 4.57499 7.6001 1.03516 12 1.03516ZM6 10.9648V14.9648C6 18.2748 8.69 20.9648 12 20.9648C15.31 20.9648 18 18.2748 18 14.9648V10.9648H6ZM11 3.125C8.1901 3.59498 6.04015 6.02498 6 8.96484H11V3.125ZM13 8.96484H18C17.9599 6.02498 15.8099 3.59498 13 3.125V8.96484Z" fill="black"/>
</svg>
