<svg width="24" height="24" viewBox="0 0 24 24" fill="none" xmlns="http://www.w3.org/2000/svg">
<path d="M12 8.5C14.4699 11.3599 14.9999 11.74 15 13.0498C15 14.6798 13.66 16 12 16C10.34 16 9 14.6798 9 13.0498C9.00005 11.75 9.52012 11.3799 12 8.5Z" fill="black"/>
<path fill-rule="evenodd" clip-rule="evenodd" d="M20 3C20.55 3 21 3.45 21 4C21 4.55 20.55 5 20 5H19V11H20C20.55 11 21 11.45 21 12C21 12.55 20.55 13 20 13H19V19H20C20.55 19 21 19.45 21 20C21 20.55 20.55 21 20 21H4C3.45 21 3 20.55 3 20C3 19.45 3.45 19 4 19H5V13H4C3.45 13 3 12.55 3 12C3 11.45 3.45 11 4 11H5V5H4C3.45 5 3 4.55 3 4C3 3.45 3.45 3 4 3H20ZM7 11C7.55 11 8 11.45 8 12C8 12.55 7.55 13 7 13V19H17V13C16.45 13 16 12.55 16 12C16 11.45 16.45 11 17 11V5H7V11Z" fill="black"/>
</svg>
