<svg width="24" height="24" viewBox="0 0 24 24" fill="none" xmlns="http://www.w3.org/2000/svg">
<path d="M11 15C11.2833 15 11.5212 15.0954 11.7129 15.2871C11.9046 15.4788 12 15.7167 12 16C12 16.2833 11.9046 16.5212 11.7129 16.7129C11.5212 16.9046 11.2833 17 11 17H8C7.71667 17 7.47878 16.9046 7.28711 16.7129C7.09544 16.5212 7 16.2833 7 16C7 15.7167 7.09544 15.4788 7.28711 15.2871C7.47878 15.0954 7.71667 15 8 15H11Z" fill="black"/>
<path fill-rule="evenodd" clip-rule="evenodd" d="M19 3C19.55 3 20.0204 3.19622 20.4121 3.58789C20.8038 3.97956 21 4.45 21 5V19C21 19.55 20.8038 20.0204 20.4121 20.4121C20.0204 20.8038 19.55 21 19 21H5C4.45 21 3.97956 20.8038 3.58789 20.4121C3.19622 20.0204 3 19.55 3 19V5C3 4.45 3.19622 3.97956 3.58789 3.58789C3.97956 3.19622 4.45 3 5 3H19ZM5 19H19V5H16V11C16 11.5523 15.5523 12 15 12H9C8.44772 12 8 11.5523 8 11V5H5V19ZM10 10H14V5H10V10Z" fill="black"/>
</svg>
