<svg width="24" height="24" viewBox="0 0 24 24" fill="none" xmlns="http://www.w3.org/2000/svg">
<path d="M9.60449 11.0049C9.615 11.0058 9.62536 11.0075 9.63574 11.0088C9.65545 11.0112 9.67507 11.0131 9.69434 11.0166C9.70816 11.0191 9.72176 11.0224 9.73535 11.0254C9.75409 11.0296 9.77271 11.0338 9.79102 11.0391C9.80063 11.0418 9.80984 11.0458 9.81934 11.0488C9.8405 11.0556 9.86127 11.0631 9.88184 11.0713C9.88999 11.0745 9.89819 11.0776 9.90625 11.0811C9.92578 11.0895 9.94489 11.0987 9.96387 11.1084C9.97564 11.1144 9.98746 11.1204 9.99902 11.127C10.0159 11.1365 10.0324 11.1466 10.0488 11.1572C10.0565 11.1622 10.0647 11.1666 10.0723 11.1719C10.0827 11.1791 10.0923 11.1877 10.1025 11.1953C10.1446 11.2266 10.1857 11.2609 10.2246 11.2998C10.4246 11.4998 10.5254 11.7421 10.5254 12.0254C10.5254 12.1082 10.5142 12.187 10.4971 12.2627C10.4933 12.2794 10.49 12.2961 10.4854 12.3125C10.4719 12.3602 10.4551 12.4064 10.4346 12.4512C10.4308 12.4594 10.4268 12.4675 10.4229 12.4756C10.4137 12.4941 10.4039 12.5123 10.3936 12.5303C10.3882 12.5395 10.3826 12.5485 10.377 12.5576C10.3673 12.5731 10.3573 12.5884 10.3467 12.6035C10.3423 12.6098 10.3376 12.6159 10.333 12.6221C10.3007 12.6661 10.2652 12.7094 10.2246 12.75L8.84961 14.125L10.2246 15.5C10.4245 15.6999 10.5253 15.9414 10.5254 16.2246C10.5254 16.5079 10.4246 16.7502 10.2246 16.9502C10.1862 16.9886 10.145 17.0217 10.1035 17.0527C10.093 17.0606 10.083 17.0688 10.0723 17.0762C10.0643 17.0817 10.056 17.0866 10.0479 17.0918C10.0285 17.1044 10.0093 17.1169 9.98926 17.1279C9.98121 17.1324 9.973 17.1364 9.96484 17.1406C9.94561 17.1505 9.92605 17.1594 9.90625 17.168C9.89524 17.1727 9.88423 17.1773 9.87305 17.1816C9.85662 17.188 9.84005 17.1938 9.82324 17.1992C9.80993 17.2035 9.79675 17.2082 9.7832 17.2119C9.76772 17.2162 9.75212 17.2201 9.73633 17.2236C9.71957 17.2274 9.70265 17.2305 9.68555 17.2334C9.68069 17.2342 9.67578 17.2346 9.6709 17.2354C9.61564 17.244 9.55885 17.25 9.5 17.25C9.41585 17.25 9.33558 17.2403 9.25879 17.2227C9.25053 17.2208 9.24255 17.2179 9.23438 17.2158C9.14852 17.1937 9.06769 17.1608 8.99121 17.1162C8.97974 17.1095 8.96829 17.1029 8.95703 17.0957C8.91324 17.0677 8.87068 17.0366 8.83008 17.001L8.77441 16.9502L6.64941 14.8252C6.6245 14.8003 6.60091 14.775 6.5791 14.749C6.55722 14.723 6.53731 14.696 6.51855 14.6689C6.46238 14.5877 6.42067 14.5017 6.39258 14.4111C6.36439 14.3204 6.34961 14.2251 6.34961 14.125C6.34961 14.0249 6.36439 13.9296 6.39258 13.8389C6.42067 13.7483 6.46238 13.6623 6.51855 13.5811C6.556 13.527 6.59951 13.4747 6.64941 13.4248L8.77441 11.2998C8.82435 11.2499 8.87749 11.2064 8.93262 11.1689C8.98794 11.1314 9.04588 11.1002 9.10645 11.0752C9.13675 11.0627 9.1676 11.0514 9.19922 11.042C9.23049 11.0327 9.26237 11.0248 9.29492 11.0186C9.36065 11.006 9.42904 11 9.5 11L9.60449 11.0049Z" fill="black"/>
<path d="M14.6543 11.0049C14.6846 11.0077 14.7149 11.0113 14.7441 11.0166C14.759 11.0193 14.7735 11.0231 14.7881 11.0264C14.8048 11.0301 14.8215 11.0335 14.8379 11.0381C14.8508 11.0417 14.8633 11.0466 14.876 11.0508C14.8947 11.0569 14.9134 11.0631 14.9316 11.0703C14.9399 11.0736 14.9479 11.0775 14.9561 11.0811C14.9756 11.0895 14.9947 11.0987 15.0137 11.1084C15.0254 11.1144 15.0373 11.1204 15.0488 11.127C15.0657 11.1365 15.0822 11.1466 15.0986 11.1572C15.1063 11.1622 15.1145 11.1666 15.1221 11.1719C15.1325 11.1791 15.1421 11.1877 15.1523 11.1953C15.1946 11.2267 15.2363 11.2608 15.2754 11.2998L17.4004 13.4248C17.6003 13.6248 17.7002 13.8584 17.7002 14.125C17.7002 14.3916 17.6003 14.6252 17.4004 14.8252L15.2754 16.9502C15.2368 16.9888 15.195 17.0216 15.1533 17.0527C15.1428 17.0606 15.1328 17.0688 15.1221 17.0762C15.1141 17.0817 15.1058 17.0866 15.0977 17.0918C15.0783 17.1044 15.0591 17.1169 15.0391 17.1279C15.031 17.1324 15.0228 17.1364 15.0146 17.1406C14.9954 17.1505 14.9759 17.1594 14.9561 17.168C14.9444 17.173 14.9328 17.1781 14.9209 17.1826C14.9068 17.1881 14.8923 17.1925 14.8779 17.1973C14.862 17.2025 14.8463 17.2084 14.8301 17.2129C14.8162 17.2167 14.8022 17.2195 14.7881 17.2227C14.7707 17.2266 14.7532 17.2304 14.7354 17.2334C14.7305 17.2342 14.7256 17.2346 14.7207 17.2354C14.6655 17.244 14.6086 17.25 14.5498 17.25C14.4663 17.25 14.3868 17.24 14.3105 17.2227C14.3014 17.2206 14.2923 17.2182 14.2832 17.2158C14.1977 17.1937 14.1172 17.1606 14.041 17.1162C14.0295 17.1095 14.0181 17.1029 14.0068 17.0957C13.9767 17.0764 13.9476 17.0551 13.9189 17.0322C13.9136 17.0279 13.9067 17.0249 13.9014 17.0205L13.8242 16.9502C13.7742 16.9002 13.7308 16.8473 13.6934 16.792C13.6373 16.7093 13.5955 16.6207 13.5674 16.5264C13.5392 16.4316 13.5244 16.331 13.5244 16.2246C13.5244 16.154 13.5315 16.086 13.5439 16.0205C13.5564 15.9548 13.5746 15.8915 13.5996 15.8311C13.6495 15.7104 13.7244 15.5999 13.8242 15.5L15.1992 14.125L13.8242 12.75C13.784 12.7097 13.7489 12.6667 13.7168 12.623C13.712 12.6165 13.7068 12.6102 13.7021 12.6035C13.6935 12.5911 13.6858 12.5781 13.6777 12.5654C13.6683 12.5505 13.6589 12.5358 13.6504 12.5205C13.6444 12.5098 13.6384 12.4992 13.6328 12.4883C13.6256 12.4741 13.6188 12.4598 13.6123 12.4453C13.5929 12.4023 13.5763 12.3582 13.5635 12.3125C13.5469 12.2535 13.5351 12.1924 13.5293 12.1289L13.5244 12.0254C13.5244 11.9544 13.5314 11.8861 13.5439 11.8203C13.5689 11.6892 13.6185 11.5683 13.6934 11.458C13.7308 11.4027 13.7742 11.3498 13.8242 11.2998C13.8741 11.2499 13.9273 11.2064 13.9824 11.1689C14.0377 11.1314 14.0957 11.1002 14.1562 11.0752C14.2168 11.0501 14.2799 11.0311 14.3457 11.0186C14.3783 11.0124 14.4115 11.008 14.4453 11.0049C14.4795 11.0017 14.5143 11 14.5498 11L14.6543 11.0049Z" fill="black"/>
<path fill-rule="evenodd" clip-rule="evenodd" d="M17.75 2C18.1632 2 18.5556 2.17009 18.8369 2.46582L18.9502 2.59961L21.7871 6.38379C21.8497 6.4637 21.8994 6.55362 21.9355 6.65039C21.9415 6.66627 21.9471 6.68217 21.9521 6.69824C21.956 6.71051 21.9595 6.72288 21.9629 6.73535C21.9671 6.75063 21.9712 6.76585 21.9746 6.78125C21.9786 6.79933 21.9823 6.8175 21.9854 6.83594C21.9876 6.84927 21.9895 6.86259 21.9912 6.87598C21.9936 6.89535 21.9948 6.91487 21.9961 6.93457C21.9967 6.94435 21.9977 6.95408 21.998 6.96387C21.9985 6.97587 22 6.98789 22 7V21C22 21.5177 21.6067 21.9438 21.1025 21.9951L21 22H3C2.44772 22 2 21.5523 2 21V7C2 6.95563 2.00319 6.91198 2.00879 6.86914C2.0108 6.85383 2.0129 6.83849 2.01562 6.82324C2.01815 6.80911 2.02131 6.79517 2.02441 6.78125C2.02815 6.76456 2.0325 6.74799 2.03711 6.73145C2.04224 6.71302 2.04757 6.69474 2.05371 6.67676C2.05651 6.66859 2.05948 6.66046 2.0625 6.65234C2.08165 6.60072 2.10481 6.5511 2.13184 6.50391C2.13886 6.49165 2.1467 6.47982 2.1543 6.46777C2.16622 6.44887 2.17828 6.43013 2.19141 6.41211C2.19427 6.40817 2.19726 6.4043 2.2002 6.40039L5.0498 2.59961L5.16309 2.46582C5.44443 2.17009 5.83677 2 6.25 2H17.75ZM4 20H20V8H4V20ZM5 6H19L17.5 4H6.5L5 6Z" fill="black"/>
</svg>
