<svg width="24" height="24" viewBox="0 0 24 24" fill="none" xmlns="http://www.w3.org/2000/svg">
<path d="M18 16C18.5523 16 19 16.4477 19 17C19 17.5523 18.5523 18 18 18H17C16.4477 18 16 17.5523 16 17C16 16.4477 16.4477 16 17 16H18Z" fill="black"/>
<path fill-rule="evenodd" clip-rule="evenodd" d="M16 6C17.6569 6 19 7.34315 19 9V12C19 13.6569 17.6569 15 16 15H8C6.34315 15 5 13.6569 5 12V9C5 7.34315 6.34315 6 8 6H16ZM8 8C7.44772 8 7 8.44772 7 9V12C7 12.5523 7.44772 13 8 13H16C16.5523 13 17 12.5523 17 12V9C17 8.44772 16.5523 8 16 8H8Z" fill="black"/>
<path fill-rule="evenodd" clip-rule="evenodd" d="M15.5996 2C16.7032 2 17.5914 1.99903 18.3086 2.05762C19.0373 2.11716 19.6773 2.24327 20.2695 2.54492C21.2103 3.02429 21.9757 3.78966 22.4551 4.73047C22.7567 5.32266 22.8828 5.9627 22.9424 6.69141C23.001 7.40857 23 8.29681 23 9.40039V11.4004C23 13.0637 23.0008 14.3713 22.915 15.4219C22.8283 16.4841 22.648 17.3716 22.2373 18.1777C21.5662 19.4949 20.4949 20.5662 19.1777 21.2373C18.3716 21.648 17.4841 21.8283 16.4219 21.915C15.3713 22.0008 14.0637 22 12.4004 22H8.40039C7.29681 22 6.40857 22.001 5.69141 21.9424C4.9627 21.8828 4.32266 21.7567 3.73047 21.4551C2.78966 20.9757 2.02429 20.2103 1.54492 19.2695C1.24327 18.6773 1.11716 18.0373 1.05762 17.3086C0.999027 16.5914 1 15.7032 1 14.5996V9.40039C1 8.29681 0.999027 7.40857 1.05762 6.69141C1.11716 5.9627 1.24327 5.32266 1.54492 4.73047C2.02429 3.78966 2.78966 3.02429 3.73047 2.54492C4.32266 2.24327 4.9627 2.11716 5.69141 2.05762C6.40857 1.99903 7.29681 2 8.40039 2H15.5996ZM8.40039 4C7.26396 4 6.47129 4.00041 5.85449 4.05078C5.24933 4.10023 4.90105 4.19296 4.6377 4.32715C4.07347 4.61472 3.61472 5.07347 3.32715 5.6377C3.19296 5.90105 3.10023 6.24933 3.05078 6.85449C3.00041 7.47129 3 8.26396 3 9.40039V14.5996C3 15.736 3.00041 16.5287 3.05078 17.1455C3.10023 17.7507 3.19296 18.099 3.32715 18.3623C3.61472 18.9265 4.07347 19.3853 4.6377 19.6729C4.90105 19.807 5.24933 19.8998 5.85449 19.9492C6.47129 19.9996 7.26396 20 8.40039 20H12.4004C14.0968 20 15.3095 19.9995 16.2598 19.9219C17.198 19.8452 17.7924 19.6981 18.2695 19.4551C19.2103 18.9757 19.9757 18.2103 20.4551 17.2695C20.6981 16.7924 20.8452 16.198 20.9219 15.2598C20.9995 14.3095 21 13.0968 21 11.4004V9.40039C21 8.26396 20.9996 7.47129 20.9492 6.85449C20.8998 6.24933 20.807 5.90105 20.6729 5.6377C20.3853 5.07347 19.9265 4.61472 19.3623 4.32715C19.099 4.19296 18.7507 4.10023 18.1455 4.05078C17.5287 4.00041 16.736 4 15.5996 4H8.40039Z" fill="black"/>
</svg>
