<svg width="24" height="24" viewBox="0 0 24 24" fill="none" xmlns="http://www.w3.org/2000/svg">
<path d="M12 10C12 10 14.4998 13.6944 14.5 15.4141C14.5 16.8363 13.375 18 12 18C10.625 18 9.5 16.8363 9.5 15.4141C9.50017 13.6944 12 10 12 10Z" fill="black"/>
<path fill-rule="evenodd" clip-rule="evenodd" d="M17.5 2C18.3284 2 19 2.67157 19 3.5C19 4.32843 18.3284 5 17.5 5C17.429 5 17.3594 4.99295 17.291 4.9834C17.2428 4.99323 17.1932 5 17.1426 5H13V6.0625C15.1154 6.32658 16.9736 7.41686 18.2432 9H21V8.5C21 7.94772 21.4477 7.5 22 7.5C22.5523 7.5 23 7.94772 23 8.5V19.5C23 20.0523 22.5523 20.5 22 20.5C21.4477 20.5 21 20.0523 21 19.5V19H18.2432C16.777 20.8283 14.5259 22 12 22C9.47411 22 7.22298 20.8283 5.75684 19H3V19.5C3 20.0523 2.55228 20.5 2 20.5C1.44772 20.5 1 20.0523 1 19.5V8.5C1 7.94772 1.44772 7.5 2 7.5C2.55228 7.5 3 7.94772 3 8.5V9H5.75684C7.02638 7.41686 8.88457 6.32658 11 6.0625V5H6.85742C6.80645 5 6.75654 4.99335 6.70801 4.9834C6.63992 4.99286 6.57069 5 6.5 5C5.67157 5 5 4.32843 5 3.5C5 2.67157 5.67157 2 6.5 2C7.15293 2 7.70703 2.41766 7.91309 3H16.0869C16.293 2.41766 16.8471 2 17.5 2ZM12 8C10.1076 8 8.42089 8.87505 7.31738 10.251L6.7168 11H3V17H6.7168L7.31738 17.749C8.42089 19.125 10.1076 20 12 20C13.8924 20 15.5791 19.125 16.6826 17.749L17.2832 17H21V11H17.2832L16.6826 10.251C15.5791 8.87505 13.8924 8 12 8Z" fill="black"/>
</svg>
