<svg width="24" height="24" viewBox="0 0 24 24" fill="none" xmlns="http://www.w3.org/2000/svg">
<path fill-rule="evenodd" clip-rule="evenodd" d="M17.8701 1.25C18.2701 1.25 18.68 1.35031 19.04 1.57031C20.12 2.22033 20.4703 3.62022 19.8203 4.7002L15.8604 11.29C16.0903 11.7 16.2105 12.1502 16.2305 12.6201L18.9199 13.29C19.4498 13.43 19.9097 13.78 20.1797 14.2598L22.46 18.3604C22.9598 19.2503 22.8 20.3601 22.0801 21.0801C21.6401 21.53 21.0497 21.75 20.4697 21.75C19.8899 21.7499 19.3102 21.5299 18.8604 21.0801L14.25 16.4697V20.75C15.35 20.75 16.25 21.65 16.25 22.75H10.25C10.25 21.65 11.1501 20.7501 12.25 20.75V15.5703C11.8601 15.4303 11.5204 15.2199 11.2305 14.96L8.99023 16.2998C8.68023 16.4898 8.31996 16.5898 7.95996 16.5898C7.78001 16.5898 7.5901 16.5598 7.41016 16.5098L2.90039 15.2197C1.92048 14.9398 1.25012 14.0502 1.25 13.0303C1.25 11.7703 2.27027 10.75 3.53027 10.75H11.0205C11.3605 10.3801 11.7801 10.0997 12.25 9.92969V6.53027C12.25 5.98035 12.48 5.45007 12.8799 5.08008L16.3105 1.87012C16.7505 1.46022 17.3102 1.25 17.8701 1.25ZM15.4199 14.8203L20.2705 19.6699C20.4304 19.8296 20.6198 19.7199 20.6699 19.6699C20.7599 19.5799 20.7797 19.4401 20.7197 19.3301L18.4404 15.2305L15.6602 14.54C15.5802 14.64 15.4999 14.7303 15.4199 14.8203ZM3.53027 12.75C3.38027 12.75 3.25 12.8803 3.25 13.0303C3.25012 13.1502 3.33029 13.2698 3.4502 13.2998L7.96973 14.5898L10.29 13.1904C10.27 13.0504 10.2598 12.9 10.2598 12.75H3.53027ZM13.25 11.75C12.7001 11.7501 12.25 12.2 12.25 12.75C12.25 13.3 12.7001 13.7499 13.25 13.75C13.8 13.75 14.25 13.3 14.25 12.75C14.25 12.2 13.8 11.75 13.25 11.75ZM18.0205 3.28027C17.8705 3.20027 17.7297 3.27031 17.6797 3.32031L14.25 6.53027V9.88965L14.3799 9.90039L18.1201 3.66016C18.2 3.53029 18.1502 3.36038 18.0205 3.28027Z" fill="black"/>
<path d="M7.25 18.75C7.80228 18.75 8.25 19.1977 8.25 19.75C8.25 20.3023 7.80228 20.75 7.25 20.75H4.25C3.69777 20.7499 3.25 20.3022 3.25 19.75C3.25 19.1978 3.69777 18.7501 4.25 18.75H7.25Z" fill="black"/>
<path d="M5.25 6.75C5.80228 6.75 6.25 7.19772 6.25 7.75C6.25 8.30228 5.80228 8.75 5.25 8.75H2.25C1.69777 8.74993 1.25 8.30224 1.25 7.75C1.25 7.19776 1.69777 6.75007 2.25 6.75H5.25Z" fill="black"/>
<path d="M9.25 2.75C9.80228 2.75 10.25 3.19772 10.25 3.75C10.25 4.30228 9.80228 4.75 9.25 4.75H5.25C4.69777 4.74993 4.25 4.30224 4.25 3.75C4.25 3.19776 4.69777 2.75007 5.25 2.75H9.25Z" fill="black"/>
</svg>
