<svg width="24" height="24" viewBox="0 0 24 24" fill="none" xmlns="http://www.w3.org/2000/svg">
<path fill-rule="evenodd" clip-rule="evenodd" d="M12 2C13.3833 2 14.6837 2.26211 15.9004 2.78711C17.117 3.3121 18.1752 4.02485 19.0752 4.9248C19.9751 5.82476 20.6879 6.88302 21.2129 8.09961C21.7379 9.31628 22 10.6167 22 12C22 13.3833 21.7379 14.6837 21.2129 15.9004C20.6879 17.117 19.9751 18.1752 19.0752 19.0752C18.1752 19.9751 17.117 20.6879 15.9004 21.2129C14.6837 21.7379 13.3833 22 12 22C10.6167 22 9.31628 21.7379 8.09961 21.2129C6.88302 20.6879 5.82476 19.9751 4.9248 19.0752C4.02485 18.1752 3.3121 17.117 2.78711 15.9004C2.26211 14.6837 2 13.3833 2 12C2 10.6167 2.26211 9.31628 2.78711 8.09961C3.3121 6.88302 4.02485 5.82476 4.9248 4.9248C5.82476 4.02485 6.88302 3.3121 8.09961 2.78711C9.31628 2.26211 10.6167 2 12 2ZM11.9502 15.5C11.6002 15.5 11.3041 15.6207 11.0625 15.8623C10.8208 16.104 10.7002 16.4 10.7002 16.75C10.7002 17.1 10.8208 17.396 11.0625 17.6377C11.3041 17.8793 11.6002 18 11.9502 18C12.3001 18 12.5963 17.8793 12.8379 17.6377C13.0795 17.396 13.2002 17.1 13.2002 16.75C13.2002 16.4 13.0795 16.104 12.8379 15.8623C12.5963 15.6207 12.3001 15.5 11.9502 15.5ZM12.0996 6C11.4664 6.00005 10.862 6.13378 10.2871 6.40039C9.71234 6.66706 9.27453 7.07515 8.97461 7.625C8.85802 7.82495 8.82065 8.03776 8.8623 8.2627C8.90399 8.48762 9.0169 8.65875 9.2002 8.77539C9.43335 8.90853 9.67501 8.95029 9.9248 8.90039C10.1748 8.85039 10.3831 8.70794 10.5498 8.47461C10.733 8.22478 10.9625 8.03369 11.2373 7.90039C11.5122 7.76712 11.7998 7.70025 12.0996 7.7002C12.5162 7.7002 12.8792 7.83305 13.1875 8.09961C13.4957 8.36619 13.6503 8.69978 13.6504 9.09961C13.6504 9.46628 13.5375 9.79186 13.3125 10.0752C13.0875 10.3585 12.8331 10.625 12.5498 10.875C12.1665 11.2083 11.8287 11.5747 11.5371 11.9746C11.2454 12.3746 11.0996 12.8252 11.0996 13.3252C11.0997 13.5583 11.1876 13.7539 11.3623 13.9121C11.5372 14.0704 11.7414 14.1503 11.9746 14.1504C12.2245 14.1504 12.4374 14.0669 12.6123 13.9004C12.7872 13.7338 12.9002 13.5252 12.9502 13.2754C13.0169 12.9254 13.1671 12.6129 13.4004 12.3379C13.6337 12.0629 13.8837 11.7998 14.1504 11.5498C14.5336 11.1832 14.8628 10.7828 15.1377 10.3496C15.4125 9.91648 15.5497 9.43342 15.5498 8.90039C15.5498 8.05044 15.2043 7.35415 14.5127 6.8125C13.821 6.27083 13.0163 6 12.0996 6Z" fill="black"/>
</svg>
