<svg width="24" height="24" viewBox="0 0 24 24" fill="none" xmlns="http://www.w3.org/2000/svg">
<path fill-rule="evenodd" clip-rule="evenodd" d="M10.3315 3.49992C11.1013 2.16675 13.0255 2.16664 13.7953 3.49992L22.4555 18.4999C23.2008 19.7915 22.321 21.3961 20.8656 21.495L20.7231 21.4999H3.40274L3.26016 21.495C1.85184 21.3991 0.9828 19.8935 1.60391 18.6259L1.6713 18.4999L10.3315 3.49992ZM11.9525 15.9999C11.6693 15.9999 11.4313 16.0955 11.2397 16.287C11.048 16.4787 10.9525 16.7166 10.9525 16.9999C10.9526 17.2832 11.048 17.5212 11.2397 17.7128C11.4313 17.9043 11.6694 17.9999 11.9525 17.9999C12.2357 17.9998 12.4739 17.9044 12.6654 17.7128C12.857 17.5212 12.9525 17.2831 12.9525 16.9999C12.9525 16.7167 12.8569 16.4786 12.6654 16.287C12.4739 16.0955 12.2357 16 11.9525 15.9999ZM11.9525 9.99992C11.6693 9.99992 11.4313 10.0955 11.2397 10.287C11.048 10.4787 10.9525 10.7166 10.9525 10.9999V13.9999C10.9526 14.2832 11.048 14.5212 11.2397 14.7128C11.4313 14.9043 11.6694 14.9999 11.9525 14.9999C12.2357 14.9998 12.4739 14.9044 12.6654 14.7128C12.857 14.5212 12.9525 14.2831 12.9525 13.9999V10.9999C12.9525 10.7167 12.8569 10.4786 12.6654 10.287C12.4739 10.0955 12.2357 10 11.9525 9.99992Z" fill="black"/>
</svg>
