<svg width="24" height="24" viewBox="0 0 24 24" fill="none" xmlns="http://www.w3.org/2000/svg">
<path fill-rule="evenodd" clip-rule="evenodd" d="M12 2C13.3833 2 14.6837 2.26211 15.9004 2.78711C17.117 3.3121 18.1752 4.02485 19.0752 4.9248C19.9751 5.82476 20.6879 6.88302 21.2129 8.09961C21.7379 9.31628 22 10.6167 22 12C22 13.3833 21.7379 14.6837 21.2129 15.9004C20.6879 17.117 19.9751 18.1752 19.0752 19.0752C18.1752 19.9751 17.117 20.6879 15.9004 21.2129C14.6837 21.7379 13.3833 22 12 22C10.6167 22 9.31628 21.7379 8.09961 21.2129C6.88302 20.6879 5.82476 19.9751 4.9248 19.0752C4.02485 18.1752 3.3121 17.117 2.78711 15.9004C2.26211 14.6837 2 13.3833 2 12C2 10.6167 2.26211 9.31628 2.78711 8.09961C3.3121 6.88302 4.02485 5.82476 4.9248 4.9248C5.82476 4.02485 6.88302 3.3121 8.09961 2.78711C9.31628 2.26211 10.6167 2 12 2ZM12 14.9805C11.7167 14.9805 11.4788 15.0759 11.2871 15.2676C11.0956 15.4592 11 15.6972 11 15.9805C11.0001 16.2635 11.0957 16.5008 11.2871 16.6924C11.4788 16.884 11.7167 16.9805 12 16.9805C12.2833 16.9805 12.5212 16.884 12.7129 16.6924C12.9043 16.5008 12.9999 16.2635 13 15.9805C13 15.6972 12.9044 15.4592 12.7129 15.2676C12.5212 15.0759 12.2833 14.9805 12 14.9805ZM12 6.98047C11.7167 6.98047 11.4788 7.07591 11.2871 7.26758C11.0956 7.45922 11 7.69722 11 7.98047V11.9805C11.0001 12.2635 11.0957 12.5008 11.2871 12.6924C11.4788 12.884 11.7167 12.9805 12 12.9805C12.2833 12.9805 12.5212 12.884 12.7129 12.6924C12.9043 12.5008 12.9999 12.2635 13 11.9805V7.98047C13 7.69722 12.9044 7.45922 12.7129 7.26758C12.5212 7.07591 12.2833 6.98047 12 6.98047Z" fill="black"/>
</svg>
