<svg width="24" height="24" viewBox="0 0 24 24" fill="none" xmlns="http://www.w3.org/2000/svg">
<path fill-rule="evenodd" clip-rule="evenodd" d="M3.2349 4.08332C3.62533 3.69291 4.25842 3.6931 4.64896 4.08332L11.191 10.6253C11.1222 10.7622 11.0875 10.9156 11.0874 11.0853V14.0853C11.0875 14.3684 11.1839 14.6066 11.3755 14.7982C11.567 14.9892 11.8047 15.0852 12.0874 15.0853C12.3704 15.0851 12.6089 14.9896 12.8003 14.7982C12.9918 14.6066 13.0874 14.3684 13.0874 14.0853V12.5208L21.6348 21.0859L21.8199 21.3421C21.9904 21.7117 21.9243 22.1635 21.6197 22.4681C21.2292 22.8584 20.5961 22.8584 20.2056 22.4681L19.3228 21.5853H3.53861L3.39506 21.5804C1.98695 21.4843 1.11792 19.9787 1.73881 18.7113L1.80619 18.5853L7.11966 9.38313L3.2349 5.49739C2.84471 5.10688 2.8446 4.47376 3.2349 4.08332ZM12.0874 16.0853C11.8045 16.0853 11.567 16.1811 11.3755 16.3724C11.1839 16.564 11.0875 16.802 11.0874 17.0853C11.0876 17.3684 11.183 17.6066 11.3745 17.7982C11.5661 17.9895 11.8044 18.0852 12.0874 18.0853C12.3705 18.0851 12.6088 17.9887 12.8003 17.7972C12.9915 17.6057 13.0873 17.3681 13.0874 17.0853C13.0874 16.8022 12.9917 16.564 12.8003 16.3724C12.6088 16.1809 12.3705 16.0854 12.0874 16.0853Z" fill="black"/>
<path d="M10.3316 3.49934C11.1014 2.16626 13.0256 2.16621 13.7954 3.49934L22.4556 18.4984C22.6188 18.7812 22.7009 19.0796 22.7193 19.3734L9.0552 5.70832L10.3316 3.49934Z" fill="black"/>
</svg>
