<svg width="24" height="24" viewBox="0 0 24 24" fill="none" xmlns="http://www.w3.org/2000/svg">
<path fill-rule="evenodd" clip-rule="evenodd" d="M11 12C14.3137 12 17 14.6863 17 18V21H1V18C1 14.6863 3.68629 12 7 12H11ZM7 14C4.79086 14 3 15.7909 3 18V19H15V18C15 15.7909 13.2091 14 11 14H7Z" fill="black"/>
<path d="M17 12C20.3137 12 23 14.6863 23 18V21H19V18L18.9893 17.5879C18.8764 15.3639 17.8549 13.3807 16.2891 12H17Z" fill="black"/>
<path fill-rule="evenodd" clip-rule="evenodd" d="M9 3C11.2091 3 13 4.79086 13 7C13 9.20914 11.2091 11 9 11C6.79086 11 5 9.20914 5 7C5 4.79086 6.79086 3 9 3ZM9 5C7.89543 5 7 5.89543 7 7C7 8.10457 7.89543 9 9 9C10.1046 9 11 8.10457 11 7C11 5.89543 10.1046 5 9 5Z" fill="black"/>
<path d="M15 3C17.2091 3 19 4.79086 19 7C19 9.20914 17.2091 11 15 11C14.9549 11 14.91 10.9976 14.8652 10.9961C14.5408 10.8167 14.2026 10.6591 13.8525 10.5254C14.573 9.53542 15 8.31807 15 7C15 5.57079 14.4993 4.25911 13.665 3.22852C14.0826 3.08072 14.5318 3 15 3Z" fill="black"/>
</svg>
