<svg width="24" height="24" viewBox="0 0 24 24" fill="none" xmlns="http://www.w3.org/2000/svg">
<path d="M11 12C11.623 12 12.2241 12.0943 12.7891 12.2705C12.8559 12.7851 13.0069 13.2703 13.2275 13.7139C12.9329 13.869 12.6537 14.0491 12.3896 14.248C11.9568 14.0877 11.4886 14 11 14H7C4.79086 14 3 15.7909 3 18V19H10V21H1V18C1 14.6863 3.68629 12 7 12H11Z" fill="black"/>
<path d="M18.875 15C21.1532 15 23 16.7909 23 19V21H12V19C12 16.7909 13.8468 15 16.125 15H18.875Z" fill="black"/>
<path d="M17.5 9C19.0188 9 20.25 10.1942 20.25 11.667C20.2498 13.1396 19.0187 14.333 17.5 14.333C15.9813 14.333 14.7502 13.1396 14.75 11.667C14.75 10.1942 15.9812 9 17.5 9Z" fill="black"/>
<path fill-rule="evenodd" clip-rule="evenodd" d="M9 3C11.2091 3 13 4.79086 13 7C13 9.20914 11.2091 11 9 11C6.79086 11 5 9.20914 5 7C5 4.79086 6.79086 3 9 3ZM9 5C7.89543 5 7 5.89543 7 7C7 8.10457 7.89543 9 9 9C10.1046 9 11 8.10457 11 7C11 5.89543 10.1046 5 9 5Z" fill="black"/>
</svg>
