<svg width="24" height="24" viewBox="0 0 24 24" fill="none" xmlns="http://www.w3.org/2000/svg">
<path d="M12.4789 3.26078C12.1804 3.09797 11.8197 3.09797 11.5212 3.26078L1.80513 8.56045C1.45763 8.75 1.45772 9.24901 1.80528 9.43843L5.00006 11.1796V16.5861C5.00006 16.952 5.19987 17.2886 5.52103 17.4639L11.521 20.7382C11.8196 20.9011 12.1805 20.9011 12.4791 20.7382L18.4791 17.4639C18.8002 17.2886 19.0001 16.952 19.0001 16.5861V11.1796L21.0001 10.0896V15.9996C21.0001 16.5519 21.4478 16.9996 22.0001 16.9996C22.5523 16.9996 23.0001 16.5519 23.0001 15.9996V9.2964C23.0001 9.11343 22.9001 8.94507 22.7395 8.85745L12.4789 3.26078ZM18.8201 8.99958L12.0001 12.7196L5.18006 8.99958L12.0001 5.27958L18.8201 8.99958ZM17.0001 15.9896L12.0001 18.7196L7.00006 15.9896V12.2696L12.0001 14.9996L17.0001 12.2696V15.9896Z" fill="black"/>
</svg>
