<svg width="24" height="24" viewBox="0 0 24 24" fill="none" xmlns="http://www.w3.org/2000/svg">
<path d="M15.8799 8.29004C16.2716 7.89832 16.9075 7.89987 17.2979 8.29297C17.6858 8.68414 17.6846 9.31545 17.2949 9.70508L10.707 16.293C10.3165 16.6834 9.68347 16.6834 9.29297 16.293L6.70605 13.7061C6.31632 13.3163 6.31632 12.6837 6.70605 12.2939C7.09522 11.9052 7.72539 11.9049 8.11523 12.293L10 14.1699L15.8799 8.29004Z" fill="black"/>
<path fill-rule="evenodd" clip-rule="evenodd" d="M12 2C17.52 2 22 6.48 22 12C22 17.52 17.52 22 12 22C6.48 22 2 17.52 2 12C2 6.48 6.48 2 12 2ZM12 4C7.59 4 4 7.59 4 12C4 16.41 7.59 20 12 20C16.41 20 20 16.41 20 12C20 7.59 16.41 4 12 4Z" fill="black"/>
</svg>
