<svg width="24" height="24" viewBox="0 0 24 24" fill="none" xmlns="http://www.w3.org/2000/svg">
<path d="M16.8847 5.70505C17.2741 5.31569 17.9055 5.31571 18.2949 5.70505C18.6842 6.09441 18.6842 6.72584 18.2949 7.1152L13.4101 12L18.2949 16.8847C18.6842 17.2741 18.6842 17.9055 18.2949 18.2949C17.9055 18.6842 17.2741 18.6842 16.8847 18.2949L12 13.4101L7.1152 18.2949C6.72584 18.6842 6.09441 18.6842 5.70505 18.2949C5.31571 17.9055 5.31569 17.2741 5.70505 16.8847L10.5898 12L5.70505 7.1152C5.31568 6.72584 5.31568 6.09441 5.70505 5.70505C6.09441 5.31568 6.72584 5.31568 7.1152 5.70505L12 10.5898L16.8847 5.70505Z" fill="black"/>
</svg>
