<svg width="24" height="24" viewBox="0 0 24 24" fill="none" xmlns="http://www.w3.org/2000/svg">
<path d="M5.5 22C4.4 22 3.5 21.1 3.5 20H5.5V22Z" fill="black"/>
<path d="M9 22H7V20H9V22Z" fill="black"/>
<path d="M12.5 22H10.5V20H12.5V22Z" fill="black"/>
<path d="M16 20C16 21.1 15.1 22 14 22V20H16Z" fill="black"/>
<path d="M5.5 18.5H3.5V16.5H5.5V18.5Z" fill="black"/>
<path fill-rule="evenodd" clip-rule="evenodd" d="M18.5 2C19.6 2 20.5 2.9 20.5 4V16C20.5 17.1 19.6 18 18.5 18H9.5C8.4 18 7.5 17.1 7.5 16V4C7.5 2.9 8.4 2 9.5 2H18.5ZM9.5 4V16H18.5V4H9.5Z" fill="black"/>
<path d="M5.5 15H3.5V13H5.5V15Z" fill="black"/>
<path d="M5.5 11.5H3.5V9.5H5.5V11.5Z" fill="black"/>
<path d="M5.5 8H3.5C3.5 6.9 4.4 6 5.5 6V8Z" fill="black"/>
</svg>
