<svg width="24" height="24" viewBox="0 0 24 24" fill="none" xmlns="http://www.w3.org/2000/svg">
<path d="M1.08693 12.4082C1.4781 12.0197 2.11057 12.0209 2.50001 12.4111L7.37501 17.2949L6.67189 17.998C6.28138 18.3883 5.6483 18.3884 5.25783 17.998L1.08497 13.8242C0.693602 13.4328 0.694433 12.7983 1.08693 12.4082Z" fill="black"/>
<path d="M21.5 5.99995C21.8894 5.61053 22.5212 5.60924 22.9121 5.99702C23.305 6.38712 23.3065 7.02251 22.9151 7.41401L12.332 17.998C11.9416 18.3884 11.3085 18.3884 10.918 17.998L6.74025 13.8203C6.35078 13.4307 6.3507 12.7987 6.74025 12.4091C7.12943 12.02 7.76067 12.0196 8.1504 12.4082L11.625 15.875L21.5 5.99995Z" fill="black"/>
<path d="M15.8496 5.99995C16.239 5.61062 16.8704 5.61068 17.2598 5.99995C17.6491 6.38931 17.6491 7.02075 17.2598 7.41011L11.625 13.0449L10.2149 11.6347L15.8496 5.99995Z" fill="black"/>
</svg>
