<svg width="24" height="24" viewBox="0 0 24 24" fill="none" xmlns="http://www.w3.org/2000/svg">
<path d="M10.5254 4.0127C10.8585 4.01278 11.1088 4.11694 11.2754 4.3252C11.4419 4.53345 11.5254 4.76282 11.5254 5.0127C11.5253 5.26262 11.4376 5.49192 11.2627 5.7002C11.0877 5.90852 10.8333 6.0127 10.5 6.0127H4V20.0127H18V13.4873C18 13.1541 18.1042 12.9039 18.3125 12.7373C18.5208 12.5707 18.75 12.4873 19 12.4873C19.25 12.4873 19.4792 12.5707 19.6875 12.7373C19.8958 12.9039 20 13.1541 20 13.4873V20.0127C20 20.5626 19.8037 21.0332 19.4121 21.4248C19.0205 21.8164 18.55 22.0127 18 22.0127H4C3.45005 22.0127 2.97954 21.8164 2.58789 21.4248C2.19627 21.0332 2.00005 20.5626 2 20.0127V6.0127C2 5.4627 2.19622 4.99128 2.58789 4.59961C2.97948 4.2082 3.45018 4.0127 4 4.0127H10.5254Z" fill="black"/>
<path fill-rule="evenodd" clip-rule="evenodd" d="M18.5996 1.9873C18.8662 1.9873 19.1207 2.03772 19.3623 2.1377C19.604 2.2377 19.8254 2.38789 20.0254 2.58789L21.4248 4.0127C21.6081 4.21261 21.7496 4.43326 21.8496 4.6748C21.9496 4.91635 21.9999 5.16224 22 5.41211C22 5.66211 21.954 5.90872 21.8623 6.15039C21.7706 6.3919 21.6247 6.61261 21.4248 6.8125L12.8252 15.4121C12.6419 15.5954 12.4291 15.7413 12.1875 15.8496C11.9458 15.9579 11.6915 16.0127 11.4248 16.0127H9C8.71667 16.0127 8.47878 15.9163 8.28711 15.7246C8.09575 15.5331 8.00004 15.2957 8 15.0127V12.5879C8 12.3212 8.0504 12.0669 8.15039 11.8252C8.25039 11.5835 8.39186 11.3708 8.5752 11.1875L17.1748 2.58789C17.3747 2.388 17.5998 2.2377 17.8496 2.1377C18.0995 2.03775 18.3497 1.98736 18.5996 1.9873ZM10 12.5879V14.0127H11.4004L17.2002 8.21289L16.5 7.5127L15.7754 6.8125L10 12.5879Z" fill="black"/>
</svg>
