<svg width="24" height="24" viewBox="0 0 24 24" fill="none" xmlns="http://www.w3.org/2000/svg">
<path d="M20 2C21.1046 2 22 2.89543 22 4V20C22 21.1046 21.1046 22 20 22H4C2.89543 22 2 21.1046 2 20V17.5C2 16.9477 2.44772 16.5 3 16.5C3.55228 16.5 4 16.9477 4 17.5V20H20V4H4V11H13.0859L11.793 9.70703C11.4024 9.31651 11.4024 8.68349 11.793 8.29297C12.1835 7.90244 12.8165 7.90244 13.207 8.29297L15.8535 10.9395C16.4392 11.5252 16.4392 12.4748 15.8535 13.0605L13.207 15.707C12.8165 16.0976 12.1835 16.0975 11.793 15.707C11.4024 15.3165 11.4024 14.6835 11.793 14.293L13.0859 13H2V4C2 2.89543 2.89543 2 4 2H20Z" fill="black"/>
</svg>
