<svg width="24" height="24" viewBox="0 0 24 24" fill="none" xmlns="http://www.w3.org/2000/svg">
<path d="M18 10.5C18.5523 10.5 19 10.9477 19 11.5C19 12.0523 18.5523 12.5 18 12.5C17.4477 12.5 17 12.0523 17 11.5C17 10.9477 17.4477 10.5 18 10.5Z" fill="black"/>
<path fill-rule="evenodd" clip-rule="evenodd" d="M18 8H19C20.66 8 22 9.34 22 11V17H18V21H6V17H2V11C2 9.34 3.34 8 5 8H6V3H18V8ZM8 19H16V15H8V19ZM5 10C4.45 10 4 10.45 4 11V15H6V13H18V15H20V11C20 10.45 19.55 10 19 10H5ZM8 8H16V5H8V8Z" fill="black"/>
</svg>
