<svg width="24" height="24" viewBox="0 0 24 24" fill="none" xmlns="http://www.w3.org/2000/svg">
<path fill-rule="evenodd" clip-rule="evenodd" d="M11.0793 4.67268C11.424 3.86006 12.5754 3.86011 12.9201 4.67268L14.8098 9.12971L19.6379 9.53987C20.5193 9.61468 20.8768 10.7136 20.2082 11.2928L16.5403 14.4696L17.6408 19.1922C17.8415 20.0535 16.9078 20.7323 16.1506 20.2752L12.0002 17.7694L7.84885 20.2752C7.09175 20.7318 6.15812 20.0533 6.35861 19.1922L7.46017 14.4696L3.79123 11.2928C3.12266 10.7137 3.48029 9.61486 4.36154 9.53987L9.19064 9.12971L11.0793 4.67268ZM11.0305 9.90022L10.5598 11.0096L9.36056 11.1102L6.88986 11.3201L9.6799 13.7401L9.41037 14.9197L8.84982 17.3299L10.9699 16.0496L12.0002 15.4295L13.0305 16.0701L15.1506 17.3494L14.5901 14.9403L14.3205 13.7596L17.1106 11.3397L14.6399 11.1297L13.4406 11.0301L12.0002 7.62971L11.0305 9.90022Z" fill="black"/>
</svg>
