<svg width="24" height="24" viewBox="0 0 24 24" fill="none" xmlns="http://www.w3.org/2000/svg">
<path d="M12 2C17.52 2 22 6.48 22 12C22 17.52 17.52 22 12 22C9.5228 22 7.26135 21.0983 5.51758 19.6055L7.28125 18.4521C8.60282 19.4245 10.2315 20 12 20C16.42 20 20 16.42 20 12C20 7.58 16.42 4 12 4C10.2312 4 8.60197 4.57532 7.28027 5.5459L5.51562 4.39258C7.25962 2.90189 9.52202 2 12 2Z" fill="black"/>
<path d="M2 5.9834C2 5.19967 2.87451 4.73146 3.52734 5.16602L12.5625 11.1836C13.1456 11.5721 13.1457 12.429 12.5625 12.8174L3.52734 18.834C2.87451 19.2685 2 18.8003 2 18.0166L2 5.9834Z" fill="black"/>
<path d="M12 6C15.31 6 18 8.69 18 12C18 15.31 15.31 18 12 18C10.9512 18 9.9674 17.7295 9.11133 17.2559L11.167 15.9111C11.4351 15.9687 11.7135 16 12 16C14.21 16 16 14.21 16 12C16 9.79 14.21 8 12 8C11.7133 8 11.4344 8.03021 11.166 8.08789L9.11035 6.74414C9.9666 6.27021 10.9509 6 12 6Z" fill="black"/>
</svg>
