<svg width="24" height="24" viewBox="0 0 24 24" fill="none" xmlns="http://www.w3.org/2000/svg">
<path fill-rule="evenodd" clip-rule="evenodd" d="M18 2.04004C19.66 2.04004 21 3.38004 21 5.04004C21 6.70001 19.66 8.04004 18 8.04004C17.21 8.04004 16.5 7.72949 15.96 7.22949L8.91016 11.3398C8.96016 11.5698 9 11.8 9 12.04C8.99999 12.28 8.96015 12.5103 8.91016 12.7402L16.04 16.8896C16.56 16.4197 17.2401 16.1201 18 16.1201C19.61 16.1201 20.9199 17.43 20.9199 19.04C20.9199 20.65 19.61 21.96 18 21.96C16.39 21.96 15.0801 20.65 15.0801 19.04C15.0801 18.82 15.1102 18.5996 15.1602 18.3896L8.04004 14.2295C7.50004 14.7295 6.79 15.04 6 15.04C4.34002 15.04 3.00003 13.7 3 12.04C3 10.38 4.34 9.04004 6 9.04004C6.78992 9.04004 7.50006 9.3497 8.04004 9.84961L15.0898 5.74023C15.0398 5.51025 15 5.28002 15 5.04004C15 3.38004 16.34 2.04004 18 2.04004ZM18 18.0596C17.4501 18.0596 17.0002 18.5098 17 19.0596C17 19.6096 17.45 20.0596 18 20.0596C18.55 20.0596 19 19.6096 19 19.0596C18.9998 18.5098 18.5499 18.0596 18 18.0596ZM6 11.04C5.45 11.04 5 11.49 5 12.04C5.00003 12.59 5.45002 13.04 6 13.04C6.54998 13.04 6.99997 12.59 7 12.04C7 11.49 6.55 11.04 6 11.04ZM18 4.04004C17.45 4.04004 17 4.49004 17 5.04004C17 5.59001 17.45 6.04004 18 6.04004C18.55 6.04004 19 5.59001 19 5.04004C19 4.49004 18.55 4.04004 18 4.04004Z" fill="black"/>
</svg>
