<svg width="24" height="24" viewBox="0 0 24 24" fill="none" xmlns="http://www.w3.org/2000/svg">
<path d="M18.3252 8.60059C18.5918 8.46729 18.854 8.45427 19.1123 8.5625C19.3706 8.67083 19.5417 8.86706 19.625 9.15039C19.7583 9.53365 19.8538 9.92527 19.9121 10.3252C19.9704 10.7252 20 11.1254 20 11.5254C20 13.7586 19.2248 15.659 17.6748 17.2256C16.1249 18.7921 14.2332 19.5752 12 19.5752H11.8252L12.7246 20.4756C12.9079 20.6588 12.9999 20.8916 13 21.1748C13 21.4581 12.9079 21.6917 12.7246 21.875C12.5414 22.0582 12.3085 22.1503 12.0254 22.1504C11.7421 22.1504 11.5085 22.0583 11.3252 21.875L8.72461 19.2754C8.52467 19.0754 8.42481 18.8418 8.4248 18.5752C8.4248 18.3086 8.52468 18.075 8.72461 17.875L11.3252 15.2754C11.5085 15.0921 11.7421 15 12.0254 15C12.3085 15.0001 12.5414 15.0922 12.7246 15.2754C12.9079 15.4587 13 15.6923 13 15.9756C12.9999 16.2587 12.9079 16.4916 12.7246 16.6748L11.8252 17.5752H12C13.6667 17.5752 15.0833 16.9875 16.25 15.8125C17.4166 14.6376 18 13.2086 18 11.5254C18 11.2587 17.9835 10.9956 17.9502 10.7373C17.9169 10.4793 17.8586 10.2253 17.7754 9.97559C17.6921 9.6924 17.7 9.42129 17.7998 9.16309C17.8998 8.90475 18.0752 8.71725 18.3252 8.60059Z" fill="black"/>
<path d="M11.9746 1C12.2579 1 12.4915 1.09206 12.6748 1.27539L15.2754 3.875C15.4753 4.07498 15.5752 4.30857 15.5752 4.5752C15.5752 4.84182 15.4753 5.07541 15.2754 5.27539L12.6748 7.875C12.4915 8.05833 12.2579 8.15039 11.9746 8.15039C11.6915 8.15031 11.4586 8.05818 11.2754 7.875C11.0921 7.69167 11 7.45814 11 7.1748C11.0001 6.89165 11.0921 6.65884 11.2754 6.47559L12.1748 5.5752H12C10.3333 5.5752 8.91667 6.16289 7.75 7.33789C6.58344 8.51283 6.00004 9.9418 6 11.625C6 11.8917 6.01647 12.1548 6.0498 12.4131C6.08313 12.6711 6.1414 12.9251 6.22461 13.1748C6.3079 13.458 6.30005 13.7291 6.2002 13.9873C6.1002 14.2456 5.9248 14.4331 5.6748 14.5498C5.40822 14.6831 5.14595 14.6961 4.8877 14.5879C4.62936 14.4796 4.45833 14.2833 4.375 14C4.2417 13.6167 4.14622 13.2251 4.08789 12.8252C4.02956 12.4252 4 12.025 4 11.625C4.00004 9.39175 4.77524 7.49143 6.3252 5.9248C7.87514 4.35833 9.7668 3.5752 12 3.5752H12.1748L11.2754 2.6748C11.0921 2.49156 11.0001 2.25874 11 1.97559C11 1.69225 11.0921 1.45872 11.2754 1.27539C11.4586 1.0922 11.6915 1.00008 11.9746 1Z" fill="black"/>
</svg>
