<svg width="24" height="24" viewBox="0 0 24 24" fill="none" xmlns="http://www.w3.org/2000/svg">
<path fill-rule="evenodd" clip-rule="evenodd" d="M11.9607 1.00488C13.7917 1.09791 15.2478 2.61165 15.2478 4.46582V8H18.7507C21.2023 8 23.0776 10.1854 22.7048 12.6084L21.6277 19.6084C21.3274 21.5597 19.6478 23 17.6736 23H4.2478C2.59095 23 1.2478 21.6569 1.2478 20V13C1.2478 11.3431 2.59095 10 4.2478 10H6.59839L10.1169 2.08203L10.1755 1.96094C10.4908 1.37231 11.107 1 11.782 1L11.9607 1.00488ZM4.2478 12C3.69552 12 3.2478 12.4477 3.2478 13V20C3.2478 20.5523 3.69552 21 4.2478 21H6.2478V12H4.2478ZM8.42554 10.8125C8.37581 10.9244 8.3153 11.0292 8.2478 11.1279V21H17.6736C18.6607 21 19.501 20.2794 19.6511 19.3037L20.7273 12.3037C20.9135 11.0923 19.9764 10 18.7507 10H15.2478C14.1432 10 13.2478 9.10457 13.2478 8V4.46582C13.2478 3.69443 12.6518 3.06375 11.8953 3.00586L8.42554 10.8125Z" fill="black"/>
</svg>
