<svg width="24" height="24" viewBox="0 0 24 24" fill="none" xmlns="http://www.w3.org/2000/svg">
<path fill-rule="evenodd" clip-rule="evenodd" d="M6.62598 4.22196C7.01647 3.83161 7.64954 3.83162 8.04004 4.22196L22.1826 18.3645C22.5722 18.7551 22.5727 19.3884 22.1826 19.7786C21.7924 20.1686 21.1591 20.1682 20.7686 19.7786L16.2832 15.2933H14.1113C12.4513 15.2933 11.1113 16.6333 11.1113 18.2933H9.11133V12.263H2.11133L1.11133 11.263L2.11133 10.263H9.11133V8.12138L6.62598 5.63603C6.23567 5.24557 6.23574 4.61246 6.62598 4.22196ZM11.1113 14.2933C11.9513 13.6633 12.9914 13.2933 14.1113 13.2933H14.2832L11.1113 10.1214V14.2933Z" fill="black"/>
<path d="M20.1113 5.29325C20.6611 5.29349 21.1113 5.74339 21.1113 6.29325V14.4651L19.1113 12.4651V9.29325H15.9395L13.9346 7.28837C13.9929 7.29173 14.0522 7.29325 14.1113 7.29325H19.1113V6.29325C19.1113 5.74325 19.5613 5.29325 20.1113 5.29325Z" fill="black"/>
</svg>
