<svg width="24" height="24" viewBox="0 0 24 24" fill="none" xmlns="http://www.w3.org/2000/svg">
<path fill-rule="evenodd" clip-rule="evenodd" d="M2.71289 3.13745C3.10328 2.74468 3.73837 2.74376 4.12988 3.1355L20.4453 19.4597C20.8345 19.8491 20.8345 20.4805 20.4453 20.8699C20.0559 21.2592 19.4246 21.2592 19.0352 20.8699L16.3203 18.155C14.9803 18.685 13.52 18.9753 12 18.9753C7.00011 18.9753 2.73007 15.8652 1 11.4753C1.76999 9.50535 3.06045 7.80514 4.69043 6.52514L2.71484 4.54956C2.32539 4.15984 2.32468 3.52846 2.71289 3.13745ZM6.11035 7.94507C4.90037 8.86506 3.87968 10.0454 3.17969 11.4753C4.82971 14.8453 8.21006 16.9753 12 16.9753C12.95 16.9753 13.87 16.8354 14.75 16.5955L13.7695 15.615C13.2296 15.8449 12.6298 15.9753 12 15.9753C9.52011 15.9753 7.50018 13.9552 7.5 11.4753C7.5 10.8454 7.63037 10.245 7.86035 9.69507L6.11035 7.94507ZM9.5 11.4753C9.50018 12.8552 10.6201 13.9753 12 13.9753C12.04 13.9753 12.0801 13.9648 12.1201 13.9548L9.50977 11.3455C9.50971 11.3952 9.5 11.4255 9.5 11.4753Z" fill="black"/>
<path d="M12 3.97534C17 3.97534 21.27 7.08534 23 11.4753C22.3101 13.2351 21.21 14.7748 19.8203 16.0046L18.4102 14.5955C19.4001 13.7455 20.2303 12.6953 20.8203 11.4753C19.1703 8.10534 15.79 5.97534 12 5.97534C11.32 5.97534 10.6598 6.06507 10.0098 6.19507L8.36035 4.54468C9.51022 4.17476 10.7302 3.97534 12 3.97534Z" fill="black"/>
<path d="M12 6.97534C14.4798 6.97534 16.5 8.98482 16.4902 11.4646C16.4902 11.8345 16.4296 12.195 16.3496 12.5349L14.2803 10.4646C14.0303 9.89477 13.5698 9.43527 13 9.1853L10.9297 7.11499C11.2797 7.02499 11.63 6.97534 12 6.97534Z" fill="black"/>
</svg>
